%TF.GenerationSoftware,KiCad,Pcbnew,9.0.1*%
%TF.CreationDate,2025-04-21T23:50:01-04:00*%
%TF.ProjectId,can-nano-shield,63616e2d-6e61-46e6-9f2d-736869656c64,rev?*%
%TF.SameCoordinates,Original*%
%TF.FileFunction,Soldermask,Bot*%
%TF.FilePolarity,Negative*%
%FSLAX46Y46*%
G04 Gerber Fmt 4.6, Leading zero omitted, Abs format (unit mm)*
G04 Created by KiCad (PCBNEW 9.0.1) date 2025-04-21 23:50:01*
%MOMM*%
%LPD*%
G01*
G04 APERTURE LIST*
G04 Aperture macros list*
%AMRoundRect*
0 Rectangle with rounded corners*
0 $1 Rounding radius*
0 $2 $3 $4 $5 $6 $7 $8 $9 X,Y pos of 4 corners*
0 Add a 4 corners polygon primitive as box body*
4,1,4,$2,$3,$4,$5,$6,$7,$8,$9,$2,$3,0*
0 Add four circle primitives for the rounded corners*
1,1,$1+$1,$2,$3*
1,1,$1+$1,$4,$5*
1,1,$1+$1,$6,$7*
1,1,$1+$1,$8,$9*
0 Add four rect primitives between the rounded corners*
20,1,$1+$1,$2,$3,$4,$5,0*
20,1,$1+$1,$4,$5,$6,$7,0*
20,1,$1+$1,$6,$7,$8,$9,0*
20,1,$1+$1,$8,$9,$2,$3,0*%
%AMFreePoly0*
4,1,23,0.500000,-0.750000,0.000000,-0.750000,0.000000,-0.745722,-0.065263,-0.745722,-0.191342,-0.711940,-0.304381,-0.646677,-0.396677,-0.554381,-0.461940,-0.441342,-0.495722,-0.315263,-0.495722,-0.250000,-0.500000,-0.250000,-0.500000,0.250000,-0.495722,0.250000,-0.495722,0.315263,-0.461940,0.441342,-0.396677,0.554381,-0.304381,0.646677,-0.191342,0.711940,-0.065263,0.745722,0.000000,0.745722,
0.000000,0.750000,0.500000,0.750000,0.500000,-0.750000,0.500000,-0.750000,$1*%
%AMFreePoly1*
4,1,23,0.000000,0.745722,0.065263,0.745722,0.191342,0.711940,0.304381,0.646677,0.396677,0.554381,0.461940,0.441342,0.495722,0.315263,0.495722,0.250000,0.500000,0.250000,0.500000,-0.250000,0.495722,-0.250000,0.495722,-0.315263,0.461940,-0.441342,0.396677,-0.554381,0.304381,-0.646677,0.191342,-0.711940,0.065263,-0.745722,0.000000,-0.745722,0.000000,-0.750000,-0.500000,-0.750000,
-0.500000,0.750000,0.000000,0.750000,0.000000,0.745722,0.000000,0.745722,$1*%
G04 Aperture macros list end*
%ADD10RoundRect,0.102000X0.685000X0.685000X-0.685000X0.685000X-0.685000X-0.685000X0.685000X-0.685000X0*%
%ADD11C,1.574000*%
%ADD12RoundRect,0.250000X0.725000X-0.600000X0.725000X0.600000X-0.725000X0.600000X-0.725000X-0.600000X0*%
%ADD13O,1.950000X1.700000*%
%ADD14R,2.100000X1.800000*%
%ADD15FreePoly0,0.000000*%
%ADD16FreePoly1,0.000000*%
%ADD17RoundRect,0.250000X0.475000X-0.337500X0.475000X0.337500X-0.475000X0.337500X-0.475000X-0.337500X0*%
%ADD18RoundRect,0.250000X-0.350000X-0.450000X0.350000X-0.450000X0.350000X0.450000X-0.350000X0.450000X0*%
%ADD19RoundRect,0.162500X-0.447500X-0.162500X0.447500X-0.162500X0.447500X0.162500X-0.447500X0.162500X0*%
%ADD20RoundRect,0.150000X-0.825000X-0.150000X0.825000X-0.150000X0.825000X0.150000X-0.825000X0.150000X0*%
%ADD21RoundRect,0.250000X0.350000X0.450000X-0.350000X0.450000X-0.350000X-0.450000X0.350000X-0.450000X0*%
%ADD22R,1.700000X1.700000*%
%ADD23C,1.700000*%
%ADD24RoundRect,0.250000X-0.337500X-0.475000X0.337500X-0.475000X0.337500X0.475000X-0.337500X0.475000X0*%
%ADD25RoundRect,0.150000X0.150000X-0.875000X0.150000X0.875000X-0.150000X0.875000X-0.150000X-0.875000X0*%
G04 APERTURE END LIST*
%TO.C,JP2*%
G36*
X143425000Y-88875000D02*
G01*
X143725000Y-88875000D01*
X143725000Y-87375000D01*
X143425000Y-87375000D01*
X143425000Y-88875000D01*
G37*
%TO.C,JP1*%
G36*
X143450000Y-97175000D02*
G01*
X143750000Y-97175000D01*
X143750000Y-95675000D01*
X143450000Y-95675000D01*
X143450000Y-97175000D01*
G37*
%TD*%
D10*
%TO.C,J2*%
X151400000Y-99930000D03*
D11*
X148860000Y-99930000D03*
X146320000Y-99930000D03*
X143780000Y-99930000D03*
X141240000Y-99930000D03*
X138700000Y-99930000D03*
X136160000Y-99930000D03*
X133620000Y-99930000D03*
X131080000Y-99930000D03*
X128540000Y-99930000D03*
X126000000Y-99930000D03*
X123460000Y-99930000D03*
X120920000Y-99930000D03*
X118380000Y-99930000D03*
X115840000Y-99930000D03*
%TD*%
D12*
%TO.C,J4*%
X153790000Y-94780000D03*
D13*
X153790000Y-92280000D03*
X153790000Y-89780000D03*
%TD*%
D10*
%TO.C,J1*%
X151405000Y-84700000D03*
D11*
X148865000Y-84700000D03*
X146325000Y-84700000D03*
X143785000Y-84700000D03*
X141245000Y-84700000D03*
X138705000Y-84700000D03*
X136165000Y-84700000D03*
X133625000Y-84700000D03*
X131085000Y-84700000D03*
X128545000Y-84700000D03*
X126005000Y-84700000D03*
X123465000Y-84700000D03*
X120925000Y-84700000D03*
X118385000Y-84700000D03*
X115845000Y-84700000D03*
%TD*%
D14*
%TO.C,Y1*%
X118225000Y-94425000D03*
X121125000Y-94425000D03*
X121125000Y-96725000D03*
X118225000Y-96725000D03*
%TD*%
D15*
%TO.C,JP2*%
X142925000Y-88125000D03*
D16*
X144225000Y-88125000D03*
%TD*%
D17*
%TO.C,C4*%
X148150000Y-97000000D03*
X148150000Y-94925000D03*
%TD*%
%TO.C,C2*%
X121325000Y-92337500D03*
X121325000Y-90262500D03*
%TD*%
D18*
%TO.C,Rt2*%
X144125000Y-90325000D03*
X146125000Y-90325000D03*
%TD*%
D15*
%TO.C,JP1*%
X142950000Y-96425000D03*
D16*
X144250000Y-96425000D03*
%TD*%
D19*
%TO.C,D1*%
X148015000Y-93242500D03*
X148015000Y-91342500D03*
X150635000Y-92292500D03*
%TD*%
D17*
%TO.C,C1*%
X118200000Y-92362500D03*
X118200000Y-90287500D03*
%TD*%
D20*
%TO.C,U2*%
X136425000Y-94215000D03*
X136425000Y-92945000D03*
X136425000Y-91675000D03*
X136425000Y-90405000D03*
X141375000Y-90405000D03*
X141375000Y-91675000D03*
X141375000Y-92945000D03*
X141375000Y-94215000D03*
%TD*%
D21*
%TO.C,R2*%
X141000000Y-96150000D03*
X139000000Y-96150000D03*
%TD*%
D22*
%TO.C,J3*%
X115025000Y-88375000D03*
D23*
X115025000Y-90915000D03*
X115025000Y-93455000D03*
X115025000Y-95995000D03*
%TD*%
D24*
%TO.C,C3*%
X143500000Y-92275000D03*
X145575000Y-92275000D03*
%TD*%
D21*
%TO.C,Rt1*%
X146125000Y-94225000D03*
X144125000Y-94225000D03*
%TD*%
D25*
%TO.C,U1*%
X134250000Y-96925000D03*
X132980000Y-96925000D03*
X131710000Y-96925000D03*
X130440000Y-96925000D03*
X129170000Y-96925000D03*
X127900000Y-96925000D03*
X126630000Y-96925000D03*
X125360000Y-96925000D03*
X124090000Y-96925000D03*
X124090000Y-87625000D03*
X125360000Y-87625000D03*
X126630000Y-87625000D03*
X127900000Y-87625000D03*
X129170000Y-87625000D03*
X130440000Y-87625000D03*
X131710000Y-87625000D03*
X132980000Y-87625000D03*
X134250000Y-87625000D03*
%TD*%
D17*
%TO.C,C5*%
X148125000Y-89650000D03*
X148125000Y-87575000D03*
%TD*%
M02*
