%TF.GenerationSoftware,KiCad,Pcbnew,9.0.1*%
%TF.CreationDate,2025-09-14T13:33:31-04:00*%
%TF.ProjectId,can-nano-shield-fieldbus,63616e2d-6e61-46e6-9f2d-736869656c64,rev?*%
%TF.SameCoordinates,Original*%
%TF.FileFunction,Legend,Bot*%
%TF.FilePolarity,Positive*%
%FSLAX46Y46*%
G04 Gerber Fmt 4.6, Leading zero omitted, Abs format (unit mm)*
G04 Created by KiCad (PCBNEW 9.0.1) date 2025-09-14 13:33:31*
%MOMM*%
%LPD*%
G01*
G04 APERTURE LIST*
%ADD10C,0.075000*%
%ADD11C,0.150000*%
%ADD12C,0.120000*%
%ADD13C,0.200000*%
G04 APERTURE END LIST*
D10*
X150750181Y-88903169D02*
X150826372Y-88712693D01*
X150921610Y-88903169D02*
X150871610Y-88503169D01*
X150871610Y-88503169D02*
X150757324Y-88503169D01*
X150757324Y-88503169D02*
X150731134Y-88522217D01*
X150731134Y-88522217D02*
X150719229Y-88541264D01*
X150719229Y-88541264D02*
X150709705Y-88579360D01*
X150709705Y-88579360D02*
X150716848Y-88636502D01*
X150716848Y-88636502D02*
X150735896Y-88674598D01*
X150735896Y-88674598D02*
X150752562Y-88693645D01*
X150752562Y-88693645D02*
X150783515Y-88712693D01*
X150783515Y-88712693D02*
X150897800Y-88712693D01*
X150485896Y-88503169D02*
X150521610Y-88788883D01*
X150521610Y-88788883D02*
X150543038Y-88846026D01*
X150543038Y-88846026D02*
X150576372Y-88884122D01*
X150576372Y-88884122D02*
X150621610Y-88903169D01*
X150621610Y-88903169D02*
X150650181Y-88903169D01*
X150231134Y-88636502D02*
X150264467Y-88903169D01*
X150283515Y-88484122D02*
X150390658Y-88769836D01*
X150390658Y-88769836D02*
X150204944Y-88769836D01*
X149914468Y-88503169D02*
X150057325Y-88503169D01*
X150057325Y-88503169D02*
X150095420Y-88693645D01*
X150095420Y-88693645D02*
X150078753Y-88674598D01*
X150078753Y-88674598D02*
X150047801Y-88655550D01*
X150047801Y-88655550D02*
X149976373Y-88655550D01*
X149976373Y-88655550D02*
X149950182Y-88674598D01*
X149950182Y-88674598D02*
X149938277Y-88693645D01*
X149938277Y-88693645D02*
X149928753Y-88731741D01*
X149928753Y-88731741D02*
X149940658Y-88826979D01*
X149940658Y-88826979D02*
X149959706Y-88865074D01*
X149959706Y-88865074D02*
X149976373Y-88884122D01*
X149976373Y-88884122D02*
X150007325Y-88903169D01*
X150007325Y-88903169D02*
X150078753Y-88903169D01*
X150078753Y-88903169D02*
X150104944Y-88884122D01*
X150104944Y-88884122D02*
X150116849Y-88865074D01*
X149593040Y-88903169D02*
X149543040Y-88503169D01*
X149450183Y-88903169D02*
X149400183Y-88503169D01*
X149400183Y-88503169D02*
X149278754Y-88903169D01*
X149278754Y-88903169D02*
X149228754Y-88503169D01*
X149128754Y-88503169D02*
X148957325Y-88503169D01*
X149093040Y-88903169D02*
X149043040Y-88503169D01*
X148688279Y-88636502D02*
X148573993Y-88636502D01*
X148628755Y-88503169D02*
X148671612Y-88846026D01*
X148671612Y-88846026D02*
X148662088Y-88884122D01*
X148662088Y-88884122D02*
X148635898Y-88903169D01*
X148635898Y-88903169D02*
X148607326Y-88903169D01*
X148464469Y-88903169D02*
X148490659Y-88884122D01*
X148490659Y-88884122D02*
X148502564Y-88865074D01*
X148502564Y-88865074D02*
X148512088Y-88826979D01*
X148512088Y-88826979D02*
X148497802Y-88712693D01*
X148497802Y-88712693D02*
X148478754Y-88674598D01*
X148478754Y-88674598D02*
X148462088Y-88655550D01*
X148462088Y-88655550D02*
X148431135Y-88636502D01*
X148431135Y-88636502D02*
X148388278Y-88636502D01*
X148388278Y-88636502D02*
X148362088Y-88655550D01*
X148362088Y-88655550D02*
X148350183Y-88674598D01*
X148350183Y-88674598D02*
X148340659Y-88712693D01*
X148340659Y-88712693D02*
X148354945Y-88826979D01*
X148354945Y-88826979D02*
X148373993Y-88865074D01*
X148373993Y-88865074D02*
X148390659Y-88884122D01*
X148390659Y-88884122D02*
X148421612Y-88903169D01*
X148421612Y-88903169D02*
X148464469Y-88903169D01*
X150745419Y-89509052D02*
X150762086Y-89528100D01*
X150762086Y-89528100D02*
X150807324Y-89547147D01*
X150807324Y-89547147D02*
X150835896Y-89547147D01*
X150835896Y-89547147D02*
X150876372Y-89528100D01*
X150876372Y-89528100D02*
X150900181Y-89490004D01*
X150900181Y-89490004D02*
X150909705Y-89451909D01*
X150909705Y-89451909D02*
X150914467Y-89375719D01*
X150914467Y-89375719D02*
X150907324Y-89318576D01*
X150907324Y-89318576D02*
X150883515Y-89242385D01*
X150883515Y-89242385D02*
X150864467Y-89204290D01*
X150864467Y-89204290D02*
X150831134Y-89166195D01*
X150831134Y-89166195D02*
X150785896Y-89147147D01*
X150785896Y-89147147D02*
X150757324Y-89147147D01*
X150757324Y-89147147D02*
X150716848Y-89166195D01*
X150716848Y-89166195D02*
X150704943Y-89185242D01*
X150621610Y-89432861D02*
X150478753Y-89432861D01*
X150664467Y-89547147D02*
X150514467Y-89147147D01*
X150514467Y-89147147D02*
X150464467Y-89547147D01*
X150364467Y-89547147D02*
X150314467Y-89147147D01*
X150314467Y-89147147D02*
X150193038Y-89547147D01*
X150193038Y-89547147D02*
X150143038Y-89147147D01*
X149821610Y-89547147D02*
X149771610Y-89147147D01*
X149678753Y-89547147D02*
X149628753Y-89147147D01*
X149628753Y-89147147D02*
X149507324Y-89547147D01*
X149507324Y-89547147D02*
X149457324Y-89147147D01*
X149357324Y-89147147D02*
X149185895Y-89147147D01*
X149321610Y-89547147D02*
X149271610Y-89147147D01*
X141635419Y-86445074D02*
X141652086Y-86464122D01*
X141652086Y-86464122D02*
X141697324Y-86483169D01*
X141697324Y-86483169D02*
X141725896Y-86483169D01*
X141725896Y-86483169D02*
X141766372Y-86464122D01*
X141766372Y-86464122D02*
X141790181Y-86426026D01*
X141790181Y-86426026D02*
X141799705Y-86387931D01*
X141799705Y-86387931D02*
X141804467Y-86311741D01*
X141804467Y-86311741D02*
X141797324Y-86254598D01*
X141797324Y-86254598D02*
X141773515Y-86178407D01*
X141773515Y-86178407D02*
X141754467Y-86140312D01*
X141754467Y-86140312D02*
X141721134Y-86102217D01*
X141721134Y-86102217D02*
X141675896Y-86083169D01*
X141675896Y-86083169D02*
X141647324Y-86083169D01*
X141647324Y-86083169D02*
X141606848Y-86102217D01*
X141606848Y-86102217D02*
X141594943Y-86121264D01*
X141511610Y-86368883D02*
X141368753Y-86368883D01*
X141554467Y-86483169D02*
X141404467Y-86083169D01*
X141404467Y-86083169D02*
X141354467Y-86483169D01*
X141254467Y-86483169D02*
X141204467Y-86083169D01*
X141204467Y-86083169D02*
X141083038Y-86483169D01*
X141083038Y-86483169D02*
X141033038Y-86083169D01*
X141016371Y-86521264D02*
X140787800Y-86521264D01*
X140711610Y-86483169D02*
X140661610Y-86083169D01*
X140685419Y-86273645D02*
X140513991Y-86273645D01*
X140540181Y-86483169D02*
X140490181Y-86083169D01*
X139992562Y-86445074D02*
X140009229Y-86464122D01*
X140009229Y-86464122D02*
X140054467Y-86483169D01*
X140054467Y-86483169D02*
X140083039Y-86483169D01*
X140083039Y-86483169D02*
X140123515Y-86464122D01*
X140123515Y-86464122D02*
X140147324Y-86426026D01*
X140147324Y-86426026D02*
X140156848Y-86387931D01*
X140156848Y-86387931D02*
X140161610Y-86311741D01*
X140161610Y-86311741D02*
X140154467Y-86254598D01*
X140154467Y-86254598D02*
X140130658Y-86178407D01*
X140130658Y-86178407D02*
X140111610Y-86140312D01*
X140111610Y-86140312D02*
X140078277Y-86102217D01*
X140078277Y-86102217D02*
X140033039Y-86083169D01*
X140033039Y-86083169D02*
X140004467Y-86083169D01*
X140004467Y-86083169D02*
X139963991Y-86102217D01*
X139963991Y-86102217D02*
X139952086Y-86121264D01*
X139868753Y-86483169D02*
X139818753Y-86083169D01*
X139818753Y-86083169D02*
X139754467Y-86368883D01*
X139754467Y-86368883D02*
X139618753Y-86083169D01*
X139618753Y-86083169D02*
X139668753Y-86483169D01*
X139349705Y-86445074D02*
X139366372Y-86464122D01*
X139366372Y-86464122D02*
X139411610Y-86483169D01*
X139411610Y-86483169D02*
X139440182Y-86483169D01*
X139440182Y-86483169D02*
X139480658Y-86464122D01*
X139480658Y-86464122D02*
X139504467Y-86426026D01*
X139504467Y-86426026D02*
X139513991Y-86387931D01*
X139513991Y-86387931D02*
X139518753Y-86311741D01*
X139518753Y-86311741D02*
X139511610Y-86254598D01*
X139511610Y-86254598D02*
X139487801Y-86178407D01*
X139487801Y-86178407D02*
X139468753Y-86140312D01*
X139468753Y-86140312D02*
X139435420Y-86102217D01*
X139435420Y-86102217D02*
X139390182Y-86083169D01*
X139390182Y-86083169D02*
X139361610Y-86083169D01*
X139361610Y-86083169D02*
X139321134Y-86102217D01*
X139321134Y-86102217D02*
X139309229Y-86121264D01*
X141685419Y-86917623D02*
X141644943Y-86936671D01*
X141644943Y-86936671D02*
X141633038Y-86955719D01*
X141633038Y-86955719D02*
X141623515Y-86993814D01*
X141623515Y-86993814D02*
X141630658Y-87050957D01*
X141630658Y-87050957D02*
X141649705Y-87089052D01*
X141649705Y-87089052D02*
X141666372Y-87108100D01*
X141666372Y-87108100D02*
X141697324Y-87127147D01*
X141697324Y-87127147D02*
X141811610Y-87127147D01*
X141811610Y-87127147D02*
X141761610Y-86727147D01*
X141761610Y-86727147D02*
X141661610Y-86727147D01*
X141661610Y-86727147D02*
X141635419Y-86746195D01*
X141635419Y-86746195D02*
X141623515Y-86765242D01*
X141623515Y-86765242D02*
X141613991Y-86803338D01*
X141613991Y-86803338D02*
X141618753Y-86841433D01*
X141618753Y-86841433D02*
X141637800Y-86879528D01*
X141637800Y-86879528D02*
X141654467Y-86898576D01*
X141654467Y-86898576D02*
X141685419Y-86917623D01*
X141685419Y-86917623D02*
X141785419Y-86917623D01*
X141506848Y-86860480D02*
X141468753Y-87127147D01*
X141363991Y-86860480D02*
X141468753Y-87127147D01*
X141468753Y-87127147D02*
X141509229Y-87222385D01*
X141509229Y-87222385D02*
X141525896Y-87241433D01*
X141525896Y-87241433D02*
X141556848Y-87260480D01*
X141249706Y-86860480D02*
X141299706Y-87260480D01*
X141252087Y-86879528D02*
X141221134Y-86860480D01*
X141221134Y-86860480D02*
X141163991Y-86860480D01*
X141163991Y-86860480D02*
X141137801Y-86879528D01*
X141137801Y-86879528D02*
X141125896Y-86898576D01*
X141125896Y-86898576D02*
X141116372Y-86936671D01*
X141116372Y-86936671D02*
X141130658Y-87050957D01*
X141130658Y-87050957D02*
X141149706Y-87089052D01*
X141149706Y-87089052D02*
X141166372Y-87108100D01*
X141166372Y-87108100D02*
X141197325Y-87127147D01*
X141197325Y-87127147D02*
X141254467Y-87127147D01*
X141254467Y-87127147D02*
X141280658Y-87108100D01*
X140883038Y-87127147D02*
X140856848Y-86917623D01*
X140856848Y-86917623D02*
X140866372Y-86879528D01*
X140866372Y-86879528D02*
X140892562Y-86860480D01*
X140892562Y-86860480D02*
X140949705Y-86860480D01*
X140949705Y-86860480D02*
X140980658Y-86879528D01*
X140880658Y-87108100D02*
X140911610Y-87127147D01*
X140911610Y-87127147D02*
X140983038Y-87127147D01*
X140983038Y-87127147D02*
X141009229Y-87108100D01*
X141009229Y-87108100D02*
X141018753Y-87070004D01*
X141018753Y-87070004D02*
X141013991Y-87031909D01*
X141013991Y-87031909D02*
X140994943Y-86993814D01*
X140994943Y-86993814D02*
X140963991Y-86974766D01*
X140963991Y-86974766D02*
X140892562Y-86974766D01*
X140892562Y-86974766D02*
X140861610Y-86955719D01*
X140752086Y-87108100D02*
X140725895Y-87127147D01*
X140725895Y-87127147D02*
X140668752Y-87127147D01*
X140668752Y-87127147D02*
X140637800Y-87108100D01*
X140637800Y-87108100D02*
X140618752Y-87070004D01*
X140618752Y-87070004D02*
X140616371Y-87050957D01*
X140616371Y-87050957D02*
X140625895Y-87012861D01*
X140625895Y-87012861D02*
X140652086Y-86993814D01*
X140652086Y-86993814D02*
X140694943Y-86993814D01*
X140694943Y-86993814D02*
X140721133Y-86974766D01*
X140721133Y-86974766D02*
X140730657Y-86936671D01*
X140730657Y-86936671D02*
X140728276Y-86917623D01*
X140728276Y-86917623D02*
X140709229Y-86879528D01*
X140709229Y-86879528D02*
X140678276Y-86860480D01*
X140678276Y-86860480D02*
X140635419Y-86860480D01*
X140635419Y-86860480D02*
X140609229Y-86879528D01*
X140509229Y-87108100D02*
X140483038Y-87127147D01*
X140483038Y-87127147D02*
X140425895Y-87127147D01*
X140425895Y-87127147D02*
X140394943Y-87108100D01*
X140394943Y-87108100D02*
X140375895Y-87070004D01*
X140375895Y-87070004D02*
X140373514Y-87050957D01*
X140373514Y-87050957D02*
X140383038Y-87012861D01*
X140383038Y-87012861D02*
X140409229Y-86993814D01*
X140409229Y-86993814D02*
X140452086Y-86993814D01*
X140452086Y-86993814D02*
X140478276Y-86974766D01*
X140478276Y-86974766D02*
X140487800Y-86936671D01*
X140487800Y-86936671D02*
X140485419Y-86917623D01*
X140485419Y-86917623D02*
X140466372Y-86879528D01*
X140466372Y-86879528D02*
X140435419Y-86860480D01*
X140435419Y-86860480D02*
X140392562Y-86860480D01*
X140392562Y-86860480D02*
X140366372Y-86879528D01*
X139890182Y-86727147D02*
X139925896Y-87012861D01*
X139925896Y-87012861D02*
X139947324Y-87070004D01*
X139947324Y-87070004D02*
X139980658Y-87108100D01*
X139980658Y-87108100D02*
X140025896Y-87127147D01*
X140025896Y-87127147D02*
X140054467Y-87127147D01*
X139635420Y-86860480D02*
X139668753Y-87127147D01*
X139763992Y-86860480D02*
X139790182Y-87070004D01*
X139790182Y-87070004D02*
X139780658Y-87108100D01*
X139780658Y-87108100D02*
X139754468Y-87127147D01*
X139754468Y-87127147D02*
X139711611Y-87127147D01*
X139711611Y-87127147D02*
X139680658Y-87108100D01*
X139680658Y-87108100D02*
X139663992Y-87089052D01*
X139525896Y-87127147D02*
X139492563Y-86860480D01*
X139497324Y-86898576D02*
X139480658Y-86879528D01*
X139480658Y-86879528D02*
X139449705Y-86860480D01*
X139449705Y-86860480D02*
X139406848Y-86860480D01*
X139406848Y-86860480D02*
X139380658Y-86879528D01*
X139380658Y-86879528D02*
X139371134Y-86917623D01*
X139371134Y-86917623D02*
X139397324Y-87127147D01*
X139371134Y-86917623D02*
X139352086Y-86879528D01*
X139352086Y-86879528D02*
X139321134Y-86860480D01*
X139321134Y-86860480D02*
X139278277Y-86860480D01*
X139278277Y-86860480D02*
X139252086Y-86879528D01*
X139252086Y-86879528D02*
X139242563Y-86917623D01*
X139242563Y-86917623D02*
X139268753Y-87127147D01*
X139092563Y-86860480D02*
X139142563Y-87260480D01*
X139094944Y-86879528D02*
X139063991Y-86860480D01*
X139063991Y-86860480D02*
X139006848Y-86860480D01*
X139006848Y-86860480D02*
X138980658Y-86879528D01*
X138980658Y-86879528D02*
X138968753Y-86898576D01*
X138968753Y-86898576D02*
X138959229Y-86936671D01*
X138959229Y-86936671D02*
X138973515Y-87050957D01*
X138973515Y-87050957D02*
X138992563Y-87089052D01*
X138992563Y-87089052D02*
X139009229Y-87108100D01*
X139009229Y-87108100D02*
X139040182Y-87127147D01*
X139040182Y-87127147D02*
X139097324Y-87127147D01*
X139097324Y-87127147D02*
X139123515Y-87108100D01*
X137895419Y-97825074D02*
X137912086Y-97844122D01*
X137912086Y-97844122D02*
X137957324Y-97863169D01*
X137957324Y-97863169D02*
X137985896Y-97863169D01*
X137985896Y-97863169D02*
X138026372Y-97844122D01*
X138026372Y-97844122D02*
X138050181Y-97806026D01*
X138050181Y-97806026D02*
X138059705Y-97767931D01*
X138059705Y-97767931D02*
X138064467Y-97691741D01*
X138064467Y-97691741D02*
X138057324Y-97634598D01*
X138057324Y-97634598D02*
X138033515Y-97558407D01*
X138033515Y-97558407D02*
X138014467Y-97520312D01*
X138014467Y-97520312D02*
X137981134Y-97482217D01*
X137981134Y-97482217D02*
X137935896Y-97463169D01*
X137935896Y-97463169D02*
X137907324Y-97463169D01*
X137907324Y-97463169D02*
X137866848Y-97482217D01*
X137866848Y-97482217D02*
X137854943Y-97501264D01*
X137771610Y-97748883D02*
X137628753Y-97748883D01*
X137814467Y-97863169D02*
X137664467Y-97463169D01*
X137664467Y-97463169D02*
X137614467Y-97863169D01*
X137514467Y-97863169D02*
X137464467Y-97463169D01*
X137464467Y-97463169D02*
X137343038Y-97863169D01*
X137343038Y-97863169D02*
X137293038Y-97463169D01*
X137276371Y-97901264D02*
X137047800Y-97901264D01*
X136971610Y-97863169D02*
X136921610Y-97463169D01*
X136945419Y-97653645D02*
X136773991Y-97653645D01*
X136800181Y-97863169D02*
X136750181Y-97463169D01*
X136252562Y-97825074D02*
X136269229Y-97844122D01*
X136269229Y-97844122D02*
X136314467Y-97863169D01*
X136314467Y-97863169D02*
X136343039Y-97863169D01*
X136343039Y-97863169D02*
X136383515Y-97844122D01*
X136383515Y-97844122D02*
X136407324Y-97806026D01*
X136407324Y-97806026D02*
X136416848Y-97767931D01*
X136416848Y-97767931D02*
X136421610Y-97691741D01*
X136421610Y-97691741D02*
X136414467Y-97634598D01*
X136414467Y-97634598D02*
X136390658Y-97558407D01*
X136390658Y-97558407D02*
X136371610Y-97520312D01*
X136371610Y-97520312D02*
X136338277Y-97482217D01*
X136338277Y-97482217D02*
X136293039Y-97463169D01*
X136293039Y-97463169D02*
X136264467Y-97463169D01*
X136264467Y-97463169D02*
X136223991Y-97482217D01*
X136223991Y-97482217D02*
X136212086Y-97501264D01*
X136128753Y-97863169D02*
X136078753Y-97463169D01*
X136078753Y-97463169D02*
X136014467Y-97748883D01*
X136014467Y-97748883D02*
X135878753Y-97463169D01*
X135878753Y-97463169D02*
X135928753Y-97863169D01*
X135609705Y-97825074D02*
X135626372Y-97844122D01*
X135626372Y-97844122D02*
X135671610Y-97863169D01*
X135671610Y-97863169D02*
X135700182Y-97863169D01*
X135700182Y-97863169D02*
X135740658Y-97844122D01*
X135740658Y-97844122D02*
X135764467Y-97806026D01*
X135764467Y-97806026D02*
X135773991Y-97767931D01*
X135773991Y-97767931D02*
X135778753Y-97691741D01*
X135778753Y-97691741D02*
X135771610Y-97634598D01*
X135771610Y-97634598D02*
X135747801Y-97558407D01*
X135747801Y-97558407D02*
X135728753Y-97520312D01*
X135728753Y-97520312D02*
X135695420Y-97482217D01*
X135695420Y-97482217D02*
X135650182Y-97463169D01*
X135650182Y-97463169D02*
X135621610Y-97463169D01*
X135621610Y-97463169D02*
X135581134Y-97482217D01*
X135581134Y-97482217D02*
X135569229Y-97501264D01*
X137945419Y-98297623D02*
X137904943Y-98316671D01*
X137904943Y-98316671D02*
X137893038Y-98335719D01*
X137893038Y-98335719D02*
X137883515Y-98373814D01*
X137883515Y-98373814D02*
X137890658Y-98430957D01*
X137890658Y-98430957D02*
X137909705Y-98469052D01*
X137909705Y-98469052D02*
X137926372Y-98488100D01*
X137926372Y-98488100D02*
X137957324Y-98507147D01*
X137957324Y-98507147D02*
X138071610Y-98507147D01*
X138071610Y-98507147D02*
X138021610Y-98107147D01*
X138021610Y-98107147D02*
X137921610Y-98107147D01*
X137921610Y-98107147D02*
X137895419Y-98126195D01*
X137895419Y-98126195D02*
X137883515Y-98145242D01*
X137883515Y-98145242D02*
X137873991Y-98183338D01*
X137873991Y-98183338D02*
X137878753Y-98221433D01*
X137878753Y-98221433D02*
X137897800Y-98259528D01*
X137897800Y-98259528D02*
X137914467Y-98278576D01*
X137914467Y-98278576D02*
X137945419Y-98297623D01*
X137945419Y-98297623D02*
X138045419Y-98297623D01*
X137766848Y-98240480D02*
X137728753Y-98507147D01*
X137623991Y-98240480D02*
X137728753Y-98507147D01*
X137728753Y-98507147D02*
X137769229Y-98602385D01*
X137769229Y-98602385D02*
X137785896Y-98621433D01*
X137785896Y-98621433D02*
X137816848Y-98640480D01*
X137509706Y-98240480D02*
X137559706Y-98640480D01*
X137512087Y-98259528D02*
X137481134Y-98240480D01*
X137481134Y-98240480D02*
X137423991Y-98240480D01*
X137423991Y-98240480D02*
X137397801Y-98259528D01*
X137397801Y-98259528D02*
X137385896Y-98278576D01*
X137385896Y-98278576D02*
X137376372Y-98316671D01*
X137376372Y-98316671D02*
X137390658Y-98430957D01*
X137390658Y-98430957D02*
X137409706Y-98469052D01*
X137409706Y-98469052D02*
X137426372Y-98488100D01*
X137426372Y-98488100D02*
X137457325Y-98507147D01*
X137457325Y-98507147D02*
X137514467Y-98507147D01*
X137514467Y-98507147D02*
X137540658Y-98488100D01*
X137143038Y-98507147D02*
X137116848Y-98297623D01*
X137116848Y-98297623D02*
X137126372Y-98259528D01*
X137126372Y-98259528D02*
X137152562Y-98240480D01*
X137152562Y-98240480D02*
X137209705Y-98240480D01*
X137209705Y-98240480D02*
X137240658Y-98259528D01*
X137140658Y-98488100D02*
X137171610Y-98507147D01*
X137171610Y-98507147D02*
X137243038Y-98507147D01*
X137243038Y-98507147D02*
X137269229Y-98488100D01*
X137269229Y-98488100D02*
X137278753Y-98450004D01*
X137278753Y-98450004D02*
X137273991Y-98411909D01*
X137273991Y-98411909D02*
X137254943Y-98373814D01*
X137254943Y-98373814D02*
X137223991Y-98354766D01*
X137223991Y-98354766D02*
X137152562Y-98354766D01*
X137152562Y-98354766D02*
X137121610Y-98335719D01*
X137012086Y-98488100D02*
X136985895Y-98507147D01*
X136985895Y-98507147D02*
X136928752Y-98507147D01*
X136928752Y-98507147D02*
X136897800Y-98488100D01*
X136897800Y-98488100D02*
X136878752Y-98450004D01*
X136878752Y-98450004D02*
X136876371Y-98430957D01*
X136876371Y-98430957D02*
X136885895Y-98392861D01*
X136885895Y-98392861D02*
X136912086Y-98373814D01*
X136912086Y-98373814D02*
X136954943Y-98373814D01*
X136954943Y-98373814D02*
X136981133Y-98354766D01*
X136981133Y-98354766D02*
X136990657Y-98316671D01*
X136990657Y-98316671D02*
X136988276Y-98297623D01*
X136988276Y-98297623D02*
X136969229Y-98259528D01*
X136969229Y-98259528D02*
X136938276Y-98240480D01*
X136938276Y-98240480D02*
X136895419Y-98240480D01*
X136895419Y-98240480D02*
X136869229Y-98259528D01*
X136769229Y-98488100D02*
X136743038Y-98507147D01*
X136743038Y-98507147D02*
X136685895Y-98507147D01*
X136685895Y-98507147D02*
X136654943Y-98488100D01*
X136654943Y-98488100D02*
X136635895Y-98450004D01*
X136635895Y-98450004D02*
X136633514Y-98430957D01*
X136633514Y-98430957D02*
X136643038Y-98392861D01*
X136643038Y-98392861D02*
X136669229Y-98373814D01*
X136669229Y-98373814D02*
X136712086Y-98373814D01*
X136712086Y-98373814D02*
X136738276Y-98354766D01*
X136738276Y-98354766D02*
X136747800Y-98316671D01*
X136747800Y-98316671D02*
X136745419Y-98297623D01*
X136745419Y-98297623D02*
X136726372Y-98259528D01*
X136726372Y-98259528D02*
X136695419Y-98240480D01*
X136695419Y-98240480D02*
X136652562Y-98240480D01*
X136652562Y-98240480D02*
X136626372Y-98259528D01*
X136150182Y-98107147D02*
X136185896Y-98392861D01*
X136185896Y-98392861D02*
X136207324Y-98450004D01*
X136207324Y-98450004D02*
X136240658Y-98488100D01*
X136240658Y-98488100D02*
X136285896Y-98507147D01*
X136285896Y-98507147D02*
X136314467Y-98507147D01*
X135895420Y-98240480D02*
X135928753Y-98507147D01*
X136023992Y-98240480D02*
X136050182Y-98450004D01*
X136050182Y-98450004D02*
X136040658Y-98488100D01*
X136040658Y-98488100D02*
X136014468Y-98507147D01*
X136014468Y-98507147D02*
X135971611Y-98507147D01*
X135971611Y-98507147D02*
X135940658Y-98488100D01*
X135940658Y-98488100D02*
X135923992Y-98469052D01*
X135785896Y-98507147D02*
X135752563Y-98240480D01*
X135757324Y-98278576D02*
X135740658Y-98259528D01*
X135740658Y-98259528D02*
X135709705Y-98240480D01*
X135709705Y-98240480D02*
X135666848Y-98240480D01*
X135666848Y-98240480D02*
X135640658Y-98259528D01*
X135640658Y-98259528D02*
X135631134Y-98297623D01*
X135631134Y-98297623D02*
X135657324Y-98507147D01*
X135631134Y-98297623D02*
X135612086Y-98259528D01*
X135612086Y-98259528D02*
X135581134Y-98240480D01*
X135581134Y-98240480D02*
X135538277Y-98240480D01*
X135538277Y-98240480D02*
X135512086Y-98259528D01*
X135512086Y-98259528D02*
X135502563Y-98297623D01*
X135502563Y-98297623D02*
X135528753Y-98507147D01*
X135352563Y-98240480D02*
X135402563Y-98640480D01*
X135354944Y-98259528D02*
X135323991Y-98240480D01*
X135323991Y-98240480D02*
X135266848Y-98240480D01*
X135266848Y-98240480D02*
X135240658Y-98259528D01*
X135240658Y-98259528D02*
X135228753Y-98278576D01*
X135228753Y-98278576D02*
X135219229Y-98316671D01*
X135219229Y-98316671D02*
X135233515Y-98430957D01*
X135233515Y-98430957D02*
X135252563Y-98469052D01*
X135252563Y-98469052D02*
X135269229Y-98488100D01*
X135269229Y-98488100D02*
X135300182Y-98507147D01*
X135300182Y-98507147D02*
X135357324Y-98507147D01*
X135357324Y-98507147D02*
X135383515Y-98488100D01*
D11*
X167935238Y-88080057D02*
X168030476Y-88032438D01*
X168030476Y-88032438D02*
X168125714Y-87937200D01*
X168125714Y-87937200D02*
X168268571Y-87794342D01*
X168268571Y-87794342D02*
X168363809Y-87746723D01*
X168363809Y-87746723D02*
X168459047Y-87746723D01*
X168411428Y-87984819D02*
X168506666Y-87937200D01*
X168506666Y-87937200D02*
X168601904Y-87841961D01*
X168601904Y-87841961D02*
X168649523Y-87651485D01*
X168649523Y-87651485D02*
X168649523Y-87318152D01*
X168649523Y-87318152D02*
X168601904Y-87127676D01*
X168601904Y-87127676D02*
X168506666Y-87032438D01*
X168506666Y-87032438D02*
X168411428Y-86984819D01*
X168411428Y-86984819D02*
X168220952Y-86984819D01*
X168220952Y-86984819D02*
X168125714Y-87032438D01*
X168125714Y-87032438D02*
X168030476Y-87127676D01*
X168030476Y-87127676D02*
X167982857Y-87318152D01*
X167982857Y-87318152D02*
X167982857Y-87651485D01*
X167982857Y-87651485D02*
X168030476Y-87841961D01*
X168030476Y-87841961D02*
X168125714Y-87937200D01*
X168125714Y-87937200D02*
X168220952Y-87984819D01*
X168220952Y-87984819D02*
X168411428Y-87984819D01*
X167030476Y-87984819D02*
X167601904Y-87984819D01*
X167316190Y-87984819D02*
X167316190Y-86984819D01*
X167316190Y-86984819D02*
X167411428Y-87127676D01*
X167411428Y-87127676D02*
X167506666Y-87222914D01*
X167506666Y-87222914D02*
X167601904Y-87270533D01*
X157266666Y-91559580D02*
X157314285Y-91607200D01*
X157314285Y-91607200D02*
X157457142Y-91654819D01*
X157457142Y-91654819D02*
X157552380Y-91654819D01*
X157552380Y-91654819D02*
X157695237Y-91607200D01*
X157695237Y-91607200D02*
X157790475Y-91511961D01*
X157790475Y-91511961D02*
X157838094Y-91416723D01*
X157838094Y-91416723D02*
X157885713Y-91226247D01*
X157885713Y-91226247D02*
X157885713Y-91083390D01*
X157885713Y-91083390D02*
X157838094Y-90892914D01*
X157838094Y-90892914D02*
X157790475Y-90797676D01*
X157790475Y-90797676D02*
X157695237Y-90702438D01*
X157695237Y-90702438D02*
X157552380Y-90654819D01*
X157552380Y-90654819D02*
X157457142Y-90654819D01*
X157457142Y-90654819D02*
X157314285Y-90702438D01*
X157314285Y-90702438D02*
X157266666Y-90750057D01*
X156409523Y-90654819D02*
X156599999Y-90654819D01*
X156599999Y-90654819D02*
X156695237Y-90702438D01*
X156695237Y-90702438D02*
X156742856Y-90750057D01*
X156742856Y-90750057D02*
X156838094Y-90892914D01*
X156838094Y-90892914D02*
X156885713Y-91083390D01*
X156885713Y-91083390D02*
X156885713Y-91464342D01*
X156885713Y-91464342D02*
X156838094Y-91559580D01*
X156838094Y-91559580D02*
X156790475Y-91607200D01*
X156790475Y-91607200D02*
X156695237Y-91654819D01*
X156695237Y-91654819D02*
X156504761Y-91654819D01*
X156504761Y-91654819D02*
X156409523Y-91607200D01*
X156409523Y-91607200D02*
X156361904Y-91559580D01*
X156361904Y-91559580D02*
X156314285Y-91464342D01*
X156314285Y-91464342D02*
X156314285Y-91226247D01*
X156314285Y-91226247D02*
X156361904Y-91131009D01*
X156361904Y-91131009D02*
X156409523Y-91083390D01*
X156409523Y-91083390D02*
X156504761Y-91035771D01*
X156504761Y-91035771D02*
X156695237Y-91035771D01*
X156695237Y-91035771D02*
X156790475Y-91083390D01*
X156790475Y-91083390D02*
X156838094Y-91131009D01*
X156838094Y-91131009D02*
X156885713Y-91226247D01*
X120176190Y-98438628D02*
X120176190Y-98914819D01*
X120509523Y-97914819D02*
X120176190Y-98438628D01*
X120176190Y-98438628D02*
X119842857Y-97914819D01*
X118985714Y-98914819D02*
X119557142Y-98914819D01*
X119271428Y-98914819D02*
X119271428Y-97914819D01*
X119271428Y-97914819D02*
X119366666Y-98057676D01*
X119366666Y-98057676D02*
X119461904Y-98152914D01*
X119461904Y-98152914D02*
X119557142Y-98200533D01*
X161826666Y-97679580D02*
X161874285Y-97727200D01*
X161874285Y-97727200D02*
X162017142Y-97774819D01*
X162017142Y-97774819D02*
X162112380Y-97774819D01*
X162112380Y-97774819D02*
X162255237Y-97727200D01*
X162255237Y-97727200D02*
X162350475Y-97631961D01*
X162350475Y-97631961D02*
X162398094Y-97536723D01*
X162398094Y-97536723D02*
X162445713Y-97346247D01*
X162445713Y-97346247D02*
X162445713Y-97203390D01*
X162445713Y-97203390D02*
X162398094Y-97012914D01*
X162398094Y-97012914D02*
X162350475Y-96917676D01*
X162350475Y-96917676D02*
X162255237Y-96822438D01*
X162255237Y-96822438D02*
X162112380Y-96774819D01*
X162112380Y-96774819D02*
X162017142Y-96774819D01*
X162017142Y-96774819D02*
X161874285Y-96822438D01*
X161874285Y-96822438D02*
X161826666Y-96870057D01*
X161493332Y-96774819D02*
X160826666Y-96774819D01*
X160826666Y-96774819D02*
X161255237Y-97774819D01*
X144113333Y-86099819D02*
X144113333Y-86814104D01*
X144113333Y-86814104D02*
X144160952Y-86956961D01*
X144160952Y-86956961D02*
X144256190Y-87052200D01*
X144256190Y-87052200D02*
X144399047Y-87099819D01*
X144399047Y-87099819D02*
X144494285Y-87099819D01*
X143637142Y-87099819D02*
X143637142Y-86099819D01*
X143637142Y-86099819D02*
X143256190Y-86099819D01*
X143256190Y-86099819D02*
X143160952Y-86147438D01*
X143160952Y-86147438D02*
X143113333Y-86195057D01*
X143113333Y-86195057D02*
X143065714Y-86290295D01*
X143065714Y-86290295D02*
X143065714Y-86433152D01*
X143065714Y-86433152D02*
X143113333Y-86528390D01*
X143113333Y-86528390D02*
X143160952Y-86576009D01*
X143160952Y-86576009D02*
X143256190Y-86623628D01*
X143256190Y-86623628D02*
X143637142Y-86623628D01*
X142208571Y-86099819D02*
X142399047Y-86099819D01*
X142399047Y-86099819D02*
X142494285Y-86147438D01*
X142494285Y-86147438D02*
X142541904Y-86195057D01*
X142541904Y-86195057D02*
X142637142Y-86337914D01*
X142637142Y-86337914D02*
X142684761Y-86528390D01*
X142684761Y-86528390D02*
X142684761Y-86909342D01*
X142684761Y-86909342D02*
X142637142Y-87004580D01*
X142637142Y-87004580D02*
X142589523Y-87052200D01*
X142589523Y-87052200D02*
X142494285Y-87099819D01*
X142494285Y-87099819D02*
X142303809Y-87099819D01*
X142303809Y-87099819D02*
X142208571Y-87052200D01*
X142208571Y-87052200D02*
X142160952Y-87004580D01*
X142160952Y-87004580D02*
X142113333Y-86909342D01*
X142113333Y-86909342D02*
X142113333Y-86671247D01*
X142113333Y-86671247D02*
X142160952Y-86576009D01*
X142160952Y-86576009D02*
X142208571Y-86528390D01*
X142208571Y-86528390D02*
X142303809Y-86480771D01*
X142303809Y-86480771D02*
X142494285Y-86480771D01*
X142494285Y-86480771D02*
X142589523Y-86528390D01*
X142589523Y-86528390D02*
X142637142Y-86576009D01*
X142637142Y-86576009D02*
X142684761Y-86671247D01*
X158291666Y-100134819D02*
X158624999Y-99658628D01*
X158863094Y-100134819D02*
X158863094Y-99134819D01*
X158863094Y-99134819D02*
X158482142Y-99134819D01*
X158482142Y-99134819D02*
X158386904Y-99182438D01*
X158386904Y-99182438D02*
X158339285Y-99230057D01*
X158339285Y-99230057D02*
X158291666Y-99325295D01*
X158291666Y-99325295D02*
X158291666Y-99468152D01*
X158291666Y-99468152D02*
X158339285Y-99563390D01*
X158339285Y-99563390D02*
X158386904Y-99611009D01*
X158386904Y-99611009D02*
X158482142Y-99658628D01*
X158482142Y-99658628D02*
X158863094Y-99658628D01*
X157434523Y-99468152D02*
X157434523Y-100134819D01*
X157672618Y-99087200D02*
X157910713Y-99801485D01*
X157910713Y-99801485D02*
X157291666Y-99801485D01*
X154236666Y-91509580D02*
X154284285Y-91557200D01*
X154284285Y-91557200D02*
X154427142Y-91604819D01*
X154427142Y-91604819D02*
X154522380Y-91604819D01*
X154522380Y-91604819D02*
X154665237Y-91557200D01*
X154665237Y-91557200D02*
X154760475Y-91461961D01*
X154760475Y-91461961D02*
X154808094Y-91366723D01*
X154808094Y-91366723D02*
X154855713Y-91176247D01*
X154855713Y-91176247D02*
X154855713Y-91033390D01*
X154855713Y-91033390D02*
X154808094Y-90842914D01*
X154808094Y-90842914D02*
X154760475Y-90747676D01*
X154760475Y-90747676D02*
X154665237Y-90652438D01*
X154665237Y-90652438D02*
X154522380Y-90604819D01*
X154522380Y-90604819D02*
X154427142Y-90604819D01*
X154427142Y-90604819D02*
X154284285Y-90652438D01*
X154284285Y-90652438D02*
X154236666Y-90700057D01*
X153665237Y-91033390D02*
X153760475Y-90985771D01*
X153760475Y-90985771D02*
X153808094Y-90938152D01*
X153808094Y-90938152D02*
X153855713Y-90842914D01*
X153855713Y-90842914D02*
X153855713Y-90795295D01*
X153855713Y-90795295D02*
X153808094Y-90700057D01*
X153808094Y-90700057D02*
X153760475Y-90652438D01*
X153760475Y-90652438D02*
X153665237Y-90604819D01*
X153665237Y-90604819D02*
X153474761Y-90604819D01*
X153474761Y-90604819D02*
X153379523Y-90652438D01*
X153379523Y-90652438D02*
X153331904Y-90700057D01*
X153331904Y-90700057D02*
X153284285Y-90795295D01*
X153284285Y-90795295D02*
X153284285Y-90842914D01*
X153284285Y-90842914D02*
X153331904Y-90938152D01*
X153331904Y-90938152D02*
X153379523Y-90985771D01*
X153379523Y-90985771D02*
X153474761Y-91033390D01*
X153474761Y-91033390D02*
X153665237Y-91033390D01*
X153665237Y-91033390D02*
X153760475Y-91081009D01*
X153760475Y-91081009D02*
X153808094Y-91128628D01*
X153808094Y-91128628D02*
X153855713Y-91223866D01*
X153855713Y-91223866D02*
X153855713Y-91414342D01*
X153855713Y-91414342D02*
X153808094Y-91509580D01*
X153808094Y-91509580D02*
X153760475Y-91557200D01*
X153760475Y-91557200D02*
X153665237Y-91604819D01*
X153665237Y-91604819D02*
X153474761Y-91604819D01*
X153474761Y-91604819D02*
X153379523Y-91557200D01*
X153379523Y-91557200D02*
X153331904Y-91509580D01*
X153331904Y-91509580D02*
X153284285Y-91414342D01*
X153284285Y-91414342D02*
X153284285Y-91223866D01*
X153284285Y-91223866D02*
X153331904Y-91128628D01*
X153331904Y-91128628D02*
X153379523Y-91081009D01*
X153379523Y-91081009D02*
X153474761Y-91033390D01*
X156313333Y-86034819D02*
X156313333Y-86749104D01*
X156313333Y-86749104D02*
X156360952Y-86891961D01*
X156360952Y-86891961D02*
X156456190Y-86987200D01*
X156456190Y-86987200D02*
X156599047Y-87034819D01*
X156599047Y-87034819D02*
X156694285Y-87034819D01*
X155837142Y-87034819D02*
X155837142Y-86034819D01*
X155837142Y-86034819D02*
X155456190Y-86034819D01*
X155456190Y-86034819D02*
X155360952Y-86082438D01*
X155360952Y-86082438D02*
X155313333Y-86130057D01*
X155313333Y-86130057D02*
X155265714Y-86225295D01*
X155265714Y-86225295D02*
X155265714Y-86368152D01*
X155265714Y-86368152D02*
X155313333Y-86463390D01*
X155313333Y-86463390D02*
X155360952Y-86511009D01*
X155360952Y-86511009D02*
X155456190Y-86558628D01*
X155456190Y-86558628D02*
X155837142Y-86558628D01*
X154694285Y-86463390D02*
X154789523Y-86415771D01*
X154789523Y-86415771D02*
X154837142Y-86368152D01*
X154837142Y-86368152D02*
X154884761Y-86272914D01*
X154884761Y-86272914D02*
X154884761Y-86225295D01*
X154884761Y-86225295D02*
X154837142Y-86130057D01*
X154837142Y-86130057D02*
X154789523Y-86082438D01*
X154789523Y-86082438D02*
X154694285Y-86034819D01*
X154694285Y-86034819D02*
X154503809Y-86034819D01*
X154503809Y-86034819D02*
X154408571Y-86082438D01*
X154408571Y-86082438D02*
X154360952Y-86130057D01*
X154360952Y-86130057D02*
X154313333Y-86225295D01*
X154313333Y-86225295D02*
X154313333Y-86272914D01*
X154313333Y-86272914D02*
X154360952Y-86368152D01*
X154360952Y-86368152D02*
X154408571Y-86415771D01*
X154408571Y-86415771D02*
X154503809Y-86463390D01*
X154503809Y-86463390D02*
X154694285Y-86463390D01*
X154694285Y-86463390D02*
X154789523Y-86511009D01*
X154789523Y-86511009D02*
X154837142Y-86558628D01*
X154837142Y-86558628D02*
X154884761Y-86653866D01*
X154884761Y-86653866D02*
X154884761Y-86844342D01*
X154884761Y-86844342D02*
X154837142Y-86939580D01*
X154837142Y-86939580D02*
X154789523Y-86987200D01*
X154789523Y-86987200D02*
X154694285Y-87034819D01*
X154694285Y-87034819D02*
X154503809Y-87034819D01*
X154503809Y-87034819D02*
X154408571Y-86987200D01*
X154408571Y-86987200D02*
X154360952Y-86939580D01*
X154360952Y-86939580D02*
X154313333Y-86844342D01*
X154313333Y-86844342D02*
X154313333Y-86653866D01*
X154313333Y-86653866D02*
X154360952Y-86558628D01*
X154360952Y-86558628D02*
X154408571Y-86511009D01*
X154408571Y-86511009D02*
X154503809Y-86463390D01*
X143913332Y-95296104D02*
X143951428Y-95334200D01*
X143951428Y-95334200D02*
X144065713Y-95372295D01*
X144065713Y-95372295D02*
X144141904Y-95372295D01*
X144141904Y-95372295D02*
X144256190Y-95334200D01*
X144256190Y-95334200D02*
X144332380Y-95258009D01*
X144332380Y-95258009D02*
X144370475Y-95181819D01*
X144370475Y-95181819D02*
X144408571Y-95029438D01*
X144408571Y-95029438D02*
X144408571Y-94915152D01*
X144408571Y-94915152D02*
X144370475Y-94762771D01*
X144370475Y-94762771D02*
X144332380Y-94686580D01*
X144332380Y-94686580D02*
X144256190Y-94610390D01*
X144256190Y-94610390D02*
X144141904Y-94572295D01*
X144141904Y-94572295D02*
X144065713Y-94572295D01*
X144065713Y-94572295D02*
X143951428Y-94610390D01*
X143951428Y-94610390D02*
X143913332Y-94648485D01*
X143227618Y-94838961D02*
X143227618Y-95372295D01*
X143418094Y-94534200D02*
X143608571Y-95105628D01*
X143608571Y-95105628D02*
X143113332Y-95105628D01*
X166104819Y-93366666D02*
X166819104Y-93366666D01*
X166819104Y-93366666D02*
X166961961Y-93319047D01*
X166961961Y-93319047D02*
X167057200Y-93223809D01*
X167057200Y-93223809D02*
X167104819Y-93080952D01*
X167104819Y-93080952D02*
X167104819Y-92985714D01*
X167104819Y-93842857D02*
X166104819Y-93842857D01*
X166104819Y-93842857D02*
X166104819Y-94223809D01*
X166104819Y-94223809D02*
X166152438Y-94319047D01*
X166152438Y-94319047D02*
X166200057Y-94366666D01*
X166200057Y-94366666D02*
X166295295Y-94414285D01*
X166295295Y-94414285D02*
X166438152Y-94414285D01*
X166438152Y-94414285D02*
X166533390Y-94366666D01*
X166533390Y-94366666D02*
X166581009Y-94319047D01*
X166581009Y-94319047D02*
X166628628Y-94223809D01*
X166628628Y-94223809D02*
X166628628Y-93842857D01*
X167104819Y-94890476D02*
X167104819Y-95080952D01*
X167104819Y-95080952D02*
X167057200Y-95176190D01*
X167057200Y-95176190D02*
X167009580Y-95223809D01*
X167009580Y-95223809D02*
X166866723Y-95319047D01*
X166866723Y-95319047D02*
X166676247Y-95366666D01*
X166676247Y-95366666D02*
X166295295Y-95366666D01*
X166295295Y-95366666D02*
X166200057Y-95319047D01*
X166200057Y-95319047D02*
X166152438Y-95271428D01*
X166152438Y-95271428D02*
X166104819Y-95176190D01*
X166104819Y-95176190D02*
X166104819Y-94985714D01*
X166104819Y-94985714D02*
X166152438Y-94890476D01*
X166152438Y-94890476D02*
X166200057Y-94842857D01*
X166200057Y-94842857D02*
X166295295Y-94795238D01*
X166295295Y-94795238D02*
X166533390Y-94795238D01*
X166533390Y-94795238D02*
X166628628Y-94842857D01*
X166628628Y-94842857D02*
X166676247Y-94890476D01*
X166676247Y-94890476D02*
X166723866Y-94985714D01*
X166723866Y-94985714D02*
X166723866Y-95176190D01*
X166723866Y-95176190D02*
X166676247Y-95271428D01*
X166676247Y-95271428D02*
X166628628Y-95319047D01*
X166628628Y-95319047D02*
X166533390Y-95366666D01*
X122939580Y-91408333D02*
X122987200Y-91360714D01*
X122987200Y-91360714D02*
X123034819Y-91217857D01*
X123034819Y-91217857D02*
X123034819Y-91122619D01*
X123034819Y-91122619D02*
X122987200Y-90979762D01*
X122987200Y-90979762D02*
X122891961Y-90884524D01*
X122891961Y-90884524D02*
X122796723Y-90836905D01*
X122796723Y-90836905D02*
X122606247Y-90789286D01*
X122606247Y-90789286D02*
X122463390Y-90789286D01*
X122463390Y-90789286D02*
X122272914Y-90836905D01*
X122272914Y-90836905D02*
X122177676Y-90884524D01*
X122177676Y-90884524D02*
X122082438Y-90979762D01*
X122082438Y-90979762D02*
X122034819Y-91122619D01*
X122034819Y-91122619D02*
X122034819Y-91217857D01*
X122034819Y-91217857D02*
X122082438Y-91360714D01*
X122082438Y-91360714D02*
X122130057Y-91408333D01*
X122130057Y-91789286D02*
X122082438Y-91836905D01*
X122082438Y-91836905D02*
X122034819Y-91932143D01*
X122034819Y-91932143D02*
X122034819Y-92170238D01*
X122034819Y-92170238D02*
X122082438Y-92265476D01*
X122082438Y-92265476D02*
X122130057Y-92313095D01*
X122130057Y-92313095D02*
X122225295Y-92360714D01*
X122225295Y-92360714D02*
X122320533Y-92360714D01*
X122320533Y-92360714D02*
X122463390Y-92313095D01*
X122463390Y-92313095D02*
X123034819Y-91741667D01*
X123034819Y-91741667D02*
X123034819Y-92360714D01*
X147811904Y-90692295D02*
X148078571Y-90311342D01*
X148269047Y-90692295D02*
X148269047Y-89892295D01*
X148269047Y-89892295D02*
X147964285Y-89892295D01*
X147964285Y-89892295D02*
X147888095Y-89930390D01*
X147888095Y-89930390D02*
X147850000Y-89968485D01*
X147850000Y-89968485D02*
X147811904Y-90044676D01*
X147811904Y-90044676D02*
X147811904Y-90158961D01*
X147811904Y-90158961D02*
X147850000Y-90235152D01*
X147850000Y-90235152D02*
X147888095Y-90273247D01*
X147888095Y-90273247D02*
X147964285Y-90311342D01*
X147964285Y-90311342D02*
X148269047Y-90311342D01*
X147583333Y-90158961D02*
X147278571Y-90158961D01*
X147469047Y-89892295D02*
X147469047Y-90578009D01*
X147469047Y-90578009D02*
X147430952Y-90654200D01*
X147430952Y-90654200D02*
X147354762Y-90692295D01*
X147354762Y-90692295D02*
X147278571Y-90692295D01*
X147050000Y-89968485D02*
X147011904Y-89930390D01*
X147011904Y-89930390D02*
X146935714Y-89892295D01*
X146935714Y-89892295D02*
X146745238Y-89892295D01*
X146745238Y-89892295D02*
X146669047Y-89930390D01*
X146669047Y-89930390D02*
X146630952Y-89968485D01*
X146630952Y-89968485D02*
X146592857Y-90044676D01*
X146592857Y-90044676D02*
X146592857Y-90120866D01*
X146592857Y-90120866D02*
X146630952Y-90235152D01*
X146630952Y-90235152D02*
X147088095Y-90692295D01*
X147088095Y-90692295D02*
X146592857Y-90692295D01*
X158676666Y-85044819D02*
X159009999Y-84568628D01*
X159248094Y-85044819D02*
X159248094Y-84044819D01*
X159248094Y-84044819D02*
X158867142Y-84044819D01*
X158867142Y-84044819D02*
X158771904Y-84092438D01*
X158771904Y-84092438D02*
X158724285Y-84140057D01*
X158724285Y-84140057D02*
X158676666Y-84235295D01*
X158676666Y-84235295D02*
X158676666Y-84378152D01*
X158676666Y-84378152D02*
X158724285Y-84473390D01*
X158724285Y-84473390D02*
X158771904Y-84521009D01*
X158771904Y-84521009D02*
X158867142Y-84568628D01*
X158867142Y-84568628D02*
X159248094Y-84568628D01*
X158343332Y-84044819D02*
X157724285Y-84044819D01*
X157724285Y-84044819D02*
X158057618Y-84425771D01*
X158057618Y-84425771D02*
X157914761Y-84425771D01*
X157914761Y-84425771D02*
X157819523Y-84473390D01*
X157819523Y-84473390D02*
X157771904Y-84521009D01*
X157771904Y-84521009D02*
X157724285Y-84616247D01*
X157724285Y-84616247D02*
X157724285Y-84854342D01*
X157724285Y-84854342D02*
X157771904Y-84949580D01*
X157771904Y-84949580D02*
X157819523Y-84997200D01*
X157819523Y-84997200D02*
X157914761Y-85044819D01*
X157914761Y-85044819D02*
X158200475Y-85044819D01*
X158200475Y-85044819D02*
X158295713Y-84997200D01*
X158295713Y-84997200D02*
X158343332Y-84949580D01*
X140338333Y-97439819D02*
X140338333Y-98154104D01*
X140338333Y-98154104D02*
X140385952Y-98296961D01*
X140385952Y-98296961D02*
X140481190Y-98392200D01*
X140481190Y-98392200D02*
X140624047Y-98439819D01*
X140624047Y-98439819D02*
X140719285Y-98439819D01*
X139862142Y-98439819D02*
X139862142Y-97439819D01*
X139862142Y-97439819D02*
X139481190Y-97439819D01*
X139481190Y-97439819D02*
X139385952Y-97487438D01*
X139385952Y-97487438D02*
X139338333Y-97535057D01*
X139338333Y-97535057D02*
X139290714Y-97630295D01*
X139290714Y-97630295D02*
X139290714Y-97773152D01*
X139290714Y-97773152D02*
X139338333Y-97868390D01*
X139338333Y-97868390D02*
X139385952Y-97916009D01*
X139385952Y-97916009D02*
X139481190Y-97963628D01*
X139481190Y-97963628D02*
X139862142Y-97963628D01*
X138385952Y-97439819D02*
X138862142Y-97439819D01*
X138862142Y-97439819D02*
X138909761Y-97916009D01*
X138909761Y-97916009D02*
X138862142Y-97868390D01*
X138862142Y-97868390D02*
X138766904Y-97820771D01*
X138766904Y-97820771D02*
X138528809Y-97820771D01*
X138528809Y-97820771D02*
X138433571Y-97868390D01*
X138433571Y-97868390D02*
X138385952Y-97916009D01*
X138385952Y-97916009D02*
X138338333Y-98011247D01*
X138338333Y-98011247D02*
X138338333Y-98249342D01*
X138338333Y-98249342D02*
X138385952Y-98344580D01*
X138385952Y-98344580D02*
X138433571Y-98392200D01*
X138433571Y-98392200D02*
X138528809Y-98439819D01*
X138528809Y-98439819D02*
X138766904Y-98439819D01*
X138766904Y-98439819D02*
X138862142Y-98392200D01*
X138862142Y-98392200D02*
X138909761Y-98344580D01*
X146613332Y-98789795D02*
X146879999Y-98408842D01*
X147070475Y-98789795D02*
X147070475Y-97989795D01*
X147070475Y-97989795D02*
X146765713Y-97989795D01*
X146765713Y-97989795D02*
X146689523Y-98027890D01*
X146689523Y-98027890D02*
X146651428Y-98065985D01*
X146651428Y-98065985D02*
X146613332Y-98142176D01*
X146613332Y-98142176D02*
X146613332Y-98256461D01*
X146613332Y-98256461D02*
X146651428Y-98332652D01*
X146651428Y-98332652D02*
X146689523Y-98370747D01*
X146689523Y-98370747D02*
X146765713Y-98408842D01*
X146765713Y-98408842D02*
X147070475Y-98408842D01*
X145927618Y-97989795D02*
X146079999Y-97989795D01*
X146079999Y-97989795D02*
X146156190Y-98027890D01*
X146156190Y-98027890D02*
X146194285Y-98065985D01*
X146194285Y-98065985D02*
X146270475Y-98180271D01*
X146270475Y-98180271D02*
X146308571Y-98332652D01*
X146308571Y-98332652D02*
X146308571Y-98637414D01*
X146308571Y-98637414D02*
X146270475Y-98713604D01*
X146270475Y-98713604D02*
X146232380Y-98751700D01*
X146232380Y-98751700D02*
X146156190Y-98789795D01*
X146156190Y-98789795D02*
X146003809Y-98789795D01*
X146003809Y-98789795D02*
X145927618Y-98751700D01*
X145927618Y-98751700D02*
X145889523Y-98713604D01*
X145889523Y-98713604D02*
X145851428Y-98637414D01*
X145851428Y-98637414D02*
X145851428Y-98446938D01*
X145851428Y-98446938D02*
X145889523Y-98370747D01*
X145889523Y-98370747D02*
X145927618Y-98332652D01*
X145927618Y-98332652D02*
X146003809Y-98294557D01*
X146003809Y-98294557D02*
X146156190Y-98294557D01*
X146156190Y-98294557D02*
X146232380Y-98332652D01*
X146232380Y-98332652D02*
X146270475Y-98370747D01*
X146270475Y-98370747D02*
X146308571Y-98446938D01*
X151958094Y-93824819D02*
X151958094Y-92824819D01*
X151958094Y-92824819D02*
X151719999Y-92824819D01*
X151719999Y-92824819D02*
X151577142Y-92872438D01*
X151577142Y-92872438D02*
X151481904Y-92967676D01*
X151481904Y-92967676D02*
X151434285Y-93062914D01*
X151434285Y-93062914D02*
X151386666Y-93253390D01*
X151386666Y-93253390D02*
X151386666Y-93396247D01*
X151386666Y-93396247D02*
X151434285Y-93586723D01*
X151434285Y-93586723D02*
X151481904Y-93681961D01*
X151481904Y-93681961D02*
X151577142Y-93777200D01*
X151577142Y-93777200D02*
X151719999Y-93824819D01*
X151719999Y-93824819D02*
X151958094Y-93824819D01*
X150434285Y-93824819D02*
X151005713Y-93824819D01*
X150719999Y-93824819D02*
X150719999Y-92824819D01*
X150719999Y-92824819D02*
X150815237Y-92967676D01*
X150815237Y-92967676D02*
X150910475Y-93062914D01*
X150910475Y-93062914D02*
X151005713Y-93110533D01*
X119989580Y-91395833D02*
X120037200Y-91348214D01*
X120037200Y-91348214D02*
X120084819Y-91205357D01*
X120084819Y-91205357D02*
X120084819Y-91110119D01*
X120084819Y-91110119D02*
X120037200Y-90967262D01*
X120037200Y-90967262D02*
X119941961Y-90872024D01*
X119941961Y-90872024D02*
X119846723Y-90824405D01*
X119846723Y-90824405D02*
X119656247Y-90776786D01*
X119656247Y-90776786D02*
X119513390Y-90776786D01*
X119513390Y-90776786D02*
X119322914Y-90824405D01*
X119322914Y-90824405D02*
X119227676Y-90872024D01*
X119227676Y-90872024D02*
X119132438Y-90967262D01*
X119132438Y-90967262D02*
X119084819Y-91110119D01*
X119084819Y-91110119D02*
X119084819Y-91205357D01*
X119084819Y-91205357D02*
X119132438Y-91348214D01*
X119132438Y-91348214D02*
X119180057Y-91395833D01*
X120084819Y-92348214D02*
X120084819Y-91776786D01*
X120084819Y-92062500D02*
X119084819Y-92062500D01*
X119084819Y-92062500D02*
X119227676Y-91967262D01*
X119227676Y-91967262D02*
X119322914Y-91872024D01*
X119322914Y-91872024D02*
X119370533Y-91776786D01*
X139501904Y-88514819D02*
X139501904Y-89324342D01*
X139501904Y-89324342D02*
X139454285Y-89419580D01*
X139454285Y-89419580D02*
X139406666Y-89467200D01*
X139406666Y-89467200D02*
X139311428Y-89514819D01*
X139311428Y-89514819D02*
X139120952Y-89514819D01*
X139120952Y-89514819D02*
X139025714Y-89467200D01*
X139025714Y-89467200D02*
X138978095Y-89419580D01*
X138978095Y-89419580D02*
X138930476Y-89324342D01*
X138930476Y-89324342D02*
X138930476Y-88514819D01*
X138501904Y-88610057D02*
X138454285Y-88562438D01*
X138454285Y-88562438D02*
X138359047Y-88514819D01*
X138359047Y-88514819D02*
X138120952Y-88514819D01*
X138120952Y-88514819D02*
X138025714Y-88562438D01*
X138025714Y-88562438D02*
X137978095Y-88610057D01*
X137978095Y-88610057D02*
X137930476Y-88705295D01*
X137930476Y-88705295D02*
X137930476Y-88800533D01*
X137930476Y-88800533D02*
X137978095Y-88943390D01*
X137978095Y-88943390D02*
X138549523Y-89514819D01*
X138549523Y-89514819D02*
X137930476Y-89514819D01*
X153244819Y-95808095D02*
X154054342Y-95808095D01*
X154054342Y-95808095D02*
X154149580Y-95855714D01*
X154149580Y-95855714D02*
X154197200Y-95903333D01*
X154197200Y-95903333D02*
X154244819Y-95998571D01*
X154244819Y-95998571D02*
X154244819Y-96189047D01*
X154244819Y-96189047D02*
X154197200Y-96284285D01*
X154197200Y-96284285D02*
X154149580Y-96331904D01*
X154149580Y-96331904D02*
X154054342Y-96379523D01*
X154054342Y-96379523D02*
X153244819Y-96379523D01*
X153244819Y-96760476D02*
X153244819Y-97379523D01*
X153244819Y-97379523D02*
X153625771Y-97046190D01*
X153625771Y-97046190D02*
X153625771Y-97189047D01*
X153625771Y-97189047D02*
X153673390Y-97284285D01*
X153673390Y-97284285D02*
X153721009Y-97331904D01*
X153721009Y-97331904D02*
X153816247Y-97379523D01*
X153816247Y-97379523D02*
X154054342Y-97379523D01*
X154054342Y-97379523D02*
X154149580Y-97331904D01*
X154149580Y-97331904D02*
X154197200Y-97284285D01*
X154197200Y-97284285D02*
X154244819Y-97189047D01*
X154244819Y-97189047D02*
X154244819Y-96903333D01*
X154244819Y-96903333D02*
X154197200Y-96808095D01*
X154197200Y-96808095D02*
X154149580Y-96760476D01*
X136003332Y-96392295D02*
X136269999Y-96011342D01*
X136460475Y-96392295D02*
X136460475Y-95592295D01*
X136460475Y-95592295D02*
X136155713Y-95592295D01*
X136155713Y-95592295D02*
X136079523Y-95630390D01*
X136079523Y-95630390D02*
X136041428Y-95668485D01*
X136041428Y-95668485D02*
X136003332Y-95744676D01*
X136003332Y-95744676D02*
X136003332Y-95858961D01*
X136003332Y-95858961D02*
X136041428Y-95935152D01*
X136041428Y-95935152D02*
X136079523Y-95973247D01*
X136079523Y-95973247D02*
X136155713Y-96011342D01*
X136155713Y-96011342D02*
X136460475Y-96011342D01*
X135698571Y-95668485D02*
X135660475Y-95630390D01*
X135660475Y-95630390D02*
X135584285Y-95592295D01*
X135584285Y-95592295D02*
X135393809Y-95592295D01*
X135393809Y-95592295D02*
X135317618Y-95630390D01*
X135317618Y-95630390D02*
X135279523Y-95668485D01*
X135279523Y-95668485D02*
X135241428Y-95744676D01*
X135241428Y-95744676D02*
X135241428Y-95820866D01*
X135241428Y-95820866D02*
X135279523Y-95935152D01*
X135279523Y-95935152D02*
X135736666Y-96392295D01*
X135736666Y-96392295D02*
X135241428Y-96392295D01*
X112204819Y-85266666D02*
X112919104Y-85266666D01*
X112919104Y-85266666D02*
X113061961Y-85219047D01*
X113061961Y-85219047D02*
X113157200Y-85123809D01*
X113157200Y-85123809D02*
X113204819Y-84980952D01*
X113204819Y-84980952D02*
X113204819Y-84885714D01*
X112204819Y-85647619D02*
X112204819Y-86266666D01*
X112204819Y-86266666D02*
X112585771Y-85933333D01*
X112585771Y-85933333D02*
X112585771Y-86076190D01*
X112585771Y-86076190D02*
X112633390Y-86171428D01*
X112633390Y-86171428D02*
X112681009Y-86219047D01*
X112681009Y-86219047D02*
X112776247Y-86266666D01*
X112776247Y-86266666D02*
X113014342Y-86266666D01*
X113014342Y-86266666D02*
X113109580Y-86219047D01*
X113109580Y-86219047D02*
X113157200Y-86171428D01*
X113157200Y-86171428D02*
X113204819Y-86076190D01*
X113204819Y-86076190D02*
X113204819Y-85790476D01*
X113204819Y-85790476D02*
X113157200Y-85695238D01*
X113157200Y-85695238D02*
X113109580Y-85647619D01*
X145118332Y-98794795D02*
X145384999Y-98413842D01*
X145575475Y-98794795D02*
X145575475Y-97994795D01*
X145575475Y-97994795D02*
X145270713Y-97994795D01*
X145270713Y-97994795D02*
X145194523Y-98032890D01*
X145194523Y-98032890D02*
X145156428Y-98070985D01*
X145156428Y-98070985D02*
X145118332Y-98147176D01*
X145118332Y-98147176D02*
X145118332Y-98261461D01*
X145118332Y-98261461D02*
X145156428Y-98337652D01*
X145156428Y-98337652D02*
X145194523Y-98375747D01*
X145194523Y-98375747D02*
X145270713Y-98413842D01*
X145270713Y-98413842D02*
X145575475Y-98413842D01*
X144394523Y-97994795D02*
X144775475Y-97994795D01*
X144775475Y-97994795D02*
X144813571Y-98375747D01*
X144813571Y-98375747D02*
X144775475Y-98337652D01*
X144775475Y-98337652D02*
X144699285Y-98299557D01*
X144699285Y-98299557D02*
X144508809Y-98299557D01*
X144508809Y-98299557D02*
X144432618Y-98337652D01*
X144432618Y-98337652D02*
X144394523Y-98375747D01*
X144394523Y-98375747D02*
X144356428Y-98451938D01*
X144356428Y-98451938D02*
X144356428Y-98642414D01*
X144356428Y-98642414D02*
X144394523Y-98718604D01*
X144394523Y-98718604D02*
X144432618Y-98756700D01*
X144432618Y-98756700D02*
X144508809Y-98794795D01*
X144508809Y-98794795D02*
X144699285Y-98794795D01*
X144699285Y-98794795D02*
X144775475Y-98756700D01*
X144775475Y-98756700D02*
X144813571Y-98718604D01*
X147456666Y-92679580D02*
X147504285Y-92727200D01*
X147504285Y-92727200D02*
X147647142Y-92774819D01*
X147647142Y-92774819D02*
X147742380Y-92774819D01*
X147742380Y-92774819D02*
X147885237Y-92727200D01*
X147885237Y-92727200D02*
X147980475Y-92631961D01*
X147980475Y-92631961D02*
X148028094Y-92536723D01*
X148028094Y-92536723D02*
X148075713Y-92346247D01*
X148075713Y-92346247D02*
X148075713Y-92203390D01*
X148075713Y-92203390D02*
X148028094Y-92012914D01*
X148028094Y-92012914D02*
X147980475Y-91917676D01*
X147980475Y-91917676D02*
X147885237Y-91822438D01*
X147885237Y-91822438D02*
X147742380Y-91774819D01*
X147742380Y-91774819D02*
X147647142Y-91774819D01*
X147647142Y-91774819D02*
X147504285Y-91822438D01*
X147504285Y-91822438D02*
X147456666Y-91870057D01*
X147123332Y-91774819D02*
X146504285Y-91774819D01*
X146504285Y-91774819D02*
X146837618Y-92155771D01*
X146837618Y-92155771D02*
X146694761Y-92155771D01*
X146694761Y-92155771D02*
X146599523Y-92203390D01*
X146599523Y-92203390D02*
X146551904Y-92251009D01*
X146551904Y-92251009D02*
X146504285Y-92346247D01*
X146504285Y-92346247D02*
X146504285Y-92584342D01*
X146504285Y-92584342D02*
X146551904Y-92679580D01*
X146551904Y-92679580D02*
X146599523Y-92727200D01*
X146599523Y-92727200D02*
X146694761Y-92774819D01*
X146694761Y-92774819D02*
X146980475Y-92774819D01*
X146980475Y-92774819D02*
X147075713Y-92727200D01*
X147075713Y-92727200D02*
X147123332Y-92679580D01*
X147201904Y-94992295D02*
X147468571Y-94611342D01*
X147659047Y-94992295D02*
X147659047Y-94192295D01*
X147659047Y-94192295D02*
X147354285Y-94192295D01*
X147354285Y-94192295D02*
X147278095Y-94230390D01*
X147278095Y-94230390D02*
X147240000Y-94268485D01*
X147240000Y-94268485D02*
X147201904Y-94344676D01*
X147201904Y-94344676D02*
X147201904Y-94458961D01*
X147201904Y-94458961D02*
X147240000Y-94535152D01*
X147240000Y-94535152D02*
X147278095Y-94573247D01*
X147278095Y-94573247D02*
X147354285Y-94611342D01*
X147354285Y-94611342D02*
X147659047Y-94611342D01*
X146973333Y-94458961D02*
X146668571Y-94458961D01*
X146859047Y-94192295D02*
X146859047Y-94878009D01*
X146859047Y-94878009D02*
X146820952Y-94954200D01*
X146820952Y-94954200D02*
X146744762Y-94992295D01*
X146744762Y-94992295D02*
X146668571Y-94992295D01*
X145982857Y-94992295D02*
X146440000Y-94992295D01*
X146211428Y-94992295D02*
X146211428Y-94192295D01*
X146211428Y-94192295D02*
X146287619Y-94306580D01*
X146287619Y-94306580D02*
X146363809Y-94382771D01*
X146363809Y-94382771D02*
X146440000Y-94420866D01*
X136861904Y-86374819D02*
X136861904Y-87184342D01*
X136861904Y-87184342D02*
X136814285Y-87279580D01*
X136814285Y-87279580D02*
X136766666Y-87327200D01*
X136766666Y-87327200D02*
X136671428Y-87374819D01*
X136671428Y-87374819D02*
X136480952Y-87374819D01*
X136480952Y-87374819D02*
X136385714Y-87327200D01*
X136385714Y-87327200D02*
X136338095Y-87279580D01*
X136338095Y-87279580D02*
X136290476Y-87184342D01*
X136290476Y-87184342D02*
X136290476Y-86374819D01*
X135290476Y-87374819D02*
X135861904Y-87374819D01*
X135576190Y-87374819D02*
X135576190Y-86374819D01*
X135576190Y-86374819D02*
X135671428Y-86517676D01*
X135671428Y-86517676D02*
X135766666Y-86612914D01*
X135766666Y-86612914D02*
X135861904Y-86660533D01*
X147476666Y-88409580D02*
X147524285Y-88457200D01*
X147524285Y-88457200D02*
X147667142Y-88504819D01*
X147667142Y-88504819D02*
X147762380Y-88504819D01*
X147762380Y-88504819D02*
X147905237Y-88457200D01*
X147905237Y-88457200D02*
X148000475Y-88361961D01*
X148000475Y-88361961D02*
X148048094Y-88266723D01*
X148048094Y-88266723D02*
X148095713Y-88076247D01*
X148095713Y-88076247D02*
X148095713Y-87933390D01*
X148095713Y-87933390D02*
X148048094Y-87742914D01*
X148048094Y-87742914D02*
X148000475Y-87647676D01*
X148000475Y-87647676D02*
X147905237Y-87552438D01*
X147905237Y-87552438D02*
X147762380Y-87504819D01*
X147762380Y-87504819D02*
X147667142Y-87504819D01*
X147667142Y-87504819D02*
X147524285Y-87552438D01*
X147524285Y-87552438D02*
X147476666Y-87600057D01*
X146571904Y-87504819D02*
X147048094Y-87504819D01*
X147048094Y-87504819D02*
X147095713Y-87981009D01*
X147095713Y-87981009D02*
X147048094Y-87933390D01*
X147048094Y-87933390D02*
X146952856Y-87885771D01*
X146952856Y-87885771D02*
X146714761Y-87885771D01*
X146714761Y-87885771D02*
X146619523Y-87933390D01*
X146619523Y-87933390D02*
X146571904Y-87981009D01*
X146571904Y-87981009D02*
X146524285Y-88076247D01*
X146524285Y-88076247D02*
X146524285Y-88314342D01*
X146524285Y-88314342D02*
X146571904Y-88409580D01*
X146571904Y-88409580D02*
X146619523Y-88457200D01*
X146619523Y-88457200D02*
X146714761Y-88504819D01*
X146714761Y-88504819D02*
X146952856Y-88504819D01*
X146952856Y-88504819D02*
X147048094Y-88457200D01*
X147048094Y-88457200D02*
X147095713Y-88409580D01*
D12*
%TO.C,Q1*%
X166925000Y-88352500D02*
X166275000Y-88352500D01*
X166925000Y-88352500D02*
X167575000Y-88352500D01*
X166925000Y-91472500D02*
X166275000Y-91472500D01*
X166925000Y-91472500D02*
X167575000Y-91472500D01*
X166002500Y-91752500D02*
X165522500Y-91752500D01*
X165762500Y-91422500D01*
X166002500Y-91752500D01*
G36*
X166002500Y-91752500D02*
G01*
X165522500Y-91752500D01*
X165762500Y-91422500D01*
X166002500Y-91752500D01*
G37*
%TO.C,C6*%
X157811252Y-92140000D02*
X156388748Y-92140000D01*
X157811252Y-94860000D02*
X156388748Y-94860000D01*
%TO.C,Y1*%
X116975000Y-93325000D02*
X122375000Y-93325000D01*
X116975000Y-97825000D02*
X116975000Y-93325000D01*
%TO.C,C7*%
X158271267Y-95850000D02*
X157978733Y-95850000D01*
X158271267Y-96870000D02*
X157978733Y-96870000D01*
%TO.C,JP6*%
X141825000Y-88000000D02*
X141825000Y-88600000D01*
X142525000Y-89300000D02*
X143925000Y-89300000D01*
X143925000Y-87300000D02*
X142525000Y-87300000D01*
X144625000Y-88600000D02*
X144625000Y-88000000D01*
X141825000Y-88000000D02*
G75*
G02*
X142525000Y-87300000I699999J1D01*
G01*
X142525000Y-89300000D02*
G75*
G02*
X141825000Y-88600000I-1J699999D01*
G01*
X143925000Y-87300000D02*
G75*
G02*
X144625000Y-88000000I0J-700000D01*
G01*
X144625000Y-88600000D02*
G75*
G02*
X143925000Y-89300000I-700000J0D01*
G01*
%TO.C,R4*%
X158427064Y-97315000D02*
X157972936Y-97315000D01*
X158427064Y-98785000D02*
X157972936Y-98785000D01*
%TO.C,C8*%
X153340000Y-93546267D02*
X153340000Y-93253733D01*
X154360000Y-93546267D02*
X154360000Y-93253733D01*
%TO.C,JP8*%
X151250000Y-86500000D02*
X151250000Y-87100000D01*
X151950000Y-87800000D02*
X153350000Y-87800000D01*
X153350000Y-85800000D02*
X151950000Y-85800000D01*
X154050000Y-87100000D02*
X154050000Y-86500000D01*
X151250000Y-86500000D02*
G75*
G02*
X151950000Y-85800000I699999J1D01*
G01*
X151950000Y-87800000D02*
G75*
G02*
X151250000Y-87100000I-1J699999D01*
G01*
X153350000Y-85800000D02*
G75*
G02*
X154050000Y-86500000I0J-700000D01*
G01*
X154050000Y-87100000D02*
G75*
G02*
X153350000Y-87800000I-700000J0D01*
G01*
%TO.C,C4*%
X143150000Y-97006267D02*
X143150000Y-96713733D01*
X144170000Y-97006267D02*
X144170000Y-96713733D01*
%TO.C,JP9*%
X163650000Y-93750000D02*
X163650000Y-95150000D01*
X164349999Y-95850000D02*
X164950001Y-95850000D01*
X164950001Y-93050000D02*
X164349999Y-93050000D01*
X165650000Y-95150000D02*
X165650000Y-93750000D01*
X163650000Y-93750000D02*
G75*
G02*
X164349999Y-93050000I700000J0D01*
G01*
X164349999Y-95850000D02*
G75*
G02*
X163650000Y-95150000I0J699999D01*
G01*
X164950001Y-93050000D02*
G75*
G02*
X165650000Y-93750000I-1J-700000D01*
G01*
X165650000Y-95150000D02*
G75*
G02*
X164950001Y-95850000I-699999J-1D01*
G01*
%TO.C,C2*%
X120640000Y-91721267D02*
X120640000Y-91428733D01*
X121660000Y-91721267D02*
X121660000Y-91428733D01*
%TO.C,Rt2*%
X144607776Y-89977500D02*
X145117224Y-89977500D01*
X144607776Y-91022500D02*
X145117224Y-91022500D01*
%TO.C,R3*%
X158737064Y-85505000D02*
X158282936Y-85505000D01*
X158737064Y-86975000D02*
X158282936Y-86975000D01*
%TO.C,JP5*%
X140510000Y-96090000D02*
X140510000Y-97490000D01*
X141210000Y-98190000D02*
X141810000Y-98190000D01*
X141810000Y-95390000D02*
X141210000Y-95390000D01*
X142510000Y-97490000D02*
X142510000Y-96090000D01*
X140510000Y-96090000D02*
G75*
G02*
X141210000Y-95390000I699999J1D01*
G01*
X141210000Y-98190000D02*
G75*
G02*
X140510000Y-97490000I0J700000D01*
G01*
X141810000Y-95390000D02*
G75*
G02*
X142510000Y-96090000I1J-699999D01*
G01*
X142510000Y-97490000D02*
G75*
G02*
X141810000Y-98190000I-700000J0D01*
G01*
%TO.C,R6*%
X146187500Y-96205276D02*
X146187500Y-96714724D01*
X147232500Y-96205276D02*
X147232500Y-96714724D01*
%TO.C,D1*%
X150270000Y-90712500D02*
X148420000Y-90712500D01*
X150270000Y-91602500D02*
X150270000Y-90712500D01*
X150285000Y-93832500D02*
X148435000Y-93832500D01*
X150285000Y-93832500D02*
X150285000Y-92942500D01*
X148285000Y-94172500D02*
X147805000Y-94172500D01*
X148045000Y-93842500D01*
X148285000Y-94172500D01*
G36*
X148285000Y-94172500D02*
G01*
X147805000Y-94172500D01*
X148045000Y-93842500D01*
X148285000Y-94172500D01*
G37*
%TO.C,C1*%
X117690000Y-91708767D02*
X117690000Y-91416233D01*
X118710000Y-91708767D02*
X118710000Y-91416233D01*
%TO.C,U2*%
X138900000Y-89750000D02*
X136950000Y-89750000D01*
X138900000Y-89750000D02*
X140850000Y-89750000D01*
X138900000Y-94870000D02*
X136950000Y-94870000D01*
X138900000Y-94870000D02*
X140850000Y-94870000D01*
X136440000Y-95105000D02*
X135960000Y-95105000D01*
X136200000Y-94775000D01*
X136440000Y-95105000D01*
G36*
X136440000Y-95105000D02*
G01*
X135960000Y-95105000D01*
X136200000Y-94775000D01*
X136440000Y-95105000D01*
G37*
D13*
%TO.C,U3*%
X152390000Y-98760000D02*
G75*
G02*
X152190000Y-98760000I-100000J0D01*
G01*
X152190000Y-98760000D02*
G75*
G02*
X152390000Y-98760000I100000J0D01*
G01*
D12*
%TO.C,R2*%
X138547064Y-95555000D02*
X138092936Y-95555000D01*
X138547064Y-97025000D02*
X138092936Y-97025000D01*
%TO.C,J3*%
X104875000Y-90485000D02*
X104875000Y-91345000D01*
X104875000Y-91345000D02*
X110875000Y-91345000D01*
X104875000Y-93025000D02*
X104875000Y-93885000D01*
X104875000Y-93885000D02*
X110875000Y-93885000D01*
X104875000Y-95565000D02*
X104875000Y-96425000D01*
X104875000Y-96425000D02*
X110875000Y-96425000D01*
X110875000Y-86995000D02*
X113635000Y-86995000D01*
X110875000Y-90485000D02*
X104875000Y-90485000D01*
X110875000Y-93025000D02*
X104875000Y-93025000D01*
X110875000Y-95565000D02*
X104875000Y-95565000D01*
X110875000Y-97375000D02*
X110875000Y-86995000D01*
X113635000Y-86995000D02*
X113635000Y-97375000D01*
X113635000Y-89645000D02*
X110875000Y-89645000D01*
X113635000Y-92185000D02*
X110875000Y-92185000D01*
X113635000Y-94725000D02*
X110875000Y-94725000D01*
X113635000Y-97375000D02*
X110875000Y-97375000D01*
X113865000Y-87945000D02*
X113635000Y-87945000D01*
X113865000Y-88805000D02*
X113635000Y-88805000D01*
X113947642Y-90485000D02*
X113635000Y-90485000D01*
X113947642Y-91345000D02*
X113635000Y-91345000D01*
X113947642Y-93025000D02*
X113635000Y-93025000D01*
X113947642Y-93885000D02*
X113635000Y-93885000D01*
X113947642Y-95565000D02*
X113635000Y-95565000D01*
X113947642Y-96425000D02*
X113635000Y-96425000D01*
X116295000Y-87105000D02*
X115025000Y-87105000D01*
X116295000Y-88375000D02*
X116295000Y-87105000D01*
X110875000Y-87945000D02*
X104875000Y-87945000D01*
X104875000Y-88805000D01*
X110875000Y-88805000D01*
X110875000Y-87945000D01*
G36*
X110875000Y-87945000D02*
G01*
X104875000Y-87945000D01*
X104875000Y-88805000D01*
X110875000Y-88805000D01*
X110875000Y-87945000D01*
G37*
%TO.C,R5*%
X144667500Y-96707224D02*
X144667500Y-96197776D01*
X145712500Y-96707224D02*
X145712500Y-96197776D01*
%TO.C,C3*%
X144276248Y-91540000D02*
X144798752Y-91540000D01*
X144276248Y-93010000D02*
X144798752Y-93010000D01*
%TO.C,Rt1*%
X144979724Y-93477500D02*
X144470276Y-93477500D01*
X144979724Y-94522500D02*
X144470276Y-94522500D01*
%TO.C,U1*%
X123285000Y-88415000D02*
X123530000Y-88415000D01*
X123285000Y-92275000D02*
X123285000Y-88415000D01*
X123285000Y-92275000D02*
X123285000Y-96135000D01*
X123285000Y-96135000D02*
X123530000Y-96135000D01*
X135055000Y-88415000D02*
X134810000Y-88415000D01*
X135055000Y-92275000D02*
X135055000Y-88415000D01*
X135055000Y-92275000D02*
X135055000Y-96135000D01*
X135055000Y-96135000D02*
X134810000Y-96135000D01*
X135280000Y-97327500D02*
X134810000Y-96987500D01*
X135280000Y-96647500D01*
X135280000Y-97327500D01*
G36*
X135280000Y-97327500D02*
G01*
X134810000Y-96987500D01*
X135280000Y-96647500D01*
X135280000Y-97327500D01*
G37*
%TO.C,C5*%
X145240000Y-88208767D02*
X145240000Y-87916233D01*
X146260000Y-88208767D02*
X146260000Y-87916233D01*
%TD*%
M02*
