%TF.GenerationSoftware,KiCad,Pcbnew,9.0.1*%
%TF.CreationDate,2025-04-21T23:50:01-04:00*%
%TF.ProjectId,can-nano-shield,63616e2d-6e61-46e6-9f2d-736869656c64,rev?*%
%TF.SameCoordinates,Original*%
%TF.FileFunction,Soldermask,Top*%
%TF.FilePolarity,Negative*%
%FSLAX46Y46*%
G04 Gerber Fmt 4.6, Leading zero omitted, Abs format (unit mm)*
G04 Created by KiCad (PCBNEW 9.0.1) date 2025-04-21 23:50:01*
%MOMM*%
%LPD*%
G01*
G04 APERTURE LIST*
G04 Aperture macros list*
%AMRoundRect*
0 Rectangle with rounded corners*
0 $1 Rounding radius*
0 $2 $3 $4 $5 $6 $7 $8 $9 X,Y pos of 4 corners*
0 Add a 4 corners polygon primitive as box body*
4,1,4,$2,$3,$4,$5,$6,$7,$8,$9,$2,$3,0*
0 Add four circle primitives for the rounded corners*
1,1,$1+$1,$2,$3*
1,1,$1+$1,$4,$5*
1,1,$1+$1,$6,$7*
1,1,$1+$1,$8,$9*
0 Add four rect primitives between the rounded corners*
20,1,$1+$1,$2,$3,$4,$5,0*
20,1,$1+$1,$4,$5,$6,$7,0*
20,1,$1+$1,$6,$7,$8,$9,0*
20,1,$1+$1,$8,$9,$2,$3,0*%
%AMFreePoly0*
4,1,23,0.500000,-0.750000,0.000000,-0.750000,0.000000,-0.745722,-0.065263,-0.745722,-0.191342,-0.711940,-0.304381,-0.646677,-0.396677,-0.554381,-0.461940,-0.441342,-0.495722,-0.315263,-0.495722,-0.250000,-0.500000,-0.250000,-0.500000,0.250000,-0.495722,0.250000,-0.495722,0.315263,-0.461940,0.441342,-0.396677,0.554381,-0.304381,0.646677,-0.191342,0.711940,-0.065263,0.745722,0.000000,0.745722,
0.000000,0.750000,0.500000,0.750000,0.500000,-0.750000,0.500000,-0.750000,$1*%
%AMFreePoly1*
4,1,23,0.000000,0.745722,0.065263,0.745722,0.191342,0.711940,0.304381,0.646677,0.396677,0.554381,0.461940,0.441342,0.495722,0.315263,0.495722,0.250000,0.500000,0.250000,0.500000,-0.250000,0.495722,-0.250000,0.495722,-0.315263,0.461940,-0.441342,0.396677,-0.554381,0.304381,-0.646677,0.191342,-0.711940,0.065263,-0.745722,0.000000,-0.745722,0.000000,-0.750000,-0.500000,-0.750000,
-0.500000,0.750000,0.000000,0.750000,0.000000,0.745722,0.000000,0.745722,$1*%
G04 Aperture macros list end*
%ADD10FreePoly0,270.000000*%
%ADD11FreePoly1,270.000000*%
%ADD12RoundRect,0.102000X0.685000X0.685000X-0.685000X0.685000X-0.685000X-0.685000X0.685000X-0.685000X0*%
%ADD13C,1.574000*%
%ADD14RoundRect,0.250000X0.725000X-0.600000X0.725000X0.600000X-0.725000X0.600000X-0.725000X-0.600000X0*%
%ADD15O,1.950000X1.700000*%
%ADD16RoundRect,0.250000X-0.450000X0.350000X-0.450000X-0.350000X0.450000X-0.350000X0.450000X0.350000X0*%
%ADD17R,1.219200X0.990600*%
%ADD18R,1.700000X1.700000*%
%ADD19C,1.700000*%
G04 APERTURE END LIST*
%TO.C,JP3*%
G36*
X139450000Y-88050000D02*
G01*
X137950000Y-88050000D01*
X137950000Y-88350000D01*
X139450000Y-88350000D01*
X139450000Y-88050000D01*
G37*
%TO.C,JP4*%
G36*
X142025000Y-88050000D02*
G01*
X140525000Y-88050000D01*
X140525000Y-88350000D01*
X142025000Y-88350000D01*
X142025000Y-88050000D01*
G37*
%TO.C,JP5*%
G36*
X146050000Y-88025000D02*
G01*
X144550000Y-88025000D01*
X144550000Y-88325000D01*
X146050000Y-88325000D01*
X146050000Y-88025000D01*
G37*
%TD*%
D10*
%TO.C,JP3*%
X138700000Y-87550000D03*
D11*
X138700000Y-88850000D03*
%TD*%
D10*
%TO.C,JP4*%
X141275000Y-87550000D03*
D11*
X141275000Y-88850000D03*
%TD*%
D12*
%TO.C,J2*%
X151400000Y-99930000D03*
D13*
X148860000Y-99930000D03*
X146320000Y-99930000D03*
X143780000Y-99930000D03*
X141240000Y-99930000D03*
X138700000Y-99930000D03*
X136160000Y-99930000D03*
X133620000Y-99930000D03*
X131080000Y-99930000D03*
X128540000Y-99930000D03*
X126000000Y-99930000D03*
X123460000Y-99930000D03*
X120920000Y-99930000D03*
X118380000Y-99930000D03*
X115840000Y-99930000D03*
%TD*%
D14*
%TO.C,J4*%
X153790000Y-94780000D03*
D15*
X153790000Y-92280000D03*
X153790000Y-89780000D03*
%TD*%
D16*
%TO.C,R1*%
X136325000Y-87425000D03*
X136325000Y-89425000D03*
%TD*%
D10*
%TO.C,JP5*%
X145300000Y-87525000D03*
D11*
X145300000Y-88825000D03*
%TD*%
D17*
%TO.C,T1*%
X144781000Y-94320000D03*
X149480000Y-94320000D03*
X149480000Y-92120000D03*
X144781000Y-92120000D03*
%TD*%
D12*
%TO.C,J1*%
X151405000Y-84700000D03*
D13*
X148865000Y-84700000D03*
X146325000Y-84700000D03*
X143785000Y-84700000D03*
X141245000Y-84700000D03*
X138705000Y-84700000D03*
X136165000Y-84700000D03*
X133625000Y-84700000D03*
X131085000Y-84700000D03*
X128545000Y-84700000D03*
X126005000Y-84700000D03*
X123465000Y-84700000D03*
X120925000Y-84700000D03*
X118385000Y-84700000D03*
X115845000Y-84700000D03*
%TD*%
D18*
%TO.C,J3*%
X115025000Y-88375000D03*
D19*
X115025000Y-90915000D03*
X115025000Y-93455000D03*
X115025000Y-95995000D03*
%TD*%
M02*
