%TF.GenerationSoftware,KiCad,Pcbnew,9.0.1*%
%TF.CreationDate,2025-09-14T13:33:30-04:00*%
%TF.ProjectId,can-nano-shield-fieldbus,63616e2d-6e61-46e6-9f2d-736869656c64,rev?*%
%TF.SameCoordinates,Original*%
%TF.FileFunction,Copper,L3,Inr*%
%TF.FilePolarity,Positive*%
%FSLAX46Y46*%
G04 Gerber Fmt 4.6, Leading zero omitted, Abs format (unit mm)*
G04 Created by KiCad (PCBNEW 9.0.1) date 2025-09-14 13:33:30*
%MOMM*%
%LPD*%
G01*
G04 APERTURE LIST*
%TA.AperFunction,ComponentPad*%
%ADD10R,1.400000X1.400000*%
%TD*%
%TA.AperFunction,ComponentPad*%
%ADD11C,1.400000*%
%TD*%
%TA.AperFunction,ComponentPad*%
%ADD12O,2.500000X0.800000*%
%TD*%
%TA.AperFunction,ComponentPad*%
%ADD13R,1.370000X1.370000*%
%TD*%
%TA.AperFunction,ComponentPad*%
%ADD14C,1.370000*%
%TD*%
%TA.AperFunction,ComponentPad*%
%ADD15C,0.400000*%
%TD*%
%TA.AperFunction,ComponentPad*%
%ADD16R,1.700000X1.700000*%
%TD*%
%TA.AperFunction,ComponentPad*%
%ADD17C,1.700000*%
%TD*%
%TA.AperFunction,ViaPad*%
%ADD18C,0.600000*%
%TD*%
G04 APERTURE END LIST*
D10*
%TO.N,/CAN_H*%
%TO.C,J4*%
X162260000Y-88730000D03*
D11*
%TO.N,/CAN_L*%
X160480000Y-89750000D03*
%TO.N,GND*%
X162260000Y-90770000D03*
X160480000Y-91790000D03*
%TO.N,/CAN_ESTOP*%
X162260000Y-92810000D03*
%TO.N,/CAN_SHLD*%
X160480000Y-93830000D03*
%TO.N,GND*%
X162260000Y-94850000D03*
%TO.N,/CAN_V+*%
X160480000Y-95870000D03*
%TO.N,GND*%
X155660000Y-99160000D03*
%TO.N,/LED_PWR*%
X155660000Y-96870000D03*
%TO.N,GND*%
X155660000Y-87730000D03*
%TO.N,/LED_TX*%
X155660000Y-85440000D03*
D12*
%TO.N,N/C*%
X161240000Y-84200000D03*
X161240000Y-100400000D03*
%TD*%
D13*
%TO.N,unconnected-(J2-Pad01)*%
%TO.C,J2*%
X151400000Y-99930000D03*
D14*
%TO.N,GND*%
X148860000Y-99930000D03*
%TO.N,/RST2*%
X146320000Y-99930000D03*
%TO.N,+5V*%
X143780000Y-99930000D03*
%TO.N,/A7*%
X141240000Y-99930000D03*
%TO.N,/A6*%
X138700000Y-99930000D03*
%TO.N,/A5*%
X136160000Y-99930000D03*
%TO.N,/A4*%
X133620000Y-99930000D03*
%TO.N,/A3*%
X131080000Y-99930000D03*
%TO.N,/A2*%
X128540000Y-99930000D03*
%TO.N,/A1*%
X126000000Y-99930000D03*
%TO.N,/A0*%
X123460000Y-99930000D03*
%TO.N,/AREF*%
X120920000Y-99930000D03*
%TO.N,+3V3*%
X118380000Y-99930000D03*
%TO.N,/SCK*%
X115840000Y-99930000D03*
%TD*%
D13*
%TO.N,/D1*%
%TO.C,J1*%
X151405000Y-84700000D03*
D14*
%TO.N,/D0*%
X148865000Y-84700000D03*
%TO.N,/RST1*%
X146325000Y-84700000D03*
%TO.N,GND*%
X143785000Y-84700000D03*
%TO.N,/ESTOP*%
X141245000Y-84700000D03*
%TO.N,/CAN_INT_DEFAULT*%
X138705000Y-84700000D03*
%TO.N,/CAN_CS_DEFAULT*%
X136165000Y-84700000D03*
%TO.N,/D5*%
X133625000Y-84700000D03*
%TO.N,/D6*%
X131085000Y-84700000D03*
%TO.N,/D7*%
X128545000Y-84700000D03*
%TO.N,/D8*%
X126005000Y-84700000D03*
%TO.N,/D9*%
X123465000Y-84700000D03*
%TO.N,/D10*%
X120925000Y-84700000D03*
%TO.N,/MOSI*%
X118385000Y-84700000D03*
%TO.N,/MISO*%
X115845000Y-84700000D03*
%TD*%
D15*
%TO.N,/CAN_V+*%
%TO.C,U3*%
X150980000Y-97989000D03*
X150980000Y-97310000D03*
%TO.N,VCC*%
X149780000Y-97990000D03*
X149280000Y-97990000D03*
X148780000Y-97990000D03*
X149740000Y-97040000D03*
X148920000Y-97040000D03*
%TO.N,Net-(U3-SW-Pad5)*%
X149780000Y-94530000D03*
X149280000Y-94530000D03*
X148780000Y-94530000D03*
X149740000Y-95480000D03*
X148920000Y-95480000D03*
X150780000Y-95209000D03*
X150780000Y-94530000D03*
%TO.N,GND*%
X151560000Y-96260000D03*
X150560000Y-96260000D03*
X149560000Y-96260000D03*
X148560000Y-96260000D03*
%TD*%
D16*
%TO.N,/~{CAN_INT}*%
%TO.C,J3*%
X115025000Y-88375000D03*
D17*
%TO.N,/CAN_CS*%
X115025000Y-90915000D03*
%TO.N,/CAN_RESET*%
X115025000Y-93455000D03*
%TO.N,/SILENT*%
X115025000Y-95995000D03*
%TD*%
D18*
%TO.N,GND*%
X131375000Y-95100000D03*
X135725000Y-95175000D03*
X143919347Y-87045000D03*
X152931303Y-91943052D03*
X148420000Y-89278700D03*
X119590000Y-92430000D03*
X150825000Y-90478700D03*
X162290000Y-86230000D03*
X156392831Y-95392831D03*
X134125000Y-93575000D03*
X116780000Y-91820000D03*
X164370000Y-92030000D03*
%TO.N,/CAN_H*%
X152210000Y-93260000D03*
%TO.N,/CAN_L*%
X152350000Y-91330000D03*
%TO.N,/SILENT*%
X139925000Y-94875000D03*
%TO.N,/CAN_CS*%
X130650000Y-90875000D03*
%TO.N,/~{CAN_INT}*%
X140000000Y-89300000D03*
X126610000Y-88875000D03*
X135150000Y-88300000D03*
%TO.N,/CAN_RESET*%
X131862500Y-91987500D03*
%TO.N,/SCK*%
X127700000Y-89450000D03*
%TO.N,/CAN_TX*%
X137837500Y-93712500D03*
X164501000Y-89230000D03*
%TO.N,/CAN_H_IN*%
X142245000Y-92945000D03*
%TO.N,/CAN_L_IN*%
X142362500Y-91437500D03*
%TO.N,Net-(Q1-S)*%
X160710000Y-86360000D03*
X165980000Y-88020000D03*
%TO.N,VCC*%
X167448870Y-93277355D03*
X134950000Y-86850000D03*
X160100000Y-98125000D03*
X139250000Y-93175000D03*
X145190000Y-97365000D03*
X149335000Y-97460000D03*
%TO.N,Net-(U3-FB)*%
X153037500Y-95152500D03*
X146730000Y-94215000D03*
%TO.N,Net-(U3-RT)*%
X153850000Y-94262500D03*
X153600000Y-96740000D03*
%TD*%
%TA.AperFunction,Conductor*%
%TO.N,GND*%
G36*
X114856841Y-83820185D02*
G01*
X114902596Y-83872989D01*
X114912540Y-83942147D01*
X114890120Y-83997386D01*
X114831069Y-84078661D01*
X114746354Y-84244925D01*
X114746352Y-84244928D01*
X114688691Y-84422390D01*
X114688691Y-84422393D01*
X114659500Y-84606699D01*
X114659500Y-84793300D01*
X114688691Y-84977606D01*
X114688691Y-84977609D01*
X114746352Y-85155071D01*
X114746354Y-85155074D01*
X114831069Y-85321338D01*
X114940751Y-85472302D01*
X115072698Y-85604249D01*
X115223662Y-85713931D01*
X115389926Y-85798646D01*
X115389928Y-85798647D01*
X115567391Y-85856308D01*
X115567392Y-85856308D01*
X115567395Y-85856309D01*
X115751699Y-85885500D01*
X115751700Y-85885500D01*
X115938300Y-85885500D01*
X115938301Y-85885500D01*
X116122605Y-85856309D01*
X116122608Y-85856308D01*
X116122609Y-85856308D01*
X116300071Y-85798647D01*
X116300071Y-85798646D01*
X116300074Y-85798646D01*
X116466338Y-85713931D01*
X116617302Y-85604249D01*
X116749249Y-85472302D01*
X116858931Y-85321338D01*
X116943646Y-85155074D01*
X116961378Y-85100500D01*
X116997069Y-84990656D01*
X117036506Y-84932980D01*
X117100865Y-84905782D01*
X117169711Y-84917697D01*
X117221187Y-84964941D01*
X117232931Y-84990656D01*
X117286352Y-85155071D01*
X117286354Y-85155074D01*
X117371069Y-85321338D01*
X117480751Y-85472302D01*
X117612698Y-85604249D01*
X117763662Y-85713931D01*
X117929926Y-85798646D01*
X117929928Y-85798647D01*
X118107391Y-85856308D01*
X118107392Y-85856308D01*
X118107395Y-85856309D01*
X118291699Y-85885500D01*
X118291700Y-85885500D01*
X118478300Y-85885500D01*
X118478301Y-85885500D01*
X118662605Y-85856309D01*
X118662608Y-85856308D01*
X118662609Y-85856308D01*
X118840071Y-85798647D01*
X118840071Y-85798646D01*
X118840074Y-85798646D01*
X119006338Y-85713931D01*
X119157302Y-85604249D01*
X119289249Y-85472302D01*
X119398931Y-85321338D01*
X119483646Y-85155074D01*
X119501378Y-85100500D01*
X119537069Y-84990656D01*
X119576506Y-84932980D01*
X119640865Y-84905782D01*
X119709711Y-84917697D01*
X119761187Y-84964941D01*
X119772931Y-84990656D01*
X119826352Y-85155071D01*
X119826354Y-85155074D01*
X119911069Y-85321338D01*
X120020751Y-85472302D01*
X120152698Y-85604249D01*
X120303662Y-85713931D01*
X120469926Y-85798646D01*
X120469928Y-85798647D01*
X120647391Y-85856308D01*
X120647392Y-85856308D01*
X120647395Y-85856309D01*
X120831699Y-85885500D01*
X120831700Y-85885500D01*
X121018300Y-85885500D01*
X121018301Y-85885500D01*
X121202605Y-85856309D01*
X121202608Y-85856308D01*
X121202609Y-85856308D01*
X121380071Y-85798647D01*
X121380071Y-85798646D01*
X121380074Y-85798646D01*
X121546338Y-85713931D01*
X121697302Y-85604249D01*
X121829249Y-85472302D01*
X121938931Y-85321338D01*
X122023646Y-85155074D01*
X122041378Y-85100500D01*
X122077069Y-84990656D01*
X122116506Y-84932980D01*
X122180865Y-84905782D01*
X122249711Y-84917697D01*
X122301187Y-84964941D01*
X122312931Y-84990656D01*
X122366352Y-85155071D01*
X122366354Y-85155074D01*
X122451069Y-85321338D01*
X122560751Y-85472302D01*
X122692698Y-85604249D01*
X122843662Y-85713931D01*
X123009926Y-85798646D01*
X123009928Y-85798647D01*
X123187391Y-85856308D01*
X123187392Y-85856308D01*
X123187395Y-85856309D01*
X123371699Y-85885500D01*
X123371700Y-85885500D01*
X123558300Y-85885500D01*
X123558301Y-85885500D01*
X123742605Y-85856309D01*
X123742608Y-85856308D01*
X123742609Y-85856308D01*
X123920071Y-85798647D01*
X123920071Y-85798646D01*
X123920074Y-85798646D01*
X124086338Y-85713931D01*
X124237302Y-85604249D01*
X124369249Y-85472302D01*
X124478931Y-85321338D01*
X124563646Y-85155074D01*
X124581378Y-85100500D01*
X124617069Y-84990656D01*
X124656506Y-84932980D01*
X124720865Y-84905782D01*
X124789711Y-84917697D01*
X124841187Y-84964941D01*
X124852931Y-84990656D01*
X124906352Y-85155071D01*
X124906354Y-85155074D01*
X124991069Y-85321338D01*
X125100751Y-85472302D01*
X125232698Y-85604249D01*
X125383662Y-85713931D01*
X125549926Y-85798646D01*
X125549928Y-85798647D01*
X125727391Y-85856308D01*
X125727392Y-85856308D01*
X125727395Y-85856309D01*
X125911699Y-85885500D01*
X125911700Y-85885500D01*
X126098300Y-85885500D01*
X126098301Y-85885500D01*
X126282605Y-85856309D01*
X126282608Y-85856308D01*
X126282609Y-85856308D01*
X126460071Y-85798647D01*
X126460071Y-85798646D01*
X126460074Y-85798646D01*
X126626338Y-85713931D01*
X126777302Y-85604249D01*
X126909249Y-85472302D01*
X127018931Y-85321338D01*
X127103646Y-85155074D01*
X127121378Y-85100500D01*
X127157069Y-84990656D01*
X127196506Y-84932980D01*
X127260865Y-84905782D01*
X127329711Y-84917697D01*
X127381187Y-84964941D01*
X127392931Y-84990656D01*
X127446352Y-85155071D01*
X127446354Y-85155074D01*
X127531069Y-85321338D01*
X127640751Y-85472302D01*
X127772698Y-85604249D01*
X127923662Y-85713931D01*
X128089926Y-85798646D01*
X128089928Y-85798647D01*
X128267391Y-85856308D01*
X128267392Y-85856308D01*
X128267395Y-85856309D01*
X128451699Y-85885500D01*
X128451700Y-85885500D01*
X128638300Y-85885500D01*
X128638301Y-85885500D01*
X128822605Y-85856309D01*
X128822608Y-85856308D01*
X128822609Y-85856308D01*
X129000071Y-85798647D01*
X129000071Y-85798646D01*
X129000074Y-85798646D01*
X129166338Y-85713931D01*
X129317302Y-85604249D01*
X129449249Y-85472302D01*
X129558931Y-85321338D01*
X129643646Y-85155074D01*
X129661378Y-85100500D01*
X129697069Y-84990656D01*
X129736506Y-84932980D01*
X129800865Y-84905782D01*
X129869711Y-84917697D01*
X129921187Y-84964941D01*
X129932931Y-84990656D01*
X129986352Y-85155071D01*
X129986354Y-85155074D01*
X130071069Y-85321338D01*
X130180751Y-85472302D01*
X130312698Y-85604249D01*
X130463662Y-85713931D01*
X130629926Y-85798646D01*
X130629928Y-85798647D01*
X130807391Y-85856308D01*
X130807392Y-85856308D01*
X130807395Y-85856309D01*
X130991699Y-85885500D01*
X130991700Y-85885500D01*
X131178300Y-85885500D01*
X131178301Y-85885500D01*
X131362605Y-85856309D01*
X131362608Y-85856308D01*
X131362609Y-85856308D01*
X131540071Y-85798647D01*
X131540071Y-85798646D01*
X131540074Y-85798646D01*
X131706338Y-85713931D01*
X131857302Y-85604249D01*
X131989249Y-85472302D01*
X132098931Y-85321338D01*
X132183646Y-85155074D01*
X132201378Y-85100500D01*
X132237069Y-84990656D01*
X132276506Y-84932980D01*
X132340865Y-84905782D01*
X132409711Y-84917697D01*
X132461187Y-84964941D01*
X132472931Y-84990656D01*
X132526352Y-85155071D01*
X132526354Y-85155074D01*
X132611069Y-85321338D01*
X132720751Y-85472302D01*
X132852698Y-85604249D01*
X133003662Y-85713931D01*
X133169926Y-85798646D01*
X133169928Y-85798647D01*
X133347391Y-85856308D01*
X133347392Y-85856308D01*
X133347395Y-85856309D01*
X133531699Y-85885500D01*
X133531700Y-85885500D01*
X133718300Y-85885500D01*
X133718301Y-85885500D01*
X133902605Y-85856309D01*
X133902608Y-85856308D01*
X133902609Y-85856308D01*
X134080071Y-85798647D01*
X134080071Y-85798646D01*
X134080074Y-85798646D01*
X134246338Y-85713931D01*
X134397302Y-85604249D01*
X134529249Y-85472302D01*
X134638931Y-85321338D01*
X134723646Y-85155074D01*
X134741378Y-85100500D01*
X134777069Y-84990656D01*
X134816506Y-84932980D01*
X134880865Y-84905782D01*
X134949711Y-84917697D01*
X135001187Y-84964941D01*
X135012931Y-84990656D01*
X135066352Y-85155071D01*
X135066354Y-85155074D01*
X135151069Y-85321338D01*
X135260751Y-85472302D01*
X135392698Y-85604249D01*
X135543662Y-85713931D01*
X135709926Y-85798646D01*
X135709928Y-85798647D01*
X135887391Y-85856308D01*
X135887392Y-85856308D01*
X135887395Y-85856309D01*
X136071699Y-85885500D01*
X136071700Y-85885500D01*
X136258300Y-85885500D01*
X136258301Y-85885500D01*
X136442605Y-85856309D01*
X136442608Y-85856308D01*
X136442609Y-85856308D01*
X136620071Y-85798647D01*
X136620071Y-85798646D01*
X136620074Y-85798646D01*
X136786338Y-85713931D01*
X136937302Y-85604249D01*
X137069249Y-85472302D01*
X137178931Y-85321338D01*
X137263646Y-85155074D01*
X137281378Y-85100500D01*
X137317069Y-84990656D01*
X137356506Y-84932980D01*
X137420865Y-84905782D01*
X137489711Y-84917697D01*
X137541187Y-84964941D01*
X137552931Y-84990656D01*
X137606352Y-85155071D01*
X137606354Y-85155074D01*
X137691069Y-85321338D01*
X137800751Y-85472302D01*
X137932698Y-85604249D01*
X138083662Y-85713931D01*
X138249926Y-85798646D01*
X138249928Y-85798647D01*
X138427391Y-85856308D01*
X138427392Y-85856308D01*
X138427395Y-85856309D01*
X138611699Y-85885500D01*
X138611700Y-85885500D01*
X138798300Y-85885500D01*
X138798301Y-85885500D01*
X138982605Y-85856309D01*
X138982608Y-85856308D01*
X138982609Y-85856308D01*
X139160071Y-85798647D01*
X139160071Y-85798646D01*
X139160074Y-85798646D01*
X139326338Y-85713931D01*
X139477302Y-85604249D01*
X139609249Y-85472302D01*
X139718931Y-85321338D01*
X139803646Y-85155074D01*
X139821378Y-85100500D01*
X139857069Y-84990656D01*
X139896506Y-84932980D01*
X139960865Y-84905782D01*
X140029711Y-84917697D01*
X140081187Y-84964941D01*
X140092931Y-84990656D01*
X140146352Y-85155071D01*
X140146354Y-85155074D01*
X140231069Y-85321338D01*
X140340751Y-85472302D01*
X140472698Y-85604249D01*
X140623662Y-85713931D01*
X140789926Y-85798646D01*
X140789928Y-85798647D01*
X140967391Y-85856308D01*
X140967392Y-85856308D01*
X140967395Y-85856309D01*
X141151699Y-85885500D01*
X141151700Y-85885500D01*
X141338300Y-85885500D01*
X141338301Y-85885500D01*
X141522605Y-85856309D01*
X141522608Y-85856308D01*
X141522609Y-85856308D01*
X141700071Y-85798647D01*
X141700071Y-85798646D01*
X141700074Y-85798646D01*
X141866338Y-85713931D01*
X142017302Y-85604249D01*
X142149249Y-85472302D01*
X142258931Y-85321338D01*
X142343646Y-85155074D01*
X142397332Y-84989845D01*
X142436769Y-84932170D01*
X142501128Y-84904971D01*
X142569974Y-84916885D01*
X142621450Y-84964129D01*
X142633194Y-84989845D01*
X142686819Y-85154884D01*
X142771498Y-85321077D01*
X142787855Y-85343590D01*
X143293871Y-84837574D01*
X143309755Y-84896853D01*
X143376898Y-85013147D01*
X143471853Y-85108102D01*
X143588147Y-85175245D01*
X143647424Y-85191128D01*
X143141408Y-85697143D01*
X143141408Y-85697144D01*
X143163918Y-85713499D01*
X143330115Y-85798180D01*
X143507515Y-85855821D01*
X143691739Y-85885000D01*
X143878261Y-85885000D01*
X144062484Y-85855821D01*
X144239884Y-85798180D01*
X144406075Y-85713502D01*
X144428590Y-85697143D01*
X144428591Y-85697143D01*
X143922575Y-85191127D01*
X143981853Y-85175245D01*
X144098147Y-85108102D01*
X144193102Y-85013147D01*
X144260245Y-84896853D01*
X144276128Y-84837575D01*
X144782143Y-85343591D01*
X144782143Y-85343590D01*
X144798502Y-85321075D01*
X144883180Y-85154884D01*
X144936805Y-84989845D01*
X144976242Y-84932170D01*
X145040601Y-84904971D01*
X145109447Y-84916885D01*
X145160923Y-84964129D01*
X145172667Y-84989845D01*
X145226352Y-85155071D01*
X145226354Y-85155074D01*
X145311069Y-85321338D01*
X145420751Y-85472302D01*
X145552698Y-85604249D01*
X145703662Y-85713931D01*
X145869926Y-85798646D01*
X145869928Y-85798647D01*
X146047391Y-85856308D01*
X146047392Y-85856308D01*
X146047395Y-85856309D01*
X146231699Y-85885500D01*
X146231700Y-85885500D01*
X146418300Y-85885500D01*
X146418301Y-85885500D01*
X146602605Y-85856309D01*
X146602608Y-85856308D01*
X146602609Y-85856308D01*
X146780071Y-85798647D01*
X146780071Y-85798646D01*
X146780074Y-85798646D01*
X146946338Y-85713931D01*
X147097302Y-85604249D01*
X147229249Y-85472302D01*
X147338931Y-85321338D01*
X147423646Y-85155074D01*
X147441378Y-85100500D01*
X147477069Y-84990656D01*
X147516506Y-84932980D01*
X147580865Y-84905782D01*
X147649711Y-84917697D01*
X147701187Y-84964941D01*
X147712931Y-84990656D01*
X147766352Y-85155071D01*
X147766354Y-85155074D01*
X147851069Y-85321338D01*
X147960751Y-85472302D01*
X148092698Y-85604249D01*
X148243662Y-85713931D01*
X148409926Y-85798646D01*
X148409928Y-85798647D01*
X148587391Y-85856308D01*
X148587392Y-85856308D01*
X148587395Y-85856309D01*
X148771699Y-85885500D01*
X148771700Y-85885500D01*
X148958300Y-85885500D01*
X148958301Y-85885500D01*
X149142605Y-85856309D01*
X149142608Y-85856308D01*
X149142609Y-85856308D01*
X149320071Y-85798647D01*
X149320071Y-85798646D01*
X149320074Y-85798646D01*
X149486338Y-85713931D01*
X149637302Y-85604249D01*
X149769249Y-85472302D01*
X149878931Y-85321338D01*
X149963646Y-85155074D01*
X149977569Y-85112221D01*
X150017005Y-85054548D01*
X150081363Y-85027348D01*
X150150210Y-85039262D01*
X150201686Y-85086505D01*
X150219500Y-85150540D01*
X150219500Y-85432869D01*
X150219501Y-85432876D01*
X150225908Y-85492483D01*
X150276202Y-85627328D01*
X150276206Y-85627335D01*
X150362452Y-85742544D01*
X150362455Y-85742547D01*
X150477664Y-85828793D01*
X150477671Y-85828797D01*
X150612517Y-85879091D01*
X150612516Y-85879091D01*
X150619444Y-85879835D01*
X150672127Y-85885500D01*
X152137872Y-85885499D01*
X152197483Y-85879091D01*
X152332331Y-85828796D01*
X152447546Y-85742546D01*
X152533796Y-85627331D01*
X152584091Y-85492483D01*
X152590500Y-85432873D01*
X152590500Y-85345513D01*
X154459500Y-85345513D01*
X154459500Y-85534486D01*
X154489059Y-85721118D01*
X154547454Y-85900836D01*
X154588209Y-85980821D01*
X154633240Y-86069199D01*
X154744310Y-86222073D01*
X154877927Y-86355690D01*
X155030801Y-86466760D01*
X155046567Y-86474793D01*
X155046569Y-86474794D01*
X155097366Y-86522767D01*
X155114163Y-86590588D01*
X155091627Y-86656723D01*
X155046578Y-86695762D01*
X155031061Y-86703669D01*
X155005670Y-86722116D01*
X155005669Y-86722116D01*
X155571415Y-87287861D01*
X155486306Y-87310667D01*
X155383694Y-87369910D01*
X155299910Y-87453694D01*
X155240667Y-87556306D01*
X155217861Y-87641414D01*
X154652116Y-87075669D01*
X154652116Y-87075670D01*
X154633669Y-87101060D01*
X154547914Y-87269362D01*
X154489548Y-87448997D01*
X154460000Y-87635552D01*
X154460000Y-87824447D01*
X154489548Y-88011002D01*
X154547914Y-88190637D01*
X154633666Y-88358933D01*
X154652116Y-88384328D01*
X155217861Y-87818584D01*
X155240667Y-87903694D01*
X155299910Y-88006306D01*
X155383694Y-88090090D01*
X155486306Y-88149333D01*
X155571415Y-88172138D01*
X155005669Y-88737882D01*
X155005670Y-88737883D01*
X155031059Y-88756329D01*
X155199362Y-88842085D01*
X155378997Y-88900451D01*
X155565553Y-88930000D01*
X155754447Y-88930000D01*
X155941002Y-88900451D01*
X156120637Y-88842085D01*
X156288937Y-88756331D01*
X156314328Y-88737883D01*
X156314328Y-88737882D01*
X155748584Y-88172138D01*
X155833694Y-88149333D01*
X155936306Y-88090090D01*
X156020090Y-88006306D01*
X156079333Y-87903694D01*
X156102138Y-87818584D01*
X156667882Y-88384328D01*
X156667883Y-88384328D01*
X156686331Y-88358937D01*
X156772085Y-88190637D01*
X156830451Y-88011002D01*
X156860000Y-87824447D01*
X156860000Y-87635552D01*
X156830451Y-87448997D01*
X156772085Y-87269362D01*
X156686329Y-87101059D01*
X156667883Y-87075670D01*
X156667882Y-87075669D01*
X156102137Y-87641414D01*
X156079333Y-87556306D01*
X156020090Y-87453694D01*
X155936306Y-87369910D01*
X155833694Y-87310667D01*
X155748584Y-87287861D01*
X156314328Y-86722116D01*
X156288932Y-86703665D01*
X156273425Y-86695764D01*
X156222630Y-86647789D01*
X156205836Y-86579967D01*
X156228375Y-86513833D01*
X156273430Y-86474794D01*
X156289199Y-86466760D01*
X156442073Y-86355690D01*
X156516610Y-86281153D01*
X159909500Y-86281153D01*
X159909500Y-86438846D01*
X159940261Y-86593489D01*
X159940264Y-86593501D01*
X160000602Y-86739172D01*
X160000609Y-86739185D01*
X160088210Y-86870288D01*
X160088213Y-86870292D01*
X160199707Y-86981786D01*
X160199711Y-86981789D01*
X160330814Y-87069390D01*
X160330827Y-87069397D01*
X160460670Y-87123179D01*
X160476503Y-87129737D01*
X160631153Y-87160499D01*
X160631156Y-87160500D01*
X160631158Y-87160500D01*
X160788844Y-87160500D01*
X160788845Y-87160499D01*
X160943497Y-87129737D01*
X161089179Y-87069394D01*
X161220289Y-86981789D01*
X161331789Y-86870289D01*
X161419394Y-86739179D01*
X161479737Y-86593497D01*
X161510500Y-86438842D01*
X161510500Y-86281158D01*
X161510500Y-86281155D01*
X161510499Y-86281153D01*
X161479737Y-86126503D01*
X161479735Y-86126498D01*
X161419397Y-85980827D01*
X161419390Y-85980814D01*
X161364364Y-85898462D01*
X161364363Y-85898461D01*
X161350106Y-85877125D01*
X161331789Y-85849711D01*
X161331788Y-85849710D01*
X161331786Y-85849707D01*
X161315713Y-85833634D01*
X163024500Y-85833634D01*
X163024500Y-86066365D01*
X163024501Y-86066382D01*
X163052776Y-86281158D01*
X163054879Y-86297126D01*
X163100332Y-86466760D01*
X163115120Y-86521947D01*
X163204180Y-86736960D01*
X163204188Y-86736976D01*
X163320553Y-86938524D01*
X163320564Y-86938540D01*
X163462242Y-87123179D01*
X163462248Y-87123186D01*
X163626813Y-87287751D01*
X163626820Y-87287757D01*
X163656677Y-87310667D01*
X163811468Y-87429442D01*
X163811475Y-87429446D01*
X164013023Y-87545811D01*
X164013039Y-87545819D01*
X164228052Y-87634879D01*
X164228054Y-87634879D01*
X164228060Y-87634882D01*
X164452874Y-87695121D01*
X164683628Y-87725500D01*
X164683635Y-87725500D01*
X164916365Y-87725500D01*
X164916372Y-87725500D01*
X165059065Y-87706714D01*
X165128100Y-87717479D01*
X165180356Y-87763859D01*
X165199241Y-87831128D01*
X165196867Y-87853844D01*
X165179500Y-87941153D01*
X165179500Y-88098846D01*
X165210261Y-88253489D01*
X165210264Y-88253501D01*
X165270602Y-88399172D01*
X165270609Y-88399185D01*
X165358210Y-88530288D01*
X165358213Y-88530292D01*
X165469707Y-88641786D01*
X165469711Y-88641789D01*
X165600814Y-88729390D01*
X165600827Y-88729397D01*
X165746440Y-88789711D01*
X165746503Y-88789737D01*
X165901153Y-88820499D01*
X165901156Y-88820500D01*
X165901158Y-88820500D01*
X166058844Y-88820500D01*
X166058845Y-88820499D01*
X166213497Y-88789737D01*
X166359179Y-88729394D01*
X166490289Y-88641789D01*
X166601789Y-88530289D01*
X166689394Y-88399179D01*
X166749737Y-88253497D01*
X166780500Y-88098842D01*
X166780500Y-87941158D01*
X166780500Y-87941155D01*
X166780499Y-87941153D01*
X166763132Y-87853844D01*
X166749737Y-87786503D01*
X166726333Y-87730000D01*
X166689397Y-87640827D01*
X166689390Y-87640814D01*
X166601789Y-87509711D01*
X166601786Y-87509707D01*
X166490292Y-87398213D01*
X166490288Y-87398210D01*
X166359185Y-87310609D01*
X166359176Y-87310604D01*
X166231327Y-87257648D01*
X166176924Y-87213807D01*
X166154859Y-87147513D01*
X166172138Y-87079814D01*
X166180404Y-87067601D01*
X166182040Y-87065468D01*
X166279442Y-86938532D01*
X166395815Y-86736969D01*
X166412883Y-86695764D01*
X166484879Y-86521947D01*
X166484878Y-86521947D01*
X166484882Y-86521940D01*
X166545121Y-86297126D01*
X166575500Y-86066372D01*
X166575500Y-85833628D01*
X166545121Y-85602874D01*
X166484882Y-85378060D01*
X166484879Y-85378052D01*
X166395819Y-85163039D01*
X166395811Y-85163023D01*
X166279446Y-84961475D01*
X166279442Y-84961468D01*
X166150403Y-84793301D01*
X166137757Y-84776820D01*
X166137751Y-84776813D01*
X165973186Y-84612248D01*
X165973179Y-84612242D01*
X165788540Y-84470564D01*
X165788538Y-84470562D01*
X165788532Y-84470558D01*
X165788527Y-84470555D01*
X165788524Y-84470553D01*
X165586976Y-84354188D01*
X165586960Y-84354180D01*
X165371947Y-84265120D01*
X165297280Y-84245113D01*
X165147126Y-84204879D01*
X165147125Y-84204878D01*
X165147122Y-84204878D01*
X164916382Y-84174501D01*
X164916377Y-84174500D01*
X164916372Y-84174500D01*
X164683628Y-84174500D01*
X164683622Y-84174500D01*
X164683617Y-84174501D01*
X164452877Y-84204878D01*
X164228052Y-84265120D01*
X164013039Y-84354180D01*
X164013023Y-84354188D01*
X163811475Y-84470553D01*
X163811459Y-84470564D01*
X163626820Y-84612242D01*
X163626813Y-84612248D01*
X163462248Y-84776813D01*
X163462242Y-84776820D01*
X163320564Y-84961459D01*
X163320553Y-84961475D01*
X163204188Y-85163023D01*
X163204180Y-85163039D01*
X163115120Y-85378052D01*
X163054878Y-85602877D01*
X163024501Y-85833617D01*
X163024500Y-85833634D01*
X161315713Y-85833634D01*
X161220292Y-85738213D01*
X161220288Y-85738210D01*
X161089185Y-85650609D01*
X161089172Y-85650602D01*
X160943501Y-85590264D01*
X160943489Y-85590261D01*
X160788845Y-85559500D01*
X160788842Y-85559500D01*
X160631158Y-85559500D01*
X160631155Y-85559500D01*
X160476510Y-85590261D01*
X160476498Y-85590264D01*
X160330827Y-85650602D01*
X160330814Y-85650609D01*
X160199711Y-85738210D01*
X160199707Y-85738213D01*
X160088213Y-85849707D01*
X160088210Y-85849711D01*
X160000609Y-85980814D01*
X160000602Y-85980827D01*
X159940264Y-86126498D01*
X159940261Y-86126510D01*
X159909500Y-86281153D01*
X156516610Y-86281153D01*
X156575690Y-86222073D01*
X156686760Y-86069199D01*
X156772547Y-85900832D01*
X156830940Y-85721118D01*
X156834737Y-85697143D01*
X156860500Y-85534486D01*
X156860500Y-85345513D01*
X156830940Y-85158881D01*
X156788202Y-85027348D01*
X156772547Y-84979168D01*
X156772545Y-84979165D01*
X156772545Y-84979163D01*
X156686759Y-84810800D01*
X156674045Y-84793301D01*
X156575690Y-84657927D01*
X156442073Y-84524310D01*
X156289199Y-84413240D01*
X156281551Y-84409343D01*
X156120836Y-84327454D01*
X155941118Y-84269059D01*
X155754486Y-84239500D01*
X155754481Y-84239500D01*
X155565519Y-84239500D01*
X155565514Y-84239500D01*
X155378881Y-84269059D01*
X155199163Y-84327454D01*
X155030800Y-84413240D01*
X154962783Y-84462658D01*
X154877927Y-84524310D01*
X154877925Y-84524312D01*
X154877924Y-84524312D01*
X154744312Y-84657924D01*
X154744312Y-84657925D01*
X154744310Y-84657927D01*
X154713743Y-84699999D01*
X154633240Y-84810800D01*
X154547454Y-84979163D01*
X154489059Y-85158881D01*
X154459500Y-85345513D01*
X152590500Y-85345513D01*
X152590499Y-84699999D01*
X152590499Y-83967129D01*
X152590499Y-83967128D01*
X152587341Y-83937753D01*
X152599747Y-83868995D01*
X152647358Y-83817858D01*
X152710631Y-83800500D01*
X159400229Y-83800500D01*
X159467268Y-83820185D01*
X159513023Y-83872989D01*
X159522967Y-83942147D01*
X159521846Y-83948691D01*
X159489500Y-84111304D01*
X159489500Y-84288695D01*
X159524103Y-84462658D01*
X159524106Y-84462667D01*
X159591983Y-84626540D01*
X159591990Y-84626553D01*
X159690535Y-84774034D01*
X159690538Y-84774038D01*
X159815961Y-84899461D01*
X159815965Y-84899464D01*
X159963446Y-84998009D01*
X159963459Y-84998016D01*
X160063038Y-85039262D01*
X160127334Y-85065894D01*
X160127336Y-85065894D01*
X160127341Y-85065896D01*
X160301304Y-85100499D01*
X160301307Y-85100500D01*
X160301309Y-85100500D01*
X162178693Y-85100500D01*
X162178694Y-85100499D01*
X162249048Y-85086505D01*
X162352658Y-85065896D01*
X162352661Y-85065894D01*
X162352666Y-85065894D01*
X162516547Y-84998013D01*
X162664035Y-84899464D01*
X162789464Y-84774035D01*
X162888013Y-84626547D01*
X162894493Y-84610904D01*
X162908362Y-84577419D01*
X162955894Y-84462666D01*
X162961225Y-84435869D01*
X162979663Y-84343171D01*
X162990500Y-84288691D01*
X162990500Y-84111309D01*
X162990500Y-84111306D01*
X162990499Y-84111304D01*
X162958154Y-83948691D01*
X162964381Y-83879100D01*
X163007244Y-83823922D01*
X163073134Y-83800678D01*
X163079771Y-83800500D01*
X169725500Y-83800500D01*
X169792539Y-83820185D01*
X169838294Y-83872989D01*
X169849500Y-83924500D01*
X169849500Y-100675500D01*
X169829815Y-100742539D01*
X169777011Y-100788294D01*
X169725500Y-100799500D01*
X163079771Y-100799500D01*
X163012732Y-100779815D01*
X162966977Y-100727011D01*
X162957033Y-100657853D01*
X162958154Y-100651309D01*
X162990499Y-100488695D01*
X162990500Y-100488693D01*
X162990500Y-100311306D01*
X162990499Y-100311304D01*
X162955896Y-100137341D01*
X162955893Y-100137332D01*
X162888016Y-99973459D01*
X162888009Y-99973446D01*
X162789464Y-99825965D01*
X162789461Y-99825961D01*
X162664038Y-99700538D01*
X162664034Y-99700535D01*
X162516553Y-99601990D01*
X162516540Y-99601983D01*
X162352667Y-99534106D01*
X162352658Y-99534103D01*
X162178694Y-99499500D01*
X162178691Y-99499500D01*
X160301309Y-99499500D01*
X160301306Y-99499500D01*
X160127341Y-99534103D01*
X160127332Y-99534106D01*
X159963459Y-99601983D01*
X159963446Y-99601990D01*
X159815965Y-99700535D01*
X159815961Y-99700538D01*
X159690538Y-99825961D01*
X159690535Y-99825965D01*
X159591990Y-99973446D01*
X159591983Y-99973459D01*
X159524106Y-100137332D01*
X159524103Y-100137341D01*
X159489500Y-100311304D01*
X159489500Y-100488695D01*
X159521846Y-100651309D01*
X159515619Y-100720900D01*
X159472756Y-100776078D01*
X159406866Y-100799322D01*
X159400229Y-100799500D01*
X152708857Y-100799500D01*
X152641818Y-100779815D01*
X152596063Y-100727011D01*
X152586209Y-100666228D01*
X152585564Y-100666194D01*
X152585500Y-100666194D01*
X152585500Y-100666190D01*
X152585322Y-100666181D01*
X152585500Y-100662864D01*
X152585500Y-100120623D01*
X152585499Y-99197129D01*
X152585498Y-99197123D01*
X152585497Y-99197116D01*
X152579091Y-99137517D01*
X152528796Y-99002669D01*
X152528795Y-99002668D01*
X152528793Y-99002664D01*
X152442547Y-98887455D01*
X152442544Y-98887452D01*
X152327335Y-98801206D01*
X152327328Y-98801202D01*
X152192482Y-98750908D01*
X152192483Y-98750908D01*
X152132883Y-98744501D01*
X152132881Y-98744500D01*
X152132873Y-98744500D01*
X152132864Y-98744500D01*
X150667129Y-98744500D01*
X150667123Y-98744501D01*
X150607516Y-98750908D01*
X150472671Y-98801202D01*
X150472664Y-98801206D01*
X150357455Y-98887452D01*
X150357452Y-98887455D01*
X150271206Y-99002664D01*
X150271202Y-99002671D01*
X150220908Y-99137517D01*
X150214501Y-99197116D01*
X150214501Y-99197123D01*
X150214500Y-99197135D01*
X150214500Y-99481080D01*
X150194815Y-99548119D01*
X150142011Y-99593874D01*
X150072853Y-99603818D01*
X150009297Y-99574793D01*
X149972569Y-99519398D01*
X149958180Y-99475115D01*
X149873499Y-99308918D01*
X149857144Y-99286408D01*
X149857143Y-99286408D01*
X149351127Y-99792423D01*
X149335245Y-99733147D01*
X149268102Y-99616853D01*
X149173147Y-99521898D01*
X149056853Y-99454755D01*
X148997574Y-99438871D01*
X149503590Y-98932855D01*
X149503590Y-98932854D01*
X149481077Y-98916498D01*
X149314884Y-98831819D01*
X149137484Y-98774178D01*
X148953261Y-98745000D01*
X148766739Y-98745000D01*
X148582515Y-98774178D01*
X148405115Y-98831819D01*
X148238927Y-98916495D01*
X148238923Y-98916498D01*
X148216408Y-98932854D01*
X148216408Y-98932856D01*
X148722425Y-99438871D01*
X148663147Y-99454755D01*
X148546853Y-99521898D01*
X148451898Y-99616853D01*
X148384755Y-99733147D01*
X148368871Y-99792424D01*
X147862855Y-99286408D01*
X147862854Y-99286408D01*
X147846498Y-99308923D01*
X147846495Y-99308927D01*
X147761819Y-99475113D01*
X147708194Y-99640155D01*
X147668756Y-99697830D01*
X147604397Y-99725028D01*
X147535551Y-99713113D01*
X147484075Y-99665869D01*
X147472332Y-99640154D01*
X147418647Y-99474928D01*
X147418645Y-99474925D01*
X147399310Y-99436976D01*
X147333931Y-99308662D01*
X147224249Y-99157698D01*
X147092302Y-99025751D01*
X146941338Y-98916069D01*
X146775074Y-98831354D01*
X146775071Y-98831352D01*
X146597608Y-98773691D01*
X146453759Y-98750908D01*
X146413301Y-98744500D01*
X146226699Y-98744500D01*
X146165264Y-98754230D01*
X146042393Y-98773691D01*
X146042390Y-98773691D01*
X145864928Y-98831352D01*
X145864925Y-98831354D01*
X145698661Y-98916069D01*
X145612531Y-98978646D01*
X145547698Y-99025751D01*
X145547696Y-99025753D01*
X145547695Y-99025753D01*
X145415753Y-99157695D01*
X145415753Y-99157696D01*
X145415751Y-99157698D01*
X145387103Y-99197129D01*
X145306069Y-99308661D01*
X145221354Y-99474925D01*
X145221352Y-99474928D01*
X145167931Y-99639343D01*
X145128493Y-99697019D01*
X145064135Y-99724217D01*
X144995288Y-99712302D01*
X144943813Y-99665058D01*
X144932069Y-99639343D01*
X144878647Y-99474928D01*
X144878645Y-99474925D01*
X144859310Y-99436976D01*
X144793931Y-99308662D01*
X144684249Y-99157698D01*
X144552302Y-99025751D01*
X144401338Y-98916069D01*
X144235074Y-98831354D01*
X144235071Y-98831352D01*
X144057608Y-98773691D01*
X143913759Y-98750908D01*
X143873301Y-98744500D01*
X143686699Y-98744500D01*
X143625264Y-98754230D01*
X143502393Y-98773691D01*
X143502390Y-98773691D01*
X143324928Y-98831352D01*
X143324925Y-98831354D01*
X143158661Y-98916069D01*
X143072531Y-98978646D01*
X143007698Y-99025751D01*
X143007696Y-99025753D01*
X143007695Y-99025753D01*
X142875753Y-99157695D01*
X142875753Y-99157696D01*
X142875751Y-99157698D01*
X142847103Y-99197129D01*
X142766069Y-99308661D01*
X142681354Y-99474925D01*
X142681352Y-99474928D01*
X142627931Y-99639343D01*
X142588493Y-99697019D01*
X142524135Y-99724217D01*
X142455288Y-99712302D01*
X142403813Y-99665058D01*
X142392069Y-99639343D01*
X142338647Y-99474928D01*
X142338645Y-99474925D01*
X142319310Y-99436976D01*
X142253931Y-99308662D01*
X142144249Y-99157698D01*
X142012302Y-99025751D01*
X141861338Y-98916069D01*
X141695074Y-98831354D01*
X141695071Y-98831352D01*
X141517608Y-98773691D01*
X141373759Y-98750908D01*
X141333301Y-98744500D01*
X141146699Y-98744500D01*
X141085264Y-98754230D01*
X140962393Y-98773691D01*
X140962390Y-98773691D01*
X140784928Y-98831352D01*
X140784925Y-98831354D01*
X140618661Y-98916069D01*
X140532531Y-98978646D01*
X140467698Y-99025751D01*
X140467696Y-99025753D01*
X140467695Y-99025753D01*
X140335753Y-99157695D01*
X140335753Y-99157696D01*
X140335751Y-99157698D01*
X140307103Y-99197129D01*
X140226069Y-99308661D01*
X140141354Y-99474925D01*
X140141352Y-99474928D01*
X140087931Y-99639343D01*
X140048493Y-99697019D01*
X139984135Y-99724217D01*
X139915288Y-99712302D01*
X139863813Y-99665058D01*
X139852069Y-99639343D01*
X139798647Y-99474928D01*
X139798645Y-99474925D01*
X139779310Y-99436976D01*
X139713931Y-99308662D01*
X139604249Y-99157698D01*
X139472302Y-99025751D01*
X139321338Y-98916069D01*
X139155074Y-98831354D01*
X139155071Y-98831352D01*
X138977608Y-98773691D01*
X138833759Y-98750908D01*
X138793301Y-98744500D01*
X138606699Y-98744500D01*
X138545264Y-98754230D01*
X138422393Y-98773691D01*
X138422390Y-98773691D01*
X138244928Y-98831352D01*
X138244925Y-98831354D01*
X138078661Y-98916069D01*
X137992531Y-98978646D01*
X137927698Y-99025751D01*
X137927696Y-99025753D01*
X137927695Y-99025753D01*
X137795753Y-99157695D01*
X137795753Y-99157696D01*
X137795751Y-99157698D01*
X137767103Y-99197129D01*
X137686069Y-99308661D01*
X137601354Y-99474925D01*
X137601352Y-99474928D01*
X137547931Y-99639343D01*
X137508493Y-99697019D01*
X137444135Y-99724217D01*
X137375288Y-99712302D01*
X137323813Y-99665058D01*
X137312069Y-99639343D01*
X137258647Y-99474928D01*
X137258645Y-99474925D01*
X137239310Y-99436976D01*
X137173931Y-99308662D01*
X137064249Y-99157698D01*
X136932302Y-99025751D01*
X136781338Y-98916069D01*
X136615074Y-98831354D01*
X136615071Y-98831352D01*
X136437608Y-98773691D01*
X136293759Y-98750908D01*
X136253301Y-98744500D01*
X136066699Y-98744500D01*
X136005264Y-98754230D01*
X135882393Y-98773691D01*
X135882390Y-98773691D01*
X135704928Y-98831352D01*
X135704925Y-98831354D01*
X135538661Y-98916069D01*
X135452531Y-98978646D01*
X135387698Y-99025751D01*
X135387696Y-99025753D01*
X135387695Y-99025753D01*
X135255753Y-99157695D01*
X135255753Y-99157696D01*
X135255751Y-99157698D01*
X135227103Y-99197129D01*
X135146069Y-99308661D01*
X135061354Y-99474925D01*
X135061352Y-99474928D01*
X135007931Y-99639343D01*
X134968493Y-99697019D01*
X134904135Y-99724217D01*
X134835288Y-99712302D01*
X134783813Y-99665058D01*
X134772069Y-99639343D01*
X134718647Y-99474928D01*
X134718645Y-99474925D01*
X134699310Y-99436976D01*
X134633931Y-99308662D01*
X134524249Y-99157698D01*
X134392302Y-99025751D01*
X134241338Y-98916069D01*
X134075074Y-98831354D01*
X134075071Y-98831352D01*
X133897608Y-98773691D01*
X133753759Y-98750908D01*
X133713301Y-98744500D01*
X133526699Y-98744500D01*
X133465264Y-98754230D01*
X133342393Y-98773691D01*
X133342390Y-98773691D01*
X133164928Y-98831352D01*
X133164925Y-98831354D01*
X132998661Y-98916069D01*
X132912531Y-98978646D01*
X132847698Y-99025751D01*
X132847696Y-99025753D01*
X132847695Y-99025753D01*
X132715753Y-99157695D01*
X132715753Y-99157696D01*
X132715751Y-99157698D01*
X132687103Y-99197129D01*
X132606069Y-99308661D01*
X132521354Y-99474925D01*
X132521352Y-99474928D01*
X132467931Y-99639343D01*
X132428493Y-99697019D01*
X132364135Y-99724217D01*
X132295288Y-99712302D01*
X132243813Y-99665058D01*
X132232069Y-99639343D01*
X132178647Y-99474928D01*
X132178645Y-99474925D01*
X132159310Y-99436976D01*
X132093931Y-99308662D01*
X131984249Y-99157698D01*
X131852302Y-99025751D01*
X131701338Y-98916069D01*
X131535074Y-98831354D01*
X131535071Y-98831352D01*
X131357608Y-98773691D01*
X131213759Y-98750908D01*
X131173301Y-98744500D01*
X130986699Y-98744500D01*
X130925264Y-98754230D01*
X130802393Y-98773691D01*
X130802390Y-98773691D01*
X130624928Y-98831352D01*
X130624925Y-98831354D01*
X130458661Y-98916069D01*
X130372531Y-98978646D01*
X130307698Y-99025751D01*
X130307696Y-99025753D01*
X130307695Y-99025753D01*
X130175753Y-99157695D01*
X130175753Y-99157696D01*
X130175751Y-99157698D01*
X130147103Y-99197129D01*
X130066069Y-99308661D01*
X129981354Y-99474925D01*
X129981352Y-99474928D01*
X129927931Y-99639343D01*
X129888493Y-99697019D01*
X129824135Y-99724217D01*
X129755288Y-99712302D01*
X129703813Y-99665058D01*
X129692069Y-99639343D01*
X129638647Y-99474928D01*
X129638645Y-99474925D01*
X129619310Y-99436976D01*
X129553931Y-99308662D01*
X129444249Y-99157698D01*
X129312302Y-99025751D01*
X129161338Y-98916069D01*
X128995074Y-98831354D01*
X128995071Y-98831352D01*
X128817608Y-98773691D01*
X128673759Y-98750908D01*
X128633301Y-98744500D01*
X128446699Y-98744500D01*
X128385264Y-98754230D01*
X128262393Y-98773691D01*
X128262390Y-98773691D01*
X128084928Y-98831352D01*
X128084925Y-98831354D01*
X127918661Y-98916069D01*
X127832531Y-98978646D01*
X127767698Y-99025751D01*
X127767696Y-99025753D01*
X127767695Y-99025753D01*
X127635753Y-99157695D01*
X127635753Y-99157696D01*
X127635751Y-99157698D01*
X127607103Y-99197129D01*
X127526069Y-99308661D01*
X127441354Y-99474925D01*
X127441352Y-99474928D01*
X127387931Y-99639343D01*
X127348493Y-99697019D01*
X127284135Y-99724217D01*
X127215288Y-99712302D01*
X127163813Y-99665058D01*
X127152069Y-99639343D01*
X127098647Y-99474928D01*
X127098645Y-99474925D01*
X127079310Y-99436976D01*
X127013931Y-99308662D01*
X126904249Y-99157698D01*
X126772302Y-99025751D01*
X126621338Y-98916069D01*
X126455074Y-98831354D01*
X126455071Y-98831352D01*
X126277608Y-98773691D01*
X126133759Y-98750908D01*
X126093301Y-98744500D01*
X125906699Y-98744500D01*
X125845264Y-98754230D01*
X125722393Y-98773691D01*
X125722390Y-98773691D01*
X125544928Y-98831352D01*
X125544925Y-98831354D01*
X125378661Y-98916069D01*
X125292531Y-98978646D01*
X125227698Y-99025751D01*
X125227696Y-99025753D01*
X125227695Y-99025753D01*
X125095753Y-99157695D01*
X125095753Y-99157696D01*
X125095751Y-99157698D01*
X125067103Y-99197129D01*
X124986069Y-99308661D01*
X124901354Y-99474925D01*
X124901352Y-99474928D01*
X124847931Y-99639343D01*
X124808493Y-99697019D01*
X124744135Y-99724217D01*
X124675288Y-99712302D01*
X124623813Y-99665058D01*
X124612069Y-99639343D01*
X124558647Y-99474928D01*
X124558645Y-99474925D01*
X124539310Y-99436976D01*
X124473931Y-99308662D01*
X124364249Y-99157698D01*
X124232302Y-99025751D01*
X124081338Y-98916069D01*
X123915074Y-98831354D01*
X123915071Y-98831352D01*
X123737608Y-98773691D01*
X123593759Y-98750908D01*
X123553301Y-98744500D01*
X123366699Y-98744500D01*
X123305264Y-98754230D01*
X123182393Y-98773691D01*
X123182390Y-98773691D01*
X123004928Y-98831352D01*
X123004925Y-98831354D01*
X122838661Y-98916069D01*
X122752531Y-98978646D01*
X122687698Y-99025751D01*
X122687696Y-99025753D01*
X122687695Y-99025753D01*
X122555753Y-99157695D01*
X122555753Y-99157696D01*
X122555751Y-99157698D01*
X122527103Y-99197129D01*
X122446069Y-99308661D01*
X122361354Y-99474925D01*
X122361352Y-99474928D01*
X122307931Y-99639343D01*
X122268493Y-99697019D01*
X122204135Y-99724217D01*
X122135288Y-99712302D01*
X122083813Y-99665058D01*
X122072069Y-99639343D01*
X122018647Y-99474928D01*
X122018645Y-99474925D01*
X121999310Y-99436976D01*
X121933931Y-99308662D01*
X121824249Y-99157698D01*
X121692302Y-99025751D01*
X121541338Y-98916069D01*
X121375074Y-98831354D01*
X121375071Y-98831352D01*
X121197608Y-98773691D01*
X121053759Y-98750908D01*
X121013301Y-98744500D01*
X120826699Y-98744500D01*
X120765264Y-98754230D01*
X120642393Y-98773691D01*
X120642390Y-98773691D01*
X120464928Y-98831352D01*
X120464925Y-98831354D01*
X120298661Y-98916069D01*
X120212531Y-98978646D01*
X120147698Y-99025751D01*
X120147696Y-99025753D01*
X120147695Y-99025753D01*
X120015753Y-99157695D01*
X120015753Y-99157696D01*
X120015751Y-99157698D01*
X119987103Y-99197129D01*
X119906069Y-99308661D01*
X119821354Y-99474925D01*
X119821352Y-99474928D01*
X119767931Y-99639343D01*
X119728493Y-99697019D01*
X119664135Y-99724217D01*
X119595288Y-99712302D01*
X119543813Y-99665058D01*
X119532069Y-99639343D01*
X119478647Y-99474928D01*
X119478645Y-99474925D01*
X119459310Y-99436976D01*
X119393931Y-99308662D01*
X119284249Y-99157698D01*
X119152302Y-99025751D01*
X119001338Y-98916069D01*
X118835074Y-98831354D01*
X118835071Y-98831352D01*
X118657608Y-98773691D01*
X118513759Y-98750908D01*
X118473301Y-98744500D01*
X118286699Y-98744500D01*
X118225264Y-98754230D01*
X118102393Y-98773691D01*
X118102390Y-98773691D01*
X117924928Y-98831352D01*
X117924925Y-98831354D01*
X117758661Y-98916069D01*
X117672531Y-98978646D01*
X117607698Y-99025751D01*
X117607696Y-99025753D01*
X117607695Y-99025753D01*
X117475753Y-99157695D01*
X117475753Y-99157696D01*
X117475751Y-99157698D01*
X117447103Y-99197129D01*
X117366069Y-99308661D01*
X117281354Y-99474925D01*
X117281352Y-99474928D01*
X117227931Y-99639343D01*
X117188493Y-99697019D01*
X117124135Y-99724217D01*
X117055288Y-99712302D01*
X117003813Y-99665058D01*
X116992069Y-99639343D01*
X116938647Y-99474928D01*
X116938645Y-99474925D01*
X116919310Y-99436976D01*
X116853931Y-99308662D01*
X116744249Y-99157698D01*
X116612302Y-99025751D01*
X116461338Y-98916069D01*
X116295074Y-98831354D01*
X116295071Y-98831352D01*
X116117608Y-98773691D01*
X115973759Y-98750908D01*
X115933301Y-98744500D01*
X115746699Y-98744500D01*
X115685264Y-98754230D01*
X115562393Y-98773691D01*
X115562390Y-98773691D01*
X115384928Y-98831352D01*
X115384925Y-98831354D01*
X115218661Y-98916069D01*
X115132531Y-98978646D01*
X115067698Y-99025751D01*
X115067696Y-99025753D01*
X115067695Y-99025753D01*
X114935753Y-99157695D01*
X114935753Y-99157696D01*
X114935751Y-99157698D01*
X114907103Y-99197129D01*
X114826069Y-99308661D01*
X114741354Y-99474925D01*
X114741352Y-99474928D01*
X114683691Y-99652390D01*
X114683691Y-99652393D01*
X114654500Y-99836699D01*
X114654500Y-100023300D01*
X114683691Y-100207606D01*
X114683691Y-100207609D01*
X114741352Y-100385071D01*
X114741354Y-100385074D01*
X114826071Y-100551342D01*
X114863323Y-100602614D01*
X114886804Y-100668420D01*
X114870979Y-100736474D01*
X114820874Y-100785169D01*
X114763006Y-100799500D01*
X112474500Y-100799500D01*
X112407461Y-100779815D01*
X112361706Y-100727011D01*
X112350500Y-100675500D01*
X112350500Y-87477135D01*
X113674500Y-87477135D01*
X113674500Y-89272870D01*
X113674501Y-89272876D01*
X113680908Y-89332483D01*
X113731202Y-89467328D01*
X113731206Y-89467335D01*
X113817452Y-89582544D01*
X113817455Y-89582547D01*
X113932664Y-89668793D01*
X113932671Y-89668797D01*
X114064082Y-89717810D01*
X114120016Y-89759681D01*
X114144433Y-89825145D01*
X114129582Y-89893418D01*
X114108431Y-89921673D01*
X113994889Y-90035215D01*
X113869951Y-90207179D01*
X113773444Y-90396585D01*
X113707753Y-90598760D01*
X113674500Y-90808712D01*
X113674500Y-90808713D01*
X113674500Y-91021287D01*
X113680365Y-91058314D01*
X113705618Y-91217761D01*
X113707754Y-91231243D01*
X113770491Y-91424328D01*
X113773444Y-91433414D01*
X113869951Y-91622820D01*
X113994890Y-91794786D01*
X114145213Y-91945109D01*
X114317182Y-92070050D01*
X114325946Y-92074516D01*
X114376742Y-92122491D01*
X114393536Y-92190312D01*
X114370998Y-92256447D01*
X114325946Y-92295484D01*
X114317182Y-92299949D01*
X114145213Y-92424890D01*
X113994890Y-92575213D01*
X113869951Y-92747179D01*
X113773444Y-92936585D01*
X113707753Y-93138760D01*
X113678387Y-93324172D01*
X113674500Y-93348713D01*
X113674500Y-93561287D01*
X113679376Y-93592073D01*
X113707602Y-93770288D01*
X113707754Y-93771243D01*
X113772138Y-93969397D01*
X113773444Y-93973414D01*
X113869951Y-94162820D01*
X113994890Y-94334786D01*
X114145213Y-94485109D01*
X114317182Y-94610050D01*
X114325946Y-94614516D01*
X114376742Y-94662491D01*
X114393536Y-94730312D01*
X114370998Y-94796447D01*
X114325946Y-94835484D01*
X114317182Y-94839949D01*
X114145213Y-94964890D01*
X113994890Y-95115213D01*
X113869951Y-95287179D01*
X113773444Y-95476585D01*
X113707753Y-95678760D01*
X113674500Y-95888713D01*
X113674500Y-96101286D01*
X113704363Y-96289837D01*
X113707754Y-96311243D01*
X113771200Y-96506510D01*
X113773444Y-96513414D01*
X113869951Y-96702820D01*
X113994890Y-96874786D01*
X114145213Y-97025109D01*
X114317179Y-97150048D01*
X114317181Y-97150049D01*
X114317184Y-97150051D01*
X114506588Y-97246557D01*
X114708757Y-97312246D01*
X114918713Y-97345500D01*
X114918714Y-97345500D01*
X115131286Y-97345500D01*
X115131287Y-97345500D01*
X115341243Y-97312246D01*
X115421549Y-97286153D01*
X144389500Y-97286153D01*
X144389500Y-97443846D01*
X144420261Y-97598489D01*
X144420264Y-97598501D01*
X144480602Y-97744172D01*
X144480609Y-97744185D01*
X144568210Y-97875288D01*
X144568213Y-97875292D01*
X144679707Y-97986786D01*
X144679711Y-97986789D01*
X144810814Y-98074390D01*
X144810827Y-98074397D01*
X144956498Y-98134735D01*
X144956503Y-98134737D01*
X145043873Y-98152116D01*
X145111153Y-98165499D01*
X145111156Y-98165500D01*
X145111158Y-98165500D01*
X145268844Y-98165500D01*
X145268845Y-98165499D01*
X145423497Y-98134737D01*
X145539414Y-98086723D01*
X145569172Y-98074397D01*
X145569172Y-98074396D01*
X145569179Y-98074394D01*
X145700289Y-97986789D01*
X145811789Y-97875289D01*
X145899394Y-97744179D01*
X145959737Y-97598497D01*
X145990500Y-97443842D01*
X145990500Y-97286158D01*
X145990500Y-97286155D01*
X145990499Y-97286153D01*
X145983366Y-97250292D01*
X145959737Y-97131503D01*
X145928065Y-97055039D01*
X145899397Y-96985827D01*
X145899390Y-96985814D01*
X145827324Y-96877961D01*
X148224880Y-96877961D01*
X148224880Y-96877962D01*
X148228429Y-96880334D01*
X148355813Y-96933097D01*
X148355825Y-96933100D01*
X148469691Y-96955750D01*
X148531602Y-96988135D01*
X148566176Y-97048850D01*
X148567473Y-97055039D01*
X148569500Y-97066112D01*
X148569500Y-97086144D01*
X148581073Y-97129337D01*
X148581976Y-97134267D01*
X148578832Y-97164229D01*
X148578115Y-97194352D01*
X148574690Y-97203702D01*
X148574685Y-97203755D01*
X148574659Y-97203786D01*
X148574565Y-97204045D01*
X148565263Y-97226502D01*
X148565260Y-97226511D01*
X148534500Y-97381153D01*
X148534500Y-97538846D01*
X148554913Y-97641469D01*
X148548686Y-97711060D01*
X148520979Y-97753340D01*
X148499531Y-97774788D01*
X148499526Y-97774794D01*
X148453388Y-97854706D01*
X148453387Y-97854709D01*
X148453386Y-97854711D01*
X148453386Y-97854712D01*
X148429500Y-97943856D01*
X148429500Y-98036144D01*
X148453119Y-98124293D01*
X148453387Y-98125290D01*
X148453388Y-98125293D01*
X148499526Y-98205205D01*
X148499529Y-98205209D01*
X148499531Y-98205212D01*
X148564788Y-98270469D01*
X148564791Y-98270470D01*
X148564794Y-98270473D01*
X148644706Y-98316611D01*
X148644707Y-98316611D01*
X148644712Y-98316614D01*
X148733856Y-98340500D01*
X148733858Y-98340500D01*
X148826142Y-98340500D01*
X148826144Y-98340500D01*
X148915288Y-98316614D01*
X148915292Y-98316612D01*
X148939086Y-98302874D01*
X148967998Y-98286180D01*
X149035898Y-98269707D01*
X149092000Y-98286180D01*
X149107397Y-98295069D01*
X149144709Y-98316613D01*
X149144711Y-98316613D01*
X149144712Y-98316614D01*
X149233856Y-98340500D01*
X149233858Y-98340500D01*
X149326142Y-98340500D01*
X149326144Y-98340500D01*
X149415288Y-98316614D01*
X149415292Y-98316612D01*
X149439086Y-98302874D01*
X149467998Y-98286180D01*
X149535898Y-98269707D01*
X149592000Y-98286180D01*
X149607397Y-98295069D01*
X149644709Y-98316613D01*
X149644711Y-98316613D01*
X149644712Y-98316614D01*
X149733856Y-98340500D01*
X149733858Y-98340500D01*
X149826142Y-98340500D01*
X149826144Y-98340500D01*
X149915288Y-98316614D01*
X149995212Y-98270469D01*
X150060469Y-98205212D01*
X150106614Y-98125288D01*
X150130500Y-98036144D01*
X150130500Y-97943856D01*
X150106614Y-97854712D01*
X150097215Y-97838433D01*
X150080740Y-97770536D01*
X150090039Y-97728980D01*
X150104737Y-97693497D01*
X150135500Y-97538842D01*
X150135500Y-97381158D01*
X150135500Y-97381155D01*
X150135499Y-97381153D01*
X150121792Y-97312244D01*
X150104737Y-97226503D01*
X150089362Y-97189387D01*
X150080313Y-97132117D01*
X150081211Y-97120808D01*
X150090500Y-97086144D01*
X150090500Y-97003859D01*
X150090889Y-96998962D01*
X150101673Y-96970728D01*
X150110185Y-96941741D01*
X150114012Y-96938424D01*
X150115820Y-96933692D01*
X150140157Y-96915769D01*
X150151279Y-96906131D01*
X150098005Y-96902322D01*
X150082336Y-96890592D01*
X150198305Y-96890592D01*
X150202238Y-96890342D01*
X150232147Y-96886042D01*
X150239241Y-96887988D01*
X150241810Y-96887825D01*
X150244888Y-96889537D01*
X150261952Y-96894219D01*
X150355813Y-96933097D01*
X150355823Y-96933100D01*
X150491053Y-96960000D01*
X150562576Y-96960000D01*
X150629615Y-96979685D01*
X150675370Y-97032489D01*
X150685314Y-97101647D01*
X150669962Y-97146002D01*
X150653386Y-97174709D01*
X150633135Y-97250289D01*
X150629500Y-97263856D01*
X150629500Y-97356144D01*
X150652999Y-97443844D01*
X150653387Y-97445290D01*
X150653388Y-97445293D01*
X150699526Y-97525205D01*
X150699533Y-97525214D01*
X150736138Y-97561819D01*
X150769623Y-97623142D01*
X150764639Y-97692834D01*
X150736138Y-97737181D01*
X150699533Y-97773785D01*
X150699526Y-97773794D01*
X150653388Y-97853706D01*
X150653387Y-97853709D01*
X150653386Y-97853711D01*
X150653386Y-97853712D01*
X150629500Y-97942856D01*
X150629500Y-98035144D01*
X150652674Y-98121632D01*
X150653387Y-98124290D01*
X150653388Y-98124293D01*
X150699526Y-98204205D01*
X150699529Y-98204209D01*
X150699531Y-98204212D01*
X150764788Y-98269469D01*
X150764791Y-98269470D01*
X150764794Y-98269473D01*
X150844706Y-98315611D01*
X150844707Y-98315611D01*
X150844712Y-98315614D01*
X150933856Y-98339500D01*
X150933858Y-98339500D01*
X151026142Y-98339500D01*
X151026144Y-98339500D01*
X151115288Y-98315614D01*
X151195212Y-98269469D01*
X151260469Y-98204212D01*
X151306614Y-98124288D01*
X151330500Y-98035144D01*
X151330500Y-97942856D01*
X151306614Y-97853712D01*
X151306611Y-97853706D01*
X151260473Y-97773794D01*
X151260470Y-97773791D01*
X151260469Y-97773788D01*
X151223862Y-97737181D01*
X151190377Y-97675858D01*
X151195361Y-97606166D01*
X151223862Y-97561819D01*
X151260469Y-97525212D01*
X151306614Y-97445288D01*
X151330500Y-97356144D01*
X151330500Y-97263856D01*
X151306614Y-97174712D01*
X151306611Y-97174706D01*
X151279474Y-97127704D01*
X151263000Y-97059804D01*
X151285852Y-96993777D01*
X151340772Y-96950586D01*
X151410326Y-96943944D01*
X151411052Y-96944086D01*
X151491053Y-96960000D01*
X151628946Y-96960000D01*
X151764176Y-96933100D01*
X151764186Y-96933097D01*
X151891570Y-96880334D01*
X151891572Y-96880332D01*
X151895119Y-96877961D01*
X151560001Y-96542842D01*
X151560000Y-96542842D01*
X151214622Y-96888219D01*
X151214432Y-96891678D01*
X151209502Y-96898494D01*
X151207934Y-96906759D01*
X151189332Y-96926381D01*
X151173486Y-96948292D01*
X151165653Y-96951361D01*
X151159866Y-96957466D01*
X151133609Y-96963916D01*
X151108432Y-96973782D01*
X151097378Y-96972818D01*
X151092014Y-96974136D01*
X151073191Y-96971843D01*
X151069295Y-96971062D01*
X151026144Y-96959500D01*
X151011594Y-96959500D01*
X150999532Y-96957083D01*
X150979049Y-96946331D01*
X150956856Y-96939815D01*
X150948698Y-96930400D01*
X150937667Y-96924610D01*
X150932283Y-96915125D01*
X150560001Y-96542842D01*
X150560000Y-96542842D01*
X150229020Y-96873821D01*
X150198305Y-96890592D01*
X150082336Y-96890592D01*
X150042072Y-96860450D01*
X150033953Y-96848142D01*
X150029929Y-96841173D01*
X150020469Y-96824788D01*
X149955212Y-96759531D01*
X149955209Y-96759529D01*
X149955205Y-96759526D01*
X149875293Y-96713388D01*
X149875290Y-96713387D01*
X149875289Y-96713386D01*
X149875288Y-96713386D01*
X149786144Y-96689500D01*
X149758020Y-96689500D01*
X149690981Y-96669815D01*
X149670338Y-96653181D01*
X149560000Y-96542842D01*
X149479660Y-96623182D01*
X149418337Y-96656666D01*
X149391979Y-96659500D01*
X149256158Y-96659500D01*
X149184592Y-96673735D01*
X149180447Y-96673364D01*
X149169234Y-96675802D01*
X148981813Y-96689185D01*
X148972981Y-96689500D01*
X148873854Y-96689500D01*
X148811140Y-96706304D01*
X148741290Y-96704641D01*
X148691366Y-96674210D01*
X148560000Y-96542842D01*
X148224880Y-96877961D01*
X145827324Y-96877961D01*
X145811789Y-96854711D01*
X145811786Y-96854707D01*
X145700292Y-96743213D01*
X145700288Y-96743210D01*
X145569185Y-96655609D01*
X145569172Y-96655602D01*
X145423501Y-96595264D01*
X145423489Y-96595261D01*
X145268845Y-96564500D01*
X145268842Y-96564500D01*
X145111158Y-96564500D01*
X145111155Y-96564500D01*
X144956510Y-96595261D01*
X144956498Y-96595264D01*
X144810827Y-96655602D01*
X144810814Y-96655609D01*
X144679711Y-96743210D01*
X144679707Y-96743213D01*
X144568213Y-96854707D01*
X144568210Y-96854711D01*
X144480609Y-96985814D01*
X144480602Y-96985827D01*
X144420264Y-97131498D01*
X144420261Y-97131510D01*
X144389500Y-97286153D01*
X115421549Y-97286153D01*
X115543412Y-97246557D01*
X115732816Y-97150051D01*
X115820777Y-97086144D01*
X115904786Y-97025109D01*
X115904788Y-97025106D01*
X115904792Y-97025104D01*
X116055104Y-96874792D01*
X116055106Y-96874788D01*
X116055109Y-96874786D01*
X116180048Y-96702820D01*
X116180047Y-96702820D01*
X116180051Y-96702816D01*
X116276557Y-96513412D01*
X116336494Y-96328946D01*
X147859999Y-96328946D01*
X147886899Y-96464176D01*
X147886901Y-96464182D01*
X147939668Y-96591573D01*
X147939668Y-96591574D01*
X147942037Y-96595119D01*
X148277157Y-96260000D01*
X148247320Y-96230163D01*
X148410000Y-96230163D01*
X148410000Y-96289837D01*
X148432836Y-96344968D01*
X148475032Y-96387164D01*
X148530163Y-96410000D01*
X148589837Y-96410000D01*
X148644968Y-96387164D01*
X148687164Y-96344968D01*
X148710000Y-96289837D01*
X148710000Y-96259999D01*
X148842842Y-96259999D01*
X149020625Y-96437782D01*
X149105430Y-96431726D01*
X149277157Y-96260000D01*
X149247320Y-96230163D01*
X149410000Y-96230163D01*
X149410000Y-96289837D01*
X149432836Y-96344968D01*
X149475032Y-96387164D01*
X149530163Y-96410000D01*
X149589837Y-96410000D01*
X149644968Y-96387164D01*
X149687164Y-96344968D01*
X149710000Y-96289837D01*
X149710000Y-96259999D01*
X149842842Y-96259999D01*
X150060000Y-96477157D01*
X150277157Y-96260001D01*
X150277157Y-96260000D01*
X150247320Y-96230163D01*
X150410000Y-96230163D01*
X150410000Y-96289837D01*
X150432836Y-96344968D01*
X150475032Y-96387164D01*
X150530163Y-96410000D01*
X150589837Y-96410000D01*
X150644968Y-96387164D01*
X150687164Y-96344968D01*
X150710000Y-96289837D01*
X150710000Y-96259999D01*
X150842842Y-96259999D01*
X151060000Y-96477157D01*
X151277157Y-96260001D01*
X151277157Y-96260000D01*
X151247320Y-96230163D01*
X151410000Y-96230163D01*
X151410000Y-96289837D01*
X151432836Y-96344968D01*
X151475032Y-96387164D01*
X151530163Y-96410000D01*
X151589837Y-96410000D01*
X151644968Y-96387164D01*
X151687164Y-96344968D01*
X151710000Y-96289837D01*
X151710000Y-96260000D01*
X151842842Y-96260000D01*
X152177961Y-96595119D01*
X152180332Y-96591572D01*
X152180334Y-96591570D01*
X152233097Y-96464186D01*
X152233100Y-96464176D01*
X152260000Y-96328946D01*
X152260000Y-96191053D01*
X152233100Y-96055823D01*
X152233097Y-96055813D01*
X152180334Y-95928429D01*
X152177961Y-95924880D01*
X151842842Y-96260000D01*
X151710000Y-96260000D01*
X151710000Y-96230163D01*
X151687164Y-96175032D01*
X151644968Y-96132836D01*
X151589837Y-96110000D01*
X151530163Y-96110000D01*
X151475032Y-96132836D01*
X151432836Y-96175032D01*
X151410000Y-96230163D01*
X151247320Y-96230163D01*
X151060000Y-96042842D01*
X150842842Y-96259999D01*
X150710000Y-96259999D01*
X150710000Y-96230163D01*
X150687164Y-96175032D01*
X150644968Y-96132836D01*
X150589837Y-96110000D01*
X150530163Y-96110000D01*
X150475032Y-96132836D01*
X150432836Y-96175032D01*
X150410000Y-96230163D01*
X150247320Y-96230163D01*
X150060000Y-96042842D01*
X149842842Y-96259999D01*
X149710000Y-96259999D01*
X149710000Y-96230163D01*
X149687164Y-96175032D01*
X149644968Y-96132836D01*
X149589837Y-96110000D01*
X149530163Y-96110000D01*
X149475032Y-96132836D01*
X149432836Y-96175032D01*
X149410000Y-96230163D01*
X149247320Y-96230163D01*
X149059999Y-96042842D01*
X148842842Y-96259999D01*
X148710000Y-96259999D01*
X148710000Y-96230163D01*
X148687164Y-96175032D01*
X148644968Y-96132836D01*
X148589837Y-96110000D01*
X148530163Y-96110000D01*
X148475032Y-96132836D01*
X148432836Y-96175032D01*
X148410000Y-96230163D01*
X148247320Y-96230163D01*
X147942037Y-95924880D01*
X147942036Y-95924880D01*
X147939667Y-95928427D01*
X147939666Y-95928428D01*
X147886902Y-96055813D01*
X147886899Y-96055823D01*
X147860000Y-96191053D01*
X147860000Y-96328946D01*
X147859999Y-96328946D01*
X116336494Y-96328946D01*
X116342246Y-96311243D01*
X116375500Y-96101287D01*
X116375500Y-95888713D01*
X116342246Y-95678757D01*
X116276557Y-95476588D01*
X116180051Y-95287184D01*
X116180049Y-95287181D01*
X116180048Y-95287179D01*
X116055109Y-95115213D01*
X115904786Y-94964890D01*
X115732820Y-94839951D01*
X115726608Y-94836786D01*
X115724054Y-94835485D01*
X115673259Y-94787512D01*
X115656463Y-94719692D01*
X115678999Y-94653556D01*
X115724054Y-94614515D01*
X115732816Y-94610051D01*
X115779488Y-94576142D01*
X115904786Y-94485109D01*
X115904788Y-94485106D01*
X115904792Y-94485104D01*
X116055104Y-94334792D01*
X116055106Y-94334788D01*
X116055109Y-94334786D01*
X116180048Y-94162820D01*
X116180047Y-94162820D01*
X116180051Y-94162816D01*
X116276557Y-93973412D01*
X116342246Y-93771243D01*
X116363164Y-93639172D01*
X116364038Y-93633653D01*
X137037000Y-93633653D01*
X137037000Y-93791346D01*
X137067761Y-93945989D01*
X137067764Y-93946001D01*
X137128102Y-94091672D01*
X137128109Y-94091685D01*
X137215710Y-94222788D01*
X137215713Y-94222792D01*
X137327207Y-94334286D01*
X137327211Y-94334289D01*
X137458314Y-94421890D01*
X137458327Y-94421897D01*
X137603998Y-94482235D01*
X137604003Y-94482237D01*
X137758653Y-94512999D01*
X137758656Y-94513000D01*
X137758658Y-94513000D01*
X137916344Y-94513000D01*
X137916345Y-94512999D01*
X138070997Y-94482237D01*
X138216679Y-94421894D01*
X138347789Y-94334289D01*
X138459289Y-94222789D01*
X138546894Y-94091679D01*
X138552621Y-94077854D01*
X138593178Y-93979938D01*
X138607237Y-93945997D01*
X138612771Y-93918174D01*
X138645154Y-93856265D01*
X138705869Y-93821690D01*
X138775639Y-93825429D01*
X138803280Y-93839264D01*
X138870821Y-93884394D01*
X138870823Y-93884395D01*
X138870827Y-93884397D01*
X138962931Y-93922547D01*
X139016503Y-93944737D01*
X139160661Y-93973412D01*
X139171153Y-93975499D01*
X139171156Y-93975500D01*
X139171158Y-93975500D01*
X139328843Y-93975500D01*
X139369072Y-93967497D01*
X139431494Y-93955081D01*
X139501084Y-93961308D01*
X139556262Y-94004170D01*
X139579507Y-94070060D01*
X139563440Y-94138057D01*
X139524576Y-94179800D01*
X139414711Y-94253210D01*
X139414707Y-94253213D01*
X139303213Y-94364707D01*
X139303210Y-94364711D01*
X139215609Y-94495814D01*
X139215602Y-94495827D01*
X139155264Y-94641498D01*
X139155261Y-94641510D01*
X139124500Y-94796153D01*
X139124500Y-94953846D01*
X139155261Y-95108489D01*
X139155264Y-95108501D01*
X139215602Y-95254172D01*
X139215609Y-95254185D01*
X139303210Y-95385288D01*
X139303213Y-95385292D01*
X139414707Y-95496786D01*
X139414711Y-95496789D01*
X139545814Y-95584390D01*
X139545827Y-95584397D01*
X139691498Y-95644735D01*
X139691503Y-95644737D01*
X139846153Y-95675499D01*
X139846156Y-95675500D01*
X139846158Y-95675500D01*
X140003844Y-95675500D01*
X140003845Y-95675499D01*
X140158497Y-95644737D01*
X140165018Y-95642036D01*
X148224880Y-95642036D01*
X148224880Y-95642037D01*
X148559999Y-95977156D01*
X148691366Y-95845789D01*
X148752689Y-95812304D01*
X148792416Y-95810193D01*
X148801912Y-95811222D01*
X148873856Y-95830500D01*
X148966144Y-95830500D01*
X148970044Y-95829454D01*
X148986348Y-95831223D01*
X149012610Y-95842129D01*
X149014661Y-95837639D01*
X149049366Y-95812614D01*
X149048249Y-95810679D01*
X149135205Y-95760473D01*
X149135204Y-95760473D01*
X149135212Y-95760469D01*
X149151580Y-95744100D01*
X149212900Y-95710615D01*
X149282592Y-95715598D01*
X149326942Y-95744100D01*
X149559999Y-95977157D01*
X149670340Y-95866818D01*
X149731664Y-95833334D01*
X149758021Y-95830500D01*
X149786142Y-95830500D01*
X149786144Y-95830500D01*
X149875288Y-95806614D01*
X149955212Y-95760469D01*
X150015572Y-95700109D01*
X150282952Y-95700109D01*
X150560000Y-95977157D01*
X150560001Y-95977157D01*
X150895119Y-95642037D01*
X150895119Y-95642036D01*
X151224880Y-95642036D01*
X151224880Y-95642037D01*
X151560000Y-95977157D01*
X151560001Y-95977157D01*
X151895119Y-95642037D01*
X151891574Y-95639668D01*
X151764182Y-95586901D01*
X151764176Y-95586899D01*
X151628946Y-95560000D01*
X151491054Y-95560000D01*
X151355823Y-95586899D01*
X151355813Y-95586902D01*
X151228428Y-95639666D01*
X151228427Y-95639667D01*
X151224880Y-95642036D01*
X150895119Y-95642036D01*
X150894123Y-95631921D01*
X150907143Y-95563275D01*
X150955209Y-95512566D01*
X150955377Y-95512467D01*
X150995212Y-95489469D01*
X151060469Y-95424212D01*
X151106614Y-95344288D01*
X151130500Y-95255144D01*
X151130500Y-95162856D01*
X151106614Y-95073712D01*
X151106580Y-95073653D01*
X152237000Y-95073653D01*
X152237000Y-95231346D01*
X152267761Y-95385989D01*
X152267764Y-95386001D01*
X152328102Y-95531672D01*
X152328109Y-95531685D01*
X152415710Y-95662788D01*
X152415713Y-95662792D01*
X152527207Y-95774286D01*
X152527211Y-95774289D01*
X152658314Y-95861890D01*
X152658327Y-95861897D01*
X152723068Y-95888713D01*
X152804003Y-95922237D01*
X152958658Y-95953000D01*
X152958663Y-95953000D01*
X152964718Y-95953597D01*
X152964517Y-95955630D01*
X153022598Y-95972685D01*
X153068353Y-96025489D01*
X153078297Y-96094647D01*
X153049272Y-96158203D01*
X153043240Y-96164681D01*
X152978213Y-96229707D01*
X152978210Y-96229711D01*
X152890609Y-96360814D01*
X152890602Y-96360827D01*
X152830264Y-96506498D01*
X152830261Y-96506510D01*
X152799500Y-96661153D01*
X152799500Y-96818846D01*
X152830261Y-96973489D01*
X152830264Y-96973501D01*
X152890602Y-97119172D01*
X152890609Y-97119185D01*
X152978210Y-97250288D01*
X152978213Y-97250292D01*
X153089707Y-97361786D01*
X153089711Y-97361789D01*
X153220814Y-97449390D01*
X153220827Y-97449397D01*
X153366498Y-97509735D01*
X153366503Y-97509737D01*
X153512823Y-97538842D01*
X153521153Y-97540499D01*
X153521156Y-97540500D01*
X153521158Y-97540500D01*
X153678844Y-97540500D01*
X153678845Y-97540499D01*
X153833497Y-97509737D01*
X153979179Y-97449394D01*
X154110289Y-97361789D01*
X154221789Y-97250289D01*
X154281262Y-97161280D01*
X154334874Y-97116476D01*
X154404198Y-97107769D01*
X154467226Y-97137923D01*
X154502295Y-97191853D01*
X154547454Y-97330836D01*
X154621834Y-97476813D01*
X154633240Y-97499199D01*
X154744310Y-97652073D01*
X154877927Y-97785690D01*
X155030801Y-97896760D01*
X155046567Y-97904793D01*
X155046569Y-97904794D01*
X155097366Y-97952767D01*
X155114163Y-98020588D01*
X155091627Y-98086723D01*
X155046578Y-98125762D01*
X155031061Y-98133669D01*
X155005670Y-98152116D01*
X155005669Y-98152116D01*
X155571415Y-98717861D01*
X155486306Y-98740667D01*
X155383694Y-98799910D01*
X155299910Y-98883694D01*
X155240667Y-98986306D01*
X155217861Y-99071414D01*
X154652116Y-98505669D01*
X154652116Y-98505670D01*
X154633669Y-98531060D01*
X154547914Y-98699362D01*
X154489548Y-98878997D01*
X154460000Y-99065552D01*
X154460000Y-99254447D01*
X154489548Y-99441002D01*
X154547914Y-99620637D01*
X154633666Y-99788933D01*
X154652116Y-99814328D01*
X155217861Y-99248584D01*
X155240667Y-99333694D01*
X155299910Y-99436306D01*
X155383694Y-99520090D01*
X155486306Y-99579333D01*
X155571415Y-99602138D01*
X155005669Y-100167882D01*
X155005670Y-100167883D01*
X155031059Y-100186329D01*
X155199362Y-100272085D01*
X155378997Y-100330451D01*
X155565553Y-100360000D01*
X155754447Y-100360000D01*
X155941002Y-100330451D01*
X156120637Y-100272085D01*
X156288937Y-100186331D01*
X156314328Y-100167883D01*
X156314328Y-100167882D01*
X155748584Y-99602138D01*
X155833694Y-99579333D01*
X155936306Y-99520090D01*
X156020090Y-99436306D01*
X156079333Y-99333694D01*
X156102138Y-99248584D01*
X156667882Y-99814328D01*
X156667883Y-99814328D01*
X156686331Y-99788937D01*
X156772085Y-99620637D01*
X156830451Y-99441002D01*
X156860000Y-99254447D01*
X156860000Y-99065552D01*
X156830451Y-98878997D01*
X156772085Y-98699362D01*
X156686329Y-98531059D01*
X156667883Y-98505670D01*
X156667882Y-98505669D01*
X156102137Y-99071414D01*
X156079333Y-98986306D01*
X156020090Y-98883694D01*
X155936306Y-98799910D01*
X155833694Y-98740667D01*
X155748584Y-98717861D01*
X156314328Y-98152116D01*
X156302604Y-98143598D01*
X156265963Y-98121632D01*
X156245052Y-98098966D01*
X156222630Y-98077789D01*
X156221571Y-98073515D01*
X156218586Y-98070279D01*
X156214346Y-98046153D01*
X159299500Y-98046153D01*
X159299500Y-98203846D01*
X159330261Y-98358489D01*
X159330264Y-98358501D01*
X159390602Y-98504172D01*
X159390609Y-98504185D01*
X159478210Y-98635288D01*
X159478213Y-98635292D01*
X159589707Y-98746786D01*
X159589711Y-98746789D01*
X159720814Y-98834390D01*
X159720827Y-98834397D01*
X159866498Y-98894735D01*
X159866503Y-98894737D01*
X160021153Y-98925499D01*
X160021156Y-98925500D01*
X160021158Y-98925500D01*
X160178844Y-98925500D01*
X160178845Y-98925499D01*
X160333497Y-98894737D01*
X160479179Y-98834394D01*
X160610289Y-98746789D01*
X160721789Y-98635289D01*
X160789713Y-98533634D01*
X163024500Y-98533634D01*
X163024500Y-98766365D01*
X163024501Y-98766382D01*
X163053454Y-98986306D01*
X163054879Y-98997126D01*
X163108471Y-99197135D01*
X163115120Y-99221947D01*
X163204180Y-99436960D01*
X163204188Y-99436976D01*
X163320553Y-99638524D01*
X163320564Y-99638540D01*
X163462242Y-99823179D01*
X163462248Y-99823186D01*
X163626813Y-99987751D01*
X163626819Y-99987756D01*
X163811468Y-100129442D01*
X163811475Y-100129446D01*
X164013023Y-100245811D01*
X164013039Y-100245819D01*
X164228052Y-100334879D01*
X164228054Y-100334879D01*
X164228060Y-100334882D01*
X164452874Y-100395121D01*
X164683628Y-100425500D01*
X164683635Y-100425500D01*
X164916365Y-100425500D01*
X164916372Y-100425500D01*
X165147126Y-100395121D01*
X165371940Y-100334882D01*
X165523547Y-100272085D01*
X165586960Y-100245819D01*
X165586963Y-100245817D01*
X165586969Y-100245815D01*
X165788532Y-100129442D01*
X165973181Y-99987756D01*
X166137756Y-99823181D01*
X166279442Y-99638532D01*
X166395815Y-99436969D01*
X166438593Y-99333694D01*
X166484879Y-99221947D01*
X166484878Y-99221947D01*
X166484882Y-99221940D01*
X166545121Y-98997126D01*
X166575500Y-98766372D01*
X166575500Y-98533628D01*
X166545121Y-98302874D01*
X166484882Y-98078060D01*
X166483362Y-98074390D01*
X166395819Y-97863039D01*
X166395811Y-97863023D01*
X166279446Y-97661475D01*
X166279442Y-97661468D01*
X166185351Y-97538846D01*
X166137757Y-97476820D01*
X166137751Y-97476813D01*
X165973186Y-97312248D01*
X165973179Y-97312242D01*
X165788540Y-97170564D01*
X165788538Y-97170562D01*
X165788532Y-97170558D01*
X165788527Y-97170555D01*
X165788524Y-97170553D01*
X165586976Y-97054188D01*
X165586960Y-97054180D01*
X165371947Y-96965120D01*
X165369562Y-96964481D01*
X165147126Y-96904879D01*
X165147125Y-96904878D01*
X165147122Y-96904878D01*
X164916382Y-96874501D01*
X164916377Y-96874500D01*
X164916372Y-96874500D01*
X164683628Y-96874500D01*
X164683622Y-96874500D01*
X164683617Y-96874501D01*
X164452877Y-96904878D01*
X164228052Y-96965120D01*
X164013039Y-97054180D01*
X164013023Y-97054188D01*
X163811475Y-97170553D01*
X163811459Y-97170564D01*
X163626820Y-97312242D01*
X163626813Y-97312248D01*
X163462248Y-97476813D01*
X163462242Y-97476820D01*
X163320564Y-97661459D01*
X163320553Y-97661475D01*
X163204188Y-97863023D01*
X163204180Y-97863039D01*
X163115120Y-98078052D01*
X163054878Y-98302877D01*
X163024501Y-98533617D01*
X163024500Y-98533634D01*
X160789713Y-98533634D01*
X160809394Y-98504179D01*
X160869737Y-98358497D01*
X160900500Y-98203842D01*
X160900500Y-98046158D01*
X160900500Y-98046155D01*
X160900499Y-98046153D01*
X160892472Y-98005800D01*
X160869737Y-97891503D01*
X160854498Y-97854712D01*
X160809397Y-97745827D01*
X160809390Y-97745814D01*
X160721789Y-97614711D01*
X160721786Y-97614707D01*
X160610292Y-97503213D01*
X160610288Y-97503210D01*
X160479185Y-97415609D01*
X160479172Y-97415602D01*
X160333501Y-97355264D01*
X160333489Y-97355261D01*
X160178845Y-97324500D01*
X160178842Y-97324500D01*
X160021158Y-97324500D01*
X160021155Y-97324500D01*
X159866510Y-97355261D01*
X159866498Y-97355264D01*
X159720827Y-97415602D01*
X159720814Y-97415609D01*
X159589711Y-97503210D01*
X159589707Y-97503213D01*
X159478213Y-97614707D01*
X159478210Y-97614711D01*
X159390609Y-97745814D01*
X159390602Y-97745827D01*
X159330264Y-97891498D01*
X159330261Y-97891510D01*
X159299500Y-98046153D01*
X156214346Y-98046153D01*
X156213247Y-98039899D01*
X156205836Y-98009967D01*
X156207256Y-98005800D01*
X156206494Y-98001463D01*
X156218427Y-97973019D01*
X156228375Y-97943833D01*
X156231986Y-97940703D01*
X156233526Y-97937035D01*
X156246579Y-97928059D01*
X156273430Y-97904794D01*
X156289199Y-97896760D01*
X156442073Y-97785690D01*
X156575690Y-97652073D01*
X156686760Y-97499199D01*
X156772547Y-97330832D01*
X156830940Y-97151118D01*
X156833609Y-97134267D01*
X156860500Y-96964486D01*
X156860500Y-96775513D01*
X156830940Y-96588881D01*
X156793330Y-96473131D01*
X156772547Y-96409168D01*
X156772545Y-96409165D01*
X156772545Y-96409163D01*
X156711745Y-96289837D01*
X156686760Y-96240801D01*
X156575690Y-96087927D01*
X156442073Y-95954310D01*
X156289199Y-95843240D01*
X156287019Y-95842129D01*
X156120836Y-95757454D01*
X155941118Y-95699059D01*
X155754486Y-95669500D01*
X155754481Y-95669500D01*
X155565519Y-95669500D01*
X155565514Y-95669500D01*
X155378881Y-95699059D01*
X155199163Y-95757454D01*
X155030800Y-95843240D01*
X154998083Y-95867011D01*
X154877927Y-95954310D01*
X154877925Y-95954312D01*
X154877924Y-95954312D01*
X154744312Y-96087924D01*
X154744312Y-96087925D01*
X154744310Y-96087927D01*
X154722306Y-96118213D01*
X154633240Y-96240800D01*
X154549301Y-96405540D01*
X154501326Y-96456336D01*
X154433505Y-96473131D01*
X154367370Y-96450593D01*
X154324255Y-96396698D01*
X154309395Y-96360824D01*
X154309394Y-96360821D01*
X154309392Y-96360818D01*
X154309390Y-96360814D01*
X154221789Y-96229711D01*
X154221786Y-96229707D01*
X154110292Y-96118213D01*
X154110288Y-96118210D01*
X153979185Y-96030609D01*
X153979172Y-96030602D01*
X153833501Y-95970264D01*
X153833489Y-95970261D01*
X153678846Y-95939500D01*
X153672782Y-95938903D01*
X153672982Y-95936869D01*
X153614902Y-95919815D01*
X153569147Y-95867011D01*
X153559203Y-95797853D01*
X153588228Y-95734297D01*
X153594260Y-95727819D01*
X153659286Y-95662792D01*
X153659289Y-95662789D01*
X153746894Y-95531679D01*
X153748184Y-95528566D01*
X153769713Y-95476588D01*
X153807237Y-95385997D01*
X153838000Y-95231342D01*
X153838000Y-95182834D01*
X153857685Y-95115795D01*
X153910489Y-95070040D01*
X153937809Y-95061217D01*
X154014606Y-95045940D01*
X154083497Y-95032237D01*
X154229179Y-94971894D01*
X154360289Y-94884289D01*
X154471789Y-94772789D01*
X154559394Y-94641679D01*
X154619737Y-94495997D01*
X154650500Y-94341342D01*
X154650500Y-94183658D01*
X154650500Y-94183655D01*
X154650499Y-94183653D01*
X154641429Y-94138057D01*
X154619737Y-94029003D01*
X154597575Y-93975499D01*
X154559397Y-93883327D01*
X154559390Y-93883314D01*
X154471789Y-93752211D01*
X154471786Y-93752207D01*
X154360292Y-93640713D01*
X154360288Y-93640710D01*
X154229185Y-93553109D01*
X154229172Y-93553102D01*
X154083501Y-93492764D01*
X154083489Y-93492761D01*
X153928845Y-93462000D01*
X153928842Y-93462000D01*
X153771158Y-93462000D01*
X153771155Y-93462000D01*
X153616510Y-93492761D01*
X153616498Y-93492764D01*
X153470827Y-93553102D01*
X153470814Y-93553109D01*
X153339711Y-93640710D01*
X153339707Y-93640713D01*
X153228213Y-93752207D01*
X153228210Y-93752211D01*
X153140609Y-93883314D01*
X153140602Y-93883327D01*
X153080264Y-94028998D01*
X153080261Y-94029010D01*
X153049500Y-94183653D01*
X153049500Y-94232165D01*
X153029815Y-94299204D01*
X152977011Y-94344959D01*
X152949692Y-94353782D01*
X152804008Y-94382761D01*
X152803998Y-94382764D01*
X152658327Y-94443102D01*
X152658314Y-94443109D01*
X152527211Y-94530710D01*
X152527207Y-94530713D01*
X152415713Y-94642207D01*
X152415710Y-94642211D01*
X152328109Y-94773314D01*
X152328102Y-94773327D01*
X152267764Y-94918998D01*
X152267761Y-94919010D01*
X152237000Y-95073653D01*
X151106580Y-95073653D01*
X151060469Y-94993788D01*
X151013551Y-94946870D01*
X151005916Y-94934454D01*
X151000414Y-94914240D01*
X150990377Y-94895858D01*
X150991424Y-94881209D01*
X150987567Y-94867036D01*
X150993866Y-94847058D01*
X150995361Y-94826166D01*
X151005362Y-94810603D01*
X151008580Y-94800401D01*
X151015760Y-94794424D01*
X151023862Y-94781819D01*
X151032893Y-94772788D01*
X151060469Y-94745212D01*
X151106614Y-94665288D01*
X151130500Y-94576144D01*
X151130500Y-94483856D01*
X151106614Y-94394712D01*
X151106611Y-94394706D01*
X151060473Y-94314794D01*
X151060470Y-94314791D01*
X151060469Y-94314788D01*
X150995212Y-94249531D01*
X150995209Y-94249529D01*
X150995205Y-94249526D01*
X150915293Y-94203388D01*
X150915290Y-94203387D01*
X150915289Y-94203386D01*
X150915288Y-94203386D01*
X150826144Y-94179500D01*
X150733856Y-94179500D01*
X150644712Y-94203386D01*
X150644711Y-94203386D01*
X150644709Y-94203387D01*
X150644706Y-94203388D01*
X150564794Y-94249526D01*
X150564785Y-94249533D01*
X150499533Y-94314785D01*
X150499526Y-94314794D01*
X150453388Y-94394706D01*
X150453387Y-94394709D01*
X150453386Y-94394711D01*
X150453386Y-94394712D01*
X150429500Y-94483856D01*
X150429500Y-94576144D01*
X150450242Y-94653556D01*
X150453387Y-94665290D01*
X150453388Y-94665293D01*
X150499526Y-94745205D01*
X150499533Y-94745214D01*
X150536138Y-94781819D01*
X150569623Y-94843142D01*
X150564639Y-94912834D01*
X150536138Y-94957181D01*
X150499533Y-94993785D01*
X150499526Y-94993794D01*
X150453388Y-95073706D01*
X150453387Y-95073709D01*
X150453386Y-95073711D01*
X150453386Y-95073712D01*
X150444064Y-95108501D01*
X150429500Y-95162856D01*
X150429500Y-95255143D01*
X150453386Y-95344290D01*
X150465101Y-95364579D01*
X150477469Y-95386001D01*
X150482457Y-95394639D01*
X150498931Y-95462539D01*
X150476080Y-95528566D01*
X150421159Y-95571758D01*
X150399264Y-95578258D01*
X150355822Y-95586899D01*
X150355818Y-95586901D01*
X150314534Y-95604000D01*
X150282952Y-95700109D01*
X150015572Y-95700109D01*
X150020469Y-95695212D01*
X150066614Y-95615288D01*
X150090500Y-95526144D01*
X150090500Y-95433856D01*
X150066614Y-95344712D01*
X150066611Y-95344706D01*
X150020473Y-95264794D01*
X150020470Y-95264791D01*
X150020469Y-95264788D01*
X149955212Y-95199531D01*
X149955209Y-95199529D01*
X149955205Y-95199526D01*
X149875293Y-95153388D01*
X149875290Y-95153387D01*
X149875289Y-95153386D01*
X149875288Y-95153386D01*
X149786144Y-95129500D01*
X149693856Y-95129500D01*
X149604712Y-95153386D01*
X149604711Y-95153386D01*
X149604709Y-95153387D01*
X149604706Y-95153388D01*
X149524794Y-95199526D01*
X149524785Y-95199533D01*
X149459533Y-95264785D01*
X149459529Y-95264791D01*
X149437386Y-95303143D01*
X149386818Y-95351357D01*
X149318211Y-95364579D01*
X149253347Y-95338610D01*
X149222614Y-95303143D01*
X149215891Y-95291500D01*
X149200469Y-95264788D01*
X149135212Y-95199531D01*
X149135209Y-95199529D01*
X149135205Y-95199526D01*
X149055293Y-95153388D01*
X149055290Y-95153387D01*
X149055289Y-95153386D01*
X149055288Y-95153386D01*
X148966144Y-95129500D01*
X148873856Y-95129500D01*
X148784712Y-95153386D01*
X148784711Y-95153386D01*
X148784709Y-95153387D01*
X148784706Y-95153388D01*
X148704794Y-95199526D01*
X148704785Y-95199533D01*
X148639533Y-95264785D01*
X148639526Y-95264794D01*
X148593388Y-95344706D01*
X148593387Y-95344709D01*
X148593386Y-95344711D01*
X148593386Y-95344712D01*
X148576115Y-95409168D01*
X148569500Y-95433856D01*
X148569500Y-95442632D01*
X148549815Y-95509671D01*
X148497011Y-95555426D01*
X148469692Y-95564249D01*
X148355823Y-95586899D01*
X148355813Y-95586902D01*
X148228428Y-95639666D01*
X148228427Y-95639667D01*
X148224880Y-95642036D01*
X140165018Y-95642036D01*
X140293344Y-95588882D01*
X140304172Y-95584397D01*
X140304172Y-95584396D01*
X140304179Y-95584394D01*
X140304184Y-95584390D01*
X140304187Y-95584389D01*
X140377183Y-95535614D01*
X140435289Y-95496789D01*
X140546789Y-95385289D01*
X140634394Y-95254179D01*
X140643853Y-95231344D01*
X140672221Y-95162856D01*
X140694737Y-95108497D01*
X140725500Y-94953842D01*
X140725500Y-94796158D01*
X140725500Y-94796155D01*
X140725499Y-94796153D01*
X140716256Y-94749684D01*
X140694737Y-94641503D01*
X140681708Y-94610048D01*
X140634397Y-94495827D01*
X140634390Y-94495814D01*
X140546789Y-94364711D01*
X140546786Y-94364707D01*
X140435292Y-94253213D01*
X140435288Y-94253210D01*
X140405293Y-94233168D01*
X140304185Y-94165609D01*
X140304172Y-94165602D01*
X140233075Y-94136153D01*
X145929500Y-94136153D01*
X145929500Y-94293846D01*
X145960261Y-94448489D01*
X145960264Y-94448501D01*
X146020602Y-94594172D01*
X146020609Y-94594185D01*
X146108210Y-94725288D01*
X146108213Y-94725292D01*
X146219707Y-94836786D01*
X146219711Y-94836789D01*
X146350814Y-94924390D01*
X146350827Y-94924397D01*
X146448602Y-94964896D01*
X146496503Y-94984737D01*
X146651153Y-95015499D01*
X146651156Y-95015500D01*
X146651158Y-95015500D01*
X146808844Y-95015500D01*
X146808845Y-95015499D01*
X146963497Y-94984737D01*
X147109179Y-94924394D01*
X147240289Y-94836789D01*
X147351789Y-94725289D01*
X147439394Y-94594179D01*
X147485091Y-94483856D01*
X148429500Y-94483856D01*
X148429500Y-94576144D01*
X148450242Y-94653556D01*
X148453387Y-94665290D01*
X148453388Y-94665293D01*
X148499526Y-94745205D01*
X148499529Y-94745209D01*
X148499531Y-94745212D01*
X148564788Y-94810469D01*
X148564791Y-94810470D01*
X148564794Y-94810473D01*
X148644706Y-94856611D01*
X148644707Y-94856611D01*
X148644712Y-94856614D01*
X148733856Y-94880500D01*
X148733858Y-94880500D01*
X148826142Y-94880500D01*
X148826144Y-94880500D01*
X148915288Y-94856614D01*
X148915292Y-94856612D01*
X148938622Y-94843142D01*
X148967998Y-94826180D01*
X149035898Y-94809707D01*
X149092000Y-94826180D01*
X149107397Y-94835069D01*
X149144709Y-94856613D01*
X149144711Y-94856613D01*
X149144712Y-94856614D01*
X149233856Y-94880500D01*
X149233858Y-94880500D01*
X149326142Y-94880500D01*
X149326144Y-94880500D01*
X149415288Y-94856614D01*
X149415292Y-94856612D01*
X149438622Y-94843142D01*
X149467998Y-94826180D01*
X149535898Y-94809707D01*
X149592000Y-94826180D01*
X149607397Y-94835069D01*
X149644709Y-94856613D01*
X149644711Y-94856613D01*
X149644712Y-94856614D01*
X149733856Y-94880500D01*
X149733858Y-94880500D01*
X149826142Y-94880500D01*
X149826144Y-94880500D01*
X149915288Y-94856614D01*
X149995212Y-94810469D01*
X150060469Y-94745212D01*
X150106614Y-94665288D01*
X150130500Y-94576144D01*
X150130500Y-94483856D01*
X150106614Y-94394712D01*
X150106611Y-94394706D01*
X150060473Y-94314794D01*
X150060470Y-94314791D01*
X150060469Y-94314788D01*
X149995212Y-94249531D01*
X149995209Y-94249529D01*
X149995205Y-94249526D01*
X149915293Y-94203388D01*
X149915290Y-94203387D01*
X149915289Y-94203386D01*
X149915288Y-94203386D01*
X149826144Y-94179500D01*
X149733856Y-94179500D01*
X149644712Y-94203386D01*
X149644711Y-94203386D01*
X149644709Y-94203387D01*
X149644708Y-94203387D01*
X149592000Y-94233819D01*
X149524100Y-94250292D01*
X149468000Y-94233819D01*
X149415290Y-94203387D01*
X149415289Y-94203386D01*
X149415288Y-94203386D01*
X149326144Y-94179500D01*
X149233856Y-94179500D01*
X149144712Y-94203386D01*
X149144711Y-94203386D01*
X149144709Y-94203387D01*
X149144708Y-94203387D01*
X149092000Y-94233819D01*
X149024100Y-94250292D01*
X148968000Y-94233819D01*
X148915290Y-94203387D01*
X148915289Y-94203386D01*
X148915288Y-94203386D01*
X148826144Y-94179500D01*
X148733856Y-94179500D01*
X148644712Y-94203386D01*
X148644711Y-94203386D01*
X148644709Y-94203387D01*
X148644706Y-94203388D01*
X148564794Y-94249526D01*
X148564785Y-94249533D01*
X148499533Y-94314785D01*
X148499526Y-94314794D01*
X148453388Y-94394706D01*
X148453387Y-94394709D01*
X148453386Y-94394711D01*
X148453386Y-94394712D01*
X148429500Y-94483856D01*
X147485091Y-94483856D01*
X147499737Y-94448497D01*
X147499739Y-94448489D01*
X147499740Y-94448485D01*
X147526332Y-94314794D01*
X147530500Y-94293842D01*
X147530500Y-94136158D01*
X147530500Y-94136155D01*
X147530499Y-94136153D01*
X147499738Y-93981507D01*
X147499735Y-93981498D01*
X147439397Y-93835827D01*
X147439390Y-93835814D01*
X147351789Y-93704711D01*
X147351786Y-93704707D01*
X147240292Y-93593213D01*
X147240288Y-93593210D01*
X147109185Y-93505609D01*
X147109172Y-93505602D01*
X146963501Y-93445264D01*
X146963489Y-93445261D01*
X146808845Y-93414500D01*
X146808842Y-93414500D01*
X146651158Y-93414500D01*
X146651155Y-93414500D01*
X146496510Y-93445261D01*
X146496498Y-93445264D01*
X146350827Y-93505602D01*
X146350814Y-93505609D01*
X146219711Y-93593210D01*
X146219707Y-93593213D01*
X146108213Y-93704707D01*
X146108210Y-93704711D01*
X146020609Y-93835814D01*
X146020602Y-93835827D01*
X145960264Y-93981498D01*
X145960262Y-93981507D01*
X145929500Y-94136153D01*
X140233075Y-94136153D01*
X140158501Y-94105264D01*
X140158489Y-94105261D01*
X140003845Y-94074500D01*
X140003842Y-94074500D01*
X139846158Y-94074500D01*
X139846153Y-94074500D01*
X139743505Y-94094918D01*
X139673913Y-94088691D01*
X139618736Y-94045828D01*
X139595492Y-93979938D01*
X139611560Y-93911941D01*
X139650424Y-93870199D01*
X139724605Y-93820632D01*
X139760289Y-93796789D01*
X139871789Y-93685289D01*
X139959394Y-93554179D01*
X139959839Y-93553106D01*
X139990535Y-93478998D01*
X140019737Y-93408497D01*
X140050500Y-93253842D01*
X140050500Y-93096158D01*
X140050500Y-93096155D01*
X140050499Y-93096153D01*
X140049417Y-93090713D01*
X140019737Y-92941503D01*
X139988526Y-92866153D01*
X141444500Y-92866153D01*
X141444500Y-93023846D01*
X141475261Y-93178489D01*
X141475264Y-93178501D01*
X141535602Y-93324172D01*
X141535609Y-93324185D01*
X141623210Y-93455288D01*
X141623213Y-93455292D01*
X141734707Y-93566786D01*
X141734711Y-93566789D01*
X141865814Y-93654390D01*
X141865827Y-93654397D01*
X141987288Y-93704707D01*
X142011503Y-93714737D01*
X142166153Y-93745499D01*
X142166156Y-93745500D01*
X142166158Y-93745500D01*
X142323844Y-93745500D01*
X142323845Y-93745499D01*
X142478497Y-93714737D01*
X142619013Y-93656534D01*
X142624172Y-93654397D01*
X142624172Y-93654396D01*
X142624179Y-93654394D01*
X142755289Y-93566789D01*
X142866789Y-93455289D01*
X142954394Y-93324179D01*
X143013637Y-93181153D01*
X151409500Y-93181153D01*
X151409500Y-93338846D01*
X151440261Y-93493489D01*
X151440264Y-93493501D01*
X151500602Y-93639172D01*
X151500609Y-93639185D01*
X151588210Y-93770288D01*
X151588213Y-93770292D01*
X151699707Y-93881786D01*
X151699711Y-93881789D01*
X151830814Y-93969390D01*
X151830827Y-93969397D01*
X151914778Y-94004170D01*
X151976503Y-94029737D01*
X152131153Y-94060499D01*
X152131156Y-94060500D01*
X152131158Y-94060500D01*
X152288844Y-94060500D01*
X152288845Y-94060499D01*
X152443497Y-94029737D01*
X152589179Y-93969394D01*
X152720289Y-93881789D01*
X152831789Y-93770289D01*
X152919394Y-93639179D01*
X152979737Y-93493497D01*
X153010500Y-93338842D01*
X153010500Y-93181158D01*
X153010500Y-93181155D01*
X153010499Y-93181153D01*
X152992509Y-93090711D01*
X152979737Y-93026503D01*
X152979735Y-93026498D01*
X152919397Y-92880827D01*
X152919390Y-92880814D01*
X152831789Y-92749711D01*
X152831786Y-92749707D01*
X152720292Y-92638213D01*
X152720288Y-92638210D01*
X152589185Y-92550609D01*
X152589172Y-92550602D01*
X152443501Y-92490264D01*
X152443489Y-92490261D01*
X152288845Y-92459500D01*
X152288842Y-92459500D01*
X152131158Y-92459500D01*
X152131155Y-92459500D01*
X151976510Y-92490261D01*
X151976498Y-92490264D01*
X151830827Y-92550602D01*
X151830814Y-92550609D01*
X151699711Y-92638210D01*
X151699707Y-92638213D01*
X151588213Y-92749707D01*
X151588210Y-92749711D01*
X151500609Y-92880814D01*
X151500602Y-92880827D01*
X151440264Y-93026498D01*
X151440261Y-93026510D01*
X151409500Y-93181153D01*
X143013637Y-93181153D01*
X143014737Y-93178497D01*
X143016509Y-93169585D01*
X143020232Y-93150874D01*
X143020232Y-93150873D01*
X143040709Y-93047927D01*
X143045500Y-93023842D01*
X143045500Y-92866158D01*
X143045500Y-92866155D01*
X143045499Y-92866153D01*
X143036194Y-92819376D01*
X143014737Y-92711503D01*
X142991568Y-92655568D01*
X142954397Y-92565827D01*
X142954390Y-92565814D01*
X142866789Y-92434711D01*
X142866786Y-92434707D01*
X142750984Y-92318905D01*
X142717499Y-92257582D01*
X142722483Y-92187890D01*
X142764355Y-92131957D01*
X142769774Y-92128122D01*
X142855259Y-92071002D01*
X142872789Y-92059289D01*
X142984289Y-91947789D01*
X143071894Y-91816679D01*
X143132237Y-91670997D01*
X143163000Y-91516342D01*
X143163000Y-91358658D01*
X143163000Y-91358655D01*
X143162999Y-91358653D01*
X143145218Y-91269257D01*
X143141617Y-91251153D01*
X151549500Y-91251153D01*
X151549500Y-91408846D01*
X151580261Y-91563489D01*
X151580264Y-91563501D01*
X151640602Y-91709172D01*
X151640609Y-91709185D01*
X151728210Y-91840288D01*
X151728213Y-91840292D01*
X151839707Y-91951786D01*
X151839711Y-91951789D01*
X151970814Y-92039390D01*
X151970827Y-92039397D01*
X152116498Y-92099735D01*
X152116503Y-92099737D01*
X152243091Y-92124917D01*
X152271153Y-92130499D01*
X152271156Y-92130500D01*
X152271158Y-92130500D01*
X152428844Y-92130500D01*
X152428845Y-92130499D01*
X152583497Y-92099737D01*
X152729179Y-92039394D01*
X152860289Y-91951789D01*
X152971789Y-91840289D01*
X153059394Y-91709179D01*
X153119737Y-91563497D01*
X153150500Y-91408842D01*
X153150500Y-91251158D01*
X153150500Y-91251155D01*
X153150499Y-91251153D01*
X153142204Y-91209451D01*
X153119737Y-91096503D01*
X153088582Y-91021287D01*
X153059397Y-90950827D01*
X153059390Y-90950814D01*
X152971789Y-90819711D01*
X152971786Y-90819707D01*
X152860292Y-90708213D01*
X152860288Y-90708210D01*
X152729185Y-90620609D01*
X152729172Y-90620602D01*
X152583501Y-90560264D01*
X152583489Y-90560261D01*
X152428845Y-90529500D01*
X152428842Y-90529500D01*
X152271158Y-90529500D01*
X152271155Y-90529500D01*
X152116510Y-90560261D01*
X152116498Y-90560264D01*
X151970827Y-90620602D01*
X151970814Y-90620609D01*
X151839711Y-90708210D01*
X151839707Y-90708213D01*
X151728213Y-90819707D01*
X151728210Y-90819711D01*
X151640609Y-90950814D01*
X151640602Y-90950827D01*
X151580264Y-91096498D01*
X151580261Y-91096510D01*
X151549500Y-91251153D01*
X143141617Y-91251153D01*
X143132238Y-91204008D01*
X143132237Y-91204007D01*
X143132237Y-91204003D01*
X143103933Y-91135670D01*
X143071897Y-91058327D01*
X143071890Y-91058314D01*
X142984289Y-90927211D01*
X142984286Y-90927207D01*
X142872792Y-90815713D01*
X142872788Y-90815710D01*
X142741685Y-90728109D01*
X142741672Y-90728102D01*
X142596001Y-90667764D01*
X142595989Y-90667761D01*
X142441345Y-90637000D01*
X142441342Y-90637000D01*
X142283658Y-90637000D01*
X142283655Y-90637000D01*
X142129010Y-90667761D01*
X142128998Y-90667764D01*
X141983327Y-90728102D01*
X141983314Y-90728109D01*
X141852211Y-90815710D01*
X141852207Y-90815713D01*
X141740713Y-90927207D01*
X141740710Y-90927211D01*
X141653109Y-91058314D01*
X141653102Y-91058327D01*
X141592764Y-91203998D01*
X141592761Y-91204010D01*
X141562000Y-91358653D01*
X141562000Y-91516346D01*
X141592761Y-91670989D01*
X141592764Y-91671001D01*
X141653102Y-91816672D01*
X141653109Y-91816685D01*
X141740710Y-91947788D01*
X141740713Y-91947792D01*
X141856515Y-92063594D01*
X141890000Y-92124917D01*
X141885016Y-92194609D01*
X141843144Y-92250542D01*
X141837726Y-92254376D01*
X141734713Y-92323208D01*
X141734707Y-92323213D01*
X141623213Y-92434707D01*
X141623210Y-92434711D01*
X141535609Y-92565814D01*
X141535602Y-92565827D01*
X141475264Y-92711498D01*
X141475261Y-92711510D01*
X141444500Y-92866153D01*
X139988526Y-92866153D01*
X139962467Y-92803240D01*
X139959397Y-92795827D01*
X139959390Y-92795814D01*
X139871789Y-92664711D01*
X139871786Y-92664707D01*
X139760292Y-92553213D01*
X139760288Y-92553210D01*
X139629185Y-92465609D01*
X139629172Y-92465602D01*
X139483501Y-92405264D01*
X139483489Y-92405261D01*
X139328845Y-92374500D01*
X139328842Y-92374500D01*
X139171158Y-92374500D01*
X139171155Y-92374500D01*
X139016510Y-92405261D01*
X139016498Y-92405264D01*
X138870827Y-92465602D01*
X138870814Y-92465609D01*
X138739711Y-92553210D01*
X138739707Y-92553213D01*
X138628213Y-92664707D01*
X138628210Y-92664711D01*
X138540609Y-92795814D01*
X138540602Y-92795827D01*
X138480264Y-92941498D01*
X138480261Y-92941507D01*
X138474728Y-92969326D01*
X138442342Y-93031237D01*
X138381626Y-93065810D01*
X138311856Y-93062069D01*
X138284220Y-93048235D01*
X138216685Y-93003109D01*
X138216672Y-93003102D01*
X138071001Y-92942764D01*
X138070989Y-92942761D01*
X137916345Y-92912000D01*
X137916342Y-92912000D01*
X137758658Y-92912000D01*
X137758655Y-92912000D01*
X137604010Y-92942761D01*
X137603998Y-92942764D01*
X137458327Y-93003102D01*
X137458314Y-93003109D01*
X137327211Y-93090710D01*
X137327207Y-93090713D01*
X137215713Y-93202207D01*
X137215710Y-93202211D01*
X137128109Y-93333314D01*
X137128102Y-93333327D01*
X137067764Y-93478998D01*
X137067761Y-93479010D01*
X137037000Y-93633653D01*
X116364038Y-93633653D01*
X116368075Y-93608168D01*
X116368075Y-93608167D01*
X116375500Y-93561287D01*
X116375500Y-93348713D01*
X116352296Y-93202211D01*
X116342246Y-93138757D01*
X116276557Y-92936588D01*
X116180051Y-92747184D01*
X116180049Y-92747181D01*
X116180048Y-92747179D01*
X116055109Y-92575213D01*
X115904786Y-92424890D01*
X115732820Y-92299951D01*
X115732115Y-92299591D01*
X115724054Y-92295485D01*
X115673259Y-92247512D01*
X115656463Y-92179692D01*
X115678999Y-92113556D01*
X115724054Y-92074515D01*
X115732816Y-92070051D01*
X115790799Y-92027924D01*
X115904786Y-91945109D01*
X115904788Y-91945106D01*
X115904792Y-91945104D01*
X116055104Y-91794792D01*
X116055106Y-91794788D01*
X116055109Y-91794786D01*
X116180048Y-91622820D01*
X116180047Y-91622820D01*
X116180051Y-91622816D01*
X116276557Y-91433412D01*
X116342246Y-91231243D01*
X116375500Y-91021287D01*
X116375500Y-90808713D01*
X116373511Y-90796158D01*
X116373510Y-90796153D01*
X129849500Y-90796153D01*
X129849500Y-90953846D01*
X129880261Y-91108489D01*
X129880264Y-91108501D01*
X129940602Y-91254172D01*
X129940609Y-91254185D01*
X130028210Y-91385288D01*
X130028213Y-91385292D01*
X130139707Y-91496786D01*
X130139711Y-91496789D01*
X130270814Y-91584390D01*
X130270827Y-91584397D01*
X130402797Y-91639060D01*
X130416503Y-91644737D01*
X130548480Y-91670989D01*
X130571153Y-91675499D01*
X130571156Y-91675500D01*
X130571158Y-91675500D01*
X130728844Y-91675500D01*
X130728845Y-91675499D01*
X130883497Y-91644737D01*
X130920910Y-91629239D01*
X130990378Y-91621771D01*
X131052857Y-91653046D01*
X131088510Y-91713134D01*
X131089979Y-91767992D01*
X131062000Y-91908653D01*
X131062000Y-92066346D01*
X131092761Y-92220989D01*
X131092764Y-92221001D01*
X131153102Y-92366672D01*
X131153109Y-92366685D01*
X131240710Y-92497788D01*
X131240713Y-92497792D01*
X131352207Y-92609286D01*
X131352211Y-92609289D01*
X131483314Y-92696890D01*
X131483327Y-92696897D01*
X131610824Y-92749707D01*
X131629003Y-92757237D01*
X131732968Y-92777917D01*
X131783653Y-92787999D01*
X131783656Y-92788000D01*
X131783658Y-92788000D01*
X131941344Y-92788000D01*
X131941345Y-92787999D01*
X132095997Y-92757237D01*
X132241679Y-92696894D01*
X132372789Y-92609289D01*
X132484289Y-92497789D01*
X132571894Y-92366679D01*
X132632237Y-92220997D01*
X132663000Y-92066342D01*
X132663000Y-91908658D01*
X132663000Y-91908655D01*
X132662999Y-91908653D01*
X132658184Y-91884447D01*
X132632237Y-91754003D01*
X132613673Y-91709185D01*
X132571897Y-91608327D01*
X132571890Y-91608314D01*
X132484289Y-91477211D01*
X132484286Y-91477207D01*
X132372792Y-91365713D01*
X132372788Y-91365710D01*
X132241685Y-91278109D01*
X132241672Y-91278102D01*
X132096001Y-91217764D01*
X132095989Y-91217761D01*
X131941345Y-91187000D01*
X131941342Y-91187000D01*
X131783658Y-91187000D01*
X131783655Y-91187000D01*
X131629010Y-91217761D01*
X131628998Y-91217764D01*
X131591587Y-91233260D01*
X131522118Y-91240727D01*
X131459639Y-91209451D01*
X131423988Y-91149361D01*
X131422520Y-91094506D01*
X131450500Y-90953844D01*
X131450500Y-90796155D01*
X131450499Y-90796153D01*
X131436964Y-90728109D01*
X131419737Y-90641503D01*
X131417872Y-90637000D01*
X131359397Y-90495827D01*
X131359390Y-90495814D01*
X131271789Y-90364711D01*
X131271786Y-90364707D01*
X131160292Y-90253213D01*
X131160288Y-90253210D01*
X131029185Y-90165609D01*
X131029172Y-90165602D01*
X130883501Y-90105264D01*
X130883489Y-90105261D01*
X130728845Y-90074500D01*
X130728842Y-90074500D01*
X130571158Y-90074500D01*
X130571155Y-90074500D01*
X130416510Y-90105261D01*
X130416498Y-90105264D01*
X130270827Y-90165602D01*
X130270814Y-90165609D01*
X130139711Y-90253210D01*
X130139707Y-90253213D01*
X130028213Y-90364707D01*
X130028210Y-90364711D01*
X129940609Y-90495814D01*
X129940602Y-90495827D01*
X129880264Y-90641498D01*
X129880261Y-90641510D01*
X129849500Y-90796153D01*
X116373510Y-90796153D01*
X116354409Y-90675552D01*
X116342246Y-90598757D01*
X116276557Y-90396588D01*
X116180051Y-90207184D01*
X116180049Y-90207181D01*
X116180048Y-90207179D01*
X116055109Y-90035213D01*
X115941569Y-89921673D01*
X115908084Y-89860350D01*
X115913068Y-89790658D01*
X115954940Y-89734725D01*
X115985915Y-89717810D01*
X116117331Y-89668796D01*
X116232546Y-89582546D01*
X116318796Y-89467331D01*
X116369091Y-89332483D01*
X116375500Y-89272873D01*
X116375499Y-88796153D01*
X125809500Y-88796153D01*
X125809500Y-88953846D01*
X125840261Y-89108489D01*
X125840264Y-89108501D01*
X125900602Y-89254172D01*
X125900609Y-89254185D01*
X125988210Y-89385288D01*
X125988213Y-89385292D01*
X126099707Y-89496786D01*
X126099711Y-89496789D01*
X126230814Y-89584390D01*
X126230827Y-89584397D01*
X126376498Y-89644735D01*
X126376503Y-89644737D01*
X126515247Y-89672335D01*
X126531153Y-89675499D01*
X126531156Y-89675500D01*
X126531158Y-89675500D01*
X126688844Y-89675500D01*
X126809015Y-89651596D01*
X126878607Y-89657823D01*
X126933784Y-89700686D01*
X126947768Y-89725760D01*
X126990604Y-89829175D01*
X126990609Y-89829185D01*
X127078210Y-89960288D01*
X127078213Y-89960292D01*
X127189707Y-90071786D01*
X127189711Y-90071789D01*
X127320814Y-90159390D01*
X127320827Y-90159397D01*
X127436185Y-90207179D01*
X127466503Y-90219737D01*
X127621153Y-90250499D01*
X127621156Y-90250500D01*
X127621158Y-90250500D01*
X127778844Y-90250500D01*
X127778845Y-90250499D01*
X127933497Y-90219737D01*
X128064182Y-90165606D01*
X128079172Y-90159397D01*
X128079172Y-90159396D01*
X128079179Y-90159394D01*
X128210289Y-90071789D01*
X128321789Y-89960289D01*
X128409394Y-89829179D01*
X128469737Y-89683497D01*
X128500500Y-89528842D01*
X128500500Y-89371158D01*
X128500500Y-89371155D01*
X128500499Y-89371153D01*
X128480950Y-89272873D01*
X128470662Y-89221153D01*
X139199500Y-89221153D01*
X139199500Y-89378846D01*
X139230261Y-89533489D01*
X139230264Y-89533501D01*
X139290602Y-89679172D01*
X139290609Y-89679185D01*
X139378210Y-89810288D01*
X139378213Y-89810292D01*
X139489707Y-89921786D01*
X139489711Y-89921789D01*
X139620814Y-90009390D01*
X139620827Y-90009397D01*
X139766498Y-90069735D01*
X139766503Y-90069737D01*
X139921153Y-90100499D01*
X139921156Y-90100500D01*
X139921158Y-90100500D01*
X140078844Y-90100500D01*
X140078845Y-90100499D01*
X140233497Y-90069737D01*
X140379179Y-90009394D01*
X140510289Y-89921789D01*
X140621789Y-89810289D01*
X140709394Y-89679179D01*
X140712232Y-89672328D01*
X140719197Y-89655513D01*
X159279500Y-89655513D01*
X159279500Y-89844486D01*
X159309059Y-90031118D01*
X159367454Y-90210836D01*
X159438702Y-90350667D01*
X159453240Y-90379199D01*
X159564310Y-90532073D01*
X159697927Y-90665690D01*
X159771247Y-90718960D01*
X159800668Y-90757115D01*
X160391414Y-91347861D01*
X160306306Y-91370667D01*
X160203694Y-91429910D01*
X160119910Y-91513694D01*
X160060667Y-91616306D01*
X160037861Y-91701414D01*
X159472116Y-91135669D01*
X159472116Y-91135670D01*
X159453669Y-91161060D01*
X159367914Y-91329362D01*
X159309548Y-91508997D01*
X159280000Y-91695552D01*
X159280000Y-91884447D01*
X159309548Y-92071002D01*
X159367914Y-92250637D01*
X159453666Y-92418933D01*
X159472116Y-92444328D01*
X160037861Y-91878584D01*
X160060667Y-91963694D01*
X160119910Y-92066306D01*
X160203694Y-92150090D01*
X160306306Y-92209333D01*
X160391413Y-92232137D01*
X159808523Y-92815028D01*
X159807610Y-92819376D01*
X159771247Y-92861038D01*
X159697927Y-92914309D01*
X159564312Y-93047924D01*
X159564312Y-93047925D01*
X159564310Y-93047927D01*
X159533224Y-93090713D01*
X159453240Y-93200800D01*
X159367454Y-93369163D01*
X159309059Y-93548881D01*
X159279500Y-93735513D01*
X159279500Y-93924486D01*
X159309059Y-94111118D01*
X159367454Y-94290836D01*
X159434230Y-94421890D01*
X159453240Y-94459199D01*
X159564310Y-94612073D01*
X159697927Y-94745690D01*
X159697930Y-94745692D01*
X159703424Y-94749684D01*
X159746088Y-94805015D01*
X159752066Y-94874628D01*
X159719458Y-94936422D01*
X159703424Y-94950316D01*
X159697930Y-94954307D01*
X159697924Y-94954312D01*
X159564312Y-95087924D01*
X159564312Y-95087925D01*
X159564310Y-95087927D01*
X159533014Y-95131002D01*
X159453240Y-95240800D01*
X159367454Y-95409163D01*
X159309059Y-95588881D01*
X159279500Y-95775513D01*
X159279500Y-95964486D01*
X159309059Y-96151118D01*
X159367454Y-96330836D01*
X159428474Y-96450593D01*
X159453240Y-96499199D01*
X159564310Y-96652073D01*
X159697927Y-96785690D01*
X159850801Y-96896760D01*
X159923284Y-96933692D01*
X160019163Y-96982545D01*
X160019165Y-96982545D01*
X160019168Y-96982547D01*
X160069688Y-96998962D01*
X160198881Y-97040940D01*
X160385514Y-97070500D01*
X160385519Y-97070500D01*
X160574486Y-97070500D01*
X160761118Y-97040940D01*
X160809840Y-97025109D01*
X160940832Y-96982547D01*
X161109199Y-96896760D01*
X161262073Y-96785690D01*
X161395690Y-96652073D01*
X161506760Y-96499199D01*
X161592547Y-96330832D01*
X161650940Y-96151118D01*
X161663967Y-96068869D01*
X161693896Y-96005734D01*
X161753208Y-95968803D01*
X161823070Y-95969801D01*
X161824758Y-95970336D01*
X161978998Y-96020452D01*
X162165553Y-96050000D01*
X162354447Y-96050000D01*
X162541002Y-96020451D01*
X162720637Y-95962085D01*
X162888937Y-95876331D01*
X162914328Y-95857883D01*
X162914328Y-95857882D01*
X162348584Y-95292138D01*
X162433694Y-95269333D01*
X162536306Y-95210090D01*
X162620090Y-95126306D01*
X162679333Y-95023694D01*
X162702138Y-94938584D01*
X163267882Y-95504328D01*
X163267883Y-95504328D01*
X163286331Y-95478937D01*
X163372085Y-95310637D01*
X163430451Y-95131002D01*
X163460000Y-94944447D01*
X163460000Y-94755552D01*
X163430451Y-94568997D01*
X163372085Y-94389362D01*
X163286329Y-94221059D01*
X163267883Y-94195670D01*
X163267882Y-94195669D01*
X162702137Y-94761414D01*
X162679333Y-94676306D01*
X162620090Y-94573694D01*
X162536306Y-94489910D01*
X162433694Y-94430667D01*
X162348584Y-94407861D01*
X162931470Y-93824975D01*
X162932383Y-93820632D01*
X162968750Y-93778962D01*
X163042073Y-93725690D01*
X163175690Y-93592073D01*
X163286760Y-93439199D01*
X163372547Y-93270832D01*
X163396047Y-93198508D01*
X166648370Y-93198508D01*
X166648370Y-93356201D01*
X166679131Y-93510844D01*
X166679134Y-93510856D01*
X166739472Y-93656527D01*
X166739479Y-93656540D01*
X166827080Y-93787643D01*
X166827083Y-93787647D01*
X166938577Y-93899141D01*
X166938581Y-93899144D01*
X167069684Y-93986745D01*
X167069697Y-93986752D01*
X167173469Y-94029735D01*
X167215373Y-94047092D01*
X167370023Y-94077854D01*
X167370026Y-94077855D01*
X167370028Y-94077855D01*
X167527714Y-94077855D01*
X167527715Y-94077854D01*
X167682367Y-94047092D01*
X167828049Y-93986749D01*
X167959159Y-93899144D01*
X168070659Y-93787644D01*
X168158264Y-93656534D01*
X168159151Y-93654394D01*
X168184493Y-93593210D01*
X168218607Y-93510852D01*
X168249370Y-93356197D01*
X168249370Y-93198513D01*
X168249370Y-93198510D01*
X168249369Y-93198508D01*
X168245389Y-93178501D01*
X168218607Y-93043858D01*
X168211421Y-93026510D01*
X168158267Y-92898182D01*
X168158260Y-92898169D01*
X168070659Y-92767066D01*
X168070656Y-92767062D01*
X167959162Y-92655568D01*
X167959158Y-92655565D01*
X167828055Y-92567964D01*
X167828042Y-92567957D01*
X167682371Y-92507619D01*
X167682359Y-92507616D01*
X167527715Y-92476855D01*
X167527712Y-92476855D01*
X167370028Y-92476855D01*
X167370025Y-92476855D01*
X167215380Y-92507616D01*
X167215368Y-92507619D01*
X167069697Y-92567957D01*
X167069684Y-92567964D01*
X166938581Y-92655565D01*
X166938577Y-92655568D01*
X166827083Y-92767062D01*
X166827080Y-92767066D01*
X166739479Y-92898169D01*
X166739472Y-92898182D01*
X166679134Y-93043853D01*
X166679131Y-93043865D01*
X166648370Y-93198508D01*
X163396047Y-93198508D01*
X163430940Y-93091118D01*
X163441595Y-93023844D01*
X163460500Y-92904486D01*
X163460500Y-92715513D01*
X163430940Y-92528881D01*
X163380778Y-92374500D01*
X163372547Y-92349168D01*
X163372545Y-92349165D01*
X163372545Y-92349163D01*
X163302989Y-92212653D01*
X163286760Y-92180801D01*
X163175690Y-92027927D01*
X163042073Y-91894310D01*
X162968751Y-91841038D01*
X162939331Y-91802884D01*
X162348585Y-91212138D01*
X162433694Y-91189333D01*
X162536306Y-91130090D01*
X162620090Y-91046306D01*
X162679333Y-90943694D01*
X162702138Y-90858584D01*
X163267882Y-91424328D01*
X163267883Y-91424328D01*
X163286331Y-91398937D01*
X163372085Y-91230637D01*
X163430451Y-91051002D01*
X163460000Y-90864447D01*
X163460000Y-90675552D01*
X163430451Y-90488997D01*
X163372085Y-90309362D01*
X163286329Y-90141059D01*
X163202818Y-90026114D01*
X163179338Y-89960308D01*
X163195164Y-89892254D01*
X163228823Y-89853963D01*
X163317546Y-89787546D01*
X163403796Y-89672331D01*
X163454091Y-89537483D01*
X163460500Y-89477873D01*
X163460499Y-89361271D01*
X163480183Y-89294235D01*
X163532987Y-89248480D01*
X163602145Y-89238536D01*
X163665701Y-89267560D01*
X163703476Y-89326338D01*
X163706116Y-89337082D01*
X163731261Y-89463491D01*
X163731264Y-89463501D01*
X163791602Y-89609172D01*
X163791609Y-89609185D01*
X163879210Y-89740288D01*
X163879213Y-89740292D01*
X163990707Y-89851786D01*
X163990711Y-89851789D01*
X164121814Y-89939390D01*
X164121827Y-89939397D01*
X164267498Y-89999735D01*
X164267503Y-89999737D01*
X164422153Y-90030499D01*
X164422156Y-90030500D01*
X164422158Y-90030500D01*
X164579844Y-90030500D01*
X164579845Y-90030499D01*
X164734497Y-89999737D01*
X164880179Y-89939394D01*
X165011289Y-89851789D01*
X165122789Y-89740289D01*
X165210394Y-89609179D01*
X165221427Y-89582544D01*
X165240092Y-89537482D01*
X165270737Y-89463497D01*
X165301500Y-89308842D01*
X165301500Y-89151158D01*
X165301500Y-89151155D01*
X165301499Y-89151153D01*
X165295883Y-89122918D01*
X165270737Y-88996503D01*
X165253068Y-88953846D01*
X165210397Y-88850827D01*
X165210390Y-88850814D01*
X165122789Y-88719711D01*
X165122786Y-88719707D01*
X165011292Y-88608213D01*
X165011288Y-88608210D01*
X164880185Y-88520609D01*
X164880172Y-88520602D01*
X164734501Y-88460264D01*
X164734489Y-88460261D01*
X164579845Y-88429500D01*
X164579842Y-88429500D01*
X164422158Y-88429500D01*
X164422155Y-88429500D01*
X164267510Y-88460261D01*
X164267498Y-88460264D01*
X164121827Y-88520602D01*
X164121814Y-88520609D01*
X163990711Y-88608210D01*
X163990707Y-88608213D01*
X163879213Y-88719707D01*
X163879210Y-88719711D01*
X163791609Y-88850814D01*
X163791602Y-88850827D01*
X163731264Y-88996498D01*
X163731261Y-88996508D01*
X163706116Y-89122918D01*
X163673731Y-89184829D01*
X163613015Y-89219403D01*
X163543245Y-89215662D01*
X163486573Y-89174796D01*
X163460992Y-89109777D01*
X163460499Y-89098742D01*
X163460499Y-87982128D01*
X163454091Y-87922517D01*
X163453458Y-87920821D01*
X163403797Y-87787671D01*
X163403793Y-87787664D01*
X163317547Y-87672455D01*
X163317544Y-87672452D01*
X163202335Y-87586206D01*
X163202328Y-87586202D01*
X163067482Y-87535908D01*
X163067483Y-87535908D01*
X163007883Y-87529501D01*
X163007881Y-87529500D01*
X163007873Y-87529500D01*
X163007864Y-87529500D01*
X161512129Y-87529500D01*
X161512123Y-87529501D01*
X161452516Y-87535908D01*
X161317671Y-87586202D01*
X161317664Y-87586206D01*
X161202455Y-87672452D01*
X161202452Y-87672455D01*
X161116206Y-87787664D01*
X161116202Y-87787671D01*
X161065908Y-87922517D01*
X161059501Y-87982116D01*
X161059501Y-87982123D01*
X161059500Y-87982135D01*
X161059500Y-88505339D01*
X161039815Y-88572378D01*
X160987011Y-88618133D01*
X160917853Y-88628077D01*
X160897181Y-88623270D01*
X160881371Y-88618133D01*
X160878174Y-88617094D01*
X160761118Y-88579059D01*
X160574486Y-88549500D01*
X160574481Y-88549500D01*
X160385519Y-88549500D01*
X160385514Y-88549500D01*
X160198881Y-88579059D01*
X160019163Y-88637454D01*
X159850800Y-88723240D01*
X159805258Y-88756329D01*
X159697927Y-88834310D01*
X159697925Y-88834312D01*
X159697924Y-88834312D01*
X159564312Y-88967924D01*
X159564312Y-88967925D01*
X159564310Y-88967927D01*
X159534180Y-89009397D01*
X159453240Y-89120800D01*
X159367454Y-89289163D01*
X159309059Y-89468881D01*
X159279500Y-89655513D01*
X140719197Y-89655513D01*
X140740868Y-89603195D01*
X140769735Y-89533501D01*
X140769737Y-89533497D01*
X140800500Y-89378842D01*
X140800500Y-89221158D01*
X140800500Y-89221155D01*
X140800499Y-89221153D01*
X140786575Y-89151153D01*
X140769737Y-89066503D01*
X140740745Y-88996510D01*
X140709397Y-88920827D01*
X140709390Y-88920814D01*
X140621789Y-88789711D01*
X140621786Y-88789707D01*
X140510292Y-88678213D01*
X140510288Y-88678210D01*
X140379185Y-88590609D01*
X140379172Y-88590602D01*
X140233501Y-88530264D01*
X140233489Y-88530261D01*
X140078845Y-88499500D01*
X140078842Y-88499500D01*
X139921158Y-88499500D01*
X139921155Y-88499500D01*
X139766510Y-88530261D01*
X139766498Y-88530264D01*
X139620827Y-88590602D01*
X139620814Y-88590609D01*
X139489711Y-88678210D01*
X139489707Y-88678213D01*
X139378213Y-88789707D01*
X139378210Y-88789711D01*
X139290609Y-88920814D01*
X139290602Y-88920827D01*
X139230264Y-89066498D01*
X139230261Y-89066510D01*
X139199500Y-89221153D01*
X128470662Y-89221153D01*
X128469737Y-89216503D01*
X128452462Y-89174796D01*
X128409397Y-89070827D01*
X128409390Y-89070814D01*
X128321789Y-88939711D01*
X128321786Y-88939707D01*
X128210292Y-88828213D01*
X128210288Y-88828210D01*
X128079185Y-88740609D01*
X128079172Y-88740602D01*
X127933501Y-88680264D01*
X127933489Y-88680261D01*
X127778845Y-88649500D01*
X127778842Y-88649500D01*
X127621158Y-88649500D01*
X127500981Y-88673404D01*
X127431390Y-88667176D01*
X127376213Y-88624312D01*
X127362234Y-88599247D01*
X127319394Y-88495821D01*
X127319392Y-88495818D01*
X127319390Y-88495814D01*
X127231789Y-88364711D01*
X127231786Y-88364707D01*
X127120292Y-88253213D01*
X127120288Y-88253210D01*
X126989185Y-88165609D01*
X126989172Y-88165602D01*
X126843501Y-88105264D01*
X126843489Y-88105261D01*
X126688845Y-88074500D01*
X126688842Y-88074500D01*
X126531158Y-88074500D01*
X126531155Y-88074500D01*
X126376510Y-88105261D01*
X126376498Y-88105264D01*
X126230827Y-88165602D01*
X126230814Y-88165609D01*
X126099711Y-88253210D01*
X126099707Y-88253213D01*
X125988213Y-88364707D01*
X125988210Y-88364711D01*
X125900609Y-88495814D01*
X125900602Y-88495827D01*
X125840264Y-88641498D01*
X125840261Y-88641510D01*
X125809500Y-88796153D01*
X116375499Y-88796153D01*
X116375499Y-88364711D01*
X116375499Y-87477129D01*
X116375498Y-87477123D01*
X116375497Y-87477116D01*
X116369091Y-87417517D01*
X116361890Y-87398211D01*
X116318797Y-87282671D01*
X116318793Y-87282664D01*
X116232547Y-87167455D01*
X116232544Y-87167452D01*
X116117335Y-87081206D01*
X116117328Y-87081202D01*
X115982482Y-87030908D01*
X115982483Y-87030908D01*
X115922883Y-87024501D01*
X115922881Y-87024500D01*
X115922873Y-87024500D01*
X115922864Y-87024500D01*
X114127129Y-87024500D01*
X114127123Y-87024501D01*
X114067516Y-87030908D01*
X113932671Y-87081202D01*
X113932664Y-87081206D01*
X113817455Y-87167452D01*
X113817452Y-87167455D01*
X113731206Y-87282664D01*
X113731202Y-87282671D01*
X113680908Y-87417517D01*
X113675074Y-87471786D01*
X113674501Y-87477123D01*
X113674500Y-87477135D01*
X112350500Y-87477135D01*
X112350500Y-86771153D01*
X134149500Y-86771153D01*
X134149500Y-86928846D01*
X134180261Y-87083489D01*
X134180264Y-87083501D01*
X134240602Y-87229172D01*
X134240609Y-87229185D01*
X134328210Y-87360288D01*
X134328213Y-87360292D01*
X134439707Y-87471786D01*
X134439711Y-87471789D01*
X134557712Y-87550635D01*
X134602517Y-87604247D01*
X134611224Y-87673572D01*
X134581070Y-87736599D01*
X134576503Y-87741417D01*
X134528214Y-87789706D01*
X134528210Y-87789711D01*
X134440609Y-87920814D01*
X134440602Y-87920827D01*
X134380264Y-88066498D01*
X134380261Y-88066510D01*
X134349500Y-88221153D01*
X134349500Y-88378846D01*
X134380261Y-88533489D01*
X134380264Y-88533501D01*
X134440602Y-88679172D01*
X134440609Y-88679185D01*
X134528210Y-88810288D01*
X134528213Y-88810292D01*
X134639707Y-88921786D01*
X134639711Y-88921789D01*
X134770814Y-89009390D01*
X134770827Y-89009397D01*
X134908683Y-89066498D01*
X134916503Y-89069737D01*
X135062240Y-89098726D01*
X135071153Y-89100499D01*
X135071156Y-89100500D01*
X135071158Y-89100500D01*
X135228844Y-89100500D01*
X135228845Y-89100499D01*
X135239179Y-89098443D01*
X135264287Y-89093450D01*
X135264292Y-89093449D01*
X135349800Y-89076439D01*
X135383497Y-89069737D01*
X135529179Y-89009394D01*
X135660289Y-88921789D01*
X135771789Y-88810289D01*
X135859394Y-88679179D01*
X135919737Y-88533497D01*
X135950500Y-88378842D01*
X135950500Y-88221158D01*
X135950500Y-88221155D01*
X135950499Y-88221153D01*
X135942313Y-88180000D01*
X135919737Y-88066503D01*
X135884791Y-87982135D01*
X135859397Y-87920827D01*
X135859390Y-87920814D01*
X135771789Y-87789711D01*
X135771786Y-87789707D01*
X135706405Y-87724326D01*
X135706400Y-87724322D01*
X135660289Y-87678211D01*
X135539172Y-87597283D01*
X135536168Y-87595001D01*
X135517576Y-87569796D01*
X135497482Y-87545752D01*
X135496997Y-87541897D01*
X135494693Y-87538773D01*
X135492678Y-87507509D01*
X135488775Y-87476427D01*
X135490450Y-87472924D01*
X135490201Y-87469048D01*
X135505407Y-87441661D01*
X135518929Y-87413399D01*
X135523498Y-87408580D01*
X135571786Y-87360292D01*
X135571789Y-87360289D01*
X135659394Y-87229179D01*
X135719737Y-87083497D01*
X135750500Y-86928842D01*
X135750500Y-86771158D01*
X135750500Y-86771155D01*
X135750499Y-86771153D01*
X135744139Y-86739179D01*
X135719737Y-86616503D01*
X135710208Y-86593497D01*
X135659397Y-86470827D01*
X135659390Y-86470814D01*
X135571789Y-86339711D01*
X135571786Y-86339707D01*
X135460292Y-86228213D01*
X135460288Y-86228210D01*
X135329185Y-86140609D01*
X135329172Y-86140602D01*
X135183501Y-86080264D01*
X135183489Y-86080261D01*
X135028845Y-86049500D01*
X135028842Y-86049500D01*
X134871158Y-86049500D01*
X134871155Y-86049500D01*
X134716510Y-86080261D01*
X134716498Y-86080264D01*
X134570827Y-86140602D01*
X134570814Y-86140609D01*
X134439711Y-86228210D01*
X134439707Y-86228213D01*
X134328213Y-86339707D01*
X134328210Y-86339711D01*
X134240609Y-86470814D01*
X134240602Y-86470827D01*
X134180264Y-86616498D01*
X134180261Y-86616510D01*
X134149500Y-86771153D01*
X112350500Y-86771153D01*
X112350500Y-83924500D01*
X112370185Y-83857461D01*
X112422989Y-83811706D01*
X112474500Y-83800500D01*
X114789802Y-83800500D01*
X114856841Y-83820185D01*
G37*
%TD.AperFunction*%
%TD*%
M02*
