<?xml version="1.0" standalone="no"?>
 <!DOCTYPE svg PUBLIC "-//W3C//DTD SVG 1.1//EN" 
 "http://www.w3.org/Graphics/SVG/1.1/DTD/svg11.dtd"> 
<svg
  xmlns:svg="http://www.w3.org/2000/svg"
  xmlns="http://www.w3.org/2000/svg"
  xmlns:xlink="http://www.w3.org/1999/xlink"
  version="1.1"
  width="297.0022mm" height="210.0072mm" viewBox="0.0000 0.0000 297.0022 210.0072">
<title>SVG Image created as can-nano-shield-rj45-F_Cu.svg date 2025/09/14 12:30:13 </title>
  <desc>Image generated by PCBNEW </desc>
<g style="fill:#000000; fill-opacity:1.0000;stroke:#000000; stroke-opacity:1.0000;
stroke-linecap:round; stroke-linejoin:round;"
 transform="translate(0 0) scale(1 1)">
<path style="fill:#000000; fill-opacity:1.0000; stroke:none;fill-rule:evenodd;"
d="M 139.0000,88.4500
138.4000,88.4500
138.4000,87.9500
139.0000,87.9500
Z" /> 
<path style="fill:#000000; fill-opacity:1.0000; stroke:none;fill-rule:evenodd;"
d="M 141.5750,88.4500
140.9750,88.4500
140.9750,87.9500
141.5750,87.9500
Z" /> 
<path style="fill:#000000; fill-opacity:1.0000; stroke:none;fill-rule:evenodd;"
d="M 145.6000,88.4250
145.0000,88.4250
145.0000,87.9250
145.6000,87.9250
Z" /> 
<path style="fill:#000000; fill-opacity:1.0000; stroke:none;fill-rule:evenodd;"
d="M 142.3050,97.9550
142.2093,97.9360
142.1282,97.8818
142.0740,97.8007
142.0550,97.7050
142.0550,97.0300
142.0740,96.9343
142.1282,96.8532
142.2093,96.7990
142.3050,96.7800
143.2550,96.7800
143.3507,96.7990
143.4318,96.8532
143.4860,96.9343
143.5050,97.0300
143.5050,97.7050
143.4860,97.8007
143.4318,97.8818
143.3507,97.9360
143.2550,97.9550
Z" /> 
<path style="fill:#000000; fill-opacity:1.0000; stroke:none;fill-rule:evenodd;"
d="M 142.3050,95.8800
142.2093,95.8610
142.1282,95.8068
142.0740,95.7257
142.0550,95.6300
142.0550,94.9550
142.0740,94.8593
142.1282,94.7782
142.2093,94.7240
142.3050,94.7050
143.2550,94.7050
143.3507,94.7240
143.4318,94.7782
143.4860,94.8593
143.5050,94.9550
143.5050,95.6300
143.4860,95.7257
143.4318,95.8068
143.3507,95.8610
143.2550,95.8800
Z" /> 
<path style="fill:#000000; fill-opacity:1.0000; stroke:none;fill-rule:evenodd;"
d="M 139.9400,96.4625
140.4900,96.4625
140.4900,96.4668
140.5553,96.4668
140.6813,96.5006
140.7944,96.5658
140.8867,96.6581
140.9519,96.7712
140.9857,96.8972
140.9857,96.9625
140.9900,96.9625
140.9900,97.4625
140.9857,97.4625
140.9857,97.5278
140.9519,97.6538
140.8867,97.7669
140.7944,97.8592
140.6813,97.9244
140.5553,97.9582
140.4900,97.9582
140.4900,97.9625
139.9400,97.9625
Z" /> 
<path style="fill:#000000; fill-opacity:1.0000; stroke:none;fill-rule:evenodd;"
d="M 139.6900,96.4625
139.6900,97.9625
138.6900,97.9625
138.6900,96.4625
Z" /> 
<path style="fill:#000000; fill-opacity:1.0000; stroke:none;fill-rule:evenodd;"
d="M 137.8900,97.9582
137.8247,97.9582
137.6987,97.9244
137.5856,97.8592
137.4933,97.7669
137.4281,97.6538
137.3943,97.5278
137.3943,97.4625
137.3900,97.4625
137.3900,96.9625
137.3943,96.9625
137.3943,96.8972
137.4281,96.7712
137.4933,96.6581
137.5856,96.5658
137.6987,96.5006
137.8247,96.4668
137.8900,96.4668
137.8900,96.4625
138.4400,96.4625
138.4400,97.9625
137.8900,97.9625
Z" /> 
<path style="fill:#000000; fill-opacity:1.0000; stroke:none;fill-rule:evenodd;"
d="M 137.9500,88.0500
137.9500,87.5500
137.9543,87.5500
137.9543,87.4847
137.9881,87.3587
138.0533,87.2456
138.1456,87.1533
138.2587,87.0881
138.3847,87.0543
138.4500,87.0543
138.4500,87.0500
138.9500,87.0500
138.9500,87.0543
139.0153,87.0543
139.1413,87.0881
139.2544,87.1533
139.3467,87.2456
139.4119,87.3587
139.4457,87.4847
139.4457,87.5500
139.4500,87.5500
139.4500,88.0500
Z" /> 
<path style="fill:#000000; fill-opacity:1.0000; stroke:none;fill-rule:evenodd;"
d="M 139.4457,88.8500
139.4457,88.9153
139.4119,89.0413
139.3467,89.1544
139.2544,89.2467
139.1413,89.3119
139.0153,89.3457
138.9500,89.3457
138.9500,89.3500
138.4500,89.3500
138.4500,89.3457
138.3847,89.3457
138.2587,89.3119
138.1456,89.2467
138.0533,89.1544
137.9881,89.0413
137.9543,88.9153
137.9543,88.8500
137.9500,88.8500
137.9500,88.3500
139.4500,88.3500
139.4500,88.8500
Z" /> 
<path style="fill:#000000; fill-opacity:1.0000; stroke:none;fill-rule:evenodd;"
d="M 140.5250,88.0500
140.5250,87.5500
140.5293,87.5500
140.5293,87.4847
140.5631,87.3587
140.6283,87.2456
140.7206,87.1533
140.8337,87.0881
140.9597,87.0543
141.0250,87.0543
141.0250,87.0500
141.5250,87.0500
141.5250,87.0543
141.5903,87.0543
141.7163,87.0881
141.8294,87.1533
141.9217,87.2456
141.9869,87.3587
142.0207,87.4847
142.0207,87.5500
142.0250,87.5500
142.0250,88.0500
Z" /> 
<path style="fill:#000000; fill-opacity:1.0000; stroke:none;fill-rule:evenodd;"
d="M 142.0207,88.8500
142.0207,88.9153
141.9869,89.0413
141.9217,89.1544
141.8294,89.2467
141.7163,89.3119
141.5903,89.3457
141.5250,89.3457
141.5250,89.3500
141.0250,89.3500
141.0250,89.3457
140.9597,89.3457
140.8337,89.3119
140.7206,89.2467
140.6283,89.1544
140.5631,89.0413
140.5293,88.9153
140.5293,88.8500
140.5250,88.8500
140.5250,88.3500
142.0250,88.3500
142.0250,88.8500
Z" /> 
<path style="fill:#000000; fill-opacity:1.0000; stroke:none;fill-rule:evenodd;"
d="M 162.9600,89.4300
161.5600,89.4300
161.5600,88.0300
162.9600,88.0300
Z" /> 
</g>
<g style="fill:#000000; fill-opacity:1.0000; stroke:none;">
<circle cx="160.4800" cy="89.7500" r="0.7000" /> 
</g>
<g style="fill:#000000; fill-opacity:1.0000; stroke:none;">
<circle cx="162.2600" cy="90.7700" r="0.7000" /> 
</g>
<g style="fill:#000000; fill-opacity:1.0000; stroke:none;">
<circle cx="160.4800" cy="91.7900" r="0.7000" /> 
</g>
<g style="fill:#000000; fill-opacity:1.0000; stroke:none;">
<circle cx="162.2600" cy="92.8100" r="0.7000" /> 
</g>
<g style="fill:#000000; fill-opacity:1.0000; stroke:none;">
<circle cx="160.4800" cy="93.8300" r="0.7000" /> 
</g>
<g style="fill:#000000; fill-opacity:1.0000; stroke:none;">
<circle cx="162.2600" cy="94.8500" r="0.7000" /> 
</g>
<g style="fill:#000000; fill-opacity:1.0000; stroke:none;">
<circle cx="160.4800" cy="95.8700" r="0.7000" /> 
</g>
<g style="fill:#000000; fill-opacity:1.0000; stroke:none;">
<circle cx="155.6600" cy="99.1600" r="0.7000" /> 
</g>
<g style="fill:#000000; fill-opacity:1.0000; stroke:none;">
<circle cx="155.6600" cy="96.8700" r="0.7000" /> 
</g>
<g style="fill:#000000; fill-opacity:1.0000; stroke:none;">
<circle cx="155.6600" cy="87.7300" r="0.7000" /> 
</g>
<g style="fill:#000000; fill-opacity:1.0000; stroke:none;">
<circle cx="155.6600" cy="85.4400" r="0.7000" /> 
</g>
<g style="fill:none; 
stroke:#000000; stroke-width:0.8000; stroke-opacity:1; 
stroke-linecap:round; stroke-linejoin:round;">
<path d="M160.3900 84.2000
L162.0900 84.2000
" />
<path d="M160.3900 100.4000
L162.0900 100.4000
" />
<path style="fill:#000000; fill-opacity:1.0000; stroke:none;fill-rule:evenodd;"
d="M 152.0850,99.2450
152.0850,100.6150
150.7150,100.6150
150.7150,99.2450
Z" /> 
</g>
<g style="fill:#000000; fill-opacity:1.0000; stroke:none;">
<circle cx="148.8600" cy="99.9300" r="0.6850" /> 
</g>
<g style="fill:#000000; fill-opacity:1.0000; stroke:none;">
<circle cx="146.3200" cy="99.9300" r="0.6850" /> 
</g>
<g style="fill:#000000; fill-opacity:1.0000; stroke:none;">
<circle cx="143.7800" cy="99.9300" r="0.6850" /> 
</g>
<g style="fill:#000000; fill-opacity:1.0000; stroke:none;">
<circle cx="141.2400" cy="99.9300" r="0.6850" /> 
</g>
<g style="fill:#000000; fill-opacity:1.0000; stroke:none;">
<circle cx="138.7000" cy="99.9300" r="0.6850" /> 
</g>
<g style="fill:#000000; fill-opacity:1.0000; stroke:none;">
<circle cx="136.1600" cy="99.9300" r="0.6850" /> 
</g>
<g style="fill:#000000; fill-opacity:1.0000; stroke:none;">
<circle cx="133.6200" cy="99.9300" r="0.6850" /> 
</g>
<g style="fill:#000000; fill-opacity:1.0000; stroke:none;">
<circle cx="131.0800" cy="99.9300" r="0.6850" /> 
</g>
<g style="fill:#000000; fill-opacity:1.0000; stroke:none;">
<circle cx="128.5400" cy="99.9300" r="0.6850" /> 
</g>
<g style="fill:#000000; fill-opacity:1.0000; stroke:none;">
<circle cx="126.0000" cy="99.9300" r="0.6850" /> 
</g>
<g style="fill:#000000; fill-opacity:1.0000; stroke:none;">
<circle cx="123.4600" cy="99.9300" r="0.6850" /> 
</g>
<g style="fill:#000000; fill-opacity:1.0000; stroke:none;">
<circle cx="120.9200" cy="99.9300" r="0.6850" /> 
</g>
<g style="fill:#000000; fill-opacity:1.0000; stroke:none;">
<circle cx="118.3800" cy="99.9300" r="0.6850" /> 
</g>
<g style="fill:#000000; fill-opacity:1.0000; stroke:none;">
<circle cx="115.8400" cy="99.9300" r="0.6850" /> 
<path style="fill:#000000; fill-opacity:1.0000; stroke:none;fill-rule:evenodd;"
d="M 136.7750,86.8250
136.8707,86.8440
136.9518,86.8982
137.0060,86.9793
137.0250,87.0750
137.0250,87.7750
137.0060,87.8707
136.9518,87.9518
136.8707,88.0060
136.7750,88.0250
135.8750,88.0250
135.7793,88.0060
135.6982,87.9518
135.6440,87.8707
135.6250,87.7750
135.6250,87.0750
135.6440,86.9793
135.6982,86.8982
135.7793,86.8440
135.8750,86.8250
Z" /> 
<path style="fill:#000000; fill-opacity:1.0000; stroke:none;fill-rule:evenodd;"
d="M 136.7750,88.8250
136.8707,88.8440
136.9518,88.8982
137.0060,88.9793
137.0250,89.0750
137.0250,89.7750
137.0060,89.8707
136.9518,89.9518
136.8707,90.0060
136.7750,90.0250
135.8750,90.0250
135.7793,90.0060
135.6982,89.9518
135.6440,89.8707
135.6250,89.7750
135.6250,89.0750
135.6440,88.9793
135.6982,88.8982
135.7793,88.8440
135.8750,88.8250
Z" /> 
<path style="fill:#000000; fill-opacity:1.0000; stroke:none;fill-rule:evenodd;"
d="M 146.2850,97.9650
146.1893,97.9460
146.1082,97.8918
146.0540,97.8107
146.0350,97.7150
146.0350,97.0400
146.0540,96.9443
146.1082,96.8632
146.1893,96.8090
146.2850,96.7900
147.2350,96.7900
147.3307,96.8090
147.4118,96.8632
147.4660,96.9443
147.4850,97.0400
147.4850,97.7150
147.4660,97.8107
147.4118,97.8918
147.3307,97.9460
147.2350,97.9650
Z" /> 
<path style="fill:#000000; fill-opacity:1.0000; stroke:none;fill-rule:evenodd;"
d="M 146.2850,95.8900
146.1893,95.8710
146.1082,95.8168
146.0540,95.7357
146.0350,95.6400
146.0350,94.9650
146.0540,94.8693
146.1082,94.7882
146.1893,94.7340
146.2850,94.7150
147.2350,94.7150
147.3307,94.7340
147.4118,94.7882
147.4660,94.8693
147.4850,94.9650
147.4850,95.6400
147.4660,95.7357
147.4118,95.8168
147.3307,95.8710
147.2350,95.8900
Z" /> 
<path style="fill:#000000; fill-opacity:1.0000; stroke:none;fill-rule:evenodd;"
d="M 144.5500,88.0250
144.5500,87.5250
144.5543,87.5250
144.5543,87.4597
144.5881,87.3337
144.6533,87.2206
144.7456,87.1283
144.8587,87.0631
144.9847,87.0293
145.0500,87.0293
145.0500,87.0250
145.5500,87.0250
145.5500,87.0293
145.6153,87.0293
145.7413,87.0631
145.8544,87.1283
145.9467,87.2206
146.0119,87.3337
146.0457,87.4597
146.0457,87.5250
146.0500,87.5250
146.0500,88.0250
Z" /> 
<path style="fill:#000000; fill-opacity:1.0000; stroke:none;fill-rule:evenodd;"
d="M 146.0457,88.8250
146.0457,88.8903
146.0119,89.0163
145.9467,89.1294
145.8544,89.2217
145.7413,89.2869
145.6153,89.3207
145.5500,89.3207
145.5500,89.3250
145.0500,89.3250
145.0500,89.3207
144.9847,89.3207
144.8587,89.2869
144.7456,89.2217
144.6533,89.1294
144.5881,89.0163
144.5543,88.8903
144.5543,88.8250
144.5500,88.8250
144.5500,88.3250
146.0500,88.3250
146.0500,88.8250
Z" /> 
<path style="fill:#000000; fill-opacity:1.0000; stroke:none;fill-rule:evenodd;"
d="M 144.3050,97.9650
144.2093,97.9460
144.1282,97.8918
144.0740,97.8107
144.0550,97.7150
144.0550,97.0400
144.0740,96.9443
144.1282,96.8632
144.2093,96.8090
144.3050,96.7900
145.2550,96.7900
145.3507,96.8090
145.4318,96.8632
145.4860,96.9443
145.5050,97.0400
145.5050,97.7150
145.4860,97.8107
145.4318,97.8918
145.3507,97.9460
145.2550,97.9650
Z" /> 
<path style="fill:#000000; fill-opacity:1.0000; stroke:none;fill-rule:evenodd;"
d="M 144.3050,95.8900
144.2093,95.8710
144.1282,95.8168
144.0740,95.7357
144.0550,95.6400
144.0550,94.9650
144.0740,94.8693
144.1282,94.7882
144.2093,94.7340
144.3050,94.7150
145.2550,94.7150
145.3507,94.7340
145.4318,94.7882
145.4860,94.8693
145.5050,94.9650
145.5050,95.6400
145.4860,95.7357
145.4318,95.8168
145.3507,95.8710
145.2550,95.8900
Z" /> 
<path style="fill:#000000; fill-opacity:1.0000; stroke:none;fill-rule:evenodd;"
d="M 144.1714,93.3703
144.1714,92.3797
145.3906,92.3797
145.3906,93.3703
Z" /> 
<path style="fill:#000000; fill-opacity:1.0000; stroke:none;fill-rule:evenodd;"
d="M 148.8704,93.3703
148.8704,92.3797
150.0896,92.3797
150.0896,93.3703
Z" /> 
<path style="fill:#000000; fill-opacity:1.0000; stroke:none;fill-rule:evenodd;"
d="M 148.8704,91.1703
148.8704,90.1797
150.0896,90.1797
150.0896,91.1703
Z" /> 
<path style="fill:#000000; fill-opacity:1.0000; stroke:none;fill-rule:evenodd;"
d="M 144.1714,91.1703
144.1714,90.1797
145.3906,90.1797
145.3906,91.1703
Z" /> 
<path style="fill:#000000; fill-opacity:1.0000; stroke:none;fill-rule:evenodd;"
d="M 152.0900,84.0150
152.0900,85.3850
150.7200,85.3850
150.7200,84.0150
Z" /> 
</g>
<g style="fill:#000000; fill-opacity:1.0000; stroke:none;">
<circle cx="148.8650" cy="84.7000" r="0.6850" /> 
</g>
<g style="fill:#000000; fill-opacity:1.0000; stroke:none;">
<circle cx="146.3250" cy="84.7000" r="0.6850" /> 
</g>
<g style="fill:#000000; fill-opacity:1.0000; stroke:none;">
<circle cx="143.7850" cy="84.7000" r="0.6850" /> 
</g>
<g style="fill:#000000; fill-opacity:1.0000; stroke:none;">
<circle cx="141.2450" cy="84.7000" r="0.6850" /> 
</g>
<g style="fill:#000000; fill-opacity:1.0000; stroke:none;">
<circle cx="138.7050" cy="84.7000" r="0.6850" /> 
</g>
<g style="fill:#000000; fill-opacity:1.0000; stroke:none;">
<circle cx="136.1650" cy="84.7000" r="0.6850" /> 
</g>
<g style="fill:#000000; fill-opacity:1.0000; stroke:none;">
<circle cx="133.6250" cy="84.7000" r="0.6850" /> 
</g>
<g style="fill:#000000; fill-opacity:1.0000; stroke:none;">
<circle cx="131.0850" cy="84.7000" r="0.6850" /> 
</g>
<g style="fill:#000000; fill-opacity:1.0000; stroke:none;">
<circle cx="128.5450" cy="84.7000" r="0.6850" /> 
</g>
<g style="fill:#000000; fill-opacity:1.0000; stroke:none;">
<circle cx="126.0050" cy="84.7000" r="0.6850" /> 
</g>
<g style="fill:#000000; fill-opacity:1.0000; stroke:none;">
<circle cx="123.4650" cy="84.7000" r="0.6850" /> 
</g>
<g style="fill:#000000; fill-opacity:1.0000; stroke:none;">
<circle cx="120.9250" cy="84.7000" r="0.6850" /> 
</g>
<g style="fill:#000000; fill-opacity:1.0000; stroke:none;">
<circle cx="118.3850" cy="84.7000" r="0.6850" /> 
</g>
<g style="fill:#000000; fill-opacity:1.0000; stroke:none;">
<circle cx="115.8450" cy="84.7000" r="0.6850" /> 
</g>
<g style="fill:#000000; fill-opacity:1.0000; stroke:none;">
<circle cx="150.9800" cy="97.9890" r="0.2000" /> 
</g>
<g style="fill:#000000; fill-opacity:1.0000; stroke:none;">
<circle cx="150.9800" cy="97.3100" r="0.2000" /> 
</g>
<g style="fill:#000000; fill-opacity:1.0000; stroke:none;">
<circle cx="149.7800" cy="97.9900" r="0.2000" /> 
</g>
<g style="fill:#000000; fill-opacity:1.0000; stroke:none;">
<circle cx="149.2800" cy="97.9900" r="0.2000" /> 
</g>
<g style="fill:#000000; fill-opacity:1.0000; stroke:none;">
<circle cx="148.7800" cy="97.9900" r="0.2000" /> 
</g>
<g style="fill:#000000; fill-opacity:1.0000; stroke:none;">
<circle cx="149.7400" cy="97.0400" r="0.2000" /> 
</g>
<g style="fill:#000000; fill-opacity:1.0000; stroke:none;">
<circle cx="148.9200" cy="97.0400" r="0.2000" /> 
</g>
<g style="fill:#000000; fill-opacity:1.0000; stroke:none;">
<circle cx="149.7800" cy="94.5300" r="0.2000" /> 
</g>
<g style="fill:#000000; fill-opacity:1.0000; stroke:none;">
<circle cx="149.2800" cy="94.5300" r="0.2000" /> 
</g>
<g style="fill:#000000; fill-opacity:1.0000; stroke:none;">
<circle cx="148.7800" cy="94.5300" r="0.2000" /> 
</g>
<g style="fill:#000000; fill-opacity:1.0000; stroke:none;">
<circle cx="149.7400" cy="95.4800" r="0.2000" /> 
</g>
<g style="fill:#000000; fill-opacity:1.0000; stroke:none;">
<circle cx="148.9200" cy="95.4800" r="0.2000" /> 
</g>
<g style="fill:#000000; fill-opacity:1.0000; stroke:none;">
<circle cx="150.7800" cy="95.2090" r="0.2000" /> 
</g>
<g style="fill:#000000; fill-opacity:1.0000; stroke:none;">
<circle cx="150.7800" cy="94.5300" r="0.2000" /> 
</g>
<g style="fill:#000000; fill-opacity:1.0000; stroke:none;">
<circle cx="151.5600" cy="96.2600" r="0.2000" /> 
</g>
<g style="fill:#000000; fill-opacity:1.0000; stroke:none;">
<circle cx="150.5600" cy="96.2600" r="0.2000" /> 
</g>
<g style="fill:#000000; fill-opacity:1.0000; stroke:none;">
<circle cx="149.5600" cy="96.2600" r="0.2000" /> 
</g>
<g style="fill:#000000; fill-opacity:1.0000; stroke:none;">
<circle cx="148.5600" cy="96.2600" r="0.2000" /> 
<path style="fill:#000000; fill-opacity:1.0000; stroke:none;fill-rule:evenodd;"
d="M 115.8750,87.5250
115.8750,89.2250
114.1750,89.2250
114.1750,87.5250
Z" /> 
</g>
<g style="fill:#000000; fill-opacity:1.0000; stroke:none;">
<circle cx="115.0250" cy="90.9150" r="0.8500" /> 
</g>
<g style="fill:#000000; fill-opacity:1.0000; stroke:none;">
<circle cx="115.0250" cy="93.4550" r="0.8500" /> 
</g>
<g style="fill:#000000; fill-opacity:1.0000; stroke:none;">
<circle cx="115.0250" cy="95.9950" r="0.8500" /> 
</g>
<g style="fill:#000000; fill-opacity:1.0000; stroke:none;">
<circle cx="131.3750" cy="95.1000" r="0.3000" /> 
</g>
<g style="fill:#000000; fill-opacity:1.0000; stroke:none;">
<circle cx="135.7250" cy="95.1750" r="0.3000" /> 
</g>
<g style="fill:#000000; fill-opacity:1.0000; stroke:none;">
<circle cx="143.9193" cy="87.0450" r="0.3000" /> 
</g>
<g style="fill:#000000; fill-opacity:1.0000; stroke:none;">
<circle cx="152.9313" cy="91.9431" r="0.3000" /> 
</g>
<g style="fill:#000000; fill-opacity:1.0000; stroke:none;">
<circle cx="148.4200" cy="89.2787" r="0.3000" /> 
</g>
<g style="fill:#000000; fill-opacity:1.0000; stroke:none;">
<circle cx="119.5900" cy="92.4300" r="0.3000" /> 
</g>
<g style="fill:#000000; fill-opacity:1.0000; stroke:none;">
<circle cx="150.8250" cy="90.4787" r="0.3000" /> 
</g>
<g style="fill:#000000; fill-opacity:1.0000; stroke:none;">
<circle cx="162.2900" cy="86.2300" r="0.3000" /> 
</g>
<g style="fill:#000000; fill-opacity:1.0000; stroke:none;">
<circle cx="156.3928" cy="95.3928" r="0.3000" /> 
</g>
<g style="fill:#000000; fill-opacity:1.0000; stroke:none;">
<circle cx="134.1250" cy="93.5750" r="0.3000" /> 
</g>
<g style="fill:#000000; fill-opacity:1.0000; stroke:none;">
<circle cx="116.7800" cy="91.8200" r="0.3000" /> 
</g>
<g style="fill:#000000; fill-opacity:1.0000; stroke:none;">
<circle cx="164.3700" cy="92.0300" r="0.3000" /> 
</g>
<g style="fill:#000000; fill-opacity:1.0000; stroke:none;">
<circle cx="152.2100" cy="93.2600" r="0.3000" /> 
</g>
<g style="fill:#000000; fill-opacity:1.0000; stroke:none;">
<circle cx="152.3500" cy="91.3300" r="0.3000" /> 
</g>
<g style="fill:#000000; fill-opacity:1.0000; stroke:none;">
<circle cx="139.9250" cy="94.8750" r="0.3000" /> 
</g>
<g style="fill:#000000; fill-opacity:1.0000; stroke:none;">
<circle cx="130.6500" cy="90.8750" r="0.3000" /> 
</g>
<g style="fill:#000000; fill-opacity:1.0000; stroke:none;">
<circle cx="140.0000" cy="89.3000" r="0.3000" /> 
</g>
<g style="fill:#000000; fill-opacity:1.0000; stroke:none;">
<circle cx="126.6100" cy="88.8750" r="0.3000" /> 
</g>
<g style="fill:#000000; fill-opacity:1.0000; stroke:none;">
<circle cx="135.1500" cy="88.3000" r="0.3000" /> 
</g>
<g style="fill:#000000; fill-opacity:1.0000; stroke:none;">
<circle cx="131.8625" cy="91.9875" r="0.3000" /> 
</g>
<g style="fill:#000000; fill-opacity:1.0000; stroke:none;">
<circle cx="127.7000" cy="89.4500" r="0.3000" /> 
</g>
<g style="fill:#000000; fill-opacity:1.0000; stroke:none;">
<circle cx="137.8375" cy="93.7125" r="0.3000" /> 
</g>
<g style="fill:#000000; fill-opacity:1.0000; stroke:none;">
<circle cx="164.5010" cy="89.2300" r="0.3000" /> 
</g>
<g style="fill:#000000; fill-opacity:1.0000; stroke:none;">
<circle cx="142.2450" cy="92.9450" r="0.3000" /> 
</g>
<g style="fill:#000000; fill-opacity:1.0000; stroke:none;">
<circle cx="142.3625" cy="91.4375" r="0.3000" /> 
</g>
<g style="fill:#000000; fill-opacity:1.0000; stroke:none;">
<circle cx="160.7100" cy="86.3600" r="0.3000" /> 
</g>
<g style="fill:#000000; fill-opacity:1.0000; stroke:none;">
<circle cx="165.9800" cy="88.0200" r="0.3000" /> 
</g>
<g style="fill:#000000; fill-opacity:1.0000; stroke:none;">
<circle cx="167.4489" cy="93.2774" r="0.3000" /> 
</g>
<g style="fill:#000000; fill-opacity:1.0000; stroke:none;">
<circle cx="134.9500" cy="86.8500" r="0.3000" /> 
</g>
<g style="fill:#000000; fill-opacity:1.0000; stroke:none;">
<circle cx="160.1000" cy="98.1250" r="0.3000" /> 
</g>
<g style="fill:#000000; fill-opacity:1.0000; stroke:none;">
<circle cx="139.2500" cy="93.1750" r="0.3000" /> 
</g>
<g style="fill:#000000; fill-opacity:1.0000; stroke:none;">
<circle cx="145.1900" cy="97.3650" r="0.3000" /> 
</g>
<g style="fill:#000000; fill-opacity:1.0000; stroke:none;">
<circle cx="149.3350" cy="97.4600" r="0.3000" /> 
</g>
<g style="fill:#000000; fill-opacity:1.0000; stroke:none;">
<circle cx="153.0375" cy="95.1525" r="0.3000" /> 
</g>
<g style="fill:#000000; fill-opacity:1.0000; stroke:none;">
<circle cx="146.7300" cy="94.2150" r="0.3000" /> 
</g>
<g style="fill:#000000; fill-opacity:1.0000; stroke:none;">
<circle cx="153.8500" cy="94.2625" r="0.3000" /> 
</g>
<g style="fill:#000000; fill-opacity:1.0000; stroke:none;">
<circle cx="153.6000" cy="96.7400" r="0.3000" /> 
</g>
<g style="fill:none; 
stroke:#000000; stroke-width:0.4000; stroke-opacity:1; 
stroke-linecap:round; stroke-linejoin:round;">
<path d="M146.3250 84.6900
L146.3250 86.3250
" />
<path d="M145.3000 87.3500
L145.3000 87.5250
" />
<path d="M146.3250 86.3250
L145.3000 87.3500
" />
</g>
<g style="fill:none; 
stroke:#000000; stroke-width:0.5000; stroke-opacity:1; 
stroke-linecap:round; stroke-linejoin:round;">
<path d="M137.8900 97.2125
L137.8525 97.1750
" />
<path d="M121.1350 97.1750
L118.3800 99.9300
" />
<path d="M137.8525 97.1750
L121.1350 97.1750
" />
</g>
<g style="fill:none; 
stroke:#000000; stroke-width:0.3000; stroke-opacity:1; 
stroke-linecap:round; stroke-linejoin:round;">
<path d="M149.9687 87.7300
L148.4200 89.2787
" />
</g>
<g style="fill:none; 
stroke:#000000; stroke-width:0.4000; stroke-opacity:1; 
stroke-linecap:round; stroke-linejoin:round;">
<path d="M143.7850 84.7000
L143.7850 86.9107
" />
</g>
<g style="fill:none; 
stroke:#000000; stroke-width:0.2000; stroke-opacity:1; 
stroke-linecap:round; stroke-linejoin:round;">
<path d="M152.9510 91.9234
L152.9313 91.9431
" />
</g>
<g style="fill:none; 
stroke:#000000; stroke-width:0.5000; stroke-opacity:1; 
stroke-linecap:round; stroke-linejoin:round;">
<path d="M158.3750 97.3750
L161.1250 97.3750
" />
</g>
<g style="fill:none; 
stroke:#000000; stroke-width:0.2000; stroke-opacity:1; 
stroke-linecap:round; stroke-linejoin:round;">
<path d="M163.3000 91.8100
L162.2600 90.7700
" />
</g>
<g style="fill:none; 
stroke:#000000; stroke-width:0.4000; stroke-opacity:1; 
stroke-linecap:round; stroke-linejoin:round;">
<path d="M117.3900 92.4300
L116.7800 91.8200
" />
</g>
<g style="fill:none; 
stroke:#000000; stroke-width:0.2000; stroke-opacity:1; 
stroke-linecap:round; stroke-linejoin:round;">
<path d="M150.8250 90.4787
L152.3486 90.4787
" />
</g>
<g style="fill:none; 
stroke:#000000; stroke-width:0.3000; stroke-opacity:1; 
stroke-linecap:round; stroke-linejoin:round;">
<path d="M161.5090 87.0110
L162.2900 86.2300
" />
</g>
<g style="fill:none; 
stroke:#000000; stroke-width:0.5000; stroke-opacity:1; 
stroke-linecap:round; stroke-linejoin:round;">
<path d="M161.1250 97.3750
L162.2600 96.2400
" />
<path d="M147.6250 95.2750
L145.5375 95.2750
" />
</g>
<g style="fill:none; 
stroke:#000000; stroke-width:0.3000; stroke-opacity:1; 
stroke-linecap:round; stroke-linejoin:round;">
<path d="M155.6600 87.7300
L156.3790 87.0110
" />
</g>
<g style="fill:none; 
stroke:#000000; stroke-width:0.5000; stroke-opacity:1; 
stroke-linecap:round; stroke-linejoin:round;">
<path d="M156.3928 95.3928
L158.3750 97.3750
" />
</g>
<g style="fill:none; 
stroke:#000000; stroke-width:0.3000; stroke-opacity:1; 
stroke-linecap:round; stroke-linejoin:round;">
<path d="M156.3790 87.0110
L161.5090 87.0110
" />
</g>
<g style="fill:none; 
stroke:#000000; stroke-width:0.5000; stroke-opacity:1; 
stroke-linecap:round; stroke-linejoin:round;">
<path d="M162.2600 96.2400
L162.2600 94.8500
" />
<path d="M148.5600 96.2600
L148.5600 96.2100
" />
</g>
<g style="fill:none; 
stroke:#000000; stroke-width:0.2000; stroke-opacity:1; 
stroke-linecap:round; stroke-linejoin:round;">
<path d="M164.3700 92.0300
L164.1500 91.8100
" />
<path d="M164.1500 91.8100
L163.3000 91.8100
" />
</g>
<g style="fill:none; 
stroke:#000000; stroke-width:0.5000; stroke-opacity:1; 
stroke-linecap:round; stroke-linejoin:round;">
<path d="M145.5375 95.2750
L145.5250 95.2625
" />
</g>
<g style="fill:none; 
stroke:#000000; stroke-width:0.2000; stroke-opacity:1; 
stroke-linecap:round; stroke-linejoin:round;">
<path d="M152.3486 90.4787
L152.9510 91.0811
" />
</g>
<g style="fill:none; 
stroke:#000000; stroke-width:0.5000; stroke-opacity:1; 
stroke-linecap:round; stroke-linejoin:round;">
<path d="M148.5600 96.2100
L147.6250 95.2750
" />
</g>
<g style="fill:none; 
stroke:#000000; stroke-width:0.4000; stroke-opacity:1; 
stroke-linecap:round; stroke-linejoin:round;">
<path d="M135.7250 95.1750
L134.1250 93.5750
" />
</g>
<g style="fill:none; 
stroke:#000000; stroke-width:0.3000; stroke-opacity:1; 
stroke-linecap:round; stroke-linejoin:round;">
<path d="M155.6600 87.7300
L149.9687 87.7300
" />
</g>
<g style="fill:none; 
stroke:#000000; stroke-width:0.2000; stroke-opacity:1; 
stroke-linecap:round; stroke-linejoin:round;">
<path d="M152.9510 91.0811
L152.9510 91.9234
" />
</g>
<g style="fill:none; 
stroke:#000000; stroke-width:0.4000; stroke-opacity:1; 
stroke-linecap:round; stroke-linejoin:round;">
<path d="M143.7850 86.9107
L143.9193 87.0450
" />
<path d="M132.9000 93.5750
L134.1250 93.5750
" />
<path d="M131.3750 95.1000
L132.9000 93.5750
" />
</g>
<g style="fill:none; 
stroke:#000000; stroke-width:0.5000; stroke-opacity:1; 
stroke-linecap:round; stroke-linejoin:round;">
<path d="M145.5250 95.2625
L142.8100 95.2625
" />
</g>
<g style="fill:none; 
stroke:#000000; stroke-width:0.4000; stroke-opacity:1; 
stroke-linecap:round; stroke-linejoin:round;">
<path d="M119.5900 92.4300
L117.3900 92.4300
" />
</g>
<g style="fill:none; 
stroke:#000000; stroke-width:0.5000; stroke-opacity:1; 
stroke-linecap:round; stroke-linejoin:round;">
<path d="M142.8100 95.2625
L142.7800 95.2925
" />
<path d="M142.2685 98.4185
L142.2750 98.4250
" />
<path d="M139.1900 97.8574
L139.7511 98.4185
" />
<path d="M139.1900 97.2125
L139.1900 97.8574
" />
<path d="M139.7511 98.4185
L142.2685 98.4185
" />
<path d="M142.2750 98.4250
L143.7800 99.9300
" />
</g>
<g style="fill:none; 
stroke:#000000; stroke-width:0.4000; stroke-opacity:1; 
stroke-linecap:round; stroke-linejoin:round;">
<path d="M143.7550 99.9300
L143.7850 99.9300
" />
<path d="M141.2750 84.7200
L141.2450 84.6900
" />
</g>
<g style="fill:none; 
stroke:#000000; stroke-width:0.2000; stroke-opacity:1; 
stroke-linecap:round; stroke-linejoin:round;">
<path d="M136.1650 84.7000
L138.7000 87.2350
" />
</g>
<g style="fill:none; 
stroke:#000000; stroke-width:0.4000; stroke-opacity:1; 
stroke-linecap:round; stroke-linejoin:round;">
<path d="M138.7000 87.5500
L138.7500 87.5000
" />
</g>
<g style="fill:none; 
stroke:#000000; stroke-width:0.2000; stroke-opacity:1; 
stroke-linecap:round; stroke-linejoin:round;">
<path d="M138.7000 87.2350
L138.7000 87.5500
" />
</g>
<g style="fill:none; 
stroke:#000000; stroke-width:0.4000; stroke-opacity:1; 
stroke-linecap:round; stroke-linejoin:round;">
<path d="M141.2450 87.2700
L141.2750 87.3000
" />
</g>
<g style="fill:none; 
stroke:#000000; stroke-width:0.2000; stroke-opacity:1; 
stroke-linecap:round; stroke-linejoin:round;">
<path d="M141.2750 87.5500
L138.7050 84.9800
" />
</g>
<g style="fill:none; 
stroke:#000000; stroke-width:0.4000; stroke-opacity:1; 
stroke-linecap:round; stroke-linejoin:round;">
<path d="M138.7500 84.7350
L138.7050 84.6900
" />
</g>
<g style="fill:none; 
stroke:#000000; stroke-width:0.2000; stroke-opacity:1; 
stroke-linecap:round; stroke-linejoin:round;">
<path d="M138.7050 84.9800
L138.7050 84.7000
" />
<path d="M152.5349 93.2750
L157.0799 88.7300
" />
<path d="M152.2250 93.2750
L152.5349 93.2750
" />
</g>
<g style="fill:none; 
stroke:#000000; stroke-width:0.4000; stroke-opacity:1; 
stroke-linecap:round; stroke-linejoin:round;">
<path d="M152.1800 93.2600
L151.9950 93.0750
" />
</g>
<g style="fill:none; 
stroke:#000000; stroke-width:0.2000; stroke-opacity:1; 
stroke-linecap:round; stroke-linejoin:round;">
<path d="M152.2100 93.2600
L152.2250 93.2750
" />
</g>
<g style="fill:none; 
stroke:#000000; stroke-width:0.4000; stroke-opacity:1; 
stroke-linecap:round; stroke-linejoin:round;">
<path d="M149.6800 93.0750
L149.4800 92.8750
" />
<path d="M152.2100 93.2600
L152.1800 93.2600
" />
</g>
<g style="fill:none; 
stroke:#000000; stroke-width:0.2000; stroke-opacity:1; 
stroke-linecap:round; stroke-linejoin:round;">
<path d="M157.0799 88.7300
L162.2600 88.7300
" />
</g>
<g style="fill:none; 
stroke:#000000; stroke-width:0.4000; stroke-opacity:1; 
stroke-linecap:round; stroke-linejoin:round;">
<path d="M151.9950 93.0750
L149.6800 93.0750
" />
<path d="M152.3300 91.3500
L150.1550 91.3500
" />
<path d="M152.3500 91.3300
L152.3300 91.3500
" />
<path d="M150.1550 91.3500
L149.4800 90.6750
" />
<path d="M115.1200 95.9000
L115.0250 95.9950
" />
<path d="M139.9250 94.8750
L138.9000 95.9000
" />
<path d="M138.9000 95.9000
L115.1200 95.9000
" />
<path d="M135.1625 89.4625
L138.0875 89.4625
" />
<path d="M115.0250 90.9150
L115.1300 91.0200
" />
<path d="M138.0875 89.4625
L138.7500 88.8000
" />
<path d="M115.1300 91.0200
L130.5050 91.0200
" />
<path d="M130.6500 90.8750
L133.7500 90.8750
" />
<path d="M130.5050 91.0200
L130.6500 90.8750
" />
<path d="M133.7500 90.8750
L135.1625 89.4625
" />
<path d="M115.5250 88.8750
L115.0250 88.3750
" />
<path d="M126.6100 88.8750
L115.5250 88.8750
" />
<path d="M140.0000 89.3000
L140.8250 89.3000
" />
<path d="M126.6100 88.8750
L126.6500 88.8750
" />
<path d="M126.6500 88.8750
L127.2250 88.3000
" />
<path d="M127.2250 88.3000
L135.1500 88.3000
" />
<path d="M140.8250 89.3000
L141.2750 88.8500
" />
<path d="M138.6365 90.0635
L136.7125 91.9875
" />
<path d="M142.4365 90.0635
L138.6365 90.0635
" />
<path d="M115.1300 93.5600
L115.0250 93.4550
" />
<path d="M143.6750 88.8250
L142.4365 90.0635
" />
<path d="M131.8625 91.9875
L130.2900 93.5600
" />
<path d="M145.3000 88.8250
L143.6750 88.8250
" />
<path d="M130.2900 93.5600
L115.1300 93.5600
" />
<path d="M136.7125 91.9875
L131.8625 91.9875
" />
<path d="M127.7000 89.4500
L127.5000 89.6500
" />
<path d="M113.4750 97.5600
L115.8450 99.9300
" />
<path d="M114.3000 89.6500
L113.4750 90.4750
" />
<path d="M113.4750 90.4750
L113.4750 97.5600
" />
<path d="M127.5000 89.6500
L114.3000 89.6500
" />
</g>
<g style="fill:none; 
stroke:#000000; stroke-width:0.2000; stroke-opacity:1; 
stroke-linecap:round; stroke-linejoin:round;">
<path d="M164.5010 89.2300
L164.5010 88.9690
" />
<path d="M163.0020 87.4700
L157.7550 87.4700
" />
<path d="M155.3463 89.8787
L143.3298 89.8787
" />
<path d="M140.7135 90.8365
L137.8375 93.7125
" />
<path d="M164.5010 88.9690
L163.0020 87.4700
" />
<path d="M142.3720 90.8365
L140.7135 90.8365
" />
<path d="M143.3298 89.8787
L142.3720 90.8365
" />
<path d="M157.7550 87.4700
L155.3463 89.8787
" />
</g>
<g style="fill:none; 
stroke:#000000; stroke-width:0.4000; stroke-opacity:1; 
stroke-linecap:round; stroke-linejoin:round;">
<path d="M142.2450 92.9450
L144.7110 92.9450
" />
<path d="M144.7110 92.9450
L144.7810 92.8750
" />
<path d="M144.0185 91.4375
L144.7810 90.6750
" />
<path d="M142.3625 91.4375
L144.0185 91.4375
" />
<path d="M150.9800 97.3100
L151.1600 97.3100
" />
<path d="M151.1610 97.9490
L150.9800 97.9490
" />
<path d="M154.4750 97.3500
L154.4750 96.3193
" />
<path d="M151.5000 97.6500
L154.1750 97.6500
" />
<path d="M151.1600 97.3100
L151.5000 97.6500
" />
<path d="M154.4750 96.3193
L156.1025 94.6918
" />
<path d="M156.1025 94.6918
L159.3018 94.6918
" />
<path d="M151.5000 97.6500
L151.4600 97.6500
" />
<path d="M151.4600 97.6500
L151.1610 97.9490
" />
<path d="M159.3018 94.6918
L160.4800 95.8700
" />
<path d="M154.1750 97.6500
L154.4750 97.3500
" />
</g>
<g style="fill:none; 
stroke:#000000; stroke-width:0.2000; stroke-opacity:1; 
stroke-linecap:round; stroke-linejoin:round;">
<path d="M165.5978 84.0240
L163.4023 84.0240
" />
<path d="M166.7260 85.1522
L165.5978 84.0240
" />
<path d="M161.0663 86.3600
L160.7100 86.3600
" />
<path d="M166.7260 87.2740
L166.7260 85.1522
" />
<path d="M165.9800 88.0200
L166.7260 87.2740
" />
<path d="M163.4023 84.0240
L161.0663 86.3600
" />
</g>
<g style="fill:none; 
stroke:#000000; stroke-width:0.5000; stroke-opacity:1; 
stroke-linecap:round; stroke-linejoin:round;">
<path d="M145.5250 97.3375
L142.8100 97.3375
" />
</g>
<g style="fill:none; 
stroke:#000000; stroke-width:0.2000; stroke-opacity:1; 
stroke-linecap:round; stroke-linejoin:round;">
<path d="M160.0950 98.1250
L160.1000 98.1250
" />
<path d="M149.7800 97.9900
L150.2400 98.4500
" />
</g>
<g style="fill:none; 
stroke:#000000; stroke-width:0.5000; stroke-opacity:1; 
stroke-linecap:round; stroke-linejoin:round;">
<path d="M149.2750 97.5200
L145.3475 97.5200
" />
</g>
<g style="fill:none; 
stroke:#000000; stroke-width:0.4000; stroke-opacity:1; 
stroke-linecap:round; stroke-linejoin:round;">
<path d="M139.2500 93.1750
L140.6300 94.5550
" />
<path d="M140.6300 97.0725
L140.4900 97.2125
" />
</g>
<g style="fill:none; 
stroke:#000000; stroke-width:0.5000; stroke-opacity:1; 
stroke-linecap:round; stroke-linejoin:round;">
<path d="M142.8100 97.3375
L142.7800 97.3675
" />
</g>
<g style="fill:none; 
stroke:#000000; stroke-width:0.4000; stroke-opacity:1; 
stroke-linecap:round; stroke-linejoin:round;">
<path d="M136.3250 87.2250
L136.3250 87.3875
" />
<path d="M140.6300 94.5550
L140.6300 97.0725
" />
</g>
<g style="fill:none; 
stroke:#000000; stroke-width:0.2000; stroke-opacity:1; 
stroke-linecap:round; stroke-linejoin:round;">
<path d="M150.2400 98.4500
L151.8750 98.4500
" />
</g>
<g style="fill:none; 
stroke:#000000; stroke-width:0.5000; stroke-opacity:1; 
stroke-linecap:round; stroke-linejoin:round;">
<path d="M145.1925 97.3650
L145.1900 97.3650
" />
</g>
<g style="fill:none; 
stroke:#000000; stroke-width:0.2000; stroke-opacity:1; 
stroke-linecap:round; stroke-linejoin:round;">
<path d="M167.4489 93.2774
L162.6012 98.1250
" />
</g>
<g style="fill:none; 
stroke:#000000; stroke-width:0.4000; stroke-opacity:1; 
stroke-linecap:round; stroke-linejoin:round;">
<path d="M135.9500 86.8500
L136.3250 87.2250
" />
<path d="M142.7800 97.3675
L142.6325 97.2200
" />
<path d="M134.9500 86.8500
L135.9500 86.8500
" />
</g>
<g style="fill:none; 
stroke:#000000; stroke-width:0.2000; stroke-opacity:1; 
stroke-linecap:round; stroke-linejoin:round;">
<path d="M149.7800 97.9900
L148.7800 97.9900
" />
<path d="M153.6000 100.1750
L158.0450 100.1750
" />
</g>
<g style="fill:none; 
stroke:#000000; stroke-width:0.5000; stroke-opacity:1; 
stroke-linecap:round; stroke-linejoin:round;">
<path d="M149.3350 97.4600
L149.2750 97.5200
" />
<path d="M145.1950 97.3375
L145.5250 97.3375
" />
</g>
<g style="fill:none; 
stroke:#000000; stroke-width:0.2000; stroke-opacity:1; 
stroke-linecap:round; stroke-linejoin:round;">
<path d="M162.6012 98.1250
L160.1000 98.1250
" />
<path d="M151.8750 98.4500
L153.6000 100.1750
" />
</g>
<g style="fill:none; 
stroke:#000000; stroke-width:0.4000; stroke-opacity:1; 
stroke-linecap:round; stroke-linejoin:round;">
<path d="M142.6325 97.2200
L140.4975 97.2200
" />
</g>
<g style="fill:none; 
stroke:#000000; stroke-width:0.5000; stroke-opacity:1; 
stroke-linecap:round; stroke-linejoin:round;">
<path d="M145.3475 97.5200
L145.1925 97.3650
" />
</g>
<g style="fill:none; 
stroke:#000000; stroke-width:0.2000; stroke-opacity:1; 
stroke-linecap:round; stroke-linejoin:round;">
<path d="M158.0450 100.1750
L160.0950 98.1250
" />
</g>
<g style="fill:none; 
stroke:#000000; stroke-width:0.5000; stroke-opacity:1; 
stroke-linecap:round; stroke-linejoin:round;">
<path d="M145.1900 97.3650
L145.1900 97.3425
" />
<path d="M145.1900 97.3425
L145.1950 97.3375
" />
</g>
<g style="fill:none; 
stroke:#000000; stroke-width:0.4000; stroke-opacity:1; 
stroke-linecap:round; stroke-linejoin:round;">
<path d="M140.4975 97.2200
L140.4900 97.2125
" />
</g>
<g style="fill:none; 
stroke:#000000; stroke-width:0.2000; stroke-opacity:1; 
stroke-linecap:round; stroke-linejoin:round;">
<path d="M147.1150 93.8300
L146.7300 94.2150
" />
<path d="M153.0375 95.1525
L151.7150 93.8300
" />
<path d="M151.7150 93.8300
L147.1150 93.8300
" />
<path d="M153.7750 94.3375
L153.8500 94.2625
" />
<path d="M153.6000 96.7400
L153.6000 96.6345
" />
<path d="M153.6000 96.6345
L153.7750 96.4595
" />
<path d="M153.7750 96.4595
L153.7750 94.3375
" />
<path style="fill:#000000; fill-opacity:1.0000; stroke:none;fill-rule:evenodd;"
d="M 148.3108,95.8689
148.3207,95.8825
148.3223,95.8809
148.5514,96.1100
148.5302,96.1100
148.4750,96.1328
148.4328,96.1750
148.4100,96.2302
148.4100,96.2514
148.2154,96.0568
148.1873,96.1056
148.1600,96.2073
148.1600,96.3127
148.1873,96.4144
148.2154,96.4632
148.4100,96.2686
148.4100,96.2898
148.4328,96.3450
148.4750,96.3872
148.5302,96.4100
148.5514,96.4100
148.3426,96.6188
148.3409,96.6282
148.2965,96.6704
148.2539,96.6800
147.9228,96.6800
147.9073,96.6788
147.8022,96.6621
147.7728,96.6526
147.6850,96.6079
147.6600,96.5897
147.5903,96.5200
147.5721,96.4950
147.5311,96.4144
147.5274,96.4072
147.5179,96.3778
147.5025,96.2805
147.5025,96.2495
147.5179,96.1522
147.5274,96.1228
147.5721,96.0350
147.5903,96.0100
147.6600,95.9403
147.6850,95.9221
147.7728,95.8774
147.8022,95.8679
147.9073,95.8512
147.9228,95.8500
148.2526,95.8500
Z" /> 
<path style="fill:#000000; fill-opacity:1.0000; stroke:none;fill-rule:evenodd;"
d="M 149.3108,95.8689
149.3207,95.8825
149.3223,95.8809
149.5514,96.1100
149.5302,96.1100
149.4750,96.1328
149.4328,96.1750
149.4100,96.2302
149.4100,96.2514
149.2154,96.0568
149.1873,96.1056
149.1600,96.2073
149.1600,96.3127
149.1873,96.4144
149.2154,96.4632
149.4100,96.2686
149.4100,96.2898
149.4328,96.3450
149.4750,96.3872
149.5302,96.4100
149.5514,96.4100
149.3426,96.6188
149.3409,96.6282
149.2965,96.6704
149.2539,96.6800
148.8661,96.6800
148.8079,96.6611
148.7767,96.6182
148.5686,96.4100
148.5898,96.4100
148.6450,96.3872
148.6872,96.3450
148.7100,96.2898
148.7100,96.2686
148.9046,96.4632
148.9327,96.4144
148.9600,96.3127
148.9600,96.2073
148.9327,96.1056
148.9046,96.0568
148.9046,96.0568
148.7100,96.2514
148.7100,96.2302
148.6872,96.1750
148.6450,96.1328
148.5898,96.1100
148.5686,96.1100
148.7977,95.8809
148.8000,95.8832
148.8248,95.8597
148.8674,95.8500
149.2526,95.8500
Z" /> 
<path style="fill:#000000; fill-opacity:1.0000; stroke:none;fill-rule:evenodd;"
d="M 150.3108,95.8689
150.3207,95.8825
150.3223,95.8809
150.5514,96.1100
150.5302,96.1100
150.4750,96.1328
150.4328,96.1750
150.4100,96.2302
150.4100,96.2514
150.2154,96.0568
150.1873,96.1056
150.1600,96.2073
150.1600,96.3127
150.1873,96.4144
150.2154,96.4632
150.4100,96.2686
150.4100,96.2898
150.4328,96.3450
150.4750,96.3872
150.5302,96.4100
150.5514,96.4100
150.3426,96.6188
150.3409,96.6282
150.2965,96.6704
150.2539,96.6800
149.8661,96.6800
149.8079,96.6611
149.7767,96.6182
149.5686,96.4100
149.5898,96.4100
149.6450,96.3872
149.6872,96.3450
149.7100,96.2898
149.7100,96.2686
149.9046,96.4632
149.9327,96.4144
149.9600,96.3127
149.9600,96.2073
149.9327,96.1056
149.9046,96.0568
149.9046,96.0568
149.7100,96.2514
149.7100,96.2302
149.6872,96.1750
149.6450,96.1328
149.5898,96.1100
149.5686,96.1100
149.7977,95.8809
149.8000,95.8832
149.8248,95.8597
149.8674,95.8500
150.2526,95.8500
Z" /> 
<path style="fill:#000000; fill-opacity:1.0000; stroke:none;fill-rule:evenodd;"
d="M 151.3108,95.8689
151.3207,95.8825
151.3223,95.8809
151.5514,96.1100
151.5302,96.1100
151.4750,96.1328
151.4328,96.1750
151.4100,96.2302
151.4100,96.2514
151.2154,96.0568
151.1873,96.1056
151.1600,96.2073
151.1600,96.3127
151.1873,96.4144
151.2154,96.4632
151.4100,96.2686
151.4100,96.2898
151.4328,96.3450
151.4750,96.3872
151.5302,96.4100
151.5514,96.4100
151.3426,96.6188
151.3409,96.6282
151.2965,96.6704
151.2539,96.6800
150.8661,96.6800
150.8079,96.6611
150.7767,96.6182
150.5686,96.4100
150.5898,96.4100
150.6450,96.3872
150.6872,96.3450
150.7100,96.2898
150.7100,96.2686
150.9046,96.4632
150.9327,96.4144
150.9600,96.3127
150.9600,96.2073
150.9327,96.1056
150.9046,96.0568
150.9046,96.0568
150.7100,96.2514
150.7100,96.2302
150.6872,96.1750
150.6450,96.1328
150.5898,96.1100
150.5686,96.1100
150.7977,95.8809
150.8000,95.8832
150.8248,95.8597
150.8674,95.8500
151.2526,95.8500
Z" /> 
<path style="fill:#000000; fill-opacity:1.0000; stroke:none;fill-rule:evenodd;"
d="M 152.1927,95.8512
152.2978,95.8679
152.3272,95.8774
152.4150,95.9221
152.4400,95.9403
152.5097,96.0100
152.5279,96.0350
152.5726,96.1228
152.5821,96.1522
152.5975,96.2495
152.5975,96.2805
152.5821,96.3778
152.5726,96.4072
152.5279,96.4950
152.5097,96.5200
152.4400,96.5897
152.4150,96.6079
152.3272,96.6526
152.2978,96.6621
152.2459,96.6704
152.1927,96.6788
152.1772,96.6800
151.8661,96.6800
151.8079,96.6611
151.7767,96.6182
151.5686,96.4100
151.5898,96.4100
151.6450,96.3872
151.6872,96.3450
151.7100,96.2898
151.7100,96.2686
151.9046,96.4632
151.9327,96.4144
151.9600,96.3127
151.9600,96.2073
151.9327,96.1056
151.9046,96.0568
151.9046,96.0568
151.7100,96.2514
151.7100,96.2302
151.6872,96.1750
151.6450,96.1328
151.5898,96.1100
151.5686,96.1100
151.7977,95.8809
151.8000,95.8832
151.8248,95.8597
151.8674,95.8500
152.1772,95.8500
Z" /> 
</g> 
</svg>
