%TF.GenerationSoftware,KiCad,Pcbnew,9.0.1*%
%TF.CreationDate,2025-04-21T23:50:01-04:00*%
%TF.ProjectId,can-nano-shield,63616e2d-6e61-46e6-9f2d-736869656c64,rev?*%
%TF.SameCoordinates,Original*%
%TF.FileFunction,Copper,L1,Top*%
%TF.FilePolarity,Positive*%
%FSLAX46Y46*%
G04 Gerber Fmt 4.6, Leading zero omitted, Abs format (unit mm)*
G04 Created by KiCad (PCBNEW 9.0.1) date 2025-04-21 23:50:01*
%MOMM*%
%LPD*%
G01*
G04 APERTURE LIST*
G04 Aperture macros list*
%AMRoundRect*
0 Rectangle with rounded corners*
0 $1 Rounding radius*
0 $2 $3 $4 $5 $6 $7 $8 $9 X,Y pos of 4 corners*
0 Add a 4 corners polygon primitive as box body*
4,1,4,$2,$3,$4,$5,$6,$7,$8,$9,$2,$3,0*
0 Add four circle primitives for the rounded corners*
1,1,$1+$1,$2,$3*
1,1,$1+$1,$4,$5*
1,1,$1+$1,$6,$7*
1,1,$1+$1,$8,$9*
0 Add four rect primitives between the rounded corners*
20,1,$1+$1,$2,$3,$4,$5,0*
20,1,$1+$1,$4,$5,$6,$7,0*
20,1,$1+$1,$6,$7,$8,$9,0*
20,1,$1+$1,$8,$9,$2,$3,0*%
%AMFreePoly0*
4,1,23,0.500000,-0.750000,0.000000,-0.750000,0.000000,-0.745722,-0.065263,-0.745722,-0.191342,-0.711940,-0.304381,-0.646677,-0.396677,-0.554381,-0.461940,-0.441342,-0.495722,-0.315263,-0.495722,-0.250000,-0.500000,-0.250000,-0.500000,0.250000,-0.495722,0.250000,-0.495722,0.315263,-0.461940,0.441342,-0.396677,0.554381,-0.304381,0.646677,-0.191342,0.711940,-0.065263,0.745722,0.000000,0.745722,
0.000000,0.750000,0.500000,0.750000,0.500000,-0.750000,0.500000,-0.750000,$1*%
%AMFreePoly1*
4,1,23,0.000000,0.745722,0.065263,0.745722,0.191342,0.711940,0.304381,0.646677,0.396677,0.554381,0.461940,0.441342,0.495722,0.315263,0.495722,0.250000,0.500000,0.250000,0.500000,-0.250000,0.495722,-0.250000,0.495722,-0.315263,0.461940,-0.441342,0.396677,-0.554381,0.304381,-0.646677,0.191342,-0.711940,0.065263,-0.745722,0.000000,-0.745722,0.000000,-0.750000,-0.500000,-0.750000,
-0.500000,0.750000,0.000000,0.750000,0.000000,0.745722,0.000000,0.745722,$1*%
G04 Aperture macros list end*
%TA.AperFunction,EtchedComponent*%
%ADD10C,0.000000*%
%TD*%
%TA.AperFunction,SMDPad,CuDef*%
%ADD11FreePoly0,270.000000*%
%TD*%
%TA.AperFunction,SMDPad,CuDef*%
%ADD12FreePoly1,270.000000*%
%TD*%
%TA.AperFunction,ComponentPad*%
%ADD13R,1.370000X1.370000*%
%TD*%
%TA.AperFunction,ComponentPad*%
%ADD14C,1.370000*%
%TD*%
%TA.AperFunction,ComponentPad*%
%ADD15RoundRect,0.250000X0.725000X-0.600000X0.725000X0.600000X-0.725000X0.600000X-0.725000X-0.600000X0*%
%TD*%
%TA.AperFunction,ComponentPad*%
%ADD16O,1.950000X1.700000*%
%TD*%
%TA.AperFunction,SMDPad,CuDef*%
%ADD17RoundRect,0.250000X-0.450000X0.350000X-0.450000X-0.350000X0.450000X-0.350000X0.450000X0.350000X0*%
%TD*%
%TA.AperFunction,SMDPad,CuDef*%
%ADD18R,1.219200X0.990600*%
%TD*%
%TA.AperFunction,ComponentPad*%
%ADD19R,1.700000X1.700000*%
%TD*%
%TA.AperFunction,ComponentPad*%
%ADD20C,1.700000*%
%TD*%
%TA.AperFunction,ViaPad*%
%ADD21C,0.600000*%
%TD*%
%TA.AperFunction,Conductor*%
%ADD22C,0.400000*%
%TD*%
G04 APERTURE END LIST*
D10*
%TA.AperFunction,EtchedComponent*%
%TO.C,JP3*%
G36*
X139000000Y-88450000D02*
G01*
X138400000Y-88450000D01*
X138400000Y-87950000D01*
X139000000Y-87950000D01*
X139000000Y-88450000D01*
G37*
%TD.AperFunction*%
%TA.AperFunction,EtchedComponent*%
%TO.C,JP4*%
G36*
X141575000Y-88450000D02*
G01*
X140975000Y-88450000D01*
X140975000Y-87950000D01*
X141575000Y-87950000D01*
X141575000Y-88450000D01*
G37*
%TD.AperFunction*%
%TA.AperFunction,EtchedComponent*%
%TO.C,JP5*%
G36*
X145600000Y-88425000D02*
G01*
X145000000Y-88425000D01*
X145000000Y-87925000D01*
X145600000Y-87925000D01*
X145600000Y-88425000D01*
G37*
%TD.AperFunction*%
%TD*%
D11*
%TO.P,JP3,1,A*%
%TO.N,/CAN_CS_DEFAULT*%
X138700000Y-87550000D03*
D12*
%TO.P,JP3,2,B*%
%TO.N,/CAN_CS*%
X138700000Y-88850000D03*
%TD*%
D11*
%TO.P,JP4,1,A*%
%TO.N,/CAN_INT_DEFAULT*%
X141275000Y-87550000D03*
D12*
%TO.P,JP4,2,B*%
%TO.N,/~{CAN_INT}*%
X141275000Y-88850000D03*
%TD*%
D13*
%TO.P,J2,01,01*%
%TO.N,/VIN*%
X151400000Y-99930000D03*
D14*
%TO.P,J2,02,02*%
%TO.N,GND*%
X148860000Y-99930000D03*
%TO.P,J2,03,03*%
%TO.N,/RST2*%
X146320000Y-99930000D03*
%TO.P,J2,04,04*%
%TO.N,+5V*%
X143780000Y-99930000D03*
%TO.P,J2,05,05*%
%TO.N,/A7*%
X141240000Y-99930000D03*
%TO.P,J2,06,06*%
%TO.N,/A6*%
X138700000Y-99930000D03*
%TO.P,J2,07,07*%
%TO.N,/A5*%
X136160000Y-99930000D03*
%TO.P,J2,08,08*%
%TO.N,/A4*%
X133620000Y-99930000D03*
%TO.P,J2,09,09*%
%TO.N,/A3*%
X131080000Y-99930000D03*
%TO.P,J2,10,10*%
%TO.N,/A2*%
X128540000Y-99930000D03*
%TO.P,J2,11,11*%
%TO.N,/A1*%
X126000000Y-99930000D03*
%TO.P,J2,12,12*%
%TO.N,/A0*%
X123460000Y-99930000D03*
%TO.P,J2,13,13*%
%TO.N,/AREF*%
X120920000Y-99930000D03*
%TO.P,J2,14,14*%
%TO.N,+3V3*%
X118380000Y-99930000D03*
%TO.P,J2,15,15*%
%TO.N,/SCK*%
X115840000Y-99930000D03*
%TD*%
D15*
%TO.P,J4,1,Pin_1*%
%TO.N,/CAN_H*%
X153790000Y-94780000D03*
D16*
%TO.P,J4,2,Pin_2*%
%TO.N,GND*%
X153790000Y-92280000D03*
%TO.P,J4,3,Pin_3*%
%TO.N,/CAN_L*%
X153790000Y-89780000D03*
%TD*%
D17*
%TO.P,R1,1*%
%TO.N,+5V*%
X136325000Y-87425000D03*
%TO.P,R1,2*%
%TO.N,/CAN_CS*%
X136325000Y-89425000D03*
%TD*%
D11*
%TO.P,JP5,1,A*%
%TO.N,/RST1*%
X145300000Y-87525000D03*
D12*
%TO.P,JP5,2,B*%
%TO.N,/CAN_RESET*%
X145300000Y-88825000D03*
%TD*%
D18*
%TO.P,T1,1,1*%
%TO.N,/CAN_H_IN*%
X144781000Y-94320000D03*
%TO.P,T1,2,2*%
%TO.N,/CAN_H*%
X149480000Y-94320000D03*
%TO.P,T1,3,3*%
%TO.N,/CAN_L*%
X149480000Y-92120000D03*
%TO.P,T1,4,4*%
%TO.N,/CAN_L_IN*%
X144781000Y-92120000D03*
%TD*%
D13*
%TO.P,J1,01,01*%
%TO.N,/D1*%
X151405000Y-84700000D03*
D14*
%TO.P,J1,02,02*%
%TO.N,/D0*%
X148865000Y-84700000D03*
%TO.P,J1,03,03*%
%TO.N,/RST1*%
X146325000Y-84700000D03*
%TO.P,J1,04,04*%
%TO.N,GND*%
X143785000Y-84700000D03*
%TO.P,J1,05,05*%
%TO.N,/CAN_INT_DEFAULT*%
X141245000Y-84700000D03*
%TO.P,J1,06,06*%
%TO.N,/CAN_CS_DEFAULT*%
X138705000Y-84700000D03*
%TO.P,J1,07,07*%
%TO.N,/D4*%
X136165000Y-84700000D03*
%TO.P,J1,08,08*%
%TO.N,/D5*%
X133625000Y-84700000D03*
%TO.P,J1,09,09*%
%TO.N,/D6*%
X131085000Y-84700000D03*
%TO.P,J1,10,10*%
%TO.N,/D7*%
X128545000Y-84700000D03*
%TO.P,J1,11,11*%
%TO.N,/D8*%
X126005000Y-84700000D03*
%TO.P,J1,12,12*%
%TO.N,/D9*%
X123465000Y-84700000D03*
%TO.P,J1,13,13*%
%TO.N,/D10*%
X120925000Y-84700000D03*
%TO.P,J1,14,14*%
%TO.N,/MOSI*%
X118385000Y-84700000D03*
%TO.P,J1,15,15*%
%TO.N,/MISO*%
X115845000Y-84700000D03*
%TD*%
D19*
%TO.P,J3,1,Pin_1*%
%TO.N,/~{CAN_INT}*%
X115025000Y-88375000D03*
D20*
%TO.P,J3,2,Pin_2*%
%TO.N,/CAN_CS*%
X115025000Y-90915000D03*
%TO.P,J3,3,Pin_3*%
%TO.N,/CAN_RESET*%
X115025000Y-93455000D03*
%TO.P,J3,4,Pin_4*%
%TO.N,/SILENT*%
X115025000Y-95995000D03*
%TD*%
D21*
%TO.N,GND*%
X131375000Y-95100000D03*
X135800000Y-95400000D03*
X134125000Y-93575000D03*
%TO.N,+5V*%
X134950000Y-86850000D03*
X141375000Y-90405000D03*
%TO.N,/CAN_H*%
X152195000Y-93275000D03*
%TO.N,/CAN_L*%
X152350000Y-91330000D03*
%TO.N,/SILENT*%
X141000000Y-96150000D03*
%TO.N,/CAN_CS*%
X130650000Y-90875000D03*
%TO.N,/~{CAN_INT}*%
X140325000Y-89625000D03*
X126610000Y-88875000D03*
X135150000Y-88300000D03*
%TO.N,/CAN_RESET*%
X131862500Y-91987500D03*
X142200000Y-86725000D03*
%TO.N,/SCK*%
X127700000Y-89450000D03*
%TO.N,/CAN_H_IN*%
X142950000Y-93680000D03*
%TO.N,/CAN_L_IN*%
X142880000Y-90950000D03*
%TD*%
D22*
%TO.N,/RST1*%
X146325000Y-84690000D02*
X146325000Y-86325000D01*
X145300000Y-87350000D02*
X145300000Y-87525000D01*
X146325000Y-86325000D02*
X145300000Y-87350000D01*
%TO.N,GND*%
X135800000Y-95400000D02*
X135800000Y-95250000D01*
X135800000Y-95250000D02*
X134125000Y-93575000D01*
X132900000Y-93575000D02*
X134125000Y-93575000D01*
X131375000Y-95100000D02*
X132900000Y-93575000D01*
%TO.N,+5V*%
X140650000Y-91100000D02*
X141345000Y-90405000D01*
X140650000Y-94300000D02*
X140650000Y-91100000D01*
X136325000Y-87225000D02*
X136325000Y-87387500D01*
X143785000Y-97435000D02*
X140650000Y-94300000D01*
X135950000Y-86850000D02*
X136325000Y-87225000D01*
X134950000Y-86850000D02*
X135950000Y-86850000D01*
X143785000Y-99930000D02*
X143785000Y-97435000D01*
X141345000Y-90405000D02*
X141375000Y-90405000D01*
%TO.N,/CAN_CS_DEFAULT*%
X138750000Y-87500000D02*
X138750000Y-84735000D01*
X138750000Y-84735000D02*
X138705000Y-84690000D01*
X138700000Y-87550000D02*
X138750000Y-87500000D01*
%TO.N,/CAN_INT_DEFAULT*%
X141245000Y-87270000D02*
X141275000Y-87300000D01*
X141275000Y-87300000D02*
X141275000Y-84720000D01*
X141275000Y-84720000D02*
X141245000Y-84690000D01*
%TO.N,/CAN_H*%
X151145000Y-94325000D02*
X149175000Y-94325000D01*
X152195000Y-93275000D02*
X151145000Y-94325000D01*
X152195000Y-93275000D02*
X152210000Y-93260000D01*
%TO.N,/CAN_L*%
X152350000Y-91330000D02*
X151540000Y-92140000D01*
X149475000Y-92025000D02*
X149175000Y-92025000D01*
X151540000Y-92140000D02*
X149505000Y-92140000D01*
%TO.N,/SILENT*%
X141000000Y-96150000D02*
X115180000Y-96150000D01*
X115180000Y-96150000D02*
X115025000Y-95995000D01*
%TO.N,/CAN_CS*%
X135162500Y-89462500D02*
X138087500Y-89462500D01*
X115025000Y-90915000D02*
X115130000Y-91020000D01*
X138087500Y-89462500D02*
X138750000Y-88800000D01*
X115130000Y-91020000D02*
X130505000Y-91020000D01*
X130650000Y-90875000D02*
X133750000Y-90875000D01*
X130505000Y-91020000D02*
X130650000Y-90875000D01*
X133750000Y-90875000D02*
X135162500Y-89462500D01*
%TO.N,/~{CAN_INT}*%
X115525000Y-88875000D02*
X115025000Y-88375000D01*
X126610000Y-88875000D02*
X115525000Y-88875000D01*
X126610000Y-88875000D02*
X126650000Y-88875000D01*
X126650000Y-88875000D02*
X127225000Y-88300000D01*
X127225000Y-88300000D02*
X135150000Y-88300000D01*
X141275000Y-88850000D02*
X140500000Y-89625000D01*
X140500000Y-89625000D02*
X140325000Y-89625000D01*
%TO.N,/CAN_RESET*%
X144075000Y-88625000D02*
X145325000Y-88625000D01*
X143797759Y-87622759D02*
X143797759Y-88347759D01*
X115130000Y-93560000D02*
X115025000Y-93455000D01*
X142900000Y-86725000D02*
X143797759Y-87622759D01*
X131862500Y-91987500D02*
X130290000Y-93560000D01*
X143797759Y-88347759D02*
X144075000Y-88625000D01*
X130290000Y-93560000D02*
X115130000Y-93560000D01*
X142200000Y-86725000D02*
X142900000Y-86725000D01*
%TO.N,/SCK*%
X127700000Y-89450000D02*
X127500000Y-89650000D01*
X113475000Y-97560000D02*
X115845000Y-99930000D01*
X114300000Y-89650000D02*
X113475000Y-90475000D01*
X113475000Y-90475000D02*
X113475000Y-97560000D01*
X127500000Y-89650000D02*
X114300000Y-89650000D01*
%TO.N,/CAN_H_IN*%
X142940000Y-93700000D02*
X143565000Y-94325000D01*
X143565000Y-94325000D02*
X145125000Y-94325000D01*
%TO.N,/CAN_L_IN*%
X142880000Y-90950000D02*
X143955000Y-92025000D01*
X143955000Y-92025000D02*
X145125000Y-92025000D01*
%TD*%
M02*
