M48
; DRILL file {KiCad 9.0.1} date 2025-04-24T23:24:57-0400
; FORMAT={-:-/ absolute / inch / decimal}
; #@! TF.CreationDate,2025-04-24T23:24:57-04:00
; #@! TF.GenerationSoftware,Kicad,Pcbnew,9.0.1
; #@! TF.FileFunction,Plated,1,4,PTH
FMAT,2
INCH
; #@! TA.AperFunction,Plated,PTH,ViaDrill
T1C0.0118
; #@! TA.AperFunction,Plated,PTH,ComponentDrill
T2C0.0118
; #@! TA.AperFunction,Plated,PTH,ComponentDrill
T3C0.0197
; #@! TA.AperFunction,Plated,PTH,ComponentDrill
T4C0.0354
; #@! TA.AperFunction,Plated,PTH,ComponentDrill
T5C0.0394
; #@! TA.AperFunction,Plated,PTH,ComponentDrill
T6C0.0402
%
G90
G05
T1
X4.5976Y-3.615
X4.7083Y-3.639
X4.9846Y-3.499
X5.0276Y-3.5217
X5.1437Y-3.5778
X5.1722Y-3.7441
X5.1914Y-3.6216
X5.2805Y-3.6841
X5.313Y-3.4193
X5.3209Y-3.4764
X5.3435Y-3.747
X5.4267Y-3.6895
X5.4792Y-3.4079
X5.4823Y-3.6683
X5.5089Y-3.7352
X5.5118Y-3.5157
X5.6002Y-3.6593
X5.6048Y-3.5999
X5.6661Y-3.427
X5.7161Y-3.8333
X5.7768Y-3.7093
X5.8433Y-3.5149
X5.8793Y-3.837
X5.938Y-3.5622
X5.9925Y-3.6717
X5.998Y-3.5957
X6.0209Y-3.6198
X6.0251Y-3.7462
X6.0472Y-3.8087
X6.0571Y-3.7111
X6.1572Y-3.7556
X6.3031Y-3.8632
X6.3272Y-3.4
X6.3894Y-3.3949
X6.4713Y-3.6232
X6.4764Y-3.513
X6.5346Y-3.4654
X6.5925Y-3.6723
T2
X5.8488Y-3.7898
X5.8575Y-3.7217
X5.8575Y-3.8579
X5.863Y-3.7591
X5.863Y-3.8205
X5.8772Y-3.7217
X5.8772Y-3.8579
X5.8882Y-3.7898
X5.8953Y-3.7591
X5.8953Y-3.8205
X5.8969Y-3.7217
X5.8969Y-3.8579
X5.9276Y-3.7898
X5.9362Y-3.7217
X5.9362Y-3.7484
X5.9441Y-3.8311
X5.9441Y-3.8578
X5.9669Y-3.7898
T4
X6.1283Y-3.3638
X6.1283Y-3.4539
X6.1283Y-3.8138
X6.1283Y-3.9039
X6.3181Y-3.5335
X6.3181Y-3.6138
X6.3181Y-3.6941
X6.3181Y-3.7744
X6.3882Y-3.4933
X6.3882Y-3.5736
X6.3882Y-3.6539
X6.3882Y-3.7343
T5
X4.5285Y-3.4793
X4.5285Y-3.5793
X4.5285Y-3.6793
X4.5285Y-3.7793
T6
X4.5606Y-3.9343
X4.5608Y-3.3346
X4.6606Y-3.9343
X4.6608Y-3.3346
X4.7606Y-3.9343
X4.7608Y-3.3346
X4.8606Y-3.9343
X4.8608Y-3.3346
X4.9606Y-3.9343
X4.9608Y-3.3346
X5.0606Y-3.9343
X5.0608Y-3.3346
X5.1606Y-3.9343
X5.1608Y-3.3346
X5.2606Y-3.9343
X5.2608Y-3.3346
X5.3606Y-3.9343
X5.3608Y-3.3346
X5.4606Y-3.9343
X5.4608Y-3.3346
X5.5606Y-3.9343
X5.5608Y-3.3346
X5.6606Y-3.9343
X5.6608Y-3.3346
X5.7606Y-3.9343
X5.7608Y-3.3346
X5.8606Y-3.9343
X5.8608Y-3.3346
X5.9606Y-3.9343
X5.9608Y-3.3346
T3
G00X6.3244Y-3.315
M15
G01X6.3717Y-3.315
M16
G05
G00X6.3244Y-3.9528
M15
G01X6.3717Y-3.9528
M16
G05
M30
