M48
; DRILL file {KiCad 9.0.1} date 2025-04-21T23:50:03-0400
; FORMAT={-:-/ absolute / inch / decimal}
; #@! TF.CreationDate,2025-04-21T23:50:03-04:00
; #@! TF.GenerationSoftware,Kicad,Pcbnew,9.0.1
; #@! TF.FileFunction,Plated,1,2,PTH
FMAT,2
INCH
; #@! TA.AperFunction,Plated,PTH,ViaDrill
T1C0.0118
; #@! TA.AperFunction,Plated,PTH,ComponentDrill
T2C0.0374
; #@! TA.AperFunction,Plated,PTH,ComponentDrill
T3C0.0394
; #@! TA.AperFunction,Plated,PTH,ComponentDrill
T4C0.0402
%
G90
G05
T1
X4.9846Y-3.499
X5.0276Y-3.5217
X5.1437Y-3.5778
X5.1722Y-3.7441
X5.1914Y-3.6216
X5.2805Y-3.6841
X5.313Y-3.4193
X5.3209Y-3.4764
X5.3465Y-3.7559
X5.5246Y-3.5285
X5.5512Y-3.7854
X5.5659Y-3.5593
X5.5984Y-3.4144
X5.6252Y-3.5807
X5.628Y-3.6882
X5.9919Y-3.6722
X5.998Y-3.5957
T2
X6.0547Y-3.5346
X6.0547Y-3.6331
X6.0547Y-3.7315
T3
X4.5285Y-3.4793
X4.5285Y-3.5793
X4.5285Y-3.6793
X4.5285Y-3.7793
T4
X4.5606Y-3.9343
X4.5608Y-3.3346
X4.6606Y-3.9343
X4.6608Y-3.3346
X4.7606Y-3.9343
X4.7608Y-3.3346
X4.8606Y-3.9343
X4.8608Y-3.3346
X4.9606Y-3.9343
X4.9608Y-3.3346
X5.0606Y-3.9343
X5.0608Y-3.3346
X5.1606Y-3.9343
X5.1608Y-3.3346
X5.2606Y-3.9343
X5.2608Y-3.3346
X5.3606Y-3.9343
X5.3608Y-3.3346
X5.4606Y-3.9343
X5.4608Y-3.3346
X5.5606Y-3.9343
X5.5608Y-3.3346
X5.6606Y-3.9343
X5.6608Y-3.3346
X5.7606Y-3.9343
X5.7608Y-3.3346
X5.8606Y-3.9343
X5.8608Y-3.3346
X5.9606Y-3.9343
X5.9608Y-3.3346
M30
