<?xml version="1.0" standalone="no"?>
 <!DOCTYPE svg PUBLIC "-//W3C//DTD SVG 1.1//EN" 
 "http://www.w3.org/Graphics/SVG/1.1/DTD/svg11.dtd"> 
<svg
  xmlns:svg="http://www.w3.org/2000/svg"
  xmlns="http://www.w3.org/2000/svg"
  xmlns:xlink="http://www.w3.org/1999/xlink"
  version="1.1"
  width="297.0022mm" height="210.0072mm" viewBox="0.0000 0.0000 297.0022 210.0072">
<title>SVG Image created as can-nano-shield-rj45-In2_Cu.svg date 2025/09/14 12:30:13 </title>
  <desc>Image generated by PCBNEW </desc>
<g style="fill:#000000; fill-opacity:1.0000;stroke:#000000; stroke-opacity:1.0000;
stroke-linecap:round; stroke-linejoin:round;"
 transform="translate(0 0) scale(1 1)">
<path style="fill:#000000; fill-opacity:1.0000; stroke:none;fill-rule:evenodd;"
d="M 162.9600,89.4300
161.5600,89.4300
161.5600,88.0300
162.9600,88.0300
Z" /> 
</g>
<g style="fill:#000000; fill-opacity:1.0000; stroke:none;">
<circle cx="160.4800" cy="89.7500" r="0.7000" /> 
</g>
<g style="fill:#000000; fill-opacity:1.0000; stroke:none;">
<circle cx="162.2600" cy="90.7700" r="0.7000" /> 
</g>
<g style="fill:#000000; fill-opacity:1.0000; stroke:none;">
<circle cx="160.4800" cy="91.7900" r="0.7000" /> 
</g>
<g style="fill:#000000; fill-opacity:1.0000; stroke:none;">
<circle cx="162.2600" cy="92.8100" r="0.7000" /> 
</g>
<g style="fill:#000000; fill-opacity:1.0000; stroke:none;">
<circle cx="160.4800" cy="93.8300" r="0.7000" /> 
</g>
<g style="fill:#000000; fill-opacity:1.0000; stroke:none;">
<circle cx="162.2600" cy="94.8500" r="0.7000" /> 
</g>
<g style="fill:#000000; fill-opacity:1.0000; stroke:none;">
<circle cx="160.4800" cy="95.8700" r="0.7000" /> 
</g>
<g style="fill:#000000; fill-opacity:1.0000; stroke:none;">
<circle cx="155.6600" cy="99.1600" r="0.7000" /> 
</g>
<g style="fill:#000000; fill-opacity:1.0000; stroke:none;">
<circle cx="155.6600" cy="96.8700" r="0.7000" /> 
</g>
<g style="fill:#000000; fill-opacity:1.0000; stroke:none;">
<circle cx="155.6600" cy="87.7300" r="0.7000" /> 
</g>
<g style="fill:#000000; fill-opacity:1.0000; stroke:none;">
<circle cx="155.6600" cy="85.4400" r="0.7000" /> 
</g>
<g style="fill:none; 
stroke:#000000; stroke-width:0.8000; stroke-opacity:1; 
stroke-linecap:round; stroke-linejoin:round;">
<path d="M160.3900 84.2000
L162.0900 84.2000
" />
<path d="M160.3900 100.4000
L162.0900 100.4000
" />
<path style="fill:#000000; fill-opacity:1.0000; stroke:none;fill-rule:evenodd;"
d="M 152.0850,99.2450
152.0850,100.6150
150.7150,100.6150
150.7150,99.2450
Z" /> 
</g>
<g style="fill:#000000; fill-opacity:1.0000; stroke:none;">
<circle cx="148.8600" cy="99.9300" r="0.6850" /> 
</g>
<g style="fill:#000000; fill-opacity:1.0000; stroke:none;">
<circle cx="146.3200" cy="99.9300" r="0.6850" /> 
</g>
<g style="fill:#000000; fill-opacity:1.0000; stroke:none;">
<circle cx="143.7800" cy="99.9300" r="0.6850" /> 
</g>
<g style="fill:#000000; fill-opacity:1.0000; stroke:none;">
<circle cx="141.2400" cy="99.9300" r="0.6850" /> 
</g>
<g style="fill:#000000; fill-opacity:1.0000; stroke:none;">
<circle cx="138.7000" cy="99.9300" r="0.6850" /> 
</g>
<g style="fill:#000000; fill-opacity:1.0000; stroke:none;">
<circle cx="136.1600" cy="99.9300" r="0.6850" /> 
</g>
<g style="fill:#000000; fill-opacity:1.0000; stroke:none;">
<circle cx="133.6200" cy="99.9300" r="0.6850" /> 
</g>
<g style="fill:#000000; fill-opacity:1.0000; stroke:none;">
<circle cx="131.0800" cy="99.9300" r="0.6850" /> 
</g>
<g style="fill:#000000; fill-opacity:1.0000; stroke:none;">
<circle cx="128.5400" cy="99.9300" r="0.6850" /> 
</g>
<g style="fill:#000000; fill-opacity:1.0000; stroke:none;">
<circle cx="126.0000" cy="99.9300" r="0.6850" /> 
</g>
<g style="fill:#000000; fill-opacity:1.0000; stroke:none;">
<circle cx="123.4600" cy="99.9300" r="0.6850" /> 
</g>
<g style="fill:#000000; fill-opacity:1.0000; stroke:none;">
<circle cx="120.9200" cy="99.9300" r="0.6850" /> 
</g>
<g style="fill:#000000; fill-opacity:1.0000; stroke:none;">
<circle cx="118.3800" cy="99.9300" r="0.6850" /> 
</g>
<g style="fill:#000000; fill-opacity:1.0000; stroke:none;">
<circle cx="115.8400" cy="99.9300" r="0.6850" /> 
<path style="fill:#000000; fill-opacity:1.0000; stroke:none;fill-rule:evenodd;"
d="M 152.0900,84.0150
152.0900,85.3850
150.7200,85.3850
150.7200,84.0150
Z" /> 
</g>
<g style="fill:#000000; fill-opacity:1.0000; stroke:none;">
<circle cx="148.8650" cy="84.7000" r="0.6850" /> 
</g>
<g style="fill:#000000; fill-opacity:1.0000; stroke:none;">
<circle cx="146.3250" cy="84.7000" r="0.6850" /> 
</g>
<g style="fill:#000000; fill-opacity:1.0000; stroke:none;">
<circle cx="143.7850" cy="84.7000" r="0.6850" /> 
</g>
<g style="fill:#000000; fill-opacity:1.0000; stroke:none;">
<circle cx="141.2450" cy="84.7000" r="0.6850" /> 
</g>
<g style="fill:#000000; fill-opacity:1.0000; stroke:none;">
<circle cx="138.7050" cy="84.7000" r="0.6850" /> 
</g>
<g style="fill:#000000; fill-opacity:1.0000; stroke:none;">
<circle cx="136.1650" cy="84.7000" r="0.6850" /> 
</g>
<g style="fill:#000000; fill-opacity:1.0000; stroke:none;">
<circle cx="133.6250" cy="84.7000" r="0.6850" /> 
</g>
<g style="fill:#000000; fill-opacity:1.0000; stroke:none;">
<circle cx="131.0850" cy="84.7000" r="0.6850" /> 
</g>
<g style="fill:#000000; fill-opacity:1.0000; stroke:none;">
<circle cx="128.5450" cy="84.7000" r="0.6850" /> 
</g>
<g style="fill:#000000; fill-opacity:1.0000; stroke:none;">
<circle cx="126.0050" cy="84.7000" r="0.6850" /> 
</g>
<g style="fill:#000000; fill-opacity:1.0000; stroke:none;">
<circle cx="123.4650" cy="84.7000" r="0.6850" /> 
</g>
<g style="fill:#000000; fill-opacity:1.0000; stroke:none;">
<circle cx="120.9250" cy="84.7000" r="0.6850" /> 
</g>
<g style="fill:#000000; fill-opacity:1.0000; stroke:none;">
<circle cx="118.3850" cy="84.7000" r="0.6850" /> 
</g>
<g style="fill:#000000; fill-opacity:1.0000; stroke:none;">
<circle cx="115.8450" cy="84.7000" r="0.6850" /> 
</g>
<g style="fill:#000000; fill-opacity:1.0000; stroke:none;">
<circle cx="150.9800" cy="97.9890" r="0.2000" /> 
</g>
<g style="fill:#000000; fill-opacity:1.0000; stroke:none;">
<circle cx="150.9800" cy="97.3100" r="0.2000" /> 
</g>
<g style="fill:#000000; fill-opacity:1.0000; stroke:none;">
<circle cx="149.7800" cy="97.9900" r="0.2000" /> 
</g>
<g style="fill:#000000; fill-opacity:1.0000; stroke:none;">
<circle cx="149.2800" cy="97.9900" r="0.2000" /> 
</g>
<g style="fill:#000000; fill-opacity:1.0000; stroke:none;">
<circle cx="148.7800" cy="97.9900" r="0.2000" /> 
</g>
<g style="fill:#000000; fill-opacity:1.0000; stroke:none;">
<circle cx="149.7400" cy="97.0400" r="0.2000" /> 
</g>
<g style="fill:#000000; fill-opacity:1.0000; stroke:none;">
<circle cx="148.9200" cy="97.0400" r="0.2000" /> 
</g>
<g style="fill:#000000; fill-opacity:1.0000; stroke:none;">
<circle cx="149.7800" cy="94.5300" r="0.2000" /> 
</g>
<g style="fill:#000000; fill-opacity:1.0000; stroke:none;">
<circle cx="149.2800" cy="94.5300" r="0.2000" /> 
</g>
<g style="fill:#000000; fill-opacity:1.0000; stroke:none;">
<circle cx="148.7800" cy="94.5300" r="0.2000" /> 
</g>
<g style="fill:#000000; fill-opacity:1.0000; stroke:none;">
<circle cx="149.7400" cy="95.4800" r="0.2000" /> 
</g>
<g style="fill:#000000; fill-opacity:1.0000; stroke:none;">
<circle cx="148.9200" cy="95.4800" r="0.2000" /> 
</g>
<g style="fill:#000000; fill-opacity:1.0000; stroke:none;">
<circle cx="150.7800" cy="95.2090" r="0.2000" /> 
</g>
<g style="fill:#000000; fill-opacity:1.0000; stroke:none;">
<circle cx="150.7800" cy="94.5300" r="0.2000" /> 
</g>
<g style="fill:#000000; fill-opacity:1.0000; stroke:none;">
<circle cx="151.5600" cy="96.2600" r="0.2000" /> 
</g>
<g style="fill:#000000; fill-opacity:1.0000; stroke:none;">
<circle cx="150.5600" cy="96.2600" r="0.2000" /> 
</g>
<g style="fill:#000000; fill-opacity:1.0000; stroke:none;">
<circle cx="149.5600" cy="96.2600" r="0.2000" /> 
</g>
<g style="fill:#000000; fill-opacity:1.0000; stroke:none;">
<circle cx="148.5600" cy="96.2600" r="0.2000" /> 
<path style="fill:#000000; fill-opacity:1.0000; stroke:none;fill-rule:evenodd;"
d="M 115.8750,87.5250
115.8750,89.2250
114.1750,89.2250
114.1750,87.5250
Z" /> 
</g>
<g style="fill:#000000; fill-opacity:1.0000; stroke:none;">
<circle cx="115.0250" cy="90.9150" r="0.8500" /> 
</g>
<g style="fill:#000000; fill-opacity:1.0000; stroke:none;">
<circle cx="115.0250" cy="93.4550" r="0.8500" /> 
</g>
<g style="fill:#000000; fill-opacity:1.0000; stroke:none;">
<circle cx="115.0250" cy="95.9950" r="0.8500" /> 
</g>
<g style="fill:#000000; fill-opacity:1.0000; stroke:none;">
<circle cx="131.3750" cy="95.1000" r="0.3000" /> 
</g>
<g style="fill:#000000; fill-opacity:1.0000; stroke:none;">
<circle cx="135.7250" cy="95.1750" r="0.3000" /> 
</g>
<g style="fill:#000000; fill-opacity:1.0000; stroke:none;">
<circle cx="143.9193" cy="87.0450" r="0.3000" /> 
</g>
<g style="fill:#000000; fill-opacity:1.0000; stroke:none;">
<circle cx="152.9313" cy="91.9431" r="0.3000" /> 
</g>
<g style="fill:#000000; fill-opacity:1.0000; stroke:none;">
<circle cx="148.4200" cy="89.2787" r="0.3000" /> 
</g>
<g style="fill:#000000; fill-opacity:1.0000; stroke:none;">
<circle cx="119.5900" cy="92.4300" r="0.3000" /> 
</g>
<g style="fill:#000000; fill-opacity:1.0000; stroke:none;">
<circle cx="150.8250" cy="90.4787" r="0.3000" /> 
</g>
<g style="fill:#000000; fill-opacity:1.0000; stroke:none;">
<circle cx="162.2900" cy="86.2300" r="0.3000" /> 
</g>
<g style="fill:#000000; fill-opacity:1.0000; stroke:none;">
<circle cx="156.3928" cy="95.3928" r="0.3000" /> 
</g>
<g style="fill:#000000; fill-opacity:1.0000; stroke:none;">
<circle cx="134.1250" cy="93.5750" r="0.3000" /> 
</g>
<g style="fill:#000000; fill-opacity:1.0000; stroke:none;">
<circle cx="116.7800" cy="91.8200" r="0.3000" /> 
</g>
<g style="fill:#000000; fill-opacity:1.0000; stroke:none;">
<circle cx="164.3700" cy="92.0300" r="0.3000" /> 
</g>
<g style="fill:#000000; fill-opacity:1.0000; stroke:none;">
<circle cx="152.2100" cy="93.2600" r="0.3000" /> 
</g>
<g style="fill:#000000; fill-opacity:1.0000; stroke:none;">
<circle cx="152.3500" cy="91.3300" r="0.3000" /> 
</g>
<g style="fill:#000000; fill-opacity:1.0000; stroke:none;">
<circle cx="139.9250" cy="94.8750" r="0.3000" /> 
</g>
<g style="fill:#000000; fill-opacity:1.0000; stroke:none;">
<circle cx="130.6500" cy="90.8750" r="0.3000" /> 
</g>
<g style="fill:#000000; fill-opacity:1.0000; stroke:none;">
<circle cx="140.0000" cy="89.3000" r="0.3000" /> 
</g>
<g style="fill:#000000; fill-opacity:1.0000; stroke:none;">
<circle cx="126.6100" cy="88.8750" r="0.3000" /> 
</g>
<g style="fill:#000000; fill-opacity:1.0000; stroke:none;">
<circle cx="135.1500" cy="88.3000" r="0.3000" /> 
</g>
<g style="fill:#000000; fill-opacity:1.0000; stroke:none;">
<circle cx="131.8625" cy="91.9875" r="0.3000" /> 
</g>
<g style="fill:#000000; fill-opacity:1.0000; stroke:none;">
<circle cx="127.7000" cy="89.4500" r="0.3000" /> 
</g>
<g style="fill:#000000; fill-opacity:1.0000; stroke:none;">
<circle cx="137.8375" cy="93.7125" r="0.3000" /> 
</g>
<g style="fill:#000000; fill-opacity:1.0000; stroke:none;">
<circle cx="164.5010" cy="89.2300" r="0.3000" /> 
</g>
<g style="fill:#000000; fill-opacity:1.0000; stroke:none;">
<circle cx="142.2450" cy="92.9450" r="0.3000" /> 
</g>
<g style="fill:#000000; fill-opacity:1.0000; stroke:none;">
<circle cx="142.3625" cy="91.4375" r="0.3000" /> 
</g>
<g style="fill:#000000; fill-opacity:1.0000; stroke:none;">
<circle cx="160.7100" cy="86.3600" r="0.3000" /> 
</g>
<g style="fill:#000000; fill-opacity:1.0000; stroke:none;">
<circle cx="165.9800" cy="88.0200" r="0.3000" /> 
</g>
<g style="fill:#000000; fill-opacity:1.0000; stroke:none;">
<circle cx="167.4489" cy="93.2774" r="0.3000" /> 
</g>
<g style="fill:#000000; fill-opacity:1.0000; stroke:none;">
<circle cx="134.9500" cy="86.8500" r="0.3000" /> 
</g>
<g style="fill:#000000; fill-opacity:1.0000; stroke:none;">
<circle cx="160.1000" cy="98.1250" r="0.3000" /> 
</g>
<g style="fill:#000000; fill-opacity:1.0000; stroke:none;">
<circle cx="139.2500" cy="93.1750" r="0.3000" /> 
</g>
<g style="fill:#000000; fill-opacity:1.0000; stroke:none;">
<circle cx="145.1900" cy="97.3650" r="0.3000" /> 
</g>
<g style="fill:#000000; fill-opacity:1.0000; stroke:none;">
<circle cx="149.3350" cy="97.4600" r="0.3000" /> 
</g>
<g style="fill:#000000; fill-opacity:1.0000; stroke:none;">
<circle cx="153.0375" cy="95.1525" r="0.3000" /> 
</g>
<g style="fill:#000000; fill-opacity:1.0000; stroke:none;">
<circle cx="146.7300" cy="94.2150" r="0.3000" /> 
</g>
<g style="fill:#000000; fill-opacity:1.0000; stroke:none;">
<circle cx="153.8500" cy="94.2625" r="0.3000" /> 
</g>
<g style="fill:#000000; fill-opacity:1.0000; stroke:none;">
<circle cx="153.6000" cy="96.7400" r="0.3000" /> 
<path style="fill:#000000; fill-opacity:1.0000; stroke:none;fill-rule:evenodd;"
d="M 114.8568,83.8202
114.9026,83.8730
114.9125,83.9421
114.8901,83.9974
114.8311,84.0787
114.7464,84.2449
114.7464,84.2449
114.6887,84.4224
114.6887,84.4224
114.6595,84.6067
114.6595,84.7933
114.6887,84.9776
114.6887,84.9776
114.7464,85.1551
114.7464,85.1551
114.8311,85.3213
114.9408,85.4723
115.0727,85.6042
115.2237,85.7139
115.3899,85.7986
115.3899,85.7986
115.5674,85.8563
115.5674,85.8563
115.5674,85.8563
115.7517,85.8855
115.7517,85.8855
115.9383,85.8855
115.9383,85.8855
116.1226,85.8563
116.1226,85.8563
116.1226,85.8563
116.3001,85.7986
116.3001,85.7986
116.3001,85.7986
116.4663,85.7139
116.6173,85.6042
116.7492,85.4723
116.8589,85.3213
116.9436,85.1551
116.9614,85.1005
116.9971,84.9907
117.0365,84.9330
117.1009,84.9058
117.1697,84.9177
117.2212,84.9649
117.2329,84.9907
117.2864,85.1551
117.2864,85.1551
117.3711,85.3213
117.4808,85.4723
117.6127,85.6042
117.7637,85.7139
117.9299,85.7986
117.9299,85.7986
118.1074,85.8563
118.1074,85.8563
118.1074,85.8563
118.2917,85.8855
118.2917,85.8855
118.4783,85.8855
118.4783,85.8855
118.6626,85.8563
118.6626,85.8563
118.6626,85.8563
118.8401,85.7986
118.8401,85.7986
118.8401,85.7986
119.0063,85.7139
119.1573,85.6042
119.2892,85.4723
119.3989,85.3213
119.4836,85.1551
119.5014,85.1005
119.5371,84.9907
119.5765,84.9330
119.6409,84.9058
119.7097,84.9177
119.7612,84.9649
119.7729,84.9907
119.8264,85.1551
119.8264,85.1551
119.9111,85.3213
120.0208,85.4723
120.1527,85.6042
120.3037,85.7139
120.4699,85.7986
120.4699,85.7986
120.6474,85.8563
120.6474,85.8563
120.6474,85.8563
120.8317,85.8855
120.8317,85.8855
121.0183,85.8855
121.0183,85.8855
121.2026,85.8563
121.2026,85.8563
121.2026,85.8563
121.3801,85.7986
121.3801,85.7986
121.3801,85.7986
121.5463,85.7139
121.6973,85.6042
121.8292,85.4723
121.9389,85.3213
122.0236,85.1551
122.0414,85.1005
122.0771,84.9907
122.1165,84.9330
122.1809,84.9058
122.2497,84.9177
122.3012,84.9649
122.3129,84.9907
122.3664,85.1551
122.3664,85.1551
122.4511,85.3213
122.5608,85.4723
122.6927,85.6042
122.8437,85.7139
123.0099,85.7986
123.0099,85.7986
123.1874,85.8563
123.1874,85.8563
123.1874,85.8563
123.3717,85.8855
123.3717,85.8855
123.5583,85.8855
123.5583,85.8855
123.7426,85.8563
123.7426,85.8563
123.7426,85.8563
123.9201,85.7986
123.9201,85.7986
123.9201,85.7986
124.0863,85.7139
124.2373,85.6042
124.3692,85.4723
124.4789,85.3213
124.5636,85.1551
124.5814,85.1005
124.6171,84.9907
124.6565,84.9330
124.7209,84.9058
124.7897,84.9177
124.8412,84.9649
124.8529,84.9907
124.9064,85.1551
124.9064,85.1551
124.9911,85.3213
125.1008,85.4723
125.2327,85.6042
125.3837,85.7139
125.5499,85.7986
125.5499,85.7986
125.7274,85.8563
125.7274,85.8563
125.7274,85.8563
125.9117,85.8855
125.9117,85.8855
126.0983,85.8855
126.0983,85.8855
126.2826,85.8563
126.2826,85.8563
126.2826,85.8563
126.4601,85.7986
126.4601,85.7986
126.4601,85.7986
126.6263,85.7139
126.7773,85.6042
126.9092,85.4723
127.0189,85.3213
127.1036,85.1551
127.1214,85.1005
127.1571,84.9907
127.1965,84.9330
127.2609,84.9058
127.3297,84.9177
127.3812,84.9649
127.3929,84.9907
127.4464,85.1551
127.4464,85.1551
127.5311,85.3213
127.6408,85.4723
127.7727,85.6042
127.9237,85.7139
128.0899,85.7986
128.0899,85.7986
128.2674,85.8563
128.2674,85.8563
128.2674,85.8563
128.4517,85.8855
128.4517,85.8855
128.6383,85.8855
128.6383,85.8855
128.8226,85.8563
128.8226,85.8563
128.8226,85.8563
129.0001,85.7986
129.0001,85.7986
129.0001,85.7986
129.1663,85.7139
129.3173,85.6042
129.4492,85.4723
129.5589,85.3213
129.6436,85.1551
129.6614,85.1005
129.6971,84.9907
129.7365,84.9330
129.8009,84.9058
129.8697,84.9177
129.9212,84.9649
129.9329,84.9907
129.9864,85.1551
129.9864,85.1551
130.0711,85.3213
130.1808,85.4723
130.3127,85.6042
130.4637,85.7139
130.6299,85.7986
130.6299,85.7986
130.8074,85.8563
130.8074,85.8563
130.8074,85.8563
130.9917,85.8855
130.9917,85.8855
131.1783,85.8855
131.1783,85.8855
131.3626,85.8563
131.3626,85.8563
131.3626,85.8563
131.5401,85.7986
131.5401,85.7986
131.5401,85.7986
131.7063,85.7139
131.8573,85.6042
131.9892,85.4723
132.0989,85.3213
132.1836,85.1551
132.2014,85.1005
132.2371,84.9907
132.2765,84.9330
132.3409,84.9058
132.4097,84.9177
132.4612,84.9649
132.4729,84.9907
132.5264,85.1551
132.5264,85.1551
132.6111,85.3213
132.7208,85.4723
132.8527,85.6042
133.0037,85.7139
133.1699,85.7986
133.1699,85.7986
133.3474,85.8563
133.3474,85.8563
133.3474,85.8563
133.5317,85.8855
133.5317,85.8855
133.7183,85.8855
133.7183,85.8855
133.9026,85.8563
133.9026,85.8563
133.9026,85.8563
134.0801,85.7986
134.0801,85.7986
134.0801,85.7986
134.2463,85.7139
134.3973,85.6042
134.5292,85.4723
134.6389,85.3213
134.7236,85.1551
134.7414,85.1005
134.7771,84.9907
134.8165,84.9330
134.8809,84.9058
134.9497,84.9177
135.0012,84.9649
135.0129,84.9907
135.0664,85.1551
135.0664,85.1551
135.1511,85.3213
135.2608,85.4723
135.3927,85.6042
135.5437,85.7139
135.7099,85.7986
135.7099,85.7986
135.8874,85.8563
135.8874,85.8563
135.8874,85.8563
136.0717,85.8855
136.0717,85.8855
136.2583,85.8855
136.2583,85.8855
136.4426,85.8563
136.4426,85.8563
136.4426,85.8563
136.6201,85.7986
136.6201,85.7986
136.6201,85.7986
136.7863,85.7139
136.9373,85.6042
137.0692,85.4723
137.1789,85.3213
137.2636,85.1551
137.2814,85.1005
137.3171,84.9907
137.3565,84.9330
137.4209,84.9058
137.4897,84.9177
137.5412,84.9649
137.5529,84.9907
137.6064,85.1551
137.6064,85.1551
137.6911,85.3213
137.8008,85.4723
137.9327,85.6042
138.0837,85.7139
138.2499,85.7986
138.2499,85.7986
138.4274,85.8563
138.4274,85.8563
138.4274,85.8563
138.6117,85.8855
138.6117,85.8855
138.7983,85.8855
138.7983,85.8855
138.9826,85.8563
138.9826,85.8563
138.9826,85.8563
139.1601,85.7986
139.1601,85.7986
139.1601,85.7986
139.3263,85.7139
139.4773,85.6042
139.6092,85.4723
139.7189,85.3213
139.8036,85.1551
139.8214,85.1005
139.8571,84.9907
139.8965,84.9330
139.9609,84.9058
140.0297,84.9177
140.0812,84.9649
140.0929,84.9907
140.1464,85.1551
140.1464,85.1551
140.2311,85.3213
140.3408,85.4723
140.4727,85.6042
140.6237,85.7139
140.7899,85.7986
140.7899,85.7986
140.9674,85.8563
140.9674,85.8563
140.9674,85.8563
141.1517,85.8855
141.1517,85.8855
141.3383,85.8855
141.3383,85.8855
141.5226,85.8563
141.5226,85.8563
141.5226,85.8563
141.7001,85.7986
141.7001,85.7986
141.7001,85.7986
141.8663,85.7139
142.0173,85.6042
142.1492,85.4723
142.2589,85.3213
142.3436,85.1551
142.3973,84.9898
142.4368,84.9322
142.5011,84.9050
142.5700,84.9169
142.6214,84.9641
142.6332,84.9898
142.6868,85.1549
142.7715,85.3211
142.7879,85.3436
143.2939,84.8376
143.3098,84.8969
143.3769,85.0131
143.4719,85.1081
143.5881,85.1752
143.6474,85.1911
143.1414,85.6971
143.1414,85.6971
143.1639,85.7135
143.3301,85.7982
143.5075,85.8558
143.6917,85.8850
143.8783,85.8850
144.0625,85.8558
144.2399,85.7982
144.4061,85.7135
144.4286,85.6971
144.4286,85.6971
143.9226,85.1911
143.9819,85.1752
144.0981,85.1081
144.1931,85.0131
144.2602,84.8969
144.2761,84.8376
144.7821,85.3436
144.7821,85.3436
144.7985,85.3211
144.8832,85.1549
144.9368,84.9898
144.9762,84.9322
145.0406,84.9050
145.1094,84.9169
145.1609,84.9641
145.1727,84.9898
145.2264,85.1551
145.2264,85.1551
145.3111,85.3213
145.4208,85.4723
145.5527,85.6042
145.7037,85.7139
145.8699,85.7986
145.8699,85.7986
146.0474,85.8563
146.0474,85.8563
146.0474,85.8563
146.2317,85.8855
146.2317,85.8855
146.4183,85.8855
146.4183,85.8855
146.6026,85.8563
146.6026,85.8563
146.6026,85.8563
146.7801,85.7986
146.7801,85.7986
146.7801,85.7986
146.9463,85.7139
147.0973,85.6042
147.2292,85.4723
147.3389,85.3213
147.4236,85.1551
147.4414,85.1005
147.4771,84.9907
147.5165,84.9330
147.5809,84.9058
147.6497,84.9177
147.7012,84.9649
147.7129,84.9907
147.7664,85.1551
147.7664,85.1551
147.8511,85.3213
147.9608,85.4723
148.0927,85.6042
148.2437,85.7139
148.4099,85.7986
148.4099,85.7986
148.5874,85.8563
148.5874,85.8563
148.5874,85.8563
148.7717,85.8855
148.7717,85.8855
148.9583,85.8855
148.9583,85.8855
149.1426,85.8563
149.1426,85.8563
149.1426,85.8563
149.3201,85.7986
149.3201,85.7986
149.3201,85.7986
149.4863,85.7139
149.6373,85.6042
149.7692,85.4723
149.8789,85.3213
149.9636,85.1551
149.9776,85.1122
150.0170,85.0545
150.0814,85.0273
150.1502,85.0393
150.2017,85.0865
150.2195,85.1505
150.2195,85.4329
150.2195,85.4329
150.2259,85.4925
150.2762,85.6273
150.2762,85.6273
150.3625,85.7425
150.3625,85.7425
150.4777,85.8288
150.4777,85.8288
150.6125,85.8791
150.6125,85.8791
150.6194,85.8798
150.6721,85.8855
152.1379,85.8855
152.1975,85.8791
152.3323,85.8288
152.4475,85.7425
152.5338,85.6273
152.5841,85.4925
152.5905,85.4329
152.5905,85.3455
154.4595,85.3455
154.4595,85.5345
154.4891,85.7211
154.5475,85.9008
154.5882,85.9808
154.6332,86.0692
154.7443,86.2221
154.8779,86.3557
155.0308,86.4668
155.0466,86.4748
155.0466,86.4748
155.0974,86.5228
155.1142,86.5906
155.0916,86.6567
155.0466,86.6958
155.0311,86.7037
155.0057,86.7221
155.0057,86.7221
155.5714,87.2879
155.4863,87.3107
155.3837,87.3699
155.2999,87.4537
155.2407,87.5563
155.2179,87.6414
154.6521,87.0757
154.6521,87.0757
154.6337,87.1011
154.5479,87.2694
154.4895,87.4490
154.4600,87.6356
154.4600,87.8244
154.4895,88.0110
154.5479,88.1906
154.6337,88.3589
154.6521,88.3843
155.2179,87.8186
155.2407,87.9037
155.2999,88.0063
155.3837,88.0901
155.4863,88.1493
155.5714,88.1721
155.0057,88.7379
155.0057,88.7379
155.0311,88.7563
155.1994,88.8421
155.3790,88.9005
155.5656,88.9300
155.7544,88.9300
155.9410,88.9005
156.1206,88.8421
156.2889,88.7563
156.3143,88.7379
156.3143,88.7379
155.7486,88.1721
155.8337,88.1493
155.9363,88.0901
156.0201,88.0063
156.0793,87.9037
156.1021,87.8186
156.6679,88.3843
156.6679,88.3843
156.6863,88.3589
156.7721,88.1906
156.8305,88.0110
156.8600,87.8244
156.8600,87.6356
156.8305,87.4490
156.7721,87.2694
156.6863,87.1011
156.6679,87.0757
156.6679,87.0757
156.1021,87.6414
156.0793,87.5563
156.0201,87.4537
155.9363,87.3699
155.8337,87.3107
155.7486,87.2879
156.3143,86.7221
156.2889,86.7037
156.2734,86.6958
156.2226,86.6478
156.2058,86.5800
156.2284,86.5138
156.2734,86.4748
156.2892,86.4668
156.4421,86.3557
156.5166,86.2812
159.9095,86.2812
159.9095,86.4388
159.9403,86.5935
159.9403,86.5935
160.0006,86.7392
160.0006,86.7392
160.0882,86.8703
160.0882,86.8703
160.1997,86.9818
160.1997,86.9818
160.3308,87.0694
160.3308,87.0694
160.4607,87.1232
160.4765,87.1297
160.6312,87.1605
160.6312,87.1605
160.6312,87.1605
160.7888,87.1605
160.7888,87.1605
160.9435,87.1297
161.0892,87.0694
161.2203,86.9818
161.3318,86.8703
161.4194,86.7392
161.4797,86.5935
161.5105,86.4388
161.5105,86.2812
161.5105,86.2812
161.5105,86.2812
161.4797,86.1265
161.4797,86.1265
161.4194,85.9808
161.4194,85.9808
161.3644,85.8985
161.3644,85.8985
161.3501,85.8771
161.3318,85.8497
161.3318,85.8497
161.3318,85.8497
161.3157,85.8336
163.0245,85.8336
163.0245,86.0664
163.0245,86.0664
163.0528,86.2812
163.0549,86.2971
163.1003,86.4668
163.1151,86.5219
163.2042,86.7370
163.2042,86.7370
163.3206,86.9385
163.3206,86.9385
163.4622,87.1232
163.4622,87.1232
163.6268,87.2878
163.6268,87.2878
163.6567,87.3107
163.8115,87.4294
163.8115,87.4294
164.0130,87.5458
164.0130,87.5458
164.2281,87.6349
164.2281,87.6349
164.2281,87.6349
164.4529,87.6951
164.6836,87.7255
164.6836,87.7255
164.9164,87.7255
164.9164,87.7255
165.0591,87.7067
165.1281,87.7175
165.1804,87.7639
165.1992,87.8311
165.1969,87.8538
165.1795,87.9412
165.1795,88.0988
165.2103,88.2535
165.2103,88.2535
165.2706,88.3992
165.2706,88.3992
165.3582,88.5303
165.3582,88.5303
165.4697,88.6418
165.4697,88.6418
165.6008,88.7294
165.6008,88.7294
165.7464,88.7897
165.7465,88.7897
165.9012,88.8205
165.9012,88.8205
165.9012,88.8205
166.0588,88.8205
166.0588,88.8205
166.2135,88.7897
166.3592,88.7294
166.4903,88.6418
166.6018,88.5303
166.6894,88.3992
166.7497,88.2535
166.7805,88.0988
166.7805,87.9412
166.7805,87.9412
166.7805,87.9412
166.7631,87.8538
166.7497,87.7865
166.7263,87.7300
166.6894,87.6408
166.6894,87.6408
166.6018,87.5097
166.6018,87.5097
166.4903,87.3982
166.4903,87.3982
166.3592,87.3106
166.3592,87.3106
166.2313,87.2576
166.1769,87.2138
166.1549,87.1475
166.1721,87.0798
166.1804,87.0676
166.1820,87.0655
166.2794,86.9385
166.3958,86.7370
166.4129,86.6958
166.4849,86.5219
166.4849,86.5219
166.4849,86.5219
166.5451,86.2971
166.5755,86.0664
166.5755,85.8336
166.5451,85.6029
166.4849,85.3781
166.4849,85.3781
166.3958,85.1630
166.3958,85.1630
166.2794,84.9615
166.2794,84.9615
166.1504,84.7933
166.1378,84.7768
166.1378,84.7768
165.9732,84.6122
165.9732,84.6122
165.7885,84.4706
165.7885,84.4706
165.7885,84.4706
165.7885,84.4706
165.7885,84.4706
165.5870,84.3542
165.5870,84.3542
165.3719,84.2651
165.2973,84.2451
165.1471,84.2049
165.1471,84.2049
165.1471,84.2049
164.9164,84.1745
164.9164,84.1745
164.9164,84.1745
164.6836,84.1745
164.6836,84.1745
164.6836,84.1745
164.4529,84.2049
164.2281,84.2651
164.0130,84.3542
164.0130,84.3542
163.8115,84.4706
163.8115,84.4706
163.6268,84.6122
163.6268,84.6122
163.4622,84.7768
163.4622,84.7768
163.3206,84.9615
163.3206,84.9615
163.2042,85.1630
163.2042,85.1630
163.1151,85.3781
163.0549,85.6029
163.0245,85.8336
163.0245,85.8336
161.3157,85.8336
161.2203,85.7382
161.2203,85.7382
161.0892,85.6506
161.0892,85.6506
160.9435,85.5903
160.9435,85.5903
160.7888,85.5595
160.7888,85.5595
160.6312,85.5595
160.6312,85.5595
160.4765,85.5903
160.4765,85.5903
160.3308,85.6506
160.3308,85.6506
160.1997,85.7382
160.1997,85.7382
160.0882,85.8497
160.0882,85.8497
160.0006,85.9808
160.0006,85.9808
159.9403,86.1265
159.9403,86.1265
159.9095,86.2812
156.5166,86.2812
156.5757,86.2221
156.6868,86.0692
156.7725,85.9008
156.8309,85.7211
156.8347,85.6971
156.8605,85.5345
156.8605,85.3455
156.8309,85.1589
156.7882,85.0273
156.7725,84.9792
156.7725,84.9792
156.7725,84.9792
156.6868,84.8108
156.6740,84.7933
156.5757,84.6579
156.4421,84.5243
156.2892,84.4132
156.2816,84.4093
156.1208,84.3275
155.9411,84.2691
155.7545,84.2395
155.7545,84.2395
155.5655,84.2395
155.5655,84.2395
155.3789,84.2691
155.1992,84.3275
155.0308,84.4132
154.9628,84.4627
154.8779,84.5243
154.8779,84.5243
154.8779,84.5243
154.7443,84.6579
154.7443,84.6579
154.7443,84.6579
154.7137,84.7000
154.6332,84.8108
154.5475,84.9792
154.4891,85.1589
154.4595,85.3455
152.5905,85.3455
152.5905,84.7000
152.5905,83.9671
152.5905,83.9671
152.5873,83.9378
152.5997,83.8690
152.6474,83.8179
152.7106,83.8005
159.4002,83.8005
159.4673,83.8202
159.5130,83.8730
159.5230,83.9421
159.5218,83.9487
159.4895,84.1113
159.4895,84.2887
159.5241,84.4627
159.5241,84.4627
159.5920,84.6265
159.5920,84.6266
159.6905,84.7740
159.6905,84.7740
159.8160,84.8995
159.8160,84.8995
159.9634,84.9980
159.9635,84.9980
160.0630,85.0393
160.1273,85.0659
160.1273,85.0659
160.1273,85.0659
160.3013,85.1005
160.3013,85.1005
160.3013,85.1005
162.1787,85.1005
162.1787,85.1005
162.2490,85.0865
162.3527,85.0659
162.3527,85.0659
162.3527,85.0659
162.5165,84.9980
162.6640,84.8995
162.7895,84.7740
162.8880,84.6265
162.8945,84.6109
162.9084,84.5774
162.9559,84.4627
162.9612,84.4359
162.9797,84.3432
162.9905,84.2887
162.9905,84.1113
162.9905,84.1113
162.9905,84.1113
162.9582,83.9487
162.9644,83.8791
163.0072,83.8239
163.0731,83.8007
163.0798,83.8005
169.7255,83.8005
169.7925,83.8202
169.8383,83.8730
169.8495,83.9245
169.8495,100.6755
169.8298,100.7425
169.7770,100.7883
169.7255,100.7995
163.0798,100.7995
163.0127,100.7798
162.9670,100.7270
162.9570,100.6579
162.9582,100.6513
162.9905,100.4887
162.9905,100.4887
162.9905,100.3113
162.9905,100.3113
162.9559,100.1373
162.9559,100.1373
162.8880,99.9735
162.8880,99.9734
162.7895,99.8260
162.7895,99.8260
162.6640,99.7005
162.6640,99.7005
162.5166,99.6020
162.5165,99.6020
162.3527,99.5341
162.3527,99.5341
162.1787,99.4995
162.1787,99.4995
160.3013,99.4995
160.3013,99.4995
160.1273,99.5341
160.1273,99.5341
159.9635,99.6020
159.9634,99.6020
159.8160,99.7005
159.8160,99.7005
159.6905,99.8260
159.6905,99.8260
159.5920,99.9734
159.5920,99.9735
159.5241,100.1373
159.5241,100.1373
159.4895,100.3113
159.4895,100.4887
159.5218,100.6513
159.5156,100.7209
159.4728,100.7761
159.4069,100.7993
159.4002,100.7995
152.7089,100.7995
152.6418,100.7798
152.5961,100.7270
152.5862,100.6662
152.5856,100.6662
152.5855,100.6662
152.5855,100.6662
152.5853,100.6662
152.5855,100.6629
152.5855,100.1206
152.5855,99.1971
152.5855,99.1971
152.5855,99.1971
152.5791,99.1375
152.5288,99.0027
152.5288,99.0027
152.5288,99.0027
152.4425,98.8875
152.4425,98.8875
152.3273,98.8012
152.3273,98.8012
152.1925,98.7509
152.1925,98.7509
152.1329,98.7445
152.1329,98.7445
152.1329,98.7445
152.1329,98.7445
150.6671,98.7445
150.6671,98.7445
150.6075,98.7509
150.4727,98.8012
150.4727,98.8012
150.3575,98.8875
150.3575,98.8875
150.2712,99.0027
150.2712,99.0027
150.2209,99.1375
150.2145,99.1971
150.2145,99.1971
150.2145,99.1971
150.2145,99.4811
150.1948,99.5481
150.1420,99.5939
150.0729,99.6038
150.0093,99.5748
149.9726,99.5194
149.9582,99.4751
149.8735,99.3089
149.8571,99.2864
149.8571,99.2864
149.3511,99.7924
149.3352,99.7331
149.2681,99.6169
149.1731,99.5219
149.0569,99.4548
148.9976,99.4389
149.5036,98.9329
149.5036,98.9329
149.4811,98.9165
149.3149,98.8318
149.1375,98.7742
148.9533,98.7450
148.7667,98.7450
148.5825,98.7742
148.4051,98.8318
148.2389,98.9165
148.2389,98.9165
148.2164,98.9329
148.2164,98.9329
148.7224,99.4389
148.6631,99.4548
148.5469,99.5219
148.4519,99.6169
148.3848,99.7331
148.3689,99.7924
147.8629,99.2864
147.8629,99.2864
147.8465,99.3089
147.8465,99.3089
147.7618,99.4751
147.7082,99.6402
147.6688,99.6978
147.6044,99.7250
147.5356,99.7131
147.4841,99.6659
147.4723,99.6402
147.4186,99.4749
147.4186,99.4749
147.3993,99.4370
147.3339,99.3087
147.2242,99.1577
147.0923,99.0258
146.9413,98.9161
146.7751,98.8314
146.7751,98.8314
146.5976,98.7737
146.4538,98.7509
146.4133,98.7445
146.2267,98.7445
146.1653,98.7542
146.0424,98.7737
146.0424,98.7737
145.8649,98.8314
145.8649,98.8314
145.6987,98.9161
145.6125,98.9786
145.5477,99.0258
145.5477,99.0258
145.5477,99.0258
145.4158,99.1577
145.4158,99.1577
145.4158,99.1577
145.3871,99.1971
145.3061,99.3087
145.2214,99.4749
145.2214,99.4749
145.1679,99.6393
145.1285,99.6970
145.0641,99.7242
144.9953,99.7123
144.9438,99.6651
144.9321,99.6393
144.8786,99.4749
144.8786,99.4749
144.8593,99.4370
144.7939,99.3087
144.6842,99.1577
144.5523,99.0258
144.4013,98.9161
144.2351,98.8314
144.2351,98.8314
144.0576,98.7737
143.9138,98.7509
143.8733,98.7445
143.6867,98.7445
143.6253,98.7542
143.5024,98.7737
143.5024,98.7737
143.3249,98.8314
143.3249,98.8314
143.1587,98.9161
143.0725,98.9786
143.0077,99.0258
143.0077,99.0258
143.0077,99.0258
142.8758,99.1577
142.8758,99.1577
142.8758,99.1577
142.8471,99.1971
142.7661,99.3087
142.6814,99.4749
142.6814,99.4749
142.6279,99.6393
142.5885,99.6970
142.5241,99.7242
142.4553,99.7123
142.4038,99.6651
142.3921,99.6393
142.3386,99.4749
142.3386,99.4749
142.3193,99.4370
142.2539,99.3087
142.1442,99.1577
142.0123,99.0258
141.8613,98.9161
141.6951,98.8314
141.6951,98.8314
141.5176,98.7737
141.3738,98.7509
141.3333,98.7445
141.1467,98.7445
141.0853,98.7542
140.9624,98.7737
140.9624,98.7737
140.7849,98.8314
140.7849,98.8314
140.6187,98.9161
140.5325,98.9786
140.4677,99.0258
140.4677,99.0258
140.4677,99.0258
140.3358,99.1577
140.3358,99.1577
140.3358,99.1577
140.3071,99.1971
140.2261,99.3087
140.1414,99.4749
140.1414,99.4749
140.0879,99.6393
140.0485,99.6970
139.9841,99.7242
139.9153,99.7123
139.8638,99.6651
139.8521,99.6393
139.7986,99.4749
139.7986,99.4749
139.7793,99.4370
139.7139,99.3087
139.6042,99.1577
139.4723,99.0258
139.3213,98.9161
139.1551,98.8314
139.1551,98.8314
138.9776,98.7737
138.8338,98.7509
138.7933,98.7445
138.6067,98.7445
138.5453,98.7542
138.4224,98.7737
138.4224,98.7737
138.2449,98.8314
138.2449,98.8314
138.0787,98.9161
137.9925,98.9786
137.9277,99.0258
137.9277,99.0258
137.9277,99.0258
137.7958,99.1577
137.7958,99.1577
137.7958,99.1577
137.7671,99.1971
137.6861,99.3087
137.6014,99.4749
137.6014,99.4749
137.5479,99.6393
137.5085,99.6970
137.4441,99.7242
137.3753,99.7123
137.3238,99.6651
137.3121,99.6393
137.2586,99.4749
137.2586,99.4749
137.2393,99.4370
137.1739,99.3087
137.0642,99.1577
136.9323,99.0258
136.7813,98.9161
136.6151,98.8314
136.6151,98.8314
136.4376,98.7737
136.2938,98.7509
136.2533,98.7445
136.0667,98.7445
136.0053,98.7542
135.8824,98.7737
135.8824,98.7737
135.7049,98.8314
135.7049,98.8314
135.5387,98.9161
135.4525,98.9786
135.3877,99.0258
135.3877,99.0258
135.3877,99.0258
135.2558,99.1577
135.2558,99.1577
135.2558,99.1577
135.2271,99.1971
135.1461,99.3087
135.0614,99.4749
135.0614,99.4749
135.0079,99.6393
134.9685,99.6970
134.9041,99.7242
134.8353,99.7123
134.7838,99.6651
134.7721,99.6393
134.7186,99.4749
134.7186,99.4749
134.6993,99.4370
134.6339,99.3087
134.5242,99.1577
134.3923,99.0258
134.2413,98.9161
134.0751,98.8314
134.0751,98.8314
133.8976,98.7737
133.7538,98.7509
133.7133,98.7445
133.5267,98.7445
133.4653,98.7542
133.3424,98.7737
133.3424,98.7737
133.1649,98.8314
133.1649,98.8314
132.9987,98.9161
132.9125,98.9786
132.8477,99.0258
132.8477,99.0258
132.8477,99.0258
132.7158,99.1577
132.7158,99.1577
132.7158,99.1577
132.6871,99.1971
132.6061,99.3087
132.5214,99.4749
132.5214,99.4749
132.4679,99.6393
132.4285,99.6970
132.3641,99.7242
132.2953,99.7123
132.2438,99.6651
132.2321,99.6393
132.1786,99.4749
132.1786,99.4749
132.1593,99.4370
132.0939,99.3087
131.9842,99.1577
131.8523,99.0258
131.7013,98.9161
131.5351,98.8314
131.5351,98.8314
131.3576,98.7737
131.2138,98.7509
131.1733,98.7445
130.9867,98.7445
130.9253,98.7542
130.8024,98.7737
130.8024,98.7737
130.6249,98.8314
130.6249,98.8314
130.4587,98.9161
130.3725,98.9786
130.3077,99.0258
130.3077,99.0258
130.3077,99.0258
130.1758,99.1577
130.1758,99.1577
130.1758,99.1577
130.1471,99.1971
130.0661,99.3087
129.9814,99.4749
129.9814,99.4749
129.9279,99.6393
129.8885,99.6970
129.8241,99.7242
129.7553,99.7123
129.7038,99.6651
129.6921,99.6393
129.6386,99.4749
129.6386,99.4749
129.6193,99.4370
129.5539,99.3087
129.4442,99.1577
129.3123,99.0258
129.1613,98.9161
128.9951,98.8314
128.9951,98.8314
128.8176,98.7737
128.6738,98.7509
128.6333,98.7445
128.4467,98.7445
128.3853,98.7542
128.2624,98.7737
128.2624,98.7737
128.0849,98.8314
128.0849,98.8314
127.9187,98.9161
127.8325,98.9786
127.7677,99.0258
127.7677,99.0258
127.7677,99.0258
127.6358,99.1577
127.6358,99.1577
127.6358,99.1577
127.6071,99.1971
127.5261,99.3087
127.4414,99.4749
127.4414,99.4749
127.3879,99.6393
127.3485,99.6970
127.2841,99.7242
127.2153,99.7123
127.1638,99.6651
127.1521,99.6393
127.0986,99.4749
127.0986,99.4749
127.0793,99.4370
127.0139,99.3087
126.9042,99.1577
126.7723,99.0258
126.6213,98.9161
126.4551,98.8314
126.4551,98.8314
126.2776,98.7737
126.1338,98.7509
126.0933,98.7445
125.9067,98.7445
125.8453,98.7542
125.7224,98.7737
125.7224,98.7737
125.5449,98.8314
125.5449,98.8314
125.3787,98.9161
125.2925,98.9786
125.2277,99.0258
125.2277,99.0258
125.2277,99.0258
125.0958,99.1577
125.0958,99.1577
125.0958,99.1577
125.0671,99.1971
124.9861,99.3087
124.9014,99.4749
124.9014,99.4749
124.8479,99.6393
124.8085,99.6970
124.7441,99.7242
124.6753,99.7123
124.6238,99.6651
124.6121,99.6393
124.5586,99.4749
124.5586,99.4749
124.5393,99.4370
124.4739,99.3087
124.3642,99.1577
124.2323,99.0258
124.0813,98.9161
123.9151,98.8314
123.9151,98.8314
123.7376,98.7737
123.5938,98.7509
123.5533,98.7445
123.3667,98.7445
123.3053,98.7542
123.1824,98.7737
123.1824,98.7737
123.0049,98.8314
123.0049,98.8314
122.8387,98.9161
122.7525,98.9786
122.6877,99.0258
122.6877,99.0258
122.6877,99.0258
122.5558,99.1577
122.5558,99.1577
122.5558,99.1577
122.5271,99.1971
122.4461,99.3087
122.3614,99.4749
122.3614,99.4749
122.3079,99.6393
122.2685,99.6970
122.2041,99.7242
122.1353,99.7123
122.0838,99.6651
122.0721,99.6393
122.0186,99.4749
122.0186,99.4749
121.9993,99.4370
121.9339,99.3087
121.8242,99.1577
121.6923,99.0258
121.5413,98.9161
121.3751,98.8314
121.3751,98.8314
121.1976,98.7737
121.0538,98.7509
121.0133,98.7445
120.8267,98.7445
120.7653,98.7542
120.6424,98.7737
120.6424,98.7737
120.4649,98.8314
120.4649,98.8314
120.2987,98.9161
120.2125,98.9786
120.1477,99.0258
120.1477,99.0258
120.1477,99.0258
120.0158,99.1577
120.0158,99.1577
120.0158,99.1577
119.9871,99.1971
119.9061,99.3087
119.8214,99.4749
119.8214,99.4749
119.7679,99.6393
119.7285,99.6970
119.6641,99.7242
119.5953,99.7123
119.5438,99.6651
119.5321,99.6393
119.4786,99.4749
119.4786,99.4749
119.4593,99.4370
119.3939,99.3087
119.2842,99.1577
119.1523,99.0258
119.0013,98.9161
118.8351,98.8314
118.8351,98.8314
118.6576,98.7737
118.5138,98.7509
118.4733,98.7445
118.2867,98.7445
118.2253,98.7542
118.1024,98.7737
118.1024,98.7737
117.9249,98.8314
117.9249,98.8314
117.7587,98.9161
117.6725,98.9786
117.6077,99.0258
117.6077,99.0258
117.6077,99.0258
117.4758,99.1577
117.4758,99.1577
117.4758,99.1577
117.4471,99.1971
117.3661,99.3087
117.2814,99.4749
117.2814,99.4749
117.2279,99.6393
117.1885,99.6970
117.1241,99.7242
117.0553,99.7123
117.0038,99.6651
116.9921,99.6393
116.9386,99.4749
116.9386,99.4749
116.9193,99.4370
116.8539,99.3087
116.7442,99.1577
116.6123,99.0258
116.4613,98.9161
116.2951,98.8314
116.2951,98.8314
116.1176,98.7737
115.9738,98.7509
115.9333,98.7445
115.7467,98.7445
115.6853,98.7542
115.5624,98.7737
115.5624,98.7737
115.3849,98.8314
115.3849,98.8314
115.2187,98.9161
115.1325,98.9786
115.0677,99.0258
115.0677,99.0258
115.0677,99.0258
114.9358,99.1577
114.9358,99.1577
114.9358,99.1577
114.9071,99.1971
114.8261,99.3087
114.7414,99.4749
114.7414,99.4749
114.6837,99.6524
114.6837,99.6524
114.6545,99.8367
114.6545,100.0233
114.6837,100.2076
114.6837,100.2076
114.7414,100.3851
114.7414,100.3851
114.8261,100.5513
114.8633,100.6026
114.8868,100.6684
114.8710,100.7365
114.8209,100.7852
114.7630,100.7995
112.4745,100.7995
112.4075,100.7798
112.3617,100.7270
112.3505,100.6755
112.3505,87.4771
113.6745,87.4771
113.6745,89.2729
113.6745,89.2729
113.6809,89.3325
113.7312,89.4673
113.7312,89.4673
113.8175,89.5825
113.8175,89.5825
113.9327,89.6688
113.9327,89.6688
114.0641,89.7178
114.1200,89.7597
114.1444,89.8251
114.1296,89.8934
114.1084,89.9217
113.9949,90.0352
113.8700,90.2072
113.7734,90.3966
113.7078,90.5988
113.6745,90.8087
113.6745,90.8087
113.6745,91.0213
113.6804,91.0583
113.7056,91.2178
113.7078,91.2312
113.7705,91.4243
113.7734,91.4334
113.8700,91.6228
113.9949,91.7948
114.1452,91.9451
114.3172,92.0700
114.3259,92.0745
114.3767,92.1225
114.3935,92.1903
114.3710,92.2564
114.3259,92.2955
114.3172,92.2999
114.1452,92.4249
113.9949,92.5752
113.8700,92.7472
113.7734,92.9366
113.7078,93.1388
113.6784,93.3242
113.6745,93.3487
113.6745,93.5613
113.6794,93.5921
113.7076,93.7703
113.7078,93.7712
113.7721,93.9694
113.7734,93.9734
113.8700,94.1628
113.9949,94.3348
114.1452,94.4851
114.3172,94.6101
114.3259,94.6145
114.3767,94.6625
114.3935,94.7303
114.3710,94.7964
114.3259,94.8355
114.3172,94.8399
114.1452,94.9649
113.9949,95.1152
113.8700,95.2872
113.7734,95.4766
113.7078,95.6788
113.6745,95.8887
113.6745,96.1013
113.7044,96.2898
113.7078,96.3112
113.7712,96.5065
113.7734,96.5134
113.8700,96.7028
113.9949,96.8748
114.1452,97.0251
114.3172,97.1500
114.3172,97.1500
114.3172,97.1501
114.5066,97.2466
114.7088,97.3122
114.9187,97.3455
114.9187,97.3455
115.1313,97.3455
115.1313,97.3455
115.3412,97.3122
115.4215,97.2862
144.3895,97.2862
144.3895,97.4438
144.4203,97.5985
144.4203,97.5985
144.4806,97.7442
144.4806,97.7442
144.5682,97.8753
144.5682,97.8753
144.6797,97.9868
144.6797,97.9868
144.8108,98.0744
144.8108,98.0744
144.9565,98.1347
144.9565,98.1347
145.0439,98.1521
145.1112,98.1655
145.1112,98.1655
145.1112,98.1655
145.2688,98.1655
145.2688,98.1655
145.4235,98.1347
145.5394,98.0867
145.5692,98.0744
145.5692,98.0744
145.5692,98.0744
145.7003,97.9868
145.8118,97.8753
145.8994,97.7442
145.9597,97.5985
145.9905,97.4438
145.9905,97.2862
145.9905,97.2862
145.9905,97.2862
145.9834,97.2503
145.9597,97.1315
145.9281,97.0550
145.8994,96.9858
145.8994,96.9858
145.8273,96.8780
148.2249,96.8780
148.2249,96.8780
148.2284,96.8803
148.3558,96.9331
148.3558,96.9331
148.4697,96.9557
148.5316,96.9881
148.5662,97.0489
148.5675,97.0550
148.5695,97.0661
148.5695,97.0861
148.5811,97.1293
148.5820,97.1343
148.5788,97.1642
148.5781,97.1944
148.5747,97.2037
148.5747,97.2038
148.5747,97.2038
148.5746,97.2040
148.5653,97.2265
148.5653,97.2265
148.5345,97.3812
148.5345,97.5388
148.5549,97.6415
148.5487,97.7111
148.5210,97.7533
148.4995,97.7748
148.4995,97.7748
148.4534,97.8547
148.4534,97.8547
148.4534,97.8547
148.4534,97.8547
148.4295,97.9439
148.4295,98.0361
148.4531,98.1243
148.4534,98.1253
148.4534,98.1253
148.4995,98.2052
148.4995,98.2052
148.4995,98.2052
148.5648,98.2705
148.5648,98.2705
148.5648,98.2705
148.6447,98.3166
148.6447,98.3166
148.6447,98.3166
148.7339,98.3405
148.7339,98.3405
148.8261,98.3405
148.8261,98.3405
148.9153,98.3166
148.9153,98.3166
148.9391,98.3029
148.9680,98.2862
149.0359,98.2697
149.0920,98.2862
149.1074,98.2951
149.1447,98.3166
149.1447,98.3166
149.1447,98.3166
149.2339,98.3405
149.2339,98.3405
149.3261,98.3405
149.3261,98.3405
149.4153,98.3166
149.4153,98.3166
149.4391,98.3029
149.4680,98.2862
149.5359,98.2697
149.5920,98.2862
149.6074,98.2951
149.6447,98.3166
149.6447,98.3166
149.6447,98.3166
149.7339,98.3405
149.7339,98.3405
149.8261,98.3405
149.8261,98.3405
149.9153,98.3166
149.9952,98.2705
150.0605,98.2052
150.1066,98.1253
150.1305,98.0361
150.1305,97.9439
150.1066,97.8547
150.0972,97.8384
150.0807,97.7705
150.0900,97.7290
150.1047,97.6935
150.1355,97.5388
150.1355,97.3812
150.1355,97.3812
150.1355,97.3812
150.1218,97.3122
150.1047,97.2265
150.0894,97.1894
150.0803,97.1321
150.0812,97.1208
150.0905,97.0861
150.0905,97.0039
150.0909,96.9990
150.1017,96.9707
150.1102,96.9417
150.1140,96.9384
150.1158,96.9337
150.1402,96.9158
150.1513,96.9061
150.0980,96.9023
150.0823,96.8906
150.1983,96.8906
150.2022,96.8903
150.2321,96.8860
150.2392,96.8880
150.2418,96.8878
150.2449,96.8895
150.2620,96.8942
150.3558,96.9331
150.3558,96.9331
150.4911,96.9600
150.5626,96.9600
150.6296,96.9797
150.6754,97.0325
150.6853,97.1016
150.6700,97.1460
150.6534,97.1747
150.6331,97.2503
150.6295,97.2639
150.6295,97.3561
150.6530,97.4438
150.6534,97.4453
150.6534,97.4453
150.6995,97.5252
150.6995,97.5252
150.7361,97.5618
150.7696,97.6231
150.7646,97.6928
150.7361,97.7372
150.6995,97.7738
150.6995,97.7738
150.6534,97.8537
150.6534,97.8537
150.6534,97.8537
150.6534,97.8537
150.6295,97.9429
150.6295,98.0351
150.6527,98.1216
150.6534,98.1243
150.6534,98.1243
150.6995,98.2042
150.6995,98.2042
150.6995,98.2042
150.7648,98.2695
150.7648,98.2695
150.7648,98.2695
150.8447,98.3156
150.8447,98.3156
150.8447,98.3156
150.9339,98.3395
150.9339,98.3395
151.0261,98.3395
151.0261,98.3395
151.1153,98.3156
151.1952,98.2695
151.2605,98.2042
151.3066,98.1243
151.3305,98.0351
151.3305,97.9429
151.3066,97.8537
151.3066,97.8537
151.2605,97.7738
151.2605,97.7738
151.2605,97.7738
151.2239,97.7372
151.1904,97.6759
151.1954,97.6062
151.2239,97.5618
151.2605,97.5252
151.3066,97.4453
151.3305,97.3561
151.3305,97.2639
151.3066,97.1747
151.3066,97.1747
151.2795,97.1277
151.2630,97.0598
151.2859,96.9938
151.3408,96.9506
151.4103,96.9439
151.4111,96.9441
151.4911,96.9600
151.6289,96.9600
151.7642,96.9331
151.7642,96.9331
151.8916,96.8803
151.8916,96.8803
151.8951,96.8780
151.5600,96.5428
151.5600,96.5428
151.2146,96.8882
151.2144,96.8917
151.2095,96.8985
151.2079,96.9068
151.1893,96.9264
151.1735,96.9483
151.1657,96.9514
151.1599,96.9575
151.1336,96.9639
151.1084,96.9738
151.0974,96.9728
151.0920,96.9741
151.0732,96.9718
151.0693,96.9711
151.0261,96.9595
151.0116,96.9595
150.9995,96.9571
150.9790,96.9463
150.9569,96.9398
150.9487,96.9304
150.9377,96.9246
150.9323,96.9151
150.5600,96.5428
150.5600,96.5428
150.2290,96.8738
150.1983,96.8906
150.0823,96.8906
150.0421,96.8605
150.0340,96.8481
150.0299,96.8412
150.0205,96.8248
149.9552,96.7595
149.9552,96.7595
149.9552,96.7595
149.8753,96.7134
149.8753,96.7134
149.8753,96.7134
149.8753,96.7134
149.7861,96.6895
149.7580,96.6895
149.6910,96.6698
149.6703,96.6532
149.5600,96.5428
149.4797,96.6232
149.4183,96.6567
149.3920,96.6595
149.2562,96.6595
149.1846,96.6737
149.1804,96.6734
149.1692,96.6758
148.9818,96.6892
148.9730,96.6895
148.8739,96.6895
148.8111,96.7063
148.7413,96.7046
148.6914,96.6742
148.5600,96.5428
148.2249,96.8780
145.8273,96.8780
145.8118,96.8547
145.8118,96.8547
145.7003,96.7432
145.7003,96.7432
145.5692,96.6556
145.5692,96.6556
145.4235,96.5953
145.4235,96.5953
145.2688,96.5645
145.2688,96.5645
145.1112,96.5645
145.1112,96.5645
144.9565,96.5953
144.9565,96.5953
144.8108,96.6556
144.8108,96.6556
144.6797,96.7432
144.6797,96.7432
144.5682,96.8547
144.5682,96.8547
144.4806,96.9858
144.4806,96.9858
144.4203,97.1315
144.4203,97.1315
144.3895,97.2862
115.4215,97.2862
115.5434,97.2466
115.7328,97.1501
115.8208,97.0861
115.9048,97.0251
115.9048,97.0251
115.9048,97.0251
116.0551,96.8748
116.0551,96.8748
116.0551,96.8748
116.1800,96.7028
116.1800,96.7028
116.1801,96.7028
116.2766,96.5134
116.3365,96.3289
147.8600,96.3289
147.8869,96.4642
147.8869,96.4642
147.9397,96.5916
147.9397,96.5916
147.9420,96.5951
148.2772,96.2600
148.2473,96.2302
148.4100,96.2302
148.4100,96.2898
148.4328,96.3450
148.4750,96.3872
148.5302,96.4100
148.5898,96.4100
148.6450,96.3872
148.6872,96.3450
148.7100,96.2898
148.7100,96.2600
148.8428,96.2600
149.0206,96.4378
149.1054,96.4317
149.2772,96.2600
149.2473,96.2302
149.4100,96.2302
149.4100,96.2898
149.4328,96.3450
149.4750,96.3872
149.5302,96.4100
149.5898,96.4100
149.6450,96.3872
149.6872,96.3450
149.7100,96.2898
149.7100,96.2600
149.8428,96.2600
150.0600,96.4772
150.2772,96.2600
150.2772,96.2600
150.2473,96.2302
150.4100,96.2302
150.4100,96.2898
150.4328,96.3450
150.4750,96.3872
150.5302,96.4100
150.5898,96.4100
150.6450,96.3872
150.6872,96.3450
150.7100,96.2898
150.7100,96.2600
150.8428,96.2600
151.0600,96.4772
151.2772,96.2600
151.2772,96.2600
151.2473,96.2302
151.4100,96.2302
151.4100,96.2898
151.4328,96.3450
151.4750,96.3872
151.5302,96.4100
151.5898,96.4100
151.6450,96.3872
151.6872,96.3450
151.7100,96.2898
151.7100,96.2600
151.8428,96.2600
152.1780,96.5951
152.1803,96.5916
152.1803,96.5916
152.2331,96.4642
152.2331,96.4642
152.2600,96.3289
152.2600,96.1911
152.2331,96.0558
152.2331,96.0558
152.1803,95.9284
152.1780,95.9249
151.8428,96.2600
151.7100,96.2600
151.7100,96.2302
151.6872,96.1750
151.6450,96.1328
151.5898,96.1100
151.5302,96.1100
151.4750,96.1328
151.4328,96.1750
151.4100,96.2302
151.2473,96.2302
151.0600,96.0428
150.8428,96.2600
150.7100,96.2600
150.7100,96.2302
150.6872,96.1750
150.6450,96.1328
150.5898,96.1100
150.5302,96.1100
150.4750,96.1328
150.4328,96.1750
150.4100,96.2302
150.2473,96.2302
150.0600,96.0428
149.8428,96.2600
149.7100,96.2600
149.7100,96.2302
149.6872,96.1750
149.6450,96.1328
149.5898,96.1100
149.5302,96.1100
149.4750,96.1328
149.4328,96.1750
149.4100,96.2302
149.2473,96.2302
149.0600,96.0428
148.8428,96.2600
148.7100,96.2600
148.7100,96.2302
148.6872,96.1750
148.6450,96.1328
148.5898,96.1100
148.5302,96.1100
148.4750,96.1328
148.4328,96.1750
148.4100,96.2302
148.2473,96.2302
147.9420,95.9249
147.9420,95.9249
147.9397,95.9284
147.9397,95.9284
147.8869,96.0558
147.8869,96.0558
147.8600,96.1911
147.8600,96.3289
147.8600,96.3289
116.3365,96.3289
116.3422,96.3112
116.3755,96.1013
116.3755,95.8887
116.3422,95.6788
116.2766,95.4766
116.1801,95.2872
116.1800,95.2872
116.1800,95.2872
116.0551,95.1152
115.9048,94.9649
115.7328,94.8400
115.7266,94.8368
115.7241,94.8355
115.6733,94.7875
115.6565,94.7197
115.6790,94.6536
115.7241,94.6145
115.7328,94.6101
115.7795,94.5761
115.9048,94.4851
115.9048,94.4851
115.9048,94.4851
116.0551,94.3348
116.0551,94.3348
116.0551,94.3348
116.1800,94.1628
116.1800,94.1628
116.1801,94.1628
116.2766,93.9734
116.3422,93.7712
116.3632,93.6392
116.3640,93.6337
137.0370,93.6337
137.0370,93.7913
137.0678,93.9460
137.0678,93.9460
137.1281,94.0917
137.1281,94.0917
137.2157,94.2228
137.2157,94.2228
137.3272,94.3343
137.3272,94.3343
137.4583,94.4219
137.4583,94.4219
137.6040,94.4822
137.6040,94.4822
137.7587,94.5130
137.7587,94.5130
137.7587,94.5130
137.9163,94.5130
137.9163,94.5130
138.0710,94.4822
138.2167,94.4219
138.3478,94.3343
138.4593,94.2228
138.5469,94.0917
138.5526,94.0779
138.5932,93.9799
138.6072,93.9460
138.6128,93.9182
138.6452,93.8563
138.7059,93.8217
138.7756,93.8254
138.8033,93.8393
138.8708,93.8844
138.8708,93.8844
138.8708,93.8844
138.9629,93.9225
139.0165,93.9447
139.1607,93.9734
139.1712,93.9755
139.1712,93.9755
139.1712,93.9755
139.3288,93.9755
139.3691,93.9675
139.4315,93.9551
139.5011,93.9613
139.5563,94.0042
139.5795,94.0701
139.5634,94.1381
139.5246,94.1798
139.4147,94.2532
139.4147,94.2532
139.3032,94.3647
139.3032,94.3647
139.2156,94.4958
139.2156,94.4958
139.1553,94.6415
139.1553,94.6415
139.1245,94.7962
139.1245,94.9538
139.1553,95.1085
139.1553,95.1085
139.2156,95.2542
139.2156,95.2542
139.3032,95.3853
139.3032,95.3853
139.4147,95.4968
139.4147,95.4968
139.5458,95.5844
139.5458,95.5844
139.6915,95.6447
139.6915,95.6447
139.8462,95.6755
139.8462,95.6755
139.8462,95.6755
140.0038,95.6755
140.0038,95.6755
140.1585,95.6447
140.1650,95.6420
148.2249,95.6420
148.2249,95.6420
148.5600,95.9772
148.6914,95.8458
148.7527,95.8123
148.7924,95.8102
148.8019,95.8112
148.8739,95.8305
148.9661,95.8305
148.9700,95.8295
148.9863,95.8312
149.0126,95.8421
149.0147,95.8376
149.0494,95.8126
149.0482,95.8107
149.1352,95.7605
149.1352,95.7605
149.1352,95.7605
149.1516,95.7441
149.2129,95.7106
149.2826,95.7156
149.3269,95.7441
149.5600,95.9772
149.6703,95.8668
149.7317,95.8333
149.7580,95.8305
149.7861,95.8305
149.7861,95.8305
149.8753,95.8066
149.9552,95.7605
150.0156,95.7001
150.2830,95.7001
150.5600,95.9772
150.5600,95.9772
150.8951,95.6420
150.8951,95.6420
151.2249,95.6420
151.2249,95.6420
151.5600,95.9772
151.5600,95.9772
151.8951,95.6420
151.8916,95.6397
151.7642,95.5869
151.7642,95.5869
151.6289,95.5600
151.4911,95.5600
151.3558,95.5869
151.3558,95.5869
151.2284,95.6397
151.2284,95.6397
151.2249,95.6420
150.8951,95.6420
150.8941,95.6319
150.9071,95.5633
150.9552,95.5126
150.9554,95.5125
150.9952,95.4895
151.0605,95.4242
151.1066,95.3443
151.1305,95.2551
151.1305,95.1629
151.1066,95.0737
151.1066,95.0737
152.2370,95.0737
152.2370,95.2313
152.2678,95.3860
152.2678,95.3860
152.3281,95.5317
152.3281,95.5317
152.4157,95.6628
152.4157,95.6628
152.5272,95.7743
152.5272,95.7743
152.6583,95.8619
152.6583,95.8619
152.7231,95.8887
152.8040,95.9222
152.9587,95.9530
152.9587,95.9530
152.9647,95.9536
152.9645,95.9556
153.0226,95.9727
153.0684,96.0255
153.0783,96.0946
153.0493,96.1582
153.0432,96.1647
152.9782,96.2297
152.9782,96.2297
152.8906,96.3608
152.8906,96.3608
152.8303,96.5065
152.8303,96.5065
152.7995,96.6612
152.7995,96.8188
152.8303,96.9735
152.8303,96.9735
152.8906,97.1192
152.8906,97.1192
152.9782,97.2503
152.9782,97.2503
153.0897,97.3618
153.0897,97.3618
153.2208,97.4494
153.2208,97.4494
153.3665,97.5097
153.3665,97.5097
153.5128,97.5388
153.5212,97.5405
153.5212,97.5405
153.5212,97.5405
153.6788,97.5405
153.6788,97.5405
153.8335,97.5097
153.9792,97.4494
154.1103,97.3618
154.2218,97.2503
154.2813,97.1613
154.3349,97.1165
154.4042,97.1078
154.4672,97.1379
154.5023,97.1919
154.5475,97.3308
154.6218,97.4768
154.6332,97.4992
154.7443,97.6521
154.8779,97.7857
155.0308,97.8968
155.0466,97.9048
155.0466,97.9048
155.0974,97.9528
155.1142,98.0206
155.0916,98.0867
155.0466,98.1258
155.0311,98.1337
155.0057,98.1521
155.0057,98.1521
155.5714,98.7179
155.4863,98.7407
155.3837,98.7999
155.2999,98.8837
155.2407,98.9863
155.2179,99.0714
154.6521,98.5057
154.6521,98.5057
154.6337,98.5311
154.5479,98.6994
154.4895,98.8790
154.4600,99.0656
154.4600,99.2544
154.4895,99.4410
154.5479,99.6206
154.6337,99.7889
154.6521,99.8143
155.2179,99.2486
155.2407,99.3337
155.2999,99.4363
155.3837,99.5201
155.4863,99.5793
155.5714,99.6021
155.0057,100.1679
155.0057,100.1679
155.0311,100.1863
155.1994,100.2721
155.3790,100.3305
155.5656,100.3600
155.7544,100.3600
155.9410,100.3305
156.1206,100.2721
156.2889,100.1863
156.3143,100.1679
156.3143,100.1679
155.7486,99.6021
155.8337,99.5793
155.9363,99.5201
156.0201,99.4363
156.0793,99.3337
156.1021,99.2486
156.6679,99.8143
156.6679,99.8143
156.6863,99.7889
156.7721,99.6206
156.8305,99.4410
156.8600,99.2544
156.8600,99.0656
156.8305,98.8790
156.7721,98.6994
156.6863,98.5311
156.6679,98.5057
156.6679,98.5057
156.1021,99.0714
156.0793,98.9863
156.0201,98.8837
155.9363,98.7999
155.8337,98.7407
155.7486,98.7179
156.3143,98.1521
156.3026,98.1436
156.2660,98.1216
156.2451,98.0990
156.2226,98.0778
156.2216,98.0735
156.2186,98.0703
156.2143,98.0462
159.2995,98.0462
159.2995,98.2038
159.3303,98.3585
159.3303,98.3585
159.3906,98.5042
159.3906,98.5042
159.4782,98.6353
159.4782,98.6353
159.5897,98.7468
159.5897,98.7468
159.7208,98.8344
159.7208,98.8344
159.8665,98.8947
159.8665,98.8947
160.0212,98.9255
160.0212,98.9255
160.0212,98.9255
160.1788,98.9255
160.1788,98.9255
160.3335,98.8947
160.4792,98.8344
160.6103,98.7468
160.7218,98.6353
160.7897,98.5336
163.0245,98.5336
163.0245,98.7664
163.0245,98.7664
163.0535,98.9863
163.0549,98.9971
163.1085,99.1971
163.1151,99.2219
163.2042,99.4370
163.2042,99.4370
163.3206,99.6385
163.3206,99.6385
163.4622,99.8232
163.4622,99.8232
163.6268,99.9878
163.6268,99.9878
163.8115,100.1294
163.8115,100.1294
164.0130,100.2458
164.0130,100.2458
164.2281,100.3349
164.2281,100.3349
164.2281,100.3349
164.4529,100.3951
164.6836,100.4255
164.6836,100.4255
164.9164,100.4255
164.9164,100.4255
165.1471,100.3951
165.3719,100.3349
165.5235,100.2721
165.5870,100.2458
165.5870,100.2458
165.5870,100.2458
165.7885,100.1294
165.9732,99.9878
166.1378,99.8232
166.2794,99.6385
166.3958,99.4370
166.4386,99.3337
166.4849,99.2219
166.4849,99.2219
166.4849,99.2219
166.5451,98.9971
166.5755,98.7664
166.5755,98.5336
166.5451,98.3029
166.4849,98.0781
166.4834,98.0744
166.3958,97.8630
166.3958,97.8630
166.2794,97.6615
166.2794,97.6615
166.1854,97.5388
166.1378,97.4768
166.1378,97.4768
165.9732,97.3122
165.9732,97.3122
165.7885,97.1706
165.7885,97.1706
165.7885,97.1706
165.7885,97.1706
165.7885,97.1706
165.5870,97.0542
165.5870,97.0542
165.3719,96.9651
165.3696,96.9645
165.1471,96.9049
165.1471,96.9049
165.1471,96.9049
164.9164,96.8745
164.9164,96.8745
164.9164,96.8745
164.6836,96.8745
164.6836,96.8745
164.6836,96.8745
164.4529,96.9049
164.2281,96.9651
164.0130,97.0542
164.0130,97.0542
163.8115,97.1706
163.8115,97.1706
163.6268,97.3122
163.6268,97.3122
163.4622,97.4768
163.4622,97.4768
163.3206,97.6615
163.3206,97.6615
163.2042,97.8630
163.2042,97.8630
163.1151,98.0781
163.0549,98.3029
163.0245,98.5336
163.0245,98.5336
160.7897,98.5336
160.8094,98.5042
160.8697,98.3585
160.9005,98.2038
160.9005,98.0462
160.9005,98.0462
160.9005,98.0462
160.8925,98.0058
160.8697,97.8915
160.8545,97.8547
160.8094,97.7458
160.8094,97.7458
160.7218,97.6147
160.7218,97.6147
160.6103,97.5032
160.6103,97.5032
160.4792,97.4156
160.4792,97.4156
160.3335,97.3553
160.3335,97.3553
160.1788,97.3245
160.1788,97.3245
160.0212,97.3245
160.0212,97.3245
159.8665,97.3553
159.8665,97.3553
159.7208,97.4156
159.7208,97.4156
159.5897,97.5032
159.5897,97.5032
159.4782,97.6147
159.4782,97.6147
159.3906,97.7458
159.3906,97.7458
159.3303,97.8915
159.3303,97.8915
159.2995,98.0462
156.2143,98.0462
156.2132,98.0399
156.2058,98.0100
156.2073,98.0058
156.2065,98.0015
156.2184,97.9730
156.2284,97.9438
156.2320,97.9407
156.2335,97.9370
156.2466,97.9281
156.2734,97.9048
156.2892,97.8968
156.4421,97.7857
156.5757,97.6521
156.6868,97.4992
156.7725,97.3308
156.8309,97.1511
156.8336,97.1343
156.8605,96.9645
156.8605,96.7755
156.8309,96.5889
156.7933,96.4731
156.7725,96.4092
156.7725,96.4092
156.7725,96.4092
156.7117,96.2898
156.6868,96.2408
156.5757,96.0879
156.4421,95.9543
156.2892,95.8432
156.2870,95.8421
156.1208,95.7575
155.9411,95.6991
155.7545,95.6695
155.7545,95.6695
155.5655,95.6695
155.5655,95.6695
155.3789,95.6991
155.1992,95.7575
155.0308,95.8432
154.9981,95.8670
154.8779,95.9543
154.8779,95.9543
154.8779,95.9543
154.7443,96.0879
154.7443,96.0879
154.7443,96.0879
154.7223,96.1182
154.6332,96.2408
154.5493,96.4055
154.5013,96.4563
154.4335,96.4731
154.3674,96.4506
154.3243,96.3967
154.3094,96.3608
154.3094,96.3608
154.3094,96.3608
154.3094,96.3608
154.2218,96.2297
154.2218,96.2297
154.1103,96.1182
154.1103,96.1182
153.9792,96.0306
153.9792,96.0306
153.8335,95.9703
153.8335,95.9703
153.6788,95.9395
153.6728,95.9389
153.6730,95.9369
153.6149,95.9198
153.5691,95.8670
153.5592,95.7979
153.5882,95.7343
153.5943,95.7278
153.6593,95.6628
153.6593,95.6628
153.7469,95.5317
153.7482,95.5286
153.7697,95.4766
153.8072,95.3860
153.8380,95.2313
153.8380,95.1828
153.8577,95.1158
153.9105,95.0700
153.9378,95.0612
154.0146,95.0459
154.0835,95.0322
154.2292,94.9719
154.3603,94.8843
154.4718,94.7728
154.5594,94.6417
154.6197,94.4960
154.6505,94.3413
154.6505,94.1837
154.6505,94.1837
154.6505,94.1837
154.6414,94.1381
154.6197,94.0290
154.5976,93.9755
154.5594,93.8833
154.5594,93.8833
154.4718,93.7522
154.4718,93.7522
154.3603,93.6407
154.3603,93.6407
154.2292,93.5531
154.2292,93.5531
154.0835,93.4928
154.0835,93.4928
153.9288,93.4620
153.9288,93.4620
153.7712,93.4620
153.7712,93.4620
153.6165,93.4928
153.6165,93.4928
153.4708,93.5531
153.4708,93.5531
153.3397,93.6407
153.3397,93.6407
153.2282,93.7522
153.2282,93.7522
153.1406,93.8833
153.1406,93.8833
153.0803,94.0290
153.0803,94.0290
153.0495,94.1837
153.0495,94.2322
153.0298,94.2992
152.9770,94.3450
152.9497,94.3538
152.8040,94.3828
152.8040,94.3828
152.6583,94.4431
152.6583,94.4431
152.5272,94.5307
152.5272,94.5307
152.4157,94.6422
152.4157,94.6422
152.3281,94.7733
152.3281,94.7733
152.2678,94.9190
152.2678,94.9190
152.2370,95.0737
151.1066,95.0737
151.0605,94.9938
151.0136,94.9469
151.0059,94.9345
151.0004,94.9142
150.9904,94.8959
150.9914,94.8812
150.9876,94.8670
150.9939,94.8471
150.9954,94.8262
151.0054,94.8106
151.0086,94.8004
151.0158,94.7944
151.0239,94.7818
151.0329,94.7728
151.0605,94.7452
151.1066,94.6653
151.1305,94.5761
151.1305,94.4839
151.1066,94.3947
151.1066,94.3947
151.0605,94.3148
151.0605,94.3148
151.0605,94.3148
150.9952,94.2495
150.9952,94.2495
150.9952,94.2495
150.9153,94.2034
150.9153,94.2034
150.9153,94.2034
150.9153,94.2034
150.8261,94.1795
150.7339,94.1795
150.6447,94.2034
150.6447,94.2034
150.6447,94.2034
150.6447,94.2034
150.5648,94.2495
150.5648,94.2495
150.4995,94.3148
150.4995,94.3148
150.4534,94.3947
150.4534,94.3947
150.4534,94.3947
150.4534,94.3947
150.4295,94.4839
150.4295,94.5761
150.4502,94.6536
150.4534,94.6653
150.4534,94.6653
150.4995,94.7452
150.4995,94.7452
150.5361,94.7818
150.5696,94.8431
150.5646,94.9128
150.5361,94.9572
150.4995,94.9938
150.4995,94.9938
150.4534,95.0737
150.4534,95.0737
150.4534,95.0737
150.4534,95.0737
150.4441,95.1085
150.4295,95.1629
150.4295,95.2551
150.4534,95.3443
150.4651,95.3646
150.4775,95.3860
150.4825,95.3946
150.4989,95.4625
150.4761,95.5286
150.4212,95.5718
150.3993,95.5783
150.3558,95.5869
150.3558,95.5869
150.3145,95.6040
150.2830,95.7001
150.0156,95.7001
150.0205,95.6952
150.0666,95.6153
150.0905,95.5261
150.0905,95.4339
150.0666,95.3447
150.0666,95.3447
150.0205,95.2648
150.0205,95.2648
150.0205,95.2648
149.9552,95.1995
149.9552,95.1995
149.9552,95.1995
149.8753,95.1534
149.8753,95.1534
149.8753,95.1534
149.8753,95.1534
149.7861,95.1295
149.6939,95.1295
149.6047,95.1534
149.6047,95.1534
149.6047,95.1534
149.6047,95.1534
149.5248,95.1995
149.5248,95.1995
149.4595,95.2648
149.4595,95.2648
149.4374,95.3031
149.3868,95.3514
149.3182,95.3646
149.2533,95.3386
149.2226,95.3031
149.2159,95.2915
149.2005,95.2648
149.1352,95.1995
149.1352,95.1995
149.1352,95.1995
149.0553,95.1534
149.0553,95.1534
149.0553,95.1534
149.0553,95.1534
148.9661,95.1295
148.8739,95.1295
148.7847,95.1534
148.7847,95.1534
148.7847,95.1534
148.7847,95.1534
148.7048,95.1995
148.7048,95.1995
148.6395,95.2648
148.6395,95.2648
148.5934,95.3447
148.5934,95.3447
148.5934,95.3447
148.5934,95.3447
148.5761,95.4092
148.5695,95.4339
148.5695,95.4426
148.5498,95.5097
148.4970,95.5554
148.4697,95.5642
148.3558,95.5869
148.3558,95.5869
148.2284,95.6397
148.2284,95.6397
148.2249,95.6420
140.1650,95.6420
140.2933,95.5889
140.3042,95.5844
140.3042,95.5844
140.3042,95.5844
140.3042,95.5844
140.3042,95.5844
140.3772,95.5356
140.4353,95.4968
140.5468,95.3853
140.6344,95.2542
140.6439,95.2313
140.6722,95.1629
140.6947,95.1085
140.7255,94.9538
140.7255,94.7962
140.7255,94.7962
140.7255,94.7962
140.7163,94.7497
140.6947,94.6415
140.6817,94.6100
140.6344,94.4958
140.6344,94.4958
140.5468,94.3647
140.5468,94.3647
140.4353,94.2532
140.4353,94.2532
140.4053,94.2332
140.3042,94.1656
140.3042,94.1656
140.2331,94.1362
145.9295,94.1362
145.9295,94.2938
145.9603,94.4485
145.9603,94.4485
146.0206,94.5942
146.0206,94.5942
146.1082,94.7253
146.1082,94.7253
146.2197,94.8368
146.2197,94.8368
146.3508,94.9244
146.3508,94.9244
146.4486,94.9649
146.4965,94.9847
146.6512,95.0155
146.6512,95.0155
146.6512,95.0155
146.8088,95.0155
146.8088,95.0155
146.9635,94.9847
147.1092,94.9244
147.2403,94.8368
147.3518,94.7253
147.4394,94.5942
147.4851,94.4839
148.4295,94.4839
148.4295,94.5761
148.4502,94.6536
148.4534,94.6653
148.4534,94.6653
148.4995,94.7452
148.4995,94.7452
148.4995,94.7452
148.5648,94.8105
148.5648,94.8105
148.5648,94.8105
148.6447,94.8566
148.6447,94.8566
148.6447,94.8566
148.7339,94.8805
148.7339,94.8805
148.8261,94.8805
148.8261,94.8805
148.9153,94.8566
148.9153,94.8566
148.9386,94.8431
148.9680,94.8262
149.0359,94.8097
149.0920,94.8262
149.1074,94.8351
149.1447,94.8566
149.1447,94.8566
149.1447,94.8566
149.2339,94.8805
149.2339,94.8805
149.3261,94.8805
149.3261,94.8805
149.4153,94.8566
149.4153,94.8566
149.4386,94.8431
149.4680,94.8262
149.5359,94.8097
149.5920,94.8262
149.6074,94.8351
149.6447,94.8566
149.6447,94.8566
149.6447,94.8566
149.7339,94.8805
149.7339,94.8805
149.8261,94.8805
149.8261,94.8805
149.9153,94.8566
149.9952,94.8105
150.0605,94.7452
150.1066,94.6653
150.1305,94.5761
150.1305,94.4839
150.1066,94.3947
150.1066,94.3947
150.0605,94.3148
150.0605,94.3148
150.0605,94.3148
149.9952,94.2495
149.9952,94.2495
149.9952,94.2495
149.9153,94.2034
149.9153,94.2034
149.9153,94.2034
149.9153,94.2034
149.8261,94.1795
149.7339,94.1795
149.6447,94.2034
149.6447,94.2034
149.6447,94.2034
149.6447,94.2034
149.5920,94.2338
149.5241,94.2503
149.4680,94.2338
149.4153,94.2034
149.4153,94.2034
149.4153,94.2034
149.3261,94.1795
149.2339,94.1795
149.1447,94.2034
149.1447,94.2034
149.1447,94.2034
149.1447,94.2034
149.0920,94.2338
149.0241,94.2503
148.9680,94.2338
148.9153,94.2034
148.9153,94.2034
148.9153,94.2034
148.8261,94.1795
148.7339,94.1795
148.6447,94.2034
148.6447,94.2034
148.6447,94.2034
148.6447,94.2034
148.5648,94.2495
148.5648,94.2495
148.4995,94.3148
148.4995,94.3148
148.4534,94.3947
148.4534,94.3947
148.4534,94.3947
148.4534,94.3947
148.4295,94.4839
147.4851,94.4839
147.4997,94.4485
147.4997,94.4485
147.4997,94.4485
147.5263,94.3148
147.5305,94.2938
147.5305,94.1362
147.5305,94.1362
147.5305,94.1362
147.4997,93.9815
147.4997,93.9815
147.4394,93.8358
147.4394,93.8358
147.3518,93.7047
147.3518,93.7047
147.2403,93.5932
147.2403,93.5932
147.1092,93.5056
147.1092,93.5056
146.9635,93.4453
146.9635,93.4453
146.8088,93.4145
146.8088,93.4145
146.6512,93.4145
146.6512,93.4145
146.4965,93.4453
146.4965,93.4453
146.3508,93.5056
146.3508,93.5056
146.2197,93.5932
146.2197,93.5932
146.1082,93.7047
146.1082,93.7047
146.0206,93.8358
146.0206,93.8358
145.9603,93.9815
145.9603,93.9815
145.9295,94.1362
140.2331,94.1362
140.1585,94.1053
140.1585,94.1053
140.0038,94.0745
140.0038,94.0745
139.8462,94.0745
139.8462,94.0745
139.7435,94.0949
139.6739,94.0887
139.6187,94.0458
139.5955,93.9799
139.6116,93.9119
139.6504,93.8702
139.7246,93.8206
139.7603,93.7968
139.8718,93.6853
139.9594,93.5542
139.9598,93.5531
139.9905,93.4790
140.0197,93.4085
140.0505,93.2538
140.0505,93.0962
140.0505,93.0962
140.0505,93.0962
140.0494,93.0907
140.0197,92.9415
139.9885,92.8662
141.4445,92.8662
141.4445,93.0238
141.4753,93.1785
141.4753,93.1785
141.5356,93.3242
141.5356,93.3242
141.6232,93.4553
141.6232,93.4553
141.7347,93.5668
141.7347,93.5668
141.8658,93.6544
141.8658,93.6544
141.9873,93.7047
142.0115,93.7147
142.1662,93.7455
142.1662,93.7455
142.1662,93.7455
142.3238,93.7455
142.3238,93.7455
142.4785,93.7147
142.6190,93.6565
142.6242,93.6544
142.6242,93.6544
142.6242,93.6544
142.7553,93.5668
142.8668,93.4553
142.9544,93.3242
143.0136,93.1812
151.4095,93.1812
151.4095,93.3388
151.4403,93.4935
151.4403,93.4935
151.5006,93.6392
151.5006,93.6392
151.5882,93.7703
151.5882,93.7703
151.6997,93.8818
151.6997,93.8818
151.8308,93.9694
151.8308,93.9694
151.9148,94.0042
151.9765,94.0297
152.1312,94.0605
152.1312,94.0605
152.1312,94.0605
152.2888,94.0605
152.2888,94.0605
152.4435,94.0297
152.5892,93.9694
152.7203,93.8818
152.8318,93.7703
152.9194,93.6392
152.9797,93.4935
153.0105,93.3388
153.0105,93.1812
153.0105,93.1812
153.0105,93.1812
152.9925,93.0907
152.9797,93.0265
152.9797,93.0265
152.9194,92.8808
152.9194,92.8808
152.8318,92.7497
152.8318,92.7497
152.7203,92.6382
152.7203,92.6382
152.5892,92.5506
152.5892,92.5506
152.4435,92.4903
152.4435,92.4903
152.2888,92.4595
152.2888,92.4595
152.1312,92.4595
152.1312,92.4595
151.9765,92.4903
151.9765,92.4903
151.8308,92.5506
151.8308,92.5506
151.6997,92.6382
151.6997,92.6382
151.5882,92.7497
151.5882,92.7497
151.5006,92.8808
151.5006,92.8808
151.4403,93.0265
151.4403,93.0265
151.4095,93.1812
143.0136,93.1812
143.0147,93.1785
143.0165,93.1696
143.0202,93.1509
143.0202,93.1509
143.0407,93.0479
143.0455,93.0238
143.0455,92.8662
143.0455,92.8662
143.0455,92.8662
143.0362,92.8194
143.0147,92.7115
142.9916,92.6556
142.9544,92.5658
142.9544,92.5658
142.8668,92.4347
142.8668,92.4347
142.7510,92.3189
142.7175,92.2576
142.7225,92.1879
142.7644,92.1320
142.7698,92.1281
142.8553,92.0710
142.8728,92.0593
142.9843,91.9478
143.0719,91.8167
143.1322,91.6710
143.1630,91.5163
143.1630,91.3587
143.1630,91.3587
143.1630,91.3587
143.1452,91.2693
143.1416,91.2512
151.5495,91.2512
151.5495,91.4088
151.5803,91.5635
151.5803,91.5635
151.6406,91.7092
151.6406,91.7092
151.7282,91.8403
151.7282,91.8403
151.8397,91.9518
151.8397,91.9518
151.9708,92.0394
151.9708,92.0394
152.1165,92.0997
152.1165,92.0997
152.2431,92.1249
152.2712,92.1305
152.2712,92.1305
152.2712,92.1305
152.4288,92.1305
152.4288,92.1305
152.5835,92.0997
152.7292,92.0394
152.8603,91.9518
152.9718,91.8403
153.0594,91.7092
153.1197,91.5635
153.1505,91.4088
153.1505,91.2512
153.1505,91.2512
153.1505,91.2512
153.1422,91.2095
153.1197,91.0965
153.0886,91.0213
153.0594,90.9508
153.0594,90.9508
152.9718,90.8197
152.9718,90.8197
152.8603,90.7082
152.8603,90.7082
152.7292,90.6206
152.7292,90.6206
152.5835,90.5603
152.5835,90.5603
152.4288,90.5295
152.4288,90.5295
152.2712,90.5295
152.2712,90.5295
152.1165,90.5603
152.1165,90.5603
151.9708,90.6206
151.9708,90.6206
151.8397,90.7082
151.8397,90.7082
151.7282,90.8197
151.7282,90.8197
151.6406,90.9508
151.6406,90.9508
151.5803,91.0965
151.5803,91.0965
151.5495,91.2512
143.1416,91.2512
143.1322,91.2040
143.1322,91.2040
143.1322,91.2040
143.1039,91.1357
143.0719,91.0583
143.0719,91.0583
142.9843,90.9272
142.9843,90.9272
142.8728,90.8157
142.8728,90.8157
142.7417,90.7281
142.7417,90.7281
142.5960,90.6678
142.5960,90.6678
142.4413,90.6370
142.4413,90.6370
142.2837,90.6370
142.2837,90.6370
142.1290,90.6678
142.1290,90.6678
141.9833,90.7281
141.9833,90.7281
141.8522,90.8157
141.8522,90.8157
141.7407,90.9272
141.7407,90.9272
141.6531,91.0583
141.6531,91.0583
141.5928,91.2040
141.5928,91.2040
141.5620,91.3587
141.5620,91.5163
141.5928,91.6710
141.5928,91.6710
141.6531,91.8167
141.6531,91.8167
141.7407,91.9478
141.7407,91.9478
141.8565,92.0636
141.8900,92.1249
141.8850,92.1946
141.8431,92.2505
141.8377,92.2544
141.7347,92.3232
141.7347,92.3232
141.6232,92.4347
141.6232,92.4347
141.5356,92.5658
141.5356,92.5658
141.4753,92.7115
141.4753,92.7115
141.4445,92.8662
139.9885,92.8662
139.9625,92.8032
139.9594,92.7958
139.9594,92.7958
139.8718,92.6647
139.8718,92.6647
139.7603,92.5532
139.7603,92.5532
139.6292,92.4656
139.6292,92.4656
139.4835,92.4053
139.4835,92.4053
139.3288,92.3745
139.3288,92.3745
139.1712,92.3745
139.1712,92.3745
139.0165,92.4053
139.0165,92.4053
138.8708,92.4656
138.8708,92.4656
138.7397,92.5532
138.7397,92.5532
138.6282,92.6647
138.6282,92.6647
138.5406,92.7958
138.5406,92.7958
138.4803,92.9415
138.4803,92.9415
138.4747,92.9693
138.4423,93.0312
138.3816,93.0658
138.3119,93.0621
138.2842,93.0482
138.2167,93.0031
138.2167,93.0031
138.0710,92.9428
138.0710,92.9428
137.9163,92.9120
137.9163,92.9120
137.7587,92.9120
137.7587,92.9120
137.6040,92.9428
137.6040,92.9428
137.4583,93.0031
137.4583,93.0031
137.3272,93.0907
137.3272,93.0907
137.2157,93.2022
137.2157,93.2022
137.1281,93.3333
137.1281,93.3333
137.0678,93.4790
137.0678,93.4790
137.0370,93.6337
116.3640,93.6337
116.3681,93.6082
116.3681,93.6082
116.3755,93.5613
116.3755,93.3487
116.3523,93.2022
116.3422,93.1388
116.2766,92.9366
116.1801,92.7472
116.1800,92.7472
116.1800,92.7472
116.0551,92.5752
115.9048,92.4249
115.7328,92.3000
115.7321,92.2996
115.7241,92.2955
115.6733,92.2475
115.6565,92.1797
115.6790,92.1136
115.7241,92.0745
115.7328,92.0701
115.7908,92.0279
115.9048,91.9451
115.9048,91.9451
115.9048,91.9451
116.0551,91.7948
116.0551,91.7948
116.0551,91.7948
116.1800,91.6228
116.1800,91.6228
116.1801,91.6228
116.2766,91.4334
116.3422,91.2312
116.3755,91.0213
116.3755,90.8087
116.3735,90.7962
116.3735,90.7962
129.8495,90.7962
129.8495,90.9538
129.8803,91.1085
129.8803,91.1085
129.9406,91.2542
129.9406,91.2542
130.0282,91.3853
130.0282,91.3853
130.1397,91.4968
130.1397,91.4968
130.2708,91.5844
130.2708,91.5844
130.4028,91.6391
130.4165,91.6447
130.5485,91.6710
130.5712,91.6755
130.5712,91.6755
130.5712,91.6755
130.7288,91.6755
130.7288,91.6755
130.8835,91.6447
130.9209,91.6292
130.9904,91.6218
131.0529,91.6530
131.0885,91.7131
131.0900,91.7680
131.0620,91.9087
131.0620,92.0663
131.0928,92.2210
131.0928,92.2210
131.1531,92.3667
131.1531,92.3667
131.2407,92.4978
131.2407,92.4978
131.3522,92.6093
131.3522,92.6093
131.4833,92.6969
131.4833,92.6969
131.6108,92.7497
131.6290,92.7572
131.7330,92.7779
131.7837,92.7880
131.7837,92.7880
131.7837,92.7880
131.9413,92.7880
131.9413,92.7880
132.0960,92.7572
132.2417,92.6969
132.3728,92.6093
132.4843,92.4978
132.5719,92.3667
132.6322,92.2210
132.6630,92.0663
132.6630,91.9087
132.6630,91.9087
132.6630,91.9087
132.6582,91.8844
132.6322,91.7540
132.6137,91.7092
132.5719,91.6083
132.5719,91.6083
132.4843,91.4772
132.4843,91.4772
132.3728,91.3657
132.3728,91.3657
132.2417,91.2781
132.2417,91.2781
132.0960,91.2178
132.0960,91.2178
131.9413,91.1870
131.9413,91.1870
131.7837,91.1870
131.7837,91.1870
131.6290,91.2178
131.6290,91.2178
131.5916,91.2333
131.5221,91.2407
131.4596,91.2095
131.4240,91.1494
131.4225,91.0945
131.4505,90.9538
131.4505,90.7962
131.4505,90.7962
131.4370,90.7281
131.4197,90.6415
131.4179,90.6370
131.3594,90.4958
131.3594,90.4958
131.2718,90.3647
131.2718,90.3647
131.1603,90.2532
131.1603,90.2532
131.0292,90.1656
131.0292,90.1656
130.8835,90.1053
130.8835,90.1053
130.7288,90.0745
130.7288,90.0745
130.5712,90.0745
130.5712,90.0745
130.4165,90.1053
130.4165,90.1053
130.2708,90.1656
130.2708,90.1656
130.1397,90.2532
130.1397,90.2532
130.0282,90.3647
130.0282,90.3647
129.9406,90.4958
129.9406,90.4958
129.8803,90.6415
129.8803,90.6415
129.8495,90.7962
116.3735,90.7962
116.3544,90.6756
116.3422,90.5988
116.2766,90.3966
116.1801,90.2072
116.1800,90.2072
116.1800,90.2072
116.0551,90.0352
115.9416,89.9217
115.9081,89.8603
115.9131,89.7907
115.9549,89.7347
115.9859,89.7178
116.1173,89.6688
116.2325,89.5825
116.3188,89.4673
116.3691,89.3325
116.3755,89.2729
116.3755,88.7962
125.8095,88.7962
125.8095,88.9538
125.8403,89.1085
125.8403,89.1085
125.9006,89.2542
125.9006,89.2542
125.9882,89.3853
125.9882,89.3853
126.0997,89.4968
126.0997,89.4968
126.2308,89.5844
126.2308,89.5844
126.3765,89.6447
126.3765,89.6447
126.5152,89.6723
126.5312,89.6755
126.5312,89.6755
126.5312,89.6755
126.6888,89.6755
126.8090,89.6516
126.8786,89.6578
126.9338,89.7007
126.9478,89.7258
126.9906,89.8292
126.9906,89.8292
127.0782,89.9603
127.0782,89.9603
127.1897,90.0718
127.1897,90.0718
127.3208,90.1594
127.3208,90.1594
127.4362,90.2072
127.4665,90.2197
127.6212,90.2505
127.6212,90.2505
127.6212,90.2505
127.7788,90.2505
127.7788,90.2505
127.9335,90.2197
128.0642,90.1656
128.0792,90.1594
128.0792,90.1594
128.0792,90.1594
128.2103,90.0718
128.3218,89.9603
128.4094,89.8292
128.4697,89.6835
128.5005,89.5288
128.5005,89.3712
128.5005,89.3712
128.5005,89.3712
128.4810,89.2729
128.4707,89.2212
139.1995,89.2212
139.1995,89.3788
139.2303,89.5335
139.2303,89.5335
139.2906,89.6792
139.2906,89.6792
139.3782,89.8103
139.3782,89.8103
139.4897,89.9218
139.4897,89.9218
139.6208,90.0094
139.6208,90.0094
139.7665,90.0697
139.7665,90.0697
139.9212,90.1005
139.9212,90.1005
139.9212,90.1005
140.0788,90.1005
140.0788,90.1005
140.2335,90.0697
140.3792,90.0094
140.5103,89.9218
140.6218,89.8103
140.7094,89.6792
140.7122,89.6723
140.7192,89.6555
159.2795,89.6555
159.2795,89.8445
159.3091,90.0311
159.3675,90.2108
159.4387,90.3507
159.4532,90.3792
159.5643,90.5321
159.6979,90.6657
159.7712,90.7190
159.8007,90.7571
160.3914,91.3479
160.3063,91.3707
160.2037,91.4299
160.1199,91.5137
160.0607,91.6163
160.0379,91.7014
159.4721,91.1357
159.4721,91.1357
159.4537,91.1611
159.3679,91.3294
159.3095,91.5090
159.2800,91.6956
159.2800,91.8844
159.3095,92.0710
159.3679,92.2506
159.4537,92.4189
159.4721,92.4443
160.0379,91.8786
160.0607,91.9637
160.1199,92.0663
160.2037,92.1501
160.3063,92.2093
160.3914,92.2321
159.8085,92.8150
159.8076,92.8194
159.7712,92.8610
159.6979,92.9143
159.5643,93.0479
159.5643,93.0479
159.5643,93.0479
159.5332,93.0907
159.4532,93.2008
159.3675,93.3692
159.3091,93.5489
159.2795,93.7355
159.2795,93.9245
159.3091,94.1111
159.3675,94.2908
159.4342,94.4219
159.4532,94.4592
159.5643,94.6121
159.6979,94.7457
159.6979,94.7457
159.7034,94.7497
159.7461,94.8050
159.7521,94.8746
159.7195,94.9364
159.7034,94.9503
159.6979,94.9543
159.6979,94.9543
159.5643,95.0879
159.5643,95.0879
159.5643,95.0879
159.5330,95.1310
159.4532,95.2408
159.3675,95.4092
159.3091,95.5889
159.2795,95.7755
159.2795,95.9645
159.3091,96.1511
159.3675,96.3308
159.4285,96.4506
159.4532,96.4992
159.5643,96.6521
159.6979,96.7857
159.8508,96.8968
159.9233,96.9337
160.0192,96.9825
160.0192,96.9825
160.0192,96.9825
160.0697,96.9990
160.1989,97.0409
160.3855,97.0705
160.3855,97.0705
160.5745,97.0705
160.7611,97.0409
160.8098,97.0251
160.9408,96.9825
161.1092,96.8968
161.2621,96.7857
161.3957,96.6521
161.5068,96.4992
161.5925,96.3308
161.6509,96.1511
161.6640,96.0689
161.6939,96.0057
161.7532,95.9688
161.8231,95.9698
161.8248,95.9703
161.9790,96.0205
162.1656,96.0500
162.3544,96.0500
162.5410,96.0205
162.7206,95.9621
162.8889,95.8763
162.9143,95.8579
162.9143,95.8579
162.3486,95.2921
162.4337,95.2693
162.5363,95.2101
162.6201,95.1263
162.6793,95.0237
162.7021,94.9386
163.2679,95.5043
163.2679,95.5043
163.2863,95.4789
163.3721,95.3106
163.4305,95.1310
163.4600,94.9444
163.4600,94.7556
163.4305,94.5690
163.3721,94.3894
163.2863,94.2211
163.2679,94.1957
163.2679,94.1957
162.7021,94.7614
162.6793,94.6763
162.6201,94.5737
162.5363,94.4899
162.4337,94.4307
162.3486,94.4079
162.9315,93.8250
162.9324,93.8206
162.9688,93.7790
163.0421,93.7257
163.1757,93.5921
163.2868,93.4392
163.3725,93.2708
163.3960,93.1985
166.6484,93.1985
166.6484,93.3562
166.6791,93.5108
166.6791,93.5109
166.7395,93.6565
166.7395,93.6565
166.8271,93.7876
166.8271,93.7876
166.9386,93.8991
166.9386,93.8991
167.0697,93.9867
167.0697,93.9868
167.1735,94.0297
167.2154,94.0471
167.3700,94.0779
167.3700,94.0779
167.3700,94.0779
167.5277,94.0779
167.5277,94.0779
167.6824,94.0471
167.8280,93.9867
167.9592,93.8991
168.0707,93.7876
168.1583,93.6565
168.1592,93.6544
168.1845,93.5932
168.2186,93.5109
168.2494,93.3562
168.2494,93.1985
168.2494,93.1985
168.2494,93.1985
168.2454,93.1785
168.2186,93.0439
168.2114,93.0265
168.1583,92.8982
168.1583,92.8982
168.0707,92.7671
168.0707,92.7671
167.9592,92.6556
167.9592,92.6556
167.8281,92.5680
167.8280,92.5680
167.6824,92.5076
167.6824,92.5076
167.5277,92.4769
167.5277,92.4769
167.3700,92.4769
167.3700,92.4769
167.2154,92.5076
167.2154,92.5076
167.0697,92.5680
167.0697,92.5680
166.9386,92.6556
166.9386,92.6556
166.8271,92.7671
166.8271,92.7671
166.7395,92.8982
166.7395,92.8982
166.6791,93.0439
166.6791,93.0439
166.6484,93.1985
163.3960,93.1985
163.4309,93.0911
163.4416,93.0238
163.4605,92.9045
163.4605,92.7155
163.4309,92.5289
163.3808,92.3745
163.3725,92.3492
163.3725,92.3492
163.3725,92.3492
163.3030,92.2127
163.2868,92.1808
163.1757,92.0279
163.0421,91.8943
162.9688,91.8410
162.9393,91.8029
162.3486,91.2121
162.4337,91.1893
162.5363,91.1301
162.6201,91.0463
162.6793,90.9437
162.7021,90.8586
163.2679,91.4243
163.2679,91.4243
163.2863,91.3989
163.3721,91.2306
163.4305,91.0510
163.4600,90.8644
163.4600,90.6756
163.4305,90.4890
163.3721,90.3094
163.2863,90.1411
163.2028,90.0261
163.1793,89.9603
163.1952,89.8923
163.2288,89.8540
163.3175,89.7875
163.4038,89.6723
163.4541,89.5375
163.4605,89.4779
163.4605,89.3613
163.4802,89.2942
163.5330,89.2485
163.6021,89.2385
163.6657,89.2676
163.7035,89.3263
163.7061,89.3371
163.7313,89.4635
163.7313,89.4635
163.7916,89.6092
163.7916,89.6092
163.8792,89.7403
163.8792,89.7403
163.9907,89.8518
163.9907,89.8518
164.1218,89.9394
164.1218,89.9394
164.2675,89.9997
164.2675,89.9997
164.4222,90.0305
164.4222,90.0305
164.4222,90.0305
164.5798,90.0305
164.5798,90.0305
164.7345,89.9997
164.8802,89.9394
165.0113,89.8518
165.1228,89.7403
165.2104,89.6092
165.2214,89.5825
165.2401,89.5375
165.2707,89.4635
165.3015,89.3088
165.3015,89.1512
165.3015,89.1512
165.3015,89.1512
165.2959,89.1229
165.2707,88.9965
165.2531,88.9538
165.2104,88.8508
165.2104,88.8508
165.1228,88.7197
165.1228,88.7197
165.0113,88.6082
165.0113,88.6082
164.8802,88.5206
164.8802,88.5206
164.7345,88.4603
164.7345,88.4603
164.5798,88.4295
164.5798,88.4295
164.4222,88.4295
164.4222,88.4295
164.2675,88.4603
164.2675,88.4603
164.1218,88.5206
164.1218,88.5206
163.9907,88.6082
163.9907,88.6082
163.8792,88.7197
163.8792,88.7197
163.7916,88.8508
163.7916,88.8508
163.7313,88.9965
163.7313,88.9965
163.7061,89.1229
163.6737,89.1848
163.6130,89.2194
163.5432,89.2157
163.4866,89.1748
163.4610,89.1098
163.4605,89.0987
163.4605,87.9821
163.4541,87.9225
163.4535,87.9208
163.4038,87.7877
163.4038,87.7877
163.3175,87.6725
163.3175,87.6725
163.2023,87.5862
163.2023,87.5862
163.0675,87.5359
163.0675,87.5359
163.0079,87.5295
163.0079,87.5295
163.0079,87.5295
163.0079,87.5295
161.5121,87.5295
161.5121,87.5295
161.4525,87.5359
161.3177,87.5862
161.3177,87.5862
161.2025,87.6725
161.2025,87.6725
161.1162,87.7877
161.1162,87.7877
161.0659,87.9225
161.0595,87.9821
161.0595,87.9821
161.0595,87.9821
161.0595,88.5053
161.0398,88.5724
160.9870,88.6181
160.9179,88.6281
160.8972,88.6233
160.8814,88.6181
160.8782,88.6171
160.7611,88.5791
160.5745,88.5495
160.5745,88.5495
160.3855,88.5495
160.3855,88.5495
160.1989,88.5791
160.0192,88.6375
159.8508,88.7232
159.8053,88.7563
159.6979,88.8343
159.6979,88.8343
159.6979,88.8343
159.5643,88.9679
159.5643,88.9679
159.5643,88.9679
159.5342,89.0094
159.4532,89.1208
159.3675,89.2892
159.3091,89.4689
159.2795,89.6555
140.7192,89.6555
140.7409,89.6032
140.7697,89.5335
140.7697,89.5335
140.8005,89.3788
140.8005,89.2212
140.8005,89.2212
140.8005,89.2212
140.7866,89.1512
140.7697,89.0665
140.7407,88.9965
140.7094,88.9208
140.7094,88.9208
140.6218,88.7897
140.6218,88.7897
140.5103,88.6782
140.5103,88.6782
140.3792,88.5906
140.3792,88.5906
140.2335,88.5303
140.2335,88.5303
140.0788,88.4995
140.0788,88.4995
139.9212,88.4995
139.9212,88.4995
139.7665,88.5303
139.7665,88.5303
139.6208,88.5906
139.6208,88.5906
139.4897,88.6782
139.4897,88.6782
139.3782,88.7897
139.3782,88.7897
139.2906,88.9208
139.2906,88.9208
139.2303,89.0665
139.2303,89.0665
139.1995,89.2212
128.4707,89.2212
128.4697,89.2165
128.4525,89.1748
128.4094,89.0708
128.4094,89.0708
128.3218,88.9397
128.3218,88.9397
128.2103,88.8282
128.2103,88.8282
128.0792,88.7406
128.0792,88.7406
127.9335,88.6803
127.9335,88.6803
127.7788,88.6495
127.7788,88.6495
127.6212,88.6495
127.5010,88.6734
127.4314,88.6672
127.3762,88.6243
127.3622,88.5992
127.3194,88.4958
127.3194,88.4958
127.3194,88.4958
127.2318,88.3647
127.2318,88.3647
127.1203,88.2532
127.1203,88.2532
126.9892,88.1656
126.9892,88.1656
126.8435,88.1053
126.8435,88.1053
126.6888,88.0745
126.6888,88.0745
126.5312,88.0745
126.5312,88.0745
126.3765,88.1053
126.3765,88.1053
126.2308,88.1656
126.2308,88.1656
126.0997,88.2532
126.0997,88.2532
125.9882,88.3647
125.9882,88.3647
125.9006,88.4958
125.9006,88.4958
125.8403,88.6415
125.8403,88.6415
125.8095,88.7962
116.3755,88.7962
116.3755,88.3647
116.3755,87.4771
116.3755,87.4771
116.3755,87.4771
116.3691,87.4175
116.3619,87.3982
116.3188,87.2827
116.3188,87.2827
116.2325,87.1675
116.2325,87.1675
116.1173,87.0812
116.1173,87.0812
115.9825,87.0309
115.9825,87.0309
115.9229,87.0245
115.9229,87.0245
115.9229,87.0245
115.9229,87.0245
114.1271,87.0245
114.1271,87.0245
114.0675,87.0309
113.9327,87.0812
113.9327,87.0812
113.8175,87.1675
113.8175,87.1675
113.7312,87.2827
113.7312,87.2827
113.6809,87.4175
113.6751,87.4718
113.6745,87.4771
113.6745,87.4771
112.3505,87.4771
112.3505,86.7712
134.1495,86.7712
134.1495,86.9288
134.1803,87.0835
134.1803,87.0835
134.2406,87.2292
134.2406,87.2292
134.3282,87.3603
134.3282,87.3603
134.4397,87.4718
134.4397,87.4718
134.5577,87.5506
134.6025,87.6042
134.6112,87.6736
134.5811,87.7366
134.5765,87.7414
134.5282,87.7897
134.5282,87.7897
134.4406,87.9208
134.4406,87.9208
134.3803,88.0665
134.3803,88.0665
134.3495,88.2212
134.3495,88.3788
134.3803,88.5335
134.3803,88.5335
134.4406,88.6792
134.4406,88.6792
134.5282,88.8103
134.5282,88.8103
134.6397,88.9218
134.6397,88.9218
134.7708,89.0094
134.7708,89.0094
134.9087,89.0665
134.9165,89.0697
135.0622,89.0987
135.0712,89.1005
135.0712,89.1005
135.0712,89.1005
135.2288,89.1005
135.2288,89.1005
135.2392,89.0984
135.2643,89.0934
135.2643,89.0934
135.3498,89.0764
135.3835,89.0697
135.5292,89.0094
135.6603,88.9218
135.7718,88.8103
135.8594,88.6792
135.9197,88.5335
135.9505,88.3788
135.9505,88.2212
135.9505,88.2212
135.9505,88.2212
135.9423,88.1800
135.9197,88.0665
135.8848,87.9821
135.8594,87.9208
135.8594,87.9208
135.7718,87.7897
135.7718,87.7897
135.7064,87.7243
135.7064,87.7243
135.6603,87.6782
135.5392,87.5973
135.5362,87.5950
135.5176,87.5698
135.4975,87.5458
135.4970,87.5419
135.4947,87.5388
135.4927,87.5075
135.4888,87.4764
135.4904,87.4729
135.4902,87.4690
135.5054,87.4417
135.5189,87.4134
135.5235,87.4086
135.5718,87.3603
135.5718,87.3603
135.6594,87.2292
135.7197,87.0835
135.7505,86.9288
135.7505,86.7712
135.7505,86.7712
135.7505,86.7712
135.7441,86.7392
135.7197,86.6165
135.7102,86.5935
135.6594,86.4708
135.6594,86.4708
135.5718,86.3397
135.5718,86.3397
135.4603,86.2282
135.4603,86.2282
135.3292,86.1406
135.3292,86.1406
135.1835,86.0803
135.1835,86.0803
135.0288,86.0495
135.0288,86.0495
134.8712,86.0495
134.8712,86.0495
134.7165,86.0803
134.7165,86.0803
134.5708,86.1406
134.5708,86.1406
134.4397,86.2282
134.4397,86.2282
134.3282,86.3397
134.3282,86.3397
134.2406,86.4708
134.2406,86.4708
134.1803,86.6165
134.1803,86.6165
134.1495,86.7712
112.3505,86.7712
112.3505,83.9245
112.3702,83.8575
112.4230,83.8117
112.4745,83.8005
114.7898,83.8005
Z" /> 
</g> 
</svg>
