%TF.GenerationSoftware,KiCad,Pcbnew,9.0.1*%
%TF.CreationDate,2025-04-21T23:50:01-04:00*%
%TF.ProjectId,can-nano-shield,63616e2d-6e61-46e6-9f2d-736869656c64,rev?*%
%TF.SameCoordinates,Original*%
%TF.FileFunction,Paste,Bot*%
%TF.FilePolarity,Positive*%
%FSLAX46Y46*%
G04 Gerber Fmt 4.6, Leading zero omitted, Abs format (unit mm)*
G04 Created by KiCad (PCBNEW 9.0.1) date 2025-04-21 23:50:01*
%MOMM*%
%LPD*%
G01*
G04 APERTURE LIST*
G04 Aperture macros list*
%AMRoundRect*
0 Rectangle with rounded corners*
0 $1 Rounding radius*
0 $2 $3 $4 $5 $6 $7 $8 $9 X,Y pos of 4 corners*
0 Add a 4 corners polygon primitive as box body*
4,1,4,$2,$3,$4,$5,$6,$7,$8,$9,$2,$3,0*
0 Add four circle primitives for the rounded corners*
1,1,$1+$1,$2,$3*
1,1,$1+$1,$4,$5*
1,1,$1+$1,$6,$7*
1,1,$1+$1,$8,$9*
0 Add four rect primitives between the rounded corners*
20,1,$1+$1,$2,$3,$4,$5,0*
20,1,$1+$1,$4,$5,$6,$7,0*
20,1,$1+$1,$6,$7,$8,$9,0*
20,1,$1+$1,$8,$9,$2,$3,0*%
G04 Aperture macros list end*
%ADD10R,2.100000X1.800000*%
%ADD11RoundRect,0.250000X0.475000X-0.337500X0.475000X0.337500X-0.475000X0.337500X-0.475000X-0.337500X0*%
%ADD12RoundRect,0.250000X-0.350000X-0.450000X0.350000X-0.450000X0.350000X0.450000X-0.350000X0.450000X0*%
%ADD13RoundRect,0.162500X-0.447500X-0.162500X0.447500X-0.162500X0.447500X0.162500X-0.447500X0.162500X0*%
%ADD14RoundRect,0.150000X-0.825000X-0.150000X0.825000X-0.150000X0.825000X0.150000X-0.825000X0.150000X0*%
%ADD15RoundRect,0.250000X0.350000X0.450000X-0.350000X0.450000X-0.350000X-0.450000X0.350000X-0.450000X0*%
%ADD16RoundRect,0.250000X-0.337500X-0.475000X0.337500X-0.475000X0.337500X0.475000X-0.337500X0.475000X0*%
%ADD17RoundRect,0.150000X0.150000X-0.875000X0.150000X0.875000X-0.150000X0.875000X-0.150000X-0.875000X0*%
G04 APERTURE END LIST*
D10*
%TO.C,Y1*%
X118225000Y-94425000D03*
X121125000Y-94425000D03*
X121125000Y-96725000D03*
X118225000Y-96725000D03*
%TD*%
D11*
%TO.C,C4*%
X148150000Y-97000000D03*
X148150000Y-94925000D03*
%TD*%
%TO.C,C2*%
X121325000Y-92337500D03*
X121325000Y-90262500D03*
%TD*%
D12*
%TO.C,Rt2*%
X144125000Y-90325000D03*
X146125000Y-90325000D03*
%TD*%
D13*
%TO.C,D1*%
X148015000Y-93242500D03*
X148015000Y-91342500D03*
X150635000Y-92292500D03*
%TD*%
D11*
%TO.C,C1*%
X118200000Y-92362500D03*
X118200000Y-90287500D03*
%TD*%
D14*
%TO.C,U2*%
X136425000Y-94215000D03*
X136425000Y-92945000D03*
X136425000Y-91675000D03*
X136425000Y-90405000D03*
X141375000Y-90405000D03*
X141375000Y-91675000D03*
X141375000Y-92945000D03*
X141375000Y-94215000D03*
%TD*%
D15*
%TO.C,R2*%
X141000000Y-96150000D03*
X139000000Y-96150000D03*
%TD*%
D16*
%TO.C,C3*%
X143500000Y-92275000D03*
X145575000Y-92275000D03*
%TD*%
D15*
%TO.C,Rt1*%
X146125000Y-94225000D03*
X144125000Y-94225000D03*
%TD*%
D17*
%TO.C,U1*%
X134250000Y-96925000D03*
X132980000Y-96925000D03*
X131710000Y-96925000D03*
X130440000Y-96925000D03*
X129170000Y-96925000D03*
X127900000Y-96925000D03*
X126630000Y-96925000D03*
X125360000Y-96925000D03*
X124090000Y-96925000D03*
X124090000Y-87625000D03*
X125360000Y-87625000D03*
X126630000Y-87625000D03*
X127900000Y-87625000D03*
X129170000Y-87625000D03*
X130440000Y-87625000D03*
X131710000Y-87625000D03*
X132980000Y-87625000D03*
X134250000Y-87625000D03*
%TD*%
D11*
%TO.C,C5*%
X148125000Y-89650000D03*
X148125000Y-87575000D03*
%TD*%
M02*
