%TF.GenerationSoftware,KiCad,Pcbnew,9.0.1*%
%TF.CreationDate,2025-04-21T23:50:01-04:00*%
%TF.ProjectId,can-nano-shield,63616e2d-6e61-46e6-9f2d-736869656c64,rev?*%
%TF.SameCoordinates,Original*%
%TF.FileFunction,Copper,L2,Bot*%
%TF.FilePolarity,Positive*%
%FSLAX46Y46*%
G04 Gerber Fmt 4.6, Leading zero omitted, Abs format (unit mm)*
G04 Created by KiCad (PCBNEW 9.0.1) date 2025-04-21 23:50:01*
%MOMM*%
%LPD*%
G01*
G04 APERTURE LIST*
G04 Aperture macros list*
%AMRoundRect*
0 Rectangle with rounded corners*
0 $1 Rounding radius*
0 $2 $3 $4 $5 $6 $7 $8 $9 X,Y pos of 4 corners*
0 Add a 4 corners polygon primitive as box body*
4,1,4,$2,$3,$4,$5,$6,$7,$8,$9,$2,$3,0*
0 Add four circle primitives for the rounded corners*
1,1,$1+$1,$2,$3*
1,1,$1+$1,$4,$5*
1,1,$1+$1,$6,$7*
1,1,$1+$1,$8,$9*
0 Add four rect primitives between the rounded corners*
20,1,$1+$1,$2,$3,$4,$5,0*
20,1,$1+$1,$4,$5,$6,$7,0*
20,1,$1+$1,$6,$7,$8,$9,0*
20,1,$1+$1,$8,$9,$2,$3,0*%
%AMFreePoly0*
4,1,23,0.500000,-0.750000,0.000000,-0.750000,0.000000,-0.745722,-0.065263,-0.745722,-0.191342,-0.711940,-0.304381,-0.646677,-0.396677,-0.554381,-0.461940,-0.441342,-0.495722,-0.315263,-0.495722,-0.250000,-0.500000,-0.250000,-0.500000,0.250000,-0.495722,0.250000,-0.495722,0.315263,-0.461940,0.441342,-0.396677,0.554381,-0.304381,0.646677,-0.191342,0.711940,-0.065263,0.745722,0.000000,0.745722,
0.000000,0.750000,0.500000,0.750000,0.500000,-0.750000,0.500000,-0.750000,$1*%
%AMFreePoly1*
4,1,23,0.000000,0.745722,0.065263,0.745722,0.191342,0.711940,0.304381,0.646677,0.396677,0.554381,0.461940,0.441342,0.495722,0.315263,0.495722,0.250000,0.500000,0.250000,0.500000,-0.250000,0.495722,-0.250000,0.495722,-0.315263,0.461940,-0.441342,0.396677,-0.554381,0.304381,-0.646677,0.191342,-0.711940,0.065263,-0.745722,0.000000,-0.745722,0.000000,-0.750000,-0.500000,-0.750000,
-0.500000,0.750000,0.000000,0.750000,0.000000,0.745722,0.000000,0.745722,$1*%
G04 Aperture macros list end*
%TA.AperFunction,ComponentPad*%
%ADD10R,1.370000X1.370000*%
%TD*%
%TA.AperFunction,ComponentPad*%
%ADD11C,1.370000*%
%TD*%
%TA.AperFunction,ComponentPad*%
%ADD12RoundRect,0.250000X0.725000X-0.600000X0.725000X0.600000X-0.725000X0.600000X-0.725000X-0.600000X0*%
%TD*%
%TA.AperFunction,ComponentPad*%
%ADD13O,1.950000X1.700000*%
%TD*%
%TA.AperFunction,SMDPad,CuDef*%
%ADD14R,2.100000X1.800000*%
%TD*%
%TA.AperFunction,SMDPad,CuDef*%
%ADD15FreePoly0,0.000000*%
%TD*%
%TA.AperFunction,SMDPad,CuDef*%
%ADD16FreePoly1,0.000000*%
%TD*%
%TA.AperFunction,SMDPad,CuDef*%
%ADD17RoundRect,0.250000X0.475000X-0.337500X0.475000X0.337500X-0.475000X0.337500X-0.475000X-0.337500X0*%
%TD*%
%TA.AperFunction,SMDPad,CuDef*%
%ADD18RoundRect,0.250000X-0.350000X-0.450000X0.350000X-0.450000X0.350000X0.450000X-0.350000X0.450000X0*%
%TD*%
%TA.AperFunction,SMDPad,CuDef*%
%ADD19RoundRect,0.162500X-0.447500X-0.162500X0.447500X-0.162500X0.447500X0.162500X-0.447500X0.162500X0*%
%TD*%
%TA.AperFunction,SMDPad,CuDef*%
%ADD20RoundRect,0.150000X-0.825000X-0.150000X0.825000X-0.150000X0.825000X0.150000X-0.825000X0.150000X0*%
%TD*%
%TA.AperFunction,SMDPad,CuDef*%
%ADD21RoundRect,0.250000X0.350000X0.450000X-0.350000X0.450000X-0.350000X-0.450000X0.350000X-0.450000X0*%
%TD*%
%TA.AperFunction,ComponentPad*%
%ADD22R,1.700000X1.700000*%
%TD*%
%TA.AperFunction,ComponentPad*%
%ADD23C,1.700000*%
%TD*%
%TA.AperFunction,SMDPad,CuDef*%
%ADD24RoundRect,0.250000X-0.337500X-0.475000X0.337500X-0.475000X0.337500X0.475000X-0.337500X0.475000X0*%
%TD*%
%TA.AperFunction,SMDPad,CuDef*%
%ADD25RoundRect,0.150000X0.150000X-0.875000X0.150000X0.875000X-0.150000X0.875000X-0.150000X-0.875000X0*%
%TD*%
%TA.AperFunction,ViaPad*%
%ADD26C,0.600000*%
%TD*%
%TA.AperFunction,Conductor*%
%ADD27C,0.400000*%
%TD*%
%TA.AperFunction,Conductor*%
%ADD28C,0.800000*%
%TD*%
%TA.AperFunction,Conductor*%
%ADD29C,0.750000*%
%TD*%
G04 APERTURE END LIST*
D10*
%TO.P,J2,01,01*%
%TO.N,/VIN*%
X151400000Y-99930000D03*
D11*
%TO.P,J2,02,02*%
%TO.N,GND*%
X148860000Y-99930000D03*
%TO.P,J2,03,03*%
%TO.N,/RST2*%
X146320000Y-99930000D03*
%TO.P,J2,04,04*%
%TO.N,+5V*%
X143780000Y-99930000D03*
%TO.P,J2,05,05*%
%TO.N,/A7*%
X141240000Y-99930000D03*
%TO.P,J2,06,06*%
%TO.N,/A6*%
X138700000Y-99930000D03*
%TO.P,J2,07,07*%
%TO.N,/A5*%
X136160000Y-99930000D03*
%TO.P,J2,08,08*%
%TO.N,/A4*%
X133620000Y-99930000D03*
%TO.P,J2,09,09*%
%TO.N,/A3*%
X131080000Y-99930000D03*
%TO.P,J2,10,10*%
%TO.N,/A2*%
X128540000Y-99930000D03*
%TO.P,J2,11,11*%
%TO.N,/A1*%
X126000000Y-99930000D03*
%TO.P,J2,12,12*%
%TO.N,/A0*%
X123460000Y-99930000D03*
%TO.P,J2,13,13*%
%TO.N,/AREF*%
X120920000Y-99930000D03*
%TO.P,J2,14,14*%
%TO.N,+3V3*%
X118380000Y-99930000D03*
%TO.P,J2,15,15*%
%TO.N,/SCK*%
X115840000Y-99930000D03*
%TD*%
D12*
%TO.P,J4,1,Pin_1*%
%TO.N,/CAN_H*%
X153790000Y-94780000D03*
D13*
%TO.P,J4,2,Pin_2*%
%TO.N,GND*%
X153790000Y-92280000D03*
%TO.P,J4,3,Pin_3*%
%TO.N,/CAN_L*%
X153790000Y-89780000D03*
%TD*%
D10*
%TO.P,J1,01,01*%
%TO.N,/D1*%
X151405000Y-84700000D03*
D11*
%TO.P,J1,02,02*%
%TO.N,/D0*%
X148865000Y-84700000D03*
%TO.P,J1,03,03*%
%TO.N,/RST1*%
X146325000Y-84700000D03*
%TO.P,J1,04,04*%
%TO.N,GND*%
X143785000Y-84700000D03*
%TO.P,J1,05,05*%
%TO.N,/CAN_INT_DEFAULT*%
X141245000Y-84700000D03*
%TO.P,J1,06,06*%
%TO.N,/CAN_CS_DEFAULT*%
X138705000Y-84700000D03*
%TO.P,J1,07,07*%
%TO.N,/D4*%
X136165000Y-84700000D03*
%TO.P,J1,08,08*%
%TO.N,/D5*%
X133625000Y-84700000D03*
%TO.P,J1,09,09*%
%TO.N,/D6*%
X131085000Y-84700000D03*
%TO.P,J1,10,10*%
%TO.N,/D7*%
X128545000Y-84700000D03*
%TO.P,J1,11,11*%
%TO.N,/D8*%
X126005000Y-84700000D03*
%TO.P,J1,12,12*%
%TO.N,/D9*%
X123465000Y-84700000D03*
%TO.P,J1,13,13*%
%TO.N,/D10*%
X120925000Y-84700000D03*
%TO.P,J1,14,14*%
%TO.N,/MOSI*%
X118385000Y-84700000D03*
%TO.P,J1,15,15*%
%TO.N,/MISO*%
X115845000Y-84700000D03*
%TD*%
D14*
%TO.P,Y1,1,1*%
%TO.N,/OSC2*%
X118225000Y-94425000D03*
%TO.P,Y1,2,2*%
%TO.N,/OSC1*%
X121125000Y-94425000D03*
%TO.P,Y1,3*%
%TO.N,N/C*%
X121125000Y-96725000D03*
%TO.P,Y1,4*%
X118225000Y-96725000D03*
%TD*%
D15*
%TO.P,JP2,1,A*%
%TO.N,/CAN_L_IN*%
X142925000Y-88125000D03*
D16*
%TO.P,JP2,2,B*%
%TO.N,/CAN_L*%
X144225000Y-88125000D03*
%TD*%
D17*
%TO.P,C4,1*%
%TO.N,GND*%
X148150000Y-97000000D03*
%TO.P,C4,2*%
%TO.N,/CAN_H*%
X148150000Y-94925000D03*
%TD*%
%TO.P,C2,1*%
%TO.N,/OSC1*%
X121325000Y-92337500D03*
%TO.P,C2,2*%
%TO.N,GND*%
X121325000Y-90262500D03*
%TD*%
D18*
%TO.P,Rt2,1*%
%TO.N,Net-(C3-Pad1)*%
X144125000Y-90325000D03*
%TO.P,Rt2,2*%
%TO.N,/CAN_L*%
X146125000Y-90325000D03*
%TD*%
D15*
%TO.P,JP1,1,A*%
%TO.N,/CAN_H_IN*%
X142950000Y-96425000D03*
D16*
%TO.P,JP1,2,B*%
%TO.N,/CAN_H*%
X144250000Y-96425000D03*
%TD*%
D19*
%TO.P,D1,1,1*%
%TO.N,/CAN_H*%
X148015000Y-93242500D03*
%TO.P,D1,2,2*%
%TO.N,/CAN_L*%
X148015000Y-91342500D03*
%TO.P,D1,3,3*%
%TO.N,GND*%
X150635000Y-92292500D03*
%TD*%
D17*
%TO.P,C1,1*%
%TO.N,/OSC2*%
X118200000Y-92362500D03*
%TO.P,C1,2*%
%TO.N,GND*%
X118200000Y-90287500D03*
%TD*%
D20*
%TO.P,U2,1,TXD*%
%TO.N,/CAN_TX*%
X136425000Y-94215000D03*
%TO.P,U2,2,GND*%
%TO.N,GND*%
X136425000Y-92945000D03*
%TO.P,U2,3,VCC*%
%TO.N,+5V*%
X136425000Y-91675000D03*
%TO.P,U2,4,RXD*%
%TO.N,/CAN_RX*%
X136425000Y-90405000D03*
%TO.P,U2,5,VIO*%
%TO.N,+5V*%
X141375000Y-90405000D03*
%TO.P,U2,6,CANL*%
%TO.N,/CAN_L_IN*%
X141375000Y-91675000D03*
%TO.P,U2,7,CANH*%
%TO.N,/CAN_H_IN*%
X141375000Y-92945000D03*
%TO.P,U2,8,S*%
%TO.N,/SILENT*%
X141375000Y-94215000D03*
%TD*%
D21*
%TO.P,R2,1*%
%TO.N,/SILENT*%
X141000000Y-96150000D03*
%TO.P,R2,2*%
%TO.N,GND*%
X139000000Y-96150000D03*
%TD*%
D22*
%TO.P,J3,1,Pin_1*%
%TO.N,/~{CAN_INT}*%
X115025000Y-88375000D03*
D23*
%TO.P,J3,2,Pin_2*%
%TO.N,/CAN_CS*%
X115025000Y-90915000D03*
%TO.P,J3,3,Pin_3*%
%TO.N,/CAN_RESET*%
X115025000Y-93455000D03*
%TO.P,J3,4,Pin_4*%
%TO.N,/SILENT*%
X115025000Y-95995000D03*
%TD*%
D24*
%TO.P,C3,1*%
%TO.N,Net-(C3-Pad1)*%
X143500000Y-92275000D03*
%TO.P,C3,2*%
%TO.N,GND*%
X145575000Y-92275000D03*
%TD*%
D21*
%TO.P,Rt1,1*%
%TO.N,/CAN_H*%
X146125000Y-94225000D03*
%TO.P,Rt1,2*%
%TO.N,Net-(C3-Pad1)*%
X144125000Y-94225000D03*
%TD*%
D25*
%TO.P,U1,1,TXCAN*%
%TO.N,/CAN_TX*%
X134250000Y-96925000D03*
%TO.P,U1,2,RXCAN*%
%TO.N,/CAN_RX*%
X132980000Y-96925000D03*
%TO.P,U1,3,CLKOUT/SOF*%
%TO.N,unconnected-(U1-CLKOUT{slash}SOF-Pad3)*%
X131710000Y-96925000D03*
%TO.P,U1,4,~{TX0RTS}*%
%TO.N,unconnected-(U1-~{TX0RTS}-Pad4)*%
X130440000Y-96925000D03*
%TO.P,U1,5,~{TX1RTS}*%
%TO.N,unconnected-(U1-~{TX1RTS}-Pad5)*%
X129170000Y-96925000D03*
%TO.P,U1,6,~{TX2RTS}*%
%TO.N,unconnected-(U1-~{TX2RTS}-Pad6)*%
X127900000Y-96925000D03*
%TO.P,U1,7,OSC2*%
%TO.N,/OSC2*%
X126630000Y-96925000D03*
%TO.P,U1,8,OSC1*%
%TO.N,/OSC1*%
X125360000Y-96925000D03*
%TO.P,U1,9,VSS*%
%TO.N,GND*%
X124090000Y-96925000D03*
%TO.P,U1,10,~{RX1BF}*%
%TO.N,unconnected-(U1-~{RX1BF}-Pad10)*%
X124090000Y-87625000D03*
%TO.P,U1,11,~{RX0BF}*%
%TO.N,unconnected-(U1-~{RX0BF}-Pad11)*%
X125360000Y-87625000D03*
%TO.P,U1,12,~{INT}*%
%TO.N,/~{CAN_INT}*%
X126630000Y-87625000D03*
%TO.P,U1,13,SCK*%
%TO.N,/SCK*%
X127900000Y-87625000D03*
%TO.P,U1,14,SI*%
%TO.N,/MOSI*%
X129170000Y-87625000D03*
%TO.P,U1,15,SO*%
%TO.N,/MISO*%
X130440000Y-87625000D03*
%TO.P,U1,16,~{CS}*%
%TO.N,/CAN_CS*%
X131710000Y-87625000D03*
%TO.P,U1,17,~{RESET}*%
%TO.N,/CAN_RESET*%
X132980000Y-87625000D03*
%TO.P,U1,18,VDD*%
%TO.N,+5V*%
X134250000Y-87625000D03*
%TD*%
D17*
%TO.P,C5,1*%
%TO.N,/CAN_L*%
X148125000Y-89650000D03*
%TO.P,C5,2*%
%TO.N,GND*%
X148125000Y-87575000D03*
%TD*%
D26*
%TO.N,GND*%
X131375000Y-95100000D03*
X135800000Y-95400000D03*
X134125000Y-93575000D03*
%TO.N,+5V*%
X134950000Y-86850000D03*
X141375000Y-90405000D03*
%TO.N,/CAN_H*%
X152195000Y-93275000D03*
%TO.N,/CAN_L*%
X152350000Y-91330000D03*
%TO.N,/SILENT*%
X141000000Y-96150000D03*
%TO.N,/CAN_CS*%
X130650000Y-90875000D03*
%TO.N,/~{CAN_INT}*%
X140325000Y-89625000D03*
X126610000Y-88875000D03*
X135150000Y-88300000D03*
%TO.N,/CAN_RESET*%
X131862500Y-91987500D03*
X142200000Y-86725000D03*
%TO.N,/SCK*%
X127700000Y-89450000D03*
%TO.N,/CAN_H_IN*%
X142950000Y-93680000D03*
%TO.N,/CAN_L_IN*%
X142880000Y-90950000D03*
%TD*%
D27*
%TO.N,Net-(C3-Pad1)*%
X144125000Y-94225000D02*
X143950000Y-94050000D01*
X143950000Y-91825000D02*
X143500000Y-92275000D01*
X144125000Y-90325000D02*
X143950000Y-90500000D01*
X143950000Y-92725000D02*
X143500000Y-92275000D01*
X143950000Y-94050000D02*
X143950000Y-92725000D01*
X143950000Y-90500000D02*
X143950000Y-91825000D01*
D28*
%TO.N,GND*%
X150635000Y-92292500D02*
X150642500Y-92300000D01*
D29*
X145575000Y-92275000D02*
X146925000Y-92275000D01*
X146925000Y-92275000D02*
X150617500Y-92275000D01*
X150642500Y-92300000D02*
X153772500Y-92300000D01*
D27*
%TO.N,+5V*%
X134250000Y-87625000D02*
X134250000Y-87550000D01*
X143153834Y-99930000D02*
X143785000Y-99930000D01*
X134525000Y-89525000D02*
X137301974Y-89525000D01*
X141375000Y-90405000D02*
X138170000Y-90405000D01*
X134250000Y-87550000D02*
X134950000Y-86850000D01*
X137301974Y-89525000D02*
X138170000Y-90393026D01*
X136911974Y-91675000D02*
X136425000Y-91675000D01*
X137800000Y-90775000D02*
X137800000Y-90786974D01*
X138170000Y-90393026D02*
X138170000Y-90405000D01*
X134250000Y-87625000D02*
X134250000Y-89250000D01*
X138170000Y-90405000D02*
X137800000Y-90775000D01*
X137800000Y-90786974D02*
X136911974Y-91675000D01*
X134250000Y-89250000D02*
X134525000Y-89525000D01*
%TO.N,/CAN_INT_DEFAULT*%
X141275000Y-84720000D02*
X141245000Y-84690000D01*
%TO.N,/CAN_H*%
X147450000Y-94225000D02*
X148150000Y-94925000D01*
X150675000Y-93242500D02*
X152215000Y-93242500D01*
X148015000Y-93242500D02*
X150675000Y-93242500D01*
X148015000Y-93242500D02*
X148015000Y-93660000D01*
X146125000Y-94550000D02*
X146125000Y-94225000D01*
X148015000Y-93660000D02*
X147450000Y-94225000D01*
X146125000Y-94225000D02*
X147450000Y-94225000D01*
X144250000Y-96425000D02*
X146125000Y-94550000D01*
X152215000Y-93242500D02*
X153772500Y-94800000D01*
%TO.N,/CAN_L*%
X148015000Y-91342500D02*
X152382500Y-91342500D01*
X152382500Y-91342500D02*
X153772500Y-89952500D01*
X153772500Y-89952500D02*
X153772500Y-89800000D01*
X146125000Y-90325000D02*
X147450000Y-90325000D01*
X146125000Y-90025000D02*
X146125000Y-90325000D01*
X148015000Y-90890000D02*
X147450000Y-90325000D01*
X147450000Y-90325000D02*
X148125000Y-89650000D01*
X144225000Y-88125000D02*
X146125000Y-90025000D01*
X148015000Y-91342500D02*
X148015000Y-90890000D01*
%TO.N,/OSC2*%
X119225000Y-91350000D02*
X122573528Y-91350000D01*
X126630000Y-95406472D02*
X126630000Y-96925000D01*
X118200000Y-92362500D02*
X118212500Y-92362500D01*
X118225000Y-92387500D02*
X118200000Y-92362500D01*
X118212500Y-92362500D02*
X119225000Y-91350000D01*
X118225000Y-94425000D02*
X118225000Y-92387500D01*
X122573528Y-91350000D02*
X126630000Y-95406472D01*
%TO.N,/OSC1*%
X121125000Y-94425000D02*
X121125000Y-92537500D01*
X122712500Y-92337500D02*
X125360000Y-94985000D01*
X121325000Y-92337500D02*
X122712500Y-92337500D01*
X125360000Y-94985000D02*
X125360000Y-96925000D01*
X121125000Y-92537500D02*
X121325000Y-92337500D01*
%TO.N,/SILENT*%
X141000000Y-96150000D02*
X141000000Y-94590000D01*
X141000000Y-94590000D02*
X141375000Y-94215000D01*
%TO.N,/CAN_CS*%
X130650000Y-90875000D02*
X131710000Y-89815000D01*
X131710000Y-89815000D02*
X131710000Y-87625000D01*
%TO.N,/~{CAN_INT}*%
X139000000Y-88300000D02*
X140325000Y-89625000D01*
X135150000Y-88300000D02*
X139000000Y-88300000D01*
X126630000Y-88855000D02*
X126630000Y-87625000D01*
X126610000Y-88875000D02*
X126630000Y-88855000D01*
%TO.N,/CAN_RESET*%
X132980000Y-86600001D02*
X132980000Y-87625000D01*
X141625000Y-86150000D02*
X133430001Y-86150000D01*
X131862500Y-91987500D02*
X132980000Y-90870000D01*
X132980000Y-90870000D02*
X132980000Y-87625000D01*
X142200000Y-86725000D02*
X141625000Y-86150000D01*
X133430001Y-86150000D02*
X132980000Y-86600001D01*
%TO.N,/CAN_RX*%
X132980000Y-92875001D02*
X135450001Y-90405000D01*
X132980000Y-96925000D02*
X132980000Y-92875001D01*
X135450001Y-90405000D02*
X136425000Y-90405000D01*
%TO.N,/MISO*%
X115845000Y-84720000D02*
X118100000Y-86975000D01*
X124725000Y-90350000D02*
X129875000Y-90350000D01*
X115845000Y-84690000D02*
X115845000Y-84720000D01*
X129875000Y-90350000D02*
X130440000Y-89785000D01*
X130440000Y-89785000D02*
X130440000Y-87625000D01*
X121350000Y-86975000D02*
X124725000Y-90350000D01*
X118100000Y-86975000D02*
X121350000Y-86975000D01*
%TO.N,/SCK*%
X127900000Y-89250000D02*
X127900000Y-87625000D01*
X127700000Y-89450000D02*
X127900000Y-89250000D01*
%TO.N,/MOSI*%
X119635000Y-85940000D02*
X118385000Y-84690000D01*
X128509999Y-85940000D02*
X119635000Y-85940000D01*
X129170000Y-86600001D02*
X128509999Y-85940000D01*
X129170000Y-87625000D02*
X129170000Y-86600001D01*
%TO.N,/CAN_TX*%
X135285000Y-94215000D02*
X136425000Y-94215000D01*
X134250000Y-96925000D02*
X134250000Y-95250000D01*
X134250000Y-95250000D02*
X135285000Y-94215000D01*
%TO.N,/CAN_H_IN*%
X142950000Y-96425000D02*
X142950000Y-93680000D01*
X142950000Y-93680000D02*
X142950000Y-93650000D01*
X142245000Y-92945000D02*
X141375000Y-92945000D01*
X142950000Y-93650000D02*
X142245000Y-92945000D01*
%TO.N,/CAN_L_IN*%
X141375000Y-91675000D02*
X142125000Y-91675000D01*
X142125000Y-91675000D02*
X142925000Y-90875000D01*
X142925000Y-90875000D02*
X142925000Y-88125000D01*
%TD*%
%TA.AperFunction,Conductor*%
%TO.N,GND*%
G36*
X114856841Y-83820185D02*
G01*
X114902596Y-83872989D01*
X114912540Y-83942147D01*
X114890120Y-83997386D01*
X114831069Y-84078661D01*
X114746354Y-84244925D01*
X114746352Y-84244928D01*
X114688691Y-84422390D01*
X114688691Y-84422393D01*
X114659500Y-84606699D01*
X114659500Y-84793300D01*
X114688691Y-84977606D01*
X114688691Y-84977609D01*
X114746352Y-85155071D01*
X114746354Y-85155074D01*
X114831069Y-85321338D01*
X114940751Y-85472302D01*
X115072698Y-85604249D01*
X115223662Y-85713931D01*
X115389926Y-85798646D01*
X115389928Y-85798647D01*
X115567391Y-85856308D01*
X115567392Y-85856308D01*
X115567395Y-85856309D01*
X115751699Y-85885500D01*
X115751700Y-85885500D01*
X115938300Y-85885500D01*
X115938301Y-85885500D01*
X115946285Y-85884235D01*
X116015578Y-85893186D01*
X116053369Y-85919026D01*
X117653453Y-87519111D01*
X117653454Y-87519112D01*
X117768192Y-87595777D01*
X117895667Y-87648578D01*
X117895672Y-87648580D01*
X117895676Y-87648580D01*
X117895677Y-87648581D01*
X118031003Y-87675500D01*
X118031006Y-87675500D01*
X118031007Y-87675500D01*
X121008481Y-87675500D01*
X121075520Y-87695185D01*
X121096162Y-87711819D01*
X124278453Y-90894111D01*
X124278454Y-90894112D01*
X124393192Y-90970777D01*
X124515134Y-91021286D01*
X124520672Y-91023580D01*
X124520676Y-91023580D01*
X124520677Y-91023581D01*
X124656003Y-91050500D01*
X124656006Y-91050500D01*
X124656007Y-91050500D01*
X129773386Y-91050500D01*
X129840425Y-91070185D01*
X129886180Y-91122989D01*
X129887947Y-91127048D01*
X129940602Y-91254172D01*
X129940609Y-91254185D01*
X130028210Y-91385288D01*
X130028213Y-91385292D01*
X130139707Y-91496786D01*
X130139711Y-91496789D01*
X130270814Y-91584390D01*
X130270827Y-91584397D01*
X130416498Y-91644735D01*
X130416503Y-91644737D01*
X130571153Y-91675499D01*
X130571156Y-91675500D01*
X130571158Y-91675500D01*
X130728844Y-91675500D01*
X130728845Y-91675499D01*
X130883497Y-91644737D01*
X130920910Y-91629239D01*
X130990378Y-91621771D01*
X131052857Y-91653046D01*
X131088510Y-91713134D01*
X131089979Y-91767992D01*
X131062000Y-91908653D01*
X131062000Y-92066346D01*
X131092761Y-92220989D01*
X131092764Y-92221001D01*
X131153102Y-92366672D01*
X131153109Y-92366685D01*
X131240710Y-92497788D01*
X131240713Y-92497792D01*
X131352207Y-92609286D01*
X131352211Y-92609289D01*
X131483314Y-92696890D01*
X131483327Y-92696897D01*
X131623602Y-92755000D01*
X131629003Y-92757237D01*
X131723577Y-92776049D01*
X131783653Y-92787999D01*
X131783656Y-92788000D01*
X131783658Y-92788000D01*
X131941344Y-92788000D01*
X131941345Y-92787999D01*
X132095997Y-92757237D01*
X132108047Y-92752245D01*
X132177513Y-92744776D01*
X132239993Y-92776049D01*
X132275647Y-92836137D01*
X132279500Y-92866806D01*
X132279500Y-95329326D01*
X132259815Y-95396365D01*
X132207011Y-95442120D01*
X132137853Y-95452064D01*
X132120905Y-95448402D01*
X131962573Y-95402402D01*
X131962567Y-95402401D01*
X131925701Y-95399500D01*
X131925694Y-95399500D01*
X131494306Y-95399500D01*
X131494298Y-95399500D01*
X131457432Y-95402401D01*
X131457426Y-95402402D01*
X131299606Y-95448254D01*
X131299603Y-95448255D01*
X131158137Y-95531917D01*
X131151969Y-95536702D01*
X131150072Y-95534256D01*
X131101358Y-95560857D01*
X131031666Y-95555873D01*
X130999296Y-95535069D01*
X130998031Y-95536702D01*
X130991862Y-95531917D01*
X130859282Y-95453510D01*
X130850398Y-95448256D01*
X130850397Y-95448255D01*
X130850396Y-95448255D01*
X130850393Y-95448254D01*
X130692573Y-95402402D01*
X130692567Y-95402401D01*
X130655701Y-95399500D01*
X130655694Y-95399500D01*
X130224306Y-95399500D01*
X130224298Y-95399500D01*
X130187432Y-95402401D01*
X130187426Y-95402402D01*
X130029606Y-95448254D01*
X130029603Y-95448255D01*
X129888137Y-95531917D01*
X129881969Y-95536702D01*
X129880072Y-95534256D01*
X129831358Y-95560857D01*
X129761666Y-95555873D01*
X129729296Y-95535069D01*
X129728031Y-95536702D01*
X129721862Y-95531917D01*
X129589282Y-95453510D01*
X129580398Y-95448256D01*
X129580397Y-95448255D01*
X129580396Y-95448255D01*
X129580393Y-95448254D01*
X129422573Y-95402402D01*
X129422567Y-95402401D01*
X129385701Y-95399500D01*
X129385694Y-95399500D01*
X128954306Y-95399500D01*
X128954298Y-95399500D01*
X128917432Y-95402401D01*
X128917426Y-95402402D01*
X128759606Y-95448254D01*
X128759603Y-95448255D01*
X128618137Y-95531917D01*
X128611969Y-95536702D01*
X128610072Y-95534256D01*
X128561358Y-95560857D01*
X128491666Y-95555873D01*
X128459296Y-95535069D01*
X128458031Y-95536702D01*
X128451862Y-95531917D01*
X128319282Y-95453510D01*
X128310398Y-95448256D01*
X128310397Y-95448255D01*
X128310396Y-95448255D01*
X128310393Y-95448254D01*
X128152573Y-95402402D01*
X128152567Y-95402401D01*
X128115701Y-95399500D01*
X128115694Y-95399500D01*
X127684306Y-95399500D01*
X127684298Y-95399500D01*
X127647432Y-95402401D01*
X127488896Y-95448460D01*
X127472440Y-95448412D01*
X127456748Y-95453359D01*
X127438225Y-95448314D01*
X127419027Y-95448260D01*
X127405210Y-95439324D01*
X127389333Y-95435001D01*
X127376476Y-95420741D01*
X127360357Y-95410317D01*
X127353138Y-95394857D01*
X127342546Y-95383109D01*
X127334885Y-95355764D01*
X127331936Y-95349448D01*
X127330500Y-95340690D01*
X127330500Y-95337479D01*
X127327918Y-95324501D01*
X127303580Y-95202144D01*
X127303232Y-95201304D01*
X127250777Y-95074664D01*
X127174112Y-94959926D01*
X123020073Y-90805887D01*
X122905335Y-90729222D01*
X122777860Y-90676421D01*
X122777850Y-90676418D01*
X122649808Y-90650948D01*
X122587897Y-90618562D01*
X122553323Y-90557846D01*
X122550000Y-90529331D01*
X122550000Y-90512500D01*
X120100001Y-90512500D01*
X120100001Y-90525500D01*
X120080316Y-90592539D01*
X120027512Y-90638294D01*
X119976001Y-90649500D01*
X119549000Y-90649500D01*
X119481961Y-90629815D01*
X119436206Y-90577011D01*
X119428336Y-90540836D01*
X119425000Y-90537500D01*
X116975001Y-90537500D01*
X116975001Y-90674986D01*
X116985494Y-90777697D01*
X117040641Y-90944119D01*
X117040643Y-90944124D01*
X117132684Y-91093345D01*
X117256655Y-91217316D01*
X117256659Y-91217319D01*
X117259656Y-91219168D01*
X117261279Y-91220972D01*
X117262323Y-91221798D01*
X117262181Y-91221976D01*
X117306381Y-91271116D01*
X117317602Y-91340079D01*
X117289759Y-91404161D01*
X117259661Y-91430241D01*
X117256349Y-91432283D01*
X117256343Y-91432288D01*
X117132289Y-91556342D01*
X117040187Y-91705663D01*
X117040186Y-91705666D01*
X116985001Y-91872203D01*
X116985001Y-91872204D01*
X116985000Y-91872204D01*
X116974500Y-91974983D01*
X116974500Y-92750001D01*
X116974501Y-92750019D01*
X116985000Y-92852796D01*
X116985001Y-92852800D01*
X117009019Y-92925280D01*
X117011421Y-92995109D01*
X116975689Y-93055150D01*
X116940421Y-93076906D01*
X116940449Y-93076956D01*
X116939511Y-93077467D01*
X116934658Y-93080462D01*
X116932667Y-93081204D01*
X116932665Y-93081205D01*
X116817455Y-93167452D01*
X116817452Y-93167455D01*
X116731206Y-93282664D01*
X116731202Y-93282671D01*
X116680908Y-93417517D01*
X116674501Y-93477116D01*
X116674500Y-93477135D01*
X116674500Y-95372870D01*
X116674501Y-95372876D01*
X116680909Y-95432484D01*
X116717901Y-95531668D01*
X116722885Y-95601360D01*
X116717901Y-95618332D01*
X116680909Y-95717514D01*
X116680908Y-95717516D01*
X116674501Y-95777116D01*
X116674501Y-95777123D01*
X116674500Y-95777135D01*
X116674500Y-97672870D01*
X116674501Y-97672876D01*
X116680908Y-97732483D01*
X116731202Y-97867328D01*
X116731206Y-97867335D01*
X116817452Y-97982544D01*
X116817455Y-97982547D01*
X116932664Y-98068793D01*
X116932671Y-98068797D01*
X117067517Y-98119091D01*
X117067516Y-98119091D01*
X117074444Y-98119835D01*
X117127127Y-98125500D01*
X119322872Y-98125499D01*
X119382483Y-98119091D01*
X119517331Y-98068796D01*
X119600689Y-98006393D01*
X119666153Y-97981977D01*
X119734426Y-97996828D01*
X119749311Y-98006394D01*
X119832669Y-98068796D01*
X119832671Y-98068797D01*
X119967517Y-98119091D01*
X119967516Y-98119091D01*
X119974444Y-98119835D01*
X120027127Y-98125500D01*
X122222872Y-98125499D01*
X122282483Y-98119091D01*
X122417331Y-98068796D01*
X122532546Y-97982546D01*
X122618796Y-97867331D01*
X122619423Y-97865649D01*
X123290000Y-97865649D01*
X123292899Y-97902489D01*
X123292900Y-97902495D01*
X123338716Y-98060193D01*
X123338717Y-98060196D01*
X123422314Y-98201552D01*
X123422321Y-98201561D01*
X123538438Y-98317678D01*
X123538447Y-98317685D01*
X123679801Y-98401281D01*
X123837514Y-98447100D01*
X123837511Y-98447100D01*
X123839998Y-98447295D01*
X123840000Y-98447295D01*
X123840000Y-97175000D01*
X123290000Y-97175000D01*
X123290000Y-97865649D01*
X122619423Y-97865649D01*
X122669091Y-97732483D01*
X122675500Y-97672873D01*
X122675499Y-96702820D01*
X122675499Y-95984350D01*
X123290000Y-95984350D01*
X123290000Y-96675000D01*
X123840000Y-96675000D01*
X123840000Y-95402703D01*
X123837503Y-95402900D01*
X123679806Y-95448716D01*
X123679803Y-95448717D01*
X123538447Y-95532314D01*
X123538438Y-95532321D01*
X123422321Y-95648438D01*
X123422314Y-95648447D01*
X123338717Y-95789803D01*
X123338716Y-95789806D01*
X123292900Y-95947504D01*
X123292899Y-95947510D01*
X123290000Y-95984350D01*
X122675499Y-95984350D01*
X122675499Y-95981923D01*
X122675499Y-95777129D01*
X122675498Y-95777123D01*
X122675497Y-95777116D01*
X122669091Y-95717517D01*
X122632096Y-95618330D01*
X122627113Y-95548642D01*
X122632092Y-95531680D01*
X122669091Y-95432483D01*
X122675500Y-95372873D01*
X122675499Y-93590516D01*
X122695184Y-93523478D01*
X122747987Y-93477723D01*
X122817146Y-93467779D01*
X122880702Y-93496804D01*
X122887168Y-93502825D01*
X123652503Y-94268159D01*
X124623181Y-95238837D01*
X124637884Y-95265764D01*
X124654477Y-95291583D01*
X124655368Y-95297783D01*
X124656666Y-95300160D01*
X124659500Y-95326518D01*
X124659500Y-95329846D01*
X124639815Y-95396885D01*
X124587011Y-95442640D01*
X124517853Y-95452584D01*
X124500906Y-95448923D01*
X124342492Y-95402900D01*
X124340000Y-95402703D01*
X124340000Y-98447295D01*
X124340001Y-98447295D01*
X124342486Y-98447100D01*
X124500198Y-98401281D01*
X124641550Y-98317686D01*
X124647717Y-98312903D01*
X124649630Y-98315369D01*
X124698222Y-98288802D01*
X124767917Y-98293749D01*
X124800762Y-98314853D01*
X124801969Y-98313298D01*
X124808132Y-98318078D01*
X124808135Y-98318081D01*
X124949602Y-98401744D01*
X124991224Y-98413836D01*
X125107426Y-98447597D01*
X125107429Y-98447597D01*
X125107431Y-98447598D01*
X125144306Y-98450500D01*
X125144314Y-98450500D01*
X125575686Y-98450500D01*
X125575694Y-98450500D01*
X125612569Y-98447598D01*
X125612571Y-98447597D01*
X125612573Y-98447597D01*
X125654191Y-98435505D01*
X125770398Y-98401744D01*
X125911865Y-98318081D01*
X125911870Y-98318075D01*
X125918031Y-98313298D01*
X125919933Y-98315750D01*
X125968579Y-98289155D01*
X126038274Y-98294104D01*
X126070695Y-98314940D01*
X126071969Y-98313298D01*
X126078132Y-98318078D01*
X126078135Y-98318081D01*
X126219602Y-98401744D01*
X126261224Y-98413836D01*
X126377426Y-98447597D01*
X126377429Y-98447597D01*
X126377431Y-98447598D01*
X126414306Y-98450500D01*
X126414314Y-98450500D01*
X126845686Y-98450500D01*
X126845694Y-98450500D01*
X126882569Y-98447598D01*
X126882571Y-98447597D01*
X126882573Y-98447597D01*
X126924191Y-98435505D01*
X127040398Y-98401744D01*
X127181865Y-98318081D01*
X127181870Y-98318075D01*
X127188031Y-98313298D01*
X127189933Y-98315750D01*
X127238579Y-98289155D01*
X127308274Y-98294104D01*
X127340695Y-98314940D01*
X127341969Y-98313298D01*
X127348132Y-98318078D01*
X127348135Y-98318081D01*
X127489602Y-98401744D01*
X127531224Y-98413836D01*
X127647426Y-98447597D01*
X127647429Y-98447597D01*
X127647431Y-98447598D01*
X127684306Y-98450500D01*
X127684314Y-98450500D01*
X128115686Y-98450500D01*
X128115694Y-98450500D01*
X128152569Y-98447598D01*
X128152571Y-98447597D01*
X128152573Y-98447597D01*
X128194191Y-98435505D01*
X128310398Y-98401744D01*
X128451865Y-98318081D01*
X128451870Y-98318075D01*
X128458031Y-98313298D01*
X128459933Y-98315750D01*
X128508579Y-98289155D01*
X128578274Y-98294104D01*
X128610695Y-98314940D01*
X128611969Y-98313298D01*
X128618132Y-98318078D01*
X128618135Y-98318081D01*
X128759602Y-98401744D01*
X128801224Y-98413836D01*
X128917426Y-98447597D01*
X128917429Y-98447597D01*
X128917431Y-98447598D01*
X128954306Y-98450500D01*
X128954314Y-98450500D01*
X129385686Y-98450500D01*
X129385694Y-98450500D01*
X129422569Y-98447598D01*
X129422571Y-98447597D01*
X129422573Y-98447597D01*
X129464191Y-98435505D01*
X129580398Y-98401744D01*
X129721865Y-98318081D01*
X129721870Y-98318075D01*
X129728031Y-98313298D01*
X129729933Y-98315750D01*
X129778579Y-98289155D01*
X129848274Y-98294104D01*
X129880695Y-98314940D01*
X129881969Y-98313298D01*
X129888132Y-98318078D01*
X129888135Y-98318081D01*
X130029602Y-98401744D01*
X130071224Y-98413836D01*
X130187426Y-98447597D01*
X130187429Y-98447597D01*
X130187431Y-98447598D01*
X130224306Y-98450500D01*
X130224314Y-98450500D01*
X130655686Y-98450500D01*
X130655694Y-98450500D01*
X130692569Y-98447598D01*
X130692571Y-98447597D01*
X130692573Y-98447597D01*
X130734191Y-98435505D01*
X130850398Y-98401744D01*
X130991865Y-98318081D01*
X130991870Y-98318075D01*
X130998031Y-98313298D01*
X130999933Y-98315750D01*
X131048579Y-98289155D01*
X131118274Y-98294104D01*
X131150695Y-98314940D01*
X131151969Y-98313298D01*
X131158132Y-98318078D01*
X131158135Y-98318081D01*
X131299602Y-98401744D01*
X131341224Y-98413836D01*
X131457426Y-98447597D01*
X131457429Y-98447597D01*
X131457431Y-98447598D01*
X131494306Y-98450500D01*
X131494314Y-98450500D01*
X131925686Y-98450500D01*
X131925694Y-98450500D01*
X131962569Y-98447598D01*
X131962571Y-98447597D01*
X131962573Y-98447597D01*
X132004191Y-98435505D01*
X132120398Y-98401744D01*
X132261865Y-98318081D01*
X132261870Y-98318075D01*
X132268031Y-98313298D01*
X132269933Y-98315750D01*
X132318579Y-98289155D01*
X132388274Y-98294104D01*
X132420695Y-98314940D01*
X132421969Y-98313298D01*
X132428132Y-98318078D01*
X132428135Y-98318081D01*
X132569602Y-98401744D01*
X132611224Y-98413836D01*
X132727426Y-98447597D01*
X132727429Y-98447597D01*
X132727431Y-98447598D01*
X132764306Y-98450500D01*
X132764314Y-98450500D01*
X133195686Y-98450500D01*
X133195694Y-98450500D01*
X133232569Y-98447598D01*
X133232571Y-98447597D01*
X133232573Y-98447597D01*
X133274191Y-98435505D01*
X133390398Y-98401744D01*
X133531865Y-98318081D01*
X133531870Y-98318075D01*
X133538031Y-98313298D01*
X133539933Y-98315750D01*
X133588579Y-98289155D01*
X133658274Y-98294104D01*
X133690695Y-98314940D01*
X133691969Y-98313298D01*
X133698132Y-98318078D01*
X133698135Y-98318081D01*
X133839602Y-98401744D01*
X133881224Y-98413836D01*
X133997426Y-98447597D01*
X133997429Y-98447597D01*
X133997431Y-98447598D01*
X134034306Y-98450500D01*
X134034314Y-98450500D01*
X134465686Y-98450500D01*
X134465694Y-98450500D01*
X134502569Y-98447598D01*
X134502571Y-98447597D01*
X134502573Y-98447597D01*
X134544191Y-98435505D01*
X134660398Y-98401744D01*
X134801865Y-98318081D01*
X134918081Y-98201865D01*
X135001744Y-98060398D01*
X135047598Y-97902569D01*
X135050500Y-97865694D01*
X135050500Y-96649986D01*
X137900001Y-96649986D01*
X137910494Y-96752697D01*
X137965641Y-96919119D01*
X137965643Y-96919124D01*
X138057684Y-97068345D01*
X138181654Y-97192315D01*
X138330875Y-97284356D01*
X138330880Y-97284358D01*
X138497302Y-97339505D01*
X138497309Y-97339506D01*
X138600019Y-97349999D01*
X138749999Y-97349999D01*
X138750000Y-97349998D01*
X138750000Y-96400000D01*
X137900001Y-96400000D01*
X137900001Y-96649986D01*
X135050500Y-96649986D01*
X135050500Y-95984306D01*
X135047598Y-95947431D01*
X135036490Y-95909199D01*
X135001745Y-95789606D01*
X135001744Y-95789602D01*
X134992170Y-95773413D01*
X134967768Y-95732150D01*
X134963418Y-95716250D01*
X134955523Y-95703965D01*
X134950500Y-95669030D01*
X134950500Y-95650013D01*
X137900000Y-95650013D01*
X137900000Y-95900000D01*
X138750000Y-95900000D01*
X138750000Y-94950000D01*
X138600027Y-94950000D01*
X138600012Y-94950001D01*
X138497302Y-94960494D01*
X138330880Y-95015641D01*
X138330875Y-95015643D01*
X138181654Y-95107684D01*
X138057684Y-95231654D01*
X137965643Y-95380875D01*
X137965641Y-95380880D01*
X137910494Y-95547302D01*
X137910493Y-95547309D01*
X137900000Y-95650013D01*
X134950500Y-95650013D01*
X134950500Y-95591518D01*
X134970185Y-95524479D01*
X134986815Y-95503841D01*
X135439051Y-95051604D01*
X135500372Y-95018121D01*
X135531844Y-95016003D01*
X135531868Y-95015404D01*
X135534298Y-95015499D01*
X135534306Y-95015500D01*
X135534314Y-95015500D01*
X137315686Y-95015500D01*
X137315694Y-95015500D01*
X137352569Y-95012598D01*
X137352571Y-95012597D01*
X137352573Y-95012597D01*
X137394191Y-95000505D01*
X137510398Y-94966744D01*
X137651865Y-94883081D01*
X137768081Y-94766865D01*
X137851744Y-94625398D01*
X137897598Y-94467569D01*
X137900500Y-94430694D01*
X137900500Y-93999306D01*
X137897598Y-93962431D01*
X137851744Y-93804602D01*
X137768081Y-93663135D01*
X137768078Y-93663132D01*
X137763298Y-93656969D01*
X137765635Y-93655155D01*
X137738798Y-93606050D01*
X137743756Y-93536356D01*
X137764554Y-93503998D01*
X137762903Y-93502717D01*
X137767686Y-93496550D01*
X137851281Y-93355198D01*
X137897100Y-93197486D01*
X137897295Y-93195001D01*
X137897295Y-93195000D01*
X134952705Y-93195000D01*
X134952704Y-93195001D01*
X134952899Y-93197486D01*
X134998718Y-93355198D01*
X135030564Y-93409047D01*
X135047747Y-93476771D01*
X135025587Y-93543034D01*
X134971286Y-93586729D01*
X134953189Y-93594224D01*
X134838454Y-93670887D01*
X134838453Y-93670888D01*
X133892181Y-94617161D01*
X133830858Y-94650646D01*
X133761166Y-94645662D01*
X133705233Y-94603790D01*
X133680816Y-94538326D01*
X133680500Y-94529480D01*
X133680500Y-93216519D01*
X133700185Y-93149480D01*
X133716814Y-93128843D01*
X134797355Y-92048301D01*
X134818323Y-92036852D01*
X134836831Y-92021737D01*
X134848429Y-92020412D01*
X134858676Y-92014818D01*
X134882508Y-92016522D01*
X134906250Y-92013812D01*
X134916723Y-92018969D01*
X134928368Y-92019802D01*
X134947496Y-92034121D01*
X134968933Y-92044677D01*
X134977281Y-92056419D01*
X134984301Y-92061674D01*
X134991259Y-92072013D01*
X134997264Y-92081984D01*
X134998256Y-92085398D01*
X135081919Y-92226865D01*
X135088446Y-92233392D01*
X135096269Y-92246382D01*
X135101440Y-92266103D01*
X135111210Y-92283995D01*
X135110121Y-92299210D01*
X135113991Y-92313966D01*
X135107680Y-92333350D01*
X135106226Y-92353687D01*
X135095743Y-92370017D01*
X135092362Y-92380404D01*
X135085477Y-92386026D01*
X135087097Y-92387283D01*
X135082313Y-92393449D01*
X134998718Y-92534801D01*
X134952899Y-92692513D01*
X134952704Y-92694998D01*
X134952705Y-92695000D01*
X137897295Y-92695000D01*
X137897295Y-92694998D01*
X137897100Y-92692513D01*
X137851281Y-92534801D01*
X137767685Y-92393447D01*
X137762900Y-92387278D01*
X137765366Y-92385364D01*
X137738802Y-92336776D01*
X137743749Y-92267082D01*
X137764856Y-92234232D01*
X137763301Y-92233026D01*
X137768077Y-92226868D01*
X137768081Y-92226865D01*
X137851744Y-92085398D01*
X137887051Y-91963873D01*
X137897597Y-91927573D01*
X137897598Y-91927567D01*
X137898438Y-91916891D01*
X137900500Y-91890694D01*
X137900500Y-91728492D01*
X137920185Y-91661453D01*
X137936819Y-91640811D01*
X138118332Y-91459298D01*
X138344113Y-91233517D01*
X138345633Y-91231243D01*
X138361437Y-91207588D01*
X138376860Y-91188796D01*
X138423841Y-91141817D01*
X138485164Y-91108333D01*
X138511520Y-91105500D01*
X139829327Y-91105500D01*
X139896366Y-91125185D01*
X139942121Y-91177989D01*
X139952065Y-91247147D01*
X139948403Y-91264095D01*
X139902402Y-91422426D01*
X139902401Y-91422432D01*
X139899500Y-91459298D01*
X139899500Y-91890701D01*
X139902401Y-91927567D01*
X139902402Y-91927573D01*
X139948254Y-92085393D01*
X139948255Y-92085396D01*
X139948256Y-92085398D01*
X139980640Y-92140157D01*
X140031917Y-92226862D01*
X140036702Y-92233031D01*
X140034256Y-92234927D01*
X140060857Y-92283642D01*
X140055873Y-92353334D01*
X140035069Y-92385703D01*
X140036702Y-92386969D01*
X140031917Y-92393137D01*
X139948255Y-92534603D01*
X139948254Y-92534606D01*
X139902402Y-92692426D01*
X139902401Y-92692432D01*
X139899500Y-92729298D01*
X139899500Y-93160701D01*
X139902401Y-93197567D01*
X139902402Y-93197573D01*
X139948254Y-93355393D01*
X139948255Y-93355396D01*
X140031917Y-93496862D01*
X140036702Y-93503031D01*
X140034256Y-93504927D01*
X140060857Y-93553642D01*
X140055873Y-93623334D01*
X140035069Y-93655703D01*
X140036702Y-93656969D01*
X140031917Y-93663137D01*
X139948255Y-93804603D01*
X139948254Y-93804606D01*
X139902402Y-93962426D01*
X139902401Y-93962432D01*
X139899500Y-93999298D01*
X139899500Y-94430701D01*
X139902401Y-94467567D01*
X139902402Y-94467573D01*
X139948254Y-94625393D01*
X139948255Y-94625396D01*
X140031917Y-94766862D01*
X140031923Y-94766870D01*
X140148129Y-94883076D01*
X140148132Y-94883078D01*
X140148135Y-94883081D01*
X140173959Y-94898353D01*
X140221642Y-94949421D01*
X140234146Y-95018162D01*
X140207501Y-95082752D01*
X140197454Y-95093819D01*
X140187623Y-95103414D01*
X140181344Y-95107288D01*
X140086806Y-95201825D01*
X140086262Y-95202357D01*
X140056007Y-95218406D01*
X140026003Y-95234789D01*
X140025227Y-95234733D01*
X140024539Y-95235099D01*
X139990431Y-95232245D01*
X139956312Y-95229805D01*
X139955569Y-95229328D01*
X139954912Y-95229273D01*
X139951968Y-95227013D01*
X139911965Y-95201304D01*
X139818345Y-95107684D01*
X139669124Y-95015643D01*
X139669119Y-95015641D01*
X139502697Y-94960494D01*
X139502690Y-94960493D01*
X139399986Y-94950000D01*
X139250000Y-94950000D01*
X139250000Y-97349999D01*
X139399972Y-97349999D01*
X139399986Y-97349998D01*
X139502697Y-97339505D01*
X139669119Y-97284358D01*
X139669124Y-97284356D01*
X139818342Y-97192317D01*
X139911964Y-97098695D01*
X139973287Y-97065210D01*
X140042979Y-97070194D01*
X140087327Y-97098695D01*
X140181344Y-97192712D01*
X140330666Y-97284814D01*
X140497203Y-97339999D01*
X140599991Y-97350500D01*
X141400008Y-97350499D01*
X141400016Y-97350498D01*
X141400019Y-97350498D01*
X141456302Y-97344748D01*
X141502797Y-97339999D01*
X141669334Y-97284814D01*
X141818656Y-97192712D01*
X141875052Y-97136315D01*
X141936371Y-97102833D01*
X142006063Y-97107817D01*
X142061997Y-97149688D01*
X142070116Y-97161998D01*
X142112117Y-97234744D01*
X142112124Y-97234756D01*
X142112132Y-97234767D01*
X142171585Y-97312246D01*
X142192459Y-97339449D01*
X142285551Y-97432541D01*
X142285555Y-97432544D01*
X142390232Y-97512867D01*
X142390236Y-97512869D01*
X142390243Y-97512875D01*
X142390250Y-97512879D01*
X142504248Y-97578696D01*
X142504249Y-97578697D01*
X142504252Y-97578698D01*
X142504257Y-97578701D01*
X142626171Y-97629200D01*
X142753338Y-97663275D01*
X142884174Y-97680500D01*
X142884181Y-97680500D01*
X143450000Y-97680500D01*
X143521940Y-97675355D01*
X143559259Y-97664396D01*
X143611841Y-97660636D01*
X143750000Y-97680500D01*
X143750003Y-97680500D01*
X144315819Y-97680500D01*
X144315826Y-97680500D01*
X144446662Y-97663275D01*
X144573829Y-97629200D01*
X144695743Y-97578701D01*
X144809757Y-97512875D01*
X144914449Y-97432541D01*
X144959504Y-97387486D01*
X146925001Y-97387486D01*
X146935494Y-97490197D01*
X146990641Y-97656619D01*
X146990643Y-97656624D01*
X147082684Y-97805845D01*
X147206654Y-97929815D01*
X147355875Y-98021856D01*
X147355880Y-98021858D01*
X147522302Y-98077005D01*
X147522309Y-98077006D01*
X147625019Y-98087499D01*
X147899999Y-98087499D01*
X148400000Y-98087499D01*
X148674972Y-98087499D01*
X148674986Y-98087498D01*
X148777697Y-98077005D01*
X148944119Y-98021858D01*
X148944124Y-98021856D01*
X149093345Y-97929815D01*
X149217315Y-97805845D01*
X149309356Y-97656624D01*
X149309358Y-97656619D01*
X149364505Y-97490197D01*
X149364506Y-97490190D01*
X149374999Y-97387486D01*
X149375000Y-97387473D01*
X149375000Y-97250000D01*
X148400000Y-97250000D01*
X148400000Y-98087499D01*
X147899999Y-98087499D01*
X147900000Y-98087498D01*
X147900000Y-97250000D01*
X146925001Y-97250000D01*
X146925001Y-97387486D01*
X144959504Y-97387486D01*
X145007541Y-97339449D01*
X145087875Y-97234757D01*
X145153701Y-97120743D01*
X145204200Y-96998829D01*
X145238275Y-96871662D01*
X145255500Y-96740826D01*
X145255500Y-96461517D01*
X145275185Y-96394478D01*
X145291815Y-96373840D01*
X146203837Y-95461817D01*
X146265160Y-95428333D01*
X146291518Y-95425499D01*
X146525002Y-95425499D01*
X146525008Y-95425499D01*
X146627797Y-95414999D01*
X146786814Y-95362305D01*
X146856637Y-95359904D01*
X146916680Y-95395635D01*
X146943520Y-95441007D01*
X146955310Y-95476585D01*
X146990186Y-95581834D01*
X147082288Y-95731156D01*
X147206344Y-95855212D01*
X147209628Y-95857237D01*
X147209653Y-95857253D01*
X147211445Y-95859246D01*
X147212011Y-95859693D01*
X147211934Y-95859789D01*
X147256379Y-95909199D01*
X147267603Y-95978161D01*
X147239761Y-96042244D01*
X147209665Y-96068326D01*
X147206660Y-96070179D01*
X147206655Y-96070183D01*
X147082684Y-96194154D01*
X146990643Y-96343375D01*
X146990641Y-96343380D01*
X146935494Y-96509802D01*
X146935493Y-96509809D01*
X146925000Y-96612513D01*
X146925000Y-96750000D01*
X149374999Y-96750000D01*
X149374999Y-96612528D01*
X149374998Y-96612513D01*
X149364505Y-96509802D01*
X149309358Y-96343380D01*
X149309356Y-96343375D01*
X149217315Y-96194154D01*
X149093344Y-96070183D01*
X149093341Y-96070181D01*
X149090339Y-96068329D01*
X149088713Y-96066521D01*
X149087677Y-96065702D01*
X149087817Y-96065524D01*
X149043617Y-96016380D01*
X149032397Y-95947417D01*
X149060243Y-95883336D01*
X149090344Y-95857254D01*
X149093656Y-95855212D01*
X149217712Y-95731156D01*
X149309814Y-95581834D01*
X149364999Y-95415297D01*
X149375500Y-95312509D01*
X149375499Y-94537492D01*
X149364999Y-94434703D01*
X149309814Y-94268166D01*
X149244836Y-94162820D01*
X149225886Y-94132096D01*
X149207446Y-94064704D01*
X149228369Y-93998041D01*
X149282011Y-93953271D01*
X149331425Y-93943000D01*
X150606007Y-93943000D01*
X151716256Y-93943000D01*
X151783295Y-93962685D01*
X151785137Y-93963891D01*
X151815821Y-93984394D01*
X151815822Y-93984394D01*
X151815823Y-93984395D01*
X151815825Y-93984396D01*
X151851822Y-93999306D01*
X151961503Y-94044737D01*
X152005847Y-94053557D01*
X152067756Y-94085941D01*
X152069336Y-94087493D01*
X152278181Y-94296338D01*
X152311666Y-94357661D01*
X152314500Y-94384019D01*
X152314500Y-95430001D01*
X152314501Y-95430019D01*
X152325000Y-95532796D01*
X152325001Y-95532799D01*
X152380185Y-95699331D01*
X152380187Y-95699336D01*
X152383042Y-95703965D01*
X152472288Y-95848656D01*
X152596344Y-95972712D01*
X152745666Y-96064814D01*
X152912203Y-96119999D01*
X153014991Y-96130500D01*
X154565008Y-96130499D01*
X154667797Y-96119999D01*
X154834334Y-96064814D01*
X154983656Y-95972712D01*
X155107712Y-95848656D01*
X155199814Y-95699334D01*
X155254999Y-95532797D01*
X155265500Y-95430009D01*
X155265499Y-94129992D01*
X155254999Y-94027203D01*
X155199814Y-93860666D01*
X155107712Y-93711344D01*
X154983656Y-93587288D01*
X154834334Y-93495186D01*
X154834332Y-93495185D01*
X154828440Y-93491551D01*
X154781716Y-93439603D01*
X154770493Y-93370641D01*
X154798337Y-93306558D01*
X154805856Y-93298330D01*
X154944728Y-93159458D01*
X155069620Y-92987557D01*
X155166095Y-92798217D01*
X155231757Y-92596129D01*
X155231757Y-92596126D01*
X155242231Y-92530000D01*
X154194146Y-92530000D01*
X154232630Y-92463343D01*
X154265000Y-92342535D01*
X154265000Y-92217465D01*
X154232630Y-92096657D01*
X154194146Y-92030000D01*
X155242231Y-92030000D01*
X155231757Y-91963873D01*
X155231757Y-91963870D01*
X155166095Y-91761782D01*
X155069620Y-91572442D01*
X154944727Y-91400540D01*
X154944723Y-91400535D01*
X154794464Y-91250276D01*
X154794459Y-91250272D01*
X154629781Y-91130627D01*
X154587115Y-91075297D01*
X154581136Y-91005684D01*
X154613741Y-90943889D01*
X154629776Y-90929994D01*
X154794792Y-90810104D01*
X154945104Y-90659792D01*
X154945106Y-90659788D01*
X154945109Y-90659786D01*
X155070048Y-90487820D01*
X155070047Y-90487820D01*
X155070051Y-90487816D01*
X155166557Y-90298412D01*
X155232246Y-90096243D01*
X155265500Y-89886287D01*
X155265500Y-89673713D01*
X155232246Y-89463757D01*
X155166557Y-89261588D01*
X155070051Y-89072184D01*
X155070049Y-89072181D01*
X155070048Y-89072179D01*
X154945109Y-88900213D01*
X154794786Y-88749890D01*
X154622820Y-88624951D01*
X154433414Y-88528444D01*
X154433413Y-88528443D01*
X154433412Y-88528443D01*
X154231243Y-88462754D01*
X154231241Y-88462753D01*
X154231240Y-88462753D01*
X154069957Y-88437208D01*
X154021287Y-88429500D01*
X153558713Y-88429500D01*
X153510042Y-88437208D01*
X153348760Y-88462753D01*
X153348757Y-88462754D01*
X153213614Y-88506665D01*
X153146585Y-88528444D01*
X152957179Y-88624951D01*
X152785213Y-88749890D01*
X152634890Y-88900213D01*
X152509951Y-89072179D01*
X152413444Y-89261585D01*
X152347753Y-89463760D01*
X152318385Y-89649184D01*
X152314500Y-89673713D01*
X152314500Y-89886287D01*
X152316674Y-89900013D01*
X152347753Y-90096240D01*
X152395476Y-90243116D01*
X152395910Y-90258328D01*
X152401229Y-90272588D01*
X152396887Y-90292543D01*
X152397471Y-90312957D01*
X152389382Y-90327043D01*
X152386377Y-90340861D01*
X152365226Y-90369115D01*
X152214973Y-90519368D01*
X152153650Y-90552853D01*
X152151485Y-90553304D01*
X152116507Y-90560261D01*
X152116498Y-90560264D01*
X151970825Y-90620603D01*
X151970820Y-90620606D01*
X151970077Y-90621103D01*
X151969628Y-90621243D01*
X151965454Y-90623475D01*
X151965030Y-90622683D01*
X151903400Y-90641980D01*
X151901188Y-90642000D01*
X149300257Y-90642000D01*
X149233218Y-90622315D01*
X149187463Y-90569511D01*
X149177519Y-90500353D01*
X149194718Y-90452904D01*
X149284810Y-90306840D01*
X149284814Y-90306834D01*
X149339999Y-90140297D01*
X149350500Y-90037509D01*
X149350499Y-89262492D01*
X149350406Y-89261585D01*
X149339999Y-89159703D01*
X149339998Y-89159700D01*
X149333383Y-89139738D01*
X149284814Y-88993166D01*
X149192712Y-88843844D01*
X149068656Y-88719788D01*
X149065342Y-88717743D01*
X149063546Y-88715748D01*
X149062989Y-88715307D01*
X149063064Y-88715211D01*
X149018618Y-88665797D01*
X149007397Y-88596834D01*
X149035240Y-88532752D01*
X149065348Y-88506665D01*
X149068342Y-88504818D01*
X149192315Y-88380845D01*
X149284356Y-88231624D01*
X149284358Y-88231619D01*
X149339505Y-88065197D01*
X149339506Y-88065190D01*
X149349999Y-87962486D01*
X149350000Y-87962473D01*
X149350000Y-87825000D01*
X146900001Y-87825000D01*
X146900001Y-87962486D01*
X146910494Y-88065197D01*
X146965641Y-88231619D01*
X146965643Y-88231624D01*
X147057684Y-88380845D01*
X147181655Y-88504816D01*
X147181659Y-88504819D01*
X147184656Y-88506668D01*
X147186279Y-88508472D01*
X147187323Y-88509298D01*
X147187181Y-88509476D01*
X147231381Y-88558616D01*
X147242602Y-88627579D01*
X147214759Y-88691661D01*
X147184661Y-88717741D01*
X147181349Y-88719783D01*
X147181343Y-88719788D01*
X147057289Y-88843842D01*
X146965187Y-88993163D01*
X146965186Y-88993166D01*
X146929207Y-89101745D01*
X146928459Y-89104001D01*
X146888686Y-89161445D01*
X146824170Y-89188268D01*
X146771749Y-89182702D01*
X146748506Y-89175000D01*
X146627797Y-89135001D01*
X146627795Y-89135000D01*
X146525016Y-89124500D01*
X146525009Y-89124500D01*
X146266519Y-89124500D01*
X146199480Y-89104815D01*
X146178838Y-89088181D01*
X145266819Y-88176162D01*
X145233334Y-88114839D01*
X145230500Y-88088481D01*
X145230500Y-87809180D01*
X145230499Y-87809166D01*
X145223485Y-87755888D01*
X145213275Y-87678338D01*
X145179200Y-87551171D01*
X145128701Y-87429257D01*
X145128698Y-87429252D01*
X145128697Y-87429249D01*
X145128696Y-87429248D01*
X145062879Y-87315250D01*
X145062875Y-87315243D01*
X144982541Y-87210551D01*
X144959503Y-87187513D01*
X146900000Y-87187513D01*
X146900000Y-87325000D01*
X147875000Y-87325000D01*
X148375000Y-87325000D01*
X149349999Y-87325000D01*
X149349999Y-87187528D01*
X149349998Y-87187513D01*
X149339505Y-87084802D01*
X149284358Y-86918380D01*
X149284356Y-86918375D01*
X149192315Y-86769154D01*
X149068345Y-86645184D01*
X148919124Y-86553143D01*
X148919119Y-86553141D01*
X148752697Y-86497994D01*
X148752690Y-86497993D01*
X148649986Y-86487500D01*
X148375000Y-86487500D01*
X148375000Y-87325000D01*
X147875000Y-87325000D01*
X147875000Y-86487500D01*
X147600029Y-86487500D01*
X147600012Y-86487501D01*
X147497302Y-86497994D01*
X147330880Y-86553141D01*
X147330875Y-86553143D01*
X147181654Y-86645184D01*
X147057684Y-86769154D01*
X146965643Y-86918375D01*
X146965641Y-86918380D01*
X146910494Y-87084802D01*
X146910493Y-87084809D01*
X146900000Y-87187513D01*
X144959503Y-87187513D01*
X144889449Y-87117459D01*
X144889444Y-87117455D01*
X144784767Y-87037132D01*
X144784749Y-87037120D01*
X144670751Y-86971303D01*
X144670750Y-86971302D01*
X144639836Y-86958497D01*
X144548829Y-86920800D01*
X144421662Y-86886725D01*
X144421661Y-86886724D01*
X144421658Y-86886724D01*
X144290833Y-86869500D01*
X144290826Y-86869500D01*
X143725000Y-86869500D01*
X143724997Y-86869500D01*
X143653061Y-86874644D01*
X143653056Y-86874645D01*
X143615735Y-86885603D01*
X143563158Y-86889363D01*
X143425001Y-86869500D01*
X143425000Y-86869500D01*
X143124500Y-86869500D01*
X143057461Y-86849815D01*
X143011706Y-86797011D01*
X143000500Y-86745500D01*
X143000500Y-86646155D01*
X143000499Y-86646153D01*
X142981998Y-86553143D01*
X142969737Y-86491503D01*
X142968079Y-86487500D01*
X142909397Y-86345827D01*
X142909390Y-86345814D01*
X142821789Y-86214711D01*
X142821786Y-86214707D01*
X142710292Y-86103213D01*
X142710288Y-86103210D01*
X142579185Y-86015609D01*
X142579172Y-86015602D01*
X142434814Y-85955808D01*
X142394585Y-85928928D01*
X142203224Y-85737566D01*
X142131285Y-85665627D01*
X142097800Y-85604304D01*
X142102784Y-85534612D01*
X142131287Y-85490263D01*
X142149249Y-85472302D01*
X142258931Y-85321338D01*
X142343646Y-85155074D01*
X142397332Y-84989845D01*
X142436769Y-84932170D01*
X142501128Y-84904971D01*
X142569974Y-84916885D01*
X142621450Y-84964129D01*
X142633194Y-84989845D01*
X142686819Y-85154884D01*
X142771498Y-85321077D01*
X142787855Y-85343590D01*
X143293871Y-84837574D01*
X143309755Y-84896853D01*
X143376898Y-85013147D01*
X143471853Y-85108102D01*
X143588147Y-85175245D01*
X143647424Y-85191128D01*
X143141408Y-85697143D01*
X143141408Y-85697144D01*
X143163918Y-85713499D01*
X143330115Y-85798180D01*
X143507515Y-85855821D01*
X143691739Y-85885000D01*
X143878261Y-85885000D01*
X144062484Y-85855821D01*
X144239884Y-85798180D01*
X144406075Y-85713502D01*
X144428590Y-85697143D01*
X144428591Y-85697143D01*
X143922575Y-85191127D01*
X143981853Y-85175245D01*
X144098147Y-85108102D01*
X144193102Y-85013147D01*
X144260245Y-84896853D01*
X144276128Y-84837575D01*
X144782143Y-85343591D01*
X144782143Y-85343590D01*
X144798502Y-85321075D01*
X144883180Y-85154884D01*
X144936805Y-84989845D01*
X144976242Y-84932170D01*
X145040601Y-84904971D01*
X145109447Y-84916885D01*
X145160923Y-84964129D01*
X145172667Y-84989845D01*
X145226352Y-85155071D01*
X145226354Y-85155074D01*
X145311069Y-85321338D01*
X145420751Y-85472302D01*
X145552698Y-85604249D01*
X145703662Y-85713931D01*
X145869926Y-85798646D01*
X145869928Y-85798647D01*
X146047391Y-85856308D01*
X146047392Y-85856308D01*
X146047395Y-85856309D01*
X146231699Y-85885500D01*
X146231700Y-85885500D01*
X146418300Y-85885500D01*
X146418301Y-85885500D01*
X146602605Y-85856309D01*
X146602608Y-85856308D01*
X146602609Y-85856308D01*
X146780071Y-85798647D01*
X146780071Y-85798646D01*
X146780074Y-85798646D01*
X146946338Y-85713931D01*
X147097302Y-85604249D01*
X147229249Y-85472302D01*
X147338931Y-85321338D01*
X147423646Y-85155074D01*
X147438908Y-85108102D01*
X147477069Y-84990656D01*
X147516506Y-84932980D01*
X147580865Y-84905782D01*
X147649711Y-84917697D01*
X147701187Y-84964941D01*
X147712931Y-84990656D01*
X147766352Y-85155071D01*
X147766354Y-85155074D01*
X147851069Y-85321338D01*
X147960751Y-85472302D01*
X148092698Y-85604249D01*
X148243662Y-85713931D01*
X148409926Y-85798646D01*
X148409928Y-85798647D01*
X148587391Y-85856308D01*
X148587392Y-85856308D01*
X148587395Y-85856309D01*
X148771699Y-85885500D01*
X148771700Y-85885500D01*
X148958300Y-85885500D01*
X148958301Y-85885500D01*
X149142605Y-85856309D01*
X149142608Y-85856308D01*
X149142609Y-85856308D01*
X149320071Y-85798647D01*
X149320071Y-85798646D01*
X149320074Y-85798646D01*
X149486338Y-85713931D01*
X149637302Y-85604249D01*
X149769249Y-85472302D01*
X149878931Y-85321338D01*
X149963646Y-85155074D01*
X149977569Y-85112221D01*
X150017005Y-85054548D01*
X150081363Y-85027348D01*
X150150210Y-85039262D01*
X150201686Y-85086505D01*
X150219500Y-85150540D01*
X150219500Y-85432869D01*
X150219501Y-85432876D01*
X150225908Y-85492483D01*
X150276202Y-85627328D01*
X150276206Y-85627335D01*
X150362452Y-85742544D01*
X150362455Y-85742547D01*
X150477664Y-85828793D01*
X150477671Y-85828797D01*
X150612517Y-85879091D01*
X150612516Y-85879091D01*
X150619444Y-85879835D01*
X150672127Y-85885500D01*
X152137872Y-85885499D01*
X152197483Y-85879091D01*
X152332331Y-85828796D01*
X152447546Y-85742546D01*
X152533796Y-85627331D01*
X152584091Y-85492483D01*
X152590500Y-85432873D01*
X152590499Y-83967128D01*
X152587341Y-83937753D01*
X152599747Y-83868995D01*
X152647358Y-83817858D01*
X152710631Y-83800500D01*
X161225500Y-83800500D01*
X161292539Y-83820185D01*
X161338294Y-83872989D01*
X161349500Y-83924500D01*
X161349500Y-100675500D01*
X161329815Y-100742539D01*
X161277011Y-100788294D01*
X161225500Y-100799500D01*
X152708857Y-100799500D01*
X152641818Y-100779815D01*
X152596063Y-100727011D01*
X152586209Y-100666228D01*
X152585564Y-100666194D01*
X152585500Y-100666194D01*
X152585499Y-100666190D01*
X152585322Y-100666181D01*
X152585497Y-100662900D01*
X152585500Y-100662873D01*
X152585499Y-99197128D01*
X152579091Y-99137517D01*
X152528796Y-99002669D01*
X152528795Y-99002668D01*
X152528793Y-99002664D01*
X152442547Y-98887455D01*
X152442544Y-98887452D01*
X152327335Y-98801206D01*
X152327328Y-98801202D01*
X152192482Y-98750908D01*
X152192483Y-98750908D01*
X152132883Y-98744501D01*
X152132881Y-98744500D01*
X152132873Y-98744500D01*
X152132864Y-98744500D01*
X150667129Y-98744500D01*
X150667123Y-98744501D01*
X150607516Y-98750908D01*
X150472671Y-98801202D01*
X150472664Y-98801206D01*
X150357455Y-98887452D01*
X150357452Y-98887455D01*
X150271206Y-99002664D01*
X150271202Y-99002671D01*
X150220908Y-99137517D01*
X150218739Y-99157696D01*
X150214501Y-99197123D01*
X150214500Y-99197135D01*
X150214500Y-99481080D01*
X150194815Y-99548119D01*
X150142011Y-99593874D01*
X150072853Y-99603818D01*
X150009297Y-99574793D01*
X149972569Y-99519398D01*
X149958180Y-99475115D01*
X149873499Y-99308918D01*
X149857144Y-99286408D01*
X149857143Y-99286408D01*
X149351127Y-99792423D01*
X149335245Y-99733147D01*
X149268102Y-99616853D01*
X149173147Y-99521898D01*
X149056853Y-99454755D01*
X148997574Y-99438871D01*
X149503590Y-98932855D01*
X149503590Y-98932854D01*
X149481077Y-98916498D01*
X149314884Y-98831819D01*
X149137484Y-98774178D01*
X148953261Y-98745000D01*
X148766739Y-98745000D01*
X148582515Y-98774178D01*
X148405115Y-98831819D01*
X148238927Y-98916495D01*
X148238923Y-98916498D01*
X148216408Y-98932854D01*
X148216408Y-98932856D01*
X148722425Y-99438871D01*
X148663147Y-99454755D01*
X148546853Y-99521898D01*
X148451898Y-99616853D01*
X148384755Y-99733147D01*
X148368871Y-99792424D01*
X147862855Y-99286408D01*
X147862854Y-99286408D01*
X147846498Y-99308923D01*
X147846495Y-99308927D01*
X147761819Y-99475113D01*
X147708194Y-99640155D01*
X147668756Y-99697830D01*
X147604397Y-99725028D01*
X147535551Y-99713113D01*
X147484075Y-99665869D01*
X147472332Y-99640154D01*
X147418647Y-99474928D01*
X147418645Y-99474925D01*
X147418645Y-99474924D01*
X147333931Y-99308662D01*
X147224249Y-99157698D01*
X147092302Y-99025751D01*
X146941338Y-98916069D01*
X146775074Y-98831354D01*
X146775071Y-98831352D01*
X146597608Y-98773691D01*
X146453759Y-98750908D01*
X146413301Y-98744500D01*
X146226699Y-98744500D01*
X146165264Y-98754230D01*
X146042393Y-98773691D01*
X146042390Y-98773691D01*
X145864928Y-98831352D01*
X145864925Y-98831354D01*
X145698661Y-98916069D01*
X145612531Y-98978646D01*
X145547698Y-99025751D01*
X145547696Y-99025753D01*
X145547695Y-99025753D01*
X145415753Y-99157695D01*
X145415753Y-99157696D01*
X145415751Y-99157698D01*
X145387103Y-99197129D01*
X145306069Y-99308661D01*
X145221354Y-99474925D01*
X145221352Y-99474928D01*
X145167931Y-99639343D01*
X145128493Y-99697019D01*
X145064135Y-99724217D01*
X144995288Y-99712302D01*
X144943813Y-99665058D01*
X144932069Y-99639343D01*
X144878647Y-99474928D01*
X144878645Y-99474925D01*
X144878645Y-99474924D01*
X144793931Y-99308662D01*
X144684249Y-99157698D01*
X144552302Y-99025751D01*
X144401338Y-98916069D01*
X144235074Y-98831354D01*
X144235071Y-98831352D01*
X144057608Y-98773691D01*
X143913759Y-98750908D01*
X143873301Y-98744500D01*
X143686699Y-98744500D01*
X143625264Y-98754230D01*
X143502393Y-98773691D01*
X143502390Y-98773691D01*
X143324928Y-98831352D01*
X143324925Y-98831354D01*
X143158661Y-98916069D01*
X143072531Y-98978646D01*
X143007698Y-99025751D01*
X143007696Y-99025753D01*
X143007695Y-99025753D01*
X142875753Y-99157695D01*
X142875753Y-99157696D01*
X142875751Y-99157698D01*
X142847103Y-99197129D01*
X142766069Y-99308661D01*
X142751439Y-99337374D01*
X142711888Y-99381883D01*
X142712002Y-99382021D01*
X142711130Y-99382736D01*
X142709853Y-99384174D01*
X142707299Y-99385880D01*
X142707293Y-99385885D01*
X142609718Y-99483460D01*
X142609717Y-99483460D01*
X142571231Y-99541058D01*
X142517618Y-99585863D01*
X142448293Y-99594569D01*
X142385266Y-99564413D01*
X142350199Y-99510484D01*
X142338646Y-99474926D01*
X142253931Y-99308662D01*
X142144249Y-99157698D01*
X142012302Y-99025751D01*
X141861338Y-98916069D01*
X141695074Y-98831354D01*
X141695071Y-98831352D01*
X141517608Y-98773691D01*
X141373759Y-98750908D01*
X141333301Y-98744500D01*
X141146699Y-98744500D01*
X141085264Y-98754230D01*
X140962393Y-98773691D01*
X140962390Y-98773691D01*
X140784928Y-98831352D01*
X140784925Y-98831354D01*
X140618661Y-98916069D01*
X140532531Y-98978646D01*
X140467698Y-99025751D01*
X140467696Y-99025753D01*
X140467695Y-99025753D01*
X140335753Y-99157695D01*
X140335753Y-99157696D01*
X140335751Y-99157698D01*
X140307103Y-99197129D01*
X140226069Y-99308661D01*
X140141354Y-99474925D01*
X140141352Y-99474928D01*
X140087931Y-99639343D01*
X140048493Y-99697019D01*
X139984135Y-99724217D01*
X139915288Y-99712302D01*
X139863813Y-99665058D01*
X139852069Y-99639343D01*
X139798647Y-99474928D01*
X139798645Y-99474925D01*
X139798645Y-99474924D01*
X139713931Y-99308662D01*
X139604249Y-99157698D01*
X139472302Y-99025751D01*
X139321338Y-98916069D01*
X139155074Y-98831354D01*
X139155071Y-98831352D01*
X138977608Y-98773691D01*
X138833759Y-98750908D01*
X138793301Y-98744500D01*
X138606699Y-98744500D01*
X138545264Y-98754230D01*
X138422393Y-98773691D01*
X138422390Y-98773691D01*
X138244928Y-98831352D01*
X138244925Y-98831354D01*
X138078661Y-98916069D01*
X137992531Y-98978646D01*
X137927698Y-99025751D01*
X137927696Y-99025753D01*
X137927695Y-99025753D01*
X137795753Y-99157695D01*
X137795753Y-99157696D01*
X137795751Y-99157698D01*
X137767103Y-99197129D01*
X137686069Y-99308661D01*
X137601354Y-99474925D01*
X137601352Y-99474928D01*
X137547931Y-99639343D01*
X137508493Y-99697019D01*
X137444135Y-99724217D01*
X137375288Y-99712302D01*
X137323813Y-99665058D01*
X137312069Y-99639343D01*
X137258647Y-99474928D01*
X137258645Y-99474925D01*
X137258645Y-99474924D01*
X137173931Y-99308662D01*
X137064249Y-99157698D01*
X136932302Y-99025751D01*
X136781338Y-98916069D01*
X136615074Y-98831354D01*
X136615071Y-98831352D01*
X136437608Y-98773691D01*
X136293759Y-98750908D01*
X136253301Y-98744500D01*
X136066699Y-98744500D01*
X136005264Y-98754230D01*
X135882393Y-98773691D01*
X135882390Y-98773691D01*
X135704928Y-98831352D01*
X135704925Y-98831354D01*
X135538661Y-98916069D01*
X135452531Y-98978646D01*
X135387698Y-99025751D01*
X135387696Y-99025753D01*
X135387695Y-99025753D01*
X135255753Y-99157695D01*
X135255753Y-99157696D01*
X135255751Y-99157698D01*
X135227103Y-99197129D01*
X135146069Y-99308661D01*
X135061354Y-99474925D01*
X135061352Y-99474928D01*
X135007931Y-99639343D01*
X134968493Y-99697019D01*
X134904135Y-99724217D01*
X134835288Y-99712302D01*
X134783813Y-99665058D01*
X134772069Y-99639343D01*
X134718647Y-99474928D01*
X134718645Y-99474925D01*
X134718645Y-99474924D01*
X134633931Y-99308662D01*
X134524249Y-99157698D01*
X134392302Y-99025751D01*
X134241338Y-98916069D01*
X134075074Y-98831354D01*
X134075071Y-98831352D01*
X133897608Y-98773691D01*
X133753759Y-98750908D01*
X133713301Y-98744500D01*
X133526699Y-98744500D01*
X133465264Y-98754230D01*
X133342393Y-98773691D01*
X133342390Y-98773691D01*
X133164928Y-98831352D01*
X133164925Y-98831354D01*
X132998661Y-98916069D01*
X132912531Y-98978646D01*
X132847698Y-99025751D01*
X132847696Y-99025753D01*
X132847695Y-99025753D01*
X132715753Y-99157695D01*
X132715753Y-99157696D01*
X132715751Y-99157698D01*
X132687103Y-99197129D01*
X132606069Y-99308661D01*
X132521354Y-99474925D01*
X132521352Y-99474928D01*
X132467931Y-99639343D01*
X132428493Y-99697019D01*
X132364135Y-99724217D01*
X132295288Y-99712302D01*
X132243813Y-99665058D01*
X132232069Y-99639343D01*
X132178647Y-99474928D01*
X132178645Y-99474925D01*
X132178645Y-99474924D01*
X132093931Y-99308662D01*
X131984249Y-99157698D01*
X131852302Y-99025751D01*
X131701338Y-98916069D01*
X131535074Y-98831354D01*
X131535071Y-98831352D01*
X131357608Y-98773691D01*
X131213759Y-98750908D01*
X131173301Y-98744500D01*
X130986699Y-98744500D01*
X130925264Y-98754230D01*
X130802393Y-98773691D01*
X130802390Y-98773691D01*
X130624928Y-98831352D01*
X130624925Y-98831354D01*
X130458661Y-98916069D01*
X130372531Y-98978646D01*
X130307698Y-99025751D01*
X130307696Y-99025753D01*
X130307695Y-99025753D01*
X130175753Y-99157695D01*
X130175753Y-99157696D01*
X130175751Y-99157698D01*
X130147103Y-99197129D01*
X130066069Y-99308661D01*
X129981354Y-99474925D01*
X129981352Y-99474928D01*
X129927931Y-99639343D01*
X129888493Y-99697019D01*
X129824135Y-99724217D01*
X129755288Y-99712302D01*
X129703813Y-99665058D01*
X129692069Y-99639343D01*
X129638647Y-99474928D01*
X129638645Y-99474925D01*
X129638645Y-99474924D01*
X129553931Y-99308662D01*
X129444249Y-99157698D01*
X129312302Y-99025751D01*
X129161338Y-98916069D01*
X128995074Y-98831354D01*
X128995071Y-98831352D01*
X128817608Y-98773691D01*
X128673759Y-98750908D01*
X128633301Y-98744500D01*
X128446699Y-98744500D01*
X128385264Y-98754230D01*
X128262393Y-98773691D01*
X128262390Y-98773691D01*
X128084928Y-98831352D01*
X128084925Y-98831354D01*
X127918661Y-98916069D01*
X127832531Y-98978646D01*
X127767698Y-99025751D01*
X127767696Y-99025753D01*
X127767695Y-99025753D01*
X127635753Y-99157695D01*
X127635753Y-99157696D01*
X127635751Y-99157698D01*
X127607103Y-99197129D01*
X127526069Y-99308661D01*
X127441354Y-99474925D01*
X127441352Y-99474928D01*
X127387931Y-99639343D01*
X127348493Y-99697019D01*
X127284135Y-99724217D01*
X127215288Y-99712302D01*
X127163813Y-99665058D01*
X127152069Y-99639343D01*
X127098647Y-99474928D01*
X127098645Y-99474925D01*
X127098645Y-99474924D01*
X127013931Y-99308662D01*
X126904249Y-99157698D01*
X126772302Y-99025751D01*
X126621338Y-98916069D01*
X126455074Y-98831354D01*
X126455071Y-98831352D01*
X126277608Y-98773691D01*
X126133759Y-98750908D01*
X126093301Y-98744500D01*
X125906699Y-98744500D01*
X125845264Y-98754230D01*
X125722393Y-98773691D01*
X125722390Y-98773691D01*
X125544928Y-98831352D01*
X125544925Y-98831354D01*
X125378661Y-98916069D01*
X125292531Y-98978646D01*
X125227698Y-99025751D01*
X125227696Y-99025753D01*
X125227695Y-99025753D01*
X125095753Y-99157695D01*
X125095753Y-99157696D01*
X125095751Y-99157698D01*
X125067103Y-99197129D01*
X124986069Y-99308661D01*
X124901354Y-99474925D01*
X124901352Y-99474928D01*
X124847931Y-99639343D01*
X124808493Y-99697019D01*
X124744135Y-99724217D01*
X124675288Y-99712302D01*
X124623813Y-99665058D01*
X124612069Y-99639343D01*
X124558647Y-99474928D01*
X124558645Y-99474925D01*
X124558645Y-99474924D01*
X124473931Y-99308662D01*
X124364249Y-99157698D01*
X124232302Y-99025751D01*
X124081338Y-98916069D01*
X123915074Y-98831354D01*
X123915071Y-98831352D01*
X123737608Y-98773691D01*
X123593759Y-98750908D01*
X123553301Y-98744500D01*
X123366699Y-98744500D01*
X123305264Y-98754230D01*
X123182393Y-98773691D01*
X123182390Y-98773691D01*
X123004928Y-98831352D01*
X123004925Y-98831354D01*
X122838661Y-98916069D01*
X122752531Y-98978646D01*
X122687698Y-99025751D01*
X122687696Y-99025753D01*
X122687695Y-99025753D01*
X122555753Y-99157695D01*
X122555753Y-99157696D01*
X122555751Y-99157698D01*
X122527103Y-99197129D01*
X122446069Y-99308661D01*
X122361354Y-99474925D01*
X122361352Y-99474928D01*
X122307931Y-99639343D01*
X122268493Y-99697019D01*
X122204135Y-99724217D01*
X122135288Y-99712302D01*
X122083813Y-99665058D01*
X122072069Y-99639343D01*
X122018647Y-99474928D01*
X122018645Y-99474925D01*
X122018645Y-99474924D01*
X121933931Y-99308662D01*
X121824249Y-99157698D01*
X121692302Y-99025751D01*
X121541338Y-98916069D01*
X121375074Y-98831354D01*
X121375071Y-98831352D01*
X121197608Y-98773691D01*
X121053759Y-98750908D01*
X121013301Y-98744500D01*
X120826699Y-98744500D01*
X120765264Y-98754230D01*
X120642393Y-98773691D01*
X120642390Y-98773691D01*
X120464928Y-98831352D01*
X120464925Y-98831354D01*
X120298661Y-98916069D01*
X120212531Y-98978646D01*
X120147698Y-99025751D01*
X120147696Y-99025753D01*
X120147695Y-99025753D01*
X120015753Y-99157695D01*
X120015753Y-99157696D01*
X120015751Y-99157698D01*
X119987103Y-99197129D01*
X119906069Y-99308661D01*
X119821354Y-99474925D01*
X119821352Y-99474928D01*
X119767931Y-99639343D01*
X119728493Y-99697019D01*
X119664135Y-99724217D01*
X119595288Y-99712302D01*
X119543813Y-99665058D01*
X119532069Y-99639343D01*
X119478647Y-99474928D01*
X119478645Y-99474925D01*
X119478645Y-99474924D01*
X119393931Y-99308662D01*
X119284249Y-99157698D01*
X119152302Y-99025751D01*
X119001338Y-98916069D01*
X118835074Y-98831354D01*
X118835071Y-98831352D01*
X118657608Y-98773691D01*
X118513759Y-98750908D01*
X118473301Y-98744500D01*
X118286699Y-98744500D01*
X118225264Y-98754230D01*
X118102393Y-98773691D01*
X118102390Y-98773691D01*
X117924928Y-98831352D01*
X117924925Y-98831354D01*
X117758661Y-98916069D01*
X117672531Y-98978646D01*
X117607698Y-99025751D01*
X117607696Y-99025753D01*
X117607695Y-99025753D01*
X117475753Y-99157695D01*
X117475753Y-99157696D01*
X117475751Y-99157698D01*
X117447103Y-99197129D01*
X117366069Y-99308661D01*
X117281354Y-99474925D01*
X117281352Y-99474928D01*
X117227931Y-99639343D01*
X117188493Y-99697019D01*
X117124135Y-99724217D01*
X117055288Y-99712302D01*
X117003813Y-99665058D01*
X116992069Y-99639343D01*
X116938647Y-99474928D01*
X116938645Y-99474925D01*
X116938645Y-99474924D01*
X116853931Y-99308662D01*
X116744249Y-99157698D01*
X116612302Y-99025751D01*
X116461338Y-98916069D01*
X116295074Y-98831354D01*
X116295071Y-98831352D01*
X116117608Y-98773691D01*
X115973759Y-98750908D01*
X115933301Y-98744500D01*
X115746699Y-98744500D01*
X115685264Y-98754230D01*
X115562393Y-98773691D01*
X115562390Y-98773691D01*
X115384928Y-98831352D01*
X115384925Y-98831354D01*
X115218661Y-98916069D01*
X115132531Y-98978646D01*
X115067698Y-99025751D01*
X115067696Y-99025753D01*
X115067695Y-99025753D01*
X114935753Y-99157695D01*
X114935753Y-99157696D01*
X114935751Y-99157698D01*
X114907103Y-99197129D01*
X114826069Y-99308661D01*
X114741354Y-99474925D01*
X114741352Y-99474928D01*
X114683691Y-99652390D01*
X114683691Y-99652393D01*
X114654500Y-99836699D01*
X114654500Y-100023300D01*
X114683691Y-100207606D01*
X114683691Y-100207609D01*
X114741352Y-100385071D01*
X114741354Y-100385074D01*
X114826071Y-100551342D01*
X114863323Y-100602614D01*
X114886804Y-100668420D01*
X114870979Y-100736474D01*
X114820874Y-100785169D01*
X114763006Y-100799500D01*
X112474500Y-100799500D01*
X112407461Y-100779815D01*
X112361706Y-100727011D01*
X112350500Y-100675500D01*
X112350500Y-87477135D01*
X113674500Y-87477135D01*
X113674500Y-89272870D01*
X113674501Y-89272876D01*
X113680908Y-89332483D01*
X113731202Y-89467328D01*
X113731206Y-89467335D01*
X113817452Y-89582544D01*
X113817455Y-89582547D01*
X113932664Y-89668793D01*
X113932671Y-89668797D01*
X114064082Y-89717810D01*
X114120016Y-89759681D01*
X114144433Y-89825145D01*
X114129582Y-89893418D01*
X114108431Y-89921673D01*
X113994889Y-90035215D01*
X113869951Y-90207179D01*
X113773444Y-90396585D01*
X113707753Y-90598760D01*
X113674500Y-90808713D01*
X113674500Y-91021286D01*
X113705548Y-91217319D01*
X113707754Y-91231243D01*
X113773076Y-91432283D01*
X113773444Y-91433414D01*
X113869951Y-91622820D01*
X113994890Y-91794786D01*
X114145213Y-91945109D01*
X114317182Y-92070050D01*
X114325946Y-92074516D01*
X114376742Y-92122491D01*
X114393536Y-92190312D01*
X114370998Y-92256447D01*
X114325946Y-92295484D01*
X114317182Y-92299949D01*
X114145213Y-92424890D01*
X113994890Y-92575213D01*
X113869951Y-92747179D01*
X113773444Y-92936585D01*
X113707753Y-93138760D01*
X113674500Y-93348713D01*
X113674500Y-93561286D01*
X113698266Y-93711342D01*
X113707754Y-93771243D01*
X113769875Y-93962432D01*
X113773444Y-93973414D01*
X113869951Y-94162820D01*
X113994890Y-94334786D01*
X114145213Y-94485109D01*
X114317182Y-94610050D01*
X114325946Y-94614516D01*
X114376742Y-94662491D01*
X114393536Y-94730312D01*
X114370998Y-94796447D01*
X114325946Y-94835484D01*
X114317182Y-94839949D01*
X114145213Y-94964890D01*
X113994890Y-95115213D01*
X113869951Y-95287179D01*
X113773444Y-95476585D01*
X113707753Y-95678760D01*
X113692173Y-95777128D01*
X113674500Y-95888713D01*
X113674500Y-96101287D01*
X113707754Y-96311243D01*
X113772272Y-96509809D01*
X113773444Y-96513414D01*
X113869951Y-96702820D01*
X113994890Y-96874786D01*
X114145213Y-97025109D01*
X114317179Y-97150048D01*
X114317181Y-97150049D01*
X114317184Y-97150051D01*
X114506588Y-97246557D01*
X114708757Y-97312246D01*
X114918713Y-97345500D01*
X114918714Y-97345500D01*
X115131286Y-97345500D01*
X115131287Y-97345500D01*
X115341243Y-97312246D01*
X115543412Y-97246557D01*
X115732816Y-97150051D01*
X115790947Y-97107817D01*
X115904786Y-97025109D01*
X115904788Y-97025106D01*
X115904792Y-97025104D01*
X116055104Y-96874792D01*
X116055106Y-96874788D01*
X116055109Y-96874786D01*
X116180048Y-96702820D01*
X116180047Y-96702820D01*
X116180051Y-96702816D01*
X116276557Y-96513412D01*
X116342246Y-96311243D01*
X116375500Y-96101287D01*
X116375500Y-95888713D01*
X116342246Y-95678757D01*
X116276557Y-95476588D01*
X116180051Y-95287184D01*
X116180049Y-95287181D01*
X116180048Y-95287179D01*
X116055109Y-95115213D01*
X115904786Y-94964890D01*
X115732820Y-94839951D01*
X115732115Y-94839591D01*
X115724054Y-94835485D01*
X115673259Y-94787512D01*
X115656463Y-94719692D01*
X115678999Y-94653556D01*
X115724054Y-94614515D01*
X115732816Y-94610051D01*
X115831538Y-94538326D01*
X115904786Y-94485109D01*
X115904788Y-94485106D01*
X115904792Y-94485104D01*
X116055104Y-94334792D01*
X116055106Y-94334788D01*
X116055109Y-94334786D01*
X116180048Y-94162820D01*
X116180047Y-94162820D01*
X116180051Y-94162816D01*
X116276557Y-93973412D01*
X116342246Y-93771243D01*
X116375500Y-93561287D01*
X116375500Y-93348713D01*
X116342246Y-93138757D01*
X116276557Y-92936588D01*
X116180051Y-92747184D01*
X116180049Y-92747181D01*
X116180048Y-92747179D01*
X116055109Y-92575213D01*
X115904786Y-92424890D01*
X115732820Y-92299951D01*
X115731366Y-92299210D01*
X115724054Y-92295485D01*
X115673259Y-92247512D01*
X115656463Y-92179692D01*
X115678999Y-92113556D01*
X115724054Y-92074515D01*
X115732816Y-92070051D01*
X115801139Y-92020412D01*
X115904786Y-91945109D01*
X115904788Y-91945106D01*
X115904792Y-91945104D01*
X116055104Y-91794792D01*
X116055106Y-91794788D01*
X116055109Y-91794786D01*
X116180048Y-91622820D01*
X116180047Y-91622820D01*
X116180051Y-91622816D01*
X116276557Y-91433412D01*
X116342246Y-91231243D01*
X116375500Y-91021287D01*
X116375500Y-90808713D01*
X116342246Y-90598757D01*
X116276557Y-90396588D01*
X116180051Y-90207184D01*
X116180049Y-90207181D01*
X116180048Y-90207179D01*
X116055109Y-90035213D01*
X115941569Y-89921673D01*
X115929742Y-89900013D01*
X116975000Y-89900013D01*
X116975000Y-90037500D01*
X117950000Y-90037500D01*
X118450000Y-90037500D01*
X119424999Y-90037500D01*
X119424999Y-89900028D01*
X119424998Y-89900013D01*
X119423410Y-89884466D01*
X119422444Y-89875013D01*
X120100000Y-89875013D01*
X120100000Y-90012500D01*
X121075000Y-90012500D01*
X121575000Y-90012500D01*
X122549999Y-90012500D01*
X122549999Y-89875028D01*
X122549998Y-89875013D01*
X122539505Y-89772302D01*
X122484358Y-89605880D01*
X122484356Y-89605875D01*
X122392315Y-89456654D01*
X122268345Y-89332684D01*
X122119124Y-89240643D01*
X122119119Y-89240641D01*
X121952697Y-89185494D01*
X121952690Y-89185493D01*
X121849986Y-89175000D01*
X121575000Y-89175000D01*
X121575000Y-90012500D01*
X121075000Y-90012500D01*
X121075000Y-89175000D01*
X120800029Y-89175000D01*
X120800012Y-89175001D01*
X120697302Y-89185494D01*
X120530880Y-89240641D01*
X120530875Y-89240643D01*
X120381654Y-89332684D01*
X120257684Y-89456654D01*
X120165643Y-89605875D01*
X120165641Y-89605880D01*
X120110494Y-89772302D01*
X120110493Y-89772309D01*
X120100000Y-89875013D01*
X119422444Y-89875013D01*
X119414505Y-89797302D01*
X119359358Y-89630880D01*
X119359356Y-89630875D01*
X119267315Y-89481654D01*
X119143345Y-89357684D01*
X118994124Y-89265643D01*
X118994119Y-89265641D01*
X118827697Y-89210494D01*
X118827690Y-89210493D01*
X118724986Y-89200000D01*
X118450000Y-89200000D01*
X118450000Y-90037500D01*
X117950000Y-90037500D01*
X117950000Y-89200000D01*
X117675029Y-89200000D01*
X117675012Y-89200001D01*
X117572302Y-89210494D01*
X117405880Y-89265641D01*
X117405875Y-89265643D01*
X117256654Y-89357684D01*
X117132684Y-89481654D01*
X117040643Y-89630875D01*
X117040641Y-89630880D01*
X116985494Y-89797302D01*
X116985493Y-89797309D01*
X116975000Y-89900013D01*
X115929742Y-89900013D01*
X115908084Y-89860350D01*
X115913068Y-89790658D01*
X115954940Y-89734725D01*
X115985915Y-89717810D01*
X116117331Y-89668796D01*
X116232546Y-89582546D01*
X116318796Y-89467331D01*
X116369091Y-89332483D01*
X116375500Y-89272873D01*
X116375499Y-87477128D01*
X116369091Y-87417517D01*
X116358014Y-87387819D01*
X116318797Y-87282671D01*
X116318793Y-87282664D01*
X116232547Y-87167455D01*
X116232544Y-87167452D01*
X116117335Y-87081206D01*
X116117328Y-87081202D01*
X115982482Y-87030908D01*
X115982483Y-87030908D01*
X115922883Y-87024501D01*
X115922881Y-87024500D01*
X115922873Y-87024500D01*
X115922864Y-87024500D01*
X114127129Y-87024500D01*
X114127123Y-87024501D01*
X114067516Y-87030908D01*
X113932671Y-87081202D01*
X113932664Y-87081206D01*
X113817455Y-87167452D01*
X113817452Y-87167455D01*
X113731206Y-87282664D01*
X113731202Y-87282671D01*
X113680908Y-87417517D01*
X113676572Y-87457853D01*
X113674501Y-87477123D01*
X113674500Y-87477135D01*
X112350500Y-87477135D01*
X112350500Y-83924500D01*
X112370185Y-83857461D01*
X112422989Y-83811706D01*
X112474500Y-83800500D01*
X114789802Y-83800500D01*
X114856841Y-83820185D01*
G37*
%TD.AperFunction*%
%TA.AperFunction,Conductor*%
G36*
X146874085Y-91509751D02*
G01*
X146905277Y-91572272D01*
X146906709Y-91582905D01*
X146910569Y-91625383D01*
X146910571Y-91625393D01*
X146958467Y-91779098D01*
X146958468Y-91779100D01*
X146958469Y-91779102D01*
X147036786Y-91908653D01*
X147041766Y-91916891D01*
X147155608Y-92030733D01*
X147155610Y-92030734D01*
X147155612Y-92030736D01*
X147293398Y-92114031D01*
X147447113Y-92161930D01*
X147513909Y-92168000D01*
X148516090Y-92167999D01*
X148516097Y-92167999D01*
X148582882Y-92161931D01*
X148582885Y-92161930D01*
X148582887Y-92161930D01*
X148703066Y-92124481D01*
X148736599Y-92114032D01*
X148736599Y-92114031D01*
X148736602Y-92114031D01*
X148824519Y-92060882D01*
X148888669Y-92043000D01*
X151954862Y-92043000D01*
X152002314Y-92052439D01*
X152109067Y-92096657D01*
X152116503Y-92099737D01*
X152233398Y-92122989D01*
X152271153Y-92130499D01*
X152271156Y-92130500D01*
X152271158Y-92130500D01*
X152428844Y-92130500D01*
X152428845Y-92130499D01*
X152583497Y-92099737D01*
X152632348Y-92079502D01*
X152729072Y-92039439D01*
X152776524Y-92030000D01*
X153385854Y-92030000D01*
X153347370Y-92096657D01*
X153315000Y-92217465D01*
X153315000Y-92342535D01*
X153347370Y-92463343D01*
X153385854Y-92530000D01*
X152512882Y-92530000D01*
X152465430Y-92520561D01*
X152428498Y-92505263D01*
X152428488Y-92505260D01*
X152273845Y-92474500D01*
X152273842Y-92474500D01*
X152116158Y-92474500D01*
X152116155Y-92474500D01*
X151961511Y-92505260D01*
X151961501Y-92505263D01*
X151895599Y-92532561D01*
X151848147Y-92542000D01*
X148888669Y-92542000D01*
X148824519Y-92524117D01*
X148736602Y-92470969D01*
X148712129Y-92463343D01*
X148582887Y-92423070D01*
X148582885Y-92423069D01*
X148582883Y-92423069D01*
X148536117Y-92418819D01*
X148516091Y-92417000D01*
X148516088Y-92417000D01*
X147513901Y-92417000D01*
X147447117Y-92423068D01*
X147447106Y-92423071D01*
X147293401Y-92470967D01*
X147155608Y-92554266D01*
X147041766Y-92668108D01*
X146958469Y-92805897D01*
X146951645Y-92827796D01*
X146910570Y-92959613D01*
X146910570Y-92959615D01*
X146909797Y-92968121D01*
X146901326Y-92989560D01*
X146897264Y-93012251D01*
X146888731Y-93021439D01*
X146884124Y-93033103D01*
X146865406Y-93046560D01*
X146849722Y-93063452D01*
X146837577Y-93066569D01*
X146827395Y-93073890D01*
X146804373Y-93075091D01*
X146782046Y-93080822D01*
X146762299Y-93077286D01*
X146757620Y-93077531D01*
X146747308Y-93074603D01*
X146727812Y-93068142D01*
X146670368Y-93028372D01*
X146643544Y-92963857D01*
X146649111Y-92911430D01*
X146652005Y-92902696D01*
X146652006Y-92902690D01*
X146662499Y-92799986D01*
X146662500Y-92799973D01*
X146662500Y-92525000D01*
X145699000Y-92525000D01*
X145631961Y-92505315D01*
X145586206Y-92452511D01*
X145575000Y-92401000D01*
X145575000Y-92149000D01*
X145594685Y-92081961D01*
X145647489Y-92036206D01*
X145699000Y-92025000D01*
X146662499Y-92025000D01*
X146662499Y-91750028D01*
X146662498Y-91750013D01*
X146652006Y-91647304D01*
X146649112Y-91638572D01*
X146648800Y-91629521D01*
X146644757Y-91621417D01*
X146647616Y-91595148D01*
X146646707Y-91568743D01*
X146651338Y-91560960D01*
X146652318Y-91551958D01*
X146668924Y-91531405D01*
X146682436Y-91508700D01*
X146691699Y-91503219D01*
X146696231Y-91497612D01*
X146727807Y-91481858D01*
X146744217Y-91476420D01*
X146814043Y-91474019D01*
X146874085Y-91509751D01*
G37*
%TD.AperFunction*%
%TD*%
M02*
