%TF.GenerationSoftware,KiCad,Pcbnew,9.0.1*%
%TF.CreationDate,2025-04-21T23:50:01-04:00*%
%TF.ProjectId,can-nano-shield,63616e2d-6e61-46e6-9f2d-736869656c64,rev?*%
%TF.SameCoordinates,Original*%
%TF.FileFunction,Legend,Top*%
%TF.FilePolarity,Positive*%
%FSLAX46Y46*%
G04 Gerber Fmt 4.6, Leading zero omitted, Abs format (unit mm)*
G04 Created by KiCad (PCBNEW 9.0.1) date 2025-04-21 23:50:01*
%MOMM*%
%LPD*%
G01*
G04 APERTURE LIST*
%ADD10C,0.125000*%
%ADD11C,0.200000*%
%ADD12C,0.075000*%
%ADD13C,0.400000*%
%ADD14C,0.150000*%
%ADD15C,0.036868*%
%ADD16C,0.120000*%
%ADD17C,0.152400*%
G04 APERTURE END LIST*
D10*
G36*
X118254256Y-88526770D02*
G01*
X118222314Y-88514724D01*
X118197103Y-88493492D01*
X118180469Y-88465695D01*
X118175000Y-88434813D01*
X118175000Y-88165474D01*
X118180795Y-88136312D01*
X118197103Y-88116626D01*
X118221475Y-88106515D01*
X118254256Y-88107772D01*
X119166503Y-88297426D01*
X119198488Y-88309336D01*
X119223595Y-88330033D01*
X119240259Y-88357325D01*
X119245760Y-88388102D01*
X119245760Y-88657440D01*
X119239973Y-88686711D01*
X119223595Y-88706900D01*
X119199223Y-88717510D01*
X119166503Y-88716425D01*
X118921406Y-88665439D01*
X118921406Y-88571894D01*
X119159787Y-88621476D01*
X119159787Y-88388956D01*
X118260973Y-88202111D01*
X118260973Y-88434630D01*
X118518893Y-88488241D01*
X118518893Y-88581786D01*
X118254256Y-88526770D01*
G37*
G36*
X118250348Y-88687055D02*
G01*
X118482623Y-88735293D01*
X118518726Y-88747987D01*
X118542486Y-88767017D01*
X118556755Y-88792681D01*
X118561880Y-88827250D01*
X118561880Y-89036322D01*
X118765090Y-89078576D01*
X118765090Y-88887517D01*
X118651762Y-88863948D01*
X118651762Y-88777791D01*
X118761182Y-88800567D01*
X118796752Y-88813086D01*
X118820185Y-88831900D01*
X118834275Y-88857319D01*
X118839340Y-88891608D01*
X118839340Y-89105443D01*
X118833994Y-89138368D01*
X118820246Y-89157189D01*
X118797660Y-89166195D01*
X118761182Y-89164061D01*
X118175000Y-89042184D01*
X118175000Y-88954623D01*
X118194539Y-88958714D01*
X118179640Y-88849965D01*
X118173530Y-88773761D01*
X118253157Y-88773761D01*
X118257065Y-88972941D01*
X118491538Y-89021729D01*
X118491538Y-88823342D01*
X118253157Y-88773761D01*
X118173530Y-88773761D01*
X118171092Y-88743353D01*
X118176401Y-88711656D01*
X118190161Y-88693428D01*
X118213049Y-88684697D01*
X118250348Y-88687055D01*
G37*
G36*
X118175000Y-89852765D02*
G01*
X118175000Y-89763922D01*
X118758557Y-89885249D01*
X118750436Y-89689794D01*
X118175000Y-89570176D01*
X118175000Y-89481943D01*
X118758557Y-89603271D01*
X118750436Y-89407754D01*
X118175000Y-89288137D01*
X118175000Y-89199232D01*
X118839340Y-89337351D01*
X118839340Y-89426256D01*
X118816870Y-89421554D01*
X118833661Y-89529326D01*
X118841126Y-89591867D01*
X118843248Y-89636183D01*
X118839627Y-89661551D01*
X118829903Y-89678843D01*
X118814183Y-89690282D01*
X118832257Y-89805626D01*
X118843248Y-89918161D01*
X118837912Y-89950252D01*
X118824109Y-89968680D01*
X118801218Y-89977505D01*
X118763991Y-89975192D01*
X118175000Y-89852765D01*
G37*
G36*
X118254256Y-90031490D02*
G01*
X118760083Y-90136636D01*
X118796239Y-90149318D01*
X118819995Y-90168262D01*
X118834233Y-90193739D01*
X118839340Y-90227983D01*
X118839340Y-90441818D01*
X118833958Y-90474601D01*
X118820081Y-90493380D01*
X118797183Y-90502367D01*
X118760083Y-90500131D01*
X118523656Y-90450977D01*
X118491538Y-90414279D01*
X118491538Y-90373613D01*
X118565788Y-90373613D01*
X118765090Y-90415012D01*
X118765090Y-90223953D01*
X118565788Y-90182554D01*
X118565788Y-90373613D01*
X118491538Y-90373613D01*
X118491538Y-90167105D01*
X118249249Y-90116730D01*
X118249249Y-90307789D01*
X118374302Y-90333801D01*
X118374302Y-90419958D01*
X118252913Y-90394679D01*
X118217474Y-90382198D01*
X118194113Y-90363413D01*
X118180056Y-90338005D01*
X118175000Y-90303698D01*
X118175000Y-90089864D01*
X118180383Y-90057047D01*
X118194264Y-90038252D01*
X118217163Y-90029256D01*
X118254256Y-90031490D01*
G37*
G36*
X118620498Y-90969504D02*
G01*
X118620498Y-90881943D01*
X118757274Y-90910397D01*
X118751901Y-90745534D01*
X118175000Y-90625610D01*
X118175000Y-90536706D01*
X118839340Y-90674825D01*
X118839340Y-90763730D01*
X118818335Y-90759333D01*
X118834211Y-90851474D01*
X118843248Y-90942271D01*
X118837912Y-90974362D01*
X118824109Y-90992791D01*
X118801218Y-91001615D01*
X118763991Y-90999302D01*
X118620498Y-90969504D01*
G37*
G36*
X118254256Y-91016277D02*
G01*
X118760083Y-91121423D01*
X118796239Y-91134105D01*
X118819995Y-91153049D01*
X118834233Y-91178526D01*
X118839340Y-91212770D01*
X118839340Y-91435947D01*
X118833933Y-91469127D01*
X118820013Y-91488106D01*
X118797111Y-91497186D01*
X118760083Y-91494993D01*
X118254256Y-91389846D01*
X118218159Y-91377150D01*
X118194398Y-91358112D01*
X118180126Y-91332430D01*
X118175425Y-91300698D01*
X118253157Y-91300698D01*
X118761182Y-91406333D01*
X118761182Y-91210572D01*
X118253157Y-91104937D01*
X118253157Y-91300698D01*
X118175425Y-91300698D01*
X118175000Y-91297828D01*
X118175000Y-91074651D01*
X118180383Y-91041834D01*
X118194264Y-91023039D01*
X118217163Y-91014044D01*
X118254256Y-91016277D01*
G37*
G36*
X118175000Y-91903855D02*
G01*
X118175000Y-91814951D01*
X118757274Y-91936034D01*
X118751901Y-91739113D01*
X118175000Y-91619190D01*
X118175000Y-91530286D01*
X118839340Y-91668405D01*
X118839340Y-91757310D01*
X118818335Y-91752913D01*
X118834211Y-91861052D01*
X118843248Y-91968580D01*
X118837888Y-92001033D01*
X118824046Y-92019645D01*
X118801151Y-92028555D01*
X118763991Y-92026282D01*
X118175000Y-91903855D01*
G37*
G36*
X118175000Y-92779466D02*
G01*
X118175000Y-92677189D01*
X118687665Y-92542611D01*
X118175000Y-92435999D01*
X118175000Y-92343065D01*
X119245760Y-92565692D01*
X119245760Y-92658627D01*
X118762831Y-92558182D01*
X119245760Y-92877774D01*
X119245760Y-92978646D01*
X119239654Y-92977364D01*
X118727965Y-92634508D01*
X118175000Y-92779466D01*
G37*
G36*
X118175000Y-92962282D02*
G01*
X118175000Y-92860738D01*
X118296144Y-92885895D01*
X118296144Y-92987439D01*
X118175000Y-92962282D01*
G37*
G36*
X119245760Y-93609098D02*
G01*
X119245760Y-93951221D01*
X119239951Y-93980378D01*
X119223595Y-94000070D01*
X119199275Y-94010179D01*
X119166503Y-94008923D01*
X118816992Y-93936261D01*
X118800004Y-93929159D01*
X118783953Y-93914231D01*
X118768510Y-93888817D01*
X118737735Y-93808888D01*
X118703541Y-93880635D01*
X118691591Y-93898070D01*
X118677069Y-93906019D01*
X118658478Y-93905975D01*
X118254256Y-93821955D01*
X118222260Y-93810048D01*
X118197103Y-93789349D01*
X118180488Y-93762062D01*
X118175000Y-93731280D01*
X118175000Y-93729815D01*
X118260973Y-93729815D01*
X118631734Y-93806873D01*
X118682554Y-93741477D01*
X118776814Y-93741477D01*
X118840500Y-93847601D01*
X119159787Y-93913974D01*
X119159787Y-93684141D01*
X118776814Y-93604518D01*
X118776814Y-93741477D01*
X118682554Y-93741477D01*
X118694748Y-93725785D01*
X118694748Y-93587482D01*
X118260973Y-93497296D01*
X118260973Y-93729815D01*
X118175000Y-93729815D01*
X118175000Y-93386470D01*
X119245760Y-93609098D01*
G37*
G36*
X118620498Y-94402582D02*
G01*
X118620498Y-94315021D01*
X118757274Y-94343475D01*
X118751901Y-94178611D01*
X118175000Y-94058688D01*
X118175000Y-93969783D01*
X118839340Y-94107903D01*
X118839340Y-94196807D01*
X118818335Y-94192411D01*
X118834211Y-94284551D01*
X118843248Y-94375349D01*
X118837912Y-94407440D01*
X118824109Y-94425868D01*
X118801218Y-94434693D01*
X118763991Y-94432379D01*
X118620498Y-94402582D01*
G37*
G36*
X118254256Y-94449354D02*
G01*
X118760083Y-94554501D01*
X118796239Y-94567182D01*
X118819995Y-94586126D01*
X118834233Y-94611604D01*
X118839340Y-94645848D01*
X118839340Y-94869025D01*
X118833933Y-94902205D01*
X118820013Y-94921183D01*
X118797111Y-94930264D01*
X118760083Y-94928070D01*
X118254256Y-94822924D01*
X118218159Y-94810228D01*
X118194398Y-94791189D01*
X118180126Y-94765507D01*
X118175425Y-94733775D01*
X118253157Y-94733775D01*
X118761182Y-94839410D01*
X118761182Y-94643649D01*
X118253157Y-94538014D01*
X118253157Y-94733775D01*
X118175425Y-94733775D01*
X118175000Y-94730905D01*
X118175000Y-94507728D01*
X118180383Y-94474911D01*
X118194264Y-94456116D01*
X118217163Y-94447121D01*
X118254256Y-94449354D01*
G37*
G36*
X118254256Y-94979850D02*
G01*
X118760083Y-95084996D01*
X118796239Y-95097678D01*
X118819995Y-95116622D01*
X118834233Y-95142099D01*
X118839340Y-95176343D01*
X118839340Y-95399520D01*
X118833933Y-95432700D01*
X118820013Y-95451679D01*
X118797111Y-95460759D01*
X118760083Y-95458566D01*
X118254256Y-95353419D01*
X118218159Y-95340723D01*
X118194398Y-95321685D01*
X118180126Y-95296002D01*
X118175425Y-95264270D01*
X118253157Y-95264270D01*
X118761182Y-95369906D01*
X118761182Y-95174145D01*
X118253157Y-95068510D01*
X118253157Y-95264270D01*
X118175425Y-95264270D01*
X118175000Y-95261401D01*
X118175000Y-95038224D01*
X118180383Y-95005407D01*
X118194264Y-94986612D01*
X118217163Y-94977617D01*
X118254256Y-94979850D01*
G37*
G36*
X118175000Y-95858758D02*
G01*
X118175000Y-95761854D01*
X118514924Y-95653410D01*
X118175000Y-95582763D01*
X118175000Y-95493859D01*
X119245760Y-95716486D01*
X119245760Y-95805391D01*
X118566154Y-95664096D01*
X118839340Y-95887945D01*
X118839340Y-95983505D01*
X118836592Y-95982955D01*
X118544295Y-95733034D01*
X118175000Y-95858758D01*
G37*
G36*
X118254256Y-96329475D02*
G01*
X118218154Y-96316780D01*
X118194393Y-96297750D01*
X118180125Y-96272086D01*
X118175000Y-96237517D01*
X118175000Y-96033635D01*
X118180405Y-96000488D01*
X118194321Y-95981526D01*
X118217222Y-95972454D01*
X118254256Y-95974651D01*
X118401657Y-96005303D01*
X118401657Y-96092864D01*
X118253157Y-96061968D01*
X118253157Y-96241669D01*
X118386086Y-96269330D01*
X118580443Y-96077172D01*
X118600160Y-96063002D01*
X118623309Y-96056733D01*
X118651517Y-96058609D01*
X118760083Y-96081202D01*
X118796186Y-96093896D01*
X118819946Y-96112926D01*
X118834215Y-96138590D01*
X118839340Y-96173159D01*
X118839340Y-96374232D01*
X118833933Y-96407412D01*
X118820013Y-96426391D01*
X118797111Y-96435471D01*
X118760083Y-96433278D01*
X118632222Y-96406716D01*
X118632222Y-96320499D01*
X118761182Y-96347304D01*
X118761182Y-96167603D01*
X118644678Y-96143362D01*
X118450322Y-96337474D01*
X118431047Y-96351267D01*
X118407535Y-96357353D01*
X118377904Y-96355181D01*
X118254256Y-96329475D01*
G37*
G36*
X116495000Y-88613050D02*
G01*
X116495000Y-88515475D01*
X117069764Y-88440492D01*
X117088998Y-88457223D01*
X117088998Y-88622881D01*
X117479787Y-88704153D01*
X117479787Y-88465649D01*
X116495000Y-88260913D01*
X116495000Y-88167978D01*
X117565760Y-88390606D01*
X117565760Y-88740789D01*
X117559951Y-88769946D01*
X117543595Y-88789638D01*
X117519275Y-88799747D01*
X117486503Y-88798491D01*
X117086189Y-88715266D01*
X117052048Y-88702039D01*
X117028141Y-88679517D01*
X117012747Y-88645971D01*
X117006933Y-88597174D01*
X117007971Y-88567987D01*
X117009009Y-88540144D01*
X116495000Y-88613050D01*
G37*
G36*
X116574256Y-88770709D02*
G01*
X117080083Y-88875855D01*
X117116239Y-88888537D01*
X117139995Y-88907481D01*
X117154233Y-88932958D01*
X117159340Y-88967202D01*
X117159340Y-89181037D01*
X117153958Y-89213821D01*
X117140081Y-89232599D01*
X117117183Y-89241586D01*
X117080083Y-89239350D01*
X116843656Y-89190196D01*
X116811538Y-89153498D01*
X116811538Y-89112832D01*
X116885788Y-89112832D01*
X117085090Y-89154231D01*
X117085090Y-88963172D01*
X116885788Y-88921773D01*
X116885788Y-89112832D01*
X116811538Y-89112832D01*
X116811538Y-88906325D01*
X116569249Y-88855950D01*
X116569249Y-89047009D01*
X116694302Y-89073020D01*
X116694302Y-89159177D01*
X116572913Y-89133898D01*
X116537474Y-89121417D01*
X116514113Y-89102633D01*
X116500056Y-89077224D01*
X116495000Y-89042917D01*
X116495000Y-88829083D01*
X116500383Y-88796266D01*
X116514264Y-88777471D01*
X116537163Y-88768476D01*
X116574256Y-88770709D01*
G37*
G36*
X117159340Y-89780226D02*
G01*
X116495000Y-89481089D01*
X116495000Y-89400245D01*
X117159340Y-89376675D01*
X117159340Y-89468266D01*
X116635683Y-89470281D01*
X117159340Y-89691382D01*
X117159340Y-89780226D01*
G37*
G36*
X116574256Y-90062204D02*
G01*
X117486503Y-90251858D01*
X117518488Y-90263768D01*
X117543595Y-90284465D01*
X117560259Y-90311757D01*
X117565760Y-90342534D01*
X117565760Y-90619871D01*
X117559973Y-90649142D01*
X117543595Y-90669331D01*
X117519223Y-90679941D01*
X117486503Y-90678856D01*
X116574256Y-90489201D01*
X116542314Y-90477155D01*
X116517103Y-90455923D01*
X116500469Y-90428126D01*
X116495087Y-90397733D01*
X116580973Y-90397733D01*
X117479787Y-90584578D01*
X117479787Y-90343388D01*
X116580973Y-90156543D01*
X116580973Y-90397733D01*
X116495087Y-90397733D01*
X116495000Y-90397244D01*
X116495000Y-90119906D01*
X116500795Y-90090744D01*
X116517103Y-90071058D01*
X116541475Y-90060947D01*
X116574256Y-90062204D01*
G37*
G36*
X116574256Y-92584744D02*
G01*
X117486503Y-92774399D01*
X117518488Y-92786308D01*
X117543595Y-92807005D01*
X117560259Y-92834297D01*
X117565760Y-92865074D01*
X117565760Y-93142412D01*
X117559973Y-93171682D01*
X117543595Y-93191871D01*
X117519223Y-93202482D01*
X117486503Y-93201396D01*
X116574256Y-93011742D01*
X116542314Y-92999695D01*
X116517103Y-92978463D01*
X116500469Y-92950667D01*
X116495087Y-92920273D01*
X116580973Y-92920273D01*
X117479787Y-93107118D01*
X117479787Y-92865929D01*
X116580973Y-92679083D01*
X116580973Y-92920273D01*
X116495087Y-92920273D01*
X116495000Y-92919784D01*
X116495000Y-92642446D01*
X116500795Y-92613284D01*
X116517103Y-92593598D01*
X116541475Y-92583487D01*
X116574256Y-92584744D01*
G37*
G36*
X116772459Y-93641278D02*
G01*
X116772459Y-93561776D01*
X116495000Y-93504074D01*
X116495000Y-93416513D01*
X116772459Y-93474215D01*
X116772459Y-93178865D01*
X116821125Y-93188940D01*
X117565760Y-93597070D01*
X117565760Y-93684631D01*
X117561669Y-93683776D01*
X116854525Y-93296162D01*
X116854525Y-93491251D01*
X117245314Y-93572523D01*
X117245314Y-93660084D01*
X116854525Y-93578812D01*
X116854525Y-93658313D01*
X116772459Y-93641278D01*
G37*
G36*
X116858433Y-94042813D02*
G01*
X116858433Y-93767551D01*
X116944406Y-93785442D01*
X116944406Y-94060704D01*
X116858433Y-94042813D01*
G37*
G36*
X116495000Y-94512553D02*
G01*
X116495000Y-94097584D01*
X116545802Y-94108148D01*
X117225469Y-94569522D01*
X117479787Y-94622401D01*
X117479787Y-94409238D01*
X117241406Y-94359657D01*
X117241406Y-94266112D01*
X117486503Y-94317097D01*
X117518488Y-94329007D01*
X117543595Y-94349704D01*
X117560259Y-94376996D01*
X117565760Y-94407773D01*
X117565760Y-94659648D01*
X117559951Y-94688805D01*
X117543595Y-94708497D01*
X117519275Y-94718606D01*
X117486503Y-94717350D01*
X117263387Y-94670944D01*
X117222083Y-94656865D01*
X117169781Y-94626797D01*
X116580973Y-94227766D01*
X116580973Y-94530444D01*
X116495000Y-94512553D01*
G37*
G36*
X116574256Y-94686209D02*
G01*
X117486503Y-94875864D01*
X117518488Y-94887774D01*
X117543595Y-94908470D01*
X117560259Y-94935762D01*
X117565760Y-94966539D01*
X117565760Y-95243877D01*
X117559973Y-95273148D01*
X117543595Y-95293336D01*
X117519223Y-95303947D01*
X117486503Y-95302862D01*
X116574256Y-95113207D01*
X116542314Y-95101161D01*
X116517103Y-95079929D01*
X116500469Y-95052132D01*
X116495086Y-95021738D01*
X116580973Y-95021738D01*
X117479787Y-95208584D01*
X117479787Y-94967394D01*
X116580973Y-94780548D01*
X116580973Y-95021738D01*
X116495086Y-95021738D01*
X116495000Y-95021250D01*
X116495000Y-94743912D01*
X116500795Y-94714749D01*
X116517103Y-94695063D01*
X116541475Y-94684952D01*
X116574256Y-94686209D01*
G37*
G36*
X116495000Y-95666356D02*
G01*
X116495000Y-95251387D01*
X116545802Y-95261951D01*
X117225469Y-95723326D01*
X117479787Y-95776204D01*
X117479787Y-95563041D01*
X117241406Y-95513460D01*
X117241406Y-95419915D01*
X117486503Y-95470901D01*
X117518488Y-95482810D01*
X117543595Y-95503507D01*
X117560259Y-95530799D01*
X117565760Y-95561576D01*
X117565760Y-95813451D01*
X117559951Y-95842608D01*
X117543595Y-95862300D01*
X117519275Y-95872409D01*
X117486503Y-95871154D01*
X117263387Y-95824748D01*
X117222083Y-95810669D01*
X117169781Y-95780601D01*
X116580973Y-95381569D01*
X116580973Y-95684247D01*
X116495000Y-95666356D01*
G37*
G36*
X116574256Y-96242281D02*
G01*
X116542260Y-96230373D01*
X116517103Y-96209674D01*
X116500489Y-96182438D01*
X116495000Y-96151667D01*
X116495000Y-95894357D01*
X116500808Y-95865263D01*
X116517103Y-95845875D01*
X116541447Y-95836037D01*
X116574256Y-95837387D01*
X116838893Y-95892403D01*
X116838893Y-95985276D01*
X116580973Y-95931665D01*
X116580973Y-96150812D01*
X117081182Y-96254798D01*
X117081182Y-95945403D01*
X117565760Y-96058244D01*
X117565760Y-96440423D01*
X117479787Y-96422532D01*
X117479787Y-96131211D01*
X117167156Y-96054885D01*
X117167156Y-96291435D01*
X117161665Y-96320769D01*
X117146395Y-96340527D01*
X117123517Y-96350949D01*
X117092906Y-96350114D01*
X116574256Y-96242281D01*
G37*
D11*
X112828019Y-90866101D02*
X112780400Y-90818482D01*
X112780400Y-90818482D02*
X112732780Y-90675625D01*
X112732780Y-90675625D02*
X112732780Y-90580387D01*
X112732780Y-90580387D02*
X112780400Y-90437530D01*
X112780400Y-90437530D02*
X112875638Y-90342292D01*
X112875638Y-90342292D02*
X112970876Y-90294673D01*
X112970876Y-90294673D02*
X113161352Y-90247054D01*
X113161352Y-90247054D02*
X113304209Y-90247054D01*
X113304209Y-90247054D02*
X113494685Y-90294673D01*
X113494685Y-90294673D02*
X113589923Y-90342292D01*
X113589923Y-90342292D02*
X113685161Y-90437530D01*
X113685161Y-90437530D02*
X113732780Y-90580387D01*
X113732780Y-90580387D02*
X113732780Y-90675625D01*
X113732780Y-90675625D02*
X113685161Y-90818482D01*
X113685161Y-90818482D02*
X113637542Y-90866101D01*
X112780400Y-91247054D02*
X112732780Y-91389911D01*
X112732780Y-91389911D02*
X112732780Y-91628006D01*
X112732780Y-91628006D02*
X112780400Y-91723244D01*
X112780400Y-91723244D02*
X112828019Y-91770863D01*
X112828019Y-91770863D02*
X112923257Y-91818482D01*
X112923257Y-91818482D02*
X113018495Y-91818482D01*
X113018495Y-91818482D02*
X113113733Y-91770863D01*
X113113733Y-91770863D02*
X113161352Y-91723244D01*
X113161352Y-91723244D02*
X113208971Y-91628006D01*
X113208971Y-91628006D02*
X113256590Y-91437530D01*
X113256590Y-91437530D02*
X113304209Y-91342292D01*
X113304209Y-91342292D02*
X113351828Y-91294673D01*
X113351828Y-91294673D02*
X113447066Y-91247054D01*
X113447066Y-91247054D02*
X113542304Y-91247054D01*
X113542304Y-91247054D02*
X113637542Y-91294673D01*
X113637542Y-91294673D02*
X113685161Y-91342292D01*
X113685161Y-91342292D02*
X113732780Y-91437530D01*
X113732780Y-91437530D02*
X113732780Y-91675625D01*
X113732780Y-91675625D02*
X113685161Y-91818482D01*
D12*
X140243984Y-91214848D02*
X140227913Y-91229134D01*
X140227913Y-91229134D02*
X140183270Y-91243419D01*
X140183270Y-91243419D02*
X140154699Y-91243419D01*
X140154699Y-91243419D02*
X140113627Y-91229134D01*
X140113627Y-91229134D02*
X140088627Y-91200562D01*
X140088627Y-91200562D02*
X140077913Y-91171991D01*
X140077913Y-91171991D02*
X140070770Y-91114848D01*
X140070770Y-91114848D02*
X140076127Y-91071991D01*
X140076127Y-91071991D02*
X140097556Y-91014848D01*
X140097556Y-91014848D02*
X140115413Y-90986276D01*
X140115413Y-90986276D02*
X140147556Y-90957705D01*
X140147556Y-90957705D02*
X140192199Y-90943419D01*
X140192199Y-90943419D02*
X140220770Y-90943419D01*
X140220770Y-90943419D02*
X140261842Y-90957705D01*
X140261842Y-90957705D02*
X140274342Y-90971991D01*
X140365413Y-91157705D02*
X140508270Y-91157705D01*
X140326127Y-91243419D02*
X140463627Y-90943419D01*
X140463627Y-90943419D02*
X140526127Y-91243419D01*
X140626127Y-91243419D02*
X140663627Y-90943419D01*
X140663627Y-90943419D02*
X140797556Y-91243419D01*
X140797556Y-91243419D02*
X140835056Y-90943419D01*
X141168984Y-91243419D02*
X141206484Y-90943419D01*
X141311841Y-91243419D02*
X141349341Y-90943419D01*
X141349341Y-90943419D02*
X141483270Y-91243419D01*
X141483270Y-91243419D02*
X141520770Y-90943419D01*
X141620770Y-90943419D02*
X141792199Y-90943419D01*
X141668985Y-91243419D02*
X141706485Y-90943419D01*
X140243984Y-91697831D02*
X140227913Y-91712117D01*
X140227913Y-91712117D02*
X140183270Y-91726402D01*
X140183270Y-91726402D02*
X140154699Y-91726402D01*
X140154699Y-91726402D02*
X140113627Y-91712117D01*
X140113627Y-91712117D02*
X140088627Y-91683545D01*
X140088627Y-91683545D02*
X140077913Y-91654974D01*
X140077913Y-91654974D02*
X140070770Y-91597831D01*
X140070770Y-91597831D02*
X140076127Y-91554974D01*
X140076127Y-91554974D02*
X140097556Y-91497831D01*
X140097556Y-91497831D02*
X140115413Y-91469259D01*
X140115413Y-91469259D02*
X140147556Y-91440688D01*
X140147556Y-91440688D02*
X140192199Y-91426402D01*
X140192199Y-91426402D02*
X140220770Y-91426402D01*
X140220770Y-91426402D02*
X140261842Y-91440688D01*
X140261842Y-91440688D02*
X140274342Y-91454974D01*
X140411842Y-91726402D02*
X140385056Y-91712117D01*
X140385056Y-91712117D02*
X140374342Y-91683545D01*
X140374342Y-91683545D02*
X140406484Y-91426402D01*
X140568985Y-91726402D02*
X140542199Y-91712117D01*
X140542199Y-91712117D02*
X140529699Y-91697831D01*
X140529699Y-91697831D02*
X140518985Y-91669259D01*
X140518985Y-91669259D02*
X140529699Y-91583545D01*
X140529699Y-91583545D02*
X140547556Y-91554974D01*
X140547556Y-91554974D02*
X140563627Y-91540688D01*
X140563627Y-91540688D02*
X140593985Y-91526402D01*
X140593985Y-91526402D02*
X140636842Y-91526402D01*
X140636842Y-91526402D02*
X140663627Y-91540688D01*
X140663627Y-91540688D02*
X140676127Y-91554974D01*
X140676127Y-91554974D02*
X140686842Y-91583545D01*
X140686842Y-91583545D02*
X140676127Y-91669259D01*
X140676127Y-91669259D02*
X140658270Y-91697831D01*
X140658270Y-91697831D02*
X140642199Y-91712117D01*
X140642199Y-91712117D02*
X140611842Y-91726402D01*
X140611842Y-91726402D02*
X140568985Y-91726402D01*
X140785056Y-91712117D02*
X140811842Y-91726402D01*
X140811842Y-91726402D02*
X140868985Y-91726402D01*
X140868985Y-91726402D02*
X140899342Y-91712117D01*
X140899342Y-91712117D02*
X140917199Y-91683545D01*
X140917199Y-91683545D02*
X140918985Y-91669259D01*
X140918985Y-91669259D02*
X140908271Y-91640688D01*
X140908271Y-91640688D02*
X140881485Y-91626402D01*
X140881485Y-91626402D02*
X140838628Y-91626402D01*
X140838628Y-91626402D02*
X140811842Y-91612117D01*
X140811842Y-91612117D02*
X140801128Y-91583545D01*
X140801128Y-91583545D02*
X140802914Y-91569259D01*
X140802914Y-91569259D02*
X140820771Y-91540688D01*
X140820771Y-91540688D02*
X140851128Y-91526402D01*
X140851128Y-91526402D02*
X140893985Y-91526402D01*
X140893985Y-91526402D02*
X140920771Y-91540688D01*
X141156485Y-91712117D02*
X141126128Y-91726402D01*
X141126128Y-91726402D02*
X141068985Y-91726402D01*
X141068985Y-91726402D02*
X141042199Y-91712117D01*
X141042199Y-91712117D02*
X141031485Y-91683545D01*
X141031485Y-91683545D02*
X141045771Y-91569259D01*
X141045771Y-91569259D02*
X141063628Y-91540688D01*
X141063628Y-91540688D02*
X141093985Y-91526402D01*
X141093985Y-91526402D02*
X141151128Y-91526402D01*
X141151128Y-91526402D02*
X141177913Y-91540688D01*
X141177913Y-91540688D02*
X141188628Y-91569259D01*
X141188628Y-91569259D02*
X141185056Y-91597831D01*
X141185056Y-91597831D02*
X141038628Y-91626402D01*
X141426128Y-91726402D02*
X141463628Y-91426402D01*
X141427914Y-91712117D02*
X141397556Y-91726402D01*
X141397556Y-91726402D02*
X141340414Y-91726402D01*
X141340414Y-91726402D02*
X141313628Y-91712117D01*
X141313628Y-91712117D02*
X141301128Y-91697831D01*
X141301128Y-91697831D02*
X141290414Y-91669259D01*
X141290414Y-91669259D02*
X141301128Y-91583545D01*
X141301128Y-91583545D02*
X141318985Y-91554974D01*
X141318985Y-91554974D02*
X141335056Y-91540688D01*
X141335056Y-91540688D02*
X141365414Y-91526402D01*
X141365414Y-91526402D02*
X141422556Y-91526402D01*
X141422556Y-91526402D02*
X141449342Y-91540688D01*
X140192199Y-91909385D02*
X140165413Y-92123671D01*
X140165413Y-92123671D02*
X140145770Y-92166528D01*
X140145770Y-92166528D02*
X140113627Y-92195100D01*
X140113627Y-92195100D02*
X140068984Y-92209385D01*
X140068984Y-92209385D02*
X140040413Y-92209385D01*
X140451127Y-92009385D02*
X140426127Y-92209385D01*
X140322555Y-92009385D02*
X140302913Y-92166528D01*
X140302913Y-92166528D02*
X140313627Y-92195100D01*
X140313627Y-92195100D02*
X140340413Y-92209385D01*
X140340413Y-92209385D02*
X140383270Y-92209385D01*
X140383270Y-92209385D02*
X140413627Y-92195100D01*
X140413627Y-92195100D02*
X140429698Y-92180814D01*
X140568984Y-92209385D02*
X140593984Y-92009385D01*
X140590413Y-92037957D02*
X140606484Y-92023671D01*
X140606484Y-92023671D02*
X140636842Y-92009385D01*
X140636842Y-92009385D02*
X140679699Y-92009385D01*
X140679699Y-92009385D02*
X140706484Y-92023671D01*
X140706484Y-92023671D02*
X140717199Y-92052242D01*
X140717199Y-92052242D02*
X140697556Y-92209385D01*
X140717199Y-92052242D02*
X140735056Y-92023671D01*
X140735056Y-92023671D02*
X140765413Y-92009385D01*
X140765413Y-92009385D02*
X140808270Y-92009385D01*
X140808270Y-92009385D02*
X140835056Y-92023671D01*
X140835056Y-92023671D02*
X140845770Y-92052242D01*
X140845770Y-92052242D02*
X140826127Y-92209385D01*
X140993984Y-92009385D02*
X140956484Y-92309385D01*
X140992199Y-92023671D02*
X141022556Y-92009385D01*
X141022556Y-92009385D02*
X141079699Y-92009385D01*
X141079699Y-92009385D02*
X141106484Y-92023671D01*
X141106484Y-92023671D02*
X141118984Y-92037957D01*
X141118984Y-92037957D02*
X141129699Y-92066528D01*
X141129699Y-92066528D02*
X141118984Y-92152242D01*
X141118984Y-92152242D02*
X141101127Y-92180814D01*
X141101127Y-92180814D02*
X141085056Y-92195100D01*
X141085056Y-92195100D02*
X141054699Y-92209385D01*
X141054699Y-92209385D02*
X140997556Y-92209385D01*
X140997556Y-92209385D02*
X140970770Y-92195100D01*
D11*
X112707780Y-87519673D02*
X113707780Y-87519673D01*
X112707780Y-87995863D02*
X113707780Y-87995863D01*
X113707780Y-87995863D02*
X112707780Y-88567291D01*
X112707780Y-88567291D02*
X113707780Y-88567291D01*
X113707780Y-88900625D02*
X113707780Y-89472053D01*
X112707780Y-89186339D02*
X113707780Y-89186339D01*
G36*
X128000258Y-91091190D02*
G01*
X127910434Y-91072436D01*
X127850224Y-91021312D01*
X127811812Y-90934983D01*
X127797000Y-90798099D01*
X127797000Y-89798107D01*
X127811628Y-89665776D01*
X127849739Y-89581824D01*
X127909917Y-89531732D01*
X128000258Y-89513259D01*
X130163566Y-89513259D01*
X130253907Y-89531732D01*
X130314086Y-89581824D01*
X130352197Y-89665776D01*
X130366825Y-89798107D01*
X130366825Y-90798099D01*
X130352012Y-90934983D01*
X130313600Y-91021312D01*
X130253390Y-91072436D01*
X130163566Y-91091190D01*
X129522722Y-91091190D01*
X129522722Y-90613634D01*
X130038563Y-90613634D01*
X130038563Y-89992830D01*
X128125262Y-89992830D01*
X128125262Y-90613634D01*
X128659861Y-90613634D01*
X128659861Y-91091190D01*
X128000258Y-91091190D01*
G37*
G36*
X130366825Y-91972296D02*
G01*
X130366825Y-92476413D01*
X127797000Y-93093188D01*
X127797000Y-92617830D01*
X128284704Y-92521476D01*
X128284704Y-92453882D01*
X128612966Y-92453882D01*
X129771263Y-92220142D01*
X128612966Y-91984569D01*
X128612966Y-92453882D01*
X128284704Y-92453882D01*
X128284704Y-91921005D01*
X127797000Y-91824651D01*
X127797000Y-91351309D01*
X127803594Y-91351309D01*
X130366825Y-91972296D01*
G37*
G36*
X127797000Y-94986558D02*
G01*
X127797000Y-94566521D01*
X129414424Y-93798072D01*
X129302074Y-93822113D01*
X129228898Y-93828664D01*
X127797000Y-93828664D01*
X127797000Y-93361549D01*
X130366825Y-93361549D01*
X130366825Y-93781586D01*
X128782226Y-94550035D01*
X128894577Y-94525995D01*
X128967753Y-94519444D01*
X130366825Y-94519444D01*
X130366825Y-94986558D01*
X127797000Y-94986558D01*
G37*
G36*
X123765000Y-90516914D02*
G01*
X123765000Y-90096877D01*
X125382424Y-89328428D01*
X125270074Y-89352468D01*
X125196898Y-89359020D01*
X123765000Y-89359020D01*
X123765000Y-88891905D01*
X126334825Y-88891905D01*
X126334825Y-89311942D01*
X124750226Y-90080391D01*
X124862577Y-90056351D01*
X124935753Y-90049799D01*
X126334825Y-90049799D01*
X126334825Y-90516914D01*
X123765000Y-90516914D01*
G37*
G36*
X124656974Y-90887470D02*
G01*
X124717067Y-90934950D01*
X124754396Y-91012976D01*
X124768545Y-91134054D01*
X124768545Y-91767315D01*
X125143702Y-91767315D01*
X125143702Y-91318519D01*
X124918607Y-91318519D01*
X124918607Y-90894269D01*
X125221810Y-90894269D01*
X125313499Y-90912017D01*
X125373592Y-90959496D01*
X125410921Y-91037523D01*
X125425069Y-91158601D01*
X125425069Y-91951779D01*
X125411023Y-92070562D01*
X125373862Y-92147369D01*
X125313787Y-92194304D01*
X125221810Y-92211898D01*
X123765000Y-92211898D01*
X123765000Y-91763102D01*
X123821273Y-91763102D01*
X123780826Y-91443449D01*
X123770913Y-91318519D01*
X124046367Y-91318519D01*
X124060436Y-91767315D01*
X124515314Y-91767315D01*
X124515314Y-91318519D01*
X124046367Y-91318519D01*
X123770913Y-91318519D01*
X123755621Y-91125811D01*
X123769567Y-91009220D01*
X123806567Y-90933579D01*
X123866623Y-90887168D01*
X123958879Y-90869723D01*
X124565286Y-90869723D01*
X124656974Y-90887470D01*
G37*
G36*
X123765000Y-93929780D02*
G01*
X123765000Y-93458453D01*
X125115565Y-93458453D01*
X125101496Y-93017716D01*
X123765000Y-93017716D01*
X123765000Y-92548404D01*
X125425069Y-92548404D01*
X125425069Y-93017716D01*
X125364106Y-93017716D01*
X125407044Y-93343597D01*
X125428374Y-93536025D01*
X125434448Y-93673508D01*
X125420497Y-93790199D01*
X125383490Y-93865893D01*
X125323433Y-93912328D01*
X125231189Y-93929780D01*
X123765000Y-93929780D01*
G37*
G36*
X125313487Y-94283674D02*
G01*
X125373581Y-94331177D01*
X125410917Y-94409256D01*
X125425069Y-94530434D01*
X125425069Y-95370508D01*
X125411019Y-95489390D01*
X125373850Y-95566250D01*
X125313775Y-95613209D01*
X125221810Y-95630810D01*
X123968258Y-95630810D01*
X123876294Y-95613209D01*
X123816219Y-95566250D01*
X123779050Y-95489390D01*
X123765000Y-95370508D01*
X123765000Y-95171755D01*
X124074504Y-95171755D01*
X125115565Y-95171755D01*
X125115565Y-94727172D01*
X124074504Y-94727172D01*
X124074504Y-95171755D01*
X123765000Y-95171755D01*
X123765000Y-94530434D01*
X123779152Y-94409256D01*
X123816488Y-94331177D01*
X123876582Y-94283674D01*
X123968258Y-94265919D01*
X125221810Y-94265919D01*
X125313487Y-94283674D01*
G37*
G36*
X119936258Y-89646249D02*
G01*
X119846297Y-89627570D01*
X119786096Y-89576720D01*
X119747763Y-89491025D01*
X119733000Y-89355356D01*
X119733000Y-88389986D01*
X119747718Y-88255431D01*
X119785978Y-88170317D01*
X119846171Y-88119719D01*
X119936258Y-88101108D01*
X120577103Y-88101108D01*
X120577103Y-88580679D01*
X120051883Y-88580679D01*
X120051883Y-89166678D01*
X120558345Y-89166678D01*
X121287703Y-88205705D01*
X121345860Y-88147898D01*
X121413344Y-88113167D01*
X121493013Y-88101108D01*
X122099566Y-88101108D01*
X122189653Y-88119719D01*
X122249847Y-88170317D01*
X122288106Y-88255431D01*
X122302825Y-88389986D01*
X122302825Y-89355356D01*
X122288199Y-89491445D01*
X122250329Y-89577109D01*
X122191107Y-89627717D01*
X122102937Y-89646249D01*
X121496237Y-89646249D01*
X121496237Y-89166678D01*
X121983942Y-89166678D01*
X121983942Y-88580679D01*
X121510306Y-88580679D01*
X120784318Y-89541652D01*
X120727036Y-89599071D01*
X120658581Y-89633984D01*
X120575637Y-89646249D01*
X119936258Y-89646249D01*
G37*
G36*
X119733000Y-91382816D02*
G01*
X119733000Y-90911488D01*
X121074186Y-90911488D01*
X121062462Y-90470752D01*
X119733000Y-90470752D01*
X119733000Y-90001439D01*
X122302825Y-90001439D01*
X122302825Y-90470752D01*
X121325072Y-90470752D01*
X121366545Y-90798648D01*
X121387323Y-90995345D01*
X121393069Y-91126544D01*
X121379118Y-91243234D01*
X121342111Y-91318929D01*
X121282054Y-91365363D01*
X121189810Y-91382816D01*
X119733000Y-91382816D01*
G37*
G36*
X121627542Y-92196511D02*
G01*
X121627542Y-91727198D01*
X122012078Y-91727198D01*
X122012078Y-92196511D01*
X121627542Y-92196511D01*
G37*
G36*
X119733000Y-92192481D02*
G01*
X119733000Y-91731411D01*
X121393069Y-91731411D01*
X121393069Y-92192481D01*
X119733000Y-92192481D01*
G37*
G36*
X121281487Y-92557365D02*
G01*
X121341581Y-92604868D01*
X121378917Y-92682948D01*
X121393069Y-92804126D01*
X121393069Y-93613608D01*
X121378921Y-93734686D01*
X121341592Y-93812713D01*
X121281499Y-93860192D01*
X121189810Y-93877940D01*
X120577103Y-93877940D01*
X120473935Y-93748796D01*
X120473935Y-93429144D01*
X120720571Y-93429144D01*
X121121080Y-93429144D01*
X121121080Y-92988407D01*
X120720571Y-92988407D01*
X120720571Y-93429144D01*
X120473935Y-93429144D01*
X120473935Y-92988407D01*
X120004988Y-92988407D01*
X120004988Y-93429144D01*
X120286356Y-93429144D01*
X120286356Y-93877940D01*
X119936258Y-93877940D01*
X119844570Y-93860192D01*
X119784477Y-93812713D01*
X119747148Y-93734686D01*
X119733000Y-93613608D01*
X119733000Y-92804126D01*
X119747152Y-92682948D01*
X119784488Y-92604868D01*
X119844582Y-92557365D01*
X119936258Y-92539611D01*
X121189810Y-92539611D01*
X121281487Y-92557365D01*
G37*
G36*
X119733000Y-94692551D02*
G01*
X119733000Y-94231481D01*
X122302825Y-94231481D01*
X122302825Y-94692551D01*
X119733000Y-94692551D01*
G37*
G36*
X121269701Y-95054564D02*
G01*
X121324582Y-95110998D01*
X121367131Y-95215902D01*
X121392044Y-95364141D01*
X121402448Y-95613590D01*
X121397759Y-95785598D01*
X121393069Y-95945516D01*
X122302825Y-95945516D01*
X122302825Y-96412814D01*
X119733000Y-96412814D01*
X119733000Y-95945516D01*
X119796307Y-95945516D01*
X119755765Y-95648395D01*
X120042504Y-95648395D01*
X120058917Y-95945516D01*
X121083565Y-95945516D01*
X121083565Y-95656638D01*
X121068923Y-95568297D01*
X121029567Y-95519226D01*
X120958561Y-95500933D01*
X120164137Y-95500933D01*
X120094736Y-95518454D01*
X120056590Y-95565109D01*
X120042504Y-95648395D01*
X119755765Y-95648395D01*
X119723621Y-95412823D01*
X119733615Y-95299687D01*
X119761602Y-95209120D01*
X119806712Y-95136035D01*
X119866715Y-95081674D01*
X119940857Y-95047773D01*
X120033125Y-95035651D01*
X121199189Y-95035651D01*
X121269701Y-95054564D01*
G37*
D13*
X156615561Y-86441728D02*
X156615561Y-85489347D01*
X156615561Y-85489347D02*
X158615561Y-85489347D01*
D11*
X112732780Y-93094197D02*
X113208971Y-92827530D01*
X112732780Y-92637054D02*
X113732780Y-92637054D01*
X113732780Y-92637054D02*
X113732780Y-92941816D01*
X113732780Y-92941816D02*
X113685161Y-93018006D01*
X113685161Y-93018006D02*
X113637542Y-93056101D01*
X113637542Y-93056101D02*
X113542304Y-93094197D01*
X113542304Y-93094197D02*
X113399447Y-93094197D01*
X113399447Y-93094197D02*
X113304209Y-93056101D01*
X113304209Y-93056101D02*
X113256590Y-93018006D01*
X113256590Y-93018006D02*
X113208971Y-92941816D01*
X113208971Y-92941816D02*
X113208971Y-92637054D01*
X112780400Y-93398958D02*
X112732780Y-93513244D01*
X112732780Y-93513244D02*
X112732780Y-93703720D01*
X112732780Y-93703720D02*
X112780400Y-93779911D01*
X112780400Y-93779911D02*
X112828019Y-93818006D01*
X112828019Y-93818006D02*
X112923257Y-93856101D01*
X112923257Y-93856101D02*
X113018495Y-93856101D01*
X113018495Y-93856101D02*
X113113733Y-93818006D01*
X113113733Y-93818006D02*
X113161352Y-93779911D01*
X113161352Y-93779911D02*
X113208971Y-93703720D01*
X113208971Y-93703720D02*
X113256590Y-93551339D01*
X113256590Y-93551339D02*
X113304209Y-93475149D01*
X113304209Y-93475149D02*
X113351828Y-93437054D01*
X113351828Y-93437054D02*
X113447066Y-93398958D01*
X113447066Y-93398958D02*
X113542304Y-93398958D01*
X113542304Y-93398958D02*
X113637542Y-93437054D01*
X113637542Y-93437054D02*
X113685161Y-93475149D01*
X113685161Y-93475149D02*
X113732780Y-93551339D01*
X113732780Y-93551339D02*
X113732780Y-93741816D01*
X113732780Y-93741816D02*
X113685161Y-93856101D01*
X113732780Y-94084673D02*
X113732780Y-94541816D01*
X112732780Y-94313244D02*
X113732780Y-94313244D01*
X112780400Y-95203006D02*
X112732780Y-95331578D01*
X112732780Y-95331578D02*
X112732780Y-95545863D01*
X112732780Y-95545863D02*
X112780400Y-95631578D01*
X112780400Y-95631578D02*
X112828019Y-95674435D01*
X112828019Y-95674435D02*
X112923257Y-95717292D01*
X112923257Y-95717292D02*
X113018495Y-95717292D01*
X113018495Y-95717292D02*
X113113733Y-95674435D01*
X113113733Y-95674435D02*
X113161352Y-95631578D01*
X113161352Y-95631578D02*
X113208971Y-95545863D01*
X113208971Y-95545863D02*
X113256590Y-95374435D01*
X113256590Y-95374435D02*
X113304209Y-95288720D01*
X113304209Y-95288720D02*
X113351828Y-95245863D01*
X113351828Y-95245863D02*
X113447066Y-95203006D01*
X113447066Y-95203006D02*
X113542304Y-95203006D01*
X113542304Y-95203006D02*
X113637542Y-95245863D01*
X113637542Y-95245863D02*
X113685161Y-95288720D01*
X113685161Y-95288720D02*
X113732780Y-95374435D01*
X113732780Y-95374435D02*
X113732780Y-95588720D01*
X113732780Y-95588720D02*
X113685161Y-95717292D01*
X112732780Y-96531578D02*
X112732780Y-96103006D01*
X112732780Y-96103006D02*
X113732780Y-96103006D01*
X113732780Y-96703006D02*
X113732780Y-97217292D01*
X112732780Y-96960149D02*
X113732780Y-96960149D01*
D12*
X146813984Y-88404848D02*
X146797913Y-88419134D01*
X146797913Y-88419134D02*
X146753270Y-88433419D01*
X146753270Y-88433419D02*
X146724699Y-88433419D01*
X146724699Y-88433419D02*
X146683627Y-88419134D01*
X146683627Y-88419134D02*
X146658627Y-88390562D01*
X146658627Y-88390562D02*
X146647913Y-88361991D01*
X146647913Y-88361991D02*
X146640770Y-88304848D01*
X146640770Y-88304848D02*
X146646127Y-88261991D01*
X146646127Y-88261991D02*
X146667556Y-88204848D01*
X146667556Y-88204848D02*
X146685413Y-88176276D01*
X146685413Y-88176276D02*
X146717556Y-88147705D01*
X146717556Y-88147705D02*
X146762199Y-88133419D01*
X146762199Y-88133419D02*
X146790770Y-88133419D01*
X146790770Y-88133419D02*
X146831842Y-88147705D01*
X146831842Y-88147705D02*
X146844342Y-88161991D01*
X146935413Y-88347705D02*
X147078270Y-88347705D01*
X146896127Y-88433419D02*
X147033627Y-88133419D01*
X147033627Y-88133419D02*
X147096127Y-88433419D01*
X147196127Y-88433419D02*
X147233627Y-88133419D01*
X147233627Y-88133419D02*
X147367556Y-88433419D01*
X147367556Y-88433419D02*
X147405056Y-88133419D01*
X147910413Y-88433419D02*
X147828270Y-88290562D01*
X147738984Y-88433419D02*
X147776484Y-88133419D01*
X147776484Y-88133419D02*
X147890770Y-88133419D01*
X147890770Y-88133419D02*
X147917556Y-88147705D01*
X147917556Y-88147705D02*
X147930056Y-88161991D01*
X147930056Y-88161991D02*
X147940770Y-88190562D01*
X147940770Y-88190562D02*
X147935413Y-88233419D01*
X147935413Y-88233419D02*
X147917556Y-88261991D01*
X147917556Y-88261991D02*
X147901484Y-88276276D01*
X147901484Y-88276276D02*
X147871127Y-88290562D01*
X147871127Y-88290562D02*
X147756842Y-88290562D01*
X148058627Y-88276276D02*
X148158627Y-88276276D01*
X148181842Y-88433419D02*
X148038984Y-88433419D01*
X148038984Y-88433419D02*
X148076484Y-88133419D01*
X148076484Y-88133419D02*
X148219342Y-88133419D01*
X148297913Y-88419134D02*
X148338985Y-88433419D01*
X148338985Y-88433419D02*
X148410413Y-88433419D01*
X148410413Y-88433419D02*
X148440771Y-88419134D01*
X148440771Y-88419134D02*
X148456842Y-88404848D01*
X148456842Y-88404848D02*
X148474699Y-88376276D01*
X148474699Y-88376276D02*
X148478271Y-88347705D01*
X148478271Y-88347705D02*
X148467556Y-88319134D01*
X148467556Y-88319134D02*
X148455056Y-88304848D01*
X148455056Y-88304848D02*
X148428271Y-88290562D01*
X148428271Y-88290562D02*
X148372913Y-88276276D01*
X148372913Y-88276276D02*
X148346128Y-88261991D01*
X148346128Y-88261991D02*
X148333628Y-88247705D01*
X148333628Y-88247705D02*
X148322913Y-88219134D01*
X148322913Y-88219134D02*
X148326485Y-88190562D01*
X148326485Y-88190562D02*
X148344342Y-88161991D01*
X148344342Y-88161991D02*
X148360413Y-88147705D01*
X148360413Y-88147705D02*
X148390771Y-88133419D01*
X148390771Y-88133419D02*
X148462199Y-88133419D01*
X148462199Y-88133419D02*
X148503271Y-88147705D01*
X148615770Y-88276276D02*
X148715770Y-88276276D01*
X148738985Y-88433419D02*
X148596127Y-88433419D01*
X148596127Y-88433419D02*
X148633627Y-88133419D01*
X148633627Y-88133419D02*
X148776485Y-88133419D01*
X148862199Y-88133419D02*
X149033628Y-88133419D01*
X148910414Y-88433419D02*
X148947914Y-88133419D01*
X146813984Y-88887831D02*
X146797913Y-88902117D01*
X146797913Y-88902117D02*
X146753270Y-88916402D01*
X146753270Y-88916402D02*
X146724699Y-88916402D01*
X146724699Y-88916402D02*
X146683627Y-88902117D01*
X146683627Y-88902117D02*
X146658627Y-88873545D01*
X146658627Y-88873545D02*
X146647913Y-88844974D01*
X146647913Y-88844974D02*
X146640770Y-88787831D01*
X146640770Y-88787831D02*
X146646127Y-88744974D01*
X146646127Y-88744974D02*
X146667556Y-88687831D01*
X146667556Y-88687831D02*
X146685413Y-88659259D01*
X146685413Y-88659259D02*
X146717556Y-88630688D01*
X146717556Y-88630688D02*
X146762199Y-88616402D01*
X146762199Y-88616402D02*
X146790770Y-88616402D01*
X146790770Y-88616402D02*
X146831842Y-88630688D01*
X146831842Y-88630688D02*
X146844342Y-88644974D01*
X146981842Y-88916402D02*
X146955056Y-88902117D01*
X146955056Y-88902117D02*
X146944342Y-88873545D01*
X146944342Y-88873545D02*
X146976484Y-88616402D01*
X147138985Y-88916402D02*
X147112199Y-88902117D01*
X147112199Y-88902117D02*
X147099699Y-88887831D01*
X147099699Y-88887831D02*
X147088985Y-88859259D01*
X147088985Y-88859259D02*
X147099699Y-88773545D01*
X147099699Y-88773545D02*
X147117556Y-88744974D01*
X147117556Y-88744974D02*
X147133627Y-88730688D01*
X147133627Y-88730688D02*
X147163985Y-88716402D01*
X147163985Y-88716402D02*
X147206842Y-88716402D01*
X147206842Y-88716402D02*
X147233627Y-88730688D01*
X147233627Y-88730688D02*
X147246127Y-88744974D01*
X147246127Y-88744974D02*
X147256842Y-88773545D01*
X147256842Y-88773545D02*
X147246127Y-88859259D01*
X147246127Y-88859259D02*
X147228270Y-88887831D01*
X147228270Y-88887831D02*
X147212199Y-88902117D01*
X147212199Y-88902117D02*
X147181842Y-88916402D01*
X147181842Y-88916402D02*
X147138985Y-88916402D01*
X147355056Y-88902117D02*
X147381842Y-88916402D01*
X147381842Y-88916402D02*
X147438985Y-88916402D01*
X147438985Y-88916402D02*
X147469342Y-88902117D01*
X147469342Y-88902117D02*
X147487199Y-88873545D01*
X147487199Y-88873545D02*
X147488985Y-88859259D01*
X147488985Y-88859259D02*
X147478271Y-88830688D01*
X147478271Y-88830688D02*
X147451485Y-88816402D01*
X147451485Y-88816402D02*
X147408628Y-88816402D01*
X147408628Y-88816402D02*
X147381842Y-88802117D01*
X147381842Y-88802117D02*
X147371128Y-88773545D01*
X147371128Y-88773545D02*
X147372914Y-88759259D01*
X147372914Y-88759259D02*
X147390771Y-88730688D01*
X147390771Y-88730688D02*
X147421128Y-88716402D01*
X147421128Y-88716402D02*
X147463985Y-88716402D01*
X147463985Y-88716402D02*
X147490771Y-88730688D01*
X147726485Y-88902117D02*
X147696128Y-88916402D01*
X147696128Y-88916402D02*
X147638985Y-88916402D01*
X147638985Y-88916402D02*
X147612199Y-88902117D01*
X147612199Y-88902117D02*
X147601485Y-88873545D01*
X147601485Y-88873545D02*
X147615771Y-88759259D01*
X147615771Y-88759259D02*
X147633628Y-88730688D01*
X147633628Y-88730688D02*
X147663985Y-88716402D01*
X147663985Y-88716402D02*
X147721128Y-88716402D01*
X147721128Y-88716402D02*
X147747913Y-88730688D01*
X147747913Y-88730688D02*
X147758628Y-88759259D01*
X147758628Y-88759259D02*
X147755056Y-88787831D01*
X147755056Y-88787831D02*
X147608628Y-88816402D01*
X147996128Y-88916402D02*
X148033628Y-88616402D01*
X147997914Y-88902117D02*
X147967556Y-88916402D01*
X147967556Y-88916402D02*
X147910414Y-88916402D01*
X147910414Y-88916402D02*
X147883628Y-88902117D01*
X147883628Y-88902117D02*
X147871128Y-88887831D01*
X147871128Y-88887831D02*
X147860414Y-88859259D01*
X147860414Y-88859259D02*
X147871128Y-88773545D01*
X147871128Y-88773545D02*
X147888985Y-88744974D01*
X147888985Y-88744974D02*
X147905056Y-88730688D01*
X147905056Y-88730688D02*
X147935414Y-88716402D01*
X147935414Y-88716402D02*
X147992556Y-88716402D01*
X147992556Y-88716402D02*
X148019342Y-88730688D01*
X146762199Y-89099385D02*
X146735413Y-89313671D01*
X146735413Y-89313671D02*
X146715770Y-89356528D01*
X146715770Y-89356528D02*
X146683627Y-89385100D01*
X146683627Y-89385100D02*
X146638984Y-89399385D01*
X146638984Y-89399385D02*
X146610413Y-89399385D01*
X147021127Y-89199385D02*
X146996127Y-89399385D01*
X146892555Y-89199385D02*
X146872913Y-89356528D01*
X146872913Y-89356528D02*
X146883627Y-89385100D01*
X146883627Y-89385100D02*
X146910413Y-89399385D01*
X146910413Y-89399385D02*
X146953270Y-89399385D01*
X146953270Y-89399385D02*
X146983627Y-89385100D01*
X146983627Y-89385100D02*
X146999698Y-89370814D01*
X147138984Y-89399385D02*
X147163984Y-89199385D01*
X147160413Y-89227957D02*
X147176484Y-89213671D01*
X147176484Y-89213671D02*
X147206842Y-89199385D01*
X147206842Y-89199385D02*
X147249699Y-89199385D01*
X147249699Y-89199385D02*
X147276484Y-89213671D01*
X147276484Y-89213671D02*
X147287199Y-89242242D01*
X147287199Y-89242242D02*
X147267556Y-89399385D01*
X147287199Y-89242242D02*
X147305056Y-89213671D01*
X147305056Y-89213671D02*
X147335413Y-89199385D01*
X147335413Y-89199385D02*
X147378270Y-89199385D01*
X147378270Y-89199385D02*
X147405056Y-89213671D01*
X147405056Y-89213671D02*
X147415770Y-89242242D01*
X147415770Y-89242242D02*
X147396127Y-89399385D01*
X147563984Y-89199385D02*
X147526484Y-89499385D01*
X147562199Y-89213671D02*
X147592556Y-89199385D01*
X147592556Y-89199385D02*
X147649699Y-89199385D01*
X147649699Y-89199385D02*
X147676484Y-89213671D01*
X147676484Y-89213671D02*
X147688984Y-89227957D01*
X147688984Y-89227957D02*
X147699699Y-89256528D01*
X147699699Y-89256528D02*
X147688984Y-89342242D01*
X147688984Y-89342242D02*
X147671127Y-89370814D01*
X147671127Y-89370814D02*
X147655056Y-89385100D01*
X147655056Y-89385100D02*
X147624699Y-89399385D01*
X147624699Y-89399385D02*
X147567556Y-89399385D01*
X147567556Y-89399385D02*
X147540770Y-89385100D01*
X137913984Y-91224848D02*
X137897913Y-91239134D01*
X137897913Y-91239134D02*
X137853270Y-91253419D01*
X137853270Y-91253419D02*
X137824699Y-91253419D01*
X137824699Y-91253419D02*
X137783627Y-91239134D01*
X137783627Y-91239134D02*
X137758627Y-91210562D01*
X137758627Y-91210562D02*
X137747913Y-91181991D01*
X137747913Y-91181991D02*
X137740770Y-91124848D01*
X137740770Y-91124848D02*
X137746127Y-91081991D01*
X137746127Y-91081991D02*
X137767556Y-91024848D01*
X137767556Y-91024848D02*
X137785413Y-90996276D01*
X137785413Y-90996276D02*
X137817556Y-90967705D01*
X137817556Y-90967705D02*
X137862199Y-90953419D01*
X137862199Y-90953419D02*
X137890770Y-90953419D01*
X137890770Y-90953419D02*
X137931842Y-90967705D01*
X137931842Y-90967705D02*
X137944342Y-90981991D01*
X138035413Y-91167705D02*
X138178270Y-91167705D01*
X137996127Y-91253419D02*
X138133627Y-90953419D01*
X138133627Y-90953419D02*
X138196127Y-91253419D01*
X138296127Y-91253419D02*
X138333627Y-90953419D01*
X138333627Y-90953419D02*
X138467556Y-91253419D01*
X138467556Y-91253419D02*
X138505056Y-90953419D01*
X139013984Y-91224848D02*
X138997913Y-91239134D01*
X138997913Y-91239134D02*
X138953270Y-91253419D01*
X138953270Y-91253419D02*
X138924699Y-91253419D01*
X138924699Y-91253419D02*
X138883627Y-91239134D01*
X138883627Y-91239134D02*
X138858627Y-91210562D01*
X138858627Y-91210562D02*
X138847913Y-91181991D01*
X138847913Y-91181991D02*
X138840770Y-91124848D01*
X138840770Y-91124848D02*
X138846127Y-91081991D01*
X138846127Y-91081991D02*
X138867556Y-91024848D01*
X138867556Y-91024848D02*
X138885413Y-90996276D01*
X138885413Y-90996276D02*
X138917556Y-90967705D01*
X138917556Y-90967705D02*
X138962199Y-90953419D01*
X138962199Y-90953419D02*
X138990770Y-90953419D01*
X138990770Y-90953419D02*
X139031842Y-90967705D01*
X139031842Y-90967705D02*
X139044342Y-90981991D01*
X139126484Y-91239134D02*
X139167556Y-91253419D01*
X139167556Y-91253419D02*
X139238984Y-91253419D01*
X139238984Y-91253419D02*
X139269342Y-91239134D01*
X139269342Y-91239134D02*
X139285413Y-91224848D01*
X139285413Y-91224848D02*
X139303270Y-91196276D01*
X139303270Y-91196276D02*
X139306842Y-91167705D01*
X139306842Y-91167705D02*
X139296127Y-91139134D01*
X139296127Y-91139134D02*
X139283627Y-91124848D01*
X139283627Y-91124848D02*
X139256842Y-91110562D01*
X139256842Y-91110562D02*
X139201484Y-91096276D01*
X139201484Y-91096276D02*
X139174699Y-91081991D01*
X139174699Y-91081991D02*
X139162199Y-91067705D01*
X139162199Y-91067705D02*
X139151484Y-91039134D01*
X139151484Y-91039134D02*
X139155056Y-91010562D01*
X139155056Y-91010562D02*
X139172913Y-90981991D01*
X139172913Y-90981991D02*
X139188984Y-90967705D01*
X139188984Y-90967705D02*
X139219342Y-90953419D01*
X139219342Y-90953419D02*
X139290770Y-90953419D01*
X139290770Y-90953419D02*
X139331842Y-90967705D01*
X137913984Y-91707831D02*
X137897913Y-91722117D01*
X137897913Y-91722117D02*
X137853270Y-91736402D01*
X137853270Y-91736402D02*
X137824699Y-91736402D01*
X137824699Y-91736402D02*
X137783627Y-91722117D01*
X137783627Y-91722117D02*
X137758627Y-91693545D01*
X137758627Y-91693545D02*
X137747913Y-91664974D01*
X137747913Y-91664974D02*
X137740770Y-91607831D01*
X137740770Y-91607831D02*
X137746127Y-91564974D01*
X137746127Y-91564974D02*
X137767556Y-91507831D01*
X137767556Y-91507831D02*
X137785413Y-91479259D01*
X137785413Y-91479259D02*
X137817556Y-91450688D01*
X137817556Y-91450688D02*
X137862199Y-91436402D01*
X137862199Y-91436402D02*
X137890770Y-91436402D01*
X137890770Y-91436402D02*
X137931842Y-91450688D01*
X137931842Y-91450688D02*
X137944342Y-91464974D01*
X138081842Y-91736402D02*
X138055056Y-91722117D01*
X138055056Y-91722117D02*
X138044342Y-91693545D01*
X138044342Y-91693545D02*
X138076484Y-91436402D01*
X138238985Y-91736402D02*
X138212199Y-91722117D01*
X138212199Y-91722117D02*
X138199699Y-91707831D01*
X138199699Y-91707831D02*
X138188985Y-91679259D01*
X138188985Y-91679259D02*
X138199699Y-91593545D01*
X138199699Y-91593545D02*
X138217556Y-91564974D01*
X138217556Y-91564974D02*
X138233627Y-91550688D01*
X138233627Y-91550688D02*
X138263985Y-91536402D01*
X138263985Y-91536402D02*
X138306842Y-91536402D01*
X138306842Y-91536402D02*
X138333627Y-91550688D01*
X138333627Y-91550688D02*
X138346127Y-91564974D01*
X138346127Y-91564974D02*
X138356842Y-91593545D01*
X138356842Y-91593545D02*
X138346127Y-91679259D01*
X138346127Y-91679259D02*
X138328270Y-91707831D01*
X138328270Y-91707831D02*
X138312199Y-91722117D01*
X138312199Y-91722117D02*
X138281842Y-91736402D01*
X138281842Y-91736402D02*
X138238985Y-91736402D01*
X138455056Y-91722117D02*
X138481842Y-91736402D01*
X138481842Y-91736402D02*
X138538985Y-91736402D01*
X138538985Y-91736402D02*
X138569342Y-91722117D01*
X138569342Y-91722117D02*
X138587199Y-91693545D01*
X138587199Y-91693545D02*
X138588985Y-91679259D01*
X138588985Y-91679259D02*
X138578271Y-91650688D01*
X138578271Y-91650688D02*
X138551485Y-91636402D01*
X138551485Y-91636402D02*
X138508628Y-91636402D01*
X138508628Y-91636402D02*
X138481842Y-91622117D01*
X138481842Y-91622117D02*
X138471128Y-91593545D01*
X138471128Y-91593545D02*
X138472914Y-91579259D01*
X138472914Y-91579259D02*
X138490771Y-91550688D01*
X138490771Y-91550688D02*
X138521128Y-91536402D01*
X138521128Y-91536402D02*
X138563985Y-91536402D01*
X138563985Y-91536402D02*
X138590771Y-91550688D01*
X138826485Y-91722117D02*
X138796128Y-91736402D01*
X138796128Y-91736402D02*
X138738985Y-91736402D01*
X138738985Y-91736402D02*
X138712199Y-91722117D01*
X138712199Y-91722117D02*
X138701485Y-91693545D01*
X138701485Y-91693545D02*
X138715771Y-91579259D01*
X138715771Y-91579259D02*
X138733628Y-91550688D01*
X138733628Y-91550688D02*
X138763985Y-91536402D01*
X138763985Y-91536402D02*
X138821128Y-91536402D01*
X138821128Y-91536402D02*
X138847913Y-91550688D01*
X138847913Y-91550688D02*
X138858628Y-91579259D01*
X138858628Y-91579259D02*
X138855056Y-91607831D01*
X138855056Y-91607831D02*
X138708628Y-91636402D01*
X139096128Y-91736402D02*
X139133628Y-91436402D01*
X139097914Y-91722117D02*
X139067556Y-91736402D01*
X139067556Y-91736402D02*
X139010414Y-91736402D01*
X139010414Y-91736402D02*
X138983628Y-91722117D01*
X138983628Y-91722117D02*
X138971128Y-91707831D01*
X138971128Y-91707831D02*
X138960414Y-91679259D01*
X138960414Y-91679259D02*
X138971128Y-91593545D01*
X138971128Y-91593545D02*
X138988985Y-91564974D01*
X138988985Y-91564974D02*
X139005056Y-91550688D01*
X139005056Y-91550688D02*
X139035414Y-91536402D01*
X139035414Y-91536402D02*
X139092556Y-91536402D01*
X139092556Y-91536402D02*
X139119342Y-91550688D01*
X137862199Y-91919385D02*
X137835413Y-92133671D01*
X137835413Y-92133671D02*
X137815770Y-92176528D01*
X137815770Y-92176528D02*
X137783627Y-92205100D01*
X137783627Y-92205100D02*
X137738984Y-92219385D01*
X137738984Y-92219385D02*
X137710413Y-92219385D01*
X138121127Y-92019385D02*
X138096127Y-92219385D01*
X137992555Y-92019385D02*
X137972913Y-92176528D01*
X137972913Y-92176528D02*
X137983627Y-92205100D01*
X137983627Y-92205100D02*
X138010413Y-92219385D01*
X138010413Y-92219385D02*
X138053270Y-92219385D01*
X138053270Y-92219385D02*
X138083627Y-92205100D01*
X138083627Y-92205100D02*
X138099698Y-92190814D01*
X138238984Y-92219385D02*
X138263984Y-92019385D01*
X138260413Y-92047957D02*
X138276484Y-92033671D01*
X138276484Y-92033671D02*
X138306842Y-92019385D01*
X138306842Y-92019385D02*
X138349699Y-92019385D01*
X138349699Y-92019385D02*
X138376484Y-92033671D01*
X138376484Y-92033671D02*
X138387199Y-92062242D01*
X138387199Y-92062242D02*
X138367556Y-92219385D01*
X138387199Y-92062242D02*
X138405056Y-92033671D01*
X138405056Y-92033671D02*
X138435413Y-92019385D01*
X138435413Y-92019385D02*
X138478270Y-92019385D01*
X138478270Y-92019385D02*
X138505056Y-92033671D01*
X138505056Y-92033671D02*
X138515770Y-92062242D01*
X138515770Y-92062242D02*
X138496127Y-92219385D01*
X138663984Y-92019385D02*
X138626484Y-92319385D01*
X138662199Y-92033671D02*
X138692556Y-92019385D01*
X138692556Y-92019385D02*
X138749699Y-92019385D01*
X138749699Y-92019385D02*
X138776484Y-92033671D01*
X138776484Y-92033671D02*
X138788984Y-92047957D01*
X138788984Y-92047957D02*
X138799699Y-92076528D01*
X138799699Y-92076528D02*
X138788984Y-92162242D01*
X138788984Y-92162242D02*
X138771127Y-92190814D01*
X138771127Y-92190814D02*
X138755056Y-92205100D01*
X138755056Y-92205100D02*
X138724699Y-92219385D01*
X138724699Y-92219385D02*
X138667556Y-92219385D01*
X138667556Y-92219385D02*
X138640770Y-92205100D01*
D13*
X156265561Y-98489347D02*
X158265561Y-98489347D01*
X157313180Y-98489347D02*
X157313180Y-99632204D01*
X156265561Y-99632204D02*
X158265561Y-99632204D01*
D14*
X138053333Y-89912295D02*
X138053333Y-90483723D01*
X138053333Y-90483723D02*
X138015238Y-90598009D01*
X138015238Y-90598009D02*
X137939047Y-90674200D01*
X137939047Y-90674200D02*
X137824762Y-90712295D01*
X137824762Y-90712295D02*
X137748571Y-90712295D01*
X138434286Y-90712295D02*
X138434286Y-89912295D01*
X138434286Y-89912295D02*
X138739048Y-89912295D01*
X138739048Y-89912295D02*
X138815238Y-89950390D01*
X138815238Y-89950390D02*
X138853333Y-89988485D01*
X138853333Y-89988485D02*
X138891429Y-90064676D01*
X138891429Y-90064676D02*
X138891429Y-90178961D01*
X138891429Y-90178961D02*
X138853333Y-90255152D01*
X138853333Y-90255152D02*
X138815238Y-90293247D01*
X138815238Y-90293247D02*
X138739048Y-90331342D01*
X138739048Y-90331342D02*
X138434286Y-90331342D01*
X139158095Y-89912295D02*
X139653333Y-89912295D01*
X139653333Y-89912295D02*
X139386667Y-90217057D01*
X139386667Y-90217057D02*
X139500952Y-90217057D01*
X139500952Y-90217057D02*
X139577143Y-90255152D01*
X139577143Y-90255152D02*
X139615238Y-90293247D01*
X139615238Y-90293247D02*
X139653333Y-90369438D01*
X139653333Y-90369438D02*
X139653333Y-90559914D01*
X139653333Y-90559914D02*
X139615238Y-90636104D01*
X139615238Y-90636104D02*
X139577143Y-90674200D01*
X139577143Y-90674200D02*
X139500952Y-90712295D01*
X139500952Y-90712295D02*
X139272381Y-90712295D01*
X139272381Y-90712295D02*
X139196190Y-90674200D01*
X139196190Y-90674200D02*
X139158095Y-90636104D01*
X140375202Y-89912295D02*
X140375202Y-90483723D01*
X140375202Y-90483723D02*
X140337107Y-90598009D01*
X140337107Y-90598009D02*
X140260916Y-90674200D01*
X140260916Y-90674200D02*
X140146631Y-90712295D01*
X140146631Y-90712295D02*
X140070440Y-90712295D01*
X140756155Y-90712295D02*
X140756155Y-89912295D01*
X140756155Y-89912295D02*
X141060917Y-89912295D01*
X141060917Y-89912295D02*
X141137107Y-89950390D01*
X141137107Y-89950390D02*
X141175202Y-89988485D01*
X141175202Y-89988485D02*
X141213298Y-90064676D01*
X141213298Y-90064676D02*
X141213298Y-90178961D01*
X141213298Y-90178961D02*
X141175202Y-90255152D01*
X141175202Y-90255152D02*
X141137107Y-90293247D01*
X141137107Y-90293247D02*
X141060917Y-90331342D01*
X141060917Y-90331342D02*
X140756155Y-90331342D01*
X141899012Y-90178961D02*
X141899012Y-90712295D01*
X141708536Y-89874200D02*
X141518059Y-90445628D01*
X141518059Y-90445628D02*
X142013298Y-90445628D01*
X157806666Y-95634819D02*
X157806666Y-96349104D01*
X157806666Y-96349104D02*
X157759047Y-96491961D01*
X157759047Y-96491961D02*
X157663809Y-96587200D01*
X157663809Y-96587200D02*
X157520952Y-96634819D01*
X157520952Y-96634819D02*
X157425714Y-96634819D01*
X158711428Y-95968152D02*
X158711428Y-96634819D01*
X158473333Y-95587200D02*
X158235238Y-96301485D01*
X158235238Y-96301485D02*
X158854285Y-96301485D01*
X134223333Y-88834819D02*
X133890000Y-88358628D01*
X133651905Y-88834819D02*
X133651905Y-87834819D01*
X133651905Y-87834819D02*
X134032857Y-87834819D01*
X134032857Y-87834819D02*
X134128095Y-87882438D01*
X134128095Y-87882438D02*
X134175714Y-87930057D01*
X134175714Y-87930057D02*
X134223333Y-88025295D01*
X134223333Y-88025295D02*
X134223333Y-88168152D01*
X134223333Y-88168152D02*
X134175714Y-88263390D01*
X134175714Y-88263390D02*
X134128095Y-88311009D01*
X134128095Y-88311009D02*
X134032857Y-88358628D01*
X134032857Y-88358628D02*
X133651905Y-88358628D01*
X135175714Y-88834819D02*
X134604286Y-88834819D01*
X134890000Y-88834819D02*
X134890000Y-87834819D01*
X134890000Y-87834819D02*
X134794762Y-87977676D01*
X134794762Y-87977676D02*
X134699524Y-88072914D01*
X134699524Y-88072914D02*
X134604286Y-88120533D01*
X146976666Y-86894819D02*
X146976666Y-87609104D01*
X146976666Y-87609104D02*
X146929047Y-87751961D01*
X146929047Y-87751961D02*
X146833809Y-87847200D01*
X146833809Y-87847200D02*
X146690952Y-87894819D01*
X146690952Y-87894819D02*
X146595714Y-87894819D01*
X147452857Y-87894819D02*
X147452857Y-86894819D01*
X147452857Y-86894819D02*
X147833809Y-86894819D01*
X147833809Y-86894819D02*
X147929047Y-86942438D01*
X147929047Y-86942438D02*
X147976666Y-86990057D01*
X147976666Y-86990057D02*
X148024285Y-87085295D01*
X148024285Y-87085295D02*
X148024285Y-87228152D01*
X148024285Y-87228152D02*
X147976666Y-87323390D01*
X147976666Y-87323390D02*
X147929047Y-87371009D01*
X147929047Y-87371009D02*
X147833809Y-87418628D01*
X147833809Y-87418628D02*
X147452857Y-87418628D01*
X148929047Y-86894819D02*
X148452857Y-86894819D01*
X148452857Y-86894819D02*
X148405238Y-87371009D01*
X148405238Y-87371009D02*
X148452857Y-87323390D01*
X148452857Y-87323390D02*
X148548095Y-87275771D01*
X148548095Y-87275771D02*
X148786190Y-87275771D01*
X148786190Y-87275771D02*
X148881428Y-87323390D01*
X148881428Y-87323390D02*
X148929047Y-87371009D01*
X148929047Y-87371009D02*
X148976666Y-87466247D01*
X148976666Y-87466247D02*
X148976666Y-87704342D01*
X148976666Y-87704342D02*
X148929047Y-87799580D01*
X148929047Y-87799580D02*
X148881428Y-87847200D01*
X148881428Y-87847200D02*
X148786190Y-87894819D01*
X148786190Y-87894819D02*
X148548095Y-87894819D01*
X148548095Y-87894819D02*
X148452857Y-87847200D01*
X148452857Y-87847200D02*
X148405238Y-87799580D01*
X146368595Y-95514819D02*
X146940023Y-95514819D01*
X146654309Y-96514819D02*
X146654309Y-95514819D01*
X147797166Y-96514819D02*
X147225738Y-96514819D01*
X147511452Y-96514819D02*
X147511452Y-95514819D01*
X147511452Y-95514819D02*
X147416214Y-95657676D01*
X147416214Y-95657676D02*
X147320976Y-95752914D01*
X147320976Y-95752914D02*
X147225738Y-95800533D01*
D15*
%TO.C,Ref\u002A\u002A*%
X133324542Y-89824051D02*
X133325945Y-89824155D01*
X133327341Y-89824326D01*
X133328728Y-89824563D01*
X133330104Y-89824864D01*
X133331466Y-89825226D01*
X133332814Y-89825649D01*
X133334143Y-89826131D01*
X133335454Y-89826670D01*
X133336742Y-89827265D01*
X133338008Y-89827912D01*
X133339247Y-89828612D01*
X133340459Y-89829362D01*
X133341642Y-89830161D01*
X133342792Y-89831006D01*
X133343909Y-89831897D01*
X133344990Y-89832831D01*
X133346033Y-89833806D01*
X133347036Y-89834822D01*
X133347997Y-89835876D01*
X133348914Y-89836966D01*
X133349784Y-89838092D01*
X133350607Y-89839251D01*
X133351379Y-89840441D01*
X133352099Y-89841661D01*
X133352765Y-89842909D01*
X133353375Y-89844184D01*
X133353926Y-89845483D01*
X133354416Y-89846805D01*
X133354844Y-89848149D01*
X133355207Y-89849512D01*
X133355504Y-89850893D01*
X133468210Y-90456931D01*
X133468501Y-90458324D01*
X133468856Y-90459722D01*
X133469746Y-90462525D01*
X133470865Y-90465322D01*
X133472197Y-90468094D01*
X133473726Y-90470824D01*
X133475437Y-90473492D01*
X133477313Y-90476081D01*
X133479340Y-90478573D01*
X133481500Y-90480949D01*
X133483780Y-90483191D01*
X133486162Y-90485280D01*
X133488632Y-90487199D01*
X133491173Y-90488929D01*
X133493770Y-90490452D01*
X133496407Y-90491750D01*
X133497736Y-90492309D01*
X133499069Y-90492804D01*
X133932490Y-90678619D01*
X133935085Y-90679816D01*
X133937835Y-90680822D01*
X133940716Y-90681638D01*
X133943705Y-90682265D01*
X133946778Y-90682707D01*
X133949912Y-90682964D01*
X133953082Y-90683037D01*
X133956265Y-90682929D01*
X133959437Y-90682640D01*
X133962575Y-90682173D01*
X133965654Y-90681529D01*
X133968652Y-90680709D01*
X133971544Y-90679716D01*
X133974307Y-90678550D01*
X133976916Y-90677213D01*
X133979349Y-90675707D01*
X134494028Y-90322547D01*
X134495207Y-90321779D01*
X134496422Y-90321070D01*
X134497670Y-90320422D01*
X134498947Y-90319832D01*
X134500251Y-90319302D01*
X134501580Y-90318831D01*
X134502930Y-90318419D01*
X134504300Y-90318065D01*
X134505685Y-90317770D01*
X134507085Y-90317532D01*
X134509914Y-90317229D01*
X134512766Y-90317155D01*
X134515619Y-90317306D01*
X134518451Y-90317683D01*
X134521242Y-90318281D01*
X134523970Y-90319099D01*
X134525303Y-90319590D01*
X134526613Y-90320135D01*
X134527896Y-90320735D01*
X134529150Y-90321387D01*
X134530372Y-90322094D01*
X134531559Y-90322853D01*
X134532709Y-90323665D01*
X134533820Y-90324530D01*
X134534887Y-90325448D01*
X134535910Y-90326417D01*
X134976963Y-90767508D01*
X134977935Y-90768527D01*
X134978856Y-90769591D01*
X134979723Y-90770699D01*
X134980538Y-90771846D01*
X134981299Y-90773031D01*
X134982006Y-90774251D01*
X134983260Y-90776784D01*
X134984297Y-90779424D01*
X134985116Y-90782149D01*
X134985713Y-90784939D01*
X134986088Y-90787771D01*
X134986238Y-90790624D01*
X134986161Y-90793477D01*
X134985856Y-90796309D01*
X134985321Y-90799097D01*
X134984553Y-90801820D01*
X134984081Y-90803151D01*
X134983550Y-90804458D01*
X134982961Y-90805738D01*
X134982311Y-90806988D01*
X134981603Y-90808206D01*
X134980834Y-90809389D01*
X134621444Y-91333064D01*
X134619929Y-91335480D01*
X134618580Y-91338080D01*
X134617399Y-91340839D01*
X134616387Y-91343734D01*
X134615546Y-91346739D01*
X134614877Y-91349831D01*
X134614383Y-91352985D01*
X134614064Y-91356176D01*
X134613924Y-91359381D01*
X134613962Y-91362575D01*
X134614181Y-91365734D01*
X134614583Y-91368833D01*
X134615170Y-91371848D01*
X134615942Y-91374754D01*
X134616902Y-91377528D01*
X134618051Y-91380145D01*
X134790040Y-91800331D01*
X134791054Y-91803005D01*
X134792313Y-91805654D01*
X134793799Y-91808261D01*
X134795494Y-91810811D01*
X134797380Y-91813288D01*
X134799438Y-91815677D01*
X134801651Y-91817963D01*
X134804000Y-91820129D01*
X134806467Y-91822161D01*
X134809033Y-91824042D01*
X134811681Y-91825757D01*
X134814392Y-91827291D01*
X134817149Y-91828628D01*
X134819933Y-91829752D01*
X134822725Y-91830648D01*
X134825508Y-91831301D01*
X135452376Y-91947951D01*
X135453754Y-91948242D01*
X135455114Y-91948599D01*
X135456455Y-91949021D01*
X135457776Y-91949507D01*
X135459073Y-91950054D01*
X135460346Y-91950659D01*
X135461593Y-91951321D01*
X135462813Y-91952039D01*
X135464002Y-91952808D01*
X135465161Y-91953629D01*
X135467377Y-91955413D01*
X135469448Y-91957374D01*
X135471359Y-91959496D01*
X135473096Y-91961761D01*
X135474647Y-91964154D01*
X135475997Y-91966658D01*
X135476592Y-91967946D01*
X135477132Y-91969255D01*
X135477615Y-91970583D01*
X135478040Y-91971929D01*
X135478403Y-91973290D01*
X135478704Y-91974664D01*
X135478942Y-91976049D01*
X135479114Y-91977442D01*
X135479218Y-91978843D01*
X135479253Y-91980248D01*
X135479253Y-92604057D01*
X135479218Y-92605465D01*
X135479114Y-92606869D01*
X135478942Y-92608265D01*
X135478704Y-92609653D01*
X135478403Y-92611029D01*
X135478040Y-92612393D01*
X135477615Y-92613741D01*
X135477132Y-92615071D01*
X135476592Y-92616382D01*
X135475997Y-92617672D01*
X135475348Y-92618938D01*
X135474647Y-92620178D01*
X135473896Y-92621391D01*
X135473096Y-92622574D01*
X135472250Y-92623724D01*
X135471359Y-92624841D01*
X135470424Y-92625922D01*
X135469448Y-92626965D01*
X135468431Y-92627967D01*
X135467377Y-92628927D01*
X135466286Y-92629843D01*
X135465161Y-92630712D01*
X135464002Y-92631533D01*
X135462813Y-92632303D01*
X135461593Y-92633020D01*
X135460346Y-92633683D01*
X135459073Y-92634288D01*
X135457776Y-92634835D01*
X135456455Y-92635321D01*
X135455114Y-92635743D01*
X135453754Y-92636101D01*
X135452376Y-92636391D01*
X134825507Y-92753079D01*
X134824118Y-92753374D01*
X134822724Y-92753732D01*
X134819932Y-92754629D01*
X134817148Y-92755755D01*
X134814392Y-92757093D01*
X134811680Y-92758629D01*
X134809032Y-92760347D01*
X134806466Y-92762230D01*
X134803999Y-92764264D01*
X134801650Y-92766431D01*
X134799438Y-92768718D01*
X134797379Y-92771107D01*
X134795493Y-92773584D01*
X134793798Y-92776132D01*
X134792312Y-92778736D01*
X134791653Y-92780054D01*
X134791053Y-92781380D01*
X134790515Y-92782712D01*
X134790040Y-92784048D01*
X134618050Y-93204197D01*
X134616901Y-93206807D01*
X134615941Y-93209576D01*
X134615169Y-93212478D01*
X134614583Y-93215489D01*
X134614181Y-93218585D01*
X134613962Y-93221741D01*
X134613923Y-93224934D01*
X134614064Y-93228139D01*
X134614382Y-93231331D01*
X134614877Y-93234486D01*
X134615545Y-93237580D01*
X134616386Y-93240588D01*
X134617398Y-93243486D01*
X134618579Y-93246250D01*
X134619928Y-93248856D01*
X134621443Y-93251278D01*
X134980834Y-93774990D01*
X134981602Y-93776170D01*
X134982311Y-93777385D01*
X134982960Y-93778631D01*
X134983549Y-93779908D01*
X134984080Y-93781211D01*
X134984552Y-93782539D01*
X134984965Y-93783888D01*
X134985320Y-93785256D01*
X134985617Y-93786640D01*
X134985855Y-93788038D01*
X134986161Y-93790864D01*
X134986237Y-93793713D01*
X134986087Y-93796562D01*
X134985712Y-93799391D01*
X134985115Y-93802179D01*
X134984297Y-93804903D01*
X134983806Y-93806235D01*
X134983260Y-93807543D01*
X134982660Y-93808825D01*
X134982006Y-93810078D01*
X134981298Y-93811299D01*
X134980537Y-93812486D01*
X134979723Y-93813635D01*
X134978855Y-93814745D01*
X134977935Y-93815812D01*
X134976962Y-93816835D01*
X134535909Y-94257888D01*
X134534887Y-94258860D01*
X134533819Y-94259779D01*
X134532709Y-94260646D01*
X134531559Y-94261459D01*
X134530371Y-94262218D01*
X134529149Y-94262924D01*
X134526612Y-94264173D01*
X134523969Y-94265206D01*
X134521242Y-94266019D01*
X134518451Y-94266612D01*
X134515618Y-94266983D01*
X134512765Y-94267130D01*
X134509914Y-94267052D01*
X134507084Y-94266746D01*
X134504299Y-94266212D01*
X134501579Y-94265448D01*
X134500251Y-94264979D01*
X134498946Y-94264452D01*
X134497669Y-94263866D01*
X134496422Y-94263222D01*
X134495207Y-94262520D01*
X134494027Y-94261758D01*
X133979348Y-93908635D01*
X133976916Y-93907116D01*
X133974306Y-93905767D01*
X133971544Y-93904591D01*
X133968652Y-93903589D01*
X133965654Y-93902762D01*
X133962575Y-93902113D01*
X133959437Y-93901642D01*
X133956265Y-93901351D01*
X133953081Y-93901242D01*
X133949911Y-93901315D01*
X133946778Y-93901573D01*
X133943705Y-93902017D01*
X133940715Y-93902649D01*
X133937834Y-93903470D01*
X133935084Y-93904481D01*
X133932489Y-93905683D01*
X133499068Y-94091462D01*
X133496406Y-94092523D01*
X133493769Y-94093827D01*
X133491172Y-94095357D01*
X133488631Y-94097093D01*
X133486161Y-94099017D01*
X133483779Y-94101111D01*
X133481499Y-94103356D01*
X133479339Y-94105734D01*
X133477312Y-94108227D01*
X133475436Y-94110815D01*
X133473725Y-94113482D01*
X133472196Y-94116207D01*
X133470864Y-94118974D01*
X133469745Y-94121763D01*
X133468855Y-94124555D01*
X133468209Y-94127334D01*
X133355503Y-94733410D01*
X133355503Y-94733409D01*
X133355206Y-94734783D01*
X133354843Y-94736141D01*
X133354415Y-94737479D01*
X133353925Y-94738796D01*
X133353373Y-94740091D01*
X133352764Y-94741362D01*
X133352098Y-94742606D01*
X133351378Y-94743824D01*
X133349782Y-94746168D01*
X133347994Y-94748380D01*
X133346029Y-94750447D01*
X133343903Y-94752355D01*
X133341634Y-94754089D01*
X133339237Y-94755636D01*
X133336729Y-94756982D01*
X133335439Y-94757576D01*
X133334127Y-94758114D01*
X133332795Y-94758594D01*
X133331446Y-94759016D01*
X133330081Y-94759377D01*
X133328703Y-94759676D01*
X133327313Y-94759911D01*
X133325914Y-94760080D01*
X133324507Y-94760181D01*
X133323096Y-94760213D01*
X132699324Y-94760139D01*
X132697915Y-94760103D01*
X132696511Y-94759999D01*
X132695113Y-94759827D01*
X132693725Y-94759589D01*
X132692346Y-94759287D01*
X132690981Y-94758922D01*
X132689631Y-94758497D01*
X132688298Y-94758013D01*
X132686985Y-94757472D01*
X132685693Y-94756876D01*
X132684424Y-94756225D01*
X132683181Y-94755523D01*
X132681965Y-94754771D01*
X132680780Y-94753970D01*
X132679626Y-94753123D01*
X132678507Y-94752231D01*
X132677424Y-94751295D01*
X132676379Y-94750318D01*
X132675374Y-94749302D01*
X132674412Y-94748247D01*
X132673494Y-94747156D01*
X132672624Y-94746031D01*
X132671802Y-94744873D01*
X132671031Y-94743683D01*
X132670313Y-94742465D01*
X132669651Y-94741219D01*
X132669046Y-94739947D01*
X132668500Y-94738651D01*
X132668016Y-94737333D01*
X132667595Y-94735995D01*
X132667240Y-94734637D01*
X132666953Y-94733262D01*
X132556939Y-94142082D01*
X132556654Y-94140691D01*
X132556304Y-94139296D01*
X132555892Y-94137900D01*
X132555419Y-94136506D01*
X132554300Y-94133731D01*
X132552964Y-94130988D01*
X132551427Y-94128295D01*
X132549704Y-94125670D01*
X132547812Y-94123130D01*
X132545768Y-94120692D01*
X132543587Y-94118376D01*
X132541286Y-94116197D01*
X132538881Y-94114175D01*
X132536387Y-94112326D01*
X132533823Y-94110668D01*
X132531202Y-94109220D01*
X132528542Y-94107998D01*
X132527203Y-94107477D01*
X132525860Y-94107020D01*
X132064824Y-93922459D01*
X132062201Y-93921317D01*
X132059424Y-93920365D01*
X132056516Y-93919601D01*
X132053501Y-93919023D01*
X132050404Y-93918630D01*
X132047248Y-93918419D01*
X132044057Y-93918388D01*
X132040855Y-93918536D01*
X132037667Y-93918861D01*
X132034516Y-93919361D01*
X132031427Y-93920033D01*
X132028423Y-93920877D01*
X132025529Y-93921890D01*
X132022768Y-93923070D01*
X132020165Y-93924416D01*
X132017744Y-93925925D01*
X131528393Y-94261756D01*
X131527213Y-94262524D01*
X131525998Y-94263233D01*
X131524750Y-94263882D01*
X131523472Y-94264472D01*
X131522167Y-94265003D01*
X131520837Y-94265475D01*
X131519486Y-94265888D01*
X131518115Y-94266243D01*
X131516728Y-94266540D01*
X131515327Y-94266779D01*
X131512495Y-94267084D01*
X131509640Y-94267161D01*
X131506784Y-94267011D01*
X131503948Y-94266636D01*
X131501154Y-94266039D01*
X131498423Y-94265220D01*
X131497088Y-94264729D01*
X131495777Y-94264183D01*
X131494493Y-94263583D01*
X131493238Y-94262929D01*
X131492015Y-94262222D01*
X131490826Y-94261460D01*
X131489675Y-94260646D01*
X131488565Y-94259778D01*
X131487497Y-94258858D01*
X131486474Y-94257885D01*
X131045421Y-93816758D01*
X131044454Y-93815742D01*
X131043540Y-93814680D01*
X131042679Y-93813575D01*
X131041870Y-93812430D01*
X131041113Y-93811247D01*
X131040410Y-93810029D01*
X131039164Y-93807498D01*
X131038133Y-93804859D01*
X131037320Y-93802135D01*
X131036725Y-93799345D01*
X131036352Y-93796513D01*
X131036201Y-93793660D01*
X131036275Y-93790807D01*
X131036576Y-93787977D01*
X131037106Y-93785190D01*
X131037867Y-93782468D01*
X131038334Y-93781139D01*
X131038860Y-93779834D01*
X131039444Y-93778556D01*
X131040087Y-93777308D01*
X131040789Y-93776093D01*
X131041551Y-93774913D01*
X131371484Y-93294190D01*
X131372989Y-93291773D01*
X131374308Y-93289185D01*
X131375442Y-93286449D01*
X131376390Y-93283588D01*
X131377151Y-93280626D01*
X131377724Y-93277586D01*
X131378111Y-93274493D01*
X131378309Y-93271369D01*
X131378319Y-93268238D01*
X131378140Y-93265123D01*
X131377771Y-93262049D01*
X131377213Y-93259039D01*
X131376465Y-93256115D01*
X131375525Y-93253303D01*
X131374395Y-93250625D01*
X131373073Y-93248105D01*
X131259888Y-93036113D01*
X131259285Y-93034846D01*
X131258755Y-93033568D01*
X131258297Y-93032281D01*
X131257911Y-93030989D01*
X131257595Y-93029692D01*
X131257348Y-93028394D01*
X131257170Y-93027096D01*
X131257061Y-93025801D01*
X131257018Y-93024511D01*
X131257042Y-93023228D01*
X131257131Y-93021955D01*
X131257285Y-93020693D01*
X131257503Y-93019444D01*
X131257784Y-93018212D01*
X131258128Y-93016998D01*
X131258533Y-93015804D01*
X131258999Y-93014632D01*
X131259524Y-93013486D01*
X131260109Y-93012366D01*
X131260752Y-93011276D01*
X131261452Y-93010217D01*
X131262209Y-93009192D01*
X131263022Y-93008202D01*
X131263890Y-93007251D01*
X131264813Y-93006340D01*
X131265788Y-93005471D01*
X131266816Y-93004647D01*
X131267896Y-93003870D01*
X131269027Y-93003141D01*
X131270209Y-93002464D01*
X131271439Y-93001841D01*
X131272718Y-93001273D01*
X132328916Y-92564202D01*
X132330230Y-92563696D01*
X132331564Y-92563258D01*
X132332915Y-92562885D01*
X132334281Y-92562578D01*
X132335660Y-92562336D01*
X132337049Y-92562157D01*
X132338445Y-92562040D01*
X132339846Y-92561986D01*
X132341249Y-92561992D01*
X132342652Y-92562059D01*
X132344052Y-92562185D01*
X132345448Y-92562370D01*
X132346835Y-92562612D01*
X132348213Y-92562911D01*
X132349577Y-92563266D01*
X132350927Y-92563676D01*
X132352259Y-92564140D01*
X132353570Y-92564658D01*
X132354859Y-92565228D01*
X132356123Y-92565849D01*
X132357359Y-92566522D01*
X132358564Y-92567245D01*
X132359737Y-92568016D01*
X132360874Y-92568836D01*
X132361974Y-92569703D01*
X132363033Y-92570617D01*
X132364050Y-92571577D01*
X132365021Y-92572582D01*
X132365944Y-92573630D01*
X132366817Y-92574722D01*
X132367637Y-92575856D01*
X132368402Y-92577031D01*
X132400883Y-92630085D01*
X132403315Y-92633903D01*
X132406090Y-92637980D01*
X132409150Y-92642239D01*
X132412432Y-92646601D01*
X132415876Y-92650992D01*
X132419423Y-92655333D01*
X132423011Y-92659549D01*
X132426580Y-92663561D01*
X132450619Y-92698681D01*
X132476719Y-92732199D01*
X132504791Y-92764022D01*
X132534741Y-92794059D01*
X132566481Y-92822220D01*
X132599918Y-92848411D01*
X132634962Y-92872542D01*
X132671522Y-92894522D01*
X132709507Y-92914258D01*
X132748826Y-92931659D01*
X132789387Y-92946635D01*
X132831101Y-92959093D01*
X132873876Y-92968941D01*
X132917621Y-92976089D01*
X132962246Y-92980445D01*
X133007658Y-92981917D01*
X133043158Y-92981020D01*
X133078191Y-92978356D01*
X133112715Y-92973969D01*
X133146687Y-92967903D01*
X133180062Y-92960200D01*
X133212798Y-92950905D01*
X133244851Y-92940059D01*
X133276177Y-92927708D01*
X133306735Y-92913894D01*
X133336479Y-92898660D01*
X133365368Y-92882050D01*
X133393356Y-92864108D01*
X133420403Y-92844876D01*
X133446462Y-92824397D01*
X133471493Y-92802716D01*
X133495450Y-92779876D01*
X133518292Y-92755919D01*
X133539973Y-92730890D01*
X133560452Y-92704831D01*
X133579685Y-92677786D01*
X133597628Y-92649799D01*
X133614238Y-92620912D01*
X133629472Y-92591169D01*
X133643287Y-92560614D01*
X133655638Y-92529289D01*
X133666484Y-92497238D01*
X133675779Y-92464504D01*
X133683482Y-92431132D01*
X133689549Y-92397163D01*
X133693935Y-92362642D01*
X133696599Y-92327611D01*
X133697497Y-92292115D01*
X133696599Y-92256619D01*
X133693935Y-92221588D01*
X133689549Y-92187066D01*
X133683482Y-92153097D01*
X133675779Y-92119723D01*
X133666484Y-92086988D01*
X133655638Y-92054937D01*
X133643287Y-92023610D01*
X133629473Y-91993054D01*
X133614239Y-91963309D01*
X133597628Y-91934421D01*
X133579685Y-91906432D01*
X133560453Y-91879385D01*
X133539974Y-91853325D01*
X133518292Y-91828294D01*
X133495451Y-91804336D01*
X133471493Y-91781493D01*
X133446463Y-91759811D01*
X133420403Y-91739331D01*
X133393357Y-91720097D01*
X133365368Y-91702153D01*
X133336480Y-91685541D01*
X133306735Y-91670306D01*
X133276178Y-91656491D01*
X133244851Y-91644138D01*
X133212798Y-91633292D01*
X133180062Y-91623995D01*
X133146687Y-91616292D01*
X133112715Y-91610225D01*
X133078191Y-91605837D01*
X133043158Y-91603173D01*
X133007658Y-91602276D01*
X132984859Y-91602646D01*
X132962246Y-91603748D01*
X132939829Y-91605572D01*
X132917621Y-91608105D01*
X132895633Y-91611337D01*
X132873876Y-91615255D01*
X132852362Y-91619848D01*
X132831101Y-91625106D01*
X132810106Y-91631015D01*
X132789387Y-91637565D01*
X132768957Y-91644745D01*
X132748826Y-91652543D01*
X132729005Y-91660947D01*
X132709507Y-91669947D01*
X132671522Y-91689685D01*
X132634962Y-91711666D01*
X132599918Y-91735798D01*
X132566481Y-91761989D01*
X132534741Y-91790149D01*
X132504791Y-91820184D01*
X132476719Y-91852004D01*
X132450619Y-91885517D01*
X132426580Y-91920631D01*
X132423011Y-91924666D01*
X132419423Y-91928896D01*
X132415876Y-91933246D01*
X132412432Y-91937641D01*
X132409149Y-91942007D01*
X132406090Y-91946269D01*
X132403315Y-91950352D01*
X132400883Y-91954182D01*
X132368402Y-92007234D01*
X132367637Y-92008417D01*
X132366817Y-92009557D01*
X132365944Y-92010654D01*
X132365021Y-92011707D01*
X132364050Y-92012716D01*
X132363033Y-92013679D01*
X132360874Y-92015466D01*
X132358564Y-92017061D01*
X132356122Y-92018459D01*
X132353570Y-92019651D01*
X132350926Y-92020632D01*
X132348212Y-92021394D01*
X132345447Y-92021932D01*
X132342651Y-92022238D01*
X132339845Y-92022306D01*
X132337048Y-92022130D01*
X132335660Y-92021947D01*
X132334281Y-92021702D01*
X132332915Y-92021391D01*
X132331564Y-92021016D01*
X132330230Y-92020574D01*
X132328916Y-92020065D01*
X131272756Y-91582956D01*
X131271477Y-91582388D01*
X131270247Y-91581765D01*
X131269065Y-91581087D01*
X131267934Y-91580358D01*
X131266853Y-91579580D01*
X131265824Y-91578755D01*
X131264847Y-91577886D01*
X131263924Y-91576973D01*
X131263055Y-91576021D01*
X131262241Y-91575030D01*
X131261482Y-91574004D01*
X131260780Y-91572944D01*
X131260136Y-91571852D01*
X131259550Y-91570732D01*
X131259024Y-91569584D01*
X131258557Y-91568412D01*
X131258151Y-91567217D01*
X131257806Y-91566002D01*
X131257525Y-91564770D01*
X131257306Y-91563521D01*
X131257152Y-91562259D01*
X131257062Y-91560985D01*
X131257039Y-91559702D01*
X131257082Y-91558413D01*
X131257192Y-91557119D01*
X131257371Y-91555822D01*
X131257619Y-91554525D01*
X131257937Y-91553230D01*
X131258326Y-91551940D01*
X131258786Y-91550656D01*
X131259319Y-91549380D01*
X131259926Y-91548116D01*
X131373111Y-91336125D01*
X131374431Y-91333611D01*
X131375559Y-91330937D01*
X131376495Y-91328128D01*
X131377241Y-91325207D01*
X131377797Y-91322197D01*
X131378163Y-91319123D01*
X131378340Y-91316008D01*
X131378328Y-91312875D01*
X131378129Y-91309749D01*
X131377742Y-91306653D01*
X131377169Y-91303611D01*
X131376409Y-91300647D01*
X131375464Y-91297784D01*
X131374334Y-91295046D01*
X131373020Y-91292457D01*
X131371521Y-91290040D01*
X131041589Y-90809353D01*
X131040827Y-90808170D01*
X131040124Y-90806952D01*
X131039481Y-90805702D01*
X131038896Y-90804422D01*
X131038371Y-90803115D01*
X131037903Y-90801784D01*
X131037494Y-90800432D01*
X131037143Y-90799061D01*
X131036849Y-90797673D01*
X131036613Y-90796273D01*
X131036312Y-90793441D01*
X131036238Y-90790588D01*
X131036389Y-90787735D01*
X131036763Y-90784903D01*
X131037358Y-90782113D01*
X131038171Y-90779388D01*
X131038660Y-90778056D01*
X131039202Y-90776748D01*
X131039799Y-90775466D01*
X131040448Y-90774215D01*
X131041152Y-90772995D01*
X131041908Y-90771810D01*
X131042717Y-90770662D01*
X131043578Y-90769555D01*
X131044492Y-90768491D01*
X131045458Y-90767472D01*
X131486512Y-90326345D01*
X131487534Y-90325375D01*
X131488602Y-90324458D01*
X131489713Y-90323594D01*
X131490864Y-90322782D01*
X131492052Y-90322024D01*
X131493275Y-90321318D01*
X131495815Y-90320068D01*
X131498460Y-90319034D01*
X131501191Y-90318218D01*
X131503985Y-90317622D01*
X131506821Y-90317248D01*
X131509678Y-90317097D01*
X131512533Y-90317173D01*
X131515365Y-90317476D01*
X131518153Y-90318008D01*
X131520875Y-90318772D01*
X131522204Y-90319242D01*
X131523510Y-90319770D01*
X131524787Y-90320357D01*
X131526035Y-90321003D01*
X131527250Y-90321709D01*
X131528430Y-90322474D01*
X132017781Y-90658269D01*
X132020203Y-90659790D01*
X132022806Y-90661146D01*
X132025567Y-90662334D01*
X132028461Y-90663353D01*
X132031465Y-90664201D01*
X132034554Y-90664876D01*
X132037705Y-90665377D01*
X132040893Y-90665703D01*
X132044094Y-90665850D01*
X132047285Y-90665819D01*
X132050442Y-90665606D01*
X132053539Y-90665211D01*
X132056554Y-90664632D01*
X132059462Y-90663867D01*
X132062239Y-90662914D01*
X132064862Y-90661771D01*
X132525897Y-90477209D01*
X132527241Y-90476755D01*
X132528580Y-90476236D01*
X132531240Y-90475016D01*
X132533860Y-90473567D01*
X132536425Y-90471906D01*
X132538919Y-90470053D01*
X132541324Y-90468025D01*
X132543625Y-90465840D01*
X132545806Y-90463517D01*
X132547850Y-90461073D01*
X132549742Y-90458527D01*
X132551465Y-90455896D01*
X132553002Y-90453199D01*
X132554339Y-90450454D01*
X132555457Y-90447679D01*
X132556342Y-90444892D01*
X132556692Y-90443499D01*
X132556977Y-90442111D01*
X132666992Y-89850930D01*
X132667279Y-89849552D01*
X132667634Y-89848192D01*
X132668054Y-89846851D01*
X132668538Y-89845530D01*
X132669084Y-89844233D01*
X132669689Y-89842960D01*
X132670352Y-89841712D01*
X132671070Y-89840493D01*
X132671840Y-89839303D01*
X132672662Y-89838145D01*
X132674450Y-89835929D01*
X132676417Y-89833858D01*
X132678545Y-89831947D01*
X132680818Y-89830210D01*
X132683219Y-89828659D01*
X132685731Y-89827309D01*
X132688337Y-89826173D01*
X132689670Y-89825691D01*
X132691020Y-89825266D01*
X132692385Y-89824903D01*
X132693763Y-89824602D01*
X132695152Y-89824364D01*
X132696549Y-89824192D01*
X132697954Y-89824088D01*
X132699362Y-89824053D01*
X133323133Y-89824016D01*
X133324542Y-89824051D01*
G36*
X133324542Y-89824051D02*
G01*
X133325945Y-89824155D01*
X133327341Y-89824326D01*
X133328728Y-89824563D01*
X133330104Y-89824864D01*
X133331466Y-89825226D01*
X133332814Y-89825649D01*
X133334143Y-89826131D01*
X133335454Y-89826670D01*
X133336742Y-89827265D01*
X133338008Y-89827912D01*
X133339247Y-89828612D01*
X133340459Y-89829362D01*
X133341642Y-89830161D01*
X133342792Y-89831006D01*
X133343909Y-89831897D01*
X133344990Y-89832831D01*
X133346033Y-89833806D01*
X133347036Y-89834822D01*
X133347997Y-89835876D01*
X133348914Y-89836966D01*
X133349784Y-89838092D01*
X133350607Y-89839251D01*
X133351379Y-89840441D01*
X133352099Y-89841661D01*
X133352765Y-89842909D01*
X133353375Y-89844184D01*
X133353926Y-89845483D01*
X133354416Y-89846805D01*
X133354844Y-89848149D01*
X133355207Y-89849512D01*
X133355504Y-89850893D01*
X133468210Y-90456931D01*
X133468501Y-90458324D01*
X133468856Y-90459722D01*
X133469746Y-90462525D01*
X133470865Y-90465322D01*
X133472197Y-90468094D01*
X133473726Y-90470824D01*
X133475437Y-90473492D01*
X133477313Y-90476081D01*
X133479340Y-90478573D01*
X133481500Y-90480949D01*
X133483780Y-90483191D01*
X133486162Y-90485280D01*
X133488632Y-90487199D01*
X133491173Y-90488929D01*
X133493770Y-90490452D01*
X133496407Y-90491750D01*
X133497736Y-90492309D01*
X133499069Y-90492804D01*
X133932490Y-90678619D01*
X133935085Y-90679816D01*
X133937835Y-90680822D01*
X133940716Y-90681638D01*
X133943705Y-90682265D01*
X133946778Y-90682707D01*
X133949912Y-90682964D01*
X133953082Y-90683037D01*
X133956265Y-90682929D01*
X133959437Y-90682640D01*
X133962575Y-90682173D01*
X133965654Y-90681529D01*
X133968652Y-90680709D01*
X133971544Y-90679716D01*
X133974307Y-90678550D01*
X133976916Y-90677213D01*
X133979349Y-90675707D01*
X134494028Y-90322547D01*
X134495207Y-90321779D01*
X134496422Y-90321070D01*
X134497670Y-90320422D01*
X134498947Y-90319832D01*
X134500251Y-90319302D01*
X134501580Y-90318831D01*
X134502930Y-90318419D01*
X134504300Y-90318065D01*
X134505685Y-90317770D01*
X134507085Y-90317532D01*
X134509914Y-90317229D01*
X134512766Y-90317155D01*
X134515619Y-90317306D01*
X134518451Y-90317683D01*
X134521242Y-90318281D01*
X134523970Y-90319099D01*
X134525303Y-90319590D01*
X134526613Y-90320135D01*
X134527896Y-90320735D01*
X134529150Y-90321387D01*
X134530372Y-90322094D01*
X134531559Y-90322853D01*
X134532709Y-90323665D01*
X134533820Y-90324530D01*
X134534887Y-90325448D01*
X134535910Y-90326417D01*
X134976963Y-90767508D01*
X134977935Y-90768527D01*
X134978856Y-90769591D01*
X134979723Y-90770699D01*
X134980538Y-90771846D01*
X134981299Y-90773031D01*
X134982006Y-90774251D01*
X134983260Y-90776784D01*
X134984297Y-90779424D01*
X134985116Y-90782149D01*
X134985713Y-90784939D01*
X134986088Y-90787771D01*
X134986238Y-90790624D01*
X134986161Y-90793477D01*
X134985856Y-90796309D01*
X134985321Y-90799097D01*
X134984553Y-90801820D01*
X134984081Y-90803151D01*
X134983550Y-90804458D01*
X134982961Y-90805738D01*
X134982311Y-90806988D01*
X134981603Y-90808206D01*
X134980834Y-90809389D01*
X134621444Y-91333064D01*
X134619929Y-91335480D01*
X134618580Y-91338080D01*
X134617399Y-91340839D01*
X134616387Y-91343734D01*
X134615546Y-91346739D01*
X134614877Y-91349831D01*
X134614383Y-91352985D01*
X134614064Y-91356176D01*
X134613924Y-91359381D01*
X134613962Y-91362575D01*
X134614181Y-91365734D01*
X134614583Y-91368833D01*
X134615170Y-91371848D01*
X134615942Y-91374754D01*
X134616902Y-91377528D01*
X134618051Y-91380145D01*
X134790040Y-91800331D01*
X134791054Y-91803005D01*
X134792313Y-91805654D01*
X134793799Y-91808261D01*
X134795494Y-91810811D01*
X134797380Y-91813288D01*
X134799438Y-91815677D01*
X134801651Y-91817963D01*
X134804000Y-91820129D01*
X134806467Y-91822161D01*
X134809033Y-91824042D01*
X134811681Y-91825757D01*
X134814392Y-91827291D01*
X134817149Y-91828628D01*
X134819933Y-91829752D01*
X134822725Y-91830648D01*
X134825508Y-91831301D01*
X135452376Y-91947951D01*
X135453754Y-91948242D01*
X135455114Y-91948599D01*
X135456455Y-91949021D01*
X135457776Y-91949507D01*
X135459073Y-91950054D01*
X135460346Y-91950659D01*
X135461593Y-91951321D01*
X135462813Y-91952039D01*
X135464002Y-91952808D01*
X135465161Y-91953629D01*
X135467377Y-91955413D01*
X135469448Y-91957374D01*
X135471359Y-91959496D01*
X135473096Y-91961761D01*
X135474647Y-91964154D01*
X135475997Y-91966658D01*
X135476592Y-91967946D01*
X135477132Y-91969255D01*
X135477615Y-91970583D01*
X135478040Y-91971929D01*
X135478403Y-91973290D01*
X135478704Y-91974664D01*
X135478942Y-91976049D01*
X135479114Y-91977442D01*
X135479218Y-91978843D01*
X135479253Y-91980248D01*
X135479253Y-92604057D01*
X135479218Y-92605465D01*
X135479114Y-92606869D01*
X135478942Y-92608265D01*
X135478704Y-92609653D01*
X135478403Y-92611029D01*
X135478040Y-92612393D01*
X135477615Y-92613741D01*
X135477132Y-92615071D01*
X135476592Y-92616382D01*
X135475997Y-92617672D01*
X135475348Y-92618938D01*
X135474647Y-92620178D01*
X135473896Y-92621391D01*
X135473096Y-92622574D01*
X135472250Y-92623724D01*
X135471359Y-92624841D01*
X135470424Y-92625922D01*
X135469448Y-92626965D01*
X135468431Y-92627967D01*
X135467377Y-92628927D01*
X135466286Y-92629843D01*
X135465161Y-92630712D01*
X135464002Y-92631533D01*
X135462813Y-92632303D01*
X135461593Y-92633020D01*
X135460346Y-92633683D01*
X135459073Y-92634288D01*
X135457776Y-92634835D01*
X135456455Y-92635321D01*
X135455114Y-92635743D01*
X135453754Y-92636101D01*
X135452376Y-92636391D01*
X134825507Y-92753079D01*
X134824118Y-92753374D01*
X134822724Y-92753732D01*
X134819932Y-92754629D01*
X134817148Y-92755755D01*
X134814392Y-92757093D01*
X134811680Y-92758629D01*
X134809032Y-92760347D01*
X134806466Y-92762230D01*
X134803999Y-92764264D01*
X134801650Y-92766431D01*
X134799438Y-92768718D01*
X134797379Y-92771107D01*
X134795493Y-92773584D01*
X134793798Y-92776132D01*
X134792312Y-92778736D01*
X134791653Y-92780054D01*
X134791053Y-92781380D01*
X134790515Y-92782712D01*
X134790040Y-92784048D01*
X134618050Y-93204197D01*
X134616901Y-93206807D01*
X134615941Y-93209576D01*
X134615169Y-93212478D01*
X134614583Y-93215489D01*
X134614181Y-93218585D01*
X134613962Y-93221741D01*
X134613923Y-93224934D01*
X134614064Y-93228139D01*
X134614382Y-93231331D01*
X134614877Y-93234486D01*
X134615545Y-93237580D01*
X134616386Y-93240588D01*
X134617398Y-93243486D01*
X134618579Y-93246250D01*
X134619928Y-93248856D01*
X134621443Y-93251278D01*
X134980834Y-93774990D01*
X134981602Y-93776170D01*
X134982311Y-93777385D01*
X134982960Y-93778631D01*
X134983549Y-93779908D01*
X134984080Y-93781211D01*
X134984552Y-93782539D01*
X134984965Y-93783888D01*
X134985320Y-93785256D01*
X134985617Y-93786640D01*
X134985855Y-93788038D01*
X134986161Y-93790864D01*
X134986237Y-93793713D01*
X134986087Y-93796562D01*
X134985712Y-93799391D01*
X134985115Y-93802179D01*
X134984297Y-93804903D01*
X134983806Y-93806235D01*
X134983260Y-93807543D01*
X134982660Y-93808825D01*
X134982006Y-93810078D01*
X134981298Y-93811299D01*
X134980537Y-93812486D01*
X134979723Y-93813635D01*
X134978855Y-93814745D01*
X134977935Y-93815812D01*
X134976962Y-93816835D01*
X134535909Y-94257888D01*
X134534887Y-94258860D01*
X134533819Y-94259779D01*
X134532709Y-94260646D01*
X134531559Y-94261459D01*
X134530371Y-94262218D01*
X134529149Y-94262924D01*
X134526612Y-94264173D01*
X134523969Y-94265206D01*
X134521242Y-94266019D01*
X134518451Y-94266612D01*
X134515618Y-94266983D01*
X134512765Y-94267130D01*
X134509914Y-94267052D01*
X134507084Y-94266746D01*
X134504299Y-94266212D01*
X134501579Y-94265448D01*
X134500251Y-94264979D01*
X134498946Y-94264452D01*
X134497669Y-94263866D01*
X134496422Y-94263222D01*
X134495207Y-94262520D01*
X134494027Y-94261758D01*
X133979348Y-93908635D01*
X133976916Y-93907116D01*
X133974306Y-93905767D01*
X133971544Y-93904591D01*
X133968652Y-93903589D01*
X133965654Y-93902762D01*
X133962575Y-93902113D01*
X133959437Y-93901642D01*
X133956265Y-93901351D01*
X133953081Y-93901242D01*
X133949911Y-93901315D01*
X133946778Y-93901573D01*
X133943705Y-93902017D01*
X133940715Y-93902649D01*
X133937834Y-93903470D01*
X133935084Y-93904481D01*
X133932489Y-93905683D01*
X133499068Y-94091462D01*
X133496406Y-94092523D01*
X133493769Y-94093827D01*
X133491172Y-94095357D01*
X133488631Y-94097093D01*
X133486161Y-94099017D01*
X133483779Y-94101111D01*
X133481499Y-94103356D01*
X133479339Y-94105734D01*
X133477312Y-94108227D01*
X133475436Y-94110815D01*
X133473725Y-94113482D01*
X133472196Y-94116207D01*
X133470864Y-94118974D01*
X133469745Y-94121763D01*
X133468855Y-94124555D01*
X133468209Y-94127334D01*
X133355503Y-94733410D01*
X133355503Y-94733409D01*
X133355206Y-94734783D01*
X133354843Y-94736141D01*
X133354415Y-94737479D01*
X133353925Y-94738796D01*
X133353373Y-94740091D01*
X133352764Y-94741362D01*
X133352098Y-94742606D01*
X133351378Y-94743824D01*
X133349782Y-94746168D01*
X133347994Y-94748380D01*
X133346029Y-94750447D01*
X133343903Y-94752355D01*
X133341634Y-94754089D01*
X133339237Y-94755636D01*
X133336729Y-94756982D01*
X133335439Y-94757576D01*
X133334127Y-94758114D01*
X133332795Y-94758594D01*
X133331446Y-94759016D01*
X133330081Y-94759377D01*
X133328703Y-94759676D01*
X133327313Y-94759911D01*
X133325914Y-94760080D01*
X133324507Y-94760181D01*
X133323096Y-94760213D01*
X132699324Y-94760139D01*
X132697915Y-94760103D01*
X132696511Y-94759999D01*
X132695113Y-94759827D01*
X132693725Y-94759589D01*
X132692346Y-94759287D01*
X132690981Y-94758922D01*
X132689631Y-94758497D01*
X132688298Y-94758013D01*
X132686985Y-94757472D01*
X132685693Y-94756876D01*
X132684424Y-94756225D01*
X132683181Y-94755523D01*
X132681965Y-94754771D01*
X132680780Y-94753970D01*
X132679626Y-94753123D01*
X132678507Y-94752231D01*
X132677424Y-94751295D01*
X132676379Y-94750318D01*
X132675374Y-94749302D01*
X132674412Y-94748247D01*
X132673494Y-94747156D01*
X132672624Y-94746031D01*
X132671802Y-94744873D01*
X132671031Y-94743683D01*
X132670313Y-94742465D01*
X132669651Y-94741219D01*
X132669046Y-94739947D01*
X132668500Y-94738651D01*
X132668016Y-94737333D01*
X132667595Y-94735995D01*
X132667240Y-94734637D01*
X132666953Y-94733262D01*
X132556939Y-94142082D01*
X132556654Y-94140691D01*
X132556304Y-94139296D01*
X132555892Y-94137900D01*
X132555419Y-94136506D01*
X132554300Y-94133731D01*
X132552964Y-94130988D01*
X132551427Y-94128295D01*
X132549704Y-94125670D01*
X132547812Y-94123130D01*
X132545768Y-94120692D01*
X132543587Y-94118376D01*
X132541286Y-94116197D01*
X132538881Y-94114175D01*
X132536387Y-94112326D01*
X132533823Y-94110668D01*
X132531202Y-94109220D01*
X132528542Y-94107998D01*
X132527203Y-94107477D01*
X132525860Y-94107020D01*
X132064824Y-93922459D01*
X132062201Y-93921317D01*
X132059424Y-93920365D01*
X132056516Y-93919601D01*
X132053501Y-93919023D01*
X132050404Y-93918630D01*
X132047248Y-93918419D01*
X132044057Y-93918388D01*
X132040855Y-93918536D01*
X132037667Y-93918861D01*
X132034516Y-93919361D01*
X132031427Y-93920033D01*
X132028423Y-93920877D01*
X132025529Y-93921890D01*
X132022768Y-93923070D01*
X132020165Y-93924416D01*
X132017744Y-93925925D01*
X131528393Y-94261756D01*
X131527213Y-94262524D01*
X131525998Y-94263233D01*
X131524750Y-94263882D01*
X131523472Y-94264472D01*
X131522167Y-94265003D01*
X131520837Y-94265475D01*
X131519486Y-94265888D01*
X131518115Y-94266243D01*
X131516728Y-94266540D01*
X131515327Y-94266779D01*
X131512495Y-94267084D01*
X131509640Y-94267161D01*
X131506784Y-94267011D01*
X131503948Y-94266636D01*
X131501154Y-94266039D01*
X131498423Y-94265220D01*
X131497088Y-94264729D01*
X131495777Y-94264183D01*
X131494493Y-94263583D01*
X131493238Y-94262929D01*
X131492015Y-94262222D01*
X131490826Y-94261460D01*
X131489675Y-94260646D01*
X131488565Y-94259778D01*
X131487497Y-94258858D01*
X131486474Y-94257885D01*
X131045421Y-93816758D01*
X131044454Y-93815742D01*
X131043540Y-93814680D01*
X131042679Y-93813575D01*
X131041870Y-93812430D01*
X131041113Y-93811247D01*
X131040410Y-93810029D01*
X131039164Y-93807498D01*
X131038133Y-93804859D01*
X131037320Y-93802135D01*
X131036725Y-93799345D01*
X131036352Y-93796513D01*
X131036201Y-93793660D01*
X131036275Y-93790807D01*
X131036576Y-93787977D01*
X131037106Y-93785190D01*
X131037867Y-93782468D01*
X131038334Y-93781139D01*
X131038860Y-93779834D01*
X131039444Y-93778556D01*
X131040087Y-93777308D01*
X131040789Y-93776093D01*
X131041551Y-93774913D01*
X131371484Y-93294190D01*
X131372989Y-93291773D01*
X131374308Y-93289185D01*
X131375442Y-93286449D01*
X131376390Y-93283588D01*
X131377151Y-93280626D01*
X131377724Y-93277586D01*
X131378111Y-93274493D01*
X131378309Y-93271369D01*
X131378319Y-93268238D01*
X131378140Y-93265123D01*
X131377771Y-93262049D01*
X131377213Y-93259039D01*
X131376465Y-93256115D01*
X131375525Y-93253303D01*
X131374395Y-93250625D01*
X131373073Y-93248105D01*
X131259888Y-93036113D01*
X131259285Y-93034846D01*
X131258755Y-93033568D01*
X131258297Y-93032281D01*
X131257911Y-93030989D01*
X131257595Y-93029692D01*
X131257348Y-93028394D01*
X131257170Y-93027096D01*
X131257061Y-93025801D01*
X131257018Y-93024511D01*
X131257042Y-93023228D01*
X131257131Y-93021955D01*
X131257285Y-93020693D01*
X131257503Y-93019444D01*
X131257784Y-93018212D01*
X131258128Y-93016998D01*
X131258533Y-93015804D01*
X131258999Y-93014632D01*
X131259524Y-93013486D01*
X131260109Y-93012366D01*
X131260752Y-93011276D01*
X131261452Y-93010217D01*
X131262209Y-93009192D01*
X131263022Y-93008202D01*
X131263890Y-93007251D01*
X131264813Y-93006340D01*
X131265788Y-93005471D01*
X131266816Y-93004647D01*
X131267896Y-93003870D01*
X131269027Y-93003141D01*
X131270209Y-93002464D01*
X131271439Y-93001841D01*
X131272718Y-93001273D01*
X132328916Y-92564202D01*
X132330230Y-92563696D01*
X132331564Y-92563258D01*
X132332915Y-92562885D01*
X132334281Y-92562578D01*
X132335660Y-92562336D01*
X132337049Y-92562157D01*
X132338445Y-92562040D01*
X132339846Y-92561986D01*
X132341249Y-92561992D01*
X132342652Y-92562059D01*
X132344052Y-92562185D01*
X132345448Y-92562370D01*
X132346835Y-92562612D01*
X132348213Y-92562911D01*
X132349577Y-92563266D01*
X132350927Y-92563676D01*
X132352259Y-92564140D01*
X132353570Y-92564658D01*
X132354859Y-92565228D01*
X132356123Y-92565849D01*
X132357359Y-92566522D01*
X132358564Y-92567245D01*
X132359737Y-92568016D01*
X132360874Y-92568836D01*
X132361974Y-92569703D01*
X132363033Y-92570617D01*
X132364050Y-92571577D01*
X132365021Y-92572582D01*
X132365944Y-92573630D01*
X132366817Y-92574722D01*
X132367637Y-92575856D01*
X132368402Y-92577031D01*
X132400883Y-92630085D01*
X132403315Y-92633903D01*
X132406090Y-92637980D01*
X132409150Y-92642239D01*
X132412432Y-92646601D01*
X132415876Y-92650992D01*
X132419423Y-92655333D01*
X132423011Y-92659549D01*
X132426580Y-92663561D01*
X132450619Y-92698681D01*
X132476719Y-92732199D01*
X132504791Y-92764022D01*
X132534741Y-92794059D01*
X132566481Y-92822220D01*
X132599918Y-92848411D01*
X132634962Y-92872542D01*
X132671522Y-92894522D01*
X132709507Y-92914258D01*
X132748826Y-92931659D01*
X132789387Y-92946635D01*
X132831101Y-92959093D01*
X132873876Y-92968941D01*
X132917621Y-92976089D01*
X132962246Y-92980445D01*
X133007658Y-92981917D01*
X133043158Y-92981020D01*
X133078191Y-92978356D01*
X133112715Y-92973969D01*
X133146687Y-92967903D01*
X133180062Y-92960200D01*
X133212798Y-92950905D01*
X133244851Y-92940059D01*
X133276177Y-92927708D01*
X133306735Y-92913894D01*
X133336479Y-92898660D01*
X133365368Y-92882050D01*
X133393356Y-92864108D01*
X133420403Y-92844876D01*
X133446462Y-92824397D01*
X133471493Y-92802716D01*
X133495450Y-92779876D01*
X133518292Y-92755919D01*
X133539973Y-92730890D01*
X133560452Y-92704831D01*
X133579685Y-92677786D01*
X133597628Y-92649799D01*
X133614238Y-92620912D01*
X133629472Y-92591169D01*
X133643287Y-92560614D01*
X133655638Y-92529289D01*
X133666484Y-92497238D01*
X133675779Y-92464504D01*
X133683482Y-92431132D01*
X133689549Y-92397163D01*
X133693935Y-92362642D01*
X133696599Y-92327611D01*
X133697497Y-92292115D01*
X133696599Y-92256619D01*
X133693935Y-92221588D01*
X133689549Y-92187066D01*
X133683482Y-92153097D01*
X133675779Y-92119723D01*
X133666484Y-92086988D01*
X133655638Y-92054937D01*
X133643287Y-92023610D01*
X133629473Y-91993054D01*
X133614239Y-91963309D01*
X133597628Y-91934421D01*
X133579685Y-91906432D01*
X133560453Y-91879385D01*
X133539974Y-91853325D01*
X133518292Y-91828294D01*
X133495451Y-91804336D01*
X133471493Y-91781493D01*
X133446463Y-91759811D01*
X133420403Y-91739331D01*
X133393357Y-91720097D01*
X133365368Y-91702153D01*
X133336480Y-91685541D01*
X133306735Y-91670306D01*
X133276178Y-91656491D01*
X133244851Y-91644138D01*
X133212798Y-91633292D01*
X133180062Y-91623995D01*
X133146687Y-91616292D01*
X133112715Y-91610225D01*
X133078191Y-91605837D01*
X133043158Y-91603173D01*
X133007658Y-91602276D01*
X132984859Y-91602646D01*
X132962246Y-91603748D01*
X132939829Y-91605572D01*
X132917621Y-91608105D01*
X132895633Y-91611337D01*
X132873876Y-91615255D01*
X132852362Y-91619848D01*
X132831101Y-91625106D01*
X132810106Y-91631015D01*
X132789387Y-91637565D01*
X132768957Y-91644745D01*
X132748826Y-91652543D01*
X132729005Y-91660947D01*
X132709507Y-91669947D01*
X132671522Y-91689685D01*
X132634962Y-91711666D01*
X132599918Y-91735798D01*
X132566481Y-91761989D01*
X132534741Y-91790149D01*
X132504791Y-91820184D01*
X132476719Y-91852004D01*
X132450619Y-91885517D01*
X132426580Y-91920631D01*
X132423011Y-91924666D01*
X132419423Y-91928896D01*
X132415876Y-91933246D01*
X132412432Y-91937641D01*
X132409149Y-91942007D01*
X132406090Y-91946269D01*
X132403315Y-91950352D01*
X132400883Y-91954182D01*
X132368402Y-92007234D01*
X132367637Y-92008417D01*
X132366817Y-92009557D01*
X132365944Y-92010654D01*
X132365021Y-92011707D01*
X132364050Y-92012716D01*
X132363033Y-92013679D01*
X132360874Y-92015466D01*
X132358564Y-92017061D01*
X132356122Y-92018459D01*
X132353570Y-92019651D01*
X132350926Y-92020632D01*
X132348212Y-92021394D01*
X132345447Y-92021932D01*
X132342651Y-92022238D01*
X132339845Y-92022306D01*
X132337048Y-92022130D01*
X132335660Y-92021947D01*
X132334281Y-92021702D01*
X132332915Y-92021391D01*
X132331564Y-92021016D01*
X132330230Y-92020574D01*
X132328916Y-92020065D01*
X131272756Y-91582956D01*
X131271477Y-91582388D01*
X131270247Y-91581765D01*
X131269065Y-91581087D01*
X131267934Y-91580358D01*
X131266853Y-91579580D01*
X131265824Y-91578755D01*
X131264847Y-91577886D01*
X131263924Y-91576973D01*
X131263055Y-91576021D01*
X131262241Y-91575030D01*
X131261482Y-91574004D01*
X131260780Y-91572944D01*
X131260136Y-91571852D01*
X131259550Y-91570732D01*
X131259024Y-91569584D01*
X131258557Y-91568412D01*
X131258151Y-91567217D01*
X131257806Y-91566002D01*
X131257525Y-91564770D01*
X131257306Y-91563521D01*
X131257152Y-91562259D01*
X131257062Y-91560985D01*
X131257039Y-91559702D01*
X131257082Y-91558413D01*
X131257192Y-91557119D01*
X131257371Y-91555822D01*
X131257619Y-91554525D01*
X131257937Y-91553230D01*
X131258326Y-91551940D01*
X131258786Y-91550656D01*
X131259319Y-91549380D01*
X131259926Y-91548116D01*
X131373111Y-91336125D01*
X131374431Y-91333611D01*
X131375559Y-91330937D01*
X131376495Y-91328128D01*
X131377241Y-91325207D01*
X131377797Y-91322197D01*
X131378163Y-91319123D01*
X131378340Y-91316008D01*
X131378328Y-91312875D01*
X131378129Y-91309749D01*
X131377742Y-91306653D01*
X131377169Y-91303611D01*
X131376409Y-91300647D01*
X131375464Y-91297784D01*
X131374334Y-91295046D01*
X131373020Y-91292457D01*
X131371521Y-91290040D01*
X131041589Y-90809353D01*
X131040827Y-90808170D01*
X131040124Y-90806952D01*
X131039481Y-90805702D01*
X131038896Y-90804422D01*
X131038371Y-90803115D01*
X131037903Y-90801784D01*
X131037494Y-90800432D01*
X131037143Y-90799061D01*
X131036849Y-90797673D01*
X131036613Y-90796273D01*
X131036312Y-90793441D01*
X131036238Y-90790588D01*
X131036389Y-90787735D01*
X131036763Y-90784903D01*
X131037358Y-90782113D01*
X131038171Y-90779388D01*
X131038660Y-90778056D01*
X131039202Y-90776748D01*
X131039799Y-90775466D01*
X131040448Y-90774215D01*
X131041152Y-90772995D01*
X131041908Y-90771810D01*
X131042717Y-90770662D01*
X131043578Y-90769555D01*
X131044492Y-90768491D01*
X131045458Y-90767472D01*
X131486512Y-90326345D01*
X131487534Y-90325375D01*
X131488602Y-90324458D01*
X131489713Y-90323594D01*
X131490864Y-90322782D01*
X131492052Y-90322024D01*
X131493275Y-90321318D01*
X131495815Y-90320068D01*
X131498460Y-90319034D01*
X131501191Y-90318218D01*
X131503985Y-90317622D01*
X131506821Y-90317248D01*
X131509678Y-90317097D01*
X131512533Y-90317173D01*
X131515365Y-90317476D01*
X131518153Y-90318008D01*
X131520875Y-90318772D01*
X131522204Y-90319242D01*
X131523510Y-90319770D01*
X131524787Y-90320357D01*
X131526035Y-90321003D01*
X131527250Y-90321709D01*
X131528430Y-90322474D01*
X132017781Y-90658269D01*
X132020203Y-90659790D01*
X132022806Y-90661146D01*
X132025567Y-90662334D01*
X132028461Y-90663353D01*
X132031465Y-90664201D01*
X132034554Y-90664876D01*
X132037705Y-90665377D01*
X132040893Y-90665703D01*
X132044094Y-90665850D01*
X132047285Y-90665819D01*
X132050442Y-90665606D01*
X132053539Y-90665211D01*
X132056554Y-90664632D01*
X132059462Y-90663867D01*
X132062239Y-90662914D01*
X132064862Y-90661771D01*
X132525897Y-90477209D01*
X132527241Y-90476755D01*
X132528580Y-90476236D01*
X132531240Y-90475016D01*
X132533860Y-90473567D01*
X132536425Y-90471906D01*
X132538919Y-90470053D01*
X132541324Y-90468025D01*
X132543625Y-90465840D01*
X132545806Y-90463517D01*
X132547850Y-90461073D01*
X132549742Y-90458527D01*
X132551465Y-90455896D01*
X132553002Y-90453199D01*
X132554339Y-90450454D01*
X132555457Y-90447679D01*
X132556342Y-90444892D01*
X132556692Y-90443499D01*
X132556977Y-90442111D01*
X132666992Y-89850930D01*
X132667279Y-89849552D01*
X132667634Y-89848192D01*
X132668054Y-89846851D01*
X132668538Y-89845530D01*
X132669084Y-89844233D01*
X132669689Y-89842960D01*
X132670352Y-89841712D01*
X132671070Y-89840493D01*
X132671840Y-89839303D01*
X132672662Y-89838145D01*
X132674450Y-89835929D01*
X132676417Y-89833858D01*
X132678545Y-89831947D01*
X132680818Y-89830210D01*
X132683219Y-89828659D01*
X132685731Y-89827309D01*
X132688337Y-89826173D01*
X132689670Y-89825691D01*
X132691020Y-89825266D01*
X132692385Y-89824903D01*
X132693763Y-89824602D01*
X132695152Y-89824364D01*
X132696549Y-89824192D01*
X132697954Y-89824088D01*
X132699362Y-89824053D01*
X133323133Y-89824016D01*
X133324542Y-89824051D01*
G37*
D16*
%TO.C,JP3*%
X137700000Y-88900000D02*
X137700000Y-87500000D01*
X138400000Y-86800000D02*
X139000000Y-86800000D01*
X139000000Y-89600000D02*
X138400000Y-89600000D01*
X139700000Y-87500000D02*
X139700000Y-88900000D01*
X137700000Y-87500000D02*
G75*
G02*
X138400000Y-86800000I699999J1D01*
G01*
X138400000Y-89600000D02*
G75*
G02*
X137700000Y-88900000I0J700000D01*
G01*
X139000000Y-86800000D02*
G75*
G02*
X139700000Y-87500000I1J-699999D01*
G01*
X139700000Y-88900000D02*
G75*
G02*
X139000000Y-89600000I-700000J0D01*
G01*
%TO.C,JP4*%
X140275000Y-88900000D02*
X140275000Y-87500000D01*
X140975000Y-86800000D02*
X141575000Y-86800000D01*
X141575000Y-89600000D02*
X140975000Y-89600000D01*
X142275000Y-87500000D02*
X142275000Y-88900000D01*
X140275000Y-87500000D02*
G75*
G02*
X140975000Y-86800000I699999J1D01*
G01*
X140975000Y-89600000D02*
G75*
G02*
X140275000Y-88900000I0J700000D01*
G01*
X141575000Y-86800000D02*
G75*
G02*
X142275000Y-87500000I1J-699999D01*
G01*
X142275000Y-88900000D02*
G75*
G02*
X141575000Y-89600000I-700000J0D01*
G01*
D11*
%TO.C,J2*%
X114315000Y-98725000D02*
X152925000Y-98725000D01*
X114315000Y-101135000D02*
X114315000Y-98725000D01*
X114315000Y-101135000D02*
X152925000Y-101135000D01*
X152925000Y-98725000D02*
X152925000Y-101135000D01*
X153675000Y-99930000D02*
G75*
G02*
X153475000Y-99930000I-100000J0D01*
G01*
X153475000Y-99930000D02*
G75*
G02*
X153675000Y-99930000I100000J0D01*
G01*
D16*
%TO.C,J4*%
X149780000Y-87220000D02*
X149780000Y-88640000D01*
X149780000Y-88640000D02*
X154280000Y-88640000D01*
X149780000Y-95920000D02*
X154280000Y-95920000D01*
X149780000Y-97340000D02*
X149780000Y-95920000D01*
X151690000Y-94480000D02*
X152290000Y-94780000D01*
X151690000Y-95080000D02*
X151690000Y-94480000D01*
X152290000Y-94780000D02*
X151690000Y-95080000D01*
X155390000Y-89530000D02*
X155390000Y-90030000D01*
X155390000Y-90030000D02*
X160890000Y-90030000D01*
X155390000Y-92030000D02*
X155390000Y-92530000D01*
X155390000Y-92530000D02*
X160890000Y-92530000D01*
X155390000Y-94530000D02*
X155390000Y-95030000D01*
X155390000Y-95030000D02*
X160890000Y-95030000D01*
X160890000Y-89530000D02*
X155390000Y-89530000D01*
X160890000Y-90030000D02*
X160890000Y-89530000D01*
X160890000Y-92030000D02*
X155390000Y-92030000D01*
X160890000Y-92530000D02*
X160890000Y-92030000D01*
X160890000Y-94530000D02*
X155390000Y-94530000D01*
X160890000Y-95030000D02*
X160890000Y-94530000D01*
X161500000Y-87220000D02*
X149780000Y-87220000D01*
X161500000Y-92280000D02*
X161500000Y-87220000D01*
X161500000Y-92280000D02*
X161500000Y-97340000D01*
X161500000Y-97340000D02*
X149780000Y-97340000D01*
%TO.C,R1*%
X135590000Y-88197936D02*
X135590000Y-88652064D01*
X137060000Y-88197936D02*
X137060000Y-88652064D01*
%TO.C,JP5*%
X144300000Y-88875000D02*
X144300000Y-87475000D01*
X145000000Y-86775000D02*
X145600000Y-86775000D01*
X145600000Y-89575000D02*
X145000000Y-89575000D01*
X146300000Y-87475000D02*
X146300000Y-88875000D01*
X144300000Y-87475000D02*
G75*
G02*
X145000000Y-86775000I699999J1D01*
G01*
X145000000Y-89575000D02*
G75*
G02*
X144300000Y-88875000I0J700000D01*
G01*
X145600000Y-86775000D02*
G75*
G02*
X146300000Y-87475000I1J-699999D01*
G01*
X146300000Y-88875000D02*
G75*
G02*
X145600000Y-89575000I-700000J0D01*
G01*
D17*
%TO.C,T1*%
X144400000Y-92948040D02*
X144400000Y-93491960D01*
X145563485Y-95099600D02*
X148697515Y-95099600D01*
X148697515Y-91340400D02*
X145563485Y-91340400D01*
X149861000Y-93491960D02*
X149861000Y-92948040D01*
D11*
%TO.C,J1*%
X114320000Y-83495000D02*
X152930000Y-83495000D01*
X114320000Y-85905000D02*
X114320000Y-83495000D01*
X114320000Y-85905000D02*
X152930000Y-85905000D01*
X152930000Y-83495000D02*
X152930000Y-85905000D01*
X153680000Y-84700000D02*
G75*
G02*
X153480000Y-84700000I-100000J0D01*
G01*
X153480000Y-84700000D02*
G75*
G02*
X153680000Y-84700000I100000J0D01*
G01*
%TD*%
M02*
