%TF.GenerationSoftware,KiCad,Pcbnew,9.0.1*%
%TF.CreationDate,2025-04-23T21:39:05-04:00*%
%TF.ProjectId,can-nano-shield-rj45,63616e2d-6e61-46e6-9f2d-736869656c64,rev?*%
%TF.SameCoordinates,Original*%
%TF.FileFunction,Paste,Bot*%
%TF.FilePolarity,Positive*%
%FSLAX46Y46*%
G04 Gerber Fmt 4.6, Leading zero omitted, Abs format (unit mm)*
G04 Created by KiCad (PCBNEW 9.0.1) date 2025-04-23 21:39:05*
%MOMM*%
%LPD*%
G01*
G04 APERTURE LIST*
G04 Aperture macros list*
%AMRoundRect*
0 Rectangle with rounded corners*
0 $1 Rounding radius*
0 $2 $3 $4 $5 $6 $7 $8 $9 X,Y pos of 4 corners*
0 Add a 4 corners polygon primitive as box body*
4,1,4,$2,$3,$4,$5,$6,$7,$8,$9,$2,$3,0*
0 Add four circle primitives for the rounded corners*
1,1,$1+$1,$2,$3*
1,1,$1+$1,$4,$5*
1,1,$1+$1,$6,$7*
1,1,$1+$1,$8,$9*
0 Add four rect primitives between the rounded corners*
20,1,$1+$1,$2,$3,$4,$5,0*
20,1,$1+$1,$4,$5,$6,$7,0*
20,1,$1+$1,$6,$7,$8,$9,0*
20,1,$1+$1,$8,$9,$2,$3,0*%
G04 Aperture macros list end*
%ADD10C,0.010000*%
%ADD11RoundRect,0.150000X-0.587500X-0.150000X0.587500X-0.150000X0.587500X0.150000X-0.587500X0.150000X0*%
%ADD12RoundRect,0.250000X0.412500X1.100000X-0.412500X1.100000X-0.412500X-1.100000X0.412500X-1.100000X0*%
%ADD13R,2.100000X1.800000*%
%ADD14RoundRect,0.237500X0.300000X0.237500X-0.300000X0.237500X-0.300000X-0.237500X0.300000X-0.237500X0*%
%ADD15RoundRect,0.250000X0.350000X0.450000X-0.350000X0.450000X-0.350000X-0.450000X0.350000X-0.450000X0*%
%ADD16RoundRect,0.237500X0.237500X-0.300000X0.237500X0.300000X-0.237500X0.300000X-0.237500X-0.300000X0*%
%ADD17RoundRect,0.237500X-0.250000X-0.237500X0.250000X-0.237500X0.250000X0.237500X-0.250000X0.237500X0*%
%ADD18RoundRect,0.237500X-0.237500X0.250000X-0.237500X-0.250000X0.237500X-0.250000X0.237500X0.250000X0*%
%ADD19RoundRect,0.162500X-0.447500X-0.162500X0.447500X-0.162500X0.447500X0.162500X-0.447500X0.162500X0*%
%ADD20RoundRect,0.150000X-0.825000X-0.150000X0.825000X-0.150000X0.825000X0.150000X-0.825000X0.150000X0*%
%ADD21RoundRect,0.237500X0.237500X-0.250000X0.237500X0.250000X-0.237500X0.250000X-0.237500X-0.250000X0*%
%ADD22RoundRect,0.250000X-0.337500X-0.475000X0.337500X-0.475000X0.337500X0.475000X-0.337500X0.475000X0*%
%ADD23RoundRect,0.237500X0.250000X0.237500X-0.250000X0.237500X-0.250000X-0.237500X0.250000X-0.237500X0*%
%ADD24RoundRect,0.150000X0.150000X-0.875000X0.150000X0.875000X-0.150000X0.875000X-0.150000X-0.875000X0*%
G04 APERTURE END LIST*
D10*
%TO.C,U3*%
X148618000Y-94311000D02*
X148620000Y-94311000D01*
X148623000Y-94312000D01*
X148625000Y-94312000D01*
X148628000Y-94313000D01*
X148630000Y-94314000D01*
X148633000Y-94315000D01*
X148635000Y-94317000D01*
X148637000Y-94318000D01*
X148639000Y-94320000D01*
X148641000Y-94321000D01*
X148643000Y-94323000D01*
X148645000Y-94325000D01*
X148647000Y-94327000D01*
X148649000Y-94329000D01*
X148650000Y-94331000D01*
X148652000Y-94333000D01*
X148653000Y-94335000D01*
X148655000Y-94337000D01*
X148656000Y-94340000D01*
X148657000Y-94342000D01*
X148658000Y-94345000D01*
X148658000Y-94347000D01*
X148659000Y-94350000D01*
X148659000Y-94352000D01*
X148660000Y-94355000D01*
X148660000Y-94357000D01*
X148660000Y-94360000D01*
X148660000Y-94635000D01*
X148660000Y-94638000D01*
X148660000Y-94640000D01*
X148659000Y-94643000D01*
X148659000Y-94645000D01*
X148658000Y-94648000D01*
X148658000Y-94650000D01*
X148657000Y-94653000D01*
X148656000Y-94655000D01*
X148655000Y-94658000D01*
X148653000Y-94660000D01*
X148652000Y-94662000D01*
X148650000Y-94664000D01*
X148649000Y-94666000D01*
X148647000Y-94668000D01*
X148645000Y-94670000D01*
X148643000Y-94672000D01*
X148641000Y-94674000D01*
X148639000Y-94675000D01*
X148637000Y-94677000D01*
X148635000Y-94678000D01*
X148633000Y-94680000D01*
X148630000Y-94681000D01*
X148628000Y-94682000D01*
X148625000Y-94683000D01*
X148623000Y-94683000D01*
X148620000Y-94684000D01*
X148618000Y-94684000D01*
X148615000Y-94685000D01*
X148613000Y-94685000D01*
X148610000Y-94685000D01*
X148460000Y-94685000D01*
X148457000Y-94685000D01*
X148455000Y-94685000D01*
X148452000Y-94684000D01*
X148450000Y-94684000D01*
X148447000Y-94683000D01*
X148445000Y-94683000D01*
X148442000Y-94682000D01*
X148440000Y-94681000D01*
X148437000Y-94680000D01*
X148435000Y-94678000D01*
X148433000Y-94677000D01*
X148431000Y-94675000D01*
X148429000Y-94674000D01*
X148427000Y-94672000D01*
X148425000Y-94670000D01*
X148423000Y-94668000D01*
X148421000Y-94666000D01*
X148420000Y-94664000D01*
X148418000Y-94662000D01*
X148417000Y-94660000D01*
X148415000Y-94658000D01*
X148414000Y-94655000D01*
X148413000Y-94653000D01*
X148412000Y-94650000D01*
X148412000Y-94648000D01*
X148411000Y-94645000D01*
X148411000Y-94643000D01*
X148410000Y-94640000D01*
X148410000Y-94638000D01*
X148410000Y-94635000D01*
X148410000Y-94360000D01*
X148410000Y-94357000D01*
X148410000Y-94355000D01*
X148411000Y-94352000D01*
X148411000Y-94350000D01*
X148412000Y-94347000D01*
X148412000Y-94345000D01*
X148413000Y-94342000D01*
X148414000Y-94340000D01*
X148415000Y-94337000D01*
X148417000Y-94335000D01*
X148418000Y-94333000D01*
X148420000Y-94331000D01*
X148421000Y-94329000D01*
X148423000Y-94327000D01*
X148425000Y-94325000D01*
X148427000Y-94323000D01*
X148429000Y-94321000D01*
X148431000Y-94320000D01*
X148433000Y-94318000D01*
X148435000Y-94317000D01*
X148437000Y-94315000D01*
X148440000Y-94314000D01*
X148442000Y-94313000D01*
X148445000Y-94312000D01*
X148447000Y-94312000D01*
X148450000Y-94311000D01*
X148452000Y-94311000D01*
X148455000Y-94310000D01*
X148457000Y-94310000D01*
X148460000Y-94310000D01*
X148610000Y-94310000D01*
X148613000Y-94310000D01*
X148615000Y-94310000D01*
X148618000Y-94311000D01*
G36*
X148618000Y-94311000D02*
G01*
X148620000Y-94311000D01*
X148623000Y-94312000D01*
X148625000Y-94312000D01*
X148628000Y-94313000D01*
X148630000Y-94314000D01*
X148633000Y-94315000D01*
X148635000Y-94317000D01*
X148637000Y-94318000D01*
X148639000Y-94320000D01*
X148641000Y-94321000D01*
X148643000Y-94323000D01*
X148645000Y-94325000D01*
X148647000Y-94327000D01*
X148649000Y-94329000D01*
X148650000Y-94331000D01*
X148652000Y-94333000D01*
X148653000Y-94335000D01*
X148655000Y-94337000D01*
X148656000Y-94340000D01*
X148657000Y-94342000D01*
X148658000Y-94345000D01*
X148658000Y-94347000D01*
X148659000Y-94350000D01*
X148659000Y-94352000D01*
X148660000Y-94355000D01*
X148660000Y-94357000D01*
X148660000Y-94360000D01*
X148660000Y-94635000D01*
X148660000Y-94638000D01*
X148660000Y-94640000D01*
X148659000Y-94643000D01*
X148659000Y-94645000D01*
X148658000Y-94648000D01*
X148658000Y-94650000D01*
X148657000Y-94653000D01*
X148656000Y-94655000D01*
X148655000Y-94658000D01*
X148653000Y-94660000D01*
X148652000Y-94662000D01*
X148650000Y-94664000D01*
X148649000Y-94666000D01*
X148647000Y-94668000D01*
X148645000Y-94670000D01*
X148643000Y-94672000D01*
X148641000Y-94674000D01*
X148639000Y-94675000D01*
X148637000Y-94677000D01*
X148635000Y-94678000D01*
X148633000Y-94680000D01*
X148630000Y-94681000D01*
X148628000Y-94682000D01*
X148625000Y-94683000D01*
X148623000Y-94683000D01*
X148620000Y-94684000D01*
X148618000Y-94684000D01*
X148615000Y-94685000D01*
X148613000Y-94685000D01*
X148610000Y-94685000D01*
X148460000Y-94685000D01*
X148457000Y-94685000D01*
X148455000Y-94685000D01*
X148452000Y-94684000D01*
X148450000Y-94684000D01*
X148447000Y-94683000D01*
X148445000Y-94683000D01*
X148442000Y-94682000D01*
X148440000Y-94681000D01*
X148437000Y-94680000D01*
X148435000Y-94678000D01*
X148433000Y-94677000D01*
X148431000Y-94675000D01*
X148429000Y-94674000D01*
X148427000Y-94672000D01*
X148425000Y-94670000D01*
X148423000Y-94668000D01*
X148421000Y-94666000D01*
X148420000Y-94664000D01*
X148418000Y-94662000D01*
X148417000Y-94660000D01*
X148415000Y-94658000D01*
X148414000Y-94655000D01*
X148413000Y-94653000D01*
X148412000Y-94650000D01*
X148412000Y-94648000D01*
X148411000Y-94645000D01*
X148411000Y-94643000D01*
X148410000Y-94640000D01*
X148410000Y-94638000D01*
X148410000Y-94635000D01*
X148410000Y-94360000D01*
X148410000Y-94357000D01*
X148410000Y-94355000D01*
X148411000Y-94352000D01*
X148411000Y-94350000D01*
X148412000Y-94347000D01*
X148412000Y-94345000D01*
X148413000Y-94342000D01*
X148414000Y-94340000D01*
X148415000Y-94337000D01*
X148417000Y-94335000D01*
X148418000Y-94333000D01*
X148420000Y-94331000D01*
X148421000Y-94329000D01*
X148423000Y-94327000D01*
X148425000Y-94325000D01*
X148427000Y-94323000D01*
X148429000Y-94321000D01*
X148431000Y-94320000D01*
X148433000Y-94318000D01*
X148435000Y-94317000D01*
X148437000Y-94315000D01*
X148440000Y-94314000D01*
X148442000Y-94313000D01*
X148445000Y-94312000D01*
X148447000Y-94312000D01*
X148450000Y-94311000D01*
X148452000Y-94311000D01*
X148455000Y-94310000D01*
X148457000Y-94310000D01*
X148460000Y-94310000D01*
X148610000Y-94310000D01*
X148613000Y-94310000D01*
X148615000Y-94310000D01*
X148618000Y-94311000D01*
G37*
X149618000Y-94311000D02*
X149620000Y-94311000D01*
X149623000Y-94312000D01*
X149625000Y-94312000D01*
X149628000Y-94313000D01*
X149630000Y-94314000D01*
X149633000Y-94315000D01*
X149635000Y-94317000D01*
X149637000Y-94318000D01*
X149639000Y-94320000D01*
X149641000Y-94321000D01*
X149643000Y-94323000D01*
X149645000Y-94325000D01*
X149647000Y-94327000D01*
X149649000Y-94329000D01*
X149650000Y-94331000D01*
X149652000Y-94333000D01*
X149653000Y-94335000D01*
X149655000Y-94337000D01*
X149656000Y-94340000D01*
X149657000Y-94342000D01*
X149658000Y-94345000D01*
X149658000Y-94347000D01*
X149659000Y-94350000D01*
X149659000Y-94352000D01*
X149660000Y-94355000D01*
X149660000Y-94357000D01*
X149660000Y-94360000D01*
X149660000Y-94635000D01*
X149660000Y-94638000D01*
X149660000Y-94640000D01*
X149659000Y-94643000D01*
X149659000Y-94645000D01*
X149658000Y-94648000D01*
X149658000Y-94650000D01*
X149657000Y-94653000D01*
X149656000Y-94655000D01*
X149655000Y-94658000D01*
X149653000Y-94660000D01*
X149652000Y-94662000D01*
X149650000Y-94664000D01*
X149649000Y-94666000D01*
X149647000Y-94668000D01*
X149645000Y-94670000D01*
X149643000Y-94672000D01*
X149641000Y-94674000D01*
X149639000Y-94675000D01*
X149637000Y-94677000D01*
X149635000Y-94678000D01*
X149633000Y-94680000D01*
X149630000Y-94681000D01*
X149628000Y-94682000D01*
X149625000Y-94683000D01*
X149623000Y-94683000D01*
X149620000Y-94684000D01*
X149618000Y-94684000D01*
X149615000Y-94685000D01*
X149613000Y-94685000D01*
X149610000Y-94685000D01*
X149460000Y-94685000D01*
X149457000Y-94685000D01*
X149455000Y-94685000D01*
X149452000Y-94684000D01*
X149450000Y-94684000D01*
X149447000Y-94683000D01*
X149445000Y-94683000D01*
X149442000Y-94682000D01*
X149440000Y-94681000D01*
X149437000Y-94680000D01*
X149435000Y-94678000D01*
X149433000Y-94677000D01*
X149431000Y-94675000D01*
X149429000Y-94674000D01*
X149427000Y-94672000D01*
X149425000Y-94670000D01*
X149423000Y-94668000D01*
X149421000Y-94666000D01*
X149420000Y-94664000D01*
X149418000Y-94662000D01*
X149417000Y-94660000D01*
X149415000Y-94658000D01*
X149414000Y-94655000D01*
X149413000Y-94653000D01*
X149412000Y-94650000D01*
X149412000Y-94648000D01*
X149411000Y-94645000D01*
X149411000Y-94643000D01*
X149410000Y-94640000D01*
X149410000Y-94638000D01*
X149410000Y-94635000D01*
X149410000Y-94360000D01*
X149410000Y-94357000D01*
X149410000Y-94355000D01*
X149411000Y-94352000D01*
X149411000Y-94350000D01*
X149412000Y-94347000D01*
X149412000Y-94345000D01*
X149413000Y-94342000D01*
X149414000Y-94340000D01*
X149415000Y-94337000D01*
X149417000Y-94335000D01*
X149418000Y-94333000D01*
X149420000Y-94331000D01*
X149421000Y-94329000D01*
X149423000Y-94327000D01*
X149425000Y-94325000D01*
X149427000Y-94323000D01*
X149429000Y-94321000D01*
X149431000Y-94320000D01*
X149433000Y-94318000D01*
X149435000Y-94317000D01*
X149437000Y-94315000D01*
X149440000Y-94314000D01*
X149442000Y-94313000D01*
X149445000Y-94312000D01*
X149447000Y-94312000D01*
X149450000Y-94311000D01*
X149452000Y-94311000D01*
X149455000Y-94310000D01*
X149457000Y-94310000D01*
X149460000Y-94310000D01*
X149610000Y-94310000D01*
X149613000Y-94310000D01*
X149615000Y-94310000D01*
X149618000Y-94311000D01*
G36*
X149618000Y-94311000D02*
G01*
X149620000Y-94311000D01*
X149623000Y-94312000D01*
X149625000Y-94312000D01*
X149628000Y-94313000D01*
X149630000Y-94314000D01*
X149633000Y-94315000D01*
X149635000Y-94317000D01*
X149637000Y-94318000D01*
X149639000Y-94320000D01*
X149641000Y-94321000D01*
X149643000Y-94323000D01*
X149645000Y-94325000D01*
X149647000Y-94327000D01*
X149649000Y-94329000D01*
X149650000Y-94331000D01*
X149652000Y-94333000D01*
X149653000Y-94335000D01*
X149655000Y-94337000D01*
X149656000Y-94340000D01*
X149657000Y-94342000D01*
X149658000Y-94345000D01*
X149658000Y-94347000D01*
X149659000Y-94350000D01*
X149659000Y-94352000D01*
X149660000Y-94355000D01*
X149660000Y-94357000D01*
X149660000Y-94360000D01*
X149660000Y-94635000D01*
X149660000Y-94638000D01*
X149660000Y-94640000D01*
X149659000Y-94643000D01*
X149659000Y-94645000D01*
X149658000Y-94648000D01*
X149658000Y-94650000D01*
X149657000Y-94653000D01*
X149656000Y-94655000D01*
X149655000Y-94658000D01*
X149653000Y-94660000D01*
X149652000Y-94662000D01*
X149650000Y-94664000D01*
X149649000Y-94666000D01*
X149647000Y-94668000D01*
X149645000Y-94670000D01*
X149643000Y-94672000D01*
X149641000Y-94674000D01*
X149639000Y-94675000D01*
X149637000Y-94677000D01*
X149635000Y-94678000D01*
X149633000Y-94680000D01*
X149630000Y-94681000D01*
X149628000Y-94682000D01*
X149625000Y-94683000D01*
X149623000Y-94683000D01*
X149620000Y-94684000D01*
X149618000Y-94684000D01*
X149615000Y-94685000D01*
X149613000Y-94685000D01*
X149610000Y-94685000D01*
X149460000Y-94685000D01*
X149457000Y-94685000D01*
X149455000Y-94685000D01*
X149452000Y-94684000D01*
X149450000Y-94684000D01*
X149447000Y-94683000D01*
X149445000Y-94683000D01*
X149442000Y-94682000D01*
X149440000Y-94681000D01*
X149437000Y-94680000D01*
X149435000Y-94678000D01*
X149433000Y-94677000D01*
X149431000Y-94675000D01*
X149429000Y-94674000D01*
X149427000Y-94672000D01*
X149425000Y-94670000D01*
X149423000Y-94668000D01*
X149421000Y-94666000D01*
X149420000Y-94664000D01*
X149418000Y-94662000D01*
X149417000Y-94660000D01*
X149415000Y-94658000D01*
X149414000Y-94655000D01*
X149413000Y-94653000D01*
X149412000Y-94650000D01*
X149412000Y-94648000D01*
X149411000Y-94645000D01*
X149411000Y-94643000D01*
X149410000Y-94640000D01*
X149410000Y-94638000D01*
X149410000Y-94635000D01*
X149410000Y-94360000D01*
X149410000Y-94357000D01*
X149410000Y-94355000D01*
X149411000Y-94352000D01*
X149411000Y-94350000D01*
X149412000Y-94347000D01*
X149412000Y-94345000D01*
X149413000Y-94342000D01*
X149414000Y-94340000D01*
X149415000Y-94337000D01*
X149417000Y-94335000D01*
X149418000Y-94333000D01*
X149420000Y-94331000D01*
X149421000Y-94329000D01*
X149423000Y-94327000D01*
X149425000Y-94325000D01*
X149427000Y-94323000D01*
X149429000Y-94321000D01*
X149431000Y-94320000D01*
X149433000Y-94318000D01*
X149435000Y-94317000D01*
X149437000Y-94315000D01*
X149440000Y-94314000D01*
X149442000Y-94313000D01*
X149445000Y-94312000D01*
X149447000Y-94312000D01*
X149450000Y-94311000D01*
X149452000Y-94311000D01*
X149455000Y-94310000D01*
X149457000Y-94310000D01*
X149460000Y-94310000D01*
X149610000Y-94310000D01*
X149613000Y-94310000D01*
X149615000Y-94310000D01*
X149618000Y-94311000D01*
G37*
X150118000Y-94311000D02*
X150120000Y-94311000D01*
X150123000Y-94312000D01*
X150125000Y-94312000D01*
X150128000Y-94313000D01*
X150130000Y-94314000D01*
X150133000Y-94315000D01*
X150135000Y-94317000D01*
X150137000Y-94318000D01*
X150139000Y-94320000D01*
X150141000Y-94321000D01*
X150143000Y-94323000D01*
X150145000Y-94325000D01*
X150147000Y-94327000D01*
X150149000Y-94329000D01*
X150150000Y-94331000D01*
X150152000Y-94333000D01*
X150153000Y-94335000D01*
X150155000Y-94337000D01*
X150156000Y-94340000D01*
X150157000Y-94342000D01*
X150158000Y-94345000D01*
X150158000Y-94347000D01*
X150159000Y-94350000D01*
X150159000Y-94352000D01*
X150160000Y-94355000D01*
X150160000Y-94357000D01*
X150160000Y-94360000D01*
X150160000Y-94635000D01*
X150160000Y-94638000D01*
X150160000Y-94640000D01*
X150159000Y-94643000D01*
X150159000Y-94645000D01*
X150158000Y-94648000D01*
X150158000Y-94650000D01*
X150157000Y-94653000D01*
X150156000Y-94655000D01*
X150155000Y-94658000D01*
X150153000Y-94660000D01*
X150152000Y-94662000D01*
X150150000Y-94664000D01*
X150149000Y-94666000D01*
X150147000Y-94668000D01*
X150145000Y-94670000D01*
X150143000Y-94672000D01*
X150141000Y-94674000D01*
X150139000Y-94675000D01*
X150137000Y-94677000D01*
X150135000Y-94678000D01*
X150133000Y-94680000D01*
X150130000Y-94681000D01*
X150128000Y-94682000D01*
X150125000Y-94683000D01*
X150123000Y-94683000D01*
X150120000Y-94684000D01*
X150118000Y-94684000D01*
X150115000Y-94685000D01*
X150113000Y-94685000D01*
X150110000Y-94685000D01*
X149960000Y-94685000D01*
X149957000Y-94685000D01*
X149955000Y-94685000D01*
X149952000Y-94684000D01*
X149950000Y-94684000D01*
X149947000Y-94683000D01*
X149945000Y-94683000D01*
X149942000Y-94682000D01*
X149940000Y-94681000D01*
X149937000Y-94680000D01*
X149935000Y-94678000D01*
X149933000Y-94677000D01*
X149931000Y-94675000D01*
X149929000Y-94674000D01*
X149927000Y-94672000D01*
X149925000Y-94670000D01*
X149923000Y-94668000D01*
X149921000Y-94666000D01*
X149920000Y-94664000D01*
X149918000Y-94662000D01*
X149917000Y-94660000D01*
X149915000Y-94658000D01*
X149914000Y-94655000D01*
X149913000Y-94653000D01*
X149912000Y-94650000D01*
X149912000Y-94648000D01*
X149911000Y-94645000D01*
X149911000Y-94643000D01*
X149910000Y-94640000D01*
X149910000Y-94638000D01*
X149910000Y-94635000D01*
X149910000Y-94360000D01*
X149910000Y-94357000D01*
X149910000Y-94355000D01*
X149911000Y-94352000D01*
X149911000Y-94350000D01*
X149912000Y-94347000D01*
X149912000Y-94345000D01*
X149913000Y-94342000D01*
X149914000Y-94340000D01*
X149915000Y-94337000D01*
X149917000Y-94335000D01*
X149918000Y-94333000D01*
X149920000Y-94331000D01*
X149921000Y-94329000D01*
X149923000Y-94327000D01*
X149925000Y-94325000D01*
X149927000Y-94323000D01*
X149929000Y-94321000D01*
X149931000Y-94320000D01*
X149933000Y-94318000D01*
X149935000Y-94317000D01*
X149937000Y-94315000D01*
X149940000Y-94314000D01*
X149942000Y-94313000D01*
X149945000Y-94312000D01*
X149947000Y-94312000D01*
X149950000Y-94311000D01*
X149952000Y-94311000D01*
X149955000Y-94310000D01*
X149957000Y-94310000D01*
X149960000Y-94310000D01*
X150110000Y-94310000D01*
X150113000Y-94310000D01*
X150115000Y-94310000D01*
X150118000Y-94311000D01*
G36*
X150118000Y-94311000D02*
G01*
X150120000Y-94311000D01*
X150123000Y-94312000D01*
X150125000Y-94312000D01*
X150128000Y-94313000D01*
X150130000Y-94314000D01*
X150133000Y-94315000D01*
X150135000Y-94317000D01*
X150137000Y-94318000D01*
X150139000Y-94320000D01*
X150141000Y-94321000D01*
X150143000Y-94323000D01*
X150145000Y-94325000D01*
X150147000Y-94327000D01*
X150149000Y-94329000D01*
X150150000Y-94331000D01*
X150152000Y-94333000D01*
X150153000Y-94335000D01*
X150155000Y-94337000D01*
X150156000Y-94340000D01*
X150157000Y-94342000D01*
X150158000Y-94345000D01*
X150158000Y-94347000D01*
X150159000Y-94350000D01*
X150159000Y-94352000D01*
X150160000Y-94355000D01*
X150160000Y-94357000D01*
X150160000Y-94360000D01*
X150160000Y-94635000D01*
X150160000Y-94638000D01*
X150160000Y-94640000D01*
X150159000Y-94643000D01*
X150159000Y-94645000D01*
X150158000Y-94648000D01*
X150158000Y-94650000D01*
X150157000Y-94653000D01*
X150156000Y-94655000D01*
X150155000Y-94658000D01*
X150153000Y-94660000D01*
X150152000Y-94662000D01*
X150150000Y-94664000D01*
X150149000Y-94666000D01*
X150147000Y-94668000D01*
X150145000Y-94670000D01*
X150143000Y-94672000D01*
X150141000Y-94674000D01*
X150139000Y-94675000D01*
X150137000Y-94677000D01*
X150135000Y-94678000D01*
X150133000Y-94680000D01*
X150130000Y-94681000D01*
X150128000Y-94682000D01*
X150125000Y-94683000D01*
X150123000Y-94683000D01*
X150120000Y-94684000D01*
X150118000Y-94684000D01*
X150115000Y-94685000D01*
X150113000Y-94685000D01*
X150110000Y-94685000D01*
X149960000Y-94685000D01*
X149957000Y-94685000D01*
X149955000Y-94685000D01*
X149952000Y-94684000D01*
X149950000Y-94684000D01*
X149947000Y-94683000D01*
X149945000Y-94683000D01*
X149942000Y-94682000D01*
X149940000Y-94681000D01*
X149937000Y-94680000D01*
X149935000Y-94678000D01*
X149933000Y-94677000D01*
X149931000Y-94675000D01*
X149929000Y-94674000D01*
X149927000Y-94672000D01*
X149925000Y-94670000D01*
X149923000Y-94668000D01*
X149921000Y-94666000D01*
X149920000Y-94664000D01*
X149918000Y-94662000D01*
X149917000Y-94660000D01*
X149915000Y-94658000D01*
X149914000Y-94655000D01*
X149913000Y-94653000D01*
X149912000Y-94650000D01*
X149912000Y-94648000D01*
X149911000Y-94645000D01*
X149911000Y-94643000D01*
X149910000Y-94640000D01*
X149910000Y-94638000D01*
X149910000Y-94635000D01*
X149910000Y-94360000D01*
X149910000Y-94357000D01*
X149910000Y-94355000D01*
X149911000Y-94352000D01*
X149911000Y-94350000D01*
X149912000Y-94347000D01*
X149912000Y-94345000D01*
X149913000Y-94342000D01*
X149914000Y-94340000D01*
X149915000Y-94337000D01*
X149917000Y-94335000D01*
X149918000Y-94333000D01*
X149920000Y-94331000D01*
X149921000Y-94329000D01*
X149923000Y-94327000D01*
X149925000Y-94325000D01*
X149927000Y-94323000D01*
X149929000Y-94321000D01*
X149931000Y-94320000D01*
X149933000Y-94318000D01*
X149935000Y-94317000D01*
X149937000Y-94315000D01*
X149940000Y-94314000D01*
X149942000Y-94313000D01*
X149945000Y-94312000D01*
X149947000Y-94312000D01*
X149950000Y-94311000D01*
X149952000Y-94311000D01*
X149955000Y-94310000D01*
X149957000Y-94310000D01*
X149960000Y-94310000D01*
X150110000Y-94310000D01*
X150113000Y-94310000D01*
X150115000Y-94310000D01*
X150118000Y-94311000D01*
G37*
X151563000Y-94311000D02*
X151565000Y-94311000D01*
X151568000Y-94312000D01*
X151570000Y-94312000D01*
X151573000Y-94313000D01*
X151575000Y-94314000D01*
X151578000Y-94315000D01*
X151580000Y-94317000D01*
X151582000Y-94318000D01*
X151584000Y-94320000D01*
X151586000Y-94321000D01*
X151588000Y-94323000D01*
X151590000Y-94325000D01*
X151592000Y-94327000D01*
X151594000Y-94329000D01*
X151595000Y-94331000D01*
X151597000Y-94333000D01*
X151598000Y-94335000D01*
X151600000Y-94337000D01*
X151601000Y-94340000D01*
X151602000Y-94342000D01*
X151603000Y-94345000D01*
X151603000Y-94347000D01*
X151604000Y-94350000D01*
X151604000Y-94352000D01*
X151605000Y-94355000D01*
X151605000Y-94357000D01*
X151605000Y-94360000D01*
X151605000Y-95360000D01*
X151605000Y-95363000D01*
X151605000Y-95365000D01*
X151604000Y-95368000D01*
X151604000Y-95370000D01*
X151603000Y-95373000D01*
X151603000Y-95375000D01*
X151602000Y-95378000D01*
X151601000Y-95380000D01*
X151600000Y-95383000D01*
X151598000Y-95385000D01*
X151597000Y-95387000D01*
X151595000Y-95389000D01*
X151594000Y-95391000D01*
X151592000Y-95393000D01*
X151590000Y-95395000D01*
X151588000Y-95397000D01*
X151586000Y-95399000D01*
X151584000Y-95400000D01*
X151582000Y-95402000D01*
X151580000Y-95403000D01*
X151578000Y-95405000D01*
X151575000Y-95406000D01*
X151573000Y-95407000D01*
X151570000Y-95408000D01*
X151568000Y-95408000D01*
X151565000Y-95409000D01*
X151563000Y-95409000D01*
X151560000Y-95410000D01*
X151558000Y-95410000D01*
X151555000Y-95410000D01*
X151405000Y-95410000D01*
X151402000Y-95410000D01*
X151400000Y-95410000D01*
X151397000Y-95409000D01*
X151395000Y-95409000D01*
X151392000Y-95408000D01*
X151390000Y-95408000D01*
X151387000Y-95407000D01*
X151385000Y-95406000D01*
X151382000Y-95405000D01*
X151380000Y-95403000D01*
X151378000Y-95402000D01*
X151376000Y-95400000D01*
X151374000Y-95399000D01*
X151372000Y-95397000D01*
X151370000Y-95395000D01*
X151368000Y-95393000D01*
X151366000Y-95391000D01*
X151365000Y-95389000D01*
X151363000Y-95387000D01*
X151362000Y-95385000D01*
X151360000Y-95383000D01*
X151359000Y-95380000D01*
X151358000Y-95378000D01*
X151357000Y-95375000D01*
X151357000Y-95373000D01*
X151356000Y-95370000D01*
X151356000Y-95368000D01*
X151355000Y-95365000D01*
X151355000Y-95363000D01*
X151355000Y-95360000D01*
X151355000Y-94360000D01*
X151355000Y-94357000D01*
X151355000Y-94355000D01*
X151356000Y-94352000D01*
X151356000Y-94350000D01*
X151357000Y-94347000D01*
X151357000Y-94345000D01*
X151358000Y-94342000D01*
X151359000Y-94340000D01*
X151360000Y-94337000D01*
X151362000Y-94335000D01*
X151363000Y-94333000D01*
X151365000Y-94331000D01*
X151366000Y-94329000D01*
X151368000Y-94327000D01*
X151370000Y-94325000D01*
X151372000Y-94323000D01*
X151374000Y-94321000D01*
X151376000Y-94320000D01*
X151378000Y-94318000D01*
X151380000Y-94317000D01*
X151382000Y-94315000D01*
X151385000Y-94314000D01*
X151387000Y-94313000D01*
X151390000Y-94312000D01*
X151392000Y-94312000D01*
X151395000Y-94311000D01*
X151397000Y-94311000D01*
X151400000Y-94310000D01*
X151402000Y-94310000D01*
X151405000Y-94310000D01*
X151555000Y-94310000D01*
X151558000Y-94310000D01*
X151560000Y-94310000D01*
X151563000Y-94311000D01*
G36*
X151563000Y-94311000D02*
G01*
X151565000Y-94311000D01*
X151568000Y-94312000D01*
X151570000Y-94312000D01*
X151573000Y-94313000D01*
X151575000Y-94314000D01*
X151578000Y-94315000D01*
X151580000Y-94317000D01*
X151582000Y-94318000D01*
X151584000Y-94320000D01*
X151586000Y-94321000D01*
X151588000Y-94323000D01*
X151590000Y-94325000D01*
X151592000Y-94327000D01*
X151594000Y-94329000D01*
X151595000Y-94331000D01*
X151597000Y-94333000D01*
X151598000Y-94335000D01*
X151600000Y-94337000D01*
X151601000Y-94340000D01*
X151602000Y-94342000D01*
X151603000Y-94345000D01*
X151603000Y-94347000D01*
X151604000Y-94350000D01*
X151604000Y-94352000D01*
X151605000Y-94355000D01*
X151605000Y-94357000D01*
X151605000Y-94360000D01*
X151605000Y-95360000D01*
X151605000Y-95363000D01*
X151605000Y-95365000D01*
X151604000Y-95368000D01*
X151604000Y-95370000D01*
X151603000Y-95373000D01*
X151603000Y-95375000D01*
X151602000Y-95378000D01*
X151601000Y-95380000D01*
X151600000Y-95383000D01*
X151598000Y-95385000D01*
X151597000Y-95387000D01*
X151595000Y-95389000D01*
X151594000Y-95391000D01*
X151592000Y-95393000D01*
X151590000Y-95395000D01*
X151588000Y-95397000D01*
X151586000Y-95399000D01*
X151584000Y-95400000D01*
X151582000Y-95402000D01*
X151580000Y-95403000D01*
X151578000Y-95405000D01*
X151575000Y-95406000D01*
X151573000Y-95407000D01*
X151570000Y-95408000D01*
X151568000Y-95408000D01*
X151565000Y-95409000D01*
X151563000Y-95409000D01*
X151560000Y-95410000D01*
X151558000Y-95410000D01*
X151555000Y-95410000D01*
X151405000Y-95410000D01*
X151402000Y-95410000D01*
X151400000Y-95410000D01*
X151397000Y-95409000D01*
X151395000Y-95409000D01*
X151392000Y-95408000D01*
X151390000Y-95408000D01*
X151387000Y-95407000D01*
X151385000Y-95406000D01*
X151382000Y-95405000D01*
X151380000Y-95403000D01*
X151378000Y-95402000D01*
X151376000Y-95400000D01*
X151374000Y-95399000D01*
X151372000Y-95397000D01*
X151370000Y-95395000D01*
X151368000Y-95393000D01*
X151366000Y-95391000D01*
X151365000Y-95389000D01*
X151363000Y-95387000D01*
X151362000Y-95385000D01*
X151360000Y-95383000D01*
X151359000Y-95380000D01*
X151358000Y-95378000D01*
X151357000Y-95375000D01*
X151357000Y-95373000D01*
X151356000Y-95370000D01*
X151356000Y-95368000D01*
X151355000Y-95365000D01*
X151355000Y-95363000D01*
X151355000Y-95360000D01*
X151355000Y-94360000D01*
X151355000Y-94357000D01*
X151355000Y-94355000D01*
X151356000Y-94352000D01*
X151356000Y-94350000D01*
X151357000Y-94347000D01*
X151357000Y-94345000D01*
X151358000Y-94342000D01*
X151359000Y-94340000D01*
X151360000Y-94337000D01*
X151362000Y-94335000D01*
X151363000Y-94333000D01*
X151365000Y-94331000D01*
X151366000Y-94329000D01*
X151368000Y-94327000D01*
X151370000Y-94325000D01*
X151372000Y-94323000D01*
X151374000Y-94321000D01*
X151376000Y-94320000D01*
X151378000Y-94318000D01*
X151380000Y-94317000D01*
X151382000Y-94315000D01*
X151385000Y-94314000D01*
X151387000Y-94313000D01*
X151390000Y-94312000D01*
X151392000Y-94312000D01*
X151395000Y-94311000D01*
X151397000Y-94311000D01*
X151400000Y-94310000D01*
X151402000Y-94310000D01*
X151405000Y-94310000D01*
X151555000Y-94310000D01*
X151558000Y-94310000D01*
X151560000Y-94310000D01*
X151563000Y-94311000D01*
G37*
X149118000Y-94311000D02*
X149120000Y-94311000D01*
X149123000Y-94312000D01*
X149125000Y-94312000D01*
X149128000Y-94313000D01*
X149130000Y-94314000D01*
X149133000Y-94315000D01*
X149135000Y-94317000D01*
X149137000Y-94318000D01*
X149139000Y-94320000D01*
X149141000Y-94321000D01*
X149143000Y-94323000D01*
X149145000Y-94325000D01*
X149147000Y-94327000D01*
X149149000Y-94329000D01*
X149150000Y-94331000D01*
X149152000Y-94333000D01*
X149153000Y-94335000D01*
X149155000Y-94337000D01*
X149156000Y-94340000D01*
X149157000Y-94342000D01*
X149158000Y-94345000D01*
X149158000Y-94347000D01*
X149159000Y-94350000D01*
X149159000Y-94352000D01*
X149160000Y-94355000D01*
X149160000Y-94357000D01*
X149160000Y-94360000D01*
X149160000Y-94635000D01*
X149160000Y-94638000D01*
X149160000Y-94640000D01*
X149159000Y-94643000D01*
X149159000Y-94645000D01*
X149158000Y-94648000D01*
X149158000Y-94650000D01*
X149157000Y-94653000D01*
X149156000Y-94655000D01*
X149155000Y-94658000D01*
X149153000Y-94660000D01*
X149152000Y-94662000D01*
X149150000Y-94664000D01*
X149149000Y-94666000D01*
X149147000Y-94668000D01*
X149145000Y-94670000D01*
X149143000Y-94672000D01*
X149141000Y-94674000D01*
X149139000Y-94675000D01*
X149137000Y-94677000D01*
X149135000Y-94678000D01*
X149133000Y-94680000D01*
X149130000Y-94681000D01*
X149128000Y-94682000D01*
X149125000Y-94683000D01*
X149123000Y-94683000D01*
X149120000Y-94684000D01*
X149118000Y-94684000D01*
X149115000Y-94685000D01*
X149113000Y-94685000D01*
X149110000Y-94685000D01*
X148960000Y-94685000D01*
X148957000Y-94685000D01*
X148955000Y-94685000D01*
X148952000Y-94684000D01*
X148950000Y-94684000D01*
X148947000Y-94683000D01*
X148945000Y-94683000D01*
X148942000Y-94682000D01*
X148940000Y-94681000D01*
X148937000Y-94680000D01*
X148935000Y-94678000D01*
X148933000Y-94677000D01*
X148931000Y-94675000D01*
X148929000Y-94674000D01*
X148927000Y-94672000D01*
X148925000Y-94670000D01*
X148923000Y-94668000D01*
X148921000Y-94666000D01*
X148920000Y-94664000D01*
X148918000Y-94662000D01*
X148917000Y-94660000D01*
X148915000Y-94658000D01*
X148914000Y-94655000D01*
X148913000Y-94653000D01*
X148912000Y-94650000D01*
X148912000Y-94648000D01*
X148911000Y-94645000D01*
X148911000Y-94643000D01*
X148910000Y-94640000D01*
X148910000Y-94638000D01*
X148910000Y-94635000D01*
X148910000Y-94360000D01*
X148910000Y-94357000D01*
X148910000Y-94355000D01*
X148911000Y-94352000D01*
X148911000Y-94350000D01*
X148912000Y-94347000D01*
X148912000Y-94345000D01*
X148913000Y-94342000D01*
X148914000Y-94340000D01*
X148915000Y-94337000D01*
X148917000Y-94335000D01*
X148918000Y-94333000D01*
X148920000Y-94331000D01*
X148921000Y-94329000D01*
X148923000Y-94327000D01*
X148925000Y-94325000D01*
X148927000Y-94323000D01*
X148929000Y-94321000D01*
X148931000Y-94320000D01*
X148933000Y-94318000D01*
X148935000Y-94317000D01*
X148937000Y-94315000D01*
X148940000Y-94314000D01*
X148942000Y-94313000D01*
X148945000Y-94312000D01*
X148947000Y-94312000D01*
X148950000Y-94311000D01*
X148952000Y-94311000D01*
X148955000Y-94310000D01*
X148957000Y-94310000D01*
X148960000Y-94310000D01*
X149110000Y-94310000D01*
X149113000Y-94310000D01*
X149115000Y-94310000D01*
X149118000Y-94311000D01*
G36*
X149118000Y-94311000D02*
G01*
X149120000Y-94311000D01*
X149123000Y-94312000D01*
X149125000Y-94312000D01*
X149128000Y-94313000D01*
X149130000Y-94314000D01*
X149133000Y-94315000D01*
X149135000Y-94317000D01*
X149137000Y-94318000D01*
X149139000Y-94320000D01*
X149141000Y-94321000D01*
X149143000Y-94323000D01*
X149145000Y-94325000D01*
X149147000Y-94327000D01*
X149149000Y-94329000D01*
X149150000Y-94331000D01*
X149152000Y-94333000D01*
X149153000Y-94335000D01*
X149155000Y-94337000D01*
X149156000Y-94340000D01*
X149157000Y-94342000D01*
X149158000Y-94345000D01*
X149158000Y-94347000D01*
X149159000Y-94350000D01*
X149159000Y-94352000D01*
X149160000Y-94355000D01*
X149160000Y-94357000D01*
X149160000Y-94360000D01*
X149160000Y-94635000D01*
X149160000Y-94638000D01*
X149160000Y-94640000D01*
X149159000Y-94643000D01*
X149159000Y-94645000D01*
X149158000Y-94648000D01*
X149158000Y-94650000D01*
X149157000Y-94653000D01*
X149156000Y-94655000D01*
X149155000Y-94658000D01*
X149153000Y-94660000D01*
X149152000Y-94662000D01*
X149150000Y-94664000D01*
X149149000Y-94666000D01*
X149147000Y-94668000D01*
X149145000Y-94670000D01*
X149143000Y-94672000D01*
X149141000Y-94674000D01*
X149139000Y-94675000D01*
X149137000Y-94677000D01*
X149135000Y-94678000D01*
X149133000Y-94680000D01*
X149130000Y-94681000D01*
X149128000Y-94682000D01*
X149125000Y-94683000D01*
X149123000Y-94683000D01*
X149120000Y-94684000D01*
X149118000Y-94684000D01*
X149115000Y-94685000D01*
X149113000Y-94685000D01*
X149110000Y-94685000D01*
X148960000Y-94685000D01*
X148957000Y-94685000D01*
X148955000Y-94685000D01*
X148952000Y-94684000D01*
X148950000Y-94684000D01*
X148947000Y-94683000D01*
X148945000Y-94683000D01*
X148942000Y-94682000D01*
X148940000Y-94681000D01*
X148937000Y-94680000D01*
X148935000Y-94678000D01*
X148933000Y-94677000D01*
X148931000Y-94675000D01*
X148929000Y-94674000D01*
X148927000Y-94672000D01*
X148925000Y-94670000D01*
X148923000Y-94668000D01*
X148921000Y-94666000D01*
X148920000Y-94664000D01*
X148918000Y-94662000D01*
X148917000Y-94660000D01*
X148915000Y-94658000D01*
X148914000Y-94655000D01*
X148913000Y-94653000D01*
X148912000Y-94650000D01*
X148912000Y-94648000D01*
X148911000Y-94645000D01*
X148911000Y-94643000D01*
X148910000Y-94640000D01*
X148910000Y-94638000D01*
X148910000Y-94635000D01*
X148910000Y-94360000D01*
X148910000Y-94357000D01*
X148910000Y-94355000D01*
X148911000Y-94352000D01*
X148911000Y-94350000D01*
X148912000Y-94347000D01*
X148912000Y-94345000D01*
X148913000Y-94342000D01*
X148914000Y-94340000D01*
X148915000Y-94337000D01*
X148917000Y-94335000D01*
X148918000Y-94333000D01*
X148920000Y-94331000D01*
X148921000Y-94329000D01*
X148923000Y-94327000D01*
X148925000Y-94325000D01*
X148927000Y-94323000D01*
X148929000Y-94321000D01*
X148931000Y-94320000D01*
X148933000Y-94318000D01*
X148935000Y-94317000D01*
X148937000Y-94315000D01*
X148940000Y-94314000D01*
X148942000Y-94313000D01*
X148945000Y-94312000D01*
X148947000Y-94312000D01*
X148950000Y-94311000D01*
X148952000Y-94311000D01*
X148955000Y-94310000D01*
X148957000Y-94310000D01*
X148960000Y-94310000D01*
X149110000Y-94310000D01*
X149113000Y-94310000D01*
X149115000Y-94310000D01*
X149118000Y-94311000D01*
G37*
X151063000Y-94311000D02*
X151065000Y-94311000D01*
X151068000Y-94312000D01*
X151070000Y-94312000D01*
X151073000Y-94313000D01*
X151075000Y-94314000D01*
X151078000Y-94315000D01*
X151080000Y-94317000D01*
X151082000Y-94318000D01*
X151084000Y-94320000D01*
X151086000Y-94321000D01*
X151088000Y-94323000D01*
X151090000Y-94325000D01*
X151092000Y-94327000D01*
X151094000Y-94329000D01*
X151095000Y-94331000D01*
X151097000Y-94333000D01*
X151098000Y-94335000D01*
X151100000Y-94337000D01*
X151101000Y-94340000D01*
X151102000Y-94342000D01*
X151103000Y-94345000D01*
X151103000Y-94347000D01*
X151104000Y-94350000D01*
X151104000Y-94352000D01*
X151105000Y-94355000D01*
X151105000Y-94357000D01*
X151105000Y-94360000D01*
X151105000Y-95360000D01*
X151105000Y-95363000D01*
X151105000Y-95365000D01*
X151104000Y-95368000D01*
X151104000Y-95370000D01*
X151103000Y-95373000D01*
X151103000Y-95375000D01*
X151102000Y-95378000D01*
X151101000Y-95380000D01*
X151100000Y-95383000D01*
X151098000Y-95385000D01*
X151097000Y-95387000D01*
X151095000Y-95389000D01*
X151094000Y-95391000D01*
X151092000Y-95393000D01*
X151090000Y-95395000D01*
X151088000Y-95397000D01*
X151086000Y-95399000D01*
X151084000Y-95400000D01*
X151082000Y-95402000D01*
X151080000Y-95403000D01*
X151078000Y-95405000D01*
X151075000Y-95406000D01*
X151073000Y-95407000D01*
X151070000Y-95408000D01*
X151068000Y-95408000D01*
X151065000Y-95409000D01*
X151063000Y-95409000D01*
X151060000Y-95410000D01*
X151058000Y-95410000D01*
X151055000Y-95410000D01*
X150905000Y-95410000D01*
X150902000Y-95410000D01*
X150900000Y-95410000D01*
X150897000Y-95409000D01*
X150895000Y-95409000D01*
X150892000Y-95408000D01*
X150890000Y-95408000D01*
X150887000Y-95407000D01*
X150885000Y-95406000D01*
X150882000Y-95405000D01*
X150880000Y-95403000D01*
X150878000Y-95402000D01*
X150876000Y-95400000D01*
X150874000Y-95399000D01*
X150872000Y-95397000D01*
X150870000Y-95395000D01*
X150868000Y-95393000D01*
X150866000Y-95391000D01*
X150865000Y-95389000D01*
X150863000Y-95387000D01*
X150862000Y-95385000D01*
X150860000Y-95383000D01*
X150859000Y-95380000D01*
X150858000Y-95378000D01*
X150857000Y-95375000D01*
X150857000Y-95373000D01*
X150856000Y-95370000D01*
X150856000Y-95368000D01*
X150855000Y-95365000D01*
X150855000Y-95363000D01*
X150855000Y-95360000D01*
X150855000Y-94360000D01*
X150855000Y-94357000D01*
X150855000Y-94355000D01*
X150856000Y-94352000D01*
X150856000Y-94350000D01*
X150857000Y-94347000D01*
X150857000Y-94345000D01*
X150858000Y-94342000D01*
X150859000Y-94340000D01*
X150860000Y-94337000D01*
X150862000Y-94335000D01*
X150863000Y-94333000D01*
X150865000Y-94331000D01*
X150866000Y-94329000D01*
X150868000Y-94327000D01*
X150870000Y-94325000D01*
X150872000Y-94323000D01*
X150874000Y-94321000D01*
X150876000Y-94320000D01*
X150878000Y-94318000D01*
X150880000Y-94317000D01*
X150882000Y-94315000D01*
X150885000Y-94314000D01*
X150887000Y-94313000D01*
X150890000Y-94312000D01*
X150892000Y-94312000D01*
X150895000Y-94311000D01*
X150897000Y-94311000D01*
X150900000Y-94310000D01*
X150902000Y-94310000D01*
X150905000Y-94310000D01*
X151055000Y-94310000D01*
X151058000Y-94310000D01*
X151060000Y-94310000D01*
X151063000Y-94311000D01*
G36*
X151063000Y-94311000D02*
G01*
X151065000Y-94311000D01*
X151068000Y-94312000D01*
X151070000Y-94312000D01*
X151073000Y-94313000D01*
X151075000Y-94314000D01*
X151078000Y-94315000D01*
X151080000Y-94317000D01*
X151082000Y-94318000D01*
X151084000Y-94320000D01*
X151086000Y-94321000D01*
X151088000Y-94323000D01*
X151090000Y-94325000D01*
X151092000Y-94327000D01*
X151094000Y-94329000D01*
X151095000Y-94331000D01*
X151097000Y-94333000D01*
X151098000Y-94335000D01*
X151100000Y-94337000D01*
X151101000Y-94340000D01*
X151102000Y-94342000D01*
X151103000Y-94345000D01*
X151103000Y-94347000D01*
X151104000Y-94350000D01*
X151104000Y-94352000D01*
X151105000Y-94355000D01*
X151105000Y-94357000D01*
X151105000Y-94360000D01*
X151105000Y-95360000D01*
X151105000Y-95363000D01*
X151105000Y-95365000D01*
X151104000Y-95368000D01*
X151104000Y-95370000D01*
X151103000Y-95373000D01*
X151103000Y-95375000D01*
X151102000Y-95378000D01*
X151101000Y-95380000D01*
X151100000Y-95383000D01*
X151098000Y-95385000D01*
X151097000Y-95387000D01*
X151095000Y-95389000D01*
X151094000Y-95391000D01*
X151092000Y-95393000D01*
X151090000Y-95395000D01*
X151088000Y-95397000D01*
X151086000Y-95399000D01*
X151084000Y-95400000D01*
X151082000Y-95402000D01*
X151080000Y-95403000D01*
X151078000Y-95405000D01*
X151075000Y-95406000D01*
X151073000Y-95407000D01*
X151070000Y-95408000D01*
X151068000Y-95408000D01*
X151065000Y-95409000D01*
X151063000Y-95409000D01*
X151060000Y-95410000D01*
X151058000Y-95410000D01*
X151055000Y-95410000D01*
X150905000Y-95410000D01*
X150902000Y-95410000D01*
X150900000Y-95410000D01*
X150897000Y-95409000D01*
X150895000Y-95409000D01*
X150892000Y-95408000D01*
X150890000Y-95408000D01*
X150887000Y-95407000D01*
X150885000Y-95406000D01*
X150882000Y-95405000D01*
X150880000Y-95403000D01*
X150878000Y-95402000D01*
X150876000Y-95400000D01*
X150874000Y-95399000D01*
X150872000Y-95397000D01*
X150870000Y-95395000D01*
X150868000Y-95393000D01*
X150866000Y-95391000D01*
X150865000Y-95389000D01*
X150863000Y-95387000D01*
X150862000Y-95385000D01*
X150860000Y-95383000D01*
X150859000Y-95380000D01*
X150858000Y-95378000D01*
X150857000Y-95375000D01*
X150857000Y-95373000D01*
X150856000Y-95370000D01*
X150856000Y-95368000D01*
X150855000Y-95365000D01*
X150855000Y-95363000D01*
X150855000Y-95360000D01*
X150855000Y-94360000D01*
X150855000Y-94357000D01*
X150855000Y-94355000D01*
X150856000Y-94352000D01*
X150856000Y-94350000D01*
X150857000Y-94347000D01*
X150857000Y-94345000D01*
X150858000Y-94342000D01*
X150859000Y-94340000D01*
X150860000Y-94337000D01*
X150862000Y-94335000D01*
X150863000Y-94333000D01*
X150865000Y-94331000D01*
X150866000Y-94329000D01*
X150868000Y-94327000D01*
X150870000Y-94325000D01*
X150872000Y-94323000D01*
X150874000Y-94321000D01*
X150876000Y-94320000D01*
X150878000Y-94318000D01*
X150880000Y-94317000D01*
X150882000Y-94315000D01*
X150885000Y-94314000D01*
X150887000Y-94313000D01*
X150890000Y-94312000D01*
X150892000Y-94312000D01*
X150895000Y-94311000D01*
X150897000Y-94311000D01*
X150900000Y-94310000D01*
X150902000Y-94310000D01*
X150905000Y-94310000D01*
X151055000Y-94310000D01*
X151058000Y-94310000D01*
X151060000Y-94310000D01*
X151063000Y-94311000D01*
G37*
X152433000Y-94311000D02*
X152435000Y-94311000D01*
X152438000Y-94312000D01*
X152440000Y-94312000D01*
X152443000Y-94313000D01*
X152445000Y-94314000D01*
X152448000Y-94315000D01*
X152450000Y-94317000D01*
X152452000Y-94318000D01*
X152454000Y-94320000D01*
X152456000Y-94321000D01*
X152458000Y-94323000D01*
X152460000Y-94325000D01*
X152462000Y-94327000D01*
X152464000Y-94329000D01*
X152465000Y-94331000D01*
X152467000Y-94333000D01*
X152468000Y-94335000D01*
X152470000Y-94337000D01*
X152471000Y-94340000D01*
X152472000Y-94342000D01*
X152473000Y-94345000D01*
X152473000Y-94347000D01*
X152474000Y-94350000D01*
X152474000Y-94352000D01*
X152475000Y-94355000D01*
X152475000Y-94357000D01*
X152475000Y-94360000D01*
X152475000Y-95385000D01*
X152475000Y-95388000D01*
X152475000Y-95390000D01*
X152474000Y-95393000D01*
X152474000Y-95395000D01*
X152473000Y-95398000D01*
X152473000Y-95400000D01*
X152472000Y-95403000D01*
X152471000Y-95405000D01*
X152470000Y-95408000D01*
X152468000Y-95410000D01*
X152467000Y-95412000D01*
X152465000Y-95414000D01*
X152464000Y-95416000D01*
X152462000Y-95418000D01*
X152460000Y-95420000D01*
X152458000Y-95422000D01*
X152456000Y-95424000D01*
X152454000Y-95425000D01*
X152452000Y-95427000D01*
X152450000Y-95428000D01*
X152448000Y-95430000D01*
X152445000Y-95431000D01*
X152443000Y-95432000D01*
X152440000Y-95433000D01*
X152438000Y-95433000D01*
X152435000Y-95434000D01*
X152433000Y-95434000D01*
X152430000Y-95435000D01*
X152428000Y-95435000D01*
X152425000Y-95435000D01*
X152155000Y-95435000D01*
X152152000Y-95435000D01*
X152150000Y-95435000D01*
X152147000Y-95434000D01*
X152145000Y-95434000D01*
X152142000Y-95433000D01*
X152140000Y-95433000D01*
X152137000Y-95432000D01*
X152135000Y-95431000D01*
X152132000Y-95430000D01*
X152130000Y-95428000D01*
X152128000Y-95427000D01*
X152126000Y-95425000D01*
X152124000Y-95424000D01*
X152122000Y-95422000D01*
X152120000Y-95420000D01*
X152118000Y-95418000D01*
X152116000Y-95416000D01*
X152115000Y-95414000D01*
X152113000Y-95412000D01*
X152112000Y-95410000D01*
X152110000Y-95408000D01*
X152109000Y-95405000D01*
X152108000Y-95403000D01*
X152107000Y-95400000D01*
X152107000Y-95398000D01*
X152106000Y-95395000D01*
X152106000Y-95393000D01*
X152105000Y-95390000D01*
X152105000Y-95388000D01*
X152105000Y-95385000D01*
X152105000Y-94360000D01*
X152105000Y-94357000D01*
X152105000Y-94355000D01*
X152106000Y-94352000D01*
X152106000Y-94350000D01*
X152107000Y-94347000D01*
X152107000Y-94345000D01*
X152108000Y-94342000D01*
X152109000Y-94340000D01*
X152110000Y-94337000D01*
X152112000Y-94335000D01*
X152113000Y-94333000D01*
X152115000Y-94331000D01*
X152116000Y-94329000D01*
X152118000Y-94327000D01*
X152120000Y-94325000D01*
X152122000Y-94323000D01*
X152124000Y-94321000D01*
X152126000Y-94320000D01*
X152128000Y-94318000D01*
X152130000Y-94317000D01*
X152132000Y-94315000D01*
X152135000Y-94314000D01*
X152137000Y-94313000D01*
X152140000Y-94312000D01*
X152142000Y-94312000D01*
X152145000Y-94311000D01*
X152147000Y-94311000D01*
X152150000Y-94310000D01*
X152152000Y-94310000D01*
X152155000Y-94310000D01*
X152425000Y-94310000D01*
X152428000Y-94310000D01*
X152430000Y-94310000D01*
X152433000Y-94311000D01*
G36*
X152433000Y-94311000D02*
G01*
X152435000Y-94311000D01*
X152438000Y-94312000D01*
X152440000Y-94312000D01*
X152443000Y-94313000D01*
X152445000Y-94314000D01*
X152448000Y-94315000D01*
X152450000Y-94317000D01*
X152452000Y-94318000D01*
X152454000Y-94320000D01*
X152456000Y-94321000D01*
X152458000Y-94323000D01*
X152460000Y-94325000D01*
X152462000Y-94327000D01*
X152464000Y-94329000D01*
X152465000Y-94331000D01*
X152467000Y-94333000D01*
X152468000Y-94335000D01*
X152470000Y-94337000D01*
X152471000Y-94340000D01*
X152472000Y-94342000D01*
X152473000Y-94345000D01*
X152473000Y-94347000D01*
X152474000Y-94350000D01*
X152474000Y-94352000D01*
X152475000Y-94355000D01*
X152475000Y-94357000D01*
X152475000Y-94360000D01*
X152475000Y-95385000D01*
X152475000Y-95388000D01*
X152475000Y-95390000D01*
X152474000Y-95393000D01*
X152474000Y-95395000D01*
X152473000Y-95398000D01*
X152473000Y-95400000D01*
X152472000Y-95403000D01*
X152471000Y-95405000D01*
X152470000Y-95408000D01*
X152468000Y-95410000D01*
X152467000Y-95412000D01*
X152465000Y-95414000D01*
X152464000Y-95416000D01*
X152462000Y-95418000D01*
X152460000Y-95420000D01*
X152458000Y-95422000D01*
X152456000Y-95424000D01*
X152454000Y-95425000D01*
X152452000Y-95427000D01*
X152450000Y-95428000D01*
X152448000Y-95430000D01*
X152445000Y-95431000D01*
X152443000Y-95432000D01*
X152440000Y-95433000D01*
X152438000Y-95433000D01*
X152435000Y-95434000D01*
X152433000Y-95434000D01*
X152430000Y-95435000D01*
X152428000Y-95435000D01*
X152425000Y-95435000D01*
X152155000Y-95435000D01*
X152152000Y-95435000D01*
X152150000Y-95435000D01*
X152147000Y-95434000D01*
X152145000Y-95434000D01*
X152142000Y-95433000D01*
X152140000Y-95433000D01*
X152137000Y-95432000D01*
X152135000Y-95431000D01*
X152132000Y-95430000D01*
X152130000Y-95428000D01*
X152128000Y-95427000D01*
X152126000Y-95425000D01*
X152124000Y-95424000D01*
X152122000Y-95422000D01*
X152120000Y-95420000D01*
X152118000Y-95418000D01*
X152116000Y-95416000D01*
X152115000Y-95414000D01*
X152113000Y-95412000D01*
X152112000Y-95410000D01*
X152110000Y-95408000D01*
X152109000Y-95405000D01*
X152108000Y-95403000D01*
X152107000Y-95400000D01*
X152107000Y-95398000D01*
X152106000Y-95395000D01*
X152106000Y-95393000D01*
X152105000Y-95390000D01*
X152105000Y-95388000D01*
X152105000Y-95385000D01*
X152105000Y-94360000D01*
X152105000Y-94357000D01*
X152105000Y-94355000D01*
X152106000Y-94352000D01*
X152106000Y-94350000D01*
X152107000Y-94347000D01*
X152107000Y-94345000D01*
X152108000Y-94342000D01*
X152109000Y-94340000D01*
X152110000Y-94337000D01*
X152112000Y-94335000D01*
X152113000Y-94333000D01*
X152115000Y-94331000D01*
X152116000Y-94329000D01*
X152118000Y-94327000D01*
X152120000Y-94325000D01*
X152122000Y-94323000D01*
X152124000Y-94321000D01*
X152126000Y-94320000D01*
X152128000Y-94318000D01*
X152130000Y-94317000D01*
X152132000Y-94315000D01*
X152135000Y-94314000D01*
X152137000Y-94313000D01*
X152140000Y-94312000D01*
X152142000Y-94312000D01*
X152145000Y-94311000D01*
X152147000Y-94311000D01*
X152150000Y-94310000D01*
X152152000Y-94310000D01*
X152155000Y-94310000D01*
X152425000Y-94310000D01*
X152428000Y-94310000D01*
X152430000Y-94310000D01*
X152433000Y-94311000D01*
G37*
X149603000Y-94881000D02*
X149605000Y-94881000D01*
X149608000Y-94882000D01*
X149610000Y-94882000D01*
X149613000Y-94883000D01*
X149615000Y-94884000D01*
X149618000Y-94885000D01*
X149620000Y-94887000D01*
X149622000Y-94888000D01*
X149624000Y-94890000D01*
X149626000Y-94891000D01*
X149628000Y-94893000D01*
X149630000Y-94895000D01*
X149632000Y-94897000D01*
X149634000Y-94899000D01*
X149635000Y-94901000D01*
X149637000Y-94903000D01*
X149638000Y-94905000D01*
X149640000Y-94907000D01*
X149641000Y-94910000D01*
X149642000Y-94912000D01*
X149643000Y-94915000D01*
X149643000Y-94917000D01*
X149644000Y-94920000D01*
X149644000Y-94922000D01*
X149645000Y-94925000D01*
X149645000Y-94927000D01*
X149645000Y-94930000D01*
X149645000Y-95760000D01*
X149645000Y-95763000D01*
X149645000Y-95765000D01*
X149644000Y-95768000D01*
X149644000Y-95770000D01*
X149643000Y-95773000D01*
X149643000Y-95775000D01*
X149642000Y-95778000D01*
X149641000Y-95780000D01*
X149640000Y-95783000D01*
X149638000Y-95785000D01*
X149637000Y-95787000D01*
X149635000Y-95789000D01*
X149634000Y-95791000D01*
X149632000Y-95793000D01*
X149630000Y-95795000D01*
X149628000Y-95797000D01*
X149626000Y-95799000D01*
X149624000Y-95800000D01*
X149622000Y-95802000D01*
X149620000Y-95803000D01*
X149618000Y-95805000D01*
X149615000Y-95806000D01*
X149613000Y-95807000D01*
X149610000Y-95808000D01*
X149608000Y-95808000D01*
X149605000Y-95809000D01*
X149603000Y-95809000D01*
X149600000Y-95810000D01*
X149598000Y-95810000D01*
X149595000Y-95810000D01*
X149075000Y-95810000D01*
X149072000Y-95810000D01*
X149070000Y-95810000D01*
X149067000Y-95809000D01*
X149065000Y-95809000D01*
X149062000Y-95808000D01*
X149060000Y-95808000D01*
X149057000Y-95807000D01*
X149055000Y-95806000D01*
X149052000Y-95805000D01*
X149050000Y-95803000D01*
X149048000Y-95802000D01*
X149046000Y-95800000D01*
X149044000Y-95799000D01*
X149042000Y-95797000D01*
X149040000Y-95795000D01*
X149038000Y-95793000D01*
X149036000Y-95791000D01*
X149035000Y-95789000D01*
X149033000Y-95787000D01*
X149032000Y-95785000D01*
X149030000Y-95783000D01*
X149029000Y-95780000D01*
X149028000Y-95778000D01*
X149027000Y-95775000D01*
X149027000Y-95773000D01*
X149026000Y-95770000D01*
X149026000Y-95768000D01*
X149025000Y-95765000D01*
X149025000Y-95763000D01*
X149025000Y-95760000D01*
X149025000Y-94930000D01*
X149025000Y-94927000D01*
X149025000Y-94925000D01*
X149026000Y-94922000D01*
X149026000Y-94920000D01*
X149027000Y-94917000D01*
X149027000Y-94915000D01*
X149028000Y-94912000D01*
X149029000Y-94910000D01*
X149030000Y-94907000D01*
X149032000Y-94905000D01*
X149033000Y-94903000D01*
X149035000Y-94901000D01*
X149036000Y-94899000D01*
X149038000Y-94897000D01*
X149040000Y-94895000D01*
X149042000Y-94893000D01*
X149044000Y-94891000D01*
X149046000Y-94890000D01*
X149048000Y-94888000D01*
X149050000Y-94887000D01*
X149052000Y-94885000D01*
X149055000Y-94884000D01*
X149057000Y-94883000D01*
X149060000Y-94882000D01*
X149062000Y-94882000D01*
X149065000Y-94881000D01*
X149067000Y-94881000D01*
X149070000Y-94880000D01*
X149072000Y-94880000D01*
X149075000Y-94880000D01*
X149595000Y-94880000D01*
X149598000Y-94880000D01*
X149600000Y-94880000D01*
X149603000Y-94881000D01*
G36*
X149603000Y-94881000D02*
G01*
X149605000Y-94881000D01*
X149608000Y-94882000D01*
X149610000Y-94882000D01*
X149613000Y-94883000D01*
X149615000Y-94884000D01*
X149618000Y-94885000D01*
X149620000Y-94887000D01*
X149622000Y-94888000D01*
X149624000Y-94890000D01*
X149626000Y-94891000D01*
X149628000Y-94893000D01*
X149630000Y-94895000D01*
X149632000Y-94897000D01*
X149634000Y-94899000D01*
X149635000Y-94901000D01*
X149637000Y-94903000D01*
X149638000Y-94905000D01*
X149640000Y-94907000D01*
X149641000Y-94910000D01*
X149642000Y-94912000D01*
X149643000Y-94915000D01*
X149643000Y-94917000D01*
X149644000Y-94920000D01*
X149644000Y-94922000D01*
X149645000Y-94925000D01*
X149645000Y-94927000D01*
X149645000Y-94930000D01*
X149645000Y-95760000D01*
X149645000Y-95763000D01*
X149645000Y-95765000D01*
X149644000Y-95768000D01*
X149644000Y-95770000D01*
X149643000Y-95773000D01*
X149643000Y-95775000D01*
X149642000Y-95778000D01*
X149641000Y-95780000D01*
X149640000Y-95783000D01*
X149638000Y-95785000D01*
X149637000Y-95787000D01*
X149635000Y-95789000D01*
X149634000Y-95791000D01*
X149632000Y-95793000D01*
X149630000Y-95795000D01*
X149628000Y-95797000D01*
X149626000Y-95799000D01*
X149624000Y-95800000D01*
X149622000Y-95802000D01*
X149620000Y-95803000D01*
X149618000Y-95805000D01*
X149615000Y-95806000D01*
X149613000Y-95807000D01*
X149610000Y-95808000D01*
X149608000Y-95808000D01*
X149605000Y-95809000D01*
X149603000Y-95809000D01*
X149600000Y-95810000D01*
X149598000Y-95810000D01*
X149595000Y-95810000D01*
X149075000Y-95810000D01*
X149072000Y-95810000D01*
X149070000Y-95810000D01*
X149067000Y-95809000D01*
X149065000Y-95809000D01*
X149062000Y-95808000D01*
X149060000Y-95808000D01*
X149057000Y-95807000D01*
X149055000Y-95806000D01*
X149052000Y-95805000D01*
X149050000Y-95803000D01*
X149048000Y-95802000D01*
X149046000Y-95800000D01*
X149044000Y-95799000D01*
X149042000Y-95797000D01*
X149040000Y-95795000D01*
X149038000Y-95793000D01*
X149036000Y-95791000D01*
X149035000Y-95789000D01*
X149033000Y-95787000D01*
X149032000Y-95785000D01*
X149030000Y-95783000D01*
X149029000Y-95780000D01*
X149028000Y-95778000D01*
X149027000Y-95775000D01*
X149027000Y-95773000D01*
X149026000Y-95770000D01*
X149026000Y-95768000D01*
X149025000Y-95765000D01*
X149025000Y-95763000D01*
X149025000Y-95760000D01*
X149025000Y-94930000D01*
X149025000Y-94927000D01*
X149025000Y-94925000D01*
X149026000Y-94922000D01*
X149026000Y-94920000D01*
X149027000Y-94917000D01*
X149027000Y-94915000D01*
X149028000Y-94912000D01*
X149029000Y-94910000D01*
X149030000Y-94907000D01*
X149032000Y-94905000D01*
X149033000Y-94903000D01*
X149035000Y-94901000D01*
X149036000Y-94899000D01*
X149038000Y-94897000D01*
X149040000Y-94895000D01*
X149042000Y-94893000D01*
X149044000Y-94891000D01*
X149046000Y-94890000D01*
X149048000Y-94888000D01*
X149050000Y-94887000D01*
X149052000Y-94885000D01*
X149055000Y-94884000D01*
X149057000Y-94883000D01*
X149060000Y-94882000D01*
X149062000Y-94882000D01*
X149065000Y-94881000D01*
X149067000Y-94881000D01*
X149070000Y-94880000D01*
X149072000Y-94880000D01*
X149075000Y-94880000D01*
X149595000Y-94880000D01*
X149598000Y-94880000D01*
X149600000Y-94880000D01*
X149603000Y-94881000D01*
G37*
X150318000Y-94881000D02*
X150320000Y-94881000D01*
X150323000Y-94882000D01*
X150325000Y-94882000D01*
X150328000Y-94883000D01*
X150330000Y-94884000D01*
X150333000Y-94885000D01*
X150335000Y-94887000D01*
X150337000Y-94888000D01*
X150339000Y-94890000D01*
X150341000Y-94891000D01*
X150343000Y-94893000D01*
X150345000Y-94895000D01*
X150347000Y-94897000D01*
X150349000Y-94899000D01*
X150350000Y-94901000D01*
X150352000Y-94903000D01*
X150353000Y-94905000D01*
X150355000Y-94907000D01*
X150356000Y-94910000D01*
X150357000Y-94912000D01*
X150358000Y-94915000D01*
X150358000Y-94917000D01*
X150359000Y-94920000D01*
X150359000Y-94922000D01*
X150360000Y-94925000D01*
X150360000Y-94927000D01*
X150360000Y-94930000D01*
X150360000Y-95760000D01*
X150360000Y-95763000D01*
X150360000Y-95765000D01*
X150359000Y-95768000D01*
X150359000Y-95770000D01*
X150358000Y-95773000D01*
X150358000Y-95775000D01*
X150357000Y-95778000D01*
X150356000Y-95780000D01*
X150355000Y-95783000D01*
X150353000Y-95785000D01*
X150352000Y-95787000D01*
X150350000Y-95789000D01*
X150349000Y-95791000D01*
X150347000Y-95793000D01*
X150345000Y-95795000D01*
X150343000Y-95797000D01*
X150341000Y-95799000D01*
X150339000Y-95800000D01*
X150337000Y-95802000D01*
X150335000Y-95803000D01*
X150333000Y-95805000D01*
X150330000Y-95806000D01*
X150328000Y-95807000D01*
X150325000Y-95808000D01*
X150323000Y-95808000D01*
X150320000Y-95809000D01*
X150318000Y-95809000D01*
X150315000Y-95810000D01*
X150313000Y-95810000D01*
X150310000Y-95810000D01*
X149900000Y-95810000D01*
X149897000Y-95810000D01*
X149895000Y-95810000D01*
X149892000Y-95809000D01*
X149890000Y-95809000D01*
X149887000Y-95808000D01*
X149885000Y-95808000D01*
X149882000Y-95807000D01*
X149880000Y-95806000D01*
X149877000Y-95805000D01*
X149875000Y-95803000D01*
X149873000Y-95802000D01*
X149871000Y-95800000D01*
X149869000Y-95799000D01*
X149867000Y-95797000D01*
X149865000Y-95795000D01*
X149863000Y-95793000D01*
X149861000Y-95791000D01*
X149860000Y-95789000D01*
X149858000Y-95787000D01*
X149857000Y-95785000D01*
X149855000Y-95783000D01*
X149854000Y-95780000D01*
X149853000Y-95778000D01*
X149852000Y-95775000D01*
X149852000Y-95773000D01*
X149851000Y-95770000D01*
X149851000Y-95768000D01*
X149850000Y-95765000D01*
X149850000Y-95763000D01*
X149850000Y-95760000D01*
X149850000Y-94930000D01*
X149850000Y-94927000D01*
X149850000Y-94925000D01*
X149851000Y-94922000D01*
X149851000Y-94920000D01*
X149852000Y-94917000D01*
X149852000Y-94915000D01*
X149853000Y-94912000D01*
X149854000Y-94910000D01*
X149855000Y-94907000D01*
X149857000Y-94905000D01*
X149858000Y-94903000D01*
X149860000Y-94901000D01*
X149861000Y-94899000D01*
X149863000Y-94897000D01*
X149865000Y-94895000D01*
X149867000Y-94893000D01*
X149869000Y-94891000D01*
X149871000Y-94890000D01*
X149873000Y-94888000D01*
X149875000Y-94887000D01*
X149877000Y-94885000D01*
X149880000Y-94884000D01*
X149882000Y-94883000D01*
X149885000Y-94882000D01*
X149887000Y-94882000D01*
X149890000Y-94881000D01*
X149892000Y-94881000D01*
X149895000Y-94880000D01*
X149897000Y-94880000D01*
X149900000Y-94880000D01*
X150310000Y-94880000D01*
X150313000Y-94880000D01*
X150315000Y-94880000D01*
X150318000Y-94881000D01*
G36*
X150318000Y-94881000D02*
G01*
X150320000Y-94881000D01*
X150323000Y-94882000D01*
X150325000Y-94882000D01*
X150328000Y-94883000D01*
X150330000Y-94884000D01*
X150333000Y-94885000D01*
X150335000Y-94887000D01*
X150337000Y-94888000D01*
X150339000Y-94890000D01*
X150341000Y-94891000D01*
X150343000Y-94893000D01*
X150345000Y-94895000D01*
X150347000Y-94897000D01*
X150349000Y-94899000D01*
X150350000Y-94901000D01*
X150352000Y-94903000D01*
X150353000Y-94905000D01*
X150355000Y-94907000D01*
X150356000Y-94910000D01*
X150357000Y-94912000D01*
X150358000Y-94915000D01*
X150358000Y-94917000D01*
X150359000Y-94920000D01*
X150359000Y-94922000D01*
X150360000Y-94925000D01*
X150360000Y-94927000D01*
X150360000Y-94930000D01*
X150360000Y-95760000D01*
X150360000Y-95763000D01*
X150360000Y-95765000D01*
X150359000Y-95768000D01*
X150359000Y-95770000D01*
X150358000Y-95773000D01*
X150358000Y-95775000D01*
X150357000Y-95778000D01*
X150356000Y-95780000D01*
X150355000Y-95783000D01*
X150353000Y-95785000D01*
X150352000Y-95787000D01*
X150350000Y-95789000D01*
X150349000Y-95791000D01*
X150347000Y-95793000D01*
X150345000Y-95795000D01*
X150343000Y-95797000D01*
X150341000Y-95799000D01*
X150339000Y-95800000D01*
X150337000Y-95802000D01*
X150335000Y-95803000D01*
X150333000Y-95805000D01*
X150330000Y-95806000D01*
X150328000Y-95807000D01*
X150325000Y-95808000D01*
X150323000Y-95808000D01*
X150320000Y-95809000D01*
X150318000Y-95809000D01*
X150315000Y-95810000D01*
X150313000Y-95810000D01*
X150310000Y-95810000D01*
X149900000Y-95810000D01*
X149897000Y-95810000D01*
X149895000Y-95810000D01*
X149892000Y-95809000D01*
X149890000Y-95809000D01*
X149887000Y-95808000D01*
X149885000Y-95808000D01*
X149882000Y-95807000D01*
X149880000Y-95806000D01*
X149877000Y-95805000D01*
X149875000Y-95803000D01*
X149873000Y-95802000D01*
X149871000Y-95800000D01*
X149869000Y-95799000D01*
X149867000Y-95797000D01*
X149865000Y-95795000D01*
X149863000Y-95793000D01*
X149861000Y-95791000D01*
X149860000Y-95789000D01*
X149858000Y-95787000D01*
X149857000Y-95785000D01*
X149855000Y-95783000D01*
X149854000Y-95780000D01*
X149853000Y-95778000D01*
X149852000Y-95775000D01*
X149852000Y-95773000D01*
X149851000Y-95770000D01*
X149851000Y-95768000D01*
X149850000Y-95765000D01*
X149850000Y-95763000D01*
X149850000Y-95760000D01*
X149850000Y-94930000D01*
X149850000Y-94927000D01*
X149850000Y-94925000D01*
X149851000Y-94922000D01*
X149851000Y-94920000D01*
X149852000Y-94917000D01*
X149852000Y-94915000D01*
X149853000Y-94912000D01*
X149854000Y-94910000D01*
X149855000Y-94907000D01*
X149857000Y-94905000D01*
X149858000Y-94903000D01*
X149860000Y-94901000D01*
X149861000Y-94899000D01*
X149863000Y-94897000D01*
X149865000Y-94895000D01*
X149867000Y-94893000D01*
X149869000Y-94891000D01*
X149871000Y-94890000D01*
X149873000Y-94888000D01*
X149875000Y-94887000D01*
X149877000Y-94885000D01*
X149880000Y-94884000D01*
X149882000Y-94883000D01*
X149885000Y-94882000D01*
X149887000Y-94882000D01*
X149890000Y-94881000D01*
X149892000Y-94881000D01*
X149895000Y-94880000D01*
X149897000Y-94880000D01*
X149900000Y-94880000D01*
X150310000Y-94880000D01*
X150313000Y-94880000D01*
X150315000Y-94880000D01*
X150318000Y-94881000D01*
G37*
X148778000Y-94881000D02*
X148780000Y-94881000D01*
X148783000Y-94882000D01*
X148785000Y-94882000D01*
X148788000Y-94883000D01*
X148790000Y-94884000D01*
X148793000Y-94885000D01*
X148795000Y-94887000D01*
X148797000Y-94888000D01*
X148799000Y-94890000D01*
X148801000Y-94891000D01*
X148803000Y-94893000D01*
X148805000Y-94895000D01*
X148807000Y-94897000D01*
X148809000Y-94899000D01*
X148810000Y-94901000D01*
X148812000Y-94903000D01*
X148813000Y-94905000D01*
X148815000Y-94907000D01*
X148816000Y-94910000D01*
X148817000Y-94912000D01*
X148818000Y-94915000D01*
X148818000Y-94917000D01*
X148819000Y-94920000D01*
X148819000Y-94922000D01*
X148820000Y-94925000D01*
X148820000Y-94927000D01*
X148820000Y-94930000D01*
X148820000Y-95760000D01*
X148820000Y-95763000D01*
X148820000Y-95765000D01*
X148819000Y-95768000D01*
X148819000Y-95770000D01*
X148818000Y-95773000D01*
X148818000Y-95775000D01*
X148817000Y-95778000D01*
X148816000Y-95780000D01*
X148815000Y-95783000D01*
X148813000Y-95785000D01*
X148812000Y-95787000D01*
X148810000Y-95789000D01*
X148809000Y-95791000D01*
X148807000Y-95793000D01*
X148805000Y-95795000D01*
X148803000Y-95797000D01*
X148801000Y-95799000D01*
X148799000Y-95800000D01*
X148797000Y-95802000D01*
X148795000Y-95803000D01*
X148793000Y-95805000D01*
X148790000Y-95806000D01*
X148788000Y-95807000D01*
X148785000Y-95808000D01*
X148783000Y-95808000D01*
X148780000Y-95809000D01*
X148778000Y-95809000D01*
X148775000Y-95810000D01*
X148773000Y-95810000D01*
X148770000Y-95810000D01*
X148360000Y-95810000D01*
X148357000Y-95810000D01*
X148355000Y-95810000D01*
X148352000Y-95809000D01*
X148350000Y-95809000D01*
X148347000Y-95808000D01*
X148345000Y-95808000D01*
X148342000Y-95807000D01*
X148340000Y-95806000D01*
X148337000Y-95805000D01*
X148335000Y-95803000D01*
X148333000Y-95802000D01*
X148331000Y-95800000D01*
X148329000Y-95799000D01*
X148327000Y-95797000D01*
X148325000Y-95795000D01*
X148323000Y-95793000D01*
X148321000Y-95791000D01*
X148320000Y-95789000D01*
X148318000Y-95787000D01*
X148317000Y-95785000D01*
X148315000Y-95783000D01*
X148314000Y-95780000D01*
X148313000Y-95778000D01*
X148312000Y-95775000D01*
X148312000Y-95773000D01*
X148311000Y-95770000D01*
X148311000Y-95768000D01*
X148310000Y-95765000D01*
X148310000Y-95763000D01*
X148310000Y-95760000D01*
X148310000Y-94930000D01*
X148310000Y-94927000D01*
X148310000Y-94925000D01*
X148311000Y-94922000D01*
X148311000Y-94920000D01*
X148312000Y-94917000D01*
X148312000Y-94915000D01*
X148313000Y-94912000D01*
X148314000Y-94910000D01*
X148315000Y-94907000D01*
X148317000Y-94905000D01*
X148318000Y-94903000D01*
X148320000Y-94901000D01*
X148321000Y-94899000D01*
X148323000Y-94897000D01*
X148325000Y-94895000D01*
X148327000Y-94893000D01*
X148329000Y-94891000D01*
X148331000Y-94890000D01*
X148333000Y-94888000D01*
X148335000Y-94887000D01*
X148337000Y-94885000D01*
X148340000Y-94884000D01*
X148342000Y-94883000D01*
X148345000Y-94882000D01*
X148347000Y-94882000D01*
X148350000Y-94881000D01*
X148352000Y-94881000D01*
X148355000Y-94880000D01*
X148357000Y-94880000D01*
X148360000Y-94880000D01*
X148770000Y-94880000D01*
X148773000Y-94880000D01*
X148775000Y-94880000D01*
X148778000Y-94881000D01*
G36*
X148778000Y-94881000D02*
G01*
X148780000Y-94881000D01*
X148783000Y-94882000D01*
X148785000Y-94882000D01*
X148788000Y-94883000D01*
X148790000Y-94884000D01*
X148793000Y-94885000D01*
X148795000Y-94887000D01*
X148797000Y-94888000D01*
X148799000Y-94890000D01*
X148801000Y-94891000D01*
X148803000Y-94893000D01*
X148805000Y-94895000D01*
X148807000Y-94897000D01*
X148809000Y-94899000D01*
X148810000Y-94901000D01*
X148812000Y-94903000D01*
X148813000Y-94905000D01*
X148815000Y-94907000D01*
X148816000Y-94910000D01*
X148817000Y-94912000D01*
X148818000Y-94915000D01*
X148818000Y-94917000D01*
X148819000Y-94920000D01*
X148819000Y-94922000D01*
X148820000Y-94925000D01*
X148820000Y-94927000D01*
X148820000Y-94930000D01*
X148820000Y-95760000D01*
X148820000Y-95763000D01*
X148820000Y-95765000D01*
X148819000Y-95768000D01*
X148819000Y-95770000D01*
X148818000Y-95773000D01*
X148818000Y-95775000D01*
X148817000Y-95778000D01*
X148816000Y-95780000D01*
X148815000Y-95783000D01*
X148813000Y-95785000D01*
X148812000Y-95787000D01*
X148810000Y-95789000D01*
X148809000Y-95791000D01*
X148807000Y-95793000D01*
X148805000Y-95795000D01*
X148803000Y-95797000D01*
X148801000Y-95799000D01*
X148799000Y-95800000D01*
X148797000Y-95802000D01*
X148795000Y-95803000D01*
X148793000Y-95805000D01*
X148790000Y-95806000D01*
X148788000Y-95807000D01*
X148785000Y-95808000D01*
X148783000Y-95808000D01*
X148780000Y-95809000D01*
X148778000Y-95809000D01*
X148775000Y-95810000D01*
X148773000Y-95810000D01*
X148770000Y-95810000D01*
X148360000Y-95810000D01*
X148357000Y-95810000D01*
X148355000Y-95810000D01*
X148352000Y-95809000D01*
X148350000Y-95809000D01*
X148347000Y-95808000D01*
X148345000Y-95808000D01*
X148342000Y-95807000D01*
X148340000Y-95806000D01*
X148337000Y-95805000D01*
X148335000Y-95803000D01*
X148333000Y-95802000D01*
X148331000Y-95800000D01*
X148329000Y-95799000D01*
X148327000Y-95797000D01*
X148325000Y-95795000D01*
X148323000Y-95793000D01*
X148321000Y-95791000D01*
X148320000Y-95789000D01*
X148318000Y-95787000D01*
X148317000Y-95785000D01*
X148315000Y-95783000D01*
X148314000Y-95780000D01*
X148313000Y-95778000D01*
X148312000Y-95775000D01*
X148312000Y-95773000D01*
X148311000Y-95770000D01*
X148311000Y-95768000D01*
X148310000Y-95765000D01*
X148310000Y-95763000D01*
X148310000Y-95760000D01*
X148310000Y-94930000D01*
X148310000Y-94927000D01*
X148310000Y-94925000D01*
X148311000Y-94922000D01*
X148311000Y-94920000D01*
X148312000Y-94917000D01*
X148312000Y-94915000D01*
X148313000Y-94912000D01*
X148314000Y-94910000D01*
X148315000Y-94907000D01*
X148317000Y-94905000D01*
X148318000Y-94903000D01*
X148320000Y-94901000D01*
X148321000Y-94899000D01*
X148323000Y-94897000D01*
X148325000Y-94895000D01*
X148327000Y-94893000D01*
X148329000Y-94891000D01*
X148331000Y-94890000D01*
X148333000Y-94888000D01*
X148335000Y-94887000D01*
X148337000Y-94885000D01*
X148340000Y-94884000D01*
X148342000Y-94883000D01*
X148345000Y-94882000D01*
X148347000Y-94882000D01*
X148350000Y-94881000D01*
X148352000Y-94881000D01*
X148355000Y-94880000D01*
X148357000Y-94880000D01*
X148360000Y-94880000D01*
X148770000Y-94880000D01*
X148773000Y-94880000D01*
X148775000Y-94880000D01*
X148778000Y-94881000D01*
G37*
X152748000Y-95636000D02*
X152750000Y-95636000D01*
X152753000Y-95637000D01*
X152755000Y-95637000D01*
X152758000Y-95638000D01*
X152760000Y-95639000D01*
X152763000Y-95640000D01*
X152765000Y-95642000D01*
X152767000Y-95643000D01*
X152769000Y-95645000D01*
X152771000Y-95646000D01*
X152773000Y-95648000D01*
X152775000Y-95650000D01*
X152777000Y-95652000D01*
X152779000Y-95654000D01*
X152780000Y-95656000D01*
X152782000Y-95658000D01*
X152783000Y-95660000D01*
X152785000Y-95662000D01*
X152786000Y-95665000D01*
X152787000Y-95667000D01*
X152788000Y-95670000D01*
X152788000Y-95672000D01*
X152789000Y-95675000D01*
X152789000Y-95677000D01*
X152790000Y-95680000D01*
X152790000Y-95682000D01*
X152790000Y-95685000D01*
X152790000Y-95835000D01*
X152790000Y-95838000D01*
X152790000Y-95840000D01*
X152789000Y-95843000D01*
X152789000Y-95845000D01*
X152788000Y-95848000D01*
X152788000Y-95850000D01*
X152787000Y-95853000D01*
X152786000Y-95855000D01*
X152785000Y-95858000D01*
X152783000Y-95860000D01*
X152782000Y-95862000D01*
X152780000Y-95864000D01*
X152779000Y-95866000D01*
X152777000Y-95868000D01*
X152775000Y-95870000D01*
X152773000Y-95872000D01*
X152771000Y-95874000D01*
X152769000Y-95875000D01*
X152767000Y-95877000D01*
X152765000Y-95878000D01*
X152763000Y-95880000D01*
X152760000Y-95881000D01*
X152758000Y-95882000D01*
X152755000Y-95883000D01*
X152753000Y-95883000D01*
X152750000Y-95884000D01*
X152748000Y-95884000D01*
X152745000Y-95885000D01*
X152743000Y-95885000D01*
X152740000Y-95885000D01*
X152040000Y-95885000D01*
X152037000Y-95885000D01*
X152035000Y-95885000D01*
X152032000Y-95884000D01*
X152030000Y-95884000D01*
X152027000Y-95883000D01*
X152025000Y-95883000D01*
X152022000Y-95882000D01*
X152020000Y-95881000D01*
X152017000Y-95880000D01*
X152015000Y-95878000D01*
X152013000Y-95877000D01*
X152011000Y-95875000D01*
X152009000Y-95874000D01*
X152007000Y-95872000D01*
X152005000Y-95870000D01*
X152003000Y-95868000D01*
X152001000Y-95866000D01*
X152000000Y-95864000D01*
X151998000Y-95862000D01*
X151997000Y-95860000D01*
X151995000Y-95858000D01*
X151994000Y-95855000D01*
X151993000Y-95853000D01*
X151992000Y-95850000D01*
X151992000Y-95848000D01*
X151991000Y-95845000D01*
X151991000Y-95843000D01*
X151990000Y-95840000D01*
X151990000Y-95838000D01*
X151990000Y-95835000D01*
X151990000Y-95685000D01*
X151990000Y-95682000D01*
X151990000Y-95680000D01*
X151991000Y-95677000D01*
X151991000Y-95675000D01*
X151992000Y-95672000D01*
X151992000Y-95670000D01*
X151993000Y-95667000D01*
X151994000Y-95665000D01*
X151995000Y-95662000D01*
X151997000Y-95660000D01*
X151998000Y-95658000D01*
X152000000Y-95656000D01*
X152001000Y-95654000D01*
X152003000Y-95652000D01*
X152005000Y-95650000D01*
X152007000Y-95648000D01*
X152009000Y-95646000D01*
X152011000Y-95645000D01*
X152013000Y-95643000D01*
X152015000Y-95642000D01*
X152017000Y-95640000D01*
X152020000Y-95639000D01*
X152022000Y-95638000D01*
X152025000Y-95637000D01*
X152027000Y-95637000D01*
X152030000Y-95636000D01*
X152032000Y-95636000D01*
X152035000Y-95635000D01*
X152037000Y-95635000D01*
X152040000Y-95635000D01*
X152740000Y-95635000D01*
X152743000Y-95635000D01*
X152745000Y-95635000D01*
X152748000Y-95636000D01*
G36*
X152748000Y-95636000D02*
G01*
X152750000Y-95636000D01*
X152753000Y-95637000D01*
X152755000Y-95637000D01*
X152758000Y-95638000D01*
X152760000Y-95639000D01*
X152763000Y-95640000D01*
X152765000Y-95642000D01*
X152767000Y-95643000D01*
X152769000Y-95645000D01*
X152771000Y-95646000D01*
X152773000Y-95648000D01*
X152775000Y-95650000D01*
X152777000Y-95652000D01*
X152779000Y-95654000D01*
X152780000Y-95656000D01*
X152782000Y-95658000D01*
X152783000Y-95660000D01*
X152785000Y-95662000D01*
X152786000Y-95665000D01*
X152787000Y-95667000D01*
X152788000Y-95670000D01*
X152788000Y-95672000D01*
X152789000Y-95675000D01*
X152789000Y-95677000D01*
X152790000Y-95680000D01*
X152790000Y-95682000D01*
X152790000Y-95685000D01*
X152790000Y-95835000D01*
X152790000Y-95838000D01*
X152790000Y-95840000D01*
X152789000Y-95843000D01*
X152789000Y-95845000D01*
X152788000Y-95848000D01*
X152788000Y-95850000D01*
X152787000Y-95853000D01*
X152786000Y-95855000D01*
X152785000Y-95858000D01*
X152783000Y-95860000D01*
X152782000Y-95862000D01*
X152780000Y-95864000D01*
X152779000Y-95866000D01*
X152777000Y-95868000D01*
X152775000Y-95870000D01*
X152773000Y-95872000D01*
X152771000Y-95874000D01*
X152769000Y-95875000D01*
X152767000Y-95877000D01*
X152765000Y-95878000D01*
X152763000Y-95880000D01*
X152760000Y-95881000D01*
X152758000Y-95882000D01*
X152755000Y-95883000D01*
X152753000Y-95883000D01*
X152750000Y-95884000D01*
X152748000Y-95884000D01*
X152745000Y-95885000D01*
X152743000Y-95885000D01*
X152740000Y-95885000D01*
X152040000Y-95885000D01*
X152037000Y-95885000D01*
X152035000Y-95885000D01*
X152032000Y-95884000D01*
X152030000Y-95884000D01*
X152027000Y-95883000D01*
X152025000Y-95883000D01*
X152022000Y-95882000D01*
X152020000Y-95881000D01*
X152017000Y-95880000D01*
X152015000Y-95878000D01*
X152013000Y-95877000D01*
X152011000Y-95875000D01*
X152009000Y-95874000D01*
X152007000Y-95872000D01*
X152005000Y-95870000D01*
X152003000Y-95868000D01*
X152001000Y-95866000D01*
X152000000Y-95864000D01*
X151998000Y-95862000D01*
X151997000Y-95860000D01*
X151995000Y-95858000D01*
X151994000Y-95855000D01*
X151993000Y-95853000D01*
X151992000Y-95850000D01*
X151992000Y-95848000D01*
X151991000Y-95845000D01*
X151991000Y-95843000D01*
X151990000Y-95840000D01*
X151990000Y-95838000D01*
X151990000Y-95835000D01*
X151990000Y-95685000D01*
X151990000Y-95682000D01*
X151990000Y-95680000D01*
X151991000Y-95677000D01*
X151991000Y-95675000D01*
X151992000Y-95672000D01*
X151992000Y-95670000D01*
X151993000Y-95667000D01*
X151994000Y-95665000D01*
X151995000Y-95662000D01*
X151997000Y-95660000D01*
X151998000Y-95658000D01*
X152000000Y-95656000D01*
X152001000Y-95654000D01*
X152003000Y-95652000D01*
X152005000Y-95650000D01*
X152007000Y-95648000D01*
X152009000Y-95646000D01*
X152011000Y-95645000D01*
X152013000Y-95643000D01*
X152015000Y-95642000D01*
X152017000Y-95640000D01*
X152020000Y-95639000D01*
X152022000Y-95638000D01*
X152025000Y-95637000D01*
X152027000Y-95637000D01*
X152030000Y-95636000D01*
X152032000Y-95636000D01*
X152035000Y-95635000D01*
X152037000Y-95635000D01*
X152040000Y-95635000D01*
X152740000Y-95635000D01*
X152743000Y-95635000D01*
X152745000Y-95635000D01*
X152748000Y-95636000D01*
G37*
X152748000Y-96111000D02*
X152750000Y-96111000D01*
X152753000Y-96112000D01*
X152755000Y-96112000D01*
X152758000Y-96113000D01*
X152760000Y-96114000D01*
X152763000Y-96115000D01*
X152765000Y-96117000D01*
X152767000Y-96118000D01*
X152769000Y-96120000D01*
X152771000Y-96121000D01*
X152773000Y-96123000D01*
X152775000Y-96125000D01*
X152777000Y-96127000D01*
X152779000Y-96129000D01*
X152780000Y-96131000D01*
X152782000Y-96133000D01*
X152783000Y-96135000D01*
X152785000Y-96137000D01*
X152786000Y-96140000D01*
X152787000Y-96142000D01*
X152788000Y-96145000D01*
X152788000Y-96147000D01*
X152789000Y-96150000D01*
X152789000Y-96152000D01*
X152790000Y-96155000D01*
X152790000Y-96157000D01*
X152790000Y-96160000D01*
X152790000Y-96360000D01*
X152790000Y-96363000D01*
X152790000Y-96365000D01*
X152789000Y-96368000D01*
X152789000Y-96370000D01*
X152788000Y-96373000D01*
X152788000Y-96375000D01*
X152787000Y-96378000D01*
X152786000Y-96380000D01*
X152785000Y-96383000D01*
X152783000Y-96385000D01*
X152782000Y-96387000D01*
X152780000Y-96389000D01*
X152779000Y-96391000D01*
X152777000Y-96393000D01*
X152775000Y-96395000D01*
X152773000Y-96397000D01*
X152771000Y-96399000D01*
X152769000Y-96400000D01*
X152767000Y-96402000D01*
X152765000Y-96403000D01*
X152763000Y-96405000D01*
X152760000Y-96406000D01*
X152758000Y-96407000D01*
X152755000Y-96408000D01*
X152753000Y-96408000D01*
X152750000Y-96409000D01*
X152748000Y-96409000D01*
X152745000Y-96410000D01*
X152743000Y-96410000D01*
X152740000Y-96410000D01*
X151320000Y-96410000D01*
X151317000Y-96410000D01*
X151315000Y-96410000D01*
X151312000Y-96409000D01*
X151310000Y-96409000D01*
X151307000Y-96408000D01*
X151305000Y-96408000D01*
X151302000Y-96407000D01*
X151300000Y-96406000D01*
X151297000Y-96405000D01*
X151295000Y-96403000D01*
X151293000Y-96402000D01*
X151291000Y-96400000D01*
X151289000Y-96399000D01*
X151287000Y-96397000D01*
X151285000Y-96395000D01*
X151283000Y-96393000D01*
X151281000Y-96391000D01*
X151280000Y-96389000D01*
X151278000Y-96387000D01*
X151277000Y-96385000D01*
X151275000Y-96383000D01*
X151274000Y-96380000D01*
X151273000Y-96378000D01*
X151272000Y-96375000D01*
X151272000Y-96373000D01*
X151271000Y-96370000D01*
X151271000Y-96368000D01*
X151270000Y-96365000D01*
X151270000Y-96363000D01*
X151270000Y-96360000D01*
X151270000Y-96160000D01*
X151270000Y-96157000D01*
X151270000Y-96155000D01*
X151271000Y-96152000D01*
X151271000Y-96150000D01*
X151272000Y-96147000D01*
X151272000Y-96145000D01*
X151273000Y-96142000D01*
X151274000Y-96140000D01*
X151275000Y-96137000D01*
X151277000Y-96135000D01*
X151278000Y-96133000D01*
X151280000Y-96131000D01*
X151281000Y-96129000D01*
X151283000Y-96127000D01*
X151285000Y-96125000D01*
X151287000Y-96123000D01*
X151289000Y-96121000D01*
X151291000Y-96120000D01*
X151293000Y-96118000D01*
X151295000Y-96117000D01*
X151297000Y-96115000D01*
X151300000Y-96114000D01*
X151302000Y-96113000D01*
X151305000Y-96112000D01*
X151307000Y-96112000D01*
X151310000Y-96111000D01*
X151312000Y-96111000D01*
X151315000Y-96110000D01*
X151317000Y-96110000D01*
X151320000Y-96110000D01*
X152740000Y-96110000D01*
X152743000Y-96110000D01*
X152745000Y-96110000D01*
X152748000Y-96111000D01*
G36*
X152748000Y-96111000D02*
G01*
X152750000Y-96111000D01*
X152753000Y-96112000D01*
X152755000Y-96112000D01*
X152758000Y-96113000D01*
X152760000Y-96114000D01*
X152763000Y-96115000D01*
X152765000Y-96117000D01*
X152767000Y-96118000D01*
X152769000Y-96120000D01*
X152771000Y-96121000D01*
X152773000Y-96123000D01*
X152775000Y-96125000D01*
X152777000Y-96127000D01*
X152779000Y-96129000D01*
X152780000Y-96131000D01*
X152782000Y-96133000D01*
X152783000Y-96135000D01*
X152785000Y-96137000D01*
X152786000Y-96140000D01*
X152787000Y-96142000D01*
X152788000Y-96145000D01*
X152788000Y-96147000D01*
X152789000Y-96150000D01*
X152789000Y-96152000D01*
X152790000Y-96155000D01*
X152790000Y-96157000D01*
X152790000Y-96160000D01*
X152790000Y-96360000D01*
X152790000Y-96363000D01*
X152790000Y-96365000D01*
X152789000Y-96368000D01*
X152789000Y-96370000D01*
X152788000Y-96373000D01*
X152788000Y-96375000D01*
X152787000Y-96378000D01*
X152786000Y-96380000D01*
X152785000Y-96383000D01*
X152783000Y-96385000D01*
X152782000Y-96387000D01*
X152780000Y-96389000D01*
X152779000Y-96391000D01*
X152777000Y-96393000D01*
X152775000Y-96395000D01*
X152773000Y-96397000D01*
X152771000Y-96399000D01*
X152769000Y-96400000D01*
X152767000Y-96402000D01*
X152765000Y-96403000D01*
X152763000Y-96405000D01*
X152760000Y-96406000D01*
X152758000Y-96407000D01*
X152755000Y-96408000D01*
X152753000Y-96408000D01*
X152750000Y-96409000D01*
X152748000Y-96409000D01*
X152745000Y-96410000D01*
X152743000Y-96410000D01*
X152740000Y-96410000D01*
X151320000Y-96410000D01*
X151317000Y-96410000D01*
X151315000Y-96410000D01*
X151312000Y-96409000D01*
X151310000Y-96409000D01*
X151307000Y-96408000D01*
X151305000Y-96408000D01*
X151302000Y-96407000D01*
X151300000Y-96406000D01*
X151297000Y-96405000D01*
X151295000Y-96403000D01*
X151293000Y-96402000D01*
X151291000Y-96400000D01*
X151289000Y-96399000D01*
X151287000Y-96397000D01*
X151285000Y-96395000D01*
X151283000Y-96393000D01*
X151281000Y-96391000D01*
X151280000Y-96389000D01*
X151278000Y-96387000D01*
X151277000Y-96385000D01*
X151275000Y-96383000D01*
X151274000Y-96380000D01*
X151273000Y-96378000D01*
X151272000Y-96375000D01*
X151272000Y-96373000D01*
X151271000Y-96370000D01*
X151271000Y-96368000D01*
X151270000Y-96365000D01*
X151270000Y-96363000D01*
X151270000Y-96360000D01*
X151270000Y-96160000D01*
X151270000Y-96157000D01*
X151270000Y-96155000D01*
X151271000Y-96152000D01*
X151271000Y-96150000D01*
X151272000Y-96147000D01*
X151272000Y-96145000D01*
X151273000Y-96142000D01*
X151274000Y-96140000D01*
X151275000Y-96137000D01*
X151277000Y-96135000D01*
X151278000Y-96133000D01*
X151280000Y-96131000D01*
X151281000Y-96129000D01*
X151283000Y-96127000D01*
X151285000Y-96125000D01*
X151287000Y-96123000D01*
X151289000Y-96121000D01*
X151291000Y-96120000D01*
X151293000Y-96118000D01*
X151295000Y-96117000D01*
X151297000Y-96115000D01*
X151300000Y-96114000D01*
X151302000Y-96113000D01*
X151305000Y-96112000D01*
X151307000Y-96112000D01*
X151310000Y-96111000D01*
X151312000Y-96111000D01*
X151315000Y-96110000D01*
X151317000Y-96110000D01*
X151320000Y-96110000D01*
X152740000Y-96110000D01*
X152743000Y-96110000D01*
X152745000Y-96110000D01*
X152748000Y-96111000D01*
G37*
X152748000Y-96636000D02*
X152750000Y-96636000D01*
X152753000Y-96637000D01*
X152755000Y-96637000D01*
X152758000Y-96638000D01*
X152760000Y-96639000D01*
X152763000Y-96640000D01*
X152765000Y-96642000D01*
X152767000Y-96643000D01*
X152769000Y-96645000D01*
X152771000Y-96646000D01*
X152773000Y-96648000D01*
X152775000Y-96650000D01*
X152777000Y-96652000D01*
X152779000Y-96654000D01*
X152780000Y-96656000D01*
X152782000Y-96658000D01*
X152783000Y-96660000D01*
X152785000Y-96662000D01*
X152786000Y-96665000D01*
X152787000Y-96667000D01*
X152788000Y-96670000D01*
X152788000Y-96672000D01*
X152789000Y-96675000D01*
X152789000Y-96677000D01*
X152790000Y-96680000D01*
X152790000Y-96682000D01*
X152790000Y-96685000D01*
X152790000Y-96835000D01*
X152790000Y-96838000D01*
X152790000Y-96840000D01*
X152789000Y-96843000D01*
X152789000Y-96845000D01*
X152788000Y-96848000D01*
X152788000Y-96850000D01*
X152787000Y-96853000D01*
X152786000Y-96855000D01*
X152785000Y-96858000D01*
X152783000Y-96860000D01*
X152782000Y-96862000D01*
X152780000Y-96864000D01*
X152779000Y-96866000D01*
X152777000Y-96868000D01*
X152775000Y-96870000D01*
X152773000Y-96872000D01*
X152771000Y-96874000D01*
X152769000Y-96875000D01*
X152767000Y-96877000D01*
X152765000Y-96878000D01*
X152763000Y-96880000D01*
X152760000Y-96881000D01*
X152758000Y-96882000D01*
X152755000Y-96883000D01*
X152753000Y-96883000D01*
X152750000Y-96884000D01*
X152748000Y-96884000D01*
X152745000Y-96885000D01*
X152743000Y-96885000D01*
X152740000Y-96885000D01*
X152040000Y-96885000D01*
X152037000Y-96885000D01*
X152035000Y-96885000D01*
X152032000Y-96884000D01*
X152030000Y-96884000D01*
X152027000Y-96883000D01*
X152025000Y-96883000D01*
X152022000Y-96882000D01*
X152020000Y-96881000D01*
X152017000Y-96880000D01*
X152015000Y-96878000D01*
X152013000Y-96877000D01*
X152011000Y-96875000D01*
X152009000Y-96874000D01*
X152007000Y-96872000D01*
X152005000Y-96870000D01*
X152003000Y-96868000D01*
X152001000Y-96866000D01*
X152000000Y-96864000D01*
X151998000Y-96862000D01*
X151997000Y-96860000D01*
X151995000Y-96858000D01*
X151994000Y-96855000D01*
X151993000Y-96853000D01*
X151992000Y-96850000D01*
X151992000Y-96848000D01*
X151991000Y-96845000D01*
X151991000Y-96843000D01*
X151990000Y-96840000D01*
X151990000Y-96838000D01*
X151990000Y-96835000D01*
X151990000Y-96685000D01*
X151990000Y-96682000D01*
X151990000Y-96680000D01*
X151991000Y-96677000D01*
X151991000Y-96675000D01*
X151992000Y-96672000D01*
X151992000Y-96670000D01*
X151993000Y-96667000D01*
X151994000Y-96665000D01*
X151995000Y-96662000D01*
X151997000Y-96660000D01*
X151998000Y-96658000D01*
X152000000Y-96656000D01*
X152001000Y-96654000D01*
X152003000Y-96652000D01*
X152005000Y-96650000D01*
X152007000Y-96648000D01*
X152009000Y-96646000D01*
X152011000Y-96645000D01*
X152013000Y-96643000D01*
X152015000Y-96642000D01*
X152017000Y-96640000D01*
X152020000Y-96639000D01*
X152022000Y-96638000D01*
X152025000Y-96637000D01*
X152027000Y-96637000D01*
X152030000Y-96636000D01*
X152032000Y-96636000D01*
X152035000Y-96635000D01*
X152037000Y-96635000D01*
X152040000Y-96635000D01*
X152740000Y-96635000D01*
X152743000Y-96635000D01*
X152745000Y-96635000D01*
X152748000Y-96636000D01*
G36*
X152748000Y-96636000D02*
G01*
X152750000Y-96636000D01*
X152753000Y-96637000D01*
X152755000Y-96637000D01*
X152758000Y-96638000D01*
X152760000Y-96639000D01*
X152763000Y-96640000D01*
X152765000Y-96642000D01*
X152767000Y-96643000D01*
X152769000Y-96645000D01*
X152771000Y-96646000D01*
X152773000Y-96648000D01*
X152775000Y-96650000D01*
X152777000Y-96652000D01*
X152779000Y-96654000D01*
X152780000Y-96656000D01*
X152782000Y-96658000D01*
X152783000Y-96660000D01*
X152785000Y-96662000D01*
X152786000Y-96665000D01*
X152787000Y-96667000D01*
X152788000Y-96670000D01*
X152788000Y-96672000D01*
X152789000Y-96675000D01*
X152789000Y-96677000D01*
X152790000Y-96680000D01*
X152790000Y-96682000D01*
X152790000Y-96685000D01*
X152790000Y-96835000D01*
X152790000Y-96838000D01*
X152790000Y-96840000D01*
X152789000Y-96843000D01*
X152789000Y-96845000D01*
X152788000Y-96848000D01*
X152788000Y-96850000D01*
X152787000Y-96853000D01*
X152786000Y-96855000D01*
X152785000Y-96858000D01*
X152783000Y-96860000D01*
X152782000Y-96862000D01*
X152780000Y-96864000D01*
X152779000Y-96866000D01*
X152777000Y-96868000D01*
X152775000Y-96870000D01*
X152773000Y-96872000D01*
X152771000Y-96874000D01*
X152769000Y-96875000D01*
X152767000Y-96877000D01*
X152765000Y-96878000D01*
X152763000Y-96880000D01*
X152760000Y-96881000D01*
X152758000Y-96882000D01*
X152755000Y-96883000D01*
X152753000Y-96883000D01*
X152750000Y-96884000D01*
X152748000Y-96884000D01*
X152745000Y-96885000D01*
X152743000Y-96885000D01*
X152740000Y-96885000D01*
X152040000Y-96885000D01*
X152037000Y-96885000D01*
X152035000Y-96885000D01*
X152032000Y-96884000D01*
X152030000Y-96884000D01*
X152027000Y-96883000D01*
X152025000Y-96883000D01*
X152022000Y-96882000D01*
X152020000Y-96881000D01*
X152017000Y-96880000D01*
X152015000Y-96878000D01*
X152013000Y-96877000D01*
X152011000Y-96875000D01*
X152009000Y-96874000D01*
X152007000Y-96872000D01*
X152005000Y-96870000D01*
X152003000Y-96868000D01*
X152001000Y-96866000D01*
X152000000Y-96864000D01*
X151998000Y-96862000D01*
X151997000Y-96860000D01*
X151995000Y-96858000D01*
X151994000Y-96855000D01*
X151993000Y-96853000D01*
X151992000Y-96850000D01*
X151992000Y-96848000D01*
X151991000Y-96845000D01*
X151991000Y-96843000D01*
X151990000Y-96840000D01*
X151990000Y-96838000D01*
X151990000Y-96835000D01*
X151990000Y-96685000D01*
X151990000Y-96682000D01*
X151990000Y-96680000D01*
X151991000Y-96677000D01*
X151991000Y-96675000D01*
X151992000Y-96672000D01*
X151992000Y-96670000D01*
X151993000Y-96667000D01*
X151994000Y-96665000D01*
X151995000Y-96662000D01*
X151997000Y-96660000D01*
X151998000Y-96658000D01*
X152000000Y-96656000D01*
X152001000Y-96654000D01*
X152003000Y-96652000D01*
X152005000Y-96650000D01*
X152007000Y-96648000D01*
X152009000Y-96646000D01*
X152011000Y-96645000D01*
X152013000Y-96643000D01*
X152015000Y-96642000D01*
X152017000Y-96640000D01*
X152020000Y-96639000D01*
X152022000Y-96638000D01*
X152025000Y-96637000D01*
X152027000Y-96637000D01*
X152030000Y-96636000D01*
X152032000Y-96636000D01*
X152035000Y-96635000D01*
X152037000Y-96635000D01*
X152040000Y-96635000D01*
X152740000Y-96635000D01*
X152743000Y-96635000D01*
X152745000Y-96635000D01*
X152748000Y-96636000D01*
G37*
X148778000Y-96711000D02*
X148780000Y-96711000D01*
X148783000Y-96712000D01*
X148785000Y-96712000D01*
X148788000Y-96713000D01*
X148790000Y-96714000D01*
X148793000Y-96715000D01*
X148795000Y-96717000D01*
X148797000Y-96718000D01*
X148799000Y-96720000D01*
X148801000Y-96721000D01*
X148803000Y-96723000D01*
X148805000Y-96725000D01*
X148807000Y-96727000D01*
X148809000Y-96729000D01*
X148810000Y-96731000D01*
X148812000Y-96733000D01*
X148813000Y-96735000D01*
X148815000Y-96737000D01*
X148816000Y-96740000D01*
X148817000Y-96742000D01*
X148818000Y-96745000D01*
X148818000Y-96747000D01*
X148819000Y-96750000D01*
X148819000Y-96752000D01*
X148820000Y-96755000D01*
X148820000Y-96757000D01*
X148820000Y-96760000D01*
X148820000Y-97590000D01*
X148820000Y-97593000D01*
X148820000Y-97595000D01*
X148819000Y-97598000D01*
X148819000Y-97600000D01*
X148818000Y-97603000D01*
X148818000Y-97605000D01*
X148817000Y-97608000D01*
X148816000Y-97610000D01*
X148815000Y-97613000D01*
X148813000Y-97615000D01*
X148812000Y-97617000D01*
X148810000Y-97619000D01*
X148809000Y-97621000D01*
X148807000Y-97623000D01*
X148805000Y-97625000D01*
X148803000Y-97627000D01*
X148801000Y-97629000D01*
X148799000Y-97630000D01*
X148797000Y-97632000D01*
X148795000Y-97633000D01*
X148793000Y-97635000D01*
X148790000Y-97636000D01*
X148788000Y-97637000D01*
X148785000Y-97638000D01*
X148783000Y-97638000D01*
X148780000Y-97639000D01*
X148778000Y-97639000D01*
X148775000Y-97640000D01*
X148773000Y-97640000D01*
X148770000Y-97640000D01*
X148360000Y-97640000D01*
X148357000Y-97640000D01*
X148355000Y-97640000D01*
X148352000Y-97639000D01*
X148350000Y-97639000D01*
X148347000Y-97638000D01*
X148345000Y-97638000D01*
X148342000Y-97637000D01*
X148340000Y-97636000D01*
X148337000Y-97635000D01*
X148335000Y-97633000D01*
X148333000Y-97632000D01*
X148331000Y-97630000D01*
X148329000Y-97629000D01*
X148327000Y-97627000D01*
X148325000Y-97625000D01*
X148323000Y-97623000D01*
X148321000Y-97621000D01*
X148320000Y-97619000D01*
X148318000Y-97617000D01*
X148317000Y-97615000D01*
X148315000Y-97613000D01*
X148314000Y-97610000D01*
X148313000Y-97608000D01*
X148312000Y-97605000D01*
X148312000Y-97603000D01*
X148311000Y-97600000D01*
X148311000Y-97598000D01*
X148310000Y-97595000D01*
X148310000Y-97593000D01*
X148310000Y-97590000D01*
X148310000Y-96760000D01*
X148310000Y-96757000D01*
X148310000Y-96755000D01*
X148311000Y-96752000D01*
X148311000Y-96750000D01*
X148312000Y-96747000D01*
X148312000Y-96745000D01*
X148313000Y-96742000D01*
X148314000Y-96740000D01*
X148315000Y-96737000D01*
X148317000Y-96735000D01*
X148318000Y-96733000D01*
X148320000Y-96731000D01*
X148321000Y-96729000D01*
X148323000Y-96727000D01*
X148325000Y-96725000D01*
X148327000Y-96723000D01*
X148329000Y-96721000D01*
X148331000Y-96720000D01*
X148333000Y-96718000D01*
X148335000Y-96717000D01*
X148337000Y-96715000D01*
X148340000Y-96714000D01*
X148342000Y-96713000D01*
X148345000Y-96712000D01*
X148347000Y-96712000D01*
X148350000Y-96711000D01*
X148352000Y-96711000D01*
X148355000Y-96710000D01*
X148357000Y-96710000D01*
X148360000Y-96710000D01*
X148770000Y-96710000D01*
X148773000Y-96710000D01*
X148775000Y-96710000D01*
X148778000Y-96711000D01*
G36*
X148778000Y-96711000D02*
G01*
X148780000Y-96711000D01*
X148783000Y-96712000D01*
X148785000Y-96712000D01*
X148788000Y-96713000D01*
X148790000Y-96714000D01*
X148793000Y-96715000D01*
X148795000Y-96717000D01*
X148797000Y-96718000D01*
X148799000Y-96720000D01*
X148801000Y-96721000D01*
X148803000Y-96723000D01*
X148805000Y-96725000D01*
X148807000Y-96727000D01*
X148809000Y-96729000D01*
X148810000Y-96731000D01*
X148812000Y-96733000D01*
X148813000Y-96735000D01*
X148815000Y-96737000D01*
X148816000Y-96740000D01*
X148817000Y-96742000D01*
X148818000Y-96745000D01*
X148818000Y-96747000D01*
X148819000Y-96750000D01*
X148819000Y-96752000D01*
X148820000Y-96755000D01*
X148820000Y-96757000D01*
X148820000Y-96760000D01*
X148820000Y-97590000D01*
X148820000Y-97593000D01*
X148820000Y-97595000D01*
X148819000Y-97598000D01*
X148819000Y-97600000D01*
X148818000Y-97603000D01*
X148818000Y-97605000D01*
X148817000Y-97608000D01*
X148816000Y-97610000D01*
X148815000Y-97613000D01*
X148813000Y-97615000D01*
X148812000Y-97617000D01*
X148810000Y-97619000D01*
X148809000Y-97621000D01*
X148807000Y-97623000D01*
X148805000Y-97625000D01*
X148803000Y-97627000D01*
X148801000Y-97629000D01*
X148799000Y-97630000D01*
X148797000Y-97632000D01*
X148795000Y-97633000D01*
X148793000Y-97635000D01*
X148790000Y-97636000D01*
X148788000Y-97637000D01*
X148785000Y-97638000D01*
X148783000Y-97638000D01*
X148780000Y-97639000D01*
X148778000Y-97639000D01*
X148775000Y-97640000D01*
X148773000Y-97640000D01*
X148770000Y-97640000D01*
X148360000Y-97640000D01*
X148357000Y-97640000D01*
X148355000Y-97640000D01*
X148352000Y-97639000D01*
X148350000Y-97639000D01*
X148347000Y-97638000D01*
X148345000Y-97638000D01*
X148342000Y-97637000D01*
X148340000Y-97636000D01*
X148337000Y-97635000D01*
X148335000Y-97633000D01*
X148333000Y-97632000D01*
X148331000Y-97630000D01*
X148329000Y-97629000D01*
X148327000Y-97627000D01*
X148325000Y-97625000D01*
X148323000Y-97623000D01*
X148321000Y-97621000D01*
X148320000Y-97619000D01*
X148318000Y-97617000D01*
X148317000Y-97615000D01*
X148315000Y-97613000D01*
X148314000Y-97610000D01*
X148313000Y-97608000D01*
X148312000Y-97605000D01*
X148312000Y-97603000D01*
X148311000Y-97600000D01*
X148311000Y-97598000D01*
X148310000Y-97595000D01*
X148310000Y-97593000D01*
X148310000Y-97590000D01*
X148310000Y-96760000D01*
X148310000Y-96757000D01*
X148310000Y-96755000D01*
X148311000Y-96752000D01*
X148311000Y-96750000D01*
X148312000Y-96747000D01*
X148312000Y-96745000D01*
X148313000Y-96742000D01*
X148314000Y-96740000D01*
X148315000Y-96737000D01*
X148317000Y-96735000D01*
X148318000Y-96733000D01*
X148320000Y-96731000D01*
X148321000Y-96729000D01*
X148323000Y-96727000D01*
X148325000Y-96725000D01*
X148327000Y-96723000D01*
X148329000Y-96721000D01*
X148331000Y-96720000D01*
X148333000Y-96718000D01*
X148335000Y-96717000D01*
X148337000Y-96715000D01*
X148340000Y-96714000D01*
X148342000Y-96713000D01*
X148345000Y-96712000D01*
X148347000Y-96712000D01*
X148350000Y-96711000D01*
X148352000Y-96711000D01*
X148355000Y-96710000D01*
X148357000Y-96710000D01*
X148360000Y-96710000D01*
X148770000Y-96710000D01*
X148773000Y-96710000D01*
X148775000Y-96710000D01*
X148778000Y-96711000D01*
G37*
X149603000Y-96711000D02*
X149605000Y-96711000D01*
X149608000Y-96712000D01*
X149610000Y-96712000D01*
X149613000Y-96713000D01*
X149615000Y-96714000D01*
X149618000Y-96715000D01*
X149620000Y-96717000D01*
X149622000Y-96718000D01*
X149624000Y-96720000D01*
X149626000Y-96721000D01*
X149628000Y-96723000D01*
X149630000Y-96725000D01*
X149632000Y-96727000D01*
X149634000Y-96729000D01*
X149635000Y-96731000D01*
X149637000Y-96733000D01*
X149638000Y-96735000D01*
X149640000Y-96737000D01*
X149641000Y-96740000D01*
X149642000Y-96742000D01*
X149643000Y-96745000D01*
X149643000Y-96747000D01*
X149644000Y-96750000D01*
X149644000Y-96752000D01*
X149645000Y-96755000D01*
X149645000Y-96757000D01*
X149645000Y-96760000D01*
X149645000Y-97590000D01*
X149645000Y-97593000D01*
X149645000Y-97595000D01*
X149644000Y-97598000D01*
X149644000Y-97600000D01*
X149643000Y-97603000D01*
X149643000Y-97605000D01*
X149642000Y-97608000D01*
X149641000Y-97610000D01*
X149640000Y-97613000D01*
X149638000Y-97615000D01*
X149637000Y-97617000D01*
X149635000Y-97619000D01*
X149634000Y-97621000D01*
X149632000Y-97623000D01*
X149630000Y-97625000D01*
X149628000Y-97627000D01*
X149626000Y-97629000D01*
X149624000Y-97630000D01*
X149622000Y-97632000D01*
X149620000Y-97633000D01*
X149618000Y-97635000D01*
X149615000Y-97636000D01*
X149613000Y-97637000D01*
X149610000Y-97638000D01*
X149608000Y-97638000D01*
X149605000Y-97639000D01*
X149603000Y-97639000D01*
X149600000Y-97640000D01*
X149598000Y-97640000D01*
X149595000Y-97640000D01*
X149075000Y-97640000D01*
X149072000Y-97640000D01*
X149070000Y-97640000D01*
X149067000Y-97639000D01*
X149065000Y-97639000D01*
X149062000Y-97638000D01*
X149060000Y-97638000D01*
X149057000Y-97637000D01*
X149055000Y-97636000D01*
X149052000Y-97635000D01*
X149050000Y-97633000D01*
X149048000Y-97632000D01*
X149046000Y-97630000D01*
X149044000Y-97629000D01*
X149042000Y-97627000D01*
X149040000Y-97625000D01*
X149038000Y-97623000D01*
X149036000Y-97621000D01*
X149035000Y-97619000D01*
X149033000Y-97617000D01*
X149032000Y-97615000D01*
X149030000Y-97613000D01*
X149029000Y-97610000D01*
X149028000Y-97608000D01*
X149027000Y-97605000D01*
X149027000Y-97603000D01*
X149026000Y-97600000D01*
X149026000Y-97598000D01*
X149025000Y-97595000D01*
X149025000Y-97593000D01*
X149025000Y-97590000D01*
X149025000Y-96760000D01*
X149025000Y-96757000D01*
X149025000Y-96755000D01*
X149026000Y-96752000D01*
X149026000Y-96750000D01*
X149027000Y-96747000D01*
X149027000Y-96745000D01*
X149028000Y-96742000D01*
X149029000Y-96740000D01*
X149030000Y-96737000D01*
X149032000Y-96735000D01*
X149033000Y-96733000D01*
X149035000Y-96731000D01*
X149036000Y-96729000D01*
X149038000Y-96727000D01*
X149040000Y-96725000D01*
X149042000Y-96723000D01*
X149044000Y-96721000D01*
X149046000Y-96720000D01*
X149048000Y-96718000D01*
X149050000Y-96717000D01*
X149052000Y-96715000D01*
X149055000Y-96714000D01*
X149057000Y-96713000D01*
X149060000Y-96712000D01*
X149062000Y-96712000D01*
X149065000Y-96711000D01*
X149067000Y-96711000D01*
X149070000Y-96710000D01*
X149072000Y-96710000D01*
X149075000Y-96710000D01*
X149595000Y-96710000D01*
X149598000Y-96710000D01*
X149600000Y-96710000D01*
X149603000Y-96711000D01*
G36*
X149603000Y-96711000D02*
G01*
X149605000Y-96711000D01*
X149608000Y-96712000D01*
X149610000Y-96712000D01*
X149613000Y-96713000D01*
X149615000Y-96714000D01*
X149618000Y-96715000D01*
X149620000Y-96717000D01*
X149622000Y-96718000D01*
X149624000Y-96720000D01*
X149626000Y-96721000D01*
X149628000Y-96723000D01*
X149630000Y-96725000D01*
X149632000Y-96727000D01*
X149634000Y-96729000D01*
X149635000Y-96731000D01*
X149637000Y-96733000D01*
X149638000Y-96735000D01*
X149640000Y-96737000D01*
X149641000Y-96740000D01*
X149642000Y-96742000D01*
X149643000Y-96745000D01*
X149643000Y-96747000D01*
X149644000Y-96750000D01*
X149644000Y-96752000D01*
X149645000Y-96755000D01*
X149645000Y-96757000D01*
X149645000Y-96760000D01*
X149645000Y-97590000D01*
X149645000Y-97593000D01*
X149645000Y-97595000D01*
X149644000Y-97598000D01*
X149644000Y-97600000D01*
X149643000Y-97603000D01*
X149643000Y-97605000D01*
X149642000Y-97608000D01*
X149641000Y-97610000D01*
X149640000Y-97613000D01*
X149638000Y-97615000D01*
X149637000Y-97617000D01*
X149635000Y-97619000D01*
X149634000Y-97621000D01*
X149632000Y-97623000D01*
X149630000Y-97625000D01*
X149628000Y-97627000D01*
X149626000Y-97629000D01*
X149624000Y-97630000D01*
X149622000Y-97632000D01*
X149620000Y-97633000D01*
X149618000Y-97635000D01*
X149615000Y-97636000D01*
X149613000Y-97637000D01*
X149610000Y-97638000D01*
X149608000Y-97638000D01*
X149605000Y-97639000D01*
X149603000Y-97639000D01*
X149600000Y-97640000D01*
X149598000Y-97640000D01*
X149595000Y-97640000D01*
X149075000Y-97640000D01*
X149072000Y-97640000D01*
X149070000Y-97640000D01*
X149067000Y-97639000D01*
X149065000Y-97639000D01*
X149062000Y-97638000D01*
X149060000Y-97638000D01*
X149057000Y-97637000D01*
X149055000Y-97636000D01*
X149052000Y-97635000D01*
X149050000Y-97633000D01*
X149048000Y-97632000D01*
X149046000Y-97630000D01*
X149044000Y-97629000D01*
X149042000Y-97627000D01*
X149040000Y-97625000D01*
X149038000Y-97623000D01*
X149036000Y-97621000D01*
X149035000Y-97619000D01*
X149033000Y-97617000D01*
X149032000Y-97615000D01*
X149030000Y-97613000D01*
X149029000Y-97610000D01*
X149028000Y-97608000D01*
X149027000Y-97605000D01*
X149027000Y-97603000D01*
X149026000Y-97600000D01*
X149026000Y-97598000D01*
X149025000Y-97595000D01*
X149025000Y-97593000D01*
X149025000Y-97590000D01*
X149025000Y-96760000D01*
X149025000Y-96757000D01*
X149025000Y-96755000D01*
X149026000Y-96752000D01*
X149026000Y-96750000D01*
X149027000Y-96747000D01*
X149027000Y-96745000D01*
X149028000Y-96742000D01*
X149029000Y-96740000D01*
X149030000Y-96737000D01*
X149032000Y-96735000D01*
X149033000Y-96733000D01*
X149035000Y-96731000D01*
X149036000Y-96729000D01*
X149038000Y-96727000D01*
X149040000Y-96725000D01*
X149042000Y-96723000D01*
X149044000Y-96721000D01*
X149046000Y-96720000D01*
X149048000Y-96718000D01*
X149050000Y-96717000D01*
X149052000Y-96715000D01*
X149055000Y-96714000D01*
X149057000Y-96713000D01*
X149060000Y-96712000D01*
X149062000Y-96712000D01*
X149065000Y-96711000D01*
X149067000Y-96711000D01*
X149070000Y-96710000D01*
X149072000Y-96710000D01*
X149075000Y-96710000D01*
X149595000Y-96710000D01*
X149598000Y-96710000D01*
X149600000Y-96710000D01*
X149603000Y-96711000D01*
G37*
X150318000Y-96711000D02*
X150320000Y-96711000D01*
X150323000Y-96712000D01*
X150325000Y-96712000D01*
X150328000Y-96713000D01*
X150330000Y-96714000D01*
X150333000Y-96715000D01*
X150335000Y-96717000D01*
X150337000Y-96718000D01*
X150339000Y-96720000D01*
X150341000Y-96721000D01*
X150343000Y-96723000D01*
X150345000Y-96725000D01*
X150347000Y-96727000D01*
X150349000Y-96729000D01*
X150350000Y-96731000D01*
X150352000Y-96733000D01*
X150353000Y-96735000D01*
X150355000Y-96737000D01*
X150356000Y-96740000D01*
X150357000Y-96742000D01*
X150358000Y-96745000D01*
X150358000Y-96747000D01*
X150359000Y-96750000D01*
X150359000Y-96752000D01*
X150360000Y-96755000D01*
X150360000Y-96757000D01*
X150360000Y-96760000D01*
X150360000Y-97590000D01*
X150360000Y-97593000D01*
X150360000Y-97595000D01*
X150359000Y-97598000D01*
X150359000Y-97600000D01*
X150358000Y-97603000D01*
X150358000Y-97605000D01*
X150357000Y-97608000D01*
X150356000Y-97610000D01*
X150355000Y-97613000D01*
X150353000Y-97615000D01*
X150352000Y-97617000D01*
X150350000Y-97619000D01*
X150349000Y-97621000D01*
X150347000Y-97623000D01*
X150345000Y-97625000D01*
X150343000Y-97627000D01*
X150341000Y-97629000D01*
X150339000Y-97630000D01*
X150337000Y-97632000D01*
X150335000Y-97633000D01*
X150333000Y-97635000D01*
X150330000Y-97636000D01*
X150328000Y-97637000D01*
X150325000Y-97638000D01*
X150323000Y-97638000D01*
X150320000Y-97639000D01*
X150318000Y-97639000D01*
X150315000Y-97640000D01*
X150313000Y-97640000D01*
X150310000Y-97640000D01*
X149900000Y-97640000D01*
X149897000Y-97640000D01*
X149895000Y-97640000D01*
X149892000Y-97639000D01*
X149890000Y-97639000D01*
X149887000Y-97638000D01*
X149885000Y-97638000D01*
X149882000Y-97637000D01*
X149880000Y-97636000D01*
X149877000Y-97635000D01*
X149875000Y-97633000D01*
X149873000Y-97632000D01*
X149871000Y-97630000D01*
X149869000Y-97629000D01*
X149867000Y-97627000D01*
X149865000Y-97625000D01*
X149863000Y-97623000D01*
X149861000Y-97621000D01*
X149860000Y-97619000D01*
X149858000Y-97617000D01*
X149857000Y-97615000D01*
X149855000Y-97613000D01*
X149854000Y-97610000D01*
X149853000Y-97608000D01*
X149852000Y-97605000D01*
X149852000Y-97603000D01*
X149851000Y-97600000D01*
X149851000Y-97598000D01*
X149850000Y-97595000D01*
X149850000Y-97593000D01*
X149850000Y-97590000D01*
X149850000Y-96760000D01*
X149850000Y-96757000D01*
X149850000Y-96755000D01*
X149851000Y-96752000D01*
X149851000Y-96750000D01*
X149852000Y-96747000D01*
X149852000Y-96745000D01*
X149853000Y-96742000D01*
X149854000Y-96740000D01*
X149855000Y-96737000D01*
X149857000Y-96735000D01*
X149858000Y-96733000D01*
X149860000Y-96731000D01*
X149861000Y-96729000D01*
X149863000Y-96727000D01*
X149865000Y-96725000D01*
X149867000Y-96723000D01*
X149869000Y-96721000D01*
X149871000Y-96720000D01*
X149873000Y-96718000D01*
X149875000Y-96717000D01*
X149877000Y-96715000D01*
X149880000Y-96714000D01*
X149882000Y-96713000D01*
X149885000Y-96712000D01*
X149887000Y-96712000D01*
X149890000Y-96711000D01*
X149892000Y-96711000D01*
X149895000Y-96710000D01*
X149897000Y-96710000D01*
X149900000Y-96710000D01*
X150310000Y-96710000D01*
X150313000Y-96710000D01*
X150315000Y-96710000D01*
X150318000Y-96711000D01*
G36*
X150318000Y-96711000D02*
G01*
X150320000Y-96711000D01*
X150323000Y-96712000D01*
X150325000Y-96712000D01*
X150328000Y-96713000D01*
X150330000Y-96714000D01*
X150333000Y-96715000D01*
X150335000Y-96717000D01*
X150337000Y-96718000D01*
X150339000Y-96720000D01*
X150341000Y-96721000D01*
X150343000Y-96723000D01*
X150345000Y-96725000D01*
X150347000Y-96727000D01*
X150349000Y-96729000D01*
X150350000Y-96731000D01*
X150352000Y-96733000D01*
X150353000Y-96735000D01*
X150355000Y-96737000D01*
X150356000Y-96740000D01*
X150357000Y-96742000D01*
X150358000Y-96745000D01*
X150358000Y-96747000D01*
X150359000Y-96750000D01*
X150359000Y-96752000D01*
X150360000Y-96755000D01*
X150360000Y-96757000D01*
X150360000Y-96760000D01*
X150360000Y-97590000D01*
X150360000Y-97593000D01*
X150360000Y-97595000D01*
X150359000Y-97598000D01*
X150359000Y-97600000D01*
X150358000Y-97603000D01*
X150358000Y-97605000D01*
X150357000Y-97608000D01*
X150356000Y-97610000D01*
X150355000Y-97613000D01*
X150353000Y-97615000D01*
X150352000Y-97617000D01*
X150350000Y-97619000D01*
X150349000Y-97621000D01*
X150347000Y-97623000D01*
X150345000Y-97625000D01*
X150343000Y-97627000D01*
X150341000Y-97629000D01*
X150339000Y-97630000D01*
X150337000Y-97632000D01*
X150335000Y-97633000D01*
X150333000Y-97635000D01*
X150330000Y-97636000D01*
X150328000Y-97637000D01*
X150325000Y-97638000D01*
X150323000Y-97638000D01*
X150320000Y-97639000D01*
X150318000Y-97639000D01*
X150315000Y-97640000D01*
X150313000Y-97640000D01*
X150310000Y-97640000D01*
X149900000Y-97640000D01*
X149897000Y-97640000D01*
X149895000Y-97640000D01*
X149892000Y-97639000D01*
X149890000Y-97639000D01*
X149887000Y-97638000D01*
X149885000Y-97638000D01*
X149882000Y-97637000D01*
X149880000Y-97636000D01*
X149877000Y-97635000D01*
X149875000Y-97633000D01*
X149873000Y-97632000D01*
X149871000Y-97630000D01*
X149869000Y-97629000D01*
X149867000Y-97627000D01*
X149865000Y-97625000D01*
X149863000Y-97623000D01*
X149861000Y-97621000D01*
X149860000Y-97619000D01*
X149858000Y-97617000D01*
X149857000Y-97615000D01*
X149855000Y-97613000D01*
X149854000Y-97610000D01*
X149853000Y-97608000D01*
X149852000Y-97605000D01*
X149852000Y-97603000D01*
X149851000Y-97600000D01*
X149851000Y-97598000D01*
X149850000Y-97595000D01*
X149850000Y-97593000D01*
X149850000Y-97590000D01*
X149850000Y-96760000D01*
X149850000Y-96757000D01*
X149850000Y-96755000D01*
X149851000Y-96752000D01*
X149851000Y-96750000D01*
X149852000Y-96747000D01*
X149852000Y-96745000D01*
X149853000Y-96742000D01*
X149854000Y-96740000D01*
X149855000Y-96737000D01*
X149857000Y-96735000D01*
X149858000Y-96733000D01*
X149860000Y-96731000D01*
X149861000Y-96729000D01*
X149863000Y-96727000D01*
X149865000Y-96725000D01*
X149867000Y-96723000D01*
X149869000Y-96721000D01*
X149871000Y-96720000D01*
X149873000Y-96718000D01*
X149875000Y-96717000D01*
X149877000Y-96715000D01*
X149880000Y-96714000D01*
X149882000Y-96713000D01*
X149885000Y-96712000D01*
X149887000Y-96712000D01*
X149890000Y-96711000D01*
X149892000Y-96711000D01*
X149895000Y-96710000D01*
X149897000Y-96710000D01*
X149900000Y-96710000D01*
X150310000Y-96710000D01*
X150313000Y-96710000D01*
X150315000Y-96710000D01*
X150318000Y-96711000D01*
G37*
X149118000Y-97836000D02*
X149120000Y-97836000D01*
X149123000Y-97837000D01*
X149125000Y-97837000D01*
X149128000Y-97838000D01*
X149130000Y-97839000D01*
X149133000Y-97840000D01*
X149135000Y-97842000D01*
X149137000Y-97843000D01*
X149139000Y-97845000D01*
X149141000Y-97846000D01*
X149143000Y-97848000D01*
X149145000Y-97850000D01*
X149147000Y-97852000D01*
X149149000Y-97854000D01*
X149150000Y-97856000D01*
X149152000Y-97858000D01*
X149153000Y-97860000D01*
X149155000Y-97862000D01*
X149156000Y-97865000D01*
X149157000Y-97867000D01*
X149158000Y-97870000D01*
X149158000Y-97872000D01*
X149159000Y-97875000D01*
X149159000Y-97877000D01*
X149160000Y-97880000D01*
X149160000Y-97882000D01*
X149160000Y-97885000D01*
X149160000Y-98160000D01*
X149160000Y-98163000D01*
X149160000Y-98165000D01*
X149159000Y-98168000D01*
X149159000Y-98170000D01*
X149158000Y-98173000D01*
X149158000Y-98175000D01*
X149157000Y-98178000D01*
X149156000Y-98180000D01*
X149155000Y-98183000D01*
X149153000Y-98185000D01*
X149152000Y-98187000D01*
X149150000Y-98189000D01*
X149149000Y-98191000D01*
X149147000Y-98193000D01*
X149145000Y-98195000D01*
X149143000Y-98197000D01*
X149141000Y-98199000D01*
X149139000Y-98200000D01*
X149137000Y-98202000D01*
X149135000Y-98203000D01*
X149133000Y-98205000D01*
X149130000Y-98206000D01*
X149128000Y-98207000D01*
X149125000Y-98208000D01*
X149123000Y-98208000D01*
X149120000Y-98209000D01*
X149118000Y-98209000D01*
X149115000Y-98210000D01*
X149113000Y-98210000D01*
X149110000Y-98210000D01*
X148960000Y-98210000D01*
X148957000Y-98210000D01*
X148955000Y-98210000D01*
X148952000Y-98209000D01*
X148950000Y-98209000D01*
X148947000Y-98208000D01*
X148945000Y-98208000D01*
X148942000Y-98207000D01*
X148940000Y-98206000D01*
X148937000Y-98205000D01*
X148935000Y-98203000D01*
X148933000Y-98202000D01*
X148931000Y-98200000D01*
X148929000Y-98199000D01*
X148927000Y-98197000D01*
X148925000Y-98195000D01*
X148923000Y-98193000D01*
X148921000Y-98191000D01*
X148920000Y-98189000D01*
X148918000Y-98187000D01*
X148917000Y-98185000D01*
X148915000Y-98183000D01*
X148914000Y-98180000D01*
X148913000Y-98178000D01*
X148912000Y-98175000D01*
X148912000Y-98173000D01*
X148911000Y-98170000D01*
X148911000Y-98168000D01*
X148910000Y-98165000D01*
X148910000Y-98163000D01*
X148910000Y-98160000D01*
X148910000Y-97885000D01*
X148910000Y-97882000D01*
X148910000Y-97880000D01*
X148911000Y-97877000D01*
X148911000Y-97875000D01*
X148912000Y-97872000D01*
X148912000Y-97870000D01*
X148913000Y-97867000D01*
X148914000Y-97865000D01*
X148915000Y-97862000D01*
X148917000Y-97860000D01*
X148918000Y-97858000D01*
X148920000Y-97856000D01*
X148921000Y-97854000D01*
X148923000Y-97852000D01*
X148925000Y-97850000D01*
X148927000Y-97848000D01*
X148929000Y-97846000D01*
X148931000Y-97845000D01*
X148933000Y-97843000D01*
X148935000Y-97842000D01*
X148937000Y-97840000D01*
X148940000Y-97839000D01*
X148942000Y-97838000D01*
X148945000Y-97837000D01*
X148947000Y-97837000D01*
X148950000Y-97836000D01*
X148952000Y-97836000D01*
X148955000Y-97835000D01*
X148957000Y-97835000D01*
X148960000Y-97835000D01*
X149110000Y-97835000D01*
X149113000Y-97835000D01*
X149115000Y-97835000D01*
X149118000Y-97836000D01*
G36*
X149118000Y-97836000D02*
G01*
X149120000Y-97836000D01*
X149123000Y-97837000D01*
X149125000Y-97837000D01*
X149128000Y-97838000D01*
X149130000Y-97839000D01*
X149133000Y-97840000D01*
X149135000Y-97842000D01*
X149137000Y-97843000D01*
X149139000Y-97845000D01*
X149141000Y-97846000D01*
X149143000Y-97848000D01*
X149145000Y-97850000D01*
X149147000Y-97852000D01*
X149149000Y-97854000D01*
X149150000Y-97856000D01*
X149152000Y-97858000D01*
X149153000Y-97860000D01*
X149155000Y-97862000D01*
X149156000Y-97865000D01*
X149157000Y-97867000D01*
X149158000Y-97870000D01*
X149158000Y-97872000D01*
X149159000Y-97875000D01*
X149159000Y-97877000D01*
X149160000Y-97880000D01*
X149160000Y-97882000D01*
X149160000Y-97885000D01*
X149160000Y-98160000D01*
X149160000Y-98163000D01*
X149160000Y-98165000D01*
X149159000Y-98168000D01*
X149159000Y-98170000D01*
X149158000Y-98173000D01*
X149158000Y-98175000D01*
X149157000Y-98178000D01*
X149156000Y-98180000D01*
X149155000Y-98183000D01*
X149153000Y-98185000D01*
X149152000Y-98187000D01*
X149150000Y-98189000D01*
X149149000Y-98191000D01*
X149147000Y-98193000D01*
X149145000Y-98195000D01*
X149143000Y-98197000D01*
X149141000Y-98199000D01*
X149139000Y-98200000D01*
X149137000Y-98202000D01*
X149135000Y-98203000D01*
X149133000Y-98205000D01*
X149130000Y-98206000D01*
X149128000Y-98207000D01*
X149125000Y-98208000D01*
X149123000Y-98208000D01*
X149120000Y-98209000D01*
X149118000Y-98209000D01*
X149115000Y-98210000D01*
X149113000Y-98210000D01*
X149110000Y-98210000D01*
X148960000Y-98210000D01*
X148957000Y-98210000D01*
X148955000Y-98210000D01*
X148952000Y-98209000D01*
X148950000Y-98209000D01*
X148947000Y-98208000D01*
X148945000Y-98208000D01*
X148942000Y-98207000D01*
X148940000Y-98206000D01*
X148937000Y-98205000D01*
X148935000Y-98203000D01*
X148933000Y-98202000D01*
X148931000Y-98200000D01*
X148929000Y-98199000D01*
X148927000Y-98197000D01*
X148925000Y-98195000D01*
X148923000Y-98193000D01*
X148921000Y-98191000D01*
X148920000Y-98189000D01*
X148918000Y-98187000D01*
X148917000Y-98185000D01*
X148915000Y-98183000D01*
X148914000Y-98180000D01*
X148913000Y-98178000D01*
X148912000Y-98175000D01*
X148912000Y-98173000D01*
X148911000Y-98170000D01*
X148911000Y-98168000D01*
X148910000Y-98165000D01*
X148910000Y-98163000D01*
X148910000Y-98160000D01*
X148910000Y-97885000D01*
X148910000Y-97882000D01*
X148910000Y-97880000D01*
X148911000Y-97877000D01*
X148911000Y-97875000D01*
X148912000Y-97872000D01*
X148912000Y-97870000D01*
X148913000Y-97867000D01*
X148914000Y-97865000D01*
X148915000Y-97862000D01*
X148917000Y-97860000D01*
X148918000Y-97858000D01*
X148920000Y-97856000D01*
X148921000Y-97854000D01*
X148923000Y-97852000D01*
X148925000Y-97850000D01*
X148927000Y-97848000D01*
X148929000Y-97846000D01*
X148931000Y-97845000D01*
X148933000Y-97843000D01*
X148935000Y-97842000D01*
X148937000Y-97840000D01*
X148940000Y-97839000D01*
X148942000Y-97838000D01*
X148945000Y-97837000D01*
X148947000Y-97837000D01*
X148950000Y-97836000D01*
X148952000Y-97836000D01*
X148955000Y-97835000D01*
X148957000Y-97835000D01*
X148960000Y-97835000D01*
X149110000Y-97835000D01*
X149113000Y-97835000D01*
X149115000Y-97835000D01*
X149118000Y-97836000D01*
G37*
X151063000Y-97111000D02*
X151065000Y-97111000D01*
X151068000Y-97112000D01*
X151070000Y-97112000D01*
X151073000Y-97113000D01*
X151075000Y-97114000D01*
X151078000Y-97115000D01*
X151080000Y-97117000D01*
X151082000Y-97118000D01*
X151084000Y-97120000D01*
X151086000Y-97121000D01*
X151088000Y-97123000D01*
X151090000Y-97125000D01*
X151092000Y-97127000D01*
X151094000Y-97129000D01*
X151095000Y-97131000D01*
X151097000Y-97133000D01*
X151098000Y-97135000D01*
X151100000Y-97137000D01*
X151101000Y-97140000D01*
X151102000Y-97142000D01*
X151103000Y-97145000D01*
X151103000Y-97147000D01*
X151104000Y-97150000D01*
X151104000Y-97152000D01*
X151105000Y-97155000D01*
X151105000Y-97157000D01*
X151105000Y-97160000D01*
X151105000Y-98160000D01*
X151105000Y-98163000D01*
X151105000Y-98165000D01*
X151104000Y-98168000D01*
X151104000Y-98170000D01*
X151103000Y-98173000D01*
X151103000Y-98175000D01*
X151102000Y-98178000D01*
X151101000Y-98180000D01*
X151100000Y-98183000D01*
X151098000Y-98185000D01*
X151097000Y-98187000D01*
X151095000Y-98189000D01*
X151094000Y-98191000D01*
X151092000Y-98193000D01*
X151090000Y-98195000D01*
X151088000Y-98197000D01*
X151086000Y-98199000D01*
X151084000Y-98200000D01*
X151082000Y-98202000D01*
X151080000Y-98203000D01*
X151078000Y-98205000D01*
X151075000Y-98206000D01*
X151073000Y-98207000D01*
X151070000Y-98208000D01*
X151068000Y-98208000D01*
X151065000Y-98209000D01*
X151063000Y-98209000D01*
X151060000Y-98210000D01*
X151058000Y-98210000D01*
X151055000Y-98210000D01*
X150905000Y-98210000D01*
X150902000Y-98210000D01*
X150900000Y-98210000D01*
X150897000Y-98209000D01*
X150895000Y-98209000D01*
X150892000Y-98208000D01*
X150890000Y-98208000D01*
X150887000Y-98207000D01*
X150885000Y-98206000D01*
X150882000Y-98205000D01*
X150880000Y-98203000D01*
X150878000Y-98202000D01*
X150876000Y-98200000D01*
X150874000Y-98199000D01*
X150872000Y-98197000D01*
X150870000Y-98195000D01*
X150868000Y-98193000D01*
X150866000Y-98191000D01*
X150865000Y-98189000D01*
X150863000Y-98187000D01*
X150862000Y-98185000D01*
X150860000Y-98183000D01*
X150859000Y-98180000D01*
X150858000Y-98178000D01*
X150857000Y-98175000D01*
X150857000Y-98173000D01*
X150856000Y-98170000D01*
X150856000Y-98168000D01*
X150855000Y-98165000D01*
X150855000Y-98163000D01*
X150855000Y-98160000D01*
X150855000Y-97160000D01*
X150855000Y-97157000D01*
X150855000Y-97155000D01*
X150856000Y-97152000D01*
X150856000Y-97150000D01*
X150857000Y-97147000D01*
X150857000Y-97145000D01*
X150858000Y-97142000D01*
X150859000Y-97140000D01*
X150860000Y-97137000D01*
X150862000Y-97135000D01*
X150863000Y-97133000D01*
X150865000Y-97131000D01*
X150866000Y-97129000D01*
X150868000Y-97127000D01*
X150870000Y-97125000D01*
X150872000Y-97123000D01*
X150874000Y-97121000D01*
X150876000Y-97120000D01*
X150878000Y-97118000D01*
X150880000Y-97117000D01*
X150882000Y-97115000D01*
X150885000Y-97114000D01*
X150887000Y-97113000D01*
X150890000Y-97112000D01*
X150892000Y-97112000D01*
X150895000Y-97111000D01*
X150897000Y-97111000D01*
X150900000Y-97110000D01*
X150902000Y-97110000D01*
X150905000Y-97110000D01*
X151055000Y-97110000D01*
X151058000Y-97110000D01*
X151060000Y-97110000D01*
X151063000Y-97111000D01*
G36*
X151063000Y-97111000D02*
G01*
X151065000Y-97111000D01*
X151068000Y-97112000D01*
X151070000Y-97112000D01*
X151073000Y-97113000D01*
X151075000Y-97114000D01*
X151078000Y-97115000D01*
X151080000Y-97117000D01*
X151082000Y-97118000D01*
X151084000Y-97120000D01*
X151086000Y-97121000D01*
X151088000Y-97123000D01*
X151090000Y-97125000D01*
X151092000Y-97127000D01*
X151094000Y-97129000D01*
X151095000Y-97131000D01*
X151097000Y-97133000D01*
X151098000Y-97135000D01*
X151100000Y-97137000D01*
X151101000Y-97140000D01*
X151102000Y-97142000D01*
X151103000Y-97145000D01*
X151103000Y-97147000D01*
X151104000Y-97150000D01*
X151104000Y-97152000D01*
X151105000Y-97155000D01*
X151105000Y-97157000D01*
X151105000Y-97160000D01*
X151105000Y-98160000D01*
X151105000Y-98163000D01*
X151105000Y-98165000D01*
X151104000Y-98168000D01*
X151104000Y-98170000D01*
X151103000Y-98173000D01*
X151103000Y-98175000D01*
X151102000Y-98178000D01*
X151101000Y-98180000D01*
X151100000Y-98183000D01*
X151098000Y-98185000D01*
X151097000Y-98187000D01*
X151095000Y-98189000D01*
X151094000Y-98191000D01*
X151092000Y-98193000D01*
X151090000Y-98195000D01*
X151088000Y-98197000D01*
X151086000Y-98199000D01*
X151084000Y-98200000D01*
X151082000Y-98202000D01*
X151080000Y-98203000D01*
X151078000Y-98205000D01*
X151075000Y-98206000D01*
X151073000Y-98207000D01*
X151070000Y-98208000D01*
X151068000Y-98208000D01*
X151065000Y-98209000D01*
X151063000Y-98209000D01*
X151060000Y-98210000D01*
X151058000Y-98210000D01*
X151055000Y-98210000D01*
X150905000Y-98210000D01*
X150902000Y-98210000D01*
X150900000Y-98210000D01*
X150897000Y-98209000D01*
X150895000Y-98209000D01*
X150892000Y-98208000D01*
X150890000Y-98208000D01*
X150887000Y-98207000D01*
X150885000Y-98206000D01*
X150882000Y-98205000D01*
X150880000Y-98203000D01*
X150878000Y-98202000D01*
X150876000Y-98200000D01*
X150874000Y-98199000D01*
X150872000Y-98197000D01*
X150870000Y-98195000D01*
X150868000Y-98193000D01*
X150866000Y-98191000D01*
X150865000Y-98189000D01*
X150863000Y-98187000D01*
X150862000Y-98185000D01*
X150860000Y-98183000D01*
X150859000Y-98180000D01*
X150858000Y-98178000D01*
X150857000Y-98175000D01*
X150857000Y-98173000D01*
X150856000Y-98170000D01*
X150856000Y-98168000D01*
X150855000Y-98165000D01*
X150855000Y-98163000D01*
X150855000Y-98160000D01*
X150855000Y-97160000D01*
X150855000Y-97157000D01*
X150855000Y-97155000D01*
X150856000Y-97152000D01*
X150856000Y-97150000D01*
X150857000Y-97147000D01*
X150857000Y-97145000D01*
X150858000Y-97142000D01*
X150859000Y-97140000D01*
X150860000Y-97137000D01*
X150862000Y-97135000D01*
X150863000Y-97133000D01*
X150865000Y-97131000D01*
X150866000Y-97129000D01*
X150868000Y-97127000D01*
X150870000Y-97125000D01*
X150872000Y-97123000D01*
X150874000Y-97121000D01*
X150876000Y-97120000D01*
X150878000Y-97118000D01*
X150880000Y-97117000D01*
X150882000Y-97115000D01*
X150885000Y-97114000D01*
X150887000Y-97113000D01*
X150890000Y-97112000D01*
X150892000Y-97112000D01*
X150895000Y-97111000D01*
X150897000Y-97111000D01*
X150900000Y-97110000D01*
X150902000Y-97110000D01*
X150905000Y-97110000D01*
X151055000Y-97110000D01*
X151058000Y-97110000D01*
X151060000Y-97110000D01*
X151063000Y-97111000D01*
G37*
X152433000Y-97086000D02*
X152435000Y-97086000D01*
X152438000Y-97087000D01*
X152440000Y-97087000D01*
X152443000Y-97088000D01*
X152445000Y-97089000D01*
X152448000Y-97090000D01*
X152450000Y-97092000D01*
X152452000Y-97093000D01*
X152454000Y-97095000D01*
X152456000Y-97096000D01*
X152458000Y-97098000D01*
X152460000Y-97100000D01*
X152462000Y-97102000D01*
X152464000Y-97104000D01*
X152465000Y-97106000D01*
X152467000Y-97108000D01*
X152468000Y-97110000D01*
X152470000Y-97112000D01*
X152471000Y-97115000D01*
X152472000Y-97117000D01*
X152473000Y-97120000D01*
X152473000Y-97122000D01*
X152474000Y-97125000D01*
X152474000Y-97127000D01*
X152475000Y-97130000D01*
X152475000Y-97132000D01*
X152475000Y-97135000D01*
X152475000Y-98160000D01*
X152475000Y-98163000D01*
X152475000Y-98165000D01*
X152474000Y-98168000D01*
X152474000Y-98170000D01*
X152473000Y-98173000D01*
X152473000Y-98175000D01*
X152472000Y-98178000D01*
X152471000Y-98180000D01*
X152470000Y-98183000D01*
X152468000Y-98185000D01*
X152467000Y-98187000D01*
X152465000Y-98189000D01*
X152464000Y-98191000D01*
X152462000Y-98193000D01*
X152460000Y-98195000D01*
X152458000Y-98197000D01*
X152456000Y-98199000D01*
X152454000Y-98200000D01*
X152452000Y-98202000D01*
X152450000Y-98203000D01*
X152448000Y-98205000D01*
X152445000Y-98206000D01*
X152443000Y-98207000D01*
X152440000Y-98208000D01*
X152438000Y-98208000D01*
X152435000Y-98209000D01*
X152433000Y-98209000D01*
X152430000Y-98210000D01*
X152428000Y-98210000D01*
X152425000Y-98210000D01*
X152155000Y-98210000D01*
X152152000Y-98210000D01*
X152150000Y-98210000D01*
X152147000Y-98209000D01*
X152145000Y-98209000D01*
X152142000Y-98208000D01*
X152140000Y-98208000D01*
X152137000Y-98207000D01*
X152135000Y-98206000D01*
X152132000Y-98205000D01*
X152130000Y-98203000D01*
X152128000Y-98202000D01*
X152126000Y-98200000D01*
X152124000Y-98199000D01*
X152122000Y-98197000D01*
X152120000Y-98195000D01*
X152118000Y-98193000D01*
X152116000Y-98191000D01*
X152115000Y-98189000D01*
X152113000Y-98187000D01*
X152112000Y-98185000D01*
X152110000Y-98183000D01*
X152109000Y-98180000D01*
X152108000Y-98178000D01*
X152107000Y-98175000D01*
X152107000Y-98173000D01*
X152106000Y-98170000D01*
X152106000Y-98168000D01*
X152105000Y-98165000D01*
X152105000Y-98163000D01*
X152105000Y-98160000D01*
X152105000Y-97135000D01*
X152105000Y-97132000D01*
X152105000Y-97130000D01*
X152106000Y-97127000D01*
X152106000Y-97125000D01*
X152107000Y-97122000D01*
X152107000Y-97120000D01*
X152108000Y-97117000D01*
X152109000Y-97115000D01*
X152110000Y-97112000D01*
X152112000Y-97110000D01*
X152113000Y-97108000D01*
X152115000Y-97106000D01*
X152116000Y-97104000D01*
X152118000Y-97102000D01*
X152120000Y-97100000D01*
X152122000Y-97098000D01*
X152124000Y-97096000D01*
X152126000Y-97095000D01*
X152128000Y-97093000D01*
X152130000Y-97092000D01*
X152132000Y-97090000D01*
X152135000Y-97089000D01*
X152137000Y-97088000D01*
X152140000Y-97087000D01*
X152142000Y-97087000D01*
X152145000Y-97086000D01*
X152147000Y-97086000D01*
X152150000Y-97085000D01*
X152152000Y-97085000D01*
X152155000Y-97085000D01*
X152425000Y-97085000D01*
X152428000Y-97085000D01*
X152430000Y-97085000D01*
X152433000Y-97086000D01*
G36*
X152433000Y-97086000D02*
G01*
X152435000Y-97086000D01*
X152438000Y-97087000D01*
X152440000Y-97087000D01*
X152443000Y-97088000D01*
X152445000Y-97089000D01*
X152448000Y-97090000D01*
X152450000Y-97092000D01*
X152452000Y-97093000D01*
X152454000Y-97095000D01*
X152456000Y-97096000D01*
X152458000Y-97098000D01*
X152460000Y-97100000D01*
X152462000Y-97102000D01*
X152464000Y-97104000D01*
X152465000Y-97106000D01*
X152467000Y-97108000D01*
X152468000Y-97110000D01*
X152470000Y-97112000D01*
X152471000Y-97115000D01*
X152472000Y-97117000D01*
X152473000Y-97120000D01*
X152473000Y-97122000D01*
X152474000Y-97125000D01*
X152474000Y-97127000D01*
X152475000Y-97130000D01*
X152475000Y-97132000D01*
X152475000Y-97135000D01*
X152475000Y-98160000D01*
X152475000Y-98163000D01*
X152475000Y-98165000D01*
X152474000Y-98168000D01*
X152474000Y-98170000D01*
X152473000Y-98173000D01*
X152473000Y-98175000D01*
X152472000Y-98178000D01*
X152471000Y-98180000D01*
X152470000Y-98183000D01*
X152468000Y-98185000D01*
X152467000Y-98187000D01*
X152465000Y-98189000D01*
X152464000Y-98191000D01*
X152462000Y-98193000D01*
X152460000Y-98195000D01*
X152458000Y-98197000D01*
X152456000Y-98199000D01*
X152454000Y-98200000D01*
X152452000Y-98202000D01*
X152450000Y-98203000D01*
X152448000Y-98205000D01*
X152445000Y-98206000D01*
X152443000Y-98207000D01*
X152440000Y-98208000D01*
X152438000Y-98208000D01*
X152435000Y-98209000D01*
X152433000Y-98209000D01*
X152430000Y-98210000D01*
X152428000Y-98210000D01*
X152425000Y-98210000D01*
X152155000Y-98210000D01*
X152152000Y-98210000D01*
X152150000Y-98210000D01*
X152147000Y-98209000D01*
X152145000Y-98209000D01*
X152142000Y-98208000D01*
X152140000Y-98208000D01*
X152137000Y-98207000D01*
X152135000Y-98206000D01*
X152132000Y-98205000D01*
X152130000Y-98203000D01*
X152128000Y-98202000D01*
X152126000Y-98200000D01*
X152124000Y-98199000D01*
X152122000Y-98197000D01*
X152120000Y-98195000D01*
X152118000Y-98193000D01*
X152116000Y-98191000D01*
X152115000Y-98189000D01*
X152113000Y-98187000D01*
X152112000Y-98185000D01*
X152110000Y-98183000D01*
X152109000Y-98180000D01*
X152108000Y-98178000D01*
X152107000Y-98175000D01*
X152107000Y-98173000D01*
X152106000Y-98170000D01*
X152106000Y-98168000D01*
X152105000Y-98165000D01*
X152105000Y-98163000D01*
X152105000Y-98160000D01*
X152105000Y-97135000D01*
X152105000Y-97132000D01*
X152105000Y-97130000D01*
X152106000Y-97127000D01*
X152106000Y-97125000D01*
X152107000Y-97122000D01*
X152107000Y-97120000D01*
X152108000Y-97117000D01*
X152109000Y-97115000D01*
X152110000Y-97112000D01*
X152112000Y-97110000D01*
X152113000Y-97108000D01*
X152115000Y-97106000D01*
X152116000Y-97104000D01*
X152118000Y-97102000D01*
X152120000Y-97100000D01*
X152122000Y-97098000D01*
X152124000Y-97096000D01*
X152126000Y-97095000D01*
X152128000Y-97093000D01*
X152130000Y-97092000D01*
X152132000Y-97090000D01*
X152135000Y-97089000D01*
X152137000Y-97088000D01*
X152140000Y-97087000D01*
X152142000Y-97087000D01*
X152145000Y-97086000D01*
X152147000Y-97086000D01*
X152150000Y-97085000D01*
X152152000Y-97085000D01*
X152155000Y-97085000D01*
X152425000Y-97085000D01*
X152428000Y-97085000D01*
X152430000Y-97085000D01*
X152433000Y-97086000D01*
G37*
X148618000Y-97836000D02*
X148620000Y-97836000D01*
X148623000Y-97837000D01*
X148625000Y-97837000D01*
X148628000Y-97838000D01*
X148630000Y-97839000D01*
X148633000Y-97840000D01*
X148635000Y-97842000D01*
X148637000Y-97843000D01*
X148639000Y-97845000D01*
X148641000Y-97846000D01*
X148643000Y-97848000D01*
X148645000Y-97850000D01*
X148647000Y-97852000D01*
X148649000Y-97854000D01*
X148650000Y-97856000D01*
X148652000Y-97858000D01*
X148653000Y-97860000D01*
X148655000Y-97862000D01*
X148656000Y-97865000D01*
X148657000Y-97867000D01*
X148658000Y-97870000D01*
X148658000Y-97872000D01*
X148659000Y-97875000D01*
X148659000Y-97877000D01*
X148660000Y-97880000D01*
X148660000Y-97882000D01*
X148660000Y-97885000D01*
X148660000Y-98160000D01*
X148660000Y-98163000D01*
X148660000Y-98165000D01*
X148659000Y-98168000D01*
X148659000Y-98170000D01*
X148658000Y-98173000D01*
X148658000Y-98175000D01*
X148657000Y-98178000D01*
X148656000Y-98180000D01*
X148655000Y-98183000D01*
X148653000Y-98185000D01*
X148652000Y-98187000D01*
X148650000Y-98189000D01*
X148649000Y-98191000D01*
X148647000Y-98193000D01*
X148645000Y-98195000D01*
X148643000Y-98197000D01*
X148641000Y-98199000D01*
X148639000Y-98200000D01*
X148637000Y-98202000D01*
X148635000Y-98203000D01*
X148633000Y-98205000D01*
X148630000Y-98206000D01*
X148628000Y-98207000D01*
X148625000Y-98208000D01*
X148623000Y-98208000D01*
X148620000Y-98209000D01*
X148618000Y-98209000D01*
X148615000Y-98210000D01*
X148613000Y-98210000D01*
X148610000Y-98210000D01*
X148460000Y-98210000D01*
X148457000Y-98210000D01*
X148455000Y-98210000D01*
X148452000Y-98209000D01*
X148450000Y-98209000D01*
X148447000Y-98208000D01*
X148445000Y-98208000D01*
X148442000Y-98207000D01*
X148440000Y-98206000D01*
X148437000Y-98205000D01*
X148435000Y-98203000D01*
X148433000Y-98202000D01*
X148431000Y-98200000D01*
X148429000Y-98199000D01*
X148427000Y-98197000D01*
X148425000Y-98195000D01*
X148423000Y-98193000D01*
X148421000Y-98191000D01*
X148420000Y-98189000D01*
X148418000Y-98187000D01*
X148417000Y-98185000D01*
X148415000Y-98183000D01*
X148414000Y-98180000D01*
X148413000Y-98178000D01*
X148412000Y-98175000D01*
X148412000Y-98173000D01*
X148411000Y-98170000D01*
X148411000Y-98168000D01*
X148410000Y-98165000D01*
X148410000Y-98163000D01*
X148410000Y-98160000D01*
X148410000Y-97885000D01*
X148410000Y-97882000D01*
X148410000Y-97880000D01*
X148411000Y-97877000D01*
X148411000Y-97875000D01*
X148412000Y-97872000D01*
X148412000Y-97870000D01*
X148413000Y-97867000D01*
X148414000Y-97865000D01*
X148415000Y-97862000D01*
X148417000Y-97860000D01*
X148418000Y-97858000D01*
X148420000Y-97856000D01*
X148421000Y-97854000D01*
X148423000Y-97852000D01*
X148425000Y-97850000D01*
X148427000Y-97848000D01*
X148429000Y-97846000D01*
X148431000Y-97845000D01*
X148433000Y-97843000D01*
X148435000Y-97842000D01*
X148437000Y-97840000D01*
X148440000Y-97839000D01*
X148442000Y-97838000D01*
X148445000Y-97837000D01*
X148447000Y-97837000D01*
X148450000Y-97836000D01*
X148452000Y-97836000D01*
X148455000Y-97835000D01*
X148457000Y-97835000D01*
X148460000Y-97835000D01*
X148610000Y-97835000D01*
X148613000Y-97835000D01*
X148615000Y-97835000D01*
X148618000Y-97836000D01*
G36*
X148618000Y-97836000D02*
G01*
X148620000Y-97836000D01*
X148623000Y-97837000D01*
X148625000Y-97837000D01*
X148628000Y-97838000D01*
X148630000Y-97839000D01*
X148633000Y-97840000D01*
X148635000Y-97842000D01*
X148637000Y-97843000D01*
X148639000Y-97845000D01*
X148641000Y-97846000D01*
X148643000Y-97848000D01*
X148645000Y-97850000D01*
X148647000Y-97852000D01*
X148649000Y-97854000D01*
X148650000Y-97856000D01*
X148652000Y-97858000D01*
X148653000Y-97860000D01*
X148655000Y-97862000D01*
X148656000Y-97865000D01*
X148657000Y-97867000D01*
X148658000Y-97870000D01*
X148658000Y-97872000D01*
X148659000Y-97875000D01*
X148659000Y-97877000D01*
X148660000Y-97880000D01*
X148660000Y-97882000D01*
X148660000Y-97885000D01*
X148660000Y-98160000D01*
X148660000Y-98163000D01*
X148660000Y-98165000D01*
X148659000Y-98168000D01*
X148659000Y-98170000D01*
X148658000Y-98173000D01*
X148658000Y-98175000D01*
X148657000Y-98178000D01*
X148656000Y-98180000D01*
X148655000Y-98183000D01*
X148653000Y-98185000D01*
X148652000Y-98187000D01*
X148650000Y-98189000D01*
X148649000Y-98191000D01*
X148647000Y-98193000D01*
X148645000Y-98195000D01*
X148643000Y-98197000D01*
X148641000Y-98199000D01*
X148639000Y-98200000D01*
X148637000Y-98202000D01*
X148635000Y-98203000D01*
X148633000Y-98205000D01*
X148630000Y-98206000D01*
X148628000Y-98207000D01*
X148625000Y-98208000D01*
X148623000Y-98208000D01*
X148620000Y-98209000D01*
X148618000Y-98209000D01*
X148615000Y-98210000D01*
X148613000Y-98210000D01*
X148610000Y-98210000D01*
X148460000Y-98210000D01*
X148457000Y-98210000D01*
X148455000Y-98210000D01*
X148452000Y-98209000D01*
X148450000Y-98209000D01*
X148447000Y-98208000D01*
X148445000Y-98208000D01*
X148442000Y-98207000D01*
X148440000Y-98206000D01*
X148437000Y-98205000D01*
X148435000Y-98203000D01*
X148433000Y-98202000D01*
X148431000Y-98200000D01*
X148429000Y-98199000D01*
X148427000Y-98197000D01*
X148425000Y-98195000D01*
X148423000Y-98193000D01*
X148421000Y-98191000D01*
X148420000Y-98189000D01*
X148418000Y-98187000D01*
X148417000Y-98185000D01*
X148415000Y-98183000D01*
X148414000Y-98180000D01*
X148413000Y-98178000D01*
X148412000Y-98175000D01*
X148412000Y-98173000D01*
X148411000Y-98170000D01*
X148411000Y-98168000D01*
X148410000Y-98165000D01*
X148410000Y-98163000D01*
X148410000Y-98160000D01*
X148410000Y-97885000D01*
X148410000Y-97882000D01*
X148410000Y-97880000D01*
X148411000Y-97877000D01*
X148411000Y-97875000D01*
X148412000Y-97872000D01*
X148412000Y-97870000D01*
X148413000Y-97867000D01*
X148414000Y-97865000D01*
X148415000Y-97862000D01*
X148417000Y-97860000D01*
X148418000Y-97858000D01*
X148420000Y-97856000D01*
X148421000Y-97854000D01*
X148423000Y-97852000D01*
X148425000Y-97850000D01*
X148427000Y-97848000D01*
X148429000Y-97846000D01*
X148431000Y-97845000D01*
X148433000Y-97843000D01*
X148435000Y-97842000D01*
X148437000Y-97840000D01*
X148440000Y-97839000D01*
X148442000Y-97838000D01*
X148445000Y-97837000D01*
X148447000Y-97837000D01*
X148450000Y-97836000D01*
X148452000Y-97836000D01*
X148455000Y-97835000D01*
X148457000Y-97835000D01*
X148460000Y-97835000D01*
X148610000Y-97835000D01*
X148613000Y-97835000D01*
X148615000Y-97835000D01*
X148618000Y-97836000D01*
G37*
X149618000Y-97836000D02*
X149620000Y-97836000D01*
X149623000Y-97837000D01*
X149625000Y-97837000D01*
X149628000Y-97838000D01*
X149630000Y-97839000D01*
X149633000Y-97840000D01*
X149635000Y-97842000D01*
X149637000Y-97843000D01*
X149639000Y-97845000D01*
X149641000Y-97846000D01*
X149643000Y-97848000D01*
X149645000Y-97850000D01*
X149647000Y-97852000D01*
X149649000Y-97854000D01*
X149650000Y-97856000D01*
X149652000Y-97858000D01*
X149653000Y-97860000D01*
X149655000Y-97862000D01*
X149656000Y-97865000D01*
X149657000Y-97867000D01*
X149658000Y-97870000D01*
X149658000Y-97872000D01*
X149659000Y-97875000D01*
X149659000Y-97877000D01*
X149660000Y-97880000D01*
X149660000Y-97882000D01*
X149660000Y-97885000D01*
X149660000Y-98160000D01*
X149660000Y-98163000D01*
X149660000Y-98165000D01*
X149659000Y-98168000D01*
X149659000Y-98170000D01*
X149658000Y-98173000D01*
X149658000Y-98175000D01*
X149657000Y-98178000D01*
X149656000Y-98180000D01*
X149655000Y-98183000D01*
X149653000Y-98185000D01*
X149652000Y-98187000D01*
X149650000Y-98189000D01*
X149649000Y-98191000D01*
X149647000Y-98193000D01*
X149645000Y-98195000D01*
X149643000Y-98197000D01*
X149641000Y-98199000D01*
X149639000Y-98200000D01*
X149637000Y-98202000D01*
X149635000Y-98203000D01*
X149633000Y-98205000D01*
X149630000Y-98206000D01*
X149628000Y-98207000D01*
X149625000Y-98208000D01*
X149623000Y-98208000D01*
X149620000Y-98209000D01*
X149618000Y-98209000D01*
X149615000Y-98210000D01*
X149613000Y-98210000D01*
X149610000Y-98210000D01*
X149460000Y-98210000D01*
X149457000Y-98210000D01*
X149455000Y-98210000D01*
X149452000Y-98209000D01*
X149450000Y-98209000D01*
X149447000Y-98208000D01*
X149445000Y-98208000D01*
X149442000Y-98207000D01*
X149440000Y-98206000D01*
X149437000Y-98205000D01*
X149435000Y-98203000D01*
X149433000Y-98202000D01*
X149431000Y-98200000D01*
X149429000Y-98199000D01*
X149427000Y-98197000D01*
X149425000Y-98195000D01*
X149423000Y-98193000D01*
X149421000Y-98191000D01*
X149420000Y-98189000D01*
X149418000Y-98187000D01*
X149417000Y-98185000D01*
X149415000Y-98183000D01*
X149414000Y-98180000D01*
X149413000Y-98178000D01*
X149412000Y-98175000D01*
X149412000Y-98173000D01*
X149411000Y-98170000D01*
X149411000Y-98168000D01*
X149410000Y-98165000D01*
X149410000Y-98163000D01*
X149410000Y-98160000D01*
X149410000Y-97885000D01*
X149410000Y-97882000D01*
X149410000Y-97880000D01*
X149411000Y-97877000D01*
X149411000Y-97875000D01*
X149412000Y-97872000D01*
X149412000Y-97870000D01*
X149413000Y-97867000D01*
X149414000Y-97865000D01*
X149415000Y-97862000D01*
X149417000Y-97860000D01*
X149418000Y-97858000D01*
X149420000Y-97856000D01*
X149421000Y-97854000D01*
X149423000Y-97852000D01*
X149425000Y-97850000D01*
X149427000Y-97848000D01*
X149429000Y-97846000D01*
X149431000Y-97845000D01*
X149433000Y-97843000D01*
X149435000Y-97842000D01*
X149437000Y-97840000D01*
X149440000Y-97839000D01*
X149442000Y-97838000D01*
X149445000Y-97837000D01*
X149447000Y-97837000D01*
X149450000Y-97836000D01*
X149452000Y-97836000D01*
X149455000Y-97835000D01*
X149457000Y-97835000D01*
X149460000Y-97835000D01*
X149610000Y-97835000D01*
X149613000Y-97835000D01*
X149615000Y-97835000D01*
X149618000Y-97836000D01*
G36*
X149618000Y-97836000D02*
G01*
X149620000Y-97836000D01*
X149623000Y-97837000D01*
X149625000Y-97837000D01*
X149628000Y-97838000D01*
X149630000Y-97839000D01*
X149633000Y-97840000D01*
X149635000Y-97842000D01*
X149637000Y-97843000D01*
X149639000Y-97845000D01*
X149641000Y-97846000D01*
X149643000Y-97848000D01*
X149645000Y-97850000D01*
X149647000Y-97852000D01*
X149649000Y-97854000D01*
X149650000Y-97856000D01*
X149652000Y-97858000D01*
X149653000Y-97860000D01*
X149655000Y-97862000D01*
X149656000Y-97865000D01*
X149657000Y-97867000D01*
X149658000Y-97870000D01*
X149658000Y-97872000D01*
X149659000Y-97875000D01*
X149659000Y-97877000D01*
X149660000Y-97880000D01*
X149660000Y-97882000D01*
X149660000Y-97885000D01*
X149660000Y-98160000D01*
X149660000Y-98163000D01*
X149660000Y-98165000D01*
X149659000Y-98168000D01*
X149659000Y-98170000D01*
X149658000Y-98173000D01*
X149658000Y-98175000D01*
X149657000Y-98178000D01*
X149656000Y-98180000D01*
X149655000Y-98183000D01*
X149653000Y-98185000D01*
X149652000Y-98187000D01*
X149650000Y-98189000D01*
X149649000Y-98191000D01*
X149647000Y-98193000D01*
X149645000Y-98195000D01*
X149643000Y-98197000D01*
X149641000Y-98199000D01*
X149639000Y-98200000D01*
X149637000Y-98202000D01*
X149635000Y-98203000D01*
X149633000Y-98205000D01*
X149630000Y-98206000D01*
X149628000Y-98207000D01*
X149625000Y-98208000D01*
X149623000Y-98208000D01*
X149620000Y-98209000D01*
X149618000Y-98209000D01*
X149615000Y-98210000D01*
X149613000Y-98210000D01*
X149610000Y-98210000D01*
X149460000Y-98210000D01*
X149457000Y-98210000D01*
X149455000Y-98210000D01*
X149452000Y-98209000D01*
X149450000Y-98209000D01*
X149447000Y-98208000D01*
X149445000Y-98208000D01*
X149442000Y-98207000D01*
X149440000Y-98206000D01*
X149437000Y-98205000D01*
X149435000Y-98203000D01*
X149433000Y-98202000D01*
X149431000Y-98200000D01*
X149429000Y-98199000D01*
X149427000Y-98197000D01*
X149425000Y-98195000D01*
X149423000Y-98193000D01*
X149421000Y-98191000D01*
X149420000Y-98189000D01*
X149418000Y-98187000D01*
X149417000Y-98185000D01*
X149415000Y-98183000D01*
X149414000Y-98180000D01*
X149413000Y-98178000D01*
X149412000Y-98175000D01*
X149412000Y-98173000D01*
X149411000Y-98170000D01*
X149411000Y-98168000D01*
X149410000Y-98165000D01*
X149410000Y-98163000D01*
X149410000Y-98160000D01*
X149410000Y-97885000D01*
X149410000Y-97882000D01*
X149410000Y-97880000D01*
X149411000Y-97877000D01*
X149411000Y-97875000D01*
X149412000Y-97872000D01*
X149412000Y-97870000D01*
X149413000Y-97867000D01*
X149414000Y-97865000D01*
X149415000Y-97862000D01*
X149417000Y-97860000D01*
X149418000Y-97858000D01*
X149420000Y-97856000D01*
X149421000Y-97854000D01*
X149423000Y-97852000D01*
X149425000Y-97850000D01*
X149427000Y-97848000D01*
X149429000Y-97846000D01*
X149431000Y-97845000D01*
X149433000Y-97843000D01*
X149435000Y-97842000D01*
X149437000Y-97840000D01*
X149440000Y-97839000D01*
X149442000Y-97838000D01*
X149445000Y-97837000D01*
X149447000Y-97837000D01*
X149450000Y-97836000D01*
X149452000Y-97836000D01*
X149455000Y-97835000D01*
X149457000Y-97835000D01*
X149460000Y-97835000D01*
X149610000Y-97835000D01*
X149613000Y-97835000D01*
X149615000Y-97835000D01*
X149618000Y-97836000D01*
G37*
X150118000Y-97836000D02*
X150120000Y-97836000D01*
X150123000Y-97837000D01*
X150125000Y-97837000D01*
X150128000Y-97838000D01*
X150130000Y-97839000D01*
X150133000Y-97840000D01*
X150135000Y-97842000D01*
X150137000Y-97843000D01*
X150139000Y-97845000D01*
X150141000Y-97846000D01*
X150143000Y-97848000D01*
X150145000Y-97850000D01*
X150147000Y-97852000D01*
X150149000Y-97854000D01*
X150150000Y-97856000D01*
X150152000Y-97858000D01*
X150153000Y-97860000D01*
X150155000Y-97862000D01*
X150156000Y-97865000D01*
X150157000Y-97867000D01*
X150158000Y-97870000D01*
X150158000Y-97872000D01*
X150159000Y-97875000D01*
X150159000Y-97877000D01*
X150160000Y-97880000D01*
X150160000Y-97882000D01*
X150160000Y-97885000D01*
X150160000Y-98160000D01*
X150160000Y-98163000D01*
X150160000Y-98165000D01*
X150159000Y-98168000D01*
X150159000Y-98170000D01*
X150158000Y-98173000D01*
X150158000Y-98175000D01*
X150157000Y-98178000D01*
X150156000Y-98180000D01*
X150155000Y-98183000D01*
X150153000Y-98185000D01*
X150152000Y-98187000D01*
X150150000Y-98189000D01*
X150149000Y-98191000D01*
X150147000Y-98193000D01*
X150145000Y-98195000D01*
X150143000Y-98197000D01*
X150141000Y-98199000D01*
X150139000Y-98200000D01*
X150137000Y-98202000D01*
X150135000Y-98203000D01*
X150133000Y-98205000D01*
X150130000Y-98206000D01*
X150128000Y-98207000D01*
X150125000Y-98208000D01*
X150123000Y-98208000D01*
X150120000Y-98209000D01*
X150118000Y-98209000D01*
X150115000Y-98210000D01*
X150113000Y-98210000D01*
X150110000Y-98210000D01*
X149960000Y-98210000D01*
X149957000Y-98210000D01*
X149955000Y-98210000D01*
X149952000Y-98209000D01*
X149950000Y-98209000D01*
X149947000Y-98208000D01*
X149945000Y-98208000D01*
X149942000Y-98207000D01*
X149940000Y-98206000D01*
X149937000Y-98205000D01*
X149935000Y-98203000D01*
X149933000Y-98202000D01*
X149931000Y-98200000D01*
X149929000Y-98199000D01*
X149927000Y-98197000D01*
X149925000Y-98195000D01*
X149923000Y-98193000D01*
X149921000Y-98191000D01*
X149920000Y-98189000D01*
X149918000Y-98187000D01*
X149917000Y-98185000D01*
X149915000Y-98183000D01*
X149914000Y-98180000D01*
X149913000Y-98178000D01*
X149912000Y-98175000D01*
X149912000Y-98173000D01*
X149911000Y-98170000D01*
X149911000Y-98168000D01*
X149910000Y-98165000D01*
X149910000Y-98163000D01*
X149910000Y-98160000D01*
X149910000Y-97885000D01*
X149910000Y-97882000D01*
X149910000Y-97880000D01*
X149911000Y-97877000D01*
X149911000Y-97875000D01*
X149912000Y-97872000D01*
X149912000Y-97870000D01*
X149913000Y-97867000D01*
X149914000Y-97865000D01*
X149915000Y-97862000D01*
X149917000Y-97860000D01*
X149918000Y-97858000D01*
X149920000Y-97856000D01*
X149921000Y-97854000D01*
X149923000Y-97852000D01*
X149925000Y-97850000D01*
X149927000Y-97848000D01*
X149929000Y-97846000D01*
X149931000Y-97845000D01*
X149933000Y-97843000D01*
X149935000Y-97842000D01*
X149937000Y-97840000D01*
X149940000Y-97839000D01*
X149942000Y-97838000D01*
X149945000Y-97837000D01*
X149947000Y-97837000D01*
X149950000Y-97836000D01*
X149952000Y-97836000D01*
X149955000Y-97835000D01*
X149957000Y-97835000D01*
X149960000Y-97835000D01*
X150110000Y-97835000D01*
X150113000Y-97835000D01*
X150115000Y-97835000D01*
X150118000Y-97836000D01*
G36*
X150118000Y-97836000D02*
G01*
X150120000Y-97836000D01*
X150123000Y-97837000D01*
X150125000Y-97837000D01*
X150128000Y-97838000D01*
X150130000Y-97839000D01*
X150133000Y-97840000D01*
X150135000Y-97842000D01*
X150137000Y-97843000D01*
X150139000Y-97845000D01*
X150141000Y-97846000D01*
X150143000Y-97848000D01*
X150145000Y-97850000D01*
X150147000Y-97852000D01*
X150149000Y-97854000D01*
X150150000Y-97856000D01*
X150152000Y-97858000D01*
X150153000Y-97860000D01*
X150155000Y-97862000D01*
X150156000Y-97865000D01*
X150157000Y-97867000D01*
X150158000Y-97870000D01*
X150158000Y-97872000D01*
X150159000Y-97875000D01*
X150159000Y-97877000D01*
X150160000Y-97880000D01*
X150160000Y-97882000D01*
X150160000Y-97885000D01*
X150160000Y-98160000D01*
X150160000Y-98163000D01*
X150160000Y-98165000D01*
X150159000Y-98168000D01*
X150159000Y-98170000D01*
X150158000Y-98173000D01*
X150158000Y-98175000D01*
X150157000Y-98178000D01*
X150156000Y-98180000D01*
X150155000Y-98183000D01*
X150153000Y-98185000D01*
X150152000Y-98187000D01*
X150150000Y-98189000D01*
X150149000Y-98191000D01*
X150147000Y-98193000D01*
X150145000Y-98195000D01*
X150143000Y-98197000D01*
X150141000Y-98199000D01*
X150139000Y-98200000D01*
X150137000Y-98202000D01*
X150135000Y-98203000D01*
X150133000Y-98205000D01*
X150130000Y-98206000D01*
X150128000Y-98207000D01*
X150125000Y-98208000D01*
X150123000Y-98208000D01*
X150120000Y-98209000D01*
X150118000Y-98209000D01*
X150115000Y-98210000D01*
X150113000Y-98210000D01*
X150110000Y-98210000D01*
X149960000Y-98210000D01*
X149957000Y-98210000D01*
X149955000Y-98210000D01*
X149952000Y-98209000D01*
X149950000Y-98209000D01*
X149947000Y-98208000D01*
X149945000Y-98208000D01*
X149942000Y-98207000D01*
X149940000Y-98206000D01*
X149937000Y-98205000D01*
X149935000Y-98203000D01*
X149933000Y-98202000D01*
X149931000Y-98200000D01*
X149929000Y-98199000D01*
X149927000Y-98197000D01*
X149925000Y-98195000D01*
X149923000Y-98193000D01*
X149921000Y-98191000D01*
X149920000Y-98189000D01*
X149918000Y-98187000D01*
X149917000Y-98185000D01*
X149915000Y-98183000D01*
X149914000Y-98180000D01*
X149913000Y-98178000D01*
X149912000Y-98175000D01*
X149912000Y-98173000D01*
X149911000Y-98170000D01*
X149911000Y-98168000D01*
X149910000Y-98165000D01*
X149910000Y-98163000D01*
X149910000Y-98160000D01*
X149910000Y-97885000D01*
X149910000Y-97882000D01*
X149910000Y-97880000D01*
X149911000Y-97877000D01*
X149911000Y-97875000D01*
X149912000Y-97872000D01*
X149912000Y-97870000D01*
X149913000Y-97867000D01*
X149914000Y-97865000D01*
X149915000Y-97862000D01*
X149917000Y-97860000D01*
X149918000Y-97858000D01*
X149920000Y-97856000D01*
X149921000Y-97854000D01*
X149923000Y-97852000D01*
X149925000Y-97850000D01*
X149927000Y-97848000D01*
X149929000Y-97846000D01*
X149931000Y-97845000D01*
X149933000Y-97843000D01*
X149935000Y-97842000D01*
X149937000Y-97840000D01*
X149940000Y-97839000D01*
X149942000Y-97838000D01*
X149945000Y-97837000D01*
X149947000Y-97837000D01*
X149950000Y-97836000D01*
X149952000Y-97836000D01*
X149955000Y-97835000D01*
X149957000Y-97835000D01*
X149960000Y-97835000D01*
X150110000Y-97835000D01*
X150113000Y-97835000D01*
X150115000Y-97835000D01*
X150118000Y-97836000D01*
G37*
X151563000Y-97111000D02*
X151565000Y-97111000D01*
X151568000Y-97112000D01*
X151570000Y-97112000D01*
X151573000Y-97113000D01*
X151575000Y-97114000D01*
X151578000Y-97115000D01*
X151580000Y-97117000D01*
X151582000Y-97118000D01*
X151584000Y-97120000D01*
X151586000Y-97121000D01*
X151588000Y-97123000D01*
X151590000Y-97125000D01*
X151592000Y-97127000D01*
X151594000Y-97129000D01*
X151595000Y-97131000D01*
X151597000Y-97133000D01*
X151598000Y-97135000D01*
X151600000Y-97137000D01*
X151601000Y-97140000D01*
X151602000Y-97142000D01*
X151603000Y-97145000D01*
X151603000Y-97147000D01*
X151604000Y-97150000D01*
X151604000Y-97152000D01*
X151605000Y-97155000D01*
X151605000Y-97157000D01*
X151605000Y-97160000D01*
X151605000Y-98160000D01*
X151605000Y-98163000D01*
X151605000Y-98165000D01*
X151604000Y-98168000D01*
X151604000Y-98170000D01*
X151603000Y-98173000D01*
X151603000Y-98175000D01*
X151602000Y-98178000D01*
X151601000Y-98180000D01*
X151600000Y-98183000D01*
X151598000Y-98185000D01*
X151597000Y-98187000D01*
X151595000Y-98189000D01*
X151594000Y-98191000D01*
X151592000Y-98193000D01*
X151590000Y-98195000D01*
X151588000Y-98197000D01*
X151586000Y-98199000D01*
X151584000Y-98200000D01*
X151582000Y-98202000D01*
X151580000Y-98203000D01*
X151578000Y-98205000D01*
X151575000Y-98206000D01*
X151573000Y-98207000D01*
X151570000Y-98208000D01*
X151568000Y-98208000D01*
X151565000Y-98209000D01*
X151563000Y-98209000D01*
X151560000Y-98210000D01*
X151558000Y-98210000D01*
X151555000Y-98210000D01*
X151405000Y-98210000D01*
X151402000Y-98210000D01*
X151400000Y-98210000D01*
X151397000Y-98209000D01*
X151395000Y-98209000D01*
X151392000Y-98208000D01*
X151390000Y-98208000D01*
X151387000Y-98207000D01*
X151385000Y-98206000D01*
X151382000Y-98205000D01*
X151380000Y-98203000D01*
X151378000Y-98202000D01*
X151376000Y-98200000D01*
X151374000Y-98199000D01*
X151372000Y-98197000D01*
X151370000Y-98195000D01*
X151368000Y-98193000D01*
X151366000Y-98191000D01*
X151365000Y-98189000D01*
X151363000Y-98187000D01*
X151362000Y-98185000D01*
X151360000Y-98183000D01*
X151359000Y-98180000D01*
X151358000Y-98178000D01*
X151357000Y-98175000D01*
X151357000Y-98173000D01*
X151356000Y-98170000D01*
X151356000Y-98168000D01*
X151355000Y-98165000D01*
X151355000Y-98163000D01*
X151355000Y-98160000D01*
X151355000Y-97160000D01*
X151355000Y-97157000D01*
X151355000Y-97155000D01*
X151356000Y-97152000D01*
X151356000Y-97150000D01*
X151357000Y-97147000D01*
X151357000Y-97145000D01*
X151358000Y-97142000D01*
X151359000Y-97140000D01*
X151360000Y-97137000D01*
X151362000Y-97135000D01*
X151363000Y-97133000D01*
X151365000Y-97131000D01*
X151366000Y-97129000D01*
X151368000Y-97127000D01*
X151370000Y-97125000D01*
X151372000Y-97123000D01*
X151374000Y-97121000D01*
X151376000Y-97120000D01*
X151378000Y-97118000D01*
X151380000Y-97117000D01*
X151382000Y-97115000D01*
X151385000Y-97114000D01*
X151387000Y-97113000D01*
X151390000Y-97112000D01*
X151392000Y-97112000D01*
X151395000Y-97111000D01*
X151397000Y-97111000D01*
X151400000Y-97110000D01*
X151402000Y-97110000D01*
X151405000Y-97110000D01*
X151555000Y-97110000D01*
X151558000Y-97110000D01*
X151560000Y-97110000D01*
X151563000Y-97111000D01*
G36*
X151563000Y-97111000D02*
G01*
X151565000Y-97111000D01*
X151568000Y-97112000D01*
X151570000Y-97112000D01*
X151573000Y-97113000D01*
X151575000Y-97114000D01*
X151578000Y-97115000D01*
X151580000Y-97117000D01*
X151582000Y-97118000D01*
X151584000Y-97120000D01*
X151586000Y-97121000D01*
X151588000Y-97123000D01*
X151590000Y-97125000D01*
X151592000Y-97127000D01*
X151594000Y-97129000D01*
X151595000Y-97131000D01*
X151597000Y-97133000D01*
X151598000Y-97135000D01*
X151600000Y-97137000D01*
X151601000Y-97140000D01*
X151602000Y-97142000D01*
X151603000Y-97145000D01*
X151603000Y-97147000D01*
X151604000Y-97150000D01*
X151604000Y-97152000D01*
X151605000Y-97155000D01*
X151605000Y-97157000D01*
X151605000Y-97160000D01*
X151605000Y-98160000D01*
X151605000Y-98163000D01*
X151605000Y-98165000D01*
X151604000Y-98168000D01*
X151604000Y-98170000D01*
X151603000Y-98173000D01*
X151603000Y-98175000D01*
X151602000Y-98178000D01*
X151601000Y-98180000D01*
X151600000Y-98183000D01*
X151598000Y-98185000D01*
X151597000Y-98187000D01*
X151595000Y-98189000D01*
X151594000Y-98191000D01*
X151592000Y-98193000D01*
X151590000Y-98195000D01*
X151588000Y-98197000D01*
X151586000Y-98199000D01*
X151584000Y-98200000D01*
X151582000Y-98202000D01*
X151580000Y-98203000D01*
X151578000Y-98205000D01*
X151575000Y-98206000D01*
X151573000Y-98207000D01*
X151570000Y-98208000D01*
X151568000Y-98208000D01*
X151565000Y-98209000D01*
X151563000Y-98209000D01*
X151560000Y-98210000D01*
X151558000Y-98210000D01*
X151555000Y-98210000D01*
X151405000Y-98210000D01*
X151402000Y-98210000D01*
X151400000Y-98210000D01*
X151397000Y-98209000D01*
X151395000Y-98209000D01*
X151392000Y-98208000D01*
X151390000Y-98208000D01*
X151387000Y-98207000D01*
X151385000Y-98206000D01*
X151382000Y-98205000D01*
X151380000Y-98203000D01*
X151378000Y-98202000D01*
X151376000Y-98200000D01*
X151374000Y-98199000D01*
X151372000Y-98197000D01*
X151370000Y-98195000D01*
X151368000Y-98193000D01*
X151366000Y-98191000D01*
X151365000Y-98189000D01*
X151363000Y-98187000D01*
X151362000Y-98185000D01*
X151360000Y-98183000D01*
X151359000Y-98180000D01*
X151358000Y-98178000D01*
X151357000Y-98175000D01*
X151357000Y-98173000D01*
X151356000Y-98170000D01*
X151356000Y-98168000D01*
X151355000Y-98165000D01*
X151355000Y-98163000D01*
X151355000Y-98160000D01*
X151355000Y-97160000D01*
X151355000Y-97157000D01*
X151355000Y-97155000D01*
X151356000Y-97152000D01*
X151356000Y-97150000D01*
X151357000Y-97147000D01*
X151357000Y-97145000D01*
X151358000Y-97142000D01*
X151359000Y-97140000D01*
X151360000Y-97137000D01*
X151362000Y-97135000D01*
X151363000Y-97133000D01*
X151365000Y-97131000D01*
X151366000Y-97129000D01*
X151368000Y-97127000D01*
X151370000Y-97125000D01*
X151372000Y-97123000D01*
X151374000Y-97121000D01*
X151376000Y-97120000D01*
X151378000Y-97118000D01*
X151380000Y-97117000D01*
X151382000Y-97115000D01*
X151385000Y-97114000D01*
X151387000Y-97113000D01*
X151390000Y-97112000D01*
X151392000Y-97112000D01*
X151395000Y-97111000D01*
X151397000Y-97111000D01*
X151400000Y-97110000D01*
X151402000Y-97110000D01*
X151405000Y-97110000D01*
X151555000Y-97110000D01*
X151558000Y-97110000D01*
X151560000Y-97110000D01*
X151563000Y-97111000D01*
G37*
%TD*%
D11*
%TO.C,Q1*%
X165987500Y-90862500D03*
X165987500Y-88962500D03*
X167862500Y-89912500D03*
%TD*%
D12*
%TO.C,C6*%
X158662500Y-93500000D03*
X155537500Y-93500000D03*
%TD*%
D13*
%TO.C,Y1*%
X118225000Y-94425000D03*
X121125000Y-94425000D03*
X121125000Y-96725000D03*
X118225000Y-96725000D03*
%TD*%
D14*
%TO.C,C7*%
X158987500Y-96360000D03*
X157262500Y-96360000D03*
%TD*%
D15*
%TO.C,R4*%
X159200000Y-98050000D03*
X157200000Y-98050000D03*
%TD*%
D16*
%TO.C,C8*%
X153850000Y-94262500D03*
X153850000Y-92537500D03*
%TD*%
%TO.C,C4*%
X143660000Y-97722500D03*
X143660000Y-95997500D03*
%TD*%
%TO.C,C2*%
X121150000Y-92437500D03*
X121150000Y-90712500D03*
%TD*%
D17*
%TO.C,Rt2*%
X143950000Y-90500000D03*
X145775000Y-90500000D03*
%TD*%
D15*
%TO.C,R3*%
X159510000Y-86240000D03*
X157510000Y-86240000D03*
%TD*%
D18*
%TO.C,R7*%
X146710000Y-95547500D03*
X146710000Y-97372500D03*
%TD*%
D19*
%TO.C,D1*%
X148015000Y-93242500D03*
X148015000Y-91342500D03*
X150635000Y-92292500D03*
%TD*%
D16*
%TO.C,C1*%
X118200000Y-92425000D03*
X118200000Y-90700000D03*
%TD*%
D20*
%TO.C,U2*%
X136425000Y-94215000D03*
X136425000Y-92945000D03*
X136425000Y-91675000D03*
X136425000Y-90405000D03*
X141375000Y-90405000D03*
X141375000Y-91675000D03*
X141375000Y-92945000D03*
X141375000Y-94215000D03*
%TD*%
D15*
%TO.C,R2*%
X139320000Y-96290000D03*
X137320000Y-96290000D03*
%TD*%
D21*
%TO.C,R6*%
X145190000Y-97365000D03*
X145190000Y-95540000D03*
%TD*%
D22*
%TO.C,C3*%
X143500000Y-92275000D03*
X145575000Y-92275000D03*
%TD*%
D23*
%TO.C,Rt1*%
X145637500Y-94000000D03*
X143812500Y-94000000D03*
%TD*%
D24*
%TO.C,U1*%
X134250000Y-96925000D03*
X132980000Y-96925000D03*
X131710000Y-96925000D03*
X130440000Y-96925000D03*
X129170000Y-96925000D03*
X127900000Y-96925000D03*
X126630000Y-96925000D03*
X125360000Y-96925000D03*
X124090000Y-96925000D03*
X124090000Y-87625000D03*
X125360000Y-87625000D03*
X126630000Y-87625000D03*
X127900000Y-87625000D03*
X129170000Y-87625000D03*
X130440000Y-87625000D03*
X131710000Y-87625000D03*
X132980000Y-87625000D03*
X134250000Y-87625000D03*
%TD*%
D16*
%TO.C,C5*%
X145750000Y-88925000D03*
X145750000Y-87200000D03*
%TD*%
M02*
