%TF.GenerationSoftware,KiCad,Pcbnew,9.0.1*%
%TF.CreationDate,2025-04-23T21:39:05-04:00*%
%TF.ProjectId,can-nano-shield-rj45,63616e2d-6e61-46e6-9f2d-736869656c64,rev?*%
%TF.SameCoordinates,Original*%
%TF.FileFunction,Copper,L4,Bot*%
%TF.FilePolarity,Positive*%
%FSLAX46Y46*%
G04 Gerber Fmt 4.6, Leading zero omitted, Abs format (unit mm)*
G04 Created by KiCad (PCBNEW 9.0.1) date 2025-04-23 21:39:05*
%MOMM*%
%LPD*%
G01*
G04 APERTURE LIST*
G04 Aperture macros list*
%AMRoundRect*
0 Rectangle with rounded corners*
0 $1 Rounding radius*
0 $2 $3 $4 $5 $6 $7 $8 $9 X,Y pos of 4 corners*
0 Add a 4 corners polygon primitive as box body*
4,1,4,$2,$3,$4,$5,$6,$7,$8,$9,$2,$3,0*
0 Add four circle primitives for the rounded corners*
1,1,$1+$1,$2,$3*
1,1,$1+$1,$4,$5*
1,1,$1+$1,$6,$7*
1,1,$1+$1,$8,$9*
0 Add four rect primitives between the rounded corners*
20,1,$1+$1,$2,$3,$4,$5,0*
20,1,$1+$1,$4,$5,$6,$7,0*
20,1,$1+$1,$6,$7,$8,$9,0*
20,1,$1+$1,$8,$9,$2,$3,0*%
%AMFreePoly0*
4,1,255,0.185981,2.074903,0.190496,2.074000,0.196000,2.074000,0.196981,2.073903,0.206981,2.071903,0.207857,2.071642,0.222857,2.065642,0.223236,2.065472,0.227052,2.063564,0.231857,2.061642,0.233000,2.061000,0.236798,2.058151,0.241572,2.055287,0.242000,2.055000,0.246000,2.052000,0.246536,2.051536,0.250288,2.047784,0.254000,2.045000,0.255000,2.044000,0.257784,2.040288,
0.261536,2.036536,0.262000,2.036000,0.265000,2.032000,0.265287,2.031572,0.268151,2.026798,0.271000,2.023000,0.271642,2.021857,0.273564,2.017052,0.275472,2.013236,0.275642,2.012857,0.281642,1.997857,0.281903,1.996981,0.283903,1.986981,0.284000,1.986000,0.284000,1.980496,0.284903,1.975981,0.285000,1.975000,0.285000,-1.446000,0.284472,-1.448236,0.284000,-1.449180,
0.284000,-1.450000,0.283472,-1.452236,0.282000,-1.455180,0.282000,-1.456000,0.281472,-1.458236,0.278472,-1.464236,0.277536,-1.465536,0.275108,-1.467964,0.274472,-1.469236,0.272236,-1.471472,0.271726,-1.471726,0.271472,-1.472236,0.269236,-1.474472,0.267964,-1.475108,0.265536,-1.477536,0.264236,-1.478472,0.258236,-1.481472,0.256000,-1.482000,0.255180,-1.482000,0.252236,-1.483472,
0.250000,-1.484000,0.249180,-1.484000,0.248236,-1.484472,0.246000,-1.485000,0.235180,-1.485000,0.234236,-1.485472,0.232000,-1.486000,0.231180,-1.486000,0.228236,-1.487472,0.226000,-1.488000,0.225180,-1.488000,0.220964,-1.490108,0.218536,-1.492536,0.217236,-1.493472,0.216726,-1.493726,0.216472,-1.494236,0.214236,-1.496472,0.213726,-1.496726,0.213472,-1.497236,0.212536,-1.498536,
0.210108,-1.500964,0.208000,-1.505180,0.208000,-1.506000,0.207472,-1.508236,0.206000,-1.511180,0.206000,-1.512000,0.205472,-1.514236,0.205000,-1.515180,0.205000,-2.415000,0.204903,-2.415981,0.204000,-2.420496,0.204000,-2.426000,0.203903,-2.426981,0.201903,-2.436981,0.201642,-2.437857,0.195642,-2.452857,0.195472,-2.453236,0.193564,-2.457052,0.191642,-2.461857,0.191000,-2.463000,
0.188151,-2.466798,0.185287,-2.471572,0.185000,-2.472000,0.182000,-2.476000,0.181536,-2.476536,0.177784,-2.480288,0.175000,-2.484000,0.174000,-2.485000,0.170288,-2.487784,0.166536,-2.491536,0.166000,-2.492000,0.162000,-2.495000,0.161572,-2.495287,0.156798,-2.498151,0.153000,-2.501000,0.151857,-2.501642,0.147052,-2.503564,0.143236,-2.505472,0.142857,-2.505642,0.127857,-2.511642,
0.126981,-2.511903,0.116981,-2.513903,0.116000,-2.514000,0.110496,-2.514000,0.105981,-2.514903,0.105000,-2.515000,-0.105000,-2.515000,-0.105981,-2.514903,-0.110496,-2.514000,-0.116000,-2.514000,-0.116981,-2.513903,-0.126981,-2.511903,-0.127857,-2.511642,-0.142857,-2.505642,-0.143236,-2.505472,-0.147052,-2.503564,-0.151857,-2.501642,-0.153000,-2.501000,-0.156798,-2.498151,-0.161572,-2.495287,
-0.162000,-2.495000,-0.166000,-2.492000,-0.166536,-2.491536,-0.170288,-2.487784,-0.174000,-2.485000,-0.175000,-2.484000,-0.177784,-2.480288,-0.181536,-2.476536,-0.182000,-2.476000,-0.185000,-2.472000,-0.185287,-2.471572,-0.188151,-2.466798,-0.191000,-2.463000,-0.191642,-2.461857,-0.193564,-2.457052,-0.195472,-2.453236,-0.195642,-2.452857,-0.201642,-2.437857,-0.201903,-2.436981,-0.203903,-2.426981,
-0.204000,-2.426000,-0.204000,-2.420496,-0.204903,-2.415981,-0.205000,-2.415000,-0.205000,-1.515180,-0.205472,-1.514236,-0.206000,-1.512000,-0.206000,-1.511180,-0.207472,-1.508236,-0.208000,-1.506000,-0.208000,-1.505180,-0.210108,-1.500964,-0.212536,-1.498536,-0.213472,-1.497236,-0.213726,-1.496726,-0.214236,-1.496472,-0.216472,-1.494236,-0.216726,-1.493726,-0.217236,-1.493472,-0.218536,-1.492536,
-0.220964,-1.490108,-0.225180,-1.488000,-0.226000,-1.488000,-0.228236,-1.487472,-0.231180,-1.486000,-0.232000,-1.486000,-0.234236,-1.485472,-0.235180,-1.485000,-0.246000,-1.485000,-0.248236,-1.484472,-0.249180,-1.484000,-0.250000,-1.484000,-0.252236,-1.483472,-0.255180,-1.482000,-0.256000,-1.482000,-0.258236,-1.481472,-0.264236,-1.478472,-0.265536,-1.477536,-0.267964,-1.475108,-0.269236,-1.474472,
-0.271472,-1.472236,-0.271726,-1.471726,-0.272236,-1.471472,-0.274472,-1.469236,-0.275108,-1.467964,-0.277536,-1.465536,-0.278472,-1.464236,-0.281472,-1.458236,-0.282000,-1.456000,-0.282000,-1.455180,-0.283472,-1.452236,-0.284000,-1.450000,-0.284000,-1.449180,-0.284472,-1.448236,-0.285000,-1.446000,-0.285000,1.975000,-0.284903,1.975981,-0.284000,1.980496,-0.284000,1.986000,-0.283903,1.986981,
-0.281903,1.996981,-0.281642,1.997857,-0.275642,2.012857,-0.275472,2.013236,-0.273564,2.017052,-0.271642,2.021857,-0.271000,2.023000,-0.268151,2.026798,-0.265287,2.031572,-0.265000,2.032000,-0.262000,2.036000,-0.261536,2.036536,-0.257784,2.040288,-0.255000,2.044000,-0.254000,2.045000,-0.250288,2.047784,-0.246536,2.051536,-0.246000,2.052000,-0.242000,2.055000,-0.241572,2.055287,
-0.236798,2.058151,-0.233000,2.061000,-0.231857,2.061642,-0.227052,2.063564,-0.223236,2.065472,-0.222857,2.065642,-0.207857,2.071642,-0.206981,2.071903,-0.196981,2.073903,-0.196000,2.074000,-0.190496,2.074000,-0.185981,2.074903,-0.185000,2.075000,0.185000,2.075000,0.185981,2.074903,0.185981,2.074903,$1*%
%AMFreePoly1*
4,1,153,0.705981,1.079903,0.710496,1.079000,0.716000,1.079000,0.716981,1.078903,0.726981,1.076903,0.727857,1.076642,0.742857,1.070642,0.743236,1.070472,0.747052,1.068564,0.751857,1.066642,0.753000,1.066000,0.756798,1.063151,0.761572,1.060287,0.762000,1.060000,0.766000,1.057000,0.766536,1.056536,0.770288,1.052784,0.774000,1.050000,0.775000,1.049000,0.777784,1.045288,
0.781536,1.041536,0.782000,1.041000,0.785000,1.037000,0.785287,1.036572,0.788151,1.031798,0.791000,1.028000,0.791642,1.026857,0.793564,1.022052,0.795472,1.018236,0.795642,1.017857,0.801642,1.002857,0.801903,1.001981,0.803903,0.991981,0.804000,0.991000,0.804000,0.985496,0.804903,0.980981,0.805000,0.980000,0.805000,-0.980000,0.804903,-0.980981,0.804000,-0.985496,
0.804000,-0.991000,0.803903,-0.991981,0.801903,-1.001981,0.801642,-1.002857,0.795642,-1.017857,0.795472,-1.018236,0.793564,-1.022052,0.791642,-1.026857,0.791000,-1.028000,0.788151,-1.031798,0.785287,-1.036572,0.785000,-1.037000,0.782000,-1.041000,0.781536,-1.041536,0.777784,-1.045288,0.775000,-1.049000,0.774000,-1.050000,0.770288,-1.052784,0.766536,-1.056536,0.766000,-1.057000,
0.762000,-1.060000,0.761572,-1.060287,0.756798,-1.063151,0.753000,-1.066000,0.751857,-1.066642,0.747052,-1.068564,0.743236,-1.070472,0.742857,-1.070642,0.727857,-1.076642,0.726981,-1.076903,0.716981,-1.078903,0.716000,-1.079000,0.710496,-1.079000,0.705981,-1.079903,0.705000,-1.080000,-0.705000,-1.080000,-0.705981,-1.079903,-0.710496,-1.079000,-0.716000,-1.079000,-0.716981,-1.078903,
-0.726981,-1.076903,-0.727857,-1.076642,-0.742857,-1.070642,-0.743236,-1.070472,-0.747052,-1.068564,-0.751857,-1.066642,-0.753000,-1.066000,-0.756798,-1.063151,-0.761572,-1.060287,-0.762000,-1.060000,-0.766000,-1.057000,-0.766536,-1.056536,-0.770288,-1.052784,-0.774000,-1.050000,-0.775000,-1.049000,-0.777784,-1.045288,-0.781536,-1.041536,-0.782000,-1.041000,-0.785000,-1.037000,-0.785287,-1.036572,
-0.788151,-1.031798,-0.791000,-1.028000,-0.791642,-1.026857,-0.793564,-1.022052,-0.795472,-1.018236,-0.795642,-1.017857,-0.801642,-1.002857,-0.801903,-1.001981,-0.803903,-0.991981,-0.804000,-0.991000,-0.804000,-0.985496,-0.804903,-0.980981,-0.805000,-0.980000,-0.805000,0.980000,-0.804903,0.980981,-0.804000,0.985496,-0.804000,0.991000,-0.803903,0.991981,-0.801903,1.001981,-0.801642,1.002857,
-0.795642,1.017857,-0.795472,1.018236,-0.793564,1.022052,-0.791642,1.026857,-0.791000,1.028000,-0.788151,1.031798,-0.785287,1.036572,-0.785000,1.037000,-0.782000,1.041000,-0.781536,1.041536,-0.777784,1.045288,-0.775000,1.049000,-0.774000,1.050000,-0.770288,1.052784,-0.766536,1.056536,-0.766000,1.057000,-0.762000,1.060000,-0.761572,1.060287,-0.756798,1.063151,-0.753000,1.066000,
-0.751857,1.066642,-0.747052,1.068564,-0.743236,1.070472,-0.742857,1.070642,-0.727857,1.076642,-0.726981,1.076903,-0.716981,1.078903,-0.716000,1.079000,-0.710496,1.079000,-0.705981,1.079903,-0.705000,1.080000,0.705000,1.080000,0.705981,1.079903,0.705981,1.079903,$1*%
%AMFreePoly2*
4,1,23,0.500000,-0.750000,0.000000,-0.750000,0.000000,-0.745722,-0.065263,-0.745722,-0.191342,-0.711940,-0.304381,-0.646677,-0.396677,-0.554381,-0.461940,-0.441342,-0.495722,-0.315263,-0.495722,-0.250000,-0.500000,-0.250000,-0.500000,0.250000,-0.495722,0.250000,-0.495722,0.315263,-0.461940,0.441342,-0.396677,0.554381,-0.304381,0.646677,-0.191342,0.711940,-0.065263,0.745722,0.000000,0.745722,
0.000000,0.750000,0.500000,0.750000,0.500000,-0.750000,0.500000,-0.750000,$1*%
%AMFreePoly3*
4,1,23,0.000000,0.745722,0.065263,0.745722,0.191342,0.711940,0.304381,0.646677,0.396677,0.554381,0.461940,0.441342,0.495722,0.315263,0.495722,0.250000,0.500000,0.250000,0.500000,-0.250000,0.495722,-0.250000,0.495722,-0.315263,0.461940,-0.441342,0.396677,-0.554381,0.304381,-0.646677,0.191342,-0.711940,0.065263,-0.745722,0.000000,-0.745722,0.000000,-0.750000,-0.500000,-0.750000,
-0.500000,0.750000,0.000000,0.750000,0.000000,0.745722,0.000000,0.745722,$1*%
G04 Aperture macros list end*
%TA.AperFunction,EtchedComponent*%
%ADD10C,0.000000*%
%TD*%
%TA.AperFunction,ComponentPad*%
%ADD11C,0.400000*%
%TD*%
%TA.AperFunction,SMDPad,CuDef*%
%ADD12RoundRect,0.105000X0.345000X-0.070000X0.345000X0.070000X-0.345000X0.070000X-0.345000X-0.070000X0*%
%TD*%
%TA.AperFunction,SMDPad,CuDef*%
%ADD13FreePoly0,90.000000*%
%TD*%
%TA.AperFunction,SMDPad,CuDef*%
%ADD14RoundRect,0.105750X0.129250X-0.506750X0.129250X0.506750X-0.129250X0.506750X-0.129250X-0.506750X0*%
%TD*%
%TA.AperFunction,SMDPad,CuDef*%
%ADD15RoundRect,0.105000X0.070000X-0.495000X0.070000X0.495000X-0.070000X0.495000X-0.070000X-0.495000X0*%
%TD*%
%TA.AperFunction,SMDPad,CuDef*%
%ADD16FreePoly1,90.000000*%
%TD*%
%TA.AperFunction,ComponentPad*%
%ADD17R,1.400000X1.400000*%
%TD*%
%TA.AperFunction,ComponentPad*%
%ADD18C,1.400000*%
%TD*%
%TA.AperFunction,ComponentPad*%
%ADD19O,2.500000X0.800000*%
%TD*%
%TA.AperFunction,ComponentPad*%
%ADD20R,1.370000X1.370000*%
%TD*%
%TA.AperFunction,ComponentPad*%
%ADD21C,1.370000*%
%TD*%
%TA.AperFunction,SMDPad,CuDef*%
%ADD22FreePoly2,0.000000*%
%TD*%
%TA.AperFunction,SMDPad,CuDef*%
%ADD23FreePoly3,0.000000*%
%TD*%
%TA.AperFunction,SMDPad,CuDef*%
%ADD24RoundRect,0.150000X-0.587500X-0.150000X0.587500X-0.150000X0.587500X0.150000X-0.587500X0.150000X0*%
%TD*%
%TA.AperFunction,SMDPad,CuDef*%
%ADD25RoundRect,0.250000X0.412500X1.100000X-0.412500X1.100000X-0.412500X-1.100000X0.412500X-1.100000X0*%
%TD*%
%TA.AperFunction,SMDPad,CuDef*%
%ADD26R,2.100000X1.800000*%
%TD*%
%TA.AperFunction,SMDPad,CuDef*%
%ADD27RoundRect,0.237500X0.300000X0.237500X-0.300000X0.237500X-0.300000X-0.237500X0.300000X-0.237500X0*%
%TD*%
%TA.AperFunction,SMDPad,CuDef*%
%ADD28RoundRect,0.250000X0.350000X0.450000X-0.350000X0.450000X-0.350000X-0.450000X0.350000X-0.450000X0*%
%TD*%
%TA.AperFunction,SMDPad,CuDef*%
%ADD29RoundRect,0.237500X0.237500X-0.300000X0.237500X0.300000X-0.237500X0.300000X-0.237500X-0.300000X0*%
%TD*%
%TA.AperFunction,SMDPad,CuDef*%
%ADD30FreePoly2,90.000000*%
%TD*%
%TA.AperFunction,SMDPad,CuDef*%
%ADD31FreePoly3,90.000000*%
%TD*%
%TA.AperFunction,SMDPad,CuDef*%
%ADD32RoundRect,0.237500X-0.250000X-0.237500X0.250000X-0.237500X0.250000X0.237500X-0.250000X0.237500X0*%
%TD*%
%TA.AperFunction,SMDPad,CuDef*%
%ADD33FreePoly2,270.000000*%
%TD*%
%TA.AperFunction,SMDPad,CuDef*%
%ADD34FreePoly3,270.000000*%
%TD*%
%TA.AperFunction,SMDPad,CuDef*%
%ADD35RoundRect,0.237500X-0.237500X0.250000X-0.237500X-0.250000X0.237500X-0.250000X0.237500X0.250000X0*%
%TD*%
%TA.AperFunction,SMDPad,CuDef*%
%ADD36RoundRect,0.162500X-0.447500X-0.162500X0.447500X-0.162500X0.447500X0.162500X-0.447500X0.162500X0*%
%TD*%
%TA.AperFunction,SMDPad,CuDef*%
%ADD37RoundRect,0.150000X-0.825000X-0.150000X0.825000X-0.150000X0.825000X0.150000X-0.825000X0.150000X0*%
%TD*%
%TA.AperFunction,ComponentPad*%
%ADD38R,1.700000X1.700000*%
%TD*%
%TA.AperFunction,ComponentPad*%
%ADD39C,1.700000*%
%TD*%
%TA.AperFunction,SMDPad,CuDef*%
%ADD40RoundRect,0.237500X0.237500X-0.250000X0.237500X0.250000X-0.237500X0.250000X-0.237500X-0.250000X0*%
%TD*%
%TA.AperFunction,SMDPad,CuDef*%
%ADD41RoundRect,0.250000X-0.337500X-0.475000X0.337500X-0.475000X0.337500X0.475000X-0.337500X0.475000X0*%
%TD*%
%TA.AperFunction,SMDPad,CuDef*%
%ADD42RoundRect,0.237500X0.250000X0.237500X-0.250000X0.237500X-0.250000X-0.237500X0.250000X-0.237500X0*%
%TD*%
%TA.AperFunction,SMDPad,CuDef*%
%ADD43RoundRect,0.150000X0.150000X-0.875000X0.150000X0.875000X-0.150000X0.875000X-0.150000X-0.875000X0*%
%TD*%
%TA.AperFunction,ViaPad*%
%ADD44C,0.600000*%
%TD*%
%TA.AperFunction,Conductor*%
%ADD45C,0.200000*%
%TD*%
%TA.AperFunction,Conductor*%
%ADD46C,0.350000*%
%TD*%
%TA.AperFunction,Conductor*%
%ADD47C,0.300000*%
%TD*%
%TA.AperFunction,Conductor*%
%ADD48C,0.500000*%
%TD*%
%TA.AperFunction,Conductor*%
%ADD49C,0.400000*%
%TD*%
%TA.AperFunction,Conductor*%
%ADD50C,0.800000*%
%TD*%
%TA.AperFunction,Conductor*%
%ADD51C,0.750000*%
%TD*%
G04 APERTURE END LIST*
D10*
%TA.AperFunction,EtchedComponent*%
%TO.C,JP7*%
G36*
X152900000Y-89600000D02*
G01*
X152400000Y-89600000D01*
X152400000Y-89000000D01*
X152900000Y-89000000D01*
X152900000Y-89600000D01*
G37*
%TD.AperFunction*%
%TA.AperFunction,EtchedComponent*%
%TO.C,JP8*%
G36*
X152900000Y-87100000D02*
G01*
X152400000Y-87100000D01*
X152400000Y-86500000D01*
X152900000Y-86500000D01*
X152900000Y-87100000D01*
G37*
%TD.AperFunction*%
%TA.AperFunction,EtchedComponent*%
%TO.C,JP9*%
G36*
X164950000Y-94700000D02*
G01*
X164350000Y-94700000D01*
X164350000Y-94200000D01*
X164950000Y-94200000D01*
X164950000Y-94700000D01*
G37*
%TD.AperFunction*%
%TD*%
D11*
%TO.P,U3,6_2*%
%TO.N,Net-(U3-SW-Pad5)*%
X150780000Y-94530000D03*
%TO.P,U3,6_1*%
X150780000Y-95209000D03*
D12*
%TO.P,U3,11,RT*%
%TO.N,Net-(U3-RT)*%
X152390000Y-96760000D03*
D11*
%TO.P,U3,10_4*%
%TO.N,GND*%
X149560000Y-96260000D03*
%TO.P,U3,10_3*%
X150560000Y-96260000D03*
%TO.P,U3,10_2*%
X151560000Y-96260000D03*
D13*
%TO.P,U3,10,GND*%
X150330000Y-96260000D03*
D12*
%TO.P,U3,9,FB*%
%TO.N,Net-(U3-FB)*%
X152390000Y-95760000D03*
D14*
%TO.P,U3,8,VCC*%
%TO.N,Net-(U3-RT)*%
X152290000Y-94872500D03*
D15*
%TO.P,U3,7,BOOT*%
%TO.N,unconnected-(U3-BOOT-Pad7)*%
X151480000Y-94860000D03*
%TO.P,U3,6,SW*%
%TO.N,Net-(U3-SW-Pad5)*%
X150980000Y-94860000D03*
D11*
%TO.P,U3,5_5*%
X148920000Y-95480000D03*
%TO.P,U3,5_4*%
X149740000Y-95480000D03*
%TO.P,U3,5_3*%
X148780000Y-94530000D03*
%TO.P,U3,5_2*%
X149280000Y-94530000D03*
%TO.P,U3,5_1*%
X149780000Y-94530000D03*
D16*
%TO.P,U3,5,SW*%
X149335000Y-95060000D03*
D11*
%TO.P,U3,4_5*%
%TO.N,VCC*%
X148920000Y-97040000D03*
%TO.P,U3,4_4*%
X149740000Y-97040000D03*
%TO.P,U3,4_3*%
X148780000Y-97990000D03*
%TO.P,U3,4_2*%
X149280000Y-97990000D03*
%TO.P,U3,4_1*%
X149780000Y-97990000D03*
D16*
%TO.P,U3,4,VOUT*%
X149335000Y-97460000D03*
D11*
%TO.P,U3,3_2*%
%TO.N,/CAN_V+*%
X150980000Y-97310000D03*
%TO.P,U3,3_1*%
X150980000Y-97989000D03*
D15*
%TO.P,U3,3,VIN*%
X150980000Y-97660000D03*
%TO.P,U3,2,EN*%
X151480000Y-97660000D03*
D14*
%TO.P,U3,1,PGOOD*%
%TO.N,unconnected-(U3-PGOOD-Pad1)*%
X152290000Y-97647500D03*
D11*
%TO.P,U3,10_5*%
%TO.N,GND*%
X148560000Y-96260000D03*
%TD*%
D17*
%TO.P,J4,1*%
%TO.N,/CAN_H*%
X162260000Y-88730000D03*
D18*
%TO.P,J4,2*%
%TO.N,/CAN_L*%
X160480000Y-89750000D03*
%TO.P,J4,3*%
%TO.N,GND*%
X162260000Y-90770000D03*
%TO.P,J4,4*%
%TO.N,/CAN_BINT*%
X160480000Y-91790000D03*
%TO.P,J4,5*%
%TO.N,/CAN_ESTOP*%
X162260000Y-92810000D03*
%TO.P,J4,6*%
%TO.N,/CAN_SHLD*%
X160480000Y-93830000D03*
%TO.P,J4,7*%
%TO.N,GND*%
X162260000Y-94850000D03*
%TO.P,J4,8*%
%TO.N,/CAN_V+*%
X160480000Y-95870000D03*
%TO.P,J4,9*%
%TO.N,GND*%
X155660000Y-99160000D03*
%TO.P,J4,10*%
%TO.N,/LED_PWR*%
X155660000Y-96870000D03*
%TO.P,J4,11*%
%TO.N,GND*%
X155660000Y-87730000D03*
%TO.P,J4,12*%
%TO.N,/LED_TX*%
X155660000Y-85440000D03*
D19*
%TO.P,J4,13*%
%TO.N,N/C*%
X161240000Y-84200000D03*
%TO.P,J4,14*%
X161240000Y-100400000D03*
%TD*%
D20*
%TO.P,J2,01,01*%
%TO.N,unconnected-(J2-Pad01)*%
X151400000Y-99930000D03*
D21*
%TO.P,J2,02,02*%
%TO.N,GND*%
X148860000Y-99930000D03*
%TO.P,J2,03,03*%
%TO.N,/RST2*%
X146320000Y-99930000D03*
%TO.P,J2,04,04*%
%TO.N,+5V*%
X143780000Y-99930000D03*
%TO.P,J2,05,05*%
%TO.N,/A7*%
X141240000Y-99930000D03*
%TO.P,J2,06,06*%
%TO.N,/A6*%
X138700000Y-99930000D03*
%TO.P,J2,07,07*%
%TO.N,/A5*%
X136160000Y-99930000D03*
%TO.P,J2,08,08*%
%TO.N,/A4*%
X133620000Y-99930000D03*
%TO.P,J2,09,09*%
%TO.N,/A3*%
X131080000Y-99930000D03*
%TO.P,J2,10,10*%
%TO.N,/A2*%
X128540000Y-99930000D03*
%TO.P,J2,11,11*%
%TO.N,/A1*%
X126000000Y-99930000D03*
%TO.P,J2,12,12*%
%TO.N,/A0*%
X123460000Y-99930000D03*
%TO.P,J2,13,13*%
%TO.N,/AREF*%
X120920000Y-99930000D03*
%TO.P,J2,14,14*%
%TO.N,+3V3*%
X118380000Y-99930000D03*
%TO.P,J2,15,15*%
%TO.N,/SCK*%
X115840000Y-99930000D03*
%TD*%
D20*
%TO.P,J1,01,01*%
%TO.N,/D1*%
X151405000Y-84700000D03*
D21*
%TO.P,J1,02,02*%
%TO.N,/D0*%
X148865000Y-84700000D03*
%TO.P,J1,03,03*%
%TO.N,/RST1*%
X146325000Y-84700000D03*
%TO.P,J1,04,04*%
%TO.N,GND*%
X143785000Y-84700000D03*
%TO.P,J1,05,05*%
%TO.N,/CAN_INT_DEFAULT*%
X141245000Y-84700000D03*
%TO.P,J1,06,06*%
%TO.N,/CAN_CS_DEFAULT*%
X138705000Y-84700000D03*
%TO.P,J1,07,07*%
%TO.N,/ESTOP*%
X136165000Y-84700000D03*
%TO.P,J1,08,08*%
%TO.N,/D5*%
X133625000Y-84700000D03*
%TO.P,J1,09,09*%
%TO.N,/D6*%
X131085000Y-84700000D03*
%TO.P,J1,10,10*%
%TO.N,/D7*%
X128545000Y-84700000D03*
%TO.P,J1,11,11*%
%TO.N,/D8*%
X126005000Y-84700000D03*
%TO.P,J1,12,12*%
%TO.N,/D9*%
X123465000Y-84700000D03*
%TO.P,J1,13,13*%
%TO.N,/D10*%
X120925000Y-84700000D03*
%TO.P,J1,14,14*%
%TO.N,/MOSI*%
X118385000Y-84700000D03*
%TO.P,J1,15,15*%
%TO.N,/MISO*%
X115845000Y-84700000D03*
%TD*%
D22*
%TO.P,JP7,1,A*%
%TO.N,/~{CAN_INT}*%
X152000000Y-89300000D03*
D23*
%TO.P,JP7,2,B*%
%TO.N,/CAN_BINT*%
X153300000Y-89300000D03*
%TD*%
D24*
%TO.P,Q1,1,G*%
%TO.N,/CAN_TX*%
X165987500Y-90862500D03*
%TO.P,Q1,2,S*%
%TO.N,Net-(Q1-S)*%
X165987500Y-88962500D03*
%TO.P,Q1,3,D*%
%TO.N,VCC*%
X167862500Y-89912500D03*
%TD*%
D25*
%TO.P,C6,1*%
%TO.N,/CAN_V+*%
X158662500Y-93500000D03*
%TO.P,C6,2*%
%TO.N,GND*%
X155537500Y-93500000D03*
%TD*%
D26*
%TO.P,Y1,1,1*%
%TO.N,/OSC2*%
X118225000Y-94425000D03*
%TO.P,Y1,2,2*%
%TO.N,/OSC1*%
X121125000Y-94425000D03*
%TO.P,Y1,3*%
%TO.N,N/C*%
X121125000Y-96725000D03*
%TO.P,Y1,4*%
X118225000Y-96725000D03*
%TD*%
D27*
%TO.P,C7,1*%
%TO.N,/CAN_V+*%
X158987500Y-96360000D03*
%TO.P,C7,2*%
%TO.N,GND*%
X157262500Y-96360000D03*
%TD*%
D22*
%TO.P,JP6,1,A*%
%TO.N,/CAN_L_IN*%
X142575000Y-88300000D03*
D23*
%TO.P,JP6,2,B*%
%TO.N,/CAN_L*%
X143875000Y-88300000D03*
%TD*%
D28*
%TO.P,R4,1*%
%TO.N,VCC*%
X159200000Y-98050000D03*
%TO.P,R4,2*%
%TO.N,/LED_PWR*%
X157200000Y-98050000D03*
%TD*%
D29*
%TO.P,C8,1*%
%TO.N,Net-(U3-RT)*%
X153850000Y-94262500D03*
%TO.P,C8,2*%
%TO.N,GND*%
X153850000Y-92537500D03*
%TD*%
D22*
%TO.P,JP8,1,A*%
%TO.N,/ESTOP*%
X152000000Y-86800000D03*
D23*
%TO.P,JP8,2,B*%
%TO.N,/CAN_ESTOP*%
X153300000Y-86800000D03*
%TD*%
D29*
%TO.P,C4,1*%
%TO.N,GND*%
X143660000Y-97722500D03*
%TO.P,C4,2*%
%TO.N,/CAN_H*%
X143660000Y-95997500D03*
%TD*%
D30*
%TO.P,JP9,1,A*%
%TO.N,GND*%
X164650000Y-95099999D03*
D31*
%TO.P,JP9,2,B*%
%TO.N,/CAN_SHLD*%
X164650000Y-93800001D03*
%TD*%
D29*
%TO.P,C2,1*%
%TO.N,/OSC1*%
X121150000Y-92437500D03*
%TO.P,C2,2*%
%TO.N,GND*%
X121150000Y-90712500D03*
%TD*%
D32*
%TO.P,Rt2,1*%
%TO.N,Net-(C3-Pad1)*%
X143950000Y-90500000D03*
%TO.P,Rt2,2*%
%TO.N,/CAN_L*%
X145775000Y-90500000D03*
%TD*%
D28*
%TO.P,R3,1*%
%TO.N,Net-(Q1-S)*%
X159510000Y-86240000D03*
%TO.P,R3,2*%
%TO.N,/LED_TX*%
X157510000Y-86240000D03*
%TD*%
D33*
%TO.P,JP5,1,A*%
%TO.N,/CAN_H_IN*%
X141510000Y-96140000D03*
D34*
%TO.P,JP5,2,B*%
%TO.N,/CAN_H*%
X141510000Y-97440000D03*
%TD*%
D35*
%TO.P,R7,1*%
%TO.N,Net-(U3-FB)*%
X146710000Y-95547500D03*
%TO.P,R7,2*%
%TO.N,GND*%
X146710000Y-97372500D03*
%TD*%
D36*
%TO.P,D1,1,1*%
%TO.N,/CAN_H*%
X148015000Y-93242500D03*
%TO.P,D1,2,2*%
%TO.N,/CAN_L*%
X148015000Y-91342500D03*
%TO.P,D1,3,3*%
%TO.N,GND*%
X150635000Y-92292500D03*
%TD*%
D29*
%TO.P,C1,1*%
%TO.N,/OSC2*%
X118200000Y-92425000D03*
%TO.P,C1,2*%
%TO.N,GND*%
X118200000Y-90700000D03*
%TD*%
D37*
%TO.P,U2,1,TXD*%
%TO.N,/CAN_TX*%
X136425000Y-94215000D03*
%TO.P,U2,2,GND*%
%TO.N,GND*%
X136425000Y-92945000D03*
%TO.P,U2,3,VCC*%
%TO.N,VCC*%
X136425000Y-91675000D03*
%TO.P,U2,4,RXD*%
%TO.N,/CAN_RX*%
X136425000Y-90405000D03*
%TO.P,U2,5,VIO*%
%TO.N,VCC*%
X141375000Y-90405000D03*
%TO.P,U2,6,CANL*%
%TO.N,/CAN_L_IN*%
X141375000Y-91675000D03*
%TO.P,U2,7,CANH*%
%TO.N,/CAN_H_IN*%
X141375000Y-92945000D03*
%TO.P,U2,8,S*%
%TO.N,/SILENT*%
X141375000Y-94215000D03*
%TD*%
D28*
%TO.P,R2,1*%
%TO.N,/SILENT*%
X139320000Y-96290000D03*
%TO.P,R2,2*%
%TO.N,GND*%
X137320000Y-96290000D03*
%TD*%
D38*
%TO.P,J3,1,Pin_1*%
%TO.N,/~{CAN_INT}*%
X115025000Y-88375000D03*
D39*
%TO.P,J3,2,Pin_2*%
%TO.N,/CAN_CS*%
X115025000Y-90915000D03*
%TO.P,J3,3,Pin_3*%
%TO.N,/CAN_RESET*%
X115025000Y-93455000D03*
%TO.P,J3,4,Pin_4*%
%TO.N,/SILENT*%
X115025000Y-95995000D03*
%TD*%
D40*
%TO.P,R6,1*%
%TO.N,VCC*%
X145190000Y-97365000D03*
%TO.P,R6,2*%
%TO.N,Net-(U3-FB)*%
X145190000Y-95540000D03*
%TD*%
D41*
%TO.P,C3,1*%
%TO.N,Net-(C3-Pad1)*%
X143500000Y-92275000D03*
%TO.P,C3,2*%
%TO.N,GND*%
X145575000Y-92275000D03*
%TD*%
D42*
%TO.P,Rt1,1*%
%TO.N,/CAN_H*%
X145637500Y-94000000D03*
%TO.P,Rt1,2*%
%TO.N,Net-(C3-Pad1)*%
X143812500Y-94000000D03*
%TD*%
D43*
%TO.P,U1,1,TXCAN*%
%TO.N,/CAN_TX*%
X134250000Y-96925000D03*
%TO.P,U1,2,RXCAN*%
%TO.N,/CAN_RX*%
X132980000Y-96925000D03*
%TO.P,U1,3,CLKOUT/SOF*%
%TO.N,unconnected-(U1-CLKOUT{slash}SOF-Pad3)*%
X131710000Y-96925000D03*
%TO.P,U1,4,~{TX0RTS}*%
%TO.N,unconnected-(U1-~{TX0RTS}-Pad4)*%
X130440000Y-96925000D03*
%TO.P,U1,5,~{TX1RTS}*%
%TO.N,unconnected-(U1-~{TX1RTS}-Pad5)*%
X129170000Y-96925000D03*
%TO.P,U1,6,~{TX2RTS}*%
%TO.N,unconnected-(U1-~{TX2RTS}-Pad6)*%
X127900000Y-96925000D03*
%TO.P,U1,7,OSC2*%
%TO.N,/OSC2*%
X126630000Y-96925000D03*
%TO.P,U1,8,OSC1*%
%TO.N,/OSC1*%
X125360000Y-96925000D03*
%TO.P,U1,9,VSS*%
%TO.N,GND*%
X124090000Y-96925000D03*
%TO.P,U1,10,~{RX1BF}*%
%TO.N,unconnected-(U1-~{RX1BF}-Pad10)*%
X124090000Y-87625000D03*
%TO.P,U1,11,~{RX0BF}*%
%TO.N,unconnected-(U1-~{RX0BF}-Pad11)*%
X125360000Y-87625000D03*
%TO.P,U1,12,~{INT}*%
%TO.N,/~{CAN_INT}*%
X126630000Y-87625000D03*
%TO.P,U1,13,SCK*%
%TO.N,/SCK*%
X127900000Y-87625000D03*
%TO.P,U1,14,SI*%
%TO.N,/MOSI*%
X129170000Y-87625000D03*
%TO.P,U1,15,SO*%
%TO.N,/MISO*%
X130440000Y-87625000D03*
%TO.P,U1,16,~{CS}*%
%TO.N,/CAN_CS*%
X131710000Y-87625000D03*
%TO.P,U1,17,~{RESET}*%
%TO.N,/CAN_RESET*%
X132980000Y-87625000D03*
%TO.P,U1,18,VDD*%
%TO.N,VCC*%
X134250000Y-87625000D03*
%TD*%
D29*
%TO.P,C5,1*%
%TO.N,/CAN_L*%
X145750000Y-88925000D03*
%TO.P,C5,2*%
%TO.N,GND*%
X145750000Y-87200000D03*
%TD*%
D44*
%TO.N,VCC*%
X149335000Y-97460000D03*
%TO.N,GND*%
X148420000Y-89278700D03*
X131375000Y-95100000D03*
X135725000Y-95175000D03*
X143919347Y-87045000D03*
X152931303Y-91943052D03*
X119590000Y-92430000D03*
X150825000Y-90478700D03*
X162290000Y-86230000D03*
X134125000Y-93575000D03*
X116780000Y-91820000D03*
X164370000Y-92030000D03*
%TO.N,/CAN_H*%
X152210000Y-93260000D03*
%TO.N,/CAN_L*%
X152350000Y-91330000D03*
%TO.N,/SILENT*%
X139925000Y-94875000D03*
%TO.N,/CAN_CS*%
X130650000Y-90875000D03*
%TO.N,/~{CAN_INT}*%
X140000000Y-89300000D03*
X126610000Y-88875000D03*
X135150000Y-88300000D03*
%TO.N,/CAN_RESET*%
X131862500Y-91987500D03*
%TO.N,/SCK*%
X127700000Y-89450000D03*
%TO.N,/CAN_TX*%
X137837500Y-93712500D03*
X164501000Y-89230000D03*
%TO.N,/CAN_H_IN*%
X142245000Y-92945000D03*
%TO.N,/CAN_L_IN*%
X142362500Y-91437500D03*
%TO.N,GND*%
X156392831Y-95392831D03*
%TO.N,Net-(Q1-S)*%
X160710000Y-86360000D03*
X165980000Y-88020000D03*
%TO.N,VCC*%
X167448870Y-93277355D03*
X134950000Y-86850000D03*
X160100000Y-98125000D03*
X139250000Y-93175000D03*
X145190000Y-97365000D03*
%TO.N,Net-(U3-FB)*%
X153037500Y-95152500D03*
X146730000Y-94215000D03*
%TO.N,Net-(U3-RT)*%
X153850000Y-94262500D03*
X153600000Y-96740000D03*
%TD*%
D45*
%TO.N,Net-(U3-SW-Pad5)*%
X150570000Y-95210000D02*
X150010000Y-95210000D01*
X150570000Y-94531000D02*
X149781000Y-94531000D01*
%TO.N,Net-(U3-FB)*%
X152399999Y-95750001D02*
X152390000Y-95760000D01*
X152715000Y-95750001D02*
X152399999Y-95750001D01*
X153037500Y-95427501D02*
X152715000Y-95750001D01*
X153037500Y-95152500D02*
X153037500Y-95427501D01*
D46*
%TO.N,GND*%
X154030000Y-95350000D02*
X154375000Y-95350000D01*
X153120000Y-96260000D02*
X154030000Y-95350000D01*
X152630000Y-96260000D02*
X153120000Y-96260000D01*
D45*
%TO.N,Net-(U3-RT)*%
X153349999Y-96749999D02*
X152400001Y-96749999D01*
X152400001Y-96749999D02*
X152390000Y-96760000D01*
X153359998Y-96740000D02*
X153349999Y-96749999D01*
X153600000Y-96740000D02*
X153359998Y-96740000D01*
D47*
%TO.N,GND*%
X155310000Y-88080000D02*
X155660000Y-87730000D01*
D48*
X144377500Y-98440000D02*
X143660000Y-97722500D01*
X145642500Y-98440000D02*
X144377500Y-98440000D01*
X146710000Y-97372500D02*
X145642500Y-98440000D01*
X139480000Y-98450000D02*
X137320000Y-96290000D01*
X143660000Y-97722500D02*
X142932500Y-98450000D01*
X142932500Y-98450000D02*
X139480000Y-98450000D01*
X148230000Y-96260000D02*
X148560000Y-96260000D01*
X147117500Y-97372500D02*
X148230000Y-96260000D01*
X146710000Y-97372500D02*
X147117500Y-97372500D01*
D45*
%TO.N,Net-(U3-FB)*%
X145192500Y-95510000D02*
X145190000Y-95507500D01*
X146730000Y-95650000D02*
X146590000Y-95510000D01*
X146590000Y-95510000D02*
X145192500Y-95510000D01*
X146730000Y-94215000D02*
X146730000Y-95650000D01*
D49*
%TO.N,/CAN_H*%
X146357500Y-93242500D02*
X148015000Y-93242500D01*
X145637500Y-93962500D02*
X146357500Y-93242500D01*
X145637500Y-94000000D02*
X145637500Y-93962500D01*
D45*
%TO.N,Net-(U3-SW-Pad5)*%
X150010000Y-95210000D02*
X149740000Y-95480000D01*
X150980000Y-95210000D02*
X150570000Y-95210000D01*
X149781000Y-94531000D02*
X149780000Y-94530000D01*
X150980000Y-94531000D02*
X150570000Y-94531000D01*
D49*
%TO.N,/CAN_V+*%
X150980000Y-97660000D02*
X151480000Y-97660000D01*
%TO.N,/CAN_H*%
X142217500Y-97440000D02*
X141510000Y-97440000D01*
X143660000Y-95997500D02*
X142217500Y-97440000D01*
X143660000Y-95550000D02*
X143660000Y-95997500D01*
X145210000Y-94000000D02*
X143660000Y-95550000D01*
X145637500Y-94000000D02*
X145210000Y-94000000D01*
D45*
%TO.N,GND*%
X152620000Y-96250000D02*
X152630000Y-96260000D01*
D49*
%TO.N,/CAN_H_IN*%
X142825000Y-94900000D02*
X142375000Y-95350000D01*
X142300000Y-95350000D02*
X141510000Y-96140000D01*
X142825000Y-93525000D02*
X142825000Y-94900000D01*
X142245000Y-92945000D02*
X142825000Y-93525000D01*
X142375000Y-95350000D02*
X142300000Y-95350000D01*
%TO.N,/SILENT*%
X139660000Y-96290000D02*
X139320000Y-96290000D01*
X139925000Y-94875000D02*
X139925000Y-96025000D01*
X139925000Y-96025000D02*
X139660000Y-96290000D01*
%TO.N,Net-(C3-Pad1)*%
X143650000Y-92425000D02*
X143500000Y-92275000D01*
X144125000Y-90325000D02*
X143950000Y-90500000D01*
X143950000Y-91825000D02*
X143500000Y-92275000D01*
X143812500Y-94000000D02*
X143650000Y-93837500D01*
X143950000Y-90500000D02*
X143950000Y-91825000D01*
X143650000Y-93837500D02*
X143650000Y-92425000D01*
D45*
%TO.N,GND*%
X153016923Y-91943052D02*
X154189975Y-90770000D01*
D49*
X134755000Y-92945000D02*
X134125000Y-93575000D01*
X152564380Y-92309975D02*
X150652475Y-92309975D01*
D50*
X150635000Y-92292500D02*
X150642500Y-92300000D01*
D47*
X155160000Y-98660000D02*
X155660000Y-99160000D01*
D49*
X150652475Y-92309975D02*
X150635000Y-92292500D01*
D51*
X145575000Y-92275000D02*
X146925000Y-92275000D01*
D45*
X164650000Y-95099999D02*
X165032754Y-95099999D01*
X154189975Y-90770000D02*
X162260000Y-90770000D01*
X165706000Y-93366000D02*
X164370000Y-92030000D01*
D47*
X148860000Y-98830000D02*
X149030000Y-98660000D01*
D51*
X146925000Y-92275000D02*
X150617500Y-92275000D01*
D49*
X136425000Y-92945000D02*
X134755000Y-92945000D01*
D45*
X165032754Y-95099999D02*
X165706000Y-94426753D01*
D49*
X143919347Y-87045000D02*
X145595000Y-87045000D01*
X145595000Y-87045000D02*
X145750000Y-87200000D01*
D45*
X152931303Y-91943052D02*
X153016923Y-91943052D01*
X165706000Y-94426753D02*
X165706000Y-93366000D01*
D49*
X121150000Y-90712500D02*
X121150000Y-90870000D01*
X121150000Y-90870000D02*
X119590000Y-92430000D01*
D47*
X149030000Y-98660000D02*
X155160000Y-98660000D01*
X148860000Y-99930000D02*
X148860000Y-98830000D01*
D49*
X152931303Y-91943052D02*
X152564380Y-92309975D01*
D45*
%TO.N,/ESTOP*%
X151160000Y-85960000D02*
X137425000Y-85960000D01*
X152000000Y-86800000D02*
X151160000Y-85960000D01*
X137425000Y-85960000D02*
X136165000Y-84700000D01*
D49*
%TO.N,/CAN_INT_DEFAULT*%
X141275000Y-84720000D02*
X141245000Y-84690000D01*
%TO.N,/CAN_H*%
X150675000Y-93242500D02*
X152215000Y-93242500D01*
X148015000Y-93242500D02*
X150675000Y-93242500D01*
%TO.N,/CAN_L*%
X148015000Y-91342500D02*
X152382500Y-91342500D01*
X148015000Y-91342500D02*
X147172500Y-90500000D01*
X145775000Y-88950000D02*
X145775000Y-90500000D01*
D45*
X154475000Y-89800000D02*
X152945000Y-91330000D01*
X160430000Y-89800000D02*
X154475000Y-89800000D01*
X160480000Y-89750000D02*
X160430000Y-89800000D01*
D49*
X145125000Y-88300000D02*
X145775000Y-88950000D01*
D45*
X152945000Y-91330000D02*
X152350000Y-91330000D01*
D49*
X147172500Y-90500000D02*
X145775000Y-90500000D01*
X143875000Y-88300000D02*
X145125000Y-88300000D01*
%TO.N,/OSC2*%
X119525000Y-91125000D02*
X118225000Y-92425000D01*
X126630000Y-96925000D02*
X126630000Y-94680000D01*
X119525000Y-89975000D02*
X119525000Y-91125000D01*
X118200000Y-92362500D02*
X118212500Y-92362500D01*
X118225000Y-92387500D02*
X118200000Y-92362500D01*
X118225000Y-94425000D02*
X118225000Y-92387500D01*
X121550000Y-89600000D02*
X119900000Y-89600000D01*
X119900000Y-89600000D02*
X119525000Y-89975000D01*
X118225000Y-92425000D02*
X118200000Y-92425000D01*
X126630000Y-94680000D02*
X121550000Y-89600000D01*
%TO.N,/OSC1*%
X121125000Y-94425000D02*
X121125000Y-92537500D01*
X122712500Y-92337500D02*
X125360000Y-94985000D01*
X121325000Y-92337500D02*
X122712500Y-92337500D01*
X125360000Y-94985000D02*
X125360000Y-96925000D01*
X121125000Y-92537500D02*
X121325000Y-92337500D01*
%TO.N,/SILENT*%
X140210000Y-94590000D02*
X141000000Y-94590000D01*
X141000000Y-94590000D02*
X141375000Y-94215000D01*
X139925000Y-94875000D02*
X140210000Y-94590000D01*
%TO.N,/CAN_CS*%
X130650000Y-90875000D02*
X131710000Y-89815000D01*
X131710000Y-89815000D02*
X131710000Y-87625000D01*
D45*
%TO.N,/~{CAN_INT}*%
X148411557Y-86361500D02*
X140938500Y-86361500D01*
D49*
X140000000Y-89300000D02*
X139000000Y-88300000D01*
D45*
X151350057Y-89300000D02*
X148411557Y-86361500D01*
D49*
X139000000Y-88300000D02*
X135150000Y-88300000D01*
D45*
X152000000Y-89300000D02*
X151350057Y-89300000D01*
X140938500Y-86361500D02*
X139000000Y-88300000D01*
D49*
X126630000Y-88855000D02*
X126630000Y-87625000D01*
X126610000Y-88875000D02*
X126630000Y-88855000D01*
%TO.N,/CAN_RESET*%
X131862500Y-91987500D02*
X132980000Y-90870000D01*
X132980000Y-90870000D02*
X132980000Y-87625000D01*
%TO.N,/CAN_RX*%
X132980000Y-92875001D02*
X135450001Y-90405000D01*
X132980000Y-96925000D02*
X132980000Y-92875001D01*
X135450001Y-90405000D02*
X136425000Y-90405000D01*
%TO.N,/MISO*%
X115845000Y-84720000D02*
X118100000Y-86975000D01*
X124725000Y-90350000D02*
X129875000Y-90350000D01*
X115845000Y-84690000D02*
X115845000Y-84720000D01*
X129875000Y-90350000D02*
X130440000Y-89785000D01*
X130440000Y-89785000D02*
X130440000Y-87625000D01*
X121350000Y-86975000D02*
X124725000Y-90350000D01*
X118100000Y-86975000D02*
X121350000Y-86975000D01*
%TO.N,/SCK*%
X127900000Y-89250000D02*
X127900000Y-87625000D01*
X127700000Y-89450000D02*
X127900000Y-89250000D01*
%TO.N,/MOSI*%
X119635000Y-85940000D02*
X118385000Y-84690000D01*
X128509999Y-85940000D02*
X119635000Y-85940000D01*
X129170000Y-86600001D02*
X128509999Y-85940000D01*
X129170000Y-87625000D02*
X129170000Y-86600001D01*
D45*
%TO.N,/CAN_TX*%
X164501000Y-89376000D02*
X164501000Y-89230000D01*
X137837500Y-93712500D02*
X137335000Y-94215000D01*
X165987500Y-90862500D02*
X164501000Y-89376000D01*
D49*
X135285000Y-94215000D02*
X136425000Y-94215000D01*
D45*
X137335000Y-94215000D02*
X136425000Y-94215000D01*
D49*
X134250000Y-96925000D02*
X134250000Y-95250000D01*
X134250000Y-95250000D02*
X135285000Y-94215000D01*
%TO.N,/CAN_H_IN*%
X142245000Y-92945000D02*
X141375000Y-92945000D01*
%TO.N,/CAN_L_IN*%
X142751000Y-88476000D02*
X142575000Y-88300000D01*
X142362500Y-91437500D02*
X142125000Y-91675000D01*
X142125000Y-91675000D02*
X141375000Y-91675000D01*
X142751000Y-91049000D02*
X142751000Y-88476000D01*
X142362500Y-91437500D02*
X142751000Y-91049000D01*
D45*
%TO.N,/CAN_SHLD*%
X160480000Y-93830000D02*
X164620001Y-93830000D01*
X164620001Y-93830000D02*
X164650000Y-93800001D01*
%TO.N,/CAN_ESTOP*%
X157800000Y-84300000D02*
X154900000Y-84300000D01*
X153600000Y-86800000D02*
X153300000Y-86800000D01*
X154200000Y-86200000D02*
X153600000Y-86800000D01*
X163901000Y-87933900D02*
X163227100Y-87260000D01*
X158500000Y-87030000D02*
X158500000Y-85000000D01*
X154900000Y-84300000D02*
X154200000Y-85000000D01*
X154200000Y-85000000D02*
X154200000Y-86200000D01*
X162260000Y-92810000D02*
X163901000Y-91169000D01*
X158730000Y-87260000D02*
X158500000Y-87030000D01*
X163901000Y-91169000D02*
X163901000Y-87933900D01*
X163227100Y-87260000D02*
X158730000Y-87260000D01*
X158500000Y-85000000D02*
X157800000Y-84300000D01*
%TO.N,/LED_TX*%
X157500000Y-86000000D02*
X156220000Y-86000000D01*
X156220000Y-86000000D02*
X155660000Y-85440000D01*
D48*
%TO.N,/CAN_V+*%
X160480000Y-95870000D02*
X159477500Y-95870000D01*
X158500000Y-93890000D02*
X158500000Y-93475000D01*
X159477500Y-95870000D02*
X158987500Y-96360000D01*
X160480000Y-95870000D02*
X158500000Y-93890000D01*
D45*
%TO.N,/LED_PWR*%
X155660000Y-96870000D02*
X156810000Y-98020000D01*
%TO.N,/CAN_BINT*%
X163500000Y-90945628D02*
X163500000Y-88100000D01*
X163500000Y-88100000D02*
X163080000Y-87680000D01*
X163080000Y-87680000D02*
X157220000Y-87680000D01*
X160480000Y-91790000D02*
X162655628Y-91790000D01*
X162655628Y-91790000D02*
X163500000Y-90945628D01*
X157220000Y-87680000D02*
X155600000Y-89300000D01*
X155600000Y-89300000D02*
X153300000Y-89300000D01*
D49*
%TO.N,GND*%
X157262500Y-95225000D02*
X155537500Y-93500000D01*
X157262500Y-96360000D02*
X157262500Y-95225000D01*
D48*
X154375000Y-95350000D02*
X155375000Y-95350000D01*
X155375000Y-93475000D02*
X155375000Y-95350000D01*
D45*
X153850000Y-92600000D02*
X154637500Y-92600000D01*
D48*
X156392831Y-95392831D02*
X156350000Y-95350000D01*
X156350000Y-95350000D02*
X155375000Y-95350000D01*
D45*
X154637500Y-92600000D02*
X155537500Y-93500000D01*
%TO.N,Net-(Q1-S)*%
X165987500Y-88027500D02*
X165980000Y-88020000D01*
X159860000Y-86360000D02*
X159500000Y-86000000D01*
X160710000Y-86360000D02*
X159860000Y-86360000D01*
X165987500Y-88962500D02*
X165987500Y-88027500D01*
D49*
%TO.N,VCC*%
X134250000Y-87625000D02*
X134250000Y-87550000D01*
X134525000Y-89525000D02*
X137301974Y-89525000D01*
X139250000Y-93175000D02*
X139250000Y-91500000D01*
D45*
X159275000Y-98125000D02*
X159200000Y-98050000D01*
D49*
X134250000Y-87550000D02*
X134950000Y-86850000D01*
X139250000Y-91500000D02*
X139257500Y-91492500D01*
X137301974Y-89525000D02*
X138170000Y-90393026D01*
X136911974Y-91675000D02*
X136425000Y-91675000D01*
X137800000Y-90775000D02*
X137800000Y-90786974D01*
X139257500Y-91492500D02*
X138170000Y-90405000D01*
X138170000Y-90393026D02*
X138170000Y-90405000D01*
X140345000Y-90405000D02*
X141375000Y-90405000D01*
X139257500Y-91492500D02*
X140345000Y-90405000D01*
D45*
X167862500Y-89912500D02*
X167862500Y-92863725D01*
X167862500Y-92863725D02*
X167448870Y-93277355D01*
D49*
X134250000Y-87625000D02*
X134250000Y-89250000D01*
X138170000Y-90405000D02*
X137800000Y-90775000D01*
D45*
X160100000Y-98125000D02*
X159275000Y-98125000D01*
D49*
X137800000Y-90786974D02*
X136911974Y-91675000D01*
X134250000Y-89250000D02*
X134525000Y-89525000D01*
D45*
%TO.N,Net-(U3-RT)*%
X153049501Y-94262500D02*
X152462001Y-94850000D01*
X153850000Y-94262500D02*
X153049501Y-94262500D01*
%TD*%
%TA.AperFunction,Conductor*%
%TO.N,GND*%
G36*
X114856841Y-83820185D02*
G01*
X114902596Y-83872989D01*
X114912540Y-83942147D01*
X114890120Y-83997384D01*
X114869030Y-84026412D01*
X114831069Y-84078661D01*
X114746354Y-84244925D01*
X114746352Y-84244928D01*
X114688691Y-84422390D01*
X114688691Y-84422393D01*
X114659500Y-84606699D01*
X114659500Y-84793300D01*
X114688691Y-84977606D01*
X114688691Y-84977609D01*
X114746352Y-85155071D01*
X114746354Y-85155074D01*
X114831069Y-85321338D01*
X114940751Y-85472302D01*
X115072698Y-85604249D01*
X115223662Y-85713931D01*
X115389926Y-85798646D01*
X115389928Y-85798647D01*
X115567391Y-85856308D01*
X115567392Y-85856308D01*
X115567395Y-85856309D01*
X115751699Y-85885500D01*
X115751700Y-85885500D01*
X115938300Y-85885500D01*
X115938301Y-85885500D01*
X115946285Y-85884235D01*
X116015578Y-85893186D01*
X116053369Y-85919026D01*
X117653453Y-87519111D01*
X117653454Y-87519112D01*
X117768192Y-87595777D01*
X117877140Y-87640904D01*
X117895672Y-87648580D01*
X117895676Y-87648580D01*
X117895677Y-87648581D01*
X118031003Y-87675500D01*
X118031006Y-87675500D01*
X118031007Y-87675500D01*
X121008481Y-87675500D01*
X121075520Y-87695185D01*
X121096162Y-87711819D01*
X124278453Y-90894111D01*
X124278454Y-90894112D01*
X124393192Y-90970777D01*
X124515134Y-91021286D01*
X124520672Y-91023580D01*
X124520676Y-91023580D01*
X124520677Y-91023581D01*
X124656003Y-91050500D01*
X124656006Y-91050500D01*
X124656007Y-91050500D01*
X129773386Y-91050500D01*
X129840425Y-91070185D01*
X129886180Y-91122989D01*
X129887947Y-91127048D01*
X129940602Y-91254172D01*
X129940609Y-91254185D01*
X130028210Y-91385288D01*
X130028213Y-91385292D01*
X130139707Y-91496786D01*
X130139711Y-91496789D01*
X130270814Y-91584390D01*
X130270827Y-91584397D01*
X130397824Y-91637000D01*
X130416503Y-91644737D01*
X130571153Y-91675499D01*
X130571156Y-91675500D01*
X130571158Y-91675500D01*
X130728844Y-91675500D01*
X130728845Y-91675499D01*
X130883497Y-91644737D01*
X130920910Y-91629239D01*
X130990378Y-91621771D01*
X131052857Y-91653046D01*
X131088510Y-91713134D01*
X131089979Y-91767992D01*
X131062000Y-91908653D01*
X131062000Y-92066346D01*
X131092761Y-92220989D01*
X131092764Y-92221001D01*
X131153102Y-92366672D01*
X131153109Y-92366685D01*
X131240710Y-92497788D01*
X131240713Y-92497792D01*
X131352207Y-92609286D01*
X131352211Y-92609289D01*
X131483314Y-92696890D01*
X131483327Y-92696897D01*
X131628998Y-92757235D01*
X131629003Y-92757237D01*
X131756058Y-92782510D01*
X131783653Y-92787999D01*
X131783656Y-92788000D01*
X131783658Y-92788000D01*
X131941344Y-92788000D01*
X131941345Y-92787999D01*
X132095997Y-92757237D01*
X132108047Y-92752245D01*
X132177513Y-92744776D01*
X132239993Y-92776049D01*
X132275647Y-92836137D01*
X132279500Y-92866806D01*
X132279500Y-95329326D01*
X132259815Y-95396365D01*
X132207011Y-95442120D01*
X132137853Y-95452064D01*
X132120905Y-95448402D01*
X131962573Y-95402402D01*
X131962567Y-95402401D01*
X131925701Y-95399500D01*
X131925694Y-95399500D01*
X131494306Y-95399500D01*
X131494298Y-95399500D01*
X131457432Y-95402401D01*
X131457426Y-95402402D01*
X131299606Y-95448254D01*
X131299603Y-95448255D01*
X131158137Y-95531917D01*
X131151969Y-95536702D01*
X131150072Y-95534256D01*
X131101358Y-95560857D01*
X131031666Y-95555873D01*
X130999296Y-95535069D01*
X130998031Y-95536702D01*
X130991862Y-95531917D01*
X130856837Y-95452064D01*
X130850398Y-95448256D01*
X130850397Y-95448255D01*
X130850396Y-95448255D01*
X130850393Y-95448254D01*
X130692573Y-95402402D01*
X130692567Y-95402401D01*
X130655701Y-95399500D01*
X130655694Y-95399500D01*
X130224306Y-95399500D01*
X130224298Y-95399500D01*
X130187432Y-95402401D01*
X130187426Y-95402402D01*
X130029606Y-95448254D01*
X130029603Y-95448255D01*
X129888137Y-95531917D01*
X129881969Y-95536702D01*
X129880072Y-95534256D01*
X129831358Y-95560857D01*
X129761666Y-95555873D01*
X129729296Y-95535069D01*
X129728031Y-95536702D01*
X129721862Y-95531917D01*
X129586837Y-95452064D01*
X129580398Y-95448256D01*
X129580397Y-95448255D01*
X129580396Y-95448255D01*
X129580393Y-95448254D01*
X129422573Y-95402402D01*
X129422567Y-95402401D01*
X129385701Y-95399500D01*
X129385694Y-95399500D01*
X128954306Y-95399500D01*
X128954298Y-95399500D01*
X128917432Y-95402401D01*
X128917426Y-95402402D01*
X128759606Y-95448254D01*
X128759603Y-95448255D01*
X128618137Y-95531917D01*
X128611969Y-95536702D01*
X128610072Y-95534256D01*
X128561358Y-95560857D01*
X128491666Y-95555873D01*
X128459296Y-95535069D01*
X128458031Y-95536702D01*
X128451862Y-95531917D01*
X128316837Y-95452064D01*
X128310398Y-95448256D01*
X128310397Y-95448255D01*
X128310396Y-95448255D01*
X128310393Y-95448254D01*
X128152573Y-95402402D01*
X128152567Y-95402401D01*
X128115701Y-95399500D01*
X128115694Y-95399500D01*
X127684306Y-95399500D01*
X127684298Y-95399500D01*
X127647432Y-95402401D01*
X127647426Y-95402402D01*
X127489095Y-95448402D01*
X127419225Y-95448203D01*
X127360555Y-95410261D01*
X127331712Y-95346622D01*
X127330500Y-95329326D01*
X127330500Y-94611007D01*
X127327151Y-94594173D01*
X127325071Y-94583716D01*
X127322997Y-94573291D01*
X127310407Y-94509993D01*
X127303580Y-94475672D01*
X127296370Y-94458265D01*
X127250777Y-94348192D01*
X127174112Y-94233454D01*
X121996545Y-89055887D01*
X121881807Y-88979222D01*
X121754332Y-88926421D01*
X121754322Y-88926418D01*
X121618996Y-88899500D01*
X121618994Y-88899500D01*
X121618993Y-88899500D01*
X119968994Y-88899500D01*
X119831006Y-88899500D01*
X119831004Y-88899500D01*
X119695677Y-88926418D01*
X119695667Y-88926421D01*
X119568192Y-88979222D01*
X119453454Y-89055887D01*
X118980887Y-89528454D01*
X118904223Y-89643190D01*
X118899347Y-89654965D01*
X118855506Y-89709368D01*
X118789212Y-89731433D01*
X118745782Y-89725218D01*
X118587652Y-89672819D01*
X118486654Y-89662500D01*
X118450000Y-89662500D01*
X118450000Y-90576000D01*
X118430315Y-90643039D01*
X118377511Y-90688794D01*
X118326000Y-90700000D01*
X118200000Y-90700000D01*
X118200000Y-90826000D01*
X118180315Y-90893039D01*
X118127511Y-90938794D01*
X118076000Y-90950000D01*
X117225001Y-90950000D01*
X117225001Y-91049154D01*
X117235319Y-91150152D01*
X117289546Y-91313800D01*
X117289551Y-91313811D01*
X117380052Y-91460534D01*
X117380055Y-91460538D01*
X117393982Y-91474465D01*
X117427467Y-91535788D01*
X117422483Y-91605480D01*
X117393984Y-91649825D01*
X117379661Y-91664148D01*
X117289093Y-91810981D01*
X117289091Y-91810986D01*
X117263049Y-91889577D01*
X117234826Y-91974747D01*
X117234826Y-91974748D01*
X117234825Y-91974748D01*
X117224500Y-92075815D01*
X117224500Y-92774169D01*
X117224501Y-92774187D01*
X117234825Y-92875250D01*
X117234834Y-92875289D01*
X117234832Y-92875313D01*
X117235514Y-92881988D01*
X117234323Y-92882109D01*
X117229616Y-92944964D01*
X117187558Y-93000757D01*
X117126834Y-93024532D01*
X117067516Y-93030908D01*
X116932671Y-93081202D01*
X116932664Y-93081206D01*
X116817455Y-93167452D01*
X116817452Y-93167455D01*
X116731206Y-93282664D01*
X116731202Y-93282671D01*
X116680908Y-93417517D01*
X116674501Y-93477116D01*
X116674500Y-93477135D01*
X116674500Y-95372870D01*
X116674501Y-95372876D01*
X116680909Y-95432484D01*
X116717901Y-95531668D01*
X116722885Y-95601360D01*
X116717901Y-95618332D01*
X116680909Y-95717514D01*
X116680908Y-95717516D01*
X116674805Y-95774289D01*
X116674501Y-95777123D01*
X116674500Y-95777135D01*
X116674500Y-97672870D01*
X116674501Y-97672876D01*
X116680908Y-97732483D01*
X116731202Y-97867328D01*
X116731206Y-97867335D01*
X116817452Y-97982544D01*
X116817455Y-97982547D01*
X116932664Y-98068793D01*
X116932671Y-98068797D01*
X117067517Y-98119091D01*
X117067516Y-98119091D01*
X117074444Y-98119835D01*
X117127127Y-98125500D01*
X119322872Y-98125499D01*
X119382483Y-98119091D01*
X119517331Y-98068796D01*
X119600689Y-98006393D01*
X119666153Y-97981977D01*
X119734426Y-97996828D01*
X119749309Y-98006393D01*
X119795458Y-98040940D01*
X119832669Y-98068796D01*
X119832671Y-98068797D01*
X119967517Y-98119091D01*
X119967516Y-98119091D01*
X119974444Y-98119835D01*
X120027127Y-98125500D01*
X122222872Y-98125499D01*
X122282483Y-98119091D01*
X122417331Y-98068796D01*
X122532546Y-97982546D01*
X122618796Y-97867331D01*
X122619423Y-97865649D01*
X123290000Y-97865649D01*
X123292899Y-97902489D01*
X123292900Y-97902495D01*
X123338716Y-98060193D01*
X123338717Y-98060196D01*
X123422314Y-98201552D01*
X123422321Y-98201561D01*
X123538438Y-98317678D01*
X123538447Y-98317685D01*
X123679801Y-98401281D01*
X123837514Y-98447100D01*
X123837511Y-98447100D01*
X123839998Y-98447295D01*
X123840000Y-98447295D01*
X123840000Y-97175000D01*
X123290000Y-97175000D01*
X123290000Y-97865649D01*
X122619423Y-97865649D01*
X122669091Y-97732483D01*
X122675500Y-97672873D01*
X122675499Y-96721155D01*
X122675499Y-95984350D01*
X123290000Y-95984350D01*
X123290000Y-96675000D01*
X123840000Y-96675000D01*
X123840000Y-95402703D01*
X123837503Y-95402900D01*
X123679806Y-95448716D01*
X123679803Y-95448717D01*
X123538447Y-95532314D01*
X123538438Y-95532321D01*
X123422321Y-95648438D01*
X123422314Y-95648447D01*
X123338717Y-95789803D01*
X123338716Y-95789806D01*
X123292900Y-95947504D01*
X123292899Y-95947510D01*
X123290000Y-95984350D01*
X122675499Y-95984350D01*
X122675499Y-95981923D01*
X122675499Y-95777129D01*
X122675498Y-95777123D01*
X122675497Y-95777116D01*
X122669091Y-95717517D01*
X122632096Y-95618330D01*
X122627113Y-95548642D01*
X122632093Y-95531679D01*
X122669091Y-95432483D01*
X122675500Y-95372873D01*
X122675499Y-93590516D01*
X122695184Y-93523478D01*
X122747987Y-93477723D01*
X122817146Y-93467779D01*
X122880702Y-93496804D01*
X122887168Y-93502825D01*
X123543007Y-94158663D01*
X124623181Y-95238837D01*
X124637884Y-95265764D01*
X124654477Y-95291583D01*
X124655368Y-95297783D01*
X124656666Y-95300160D01*
X124659500Y-95326518D01*
X124659500Y-95329846D01*
X124639815Y-95396885D01*
X124587011Y-95442640D01*
X124517853Y-95452584D01*
X124500906Y-95448923D01*
X124342492Y-95402900D01*
X124340000Y-95402703D01*
X124340000Y-98447295D01*
X124340001Y-98447295D01*
X124342486Y-98447100D01*
X124500198Y-98401281D01*
X124641550Y-98317686D01*
X124647717Y-98312903D01*
X124649630Y-98315369D01*
X124698222Y-98288802D01*
X124767917Y-98293749D01*
X124800762Y-98314853D01*
X124801969Y-98313298D01*
X124808132Y-98318078D01*
X124808135Y-98318081D01*
X124949602Y-98401744D01*
X124991224Y-98413836D01*
X125107426Y-98447597D01*
X125107429Y-98447597D01*
X125107431Y-98447598D01*
X125144306Y-98450500D01*
X125144314Y-98450500D01*
X125575686Y-98450500D01*
X125575694Y-98450500D01*
X125612569Y-98447598D01*
X125612571Y-98447597D01*
X125612573Y-98447597D01*
X125654191Y-98435505D01*
X125770398Y-98401744D01*
X125911865Y-98318081D01*
X125911870Y-98318075D01*
X125918031Y-98313298D01*
X125919933Y-98315750D01*
X125968579Y-98289155D01*
X126038274Y-98294104D01*
X126070695Y-98314940D01*
X126071969Y-98313298D01*
X126078132Y-98318078D01*
X126078135Y-98318081D01*
X126219602Y-98401744D01*
X126261224Y-98413836D01*
X126377426Y-98447597D01*
X126377429Y-98447597D01*
X126377431Y-98447598D01*
X126414306Y-98450500D01*
X126414314Y-98450500D01*
X126845686Y-98450500D01*
X126845694Y-98450500D01*
X126882569Y-98447598D01*
X126882571Y-98447597D01*
X126882573Y-98447597D01*
X126924191Y-98435505D01*
X127040398Y-98401744D01*
X127181865Y-98318081D01*
X127181870Y-98318075D01*
X127188031Y-98313298D01*
X127189933Y-98315750D01*
X127238579Y-98289155D01*
X127308274Y-98294104D01*
X127340695Y-98314940D01*
X127341969Y-98313298D01*
X127348132Y-98318078D01*
X127348135Y-98318081D01*
X127489602Y-98401744D01*
X127531224Y-98413836D01*
X127647426Y-98447597D01*
X127647429Y-98447597D01*
X127647431Y-98447598D01*
X127684306Y-98450500D01*
X127684314Y-98450500D01*
X128115686Y-98450500D01*
X128115694Y-98450500D01*
X128152569Y-98447598D01*
X128152571Y-98447597D01*
X128152573Y-98447597D01*
X128194191Y-98435505D01*
X128310398Y-98401744D01*
X128451865Y-98318081D01*
X128451870Y-98318075D01*
X128458031Y-98313298D01*
X128459933Y-98315750D01*
X128508579Y-98289155D01*
X128578274Y-98294104D01*
X128610695Y-98314940D01*
X128611969Y-98313298D01*
X128618132Y-98318078D01*
X128618135Y-98318081D01*
X128759602Y-98401744D01*
X128801224Y-98413836D01*
X128917426Y-98447597D01*
X128917429Y-98447597D01*
X128917431Y-98447598D01*
X128954306Y-98450500D01*
X128954314Y-98450500D01*
X129385686Y-98450500D01*
X129385694Y-98450500D01*
X129422569Y-98447598D01*
X129422571Y-98447597D01*
X129422573Y-98447597D01*
X129464191Y-98435505D01*
X129580398Y-98401744D01*
X129721865Y-98318081D01*
X129721870Y-98318075D01*
X129728031Y-98313298D01*
X129729933Y-98315750D01*
X129778579Y-98289155D01*
X129848274Y-98294104D01*
X129880695Y-98314940D01*
X129881969Y-98313298D01*
X129888132Y-98318078D01*
X129888135Y-98318081D01*
X130029602Y-98401744D01*
X130071224Y-98413836D01*
X130187426Y-98447597D01*
X130187429Y-98447597D01*
X130187431Y-98447598D01*
X130224306Y-98450500D01*
X130224314Y-98450500D01*
X130655686Y-98450500D01*
X130655694Y-98450500D01*
X130692569Y-98447598D01*
X130692571Y-98447597D01*
X130692573Y-98447597D01*
X130734191Y-98435505D01*
X130850398Y-98401744D01*
X130991865Y-98318081D01*
X130991870Y-98318075D01*
X130998031Y-98313298D01*
X130999933Y-98315750D01*
X131048579Y-98289155D01*
X131118274Y-98294104D01*
X131150695Y-98314940D01*
X131151969Y-98313298D01*
X131158132Y-98318078D01*
X131158135Y-98318081D01*
X131299602Y-98401744D01*
X131341224Y-98413836D01*
X131457426Y-98447597D01*
X131457429Y-98447597D01*
X131457431Y-98447598D01*
X131494306Y-98450500D01*
X131494314Y-98450500D01*
X131925686Y-98450500D01*
X131925694Y-98450500D01*
X131962569Y-98447598D01*
X131962571Y-98447597D01*
X131962573Y-98447597D01*
X132004191Y-98435505D01*
X132120398Y-98401744D01*
X132261865Y-98318081D01*
X132261870Y-98318075D01*
X132268031Y-98313298D01*
X132269933Y-98315750D01*
X132318579Y-98289155D01*
X132388274Y-98294104D01*
X132420695Y-98314940D01*
X132421969Y-98313298D01*
X132428132Y-98318078D01*
X132428135Y-98318081D01*
X132569602Y-98401744D01*
X132611224Y-98413836D01*
X132727426Y-98447597D01*
X132727429Y-98447597D01*
X132727431Y-98447598D01*
X132764306Y-98450500D01*
X132764314Y-98450500D01*
X133195686Y-98450500D01*
X133195694Y-98450500D01*
X133232569Y-98447598D01*
X133232571Y-98447597D01*
X133232573Y-98447597D01*
X133274191Y-98435505D01*
X133390398Y-98401744D01*
X133531865Y-98318081D01*
X133531870Y-98318075D01*
X133538031Y-98313298D01*
X133539933Y-98315750D01*
X133588579Y-98289155D01*
X133658274Y-98294104D01*
X133690695Y-98314940D01*
X133691969Y-98313298D01*
X133698132Y-98318078D01*
X133698135Y-98318081D01*
X133839602Y-98401744D01*
X133881224Y-98413836D01*
X133997426Y-98447597D01*
X133997429Y-98447597D01*
X133997431Y-98447598D01*
X134034306Y-98450500D01*
X134034314Y-98450500D01*
X134465686Y-98450500D01*
X134465694Y-98450500D01*
X134502569Y-98447598D01*
X134502571Y-98447597D01*
X134502573Y-98447597D01*
X134544191Y-98435505D01*
X134660398Y-98401744D01*
X134801865Y-98318081D01*
X134918081Y-98201865D01*
X135001744Y-98060398D01*
X135047598Y-97902569D01*
X135050500Y-97865694D01*
X135050500Y-96789986D01*
X136220001Y-96789986D01*
X136230494Y-96892697D01*
X136285641Y-97059119D01*
X136285643Y-97059124D01*
X136377684Y-97208345D01*
X136501654Y-97332315D01*
X136650875Y-97424356D01*
X136650880Y-97424358D01*
X136817302Y-97479505D01*
X136817309Y-97479506D01*
X136920019Y-97489999D01*
X137069999Y-97489999D01*
X137070000Y-97489998D01*
X137070000Y-96540000D01*
X136220001Y-96540000D01*
X136220001Y-96789986D01*
X135050500Y-96789986D01*
X135050500Y-95984306D01*
X135047598Y-95947431D01*
X135047506Y-95947115D01*
X135003666Y-95796217D01*
X135001744Y-95789602D01*
X134982732Y-95757454D01*
X134967768Y-95732150D01*
X134963418Y-95716250D01*
X134955523Y-95703965D01*
X134950500Y-95669030D01*
X134950500Y-95591518D01*
X134970185Y-95524479D01*
X134986815Y-95503841D01*
X135439051Y-95051604D01*
X135500372Y-95018121D01*
X135531844Y-95016003D01*
X135531868Y-95015404D01*
X135534298Y-95015499D01*
X135534306Y-95015500D01*
X135534314Y-95015500D01*
X136440846Y-95015500D01*
X136507885Y-95035185D01*
X136553640Y-95087989D01*
X136563584Y-95157147D01*
X136534559Y-95220703D01*
X136505945Y-95245038D01*
X136501654Y-95247684D01*
X136377684Y-95371654D01*
X136285643Y-95520875D01*
X136285641Y-95520880D01*
X136230494Y-95687302D01*
X136230493Y-95687309D01*
X136220000Y-95790013D01*
X136220000Y-96040000D01*
X137196000Y-96040000D01*
X137263039Y-96059685D01*
X137308794Y-96112489D01*
X137320000Y-96164000D01*
X137320000Y-96290000D01*
X137446000Y-96290000D01*
X137513039Y-96309685D01*
X137558794Y-96362489D01*
X137570000Y-96414000D01*
X137570000Y-97489999D01*
X137719972Y-97489999D01*
X137719986Y-97489998D01*
X137822697Y-97479505D01*
X137989119Y-97424358D01*
X137989124Y-97424356D01*
X138138342Y-97332317D01*
X138231964Y-97238695D01*
X138293287Y-97205210D01*
X138362979Y-97210194D01*
X138407327Y-97238695D01*
X138501344Y-97332712D01*
X138650666Y-97424814D01*
X138817203Y-97479999D01*
X138919991Y-97490500D01*
X139720008Y-97490499D01*
X139720016Y-97490498D01*
X139720019Y-97490498D01*
X139789180Y-97483433D01*
X139822797Y-97479999D01*
X139989334Y-97424814D01*
X140065404Y-97377893D01*
X140132796Y-97359454D01*
X140199459Y-97380377D01*
X140244229Y-97434019D01*
X140254500Y-97483433D01*
X140254500Y-97505833D01*
X140271724Y-97636658D01*
X140271725Y-97636662D01*
X140281427Y-97672870D01*
X140305800Y-97763829D01*
X140356302Y-97885750D01*
X140356303Y-97885751D01*
X140422120Y-97999749D01*
X140422132Y-97999767D01*
X140502455Y-98104444D01*
X140502459Y-98104449D01*
X140595551Y-98197541D01*
X140595555Y-98197544D01*
X140700228Y-98277864D01*
X140700233Y-98277868D01*
X140700243Y-98277875D01*
X140700250Y-98277879D01*
X140814248Y-98343696D01*
X140814249Y-98343697D01*
X140814252Y-98343698D01*
X140814257Y-98343701D01*
X140936171Y-98394200D01*
X141063338Y-98428275D01*
X141194174Y-98445500D01*
X141194181Y-98445500D01*
X141825819Y-98445500D01*
X141825826Y-98445500D01*
X141956662Y-98428275D01*
X142083829Y-98394200D01*
X142205743Y-98343701D01*
X142319757Y-98277875D01*
X142319767Y-98277866D01*
X142319772Y-98277864D01*
X142369941Y-98239367D01*
X142424449Y-98197541D01*
X142491946Y-98130043D01*
X142553265Y-98096561D01*
X142622957Y-98101545D01*
X142678891Y-98143416D01*
X142697330Y-98178723D01*
X142749546Y-98336300D01*
X142749551Y-98336311D01*
X142840052Y-98483034D01*
X142840055Y-98483038D01*
X142961961Y-98604944D01*
X142961965Y-98604947D01*
X143108688Y-98695448D01*
X143108696Y-98695451D01*
X143122190Y-98699923D01*
X143179636Y-98739695D01*
X143206460Y-98804211D01*
X143194146Y-98872987D01*
X143156074Y-98917947D01*
X143007704Y-99025746D01*
X143007695Y-99025753D01*
X142875753Y-99157695D01*
X142875753Y-99157696D01*
X142875751Y-99157698D01*
X142847103Y-99197129D01*
X142766069Y-99308661D01*
X142681354Y-99474925D01*
X142681352Y-99474928D01*
X142627931Y-99639343D01*
X142588493Y-99697019D01*
X142524135Y-99724217D01*
X142455288Y-99712302D01*
X142403813Y-99665058D01*
X142392069Y-99639343D01*
X142338647Y-99474928D01*
X142338645Y-99474925D01*
X142319310Y-99436976D01*
X142253931Y-99308662D01*
X142144249Y-99157698D01*
X142012302Y-99025751D01*
X141861338Y-98916069D01*
X141695074Y-98831354D01*
X141695071Y-98831352D01*
X141517608Y-98773691D01*
X141373759Y-98750908D01*
X141333301Y-98744500D01*
X141146699Y-98744500D01*
X141085264Y-98754230D01*
X140962393Y-98773691D01*
X140962390Y-98773691D01*
X140784928Y-98831352D01*
X140784925Y-98831354D01*
X140618661Y-98916069D01*
X140554082Y-98962989D01*
X140467698Y-99025751D01*
X140467696Y-99025753D01*
X140467695Y-99025753D01*
X140335753Y-99157695D01*
X140335753Y-99157696D01*
X140335751Y-99157698D01*
X140307103Y-99197129D01*
X140226069Y-99308661D01*
X140141354Y-99474925D01*
X140141352Y-99474928D01*
X140087931Y-99639343D01*
X140048493Y-99697019D01*
X139984135Y-99724217D01*
X139915288Y-99712302D01*
X139863813Y-99665058D01*
X139852069Y-99639343D01*
X139798647Y-99474928D01*
X139798645Y-99474925D01*
X139779310Y-99436976D01*
X139713931Y-99308662D01*
X139604249Y-99157698D01*
X139472302Y-99025751D01*
X139321338Y-98916069D01*
X139155074Y-98831354D01*
X139155071Y-98831352D01*
X138977608Y-98773691D01*
X138833759Y-98750908D01*
X138793301Y-98744500D01*
X138606699Y-98744500D01*
X138545264Y-98754230D01*
X138422393Y-98773691D01*
X138422390Y-98773691D01*
X138244928Y-98831352D01*
X138244925Y-98831354D01*
X138078661Y-98916069D01*
X138014082Y-98962989D01*
X137927698Y-99025751D01*
X137927696Y-99025753D01*
X137927695Y-99025753D01*
X137795753Y-99157695D01*
X137795753Y-99157696D01*
X137795751Y-99157698D01*
X137767103Y-99197129D01*
X137686069Y-99308661D01*
X137601354Y-99474925D01*
X137601352Y-99474928D01*
X137547931Y-99639343D01*
X137508493Y-99697019D01*
X137444135Y-99724217D01*
X137375288Y-99712302D01*
X137323813Y-99665058D01*
X137312069Y-99639343D01*
X137258647Y-99474928D01*
X137258645Y-99474925D01*
X137239310Y-99436976D01*
X137173931Y-99308662D01*
X137064249Y-99157698D01*
X136932302Y-99025751D01*
X136781338Y-98916069D01*
X136615074Y-98831354D01*
X136615071Y-98831352D01*
X136437608Y-98773691D01*
X136293759Y-98750908D01*
X136253301Y-98744500D01*
X136066699Y-98744500D01*
X136005264Y-98754230D01*
X135882393Y-98773691D01*
X135882390Y-98773691D01*
X135704928Y-98831352D01*
X135704925Y-98831354D01*
X135538661Y-98916069D01*
X135474082Y-98962989D01*
X135387698Y-99025751D01*
X135387696Y-99025753D01*
X135387695Y-99025753D01*
X135255753Y-99157695D01*
X135255753Y-99157696D01*
X135255751Y-99157698D01*
X135227103Y-99197129D01*
X135146069Y-99308661D01*
X135061354Y-99474925D01*
X135061352Y-99474928D01*
X135007931Y-99639343D01*
X134968493Y-99697019D01*
X134904135Y-99724217D01*
X134835288Y-99712302D01*
X134783813Y-99665058D01*
X134772069Y-99639343D01*
X134718647Y-99474928D01*
X134718645Y-99474925D01*
X134699310Y-99436976D01*
X134633931Y-99308662D01*
X134524249Y-99157698D01*
X134392302Y-99025751D01*
X134241338Y-98916069D01*
X134075074Y-98831354D01*
X134075071Y-98831352D01*
X133897608Y-98773691D01*
X133753759Y-98750908D01*
X133713301Y-98744500D01*
X133526699Y-98744500D01*
X133465264Y-98754230D01*
X133342393Y-98773691D01*
X133342390Y-98773691D01*
X133164928Y-98831352D01*
X133164925Y-98831354D01*
X132998661Y-98916069D01*
X132934082Y-98962989D01*
X132847698Y-99025751D01*
X132847696Y-99025753D01*
X132847695Y-99025753D01*
X132715753Y-99157695D01*
X132715753Y-99157696D01*
X132715751Y-99157698D01*
X132687103Y-99197129D01*
X132606069Y-99308661D01*
X132521354Y-99474925D01*
X132521352Y-99474928D01*
X132467931Y-99639343D01*
X132428493Y-99697019D01*
X132364135Y-99724217D01*
X132295288Y-99712302D01*
X132243813Y-99665058D01*
X132232069Y-99639343D01*
X132178647Y-99474928D01*
X132178645Y-99474925D01*
X132159310Y-99436976D01*
X132093931Y-99308662D01*
X131984249Y-99157698D01*
X131852302Y-99025751D01*
X131701338Y-98916069D01*
X131535074Y-98831354D01*
X131535071Y-98831352D01*
X131357608Y-98773691D01*
X131213759Y-98750908D01*
X131173301Y-98744500D01*
X130986699Y-98744500D01*
X130925264Y-98754230D01*
X130802393Y-98773691D01*
X130802390Y-98773691D01*
X130624928Y-98831352D01*
X130624925Y-98831354D01*
X130458661Y-98916069D01*
X130394082Y-98962989D01*
X130307698Y-99025751D01*
X130307696Y-99025753D01*
X130307695Y-99025753D01*
X130175753Y-99157695D01*
X130175753Y-99157696D01*
X130175751Y-99157698D01*
X130147103Y-99197129D01*
X130066069Y-99308661D01*
X129981354Y-99474925D01*
X129981352Y-99474928D01*
X129927931Y-99639343D01*
X129888493Y-99697019D01*
X129824135Y-99724217D01*
X129755288Y-99712302D01*
X129703813Y-99665058D01*
X129692069Y-99639343D01*
X129638647Y-99474928D01*
X129638645Y-99474925D01*
X129619310Y-99436976D01*
X129553931Y-99308662D01*
X129444249Y-99157698D01*
X129312302Y-99025751D01*
X129161338Y-98916069D01*
X128995074Y-98831354D01*
X128995071Y-98831352D01*
X128817608Y-98773691D01*
X128673759Y-98750908D01*
X128633301Y-98744500D01*
X128446699Y-98744500D01*
X128385264Y-98754230D01*
X128262393Y-98773691D01*
X128262390Y-98773691D01*
X128084928Y-98831352D01*
X128084925Y-98831354D01*
X127918661Y-98916069D01*
X127854082Y-98962989D01*
X127767698Y-99025751D01*
X127767696Y-99025753D01*
X127767695Y-99025753D01*
X127635753Y-99157695D01*
X127635753Y-99157696D01*
X127635751Y-99157698D01*
X127607103Y-99197129D01*
X127526069Y-99308661D01*
X127441354Y-99474925D01*
X127441352Y-99474928D01*
X127387931Y-99639343D01*
X127348493Y-99697019D01*
X127284135Y-99724217D01*
X127215288Y-99712302D01*
X127163813Y-99665058D01*
X127152069Y-99639343D01*
X127098647Y-99474928D01*
X127098645Y-99474925D01*
X127079310Y-99436976D01*
X127013931Y-99308662D01*
X126904249Y-99157698D01*
X126772302Y-99025751D01*
X126621338Y-98916069D01*
X126455074Y-98831354D01*
X126455071Y-98831352D01*
X126277608Y-98773691D01*
X126133759Y-98750908D01*
X126093301Y-98744500D01*
X125906699Y-98744500D01*
X125845264Y-98754230D01*
X125722393Y-98773691D01*
X125722390Y-98773691D01*
X125544928Y-98831352D01*
X125544925Y-98831354D01*
X125378661Y-98916069D01*
X125314082Y-98962989D01*
X125227698Y-99025751D01*
X125227696Y-99025753D01*
X125227695Y-99025753D01*
X125095753Y-99157695D01*
X125095753Y-99157696D01*
X125095751Y-99157698D01*
X125067103Y-99197129D01*
X124986069Y-99308661D01*
X124901354Y-99474925D01*
X124901352Y-99474928D01*
X124847931Y-99639343D01*
X124808493Y-99697019D01*
X124744135Y-99724217D01*
X124675288Y-99712302D01*
X124623813Y-99665058D01*
X124612069Y-99639343D01*
X124558647Y-99474928D01*
X124558645Y-99474925D01*
X124539310Y-99436976D01*
X124473931Y-99308662D01*
X124364249Y-99157698D01*
X124232302Y-99025751D01*
X124081338Y-98916069D01*
X123915074Y-98831354D01*
X123915071Y-98831352D01*
X123737608Y-98773691D01*
X123593759Y-98750908D01*
X123553301Y-98744500D01*
X123366699Y-98744500D01*
X123305264Y-98754230D01*
X123182393Y-98773691D01*
X123182390Y-98773691D01*
X123004928Y-98831352D01*
X123004925Y-98831354D01*
X122838661Y-98916069D01*
X122774082Y-98962989D01*
X122687698Y-99025751D01*
X122687696Y-99025753D01*
X122687695Y-99025753D01*
X122555753Y-99157695D01*
X122555753Y-99157696D01*
X122555751Y-99157698D01*
X122527103Y-99197129D01*
X122446069Y-99308661D01*
X122361354Y-99474925D01*
X122361352Y-99474928D01*
X122307931Y-99639343D01*
X122268493Y-99697019D01*
X122204135Y-99724217D01*
X122135288Y-99712302D01*
X122083813Y-99665058D01*
X122072069Y-99639343D01*
X122018647Y-99474928D01*
X122018645Y-99474925D01*
X121999310Y-99436976D01*
X121933931Y-99308662D01*
X121824249Y-99157698D01*
X121692302Y-99025751D01*
X121541338Y-98916069D01*
X121375074Y-98831354D01*
X121375071Y-98831352D01*
X121197608Y-98773691D01*
X121053759Y-98750908D01*
X121013301Y-98744500D01*
X120826699Y-98744500D01*
X120765264Y-98754230D01*
X120642393Y-98773691D01*
X120642390Y-98773691D01*
X120464928Y-98831352D01*
X120464925Y-98831354D01*
X120298661Y-98916069D01*
X120234082Y-98962989D01*
X120147698Y-99025751D01*
X120147696Y-99025753D01*
X120147695Y-99025753D01*
X120015753Y-99157695D01*
X120015753Y-99157696D01*
X120015751Y-99157698D01*
X119987103Y-99197129D01*
X119906069Y-99308661D01*
X119821354Y-99474925D01*
X119821352Y-99474928D01*
X119767931Y-99639343D01*
X119728493Y-99697019D01*
X119664135Y-99724217D01*
X119595288Y-99712302D01*
X119543813Y-99665058D01*
X119532069Y-99639343D01*
X119478647Y-99474928D01*
X119478645Y-99474925D01*
X119459310Y-99436976D01*
X119393931Y-99308662D01*
X119284249Y-99157698D01*
X119152302Y-99025751D01*
X119001338Y-98916069D01*
X118835074Y-98831354D01*
X118835071Y-98831352D01*
X118657608Y-98773691D01*
X118513759Y-98750908D01*
X118473301Y-98744500D01*
X118286699Y-98744500D01*
X118225264Y-98754230D01*
X118102393Y-98773691D01*
X118102390Y-98773691D01*
X117924928Y-98831352D01*
X117924925Y-98831354D01*
X117758661Y-98916069D01*
X117694082Y-98962989D01*
X117607698Y-99025751D01*
X117607696Y-99025753D01*
X117607695Y-99025753D01*
X117475753Y-99157695D01*
X117475753Y-99157696D01*
X117475751Y-99157698D01*
X117447103Y-99197129D01*
X117366069Y-99308661D01*
X117281354Y-99474925D01*
X117281352Y-99474928D01*
X117227931Y-99639343D01*
X117188493Y-99697019D01*
X117124135Y-99724217D01*
X117055288Y-99712302D01*
X117003813Y-99665058D01*
X116992069Y-99639343D01*
X116938647Y-99474928D01*
X116938645Y-99474925D01*
X116919310Y-99436976D01*
X116853931Y-99308662D01*
X116744249Y-99157698D01*
X116612302Y-99025751D01*
X116461338Y-98916069D01*
X116295074Y-98831354D01*
X116295071Y-98831352D01*
X116117608Y-98773691D01*
X115973759Y-98750908D01*
X115933301Y-98744500D01*
X115746699Y-98744500D01*
X115685264Y-98754230D01*
X115562393Y-98773691D01*
X115562390Y-98773691D01*
X115384928Y-98831352D01*
X115384925Y-98831354D01*
X115218661Y-98916069D01*
X115154082Y-98962989D01*
X115067698Y-99025751D01*
X115067696Y-99025753D01*
X115067695Y-99025753D01*
X114935753Y-99157695D01*
X114935753Y-99157696D01*
X114935751Y-99157698D01*
X114907103Y-99197129D01*
X114826069Y-99308661D01*
X114741354Y-99474925D01*
X114741352Y-99474928D01*
X114683691Y-99652390D01*
X114683691Y-99652393D01*
X114654500Y-99836699D01*
X114654500Y-100023300D01*
X114683691Y-100207606D01*
X114683691Y-100207609D01*
X114741352Y-100385071D01*
X114741354Y-100385074D01*
X114826071Y-100551342D01*
X114863323Y-100602614D01*
X114886804Y-100668420D01*
X114870979Y-100736474D01*
X114820874Y-100785169D01*
X114763006Y-100799500D01*
X112474500Y-100799500D01*
X112407461Y-100779815D01*
X112361706Y-100727011D01*
X112350500Y-100675500D01*
X112350500Y-87477135D01*
X113674500Y-87477135D01*
X113674500Y-89272870D01*
X113674501Y-89272876D01*
X113680908Y-89332483D01*
X113731202Y-89467328D01*
X113731206Y-89467335D01*
X113817452Y-89582544D01*
X113817455Y-89582547D01*
X113932664Y-89668793D01*
X113932671Y-89668797D01*
X114064082Y-89717810D01*
X114120016Y-89759681D01*
X114144433Y-89825145D01*
X114129582Y-89893418D01*
X114108431Y-89921673D01*
X113994889Y-90035215D01*
X113869951Y-90207179D01*
X113773444Y-90396585D01*
X113707753Y-90598760D01*
X113674500Y-90808713D01*
X113674500Y-91021286D01*
X113706002Y-91220185D01*
X113707754Y-91231243D01*
X113772039Y-91429092D01*
X113773444Y-91433414D01*
X113869951Y-91622820D01*
X113994890Y-91794786D01*
X114145213Y-91945109D01*
X114317182Y-92070050D01*
X114325946Y-92074516D01*
X114376742Y-92122491D01*
X114393536Y-92190312D01*
X114370998Y-92256447D01*
X114325946Y-92295484D01*
X114317182Y-92299949D01*
X114145213Y-92424890D01*
X113994890Y-92575213D01*
X113869951Y-92747179D01*
X113773444Y-92936585D01*
X113707753Y-93138760D01*
X113674500Y-93348713D01*
X113674500Y-93561286D01*
X113701881Y-93734167D01*
X113707754Y-93771243D01*
X113772137Y-93969394D01*
X113773444Y-93973414D01*
X113869951Y-94162820D01*
X113994890Y-94334786D01*
X114145213Y-94485109D01*
X114317182Y-94610050D01*
X114325946Y-94614516D01*
X114376742Y-94662491D01*
X114393536Y-94730312D01*
X114370998Y-94796447D01*
X114325946Y-94835484D01*
X114317182Y-94839949D01*
X114145213Y-94964890D01*
X113994890Y-95115213D01*
X113869951Y-95287179D01*
X113773444Y-95476585D01*
X113707753Y-95678760D01*
X113675308Y-95883610D01*
X113674500Y-95888713D01*
X113674500Y-96101287D01*
X113678844Y-96128716D01*
X113706454Y-96303039D01*
X113707754Y-96311243D01*
X113769214Y-96500398D01*
X113773444Y-96513414D01*
X113869951Y-96702820D01*
X113994890Y-96874786D01*
X114145213Y-97025109D01*
X114317179Y-97150048D01*
X114317181Y-97150049D01*
X114317184Y-97150051D01*
X114506588Y-97246557D01*
X114708757Y-97312246D01*
X114918713Y-97345500D01*
X114918714Y-97345500D01*
X115131286Y-97345500D01*
X115131287Y-97345500D01*
X115341243Y-97312246D01*
X115543412Y-97246557D01*
X115732816Y-97150051D01*
X115779331Y-97116256D01*
X115904786Y-97025109D01*
X115904788Y-97025106D01*
X115904792Y-97025104D01*
X116055104Y-96874792D01*
X116055106Y-96874788D01*
X116055109Y-96874786D01*
X116180048Y-96702820D01*
X116180047Y-96702820D01*
X116180051Y-96702816D01*
X116276557Y-96513412D01*
X116342246Y-96311243D01*
X116375500Y-96101287D01*
X116375500Y-95888713D01*
X116342246Y-95678757D01*
X116276557Y-95476588D01*
X116180051Y-95287184D01*
X116180049Y-95287181D01*
X116180048Y-95287179D01*
X116055109Y-95115213D01*
X115904786Y-94964890D01*
X115732820Y-94839951D01*
X115726337Y-94836648D01*
X115724054Y-94835485D01*
X115673259Y-94787512D01*
X115656463Y-94719692D01*
X115678999Y-94653556D01*
X115724054Y-94614515D01*
X115732816Y-94610051D01*
X115770215Y-94582879D01*
X115904786Y-94485109D01*
X115904788Y-94485106D01*
X115904792Y-94485104D01*
X116055104Y-94334792D01*
X116055106Y-94334788D01*
X116055109Y-94334786D01*
X116180048Y-94162820D01*
X116180047Y-94162820D01*
X116180051Y-94162816D01*
X116276557Y-93973412D01*
X116342246Y-93771243D01*
X116375500Y-93561287D01*
X116375500Y-93348713D01*
X116342246Y-93138757D01*
X116276557Y-92936588D01*
X116180051Y-92747184D01*
X116180049Y-92747181D01*
X116180048Y-92747179D01*
X116055109Y-92575213D01*
X115904786Y-92424890D01*
X115732820Y-92299951D01*
X115732115Y-92299591D01*
X115724054Y-92295485D01*
X115673259Y-92247512D01*
X115656463Y-92179692D01*
X115678999Y-92113556D01*
X115724054Y-92074515D01*
X115732816Y-92070051D01*
X115757057Y-92052439D01*
X115904786Y-91945109D01*
X115904788Y-91945106D01*
X115904792Y-91945104D01*
X116055104Y-91794792D01*
X116055106Y-91794788D01*
X116055109Y-91794786D01*
X116180048Y-91622820D01*
X116180047Y-91622820D01*
X116180051Y-91622816D01*
X116276557Y-91433412D01*
X116342246Y-91231243D01*
X116375500Y-91021287D01*
X116375500Y-90808713D01*
X116342246Y-90598757D01*
X116276557Y-90396588D01*
X116276556Y-90396586D01*
X116276555Y-90396584D01*
X116253250Y-90350845D01*
X117225000Y-90350845D01*
X117225000Y-90450000D01*
X117950000Y-90450000D01*
X117950000Y-89662500D01*
X117913361Y-89662500D01*
X117913343Y-89662501D01*
X117812347Y-89672819D01*
X117648699Y-89727046D01*
X117648688Y-89727051D01*
X117501965Y-89817552D01*
X117501961Y-89817555D01*
X117380055Y-89939461D01*
X117380052Y-89939465D01*
X117289551Y-90086188D01*
X117289546Y-90086199D01*
X117235319Y-90249847D01*
X117225000Y-90350845D01*
X116253250Y-90350845D01*
X116239009Y-90322896D01*
X116180051Y-90207184D01*
X116180049Y-90207181D01*
X116180048Y-90207179D01*
X116055109Y-90035213D01*
X115941569Y-89921673D01*
X115908084Y-89860350D01*
X115913068Y-89790658D01*
X115954940Y-89734725D01*
X115985915Y-89717810D01*
X116117331Y-89668796D01*
X116232546Y-89582546D01*
X116318796Y-89467331D01*
X116369091Y-89332483D01*
X116375500Y-89272873D01*
X116375499Y-87477128D01*
X116369091Y-87417517D01*
X116363112Y-87401487D01*
X116318797Y-87282671D01*
X116318793Y-87282664D01*
X116232547Y-87167455D01*
X116232544Y-87167452D01*
X116117335Y-87081206D01*
X116117328Y-87081202D01*
X115982482Y-87030908D01*
X115982483Y-87030908D01*
X115922883Y-87024501D01*
X115922881Y-87024500D01*
X115922873Y-87024500D01*
X115922864Y-87024500D01*
X114127129Y-87024500D01*
X114127123Y-87024501D01*
X114067516Y-87030908D01*
X113932671Y-87081202D01*
X113932664Y-87081206D01*
X113817455Y-87167452D01*
X113817452Y-87167455D01*
X113731206Y-87282664D01*
X113731202Y-87282671D01*
X113680908Y-87417517D01*
X113675074Y-87471789D01*
X113674501Y-87477123D01*
X113674500Y-87477135D01*
X112350500Y-87477135D01*
X112350500Y-83924500D01*
X112370185Y-83857461D01*
X112422989Y-83811706D01*
X112474500Y-83800500D01*
X114789802Y-83800500D01*
X114856841Y-83820185D01*
G37*
%TD.AperFunction*%
%TA.AperFunction,Conductor*%
G36*
X169792539Y-83820185D02*
G01*
X169838294Y-83872989D01*
X169849500Y-83924500D01*
X169849500Y-100675500D01*
X169829815Y-100742539D01*
X169777011Y-100788294D01*
X169725500Y-100799500D01*
X163079771Y-100799500D01*
X163012732Y-100779815D01*
X162966977Y-100727011D01*
X162957033Y-100657853D01*
X162958154Y-100651309D01*
X162990499Y-100488695D01*
X162990500Y-100488693D01*
X162990500Y-100311306D01*
X162990499Y-100311304D01*
X162955896Y-100137341D01*
X162955893Y-100137332D01*
X162888016Y-99973459D01*
X162888009Y-99973446D01*
X162789464Y-99825965D01*
X162789461Y-99825961D01*
X162664038Y-99700538D01*
X162664034Y-99700535D01*
X162516553Y-99601990D01*
X162516540Y-99601983D01*
X162352667Y-99534106D01*
X162352658Y-99534103D01*
X162178694Y-99499500D01*
X162178691Y-99499500D01*
X160301309Y-99499500D01*
X160301306Y-99499500D01*
X160127341Y-99534103D01*
X160127332Y-99534106D01*
X159963459Y-99601983D01*
X159963446Y-99601990D01*
X159815965Y-99700535D01*
X159815961Y-99700538D01*
X159690538Y-99825961D01*
X159690535Y-99825965D01*
X159591990Y-99973446D01*
X159591983Y-99973459D01*
X159524106Y-100137332D01*
X159524103Y-100137341D01*
X159489500Y-100311304D01*
X159489500Y-100488695D01*
X159521846Y-100651309D01*
X159515619Y-100720900D01*
X159472756Y-100776078D01*
X159406866Y-100799322D01*
X159400229Y-100799500D01*
X152708857Y-100799500D01*
X152641818Y-100779815D01*
X152596063Y-100727011D01*
X152586209Y-100666228D01*
X152585564Y-100666194D01*
X152585500Y-100666194D01*
X152585500Y-100666190D01*
X152585322Y-100666181D01*
X152585500Y-100662864D01*
X152585500Y-100120623D01*
X152585499Y-99197129D01*
X152585498Y-99197123D01*
X152585497Y-99197116D01*
X152579091Y-99137517D01*
X152528796Y-99002669D01*
X152528795Y-99002668D01*
X152528793Y-99002664D01*
X152442547Y-98887455D01*
X152442544Y-98887452D01*
X152327335Y-98801206D01*
X152327328Y-98801202D01*
X152192482Y-98750908D01*
X152192483Y-98750908D01*
X152132883Y-98744501D01*
X152132881Y-98744500D01*
X152132873Y-98744500D01*
X152132864Y-98744500D01*
X150667129Y-98744500D01*
X150667123Y-98744501D01*
X150607516Y-98750908D01*
X150472671Y-98801202D01*
X150472664Y-98801206D01*
X150357455Y-98887452D01*
X150357452Y-98887455D01*
X150271206Y-99002664D01*
X150271202Y-99002671D01*
X150220908Y-99137517D01*
X150214501Y-99197116D01*
X150214501Y-99197123D01*
X150214500Y-99197135D01*
X150214500Y-99481080D01*
X150194815Y-99548119D01*
X150142011Y-99593874D01*
X150072853Y-99603818D01*
X150009297Y-99574793D01*
X149972569Y-99519398D01*
X149958180Y-99475115D01*
X149873499Y-99308918D01*
X149857144Y-99286408D01*
X149857143Y-99286408D01*
X149351127Y-99792423D01*
X149335245Y-99733147D01*
X149268102Y-99616853D01*
X149173147Y-99521898D01*
X149056853Y-99454755D01*
X148997574Y-99438871D01*
X149503590Y-98932855D01*
X149503590Y-98932854D01*
X149481077Y-98916498D01*
X149314884Y-98831819D01*
X149137484Y-98774178D01*
X148953261Y-98745000D01*
X148766739Y-98745000D01*
X148582515Y-98774178D01*
X148405115Y-98831819D01*
X148238927Y-98916495D01*
X148238923Y-98916498D01*
X148216408Y-98932854D01*
X148216408Y-98932856D01*
X148722425Y-99438871D01*
X148663147Y-99454755D01*
X148546853Y-99521898D01*
X148451898Y-99616853D01*
X148384755Y-99733147D01*
X148368871Y-99792424D01*
X147862855Y-99286408D01*
X147862854Y-99286408D01*
X147846498Y-99308923D01*
X147846495Y-99308927D01*
X147761819Y-99475113D01*
X147708194Y-99640155D01*
X147668756Y-99697830D01*
X147604397Y-99725028D01*
X147535551Y-99713113D01*
X147484075Y-99665869D01*
X147472332Y-99640154D01*
X147418647Y-99474928D01*
X147418645Y-99474925D01*
X147399310Y-99436976D01*
X147333931Y-99308662D01*
X147224249Y-99157698D01*
X147092302Y-99025751D01*
X146941338Y-98916069D01*
X146775074Y-98831354D01*
X146775071Y-98831352D01*
X146597608Y-98773691D01*
X146453759Y-98750908D01*
X146413301Y-98744500D01*
X146226699Y-98744500D01*
X146165264Y-98754230D01*
X146042393Y-98773691D01*
X146042390Y-98773691D01*
X145864928Y-98831352D01*
X145864925Y-98831354D01*
X145698661Y-98916069D01*
X145634082Y-98962989D01*
X145547698Y-99025751D01*
X145547696Y-99025753D01*
X145547695Y-99025753D01*
X145415753Y-99157695D01*
X145415753Y-99157696D01*
X145415751Y-99157698D01*
X145387103Y-99197129D01*
X145306069Y-99308661D01*
X145221354Y-99474925D01*
X145221352Y-99474928D01*
X145167931Y-99639343D01*
X145128493Y-99697019D01*
X145064135Y-99724217D01*
X144995288Y-99712302D01*
X144943813Y-99665058D01*
X144932069Y-99639343D01*
X144878647Y-99474928D01*
X144878645Y-99474925D01*
X144859310Y-99436976D01*
X144793931Y-99308662D01*
X144684249Y-99157698D01*
X144552302Y-99025751D01*
X144401338Y-98916069D01*
X144359467Y-98894735D01*
X144298012Y-98863422D01*
X144247216Y-98815448D01*
X144230421Y-98747627D01*
X144252958Y-98681492D01*
X144289210Y-98647398D01*
X144358039Y-98604943D01*
X144479944Y-98483038D01*
X144479945Y-98483036D01*
X144555053Y-98361268D01*
X144607001Y-98314543D01*
X144675963Y-98303320D01*
X144699590Y-98308656D01*
X144802247Y-98342674D01*
X144903323Y-98353000D01*
X145476676Y-98352999D01*
X145476684Y-98352998D01*
X145476687Y-98352998D01*
X145532030Y-98347344D01*
X145577753Y-98342674D01*
X145741516Y-98288408D01*
X145879301Y-98203421D01*
X145946691Y-98184981D01*
X146009494Y-98203422D01*
X146158692Y-98295450D01*
X146158699Y-98295453D01*
X146322347Y-98349680D01*
X146423352Y-98359999D01*
X146460000Y-98359999D01*
X146960000Y-98359999D01*
X146996640Y-98359999D01*
X146996654Y-98359998D01*
X147097652Y-98349680D01*
X147261300Y-98295453D01*
X147261311Y-98295448D01*
X147408034Y-98204947D01*
X147408038Y-98204944D01*
X147529944Y-98083038D01*
X147529947Y-98083034D01*
X147620448Y-97936311D01*
X147620453Y-97936300D01*
X147674680Y-97772652D01*
X147684999Y-97671654D01*
X147685000Y-97671641D01*
X147685000Y-97622500D01*
X146960000Y-97622500D01*
X146960000Y-98359999D01*
X146460000Y-98359999D01*
X146460000Y-97496500D01*
X146479685Y-97429461D01*
X146532489Y-97383706D01*
X146584000Y-97372500D01*
X146710000Y-97372500D01*
X146710000Y-97246500D01*
X146729685Y-97179461D01*
X146782489Y-97133706D01*
X146834000Y-97122500D01*
X147684999Y-97122500D01*
X147684999Y-97073360D01*
X147684998Y-97073345D01*
X147674680Y-96972347D01*
X147663397Y-96938295D01*
X147663025Y-96927499D01*
X147658477Y-96917701D01*
X147661845Y-96893190D01*
X147660995Y-96868466D01*
X147666519Y-96859183D01*
X147667990Y-96848482D01*
X147684075Y-96829683D01*
X147696727Y-96808425D01*
X147706391Y-96803603D01*
X147713416Y-96795394D01*
X147737112Y-96788275D01*
X147759248Y-96777232D01*
X147769985Y-96778400D01*
X147780332Y-96775293D01*
X147804113Y-96782115D01*
X147828707Y-96784793D01*
X147838878Y-96792089D01*
X147847492Y-96794561D01*
X147868723Y-96813500D01*
X147874309Y-96817507D01*
X147919704Y-96869242D01*
X147919719Y-96869275D01*
X147920172Y-96869779D01*
X147923894Y-96874071D01*
X147923906Y-96874083D01*
X147925910Y-96876088D01*
X147925914Y-96876091D01*
X147930207Y-96879815D01*
X147933480Y-96882757D01*
X147959013Y-96906542D01*
X147960093Y-96907479D01*
X147988015Y-96930011D01*
X147991999Y-96932999D01*
X148013159Y-96948035D01*
X148014050Y-96948634D01*
X148036060Y-96962624D01*
X148046658Y-96968981D01*
X148046666Y-96968986D01*
X148067098Y-96981244D01*
X148067099Y-96981245D01*
X148070156Y-96983079D01*
X148078693Y-96986634D01*
X148088687Y-96991631D01*
X148107350Y-97000490D01*
X148108061Y-97000810D01*
X148118972Y-97005444D01*
X148172982Y-97049768D01*
X148194456Y-97116256D01*
X148194500Y-97119578D01*
X148194500Y-98165000D01*
X148194770Y-98170464D01*
X148194964Y-98172425D01*
X148195501Y-98176030D01*
X148195770Y-98181464D01*
X148195964Y-98183425D01*
X148196772Y-98188845D01*
X148198772Y-98198845D01*
X148199994Y-98203772D01*
X148200515Y-98205525D01*
X148202185Y-98210326D01*
X148208185Y-98225326D01*
X148209101Y-98227484D01*
X148209442Y-98228242D01*
X148210415Y-98230292D01*
X148211197Y-98231856D01*
X148212185Y-98234326D01*
X148214596Y-98239366D01*
X148214597Y-98239367D01*
X148215335Y-98240910D01*
X148216615Y-98243187D01*
X148216628Y-98243207D01*
X148221717Y-98251013D01*
X148221710Y-98251017D01*
X148222867Y-98252752D01*
X148224366Y-98255110D01*
X148224951Y-98255980D01*
X148226574Y-98258264D01*
X148226600Y-98258300D01*
X148229600Y-98262300D01*
X148229614Y-98262317D01*
X148229616Y-98262320D01*
X148232072Y-98265364D01*
X148232993Y-98266426D01*
X148233001Y-98266435D01*
X148233004Y-98266438D01*
X148235685Y-98269315D01*
X148236390Y-98270020D01*
X148236600Y-98270300D01*
X148241756Y-98276244D01*
X148243756Y-98278244D01*
X148249700Y-98283400D01*
X148249980Y-98283610D01*
X148250685Y-98284315D01*
X148252944Y-98286420D01*
X148253573Y-98287006D01*
X148254635Y-98287927D01*
X148256157Y-98289155D01*
X148257700Y-98290400D01*
X148261700Y-98293400D01*
X148262691Y-98294104D01*
X148264019Y-98295048D01*
X148264028Y-98295054D01*
X148264883Y-98295629D01*
X148267304Y-98297168D01*
X148269403Y-98298427D01*
X148270696Y-98299397D01*
X148276805Y-98303380D01*
X148279091Y-98304665D01*
X148285674Y-98307815D01*
X148288144Y-98308803D01*
X148289708Y-98309585D01*
X148291758Y-98310558D01*
X148292516Y-98310899D01*
X148293562Y-98311343D01*
X148293564Y-98311344D01*
X148294668Y-98311813D01*
X148304664Y-98315811D01*
X148309674Y-98317815D01*
X148314475Y-98319485D01*
X148316228Y-98320006D01*
X148321155Y-98321228D01*
X148331155Y-98323228D01*
X148331170Y-98323230D01*
X148331174Y-98323231D01*
X148332166Y-98323378D01*
X148336575Y-98324036D01*
X148338536Y-98324230D01*
X148338546Y-98324230D01*
X148340063Y-98324343D01*
X148340060Y-98324377D01*
X148346038Y-98324894D01*
X148346039Y-98324885D01*
X148346819Y-98324962D01*
X148347361Y-98325009D01*
X148347546Y-98325031D01*
X148347575Y-98325036D01*
X148347607Y-98325039D01*
X148347622Y-98325041D01*
X148349512Y-98325228D01*
X148349521Y-98325229D01*
X148349530Y-98325229D01*
X148349536Y-98325230D01*
X148355000Y-98325500D01*
X148355018Y-98325500D01*
X148677875Y-98325500D01*
X148733856Y-98340500D01*
X148826144Y-98340500D01*
X148882125Y-98325500D01*
X149161550Y-98325500D01*
X149193642Y-98329724D01*
X149233856Y-98340500D01*
X149233858Y-98340500D01*
X149326142Y-98340500D01*
X149326144Y-98340500D01*
X149366357Y-98329724D01*
X149398450Y-98325500D01*
X149677875Y-98325500D01*
X149733856Y-98340500D01*
X149826144Y-98340500D01*
X149882125Y-98325500D01*
X150315000Y-98325500D01*
X150320464Y-98325230D01*
X150322425Y-98325036D01*
X150326030Y-98324498D01*
X150331464Y-98324230D01*
X150333425Y-98324036D01*
X150338845Y-98323228D01*
X150348845Y-98321228D01*
X150353772Y-98320006D01*
X150355525Y-98319485D01*
X150360326Y-98317815D01*
X150375326Y-98311815D01*
X150377484Y-98310899D01*
X150378242Y-98310558D01*
X150380292Y-98309585D01*
X150381856Y-98308803D01*
X150384326Y-98307815D01*
X150390909Y-98304665D01*
X150393195Y-98303380D01*
X150399304Y-98299397D01*
X150399303Y-98299397D01*
X150401022Y-98298277D01*
X150401027Y-98298284D01*
X150402750Y-98297133D01*
X150405117Y-98295629D01*
X150405972Y-98295054D01*
X150408300Y-98293400D01*
X150412300Y-98290400D01*
X150415367Y-98287925D01*
X150416438Y-98286996D01*
X150419315Y-98284315D01*
X150420020Y-98283610D01*
X150420300Y-98283400D01*
X150426244Y-98278244D01*
X150428244Y-98276244D01*
X150433400Y-98270300D01*
X150433610Y-98270020D01*
X150434315Y-98269315D01*
X150436996Y-98266438D01*
X150437031Y-98266397D01*
X150437877Y-98265490D01*
X150497975Y-98229853D01*
X150567800Y-98232364D01*
X150597499Y-98246905D01*
X150648189Y-98280775D01*
X150648191Y-98280776D01*
X150648195Y-98280778D01*
X150756165Y-98325500D01*
X150775672Y-98333580D01*
X150775676Y-98333580D01*
X150775677Y-98333581D01*
X150911004Y-98360500D01*
X150911007Y-98360500D01*
X151548995Y-98360500D01*
X151670598Y-98336311D01*
X151684328Y-98333580D01*
X151793395Y-98288403D01*
X151811804Y-98280778D01*
X151811804Y-98280777D01*
X151811811Y-98280775D01*
X151878475Y-98236231D01*
X151945151Y-98215354D01*
X152012531Y-98233838D01*
X152038669Y-98259058D01*
X152039464Y-98258264D01*
X152048098Y-98266898D01*
X152048099Y-98266898D01*
X152048100Y-98266900D01*
X152099784Y-98301434D01*
X152099787Y-98301434D01*
X152099788Y-98301435D01*
X152109587Y-98303384D01*
X152145361Y-98310500D01*
X152434638Y-98310499D01*
X152480216Y-98301434D01*
X152531900Y-98266900D01*
X152566434Y-98215216D01*
X152575500Y-98169639D01*
X152575499Y-97474498D01*
X152595183Y-97407460D01*
X152647987Y-97361705D01*
X152699499Y-97350499D01*
X153035199Y-97350499D01*
X153102238Y-97370184D01*
X153104090Y-97371397D01*
X153220814Y-97449390D01*
X153220827Y-97449397D01*
X153357061Y-97505826D01*
X153366503Y-97509737D01*
X153521153Y-97540499D01*
X153521156Y-97540500D01*
X153521158Y-97540500D01*
X153678844Y-97540500D01*
X153678845Y-97540499D01*
X153833497Y-97509737D01*
X153979179Y-97449394D01*
X154110289Y-97361789D01*
X154221789Y-97250289D01*
X154281262Y-97161280D01*
X154334874Y-97116476D01*
X154404198Y-97107769D01*
X154467226Y-97137923D01*
X154502295Y-97191853D01*
X154547454Y-97330836D01*
X154620655Y-97474499D01*
X154633240Y-97499199D01*
X154744310Y-97652073D01*
X154877927Y-97785690D01*
X155030801Y-97896760D01*
X155042045Y-97902489D01*
X155046569Y-97904794D01*
X155097366Y-97952767D01*
X155114163Y-98020588D01*
X155091627Y-98086723D01*
X155046578Y-98125762D01*
X155031061Y-98133669D01*
X155005670Y-98152116D01*
X155005669Y-98152116D01*
X155571415Y-98717861D01*
X155486306Y-98740667D01*
X155383694Y-98799910D01*
X155299910Y-98883694D01*
X155240667Y-98986306D01*
X155217861Y-99071414D01*
X154652116Y-98505669D01*
X154652116Y-98505670D01*
X154633669Y-98531060D01*
X154547914Y-98699362D01*
X154489548Y-98878997D01*
X154460000Y-99065552D01*
X154460000Y-99254447D01*
X154489548Y-99441002D01*
X154547914Y-99620637D01*
X154633666Y-99788933D01*
X154652116Y-99814328D01*
X155217861Y-99248584D01*
X155240667Y-99333694D01*
X155299910Y-99436306D01*
X155383694Y-99520090D01*
X155486306Y-99579333D01*
X155571415Y-99602138D01*
X155005669Y-100167882D01*
X155005670Y-100167883D01*
X155031059Y-100186329D01*
X155199362Y-100272085D01*
X155378997Y-100330451D01*
X155565553Y-100360000D01*
X155754447Y-100360000D01*
X155941002Y-100330451D01*
X156120637Y-100272085D01*
X156288937Y-100186331D01*
X156314328Y-100167883D01*
X156314328Y-100167882D01*
X155748584Y-99602138D01*
X155833694Y-99579333D01*
X155936306Y-99520090D01*
X156020090Y-99436306D01*
X156079333Y-99333694D01*
X156102138Y-99248584D01*
X156667882Y-99814328D01*
X156667883Y-99814328D01*
X156686331Y-99788937D01*
X156772085Y-99620637D01*
X156830451Y-99441002D01*
X156844058Y-99355100D01*
X156873988Y-99291966D01*
X156933299Y-99255035D01*
X156966525Y-99250499D01*
X157600008Y-99250499D01*
X157702797Y-99239999D01*
X157869334Y-99184814D01*
X158018656Y-99092712D01*
X158112319Y-98999049D01*
X158173642Y-98965564D01*
X158243334Y-98970548D01*
X158287681Y-98999049D01*
X158381344Y-99092712D01*
X158530666Y-99184814D01*
X158697203Y-99239999D01*
X158799991Y-99250500D01*
X159600008Y-99250499D01*
X159600016Y-99250498D01*
X159600019Y-99250498D01*
X159656302Y-99244748D01*
X159702797Y-99239999D01*
X159869334Y-99184814D01*
X160018656Y-99092712D01*
X160142712Y-98968656D01*
X160142715Y-98968650D01*
X160147193Y-98962989D01*
X160149485Y-98964801D01*
X160191503Y-98926952D01*
X160220986Y-98917117D01*
X160224567Y-98916404D01*
X160333497Y-98894737D01*
X160479179Y-98834394D01*
X160610289Y-98746789D01*
X160721789Y-98635289D01*
X160789713Y-98533634D01*
X163024500Y-98533634D01*
X163024500Y-98766365D01*
X163024501Y-98766382D01*
X163053454Y-98986306D01*
X163054879Y-98997126D01*
X163108471Y-99197135D01*
X163115120Y-99221947D01*
X163204180Y-99436960D01*
X163204188Y-99436976D01*
X163320553Y-99638524D01*
X163320564Y-99638540D01*
X163462242Y-99823179D01*
X163462248Y-99823186D01*
X163626813Y-99987751D01*
X163626819Y-99987756D01*
X163811468Y-100129442D01*
X163811475Y-100129446D01*
X164013023Y-100245811D01*
X164013039Y-100245819D01*
X164228052Y-100334879D01*
X164228054Y-100334879D01*
X164228060Y-100334882D01*
X164452874Y-100395121D01*
X164683628Y-100425500D01*
X164683635Y-100425500D01*
X164916365Y-100425500D01*
X164916372Y-100425500D01*
X165147126Y-100395121D01*
X165371940Y-100334882D01*
X165523547Y-100272085D01*
X165586960Y-100245819D01*
X165586963Y-100245817D01*
X165586969Y-100245815D01*
X165788532Y-100129442D01*
X165973181Y-99987756D01*
X166137756Y-99823181D01*
X166279442Y-99638532D01*
X166395815Y-99436969D01*
X166438593Y-99333694D01*
X166484879Y-99221947D01*
X166484878Y-99221947D01*
X166484882Y-99221940D01*
X166545121Y-98997126D01*
X166575500Y-98766372D01*
X166575500Y-98533628D01*
X166545121Y-98302874D01*
X166484882Y-98078060D01*
X166481751Y-98070500D01*
X166395819Y-97863039D01*
X166395811Y-97863023D01*
X166279446Y-97661475D01*
X166279442Y-97661468D01*
X166148252Y-97490498D01*
X166137757Y-97476820D01*
X166137751Y-97476813D01*
X165973186Y-97312248D01*
X165973179Y-97312242D01*
X165788540Y-97170564D01*
X165788538Y-97170562D01*
X165788532Y-97170558D01*
X165788527Y-97170555D01*
X165788524Y-97170553D01*
X165586976Y-97054188D01*
X165586960Y-97054180D01*
X165371947Y-96965120D01*
X165369562Y-96964481D01*
X165147126Y-96904879D01*
X165147125Y-96904878D01*
X165147122Y-96904878D01*
X164916382Y-96874501D01*
X164916377Y-96874500D01*
X164916372Y-96874500D01*
X164683628Y-96874500D01*
X164683622Y-96874500D01*
X164683617Y-96874501D01*
X164452877Y-96904878D01*
X164228052Y-96965120D01*
X164013039Y-97054180D01*
X164013023Y-97054188D01*
X163811475Y-97170553D01*
X163811459Y-97170564D01*
X163626820Y-97312242D01*
X163626813Y-97312248D01*
X163462248Y-97476813D01*
X163462242Y-97476820D01*
X163320564Y-97661459D01*
X163320553Y-97661475D01*
X163204188Y-97863023D01*
X163204180Y-97863039D01*
X163115120Y-98078052D01*
X163054878Y-98302877D01*
X163024501Y-98533617D01*
X163024500Y-98533634D01*
X160789713Y-98533634D01*
X160809394Y-98504179D01*
X160818152Y-98483036D01*
X160818533Y-98482116D01*
X160818533Y-98482115D01*
X160869737Y-98358497D01*
X160900500Y-98203842D01*
X160900500Y-98046158D01*
X160900500Y-98046155D01*
X160900499Y-98046153D01*
X160891270Y-97999757D01*
X160869737Y-97891503D01*
X160869735Y-97891498D01*
X160809397Y-97745827D01*
X160809390Y-97745814D01*
X160721789Y-97614711D01*
X160721786Y-97614707D01*
X160610292Y-97503213D01*
X160610288Y-97503210D01*
X160479185Y-97415609D01*
X160479172Y-97415602D01*
X160333501Y-97355264D01*
X160333495Y-97355262D01*
X160324695Y-97353512D01*
X160294290Y-97337606D01*
X160263729Y-97322026D01*
X160263257Y-97321371D01*
X160262785Y-97321125D01*
X160241786Y-97294382D01*
X160236168Y-97284753D01*
X160234814Y-97280666D01*
X160215773Y-97249796D01*
X160215012Y-97248491D01*
X160206976Y-97216012D01*
X160198137Y-97183710D01*
X160198610Y-97182201D01*
X160198231Y-97180667D01*
X160209033Y-97148991D01*
X160219059Y-97117046D01*
X160220272Y-97116032D01*
X160220783Y-97114537D01*
X160246997Y-97093727D01*
X160272700Y-97072276D01*
X160274273Y-97072076D01*
X160275507Y-97071097D01*
X160305962Y-97068048D01*
X160341514Y-97063531D01*
X160385514Y-97070500D01*
X160385519Y-97070500D01*
X160574486Y-97070500D01*
X160761118Y-97040940D01*
X160766396Y-97039225D01*
X160940832Y-96982547D01*
X161109199Y-96896760D01*
X161262073Y-96785690D01*
X161395690Y-96652073D01*
X161506760Y-96499199D01*
X161592547Y-96330832D01*
X161650940Y-96151118D01*
X161661679Y-96083313D01*
X161663967Y-96068869D01*
X161693896Y-96005734D01*
X161753208Y-95968803D01*
X161823070Y-95969801D01*
X161824758Y-95970336D01*
X161978998Y-96020452D01*
X162165553Y-96050000D01*
X162354447Y-96050000D01*
X162541002Y-96020451D01*
X162720637Y-95962085D01*
X162888937Y-95876331D01*
X162914328Y-95857883D01*
X162914328Y-95857882D01*
X162348584Y-95292138D01*
X162433694Y-95269333D01*
X162536306Y-95210090D01*
X162620090Y-95126306D01*
X162679333Y-95023694D01*
X162702138Y-94938584D01*
X163267882Y-95504328D01*
X163267883Y-95504328D01*
X163286331Y-95478937D01*
X163372085Y-95310637D01*
X163430451Y-95131002D01*
X163460000Y-94944447D01*
X163460000Y-94842070D01*
X163479685Y-94775031D01*
X163532489Y-94729276D01*
X163601647Y-94719332D01*
X163635508Y-94729274D01*
X163702393Y-94759820D01*
X163757581Y-94785024D01*
X163757582Y-94785024D01*
X163757584Y-94785025D01*
X163900000Y-94805501D01*
X163900003Y-94805501D01*
X165400000Y-94805501D01*
X165471940Y-94800356D01*
X165609992Y-94759820D01*
X165731032Y-94682032D01*
X165825254Y-94573295D01*
X165877360Y-94459199D01*
X165885023Y-94442420D01*
X165885024Y-94442415D01*
X165905500Y-94300001D01*
X165905500Y-93734175D01*
X165888275Y-93603339D01*
X165854200Y-93476172D01*
X165803701Y-93354258D01*
X165803698Y-93354253D01*
X165803697Y-93354250D01*
X165803696Y-93354249D01*
X165737879Y-93240251D01*
X165737875Y-93240244D01*
X165731887Y-93232441D01*
X165657544Y-93135556D01*
X165657541Y-93135552D01*
X165564449Y-93042460D01*
X165558637Y-93038000D01*
X165459767Y-92962133D01*
X165459749Y-92962121D01*
X165345751Y-92896304D01*
X165345750Y-92896303D01*
X165345542Y-92896217D01*
X165223829Y-92845801D01*
X165096662Y-92811726D01*
X165096661Y-92811725D01*
X165096658Y-92811725D01*
X164965833Y-92794501D01*
X164965826Y-92794501D01*
X164334174Y-92794501D01*
X164334166Y-92794501D01*
X164203341Y-92811725D01*
X164076170Y-92845801D01*
X163954249Y-92896303D01*
X163954248Y-92896304D01*
X163840250Y-92962121D01*
X163840232Y-92962133D01*
X163735555Y-93042456D01*
X163652626Y-93125385D01*
X163591302Y-93158869D01*
X163521611Y-93153885D01*
X163465677Y-93112013D01*
X163441261Y-93046548D01*
X163442472Y-93018304D01*
X163444880Y-93003106D01*
X163454636Y-92941507D01*
X163460500Y-92904485D01*
X163460500Y-92715513D01*
X163435274Y-92556246D01*
X163444228Y-92486953D01*
X163470063Y-92449170D01*
X164259506Y-91659728D01*
X164259511Y-91659724D01*
X164269714Y-91649520D01*
X164269716Y-91649520D01*
X164381520Y-91537716D01*
X164460577Y-91400784D01*
X164501500Y-91248057D01*
X164501500Y-91080629D01*
X164521185Y-91013590D01*
X164573989Y-90967835D01*
X164643147Y-90957891D01*
X164706703Y-90986916D01*
X164744477Y-91045694D01*
X164749405Y-91075766D01*
X164749500Y-91078201D01*
X164752401Y-91115067D01*
X164752402Y-91115073D01*
X164798254Y-91272893D01*
X164798255Y-91272896D01*
X164798256Y-91272898D01*
X164826313Y-91320340D01*
X164881917Y-91414362D01*
X164881923Y-91414370D01*
X164998129Y-91530576D01*
X164998133Y-91530579D01*
X164998135Y-91530581D01*
X165139602Y-91614244D01*
X165156867Y-91619260D01*
X165297426Y-91660097D01*
X165297429Y-91660097D01*
X165297431Y-91660098D01*
X165334306Y-91663000D01*
X165334314Y-91663000D01*
X166640686Y-91663000D01*
X166640694Y-91663000D01*
X166677569Y-91660098D01*
X166677571Y-91660097D01*
X166677573Y-91660097D01*
X166757072Y-91637000D01*
X166835398Y-91614244D01*
X166976865Y-91530581D01*
X167010660Y-91496786D01*
X167050319Y-91457128D01*
X167111642Y-91423643D01*
X167181334Y-91428627D01*
X167237267Y-91470499D01*
X167261684Y-91535963D01*
X167262000Y-91544809D01*
X167262000Y-92405450D01*
X167242315Y-92472489D01*
X167189511Y-92518244D01*
X167185452Y-92520011D01*
X167069697Y-92567957D01*
X167069684Y-92567964D01*
X166938581Y-92655565D01*
X166938577Y-92655568D01*
X166827083Y-92767062D01*
X166827080Y-92767066D01*
X166739479Y-92898169D01*
X166739472Y-92898182D01*
X166679134Y-93043853D01*
X166679131Y-93043865D01*
X166648370Y-93198508D01*
X166648370Y-93356201D01*
X166679131Y-93510844D01*
X166679134Y-93510856D01*
X166739472Y-93656527D01*
X166739479Y-93656540D01*
X166827080Y-93787643D01*
X166827083Y-93787647D01*
X166938577Y-93899141D01*
X166938581Y-93899144D01*
X167069684Y-93986745D01*
X167069697Y-93986752D01*
X167215368Y-94047090D01*
X167215373Y-94047092D01*
X167370023Y-94077854D01*
X167370026Y-94077855D01*
X167370028Y-94077855D01*
X167527714Y-94077855D01*
X167527715Y-94077854D01*
X167682367Y-94047092D01*
X167828049Y-93986749D01*
X167959159Y-93899144D01*
X168070659Y-93787644D01*
X168158264Y-93656534D01*
X168218607Y-93510852D01*
X168249370Y-93356197D01*
X168249370Y-93356195D01*
X168249507Y-93355507D01*
X168281891Y-93293596D01*
X168283332Y-93292128D01*
X168343020Y-93232441D01*
X168347798Y-93224165D01*
X168412555Y-93112003D01*
X168412556Y-93112000D01*
X168422077Y-93095510D01*
X168463000Y-92942782D01*
X168463000Y-92784668D01*
X168463000Y-90829222D01*
X168482685Y-90762183D01*
X168535489Y-90716428D01*
X168552405Y-90710146D01*
X168625897Y-90688794D01*
X168710398Y-90664244D01*
X168851865Y-90580581D01*
X168968081Y-90464365D01*
X169051744Y-90322898D01*
X169097598Y-90165069D01*
X169100500Y-90128194D01*
X169100500Y-89696806D01*
X169097598Y-89659931D01*
X169097196Y-89658549D01*
X169053415Y-89507853D01*
X169051744Y-89502102D01*
X168968081Y-89360635D01*
X168968079Y-89360633D01*
X168968076Y-89360629D01*
X168851870Y-89244423D01*
X168851862Y-89244417D01*
X168742625Y-89179815D01*
X168710398Y-89160756D01*
X168710397Y-89160755D01*
X168710396Y-89160755D01*
X168710393Y-89160754D01*
X168552573Y-89114902D01*
X168552567Y-89114901D01*
X168515701Y-89112000D01*
X168515694Y-89112000D01*
X167349500Y-89112000D01*
X167282461Y-89092315D01*
X167236706Y-89039511D01*
X167225500Y-88988000D01*
X167225500Y-88746813D01*
X167225499Y-88746798D01*
X167225488Y-88746662D01*
X167222598Y-88709931D01*
X167219567Y-88699500D01*
X167176745Y-88552106D01*
X167176744Y-88552103D01*
X167176744Y-88552102D01*
X167093081Y-88410635D01*
X167093079Y-88410633D01*
X167093076Y-88410629D01*
X166976870Y-88294423D01*
X166976861Y-88294416D01*
X166841134Y-88214148D01*
X166793451Y-88163079D01*
X166782656Y-88104934D01*
X166780500Y-88104934D01*
X166780500Y-87941155D01*
X166780499Y-87941153D01*
X166761714Y-87846715D01*
X166749737Y-87786503D01*
X166726333Y-87730000D01*
X166689397Y-87640827D01*
X166689390Y-87640814D01*
X166601789Y-87509711D01*
X166601786Y-87509707D01*
X166490292Y-87398213D01*
X166490288Y-87398210D01*
X166359185Y-87310609D01*
X166359176Y-87310604D01*
X166231327Y-87257648D01*
X166176924Y-87213807D01*
X166154859Y-87147513D01*
X166172138Y-87079814D01*
X166180404Y-87067601D01*
X166203492Y-87037512D01*
X166279442Y-86938532D01*
X166395815Y-86736969D01*
X166406631Y-86710858D01*
X166468910Y-86560500D01*
X166484882Y-86521940D01*
X166545121Y-86297126D01*
X166575500Y-86066372D01*
X166575500Y-85833628D01*
X166545121Y-85602874D01*
X166484882Y-85378060D01*
X166484879Y-85378052D01*
X166395819Y-85163039D01*
X166395811Y-85163023D01*
X166279446Y-84961475D01*
X166279442Y-84961468D01*
X166150403Y-84793301D01*
X166137757Y-84776820D01*
X166137751Y-84776813D01*
X165973186Y-84612248D01*
X165973179Y-84612242D01*
X165788540Y-84470564D01*
X165788538Y-84470562D01*
X165788532Y-84470558D01*
X165788527Y-84470555D01*
X165788524Y-84470553D01*
X165586976Y-84354188D01*
X165586960Y-84354180D01*
X165371947Y-84265120D01*
X165297280Y-84245113D01*
X165147126Y-84204879D01*
X165147125Y-84204878D01*
X165147122Y-84204878D01*
X164916382Y-84174501D01*
X164916377Y-84174500D01*
X164916372Y-84174500D01*
X164683628Y-84174500D01*
X164683622Y-84174500D01*
X164683617Y-84174501D01*
X164452877Y-84204878D01*
X164228052Y-84265120D01*
X164013039Y-84354180D01*
X164013023Y-84354188D01*
X163811475Y-84470553D01*
X163811459Y-84470564D01*
X163626820Y-84612242D01*
X163626813Y-84612248D01*
X163462248Y-84776813D01*
X163462242Y-84776820D01*
X163320564Y-84961459D01*
X163320553Y-84961475D01*
X163204188Y-85163023D01*
X163204180Y-85163039D01*
X163115120Y-85378052D01*
X163054878Y-85602877D01*
X163024501Y-85833617D01*
X163024500Y-85833634D01*
X163024500Y-86066365D01*
X163024501Y-86066382D01*
X163054878Y-86297124D01*
X163110152Y-86503407D01*
X163108489Y-86573256D01*
X163069327Y-86631119D01*
X163005098Y-86658623D01*
X162990377Y-86659500D01*
X161617703Y-86659500D01*
X161550664Y-86639815D01*
X161504909Y-86587011D01*
X161494965Y-86517853D01*
X161496086Y-86511309D01*
X161510499Y-86438846D01*
X161510500Y-86438844D01*
X161510500Y-86281155D01*
X161510499Y-86281153D01*
X161504256Y-86249767D01*
X161479737Y-86126503D01*
X161478759Y-86124142D01*
X161419397Y-85980827D01*
X161419390Y-85980814D01*
X161331789Y-85849711D01*
X161331786Y-85849707D01*
X161220292Y-85738213D01*
X161220288Y-85738210D01*
X161089185Y-85650609D01*
X161089172Y-85650602D01*
X160943501Y-85590264D01*
X160943489Y-85590261D01*
X160788845Y-85559500D01*
X160788842Y-85559500D01*
X160663791Y-85559500D01*
X160596752Y-85539815D01*
X160558793Y-85501465D01*
X160550808Y-85488755D01*
X160544814Y-85470666D01*
X160452712Y-85321344D01*
X160433666Y-85302298D01*
X160426232Y-85290465D01*
X160420380Y-85269750D01*
X160410064Y-85250858D01*
X160411069Y-85236794D01*
X160407237Y-85223227D01*
X160413512Y-85202638D01*
X160415048Y-85181166D01*
X160423497Y-85169879D01*
X160427608Y-85156393D01*
X160444020Y-85142463D01*
X160456920Y-85125233D01*
X160470129Y-85120306D01*
X160480879Y-85111183D01*
X160502215Y-85108338D01*
X160522384Y-85100816D01*
X160531230Y-85100500D01*
X162178693Y-85100500D01*
X162178694Y-85100499D01*
X162236682Y-85088964D01*
X162352658Y-85065896D01*
X162352661Y-85065894D01*
X162352666Y-85065894D01*
X162516547Y-84998013D01*
X162664035Y-84899464D01*
X162789464Y-84774035D01*
X162888013Y-84626547D01*
X162955894Y-84462666D01*
X162961225Y-84435869D01*
X162990499Y-84288695D01*
X162990500Y-84288693D01*
X162990500Y-84111306D01*
X162990499Y-84111304D01*
X162958154Y-83948691D01*
X162964381Y-83879100D01*
X163007244Y-83823922D01*
X163073134Y-83800678D01*
X163079771Y-83800500D01*
X169725500Y-83800500D01*
X169792539Y-83820185D01*
G37*
%TD.AperFunction*%
%TA.AperFunction,Conductor*%
G36*
X151352467Y-95772053D02*
G01*
X151368223Y-95785381D01*
X151613740Y-96030898D01*
X151647225Y-96092221D01*
X151644339Y-96132575D01*
X151589837Y-96110000D01*
X151530163Y-96110000D01*
X151475032Y-96132836D01*
X151432836Y-96175032D01*
X151410000Y-96230163D01*
X151410000Y-96289837D01*
X151432836Y-96344968D01*
X151475032Y-96387164D01*
X151530163Y-96410000D01*
X151589837Y-96410000D01*
X151644968Y-96387164D01*
X151646466Y-96385665D01*
X151642241Y-96444755D01*
X151613740Y-96489102D01*
X151202203Y-96900638D01*
X151140880Y-96934123D01*
X151114522Y-96936957D01*
X151005477Y-96936957D01*
X150984221Y-96930715D01*
X150962125Y-96929132D01*
X150948077Y-96920102D01*
X150938438Y-96917272D01*
X150931855Y-96909675D01*
X150917796Y-96900638D01*
X150560001Y-96542842D01*
X150559999Y-96542842D01*
X150518174Y-96584666D01*
X150456851Y-96618151D01*
X150398102Y-96616678D01*
X150388005Y-96613945D01*
X150384326Y-96612185D01*
X150381856Y-96611197D01*
X150380292Y-96610415D01*
X150378242Y-96609442D01*
X150377484Y-96609101D01*
X150375326Y-96608185D01*
X150360326Y-96602185D01*
X150355525Y-96600515D01*
X150353772Y-96599994D01*
X150348845Y-96598772D01*
X150338845Y-96596772D01*
X150333425Y-96595964D01*
X150331464Y-96595770D01*
X150326030Y-96595501D01*
X150322425Y-96594964D01*
X150320464Y-96594770D01*
X150315000Y-96594500D01*
X150242021Y-96594500D01*
X150174982Y-96574815D01*
X150129227Y-96522011D01*
X150119283Y-96452853D01*
X150132720Y-96423429D01*
X150127158Y-96410000D01*
X149992842Y-96410000D01*
X149989653Y-96417697D01*
X149990773Y-96418989D01*
X149992689Y-96432320D01*
X149999145Y-96444142D01*
X149997565Y-96466228D01*
X150000717Y-96488147D01*
X149995121Y-96500398D01*
X149994161Y-96513834D01*
X149980890Y-96531560D01*
X149971692Y-96551703D01*
X149960360Y-96558985D01*
X149952289Y-96569767D01*
X149931543Y-96577504D01*
X149912914Y-96589477D01*
X149890995Y-96592628D01*
X149886825Y-96594184D01*
X149877979Y-96594500D01*
X149663020Y-96594500D01*
X149595981Y-96574815D01*
X149575339Y-96558181D01*
X149560000Y-96542842D01*
X149544661Y-96558181D01*
X149483338Y-96591666D01*
X149456980Y-96594500D01*
X149242021Y-96594500D01*
X149174982Y-96574815D01*
X149129227Y-96522011D01*
X149119283Y-96452853D01*
X149132720Y-96423429D01*
X149127158Y-96410000D01*
X148992842Y-96410000D01*
X148989653Y-96417697D01*
X148990773Y-96418989D01*
X148992689Y-96432320D01*
X148999145Y-96444142D01*
X148997565Y-96466228D01*
X149000717Y-96488147D01*
X148995121Y-96500398D01*
X148994161Y-96513834D01*
X148980890Y-96531560D01*
X148971692Y-96551703D01*
X148960360Y-96558985D01*
X148952289Y-96569767D01*
X148931543Y-96577504D01*
X148912914Y-96589477D01*
X148890995Y-96592628D01*
X148886825Y-96594184D01*
X148877979Y-96594500D01*
X148663020Y-96594500D01*
X148595981Y-96574815D01*
X148575339Y-96558181D01*
X148427158Y-96410000D01*
X147745000Y-96410000D01*
X147745000Y-96445032D01*
X147747451Y-96494691D01*
X147747455Y-96494747D01*
X147747534Y-96495542D01*
X147761552Y-96583152D01*
X147757764Y-96612824D01*
X147756494Y-96642701D01*
X147753388Y-96647109D01*
X147752706Y-96652459D01*
X147733480Y-96675370D01*
X147716257Y-96699821D01*
X147711260Y-96701850D01*
X147707794Y-96705982D01*
X147679237Y-96714861D01*
X147651525Y-96726120D01*
X147646223Y-96725126D01*
X147641075Y-96726727D01*
X147612253Y-96718758D01*
X147582852Y-96713247D01*
X147578793Y-96709507D01*
X147573732Y-96708108D01*
X147557108Y-96689526D01*
X147533570Y-96667839D01*
X147529945Y-96661962D01*
X147416017Y-96548034D01*
X147382532Y-96486711D01*
X147387516Y-96417019D01*
X147416013Y-96372676D01*
X147530340Y-96258350D01*
X147547726Y-96230163D01*
X148410000Y-96230163D01*
X148410000Y-96289837D01*
X148432836Y-96344968D01*
X148475032Y-96387164D01*
X148530163Y-96410000D01*
X148589837Y-96410000D01*
X148644968Y-96387164D01*
X148687164Y-96344968D01*
X148710000Y-96289837D01*
X148710000Y-96230163D01*
X149410000Y-96230163D01*
X149410000Y-96289837D01*
X149432836Y-96344968D01*
X149475032Y-96387164D01*
X149530163Y-96410000D01*
X149589837Y-96410000D01*
X149644968Y-96387164D01*
X149687164Y-96344968D01*
X149710000Y-96289837D01*
X149710000Y-96230163D01*
X150410000Y-96230163D01*
X150410000Y-96289837D01*
X150432836Y-96344968D01*
X150475032Y-96387164D01*
X150530163Y-96410000D01*
X150589837Y-96410000D01*
X150644968Y-96387164D01*
X150687164Y-96344968D01*
X150710000Y-96289837D01*
X150710000Y-96259999D01*
X150842842Y-96259999D01*
X151060000Y-96477157D01*
X151277157Y-96260001D01*
X151277157Y-96260000D01*
X151059999Y-96042842D01*
X150842842Y-96259999D01*
X150710000Y-96259999D01*
X150710000Y-96230163D01*
X150687164Y-96175032D01*
X150644968Y-96132836D01*
X150589837Y-96110000D01*
X150530163Y-96110000D01*
X150475032Y-96132836D01*
X150432836Y-96175032D01*
X150410000Y-96230163D01*
X149710000Y-96230163D01*
X149687164Y-96175032D01*
X149644968Y-96132836D01*
X149589837Y-96110000D01*
X149530163Y-96110000D01*
X149475032Y-96132836D01*
X149432836Y-96175032D01*
X149410000Y-96230163D01*
X148710000Y-96230163D01*
X148687164Y-96175032D01*
X148644968Y-96132836D01*
X148589837Y-96110000D01*
X148530163Y-96110000D01*
X148475032Y-96132836D01*
X148432836Y-96175032D01*
X148410000Y-96230163D01*
X147547726Y-96230163D01*
X147586498Y-96167302D01*
X147638446Y-96120578D01*
X147693638Y-96111595D01*
X147693638Y-96110000D01*
X147703445Y-96110000D01*
X147707408Y-96109355D01*
X147708892Y-96110000D01*
X148427158Y-96110000D01*
X148427158Y-96109999D01*
X148575339Y-95961819D01*
X148602266Y-95947115D01*
X148628085Y-95930523D01*
X148634285Y-95929631D01*
X148636662Y-95928334D01*
X148663020Y-95925500D01*
X148877979Y-95925500D01*
X148945018Y-95945185D01*
X148990773Y-95997989D01*
X149000717Y-96067147D01*
X148987279Y-96096570D01*
X148992842Y-96110000D01*
X149127158Y-96110000D01*
X149130346Y-96102302D01*
X149129227Y-96101011D01*
X149127310Y-96087679D01*
X149120855Y-96075858D01*
X149122434Y-96053771D01*
X149119283Y-96031853D01*
X149124878Y-96019601D01*
X149125839Y-96006166D01*
X149139109Y-95988439D01*
X149148308Y-95968297D01*
X149159639Y-95961014D01*
X149167711Y-95950233D01*
X149188456Y-95942495D01*
X149207086Y-95930523D01*
X149229004Y-95927371D01*
X149233175Y-95925816D01*
X149242021Y-95925500D01*
X149284903Y-95925500D01*
X149351942Y-95945185D01*
X149364835Y-95955575D01*
X149364838Y-95955572D01*
X149371279Y-95960514D01*
X149371284Y-95960519D01*
X149508215Y-96039577D01*
X149660943Y-96080501D01*
X149660946Y-96080501D01*
X149819055Y-96080501D01*
X149819057Y-96080501D01*
X149859444Y-96069679D01*
X149929290Y-96071340D01*
X149986413Y-96110000D01*
X150127158Y-96110000D01*
X150130128Y-96102828D01*
X150130012Y-96102698D01*
X150127750Y-96088486D01*
X150120855Y-96075858D01*
X150122370Y-96054673D01*
X150119032Y-96033696D01*
X150124812Y-96020519D01*
X150125839Y-96006166D01*
X150138568Y-95989161D01*
X150147101Y-95969712D01*
X150159087Y-95961751D01*
X150167711Y-95950233D01*
X150187609Y-95942811D01*
X150205305Y-95931060D01*
X150228554Y-95927539D01*
X150233175Y-95925816D01*
X150240161Y-95925514D01*
X150241094Y-95925500D01*
X150315000Y-95925500D01*
X150320464Y-95925230D01*
X150322425Y-95925036D01*
X150326030Y-95924498D01*
X150331464Y-95924230D01*
X150333425Y-95924036D01*
X150338845Y-95923228D01*
X150348845Y-95921228D01*
X150353772Y-95920006D01*
X150355525Y-95919485D01*
X150360326Y-95917815D01*
X150375326Y-95911815D01*
X150377484Y-95910899D01*
X150378242Y-95910558D01*
X150378241Y-95910558D01*
X150379417Y-95910030D01*
X150379718Y-95910699D01*
X150446005Y-95899989D01*
X150510056Y-95927904D01*
X150518176Y-95935333D01*
X150560000Y-95977156D01*
X150690337Y-95846819D01*
X150717268Y-95832113D01*
X150743084Y-95815523D01*
X150749284Y-95814631D01*
X150751661Y-95813334D01*
X150778019Y-95810500D01*
X150992980Y-95810500D01*
X151041482Y-95824741D01*
X151041798Y-95824320D01*
X151084012Y-95803813D01*
X151211784Y-95769577D01*
X151218541Y-95765675D01*
X151286440Y-95749202D01*
X151352467Y-95772053D01*
G37*
%TD.AperFunction*%
%TA.AperFunction,Conductor*%
G36*
X159410784Y-90402041D02*
G01*
X159416146Y-90400955D01*
X159443950Y-90411780D01*
X159472574Y-90420185D01*
X159477508Y-90424845D01*
X159481255Y-90426304D01*
X159505851Y-90451612D01*
X159564310Y-90532073D01*
X159697927Y-90665690D01*
X159697930Y-90665692D01*
X159703424Y-90669684D01*
X159746088Y-90725015D01*
X159752066Y-90794628D01*
X159719458Y-90856422D01*
X159703424Y-90870316D01*
X159697930Y-90874307D01*
X159697924Y-90874312D01*
X159564312Y-91007924D01*
X159564312Y-91007925D01*
X159564310Y-91007927D01*
X159519792Y-91069200D01*
X159453240Y-91160800D01*
X159367454Y-91329165D01*
X159309059Y-91508884D01*
X159302566Y-91549880D01*
X159272636Y-91613015D01*
X159213324Y-91649945D01*
X159167493Y-91653839D01*
X159125023Y-91649501D01*
X159125014Y-91649500D01*
X159125009Y-91649500D01*
X159125003Y-91649500D01*
X158199998Y-91649500D01*
X158199980Y-91649501D01*
X158097203Y-91660000D01*
X158097200Y-91660001D01*
X157930668Y-91715185D01*
X157930663Y-91715187D01*
X157781342Y-91807289D01*
X157657289Y-91931342D01*
X157565187Y-92080663D01*
X157565185Y-92080668D01*
X157547800Y-92133134D01*
X157510001Y-92247203D01*
X157510001Y-92247204D01*
X157510000Y-92247204D01*
X157499500Y-92349983D01*
X157499500Y-94650001D01*
X157499501Y-94650018D01*
X157510000Y-94752796D01*
X157510001Y-94752799D01*
X157565185Y-94919331D01*
X157565187Y-94919336D01*
X157586759Y-94954310D01*
X157657096Y-95068345D01*
X157657289Y-95068657D01*
X157768357Y-95179725D01*
X157801842Y-95241048D01*
X157796858Y-95310740D01*
X157754986Y-95366673D01*
X157689522Y-95391090D01*
X157668074Y-95390764D01*
X157611656Y-95385000D01*
X157512500Y-95385000D01*
X157512500Y-96236000D01*
X157492815Y-96303039D01*
X157440011Y-96348794D01*
X157388500Y-96360000D01*
X157136500Y-96360000D01*
X157069461Y-96340315D01*
X157023706Y-96287511D01*
X157012500Y-96236000D01*
X157012500Y-95384999D01*
X156913360Y-95385000D01*
X156913344Y-95385001D01*
X156812347Y-95395319D01*
X156648699Y-95449546D01*
X156648688Y-95449551D01*
X156501965Y-95540052D01*
X156501961Y-95540055D01*
X156380054Y-95661962D01*
X156333251Y-95737841D01*
X156281302Y-95784565D01*
X156212340Y-95795786D01*
X156171418Y-95783228D01*
X156120836Y-95757454D01*
X155941118Y-95699059D01*
X155754486Y-95669500D01*
X155754481Y-95669500D01*
X155565519Y-95669500D01*
X155565514Y-95669500D01*
X155378881Y-95699059D01*
X155199163Y-95757454D01*
X155030800Y-95843240D01*
X154968213Y-95888713D01*
X154877927Y-95954310D01*
X154877925Y-95954312D01*
X154877924Y-95954312D01*
X154744312Y-96087924D01*
X154744312Y-96087925D01*
X154744310Y-96087927D01*
X154722306Y-96118213D01*
X154633240Y-96240800D01*
X154549301Y-96405540D01*
X154501326Y-96456336D01*
X154433505Y-96473131D01*
X154367370Y-96450593D01*
X154324255Y-96396698D01*
X154309395Y-96360824D01*
X154309394Y-96360821D01*
X154309392Y-96360818D01*
X154309390Y-96360814D01*
X154221789Y-96229711D01*
X154221786Y-96229707D01*
X154110292Y-96118213D01*
X154110288Y-96118210D01*
X153979185Y-96030609D01*
X153979172Y-96030602D01*
X153833501Y-95970264D01*
X153833489Y-95970261D01*
X153678846Y-95939500D01*
X153672782Y-95938903D01*
X153672982Y-95936869D01*
X153614901Y-95919815D01*
X153569146Y-95867011D01*
X153559202Y-95797853D01*
X153588227Y-95734297D01*
X153594245Y-95727832D01*
X153659289Y-95662789D01*
X153746894Y-95531679D01*
X153807237Y-95385997D01*
X153807237Y-95385996D01*
X153809568Y-95380369D01*
X153811327Y-95381097D01*
X153844781Y-95330059D01*
X153908596Y-95301607D01*
X153925137Y-95300499D01*
X154136670Y-95300499D01*
X154136676Y-95300499D01*
X154237753Y-95290174D01*
X154401516Y-95235908D01*
X154502833Y-95173414D01*
X154570225Y-95154974D01*
X154636889Y-95175896D01*
X154655611Y-95191272D01*
X154656654Y-95192315D01*
X154805875Y-95284356D01*
X154805880Y-95284358D01*
X154972302Y-95339505D01*
X154972309Y-95339506D01*
X155075019Y-95349999D01*
X155287499Y-95349999D01*
X155787500Y-95349999D01*
X155999972Y-95349999D01*
X155999986Y-95349998D01*
X156102697Y-95339505D01*
X156269119Y-95284358D01*
X156269124Y-95284356D01*
X156418345Y-95192315D01*
X156542315Y-95068345D01*
X156634356Y-94919124D01*
X156634358Y-94919119D01*
X156689505Y-94752697D01*
X156689506Y-94752690D01*
X156699999Y-94649986D01*
X156700000Y-94649973D01*
X156700000Y-93750000D01*
X155787500Y-93750000D01*
X155787500Y-95349999D01*
X155287499Y-95349999D01*
X155287500Y-95349998D01*
X155287500Y-93250000D01*
X155787500Y-93250000D01*
X156699999Y-93250000D01*
X156699999Y-92350028D01*
X156699998Y-92350013D01*
X156689505Y-92247302D01*
X156634358Y-92080880D01*
X156634356Y-92080875D01*
X156542315Y-91931654D01*
X156418345Y-91807684D01*
X156269124Y-91715643D01*
X156269119Y-91715641D01*
X156102697Y-91660494D01*
X156102690Y-91660493D01*
X155999986Y-91650000D01*
X155787500Y-91650000D01*
X155787500Y-93250000D01*
X155287500Y-93250000D01*
X155287500Y-91650000D01*
X155075029Y-91650000D01*
X155075012Y-91650001D01*
X154972302Y-91660494D01*
X154805880Y-91715641D01*
X154805873Y-91715645D01*
X154767323Y-91739422D01*
X154699930Y-91757861D01*
X154633267Y-91736937D01*
X154614547Y-91721564D01*
X154548034Y-91655052D01*
X154401311Y-91564551D01*
X154401300Y-91564546D01*
X154237652Y-91510319D01*
X154136654Y-91500000D01*
X154100000Y-91500000D01*
X154100000Y-92413500D01*
X154080315Y-92480539D01*
X154027511Y-92526294D01*
X153976000Y-92537500D01*
X153850000Y-92537500D01*
X153850000Y-92663500D01*
X153830315Y-92730539D01*
X153777511Y-92776294D01*
X153726000Y-92787500D01*
X152920941Y-92787500D01*
X152853902Y-92767815D01*
X152833260Y-92751181D01*
X152720292Y-92638213D01*
X152720288Y-92638210D01*
X152589185Y-92550609D01*
X152589172Y-92550602D01*
X152443501Y-92490264D01*
X152443489Y-92490261D01*
X152288845Y-92459500D01*
X152288842Y-92459500D01*
X152131158Y-92459500D01*
X152131155Y-92459500D01*
X151976510Y-92490261D01*
X151976502Y-92490263D01*
X151940164Y-92505315D01*
X151874384Y-92532561D01*
X151826934Y-92542000D01*
X148888669Y-92542000D01*
X148824519Y-92524117D01*
X148797226Y-92507618D01*
X148736602Y-92470969D01*
X148582887Y-92423070D01*
X148582885Y-92423069D01*
X148582883Y-92423069D01*
X148536117Y-92418819D01*
X148516091Y-92417000D01*
X148516088Y-92417000D01*
X147513901Y-92417000D01*
X147447117Y-92423068D01*
X147447106Y-92423071D01*
X147293400Y-92470967D01*
X147205481Y-92524117D01*
X147141331Y-92542000D01*
X146730862Y-92542000D01*
X146672967Y-92525000D01*
X145699000Y-92525000D01*
X145631961Y-92505315D01*
X145586206Y-92452511D01*
X145575000Y-92401000D01*
X145575000Y-92149000D01*
X145594685Y-92081961D01*
X145647489Y-92036206D01*
X145699000Y-92025000D01*
X146662499Y-92025000D01*
X146662499Y-91750028D01*
X146662498Y-91750013D01*
X146652005Y-91647302D01*
X146596858Y-91480880D01*
X146596853Y-91480869D01*
X146544736Y-91396375D01*
X146536928Y-91367842D01*
X146526589Y-91340115D01*
X146527808Y-91334512D01*
X146526295Y-91328983D01*
X146535154Y-91300753D01*
X146541446Y-91271843D01*
X146546235Y-91265445D01*
X146547217Y-91262319D01*
X146562594Y-91243595D01*
X146569378Y-91236812D01*
X146630704Y-91203332D01*
X146657053Y-91200500D01*
X146780500Y-91200500D01*
X146847539Y-91220185D01*
X146893294Y-91272989D01*
X146904500Y-91324499D01*
X146904500Y-91558598D01*
X146910568Y-91625382D01*
X146910571Y-91625393D01*
X146958467Y-91779098D01*
X146958468Y-91779100D01*
X146958469Y-91779102D01*
X147027924Y-91893994D01*
X147041766Y-91916891D01*
X147155608Y-92030733D01*
X147155610Y-92030734D01*
X147155612Y-92030736D01*
X147293398Y-92114031D01*
X147447113Y-92161930D01*
X147513909Y-92168000D01*
X148516090Y-92167999D01*
X148516097Y-92167999D01*
X148582882Y-92161931D01*
X148582885Y-92161930D01*
X148582887Y-92161930D01*
X148736602Y-92114031D01*
X148824519Y-92060882D01*
X148888669Y-92043000D01*
X151954862Y-92043000D01*
X152002314Y-92052439D01*
X152088947Y-92088323D01*
X152116503Y-92099737D01*
X152271153Y-92130499D01*
X152271156Y-92130500D01*
X152271158Y-92130500D01*
X152428844Y-92130500D01*
X152428845Y-92130499D01*
X152583497Y-92099737D01*
X152705411Y-92049238D01*
X152774878Y-92041770D01*
X152837358Y-92073045D01*
X152873010Y-92133134D01*
X152876221Y-92176397D01*
X152875000Y-92188350D01*
X152875000Y-92287500D01*
X153600000Y-92287500D01*
X153600000Y-91575596D01*
X153619685Y-91508557D01*
X153636319Y-91487915D01*
X153756393Y-91367842D01*
X154687417Y-90436819D01*
X154748740Y-90403334D01*
X154775098Y-90400500D01*
X159405535Y-90400500D01*
X159410784Y-90402041D01*
G37*
%TD.AperFunction*%
%TA.AperFunction,Conductor*%
G36*
X134916723Y-92018969D02*
G01*
X134928368Y-92019802D01*
X134947496Y-92034121D01*
X134968933Y-92044677D01*
X134980476Y-92058811D01*
X134984301Y-92061674D01*
X134987940Y-92067950D01*
X134991259Y-92072013D01*
X134997264Y-92081984D01*
X134998256Y-92085398D01*
X135081919Y-92226865D01*
X135088446Y-92233392D01*
X135096269Y-92246382D01*
X135113991Y-92313966D01*
X135092362Y-92380404D01*
X135086829Y-92387075D01*
X135087097Y-92387283D01*
X135082313Y-92393449D01*
X134998718Y-92534801D01*
X134952899Y-92692513D01*
X134952704Y-92694998D01*
X134952705Y-92695000D01*
X136301000Y-92695000D01*
X136368039Y-92714685D01*
X136413794Y-92767489D01*
X136425000Y-92819000D01*
X136425000Y-93071000D01*
X136405315Y-93138039D01*
X136352511Y-93183794D01*
X136301000Y-93195000D01*
X134952705Y-93195000D01*
X134952704Y-93195001D01*
X134952899Y-93197486D01*
X134998718Y-93355198D01*
X135030564Y-93409047D01*
X135047747Y-93476771D01*
X135025587Y-93543034D01*
X134971286Y-93586729D01*
X134953189Y-93594224D01*
X134838454Y-93670887D01*
X134838453Y-93670888D01*
X133892181Y-94617161D01*
X133830858Y-94650646D01*
X133761166Y-94645662D01*
X133705233Y-94603790D01*
X133680816Y-94538326D01*
X133680500Y-94529480D01*
X133680500Y-93216519D01*
X133700185Y-93149480D01*
X133716814Y-93128843D01*
X134797355Y-92048301D01*
X134818323Y-92036852D01*
X134836831Y-92021737D01*
X134848429Y-92020412D01*
X134858676Y-92014818D01*
X134882508Y-92016522D01*
X134906250Y-92013812D01*
X134916723Y-92018969D01*
G37*
%TD.AperFunction*%
%TA.AperFunction,Conductor*%
G36*
X120239623Y-91429092D02*
G01*
X120252561Y-91427467D01*
X120272916Y-91437205D01*
X120294838Y-91442548D01*
X120311456Y-91455644D01*
X120315588Y-91457621D01*
X120320212Y-91462544D01*
X120322559Y-91464394D01*
X120346133Y-91489169D01*
X120361439Y-91518935D01*
X120377467Y-91548288D01*
X120377352Y-91549883D01*
X120378084Y-91551305D01*
X120374870Y-91584600D01*
X120372483Y-91617980D01*
X120371524Y-91619260D01*
X120371371Y-91620851D01*
X120343984Y-91662325D01*
X120329661Y-91676648D01*
X120239093Y-91823481D01*
X120239091Y-91823486D01*
X120217191Y-91889577D01*
X120184826Y-91987247D01*
X120184826Y-91987248D01*
X120184825Y-91987248D01*
X120174500Y-92088315D01*
X120174500Y-92786669D01*
X120174501Y-92786687D01*
X120184841Y-92887899D01*
X120172071Y-92956591D01*
X120124190Y-93007476D01*
X120061486Y-93024500D01*
X120027131Y-93024500D01*
X120027123Y-93024501D01*
X119967516Y-93030908D01*
X119832671Y-93081202D01*
X119832669Y-93081203D01*
X119749311Y-93143606D01*
X119683847Y-93168023D01*
X119615574Y-93153172D01*
X119600689Y-93143606D01*
X119517330Y-93081203D01*
X119517328Y-93081202D01*
X119382482Y-93030908D01*
X119382483Y-93030908D01*
X119322883Y-93024501D01*
X119322881Y-93024500D01*
X119322873Y-93024500D01*
X119322865Y-93024500D01*
X119286579Y-93024500D01*
X119219540Y-93004815D01*
X119173785Y-92952011D01*
X119163841Y-92882853D01*
X119165140Y-92875576D01*
X119165172Y-92875257D01*
X119165174Y-92875253D01*
X119175500Y-92774177D01*
X119175499Y-92516517D01*
X119195183Y-92449479D01*
X119211813Y-92428842D01*
X120069114Y-91571543D01*
X120129626Y-91480978D01*
X120146938Y-91466510D01*
X120160905Y-91448789D01*
X120173231Y-91444536D01*
X120183236Y-91436176D01*
X120205622Y-91433363D01*
X120226955Y-91426005D01*
X120239623Y-91429092D01*
G37*
%TD.AperFunction*%
%TA.AperFunction,Conductor*%
G36*
X148178499Y-86981685D02*
G01*
X148199140Y-86998318D01*
X150981341Y-89780520D01*
X150987785Y-89784240D01*
X150991826Y-89787021D01*
X151010895Y-89810480D01*
X151031753Y-89832356D01*
X151034543Y-89839573D01*
X151035897Y-89841239D01*
X151036185Y-89843821D01*
X151041311Y-89857079D01*
X151042188Y-89860350D01*
X151045800Y-89873829D01*
X151085851Y-89970519D01*
X151096302Y-89995750D01*
X151096303Y-89995751D01*
X151162120Y-90109749D01*
X151162132Y-90109767D01*
X151242455Y-90214444D01*
X151242459Y-90214449D01*
X151335551Y-90307541D01*
X151335555Y-90307544D01*
X151440232Y-90387867D01*
X151440236Y-90387869D01*
X151440243Y-90387875D01*
X151440250Y-90387879D01*
X151479626Y-90410613D01*
X151527842Y-90461180D01*
X151541064Y-90529787D01*
X151515096Y-90594652D01*
X151458182Y-90635180D01*
X151417626Y-90642000D01*
X148888669Y-90642000D01*
X148824519Y-90624117D01*
X148736602Y-90570969D01*
X148702245Y-90560263D01*
X148582887Y-90523070D01*
X148582885Y-90523069D01*
X148582883Y-90523069D01*
X148536117Y-90518819D01*
X148516091Y-90517000D01*
X148516088Y-90517000D01*
X148231519Y-90517000D01*
X148164480Y-90497315D01*
X148143838Y-90480681D01*
X147619046Y-89955888D01*
X147619045Y-89955887D01*
X147504307Y-89879222D01*
X147376832Y-89826421D01*
X147376822Y-89826418D01*
X147241496Y-89799500D01*
X147241494Y-89799500D01*
X147241493Y-89799500D01*
X146722415Y-89799500D01*
X146655376Y-89779815D01*
X146609621Y-89727011D01*
X146599677Y-89657853D01*
X146616876Y-89610404D01*
X146644461Y-89565680D01*
X146660908Y-89539016D01*
X146715174Y-89375253D01*
X146725500Y-89274177D01*
X146725499Y-88575824D01*
X146715174Y-88474747D01*
X146660908Y-88310984D01*
X146570340Y-88164150D01*
X146556017Y-88149827D01*
X146522532Y-88088504D01*
X146527516Y-88018812D01*
X146556021Y-87974460D01*
X146569947Y-87960535D01*
X146660448Y-87813811D01*
X146660453Y-87813800D01*
X146714680Y-87650152D01*
X146724999Y-87549154D01*
X146725000Y-87549141D01*
X146725000Y-87450000D01*
X144743144Y-87450000D01*
X144676105Y-87430315D01*
X144644772Y-87401490D01*
X144632541Y-87385551D01*
X144539449Y-87292459D01*
X144526684Y-87282664D01*
X144434767Y-87212132D01*
X144434749Y-87212120D01*
X144402302Y-87193387D01*
X144354086Y-87142820D01*
X144340864Y-87074213D01*
X144366832Y-87009348D01*
X144423746Y-86968820D01*
X144464302Y-86962000D01*
X148111460Y-86962000D01*
X148178499Y-86981685D01*
G37*
%TD.AperFunction*%
%TA.AperFunction,Conductor*%
G36*
X154889417Y-86380575D02*
G01*
X154902404Y-86380953D01*
X154934070Y-86396541D01*
X154935508Y-86397525D01*
X155030801Y-86466760D01*
X155053710Y-86478432D01*
X155060317Y-86482955D01*
X155077556Y-86504058D01*
X155097366Y-86522767D01*
X155099335Y-86530719D01*
X155104519Y-86537065D01*
X155107612Y-86564139D01*
X155114163Y-86590588D01*
X155111520Y-86598341D01*
X155112451Y-86606483D01*
X155100415Y-86630933D01*
X155091627Y-86656723D01*
X155085211Y-86661817D01*
X155081593Y-86669169D01*
X155046578Y-86695762D01*
X155031061Y-86703669D01*
X155005670Y-86722116D01*
X155005669Y-86722116D01*
X155571414Y-87287861D01*
X155486306Y-87310667D01*
X155383694Y-87369910D01*
X155299910Y-87453694D01*
X155240667Y-87556306D01*
X155217861Y-87641414D01*
X154652116Y-87075669D01*
X154652116Y-87075670D01*
X154633669Y-87101060D01*
X154547914Y-87269363D01*
X154496032Y-87429037D01*
X154489161Y-87451435D01*
X154460000Y-87635552D01*
X154460000Y-87824447D01*
X154489548Y-88011002D01*
X154547914Y-88190637D01*
X154633666Y-88358933D01*
X154652116Y-88384328D01*
X155217861Y-87818584D01*
X155240667Y-87903694D01*
X155299910Y-88006306D01*
X155383694Y-88090090D01*
X155486306Y-88149333D01*
X155571415Y-88172138D01*
X155080373Y-88663181D01*
X155019050Y-88696666D01*
X154992692Y-88699500D01*
X154326006Y-88699500D01*
X154258967Y-88679815D01*
X154213212Y-88627011D01*
X154211444Y-88622951D01*
X154209448Y-88618133D01*
X154203701Y-88604257D01*
X154203697Y-88604249D01*
X154137879Y-88490250D01*
X154137875Y-88490243D01*
X154125984Y-88474747D01*
X154057544Y-88385555D01*
X154057541Y-88385551D01*
X153964449Y-88292459D01*
X153959541Y-88288693D01*
X153859767Y-88212132D01*
X153859758Y-88212126D01*
X153859757Y-88212125D01*
X153764948Y-88157387D01*
X153716732Y-88106820D01*
X153703509Y-88038213D01*
X153729477Y-87973348D01*
X153764948Y-87942613D01*
X153767477Y-87941153D01*
X153859757Y-87887875D01*
X153964449Y-87807541D01*
X154057541Y-87714449D01*
X154137875Y-87609757D01*
X154203701Y-87495743D01*
X154254200Y-87373829D01*
X154288275Y-87246662D01*
X154305500Y-87115826D01*
X154305500Y-86995096D01*
X154325185Y-86928057D01*
X154341815Y-86907419D01*
X154558506Y-86690727D01*
X154558511Y-86690724D01*
X154568714Y-86680520D01*
X154568716Y-86680520D01*
X154680520Y-86568716D01*
X154754512Y-86440557D01*
X154754534Y-86440520D01*
X154756639Y-86436873D01*
X154766621Y-86427353D01*
X154772714Y-86414977D01*
X154791408Y-86403715D01*
X154807203Y-86388654D01*
X154820748Y-86386042D01*
X154832564Y-86378925D01*
X154854379Y-86379558D01*
X154875809Y-86375427D01*
X154889417Y-86380575D01*
G37*
%TD.AperFunction*%
%TD*%
M02*
