%TF.GenerationSoftware,KiCad,Pcbnew,9.0.1*%
%TF.CreationDate,2025-04-23T21:39:05-04:00*%
%TF.ProjectId,can-nano-shield-rj45,63616e2d-6e61-46e6-9f2d-736869656c64,rev?*%
%TF.SameCoordinates,Original*%
%TF.FileFunction,Copper,L1,Top*%
%TF.FilePolarity,Positive*%
%FSLAX46Y46*%
G04 Gerber Fmt 4.6, Leading zero omitted, Abs format (unit mm)*
G04 Created by KiCad (PCBNEW 9.0.1) date 2025-04-23 21:39:05*
%MOMM*%
%LPD*%
G01*
G04 APERTURE LIST*
G04 Aperture macros list*
%AMRoundRect*
0 Rectangle with rounded corners*
0 $1 Rounding radius*
0 $2 $3 $4 $5 $6 $7 $8 $9 X,Y pos of 4 corners*
0 Add a 4 corners polygon primitive as box body*
4,1,4,$2,$3,$4,$5,$6,$7,$8,$9,$2,$3,0*
0 Add four circle primitives for the rounded corners*
1,1,$1+$1,$2,$3*
1,1,$1+$1,$4,$5*
1,1,$1+$1,$6,$7*
1,1,$1+$1,$8,$9*
0 Add four rect primitives between the rounded corners*
20,1,$1+$1,$2,$3,$4,$5,0*
20,1,$1+$1,$4,$5,$6,$7,0*
20,1,$1+$1,$6,$7,$8,$9,0*
20,1,$1+$1,$8,$9,$2,$3,0*%
%AMFreePoly0*
4,1,23,0.000000,0.745722,0.065263,0.745722,0.191342,0.711940,0.304381,0.646677,0.396677,0.554381,0.461940,0.441342,0.495722,0.315263,0.495722,0.250000,0.500000,0.250000,0.500000,-0.250000,0.495722,-0.250000,0.495722,-0.315263,0.461940,-0.441342,0.396677,-0.554381,0.304381,-0.646677,0.191342,-0.711940,0.065263,-0.745722,0.000000,-0.745722,0.000000,-0.750000,-0.550000,-0.750000,
-0.550000,0.750000,0.000000,0.750000,0.000000,0.745722,0.000000,0.745722,$1*%
%AMFreePoly1*
4,1,23,0.550000,-0.750000,0.000000,-0.750000,0.000000,-0.745722,-0.065263,-0.745722,-0.191342,-0.711940,-0.304381,-0.646677,-0.396677,-0.554381,-0.461940,-0.441342,-0.495722,-0.315263,-0.495722,-0.250000,-0.500000,-0.250000,-0.500000,0.250000,-0.495722,0.250000,-0.495722,0.315263,-0.461940,0.441342,-0.396677,0.554381,-0.304381,0.646677,-0.191342,0.711940,-0.065263,0.745722,0.000000,0.745722,
0.000000,0.750000,0.550000,0.750000,0.550000,-0.750000,0.550000,-0.750000,$1*%
%AMFreePoly2*
4,1,23,0.500000,-0.750000,0.000000,-0.750000,0.000000,-0.745722,-0.065263,-0.745722,-0.191342,-0.711940,-0.304381,-0.646677,-0.396677,-0.554381,-0.461940,-0.441342,-0.495722,-0.315263,-0.495722,-0.250000,-0.500000,-0.250000,-0.500000,0.250000,-0.495722,0.250000,-0.495722,0.315263,-0.461940,0.441342,-0.396677,0.554381,-0.304381,0.646677,-0.191342,0.711940,-0.065263,0.745722,0.000000,0.745722,
0.000000,0.750000,0.500000,0.750000,0.500000,-0.750000,0.500000,-0.750000,$1*%
%AMFreePoly3*
4,1,23,0.000000,0.745722,0.065263,0.745722,0.191342,0.711940,0.304381,0.646677,0.396677,0.554381,0.461940,0.441342,0.495722,0.315263,0.495722,0.250000,0.500000,0.250000,0.500000,-0.250000,0.495722,-0.250000,0.495722,-0.315263,0.461940,-0.441342,0.396677,-0.554381,0.304381,-0.646677,0.191342,-0.711940,0.065263,-0.745722,0.000000,-0.745722,0.000000,-0.750000,-0.500000,-0.750000,
-0.500000,0.750000,0.000000,0.750000,0.000000,0.745722,0.000000,0.745722,$1*%
G04 Aperture macros list end*
%TA.AperFunction,EtchedComponent*%
%ADD10C,0.000000*%
%TD*%
%TA.AperFunction,ComponentPad*%
%ADD11C,0.400000*%
%TD*%
%TA.AperFunction,ComponentPad*%
%ADD12R,1.400000X1.400000*%
%TD*%
%TA.AperFunction,ComponentPad*%
%ADD13C,1.400000*%
%TD*%
%TA.AperFunction,ComponentPad*%
%ADD14O,2.500000X0.800000*%
%TD*%
%TA.AperFunction,SMDPad,CuDef*%
%ADD15FreePoly0,180.000000*%
%TD*%
%TA.AperFunction,SMDPad,CuDef*%
%ADD16R,1.000000X1.500000*%
%TD*%
%TA.AperFunction,SMDPad,CuDef*%
%ADD17FreePoly1,180.000000*%
%TD*%
%TA.AperFunction,SMDPad,CuDef*%
%ADD18RoundRect,0.250000X0.475000X-0.337500X0.475000X0.337500X-0.475000X0.337500X-0.475000X-0.337500X0*%
%TD*%
%TA.AperFunction,SMDPad,CuDef*%
%ADD19FreePoly2,270.000000*%
%TD*%
%TA.AperFunction,SMDPad,CuDef*%
%ADD20FreePoly3,270.000000*%
%TD*%
%TA.AperFunction,ComponentPad*%
%ADD21R,1.370000X1.370000*%
%TD*%
%TA.AperFunction,ComponentPad*%
%ADD22C,1.370000*%
%TD*%
%TA.AperFunction,SMDPad,CuDef*%
%ADD23RoundRect,0.250000X-0.450000X0.350000X-0.450000X-0.350000X0.450000X-0.350000X0.450000X0.350000X0*%
%TD*%
%TA.AperFunction,SMDPad,CuDef*%
%ADD24R,1.219200X0.990600*%
%TD*%
%TA.AperFunction,ComponentPad*%
%ADD25R,1.700000X1.700000*%
%TD*%
%TA.AperFunction,ComponentPad*%
%ADD26C,1.700000*%
%TD*%
%TA.AperFunction,ViaPad*%
%ADD27C,0.600000*%
%TD*%
%TA.AperFunction,Conductor*%
%ADD28C,0.500000*%
%TD*%
%TA.AperFunction,Conductor*%
%ADD29C,0.200000*%
%TD*%
%TA.AperFunction,Conductor*%
%ADD30C,0.300000*%
%TD*%
%TA.AperFunction,Conductor*%
%ADD31C,0.400000*%
%TD*%
G04 APERTURE END LIST*
D10*
%TA.AperFunction,EtchedComponent*%
%TO.C,JP2*%
G36*
X139000000Y-88450000D02*
G01*
X138400000Y-88450000D01*
X138400000Y-87950000D01*
X139000000Y-87950000D01*
X139000000Y-88450000D01*
G37*
%TD.AperFunction*%
%TA.AperFunction,EtchedComponent*%
%TO.C,JP3*%
G36*
X141575000Y-88450000D02*
G01*
X140975000Y-88450000D01*
X140975000Y-87950000D01*
X141575000Y-87950000D01*
X141575000Y-88450000D01*
G37*
%TD.AperFunction*%
%TA.AperFunction,EtchedComponent*%
%TO.C,JP4*%
G36*
X145600000Y-88425000D02*
G01*
X145000000Y-88425000D01*
X145000000Y-87925000D01*
X145600000Y-87925000D01*
X145600000Y-88425000D01*
G37*
%TD.AperFunction*%
%TD*%
D11*
%TO.P,U3,6_2*%
%TO.N,Net-(U3-SW-Pad5)*%
X150780000Y-94530000D03*
%TO.P,U3,6_1*%
X150780000Y-95209000D03*
%TO.P,U3,10_4*%
%TO.N,GND*%
X149560000Y-96260000D03*
%TO.P,U3,10_3*%
X150560000Y-96260000D03*
%TO.P,U3,10_2*%
X151560000Y-96260000D03*
%TO.P,U3,5_5*%
%TO.N,Net-(U3-SW-Pad5)*%
X148920000Y-95480000D03*
%TO.P,U3,5_4*%
X149740000Y-95480000D03*
%TO.P,U3,5_3*%
X148780000Y-94530000D03*
%TO.P,U3,5_2*%
X149280000Y-94530000D03*
%TO.P,U3,5_1*%
X149780000Y-94530000D03*
%TO.P,U3,4_5*%
%TO.N,VCC*%
X148920000Y-97040000D03*
%TO.P,U3,4_4*%
X149740000Y-97040000D03*
%TO.P,U3,4_3*%
X148780000Y-97990000D03*
%TO.P,U3,4_2*%
X149280000Y-97990000D03*
%TO.P,U3,4_1*%
X149780000Y-97990000D03*
%TO.P,U3,3_2*%
%TO.N,/CAN_V+*%
X150980000Y-97310000D03*
%TO.P,U3,3_1*%
X150980000Y-97989000D03*
%TO.P,U3,10_5*%
%TO.N,GND*%
X148560000Y-96260000D03*
%TD*%
D12*
%TO.P,J4,1*%
%TO.N,/CAN_H*%
X162260000Y-88730000D03*
D13*
%TO.P,J4,2*%
%TO.N,/CAN_L*%
X160480000Y-89750000D03*
%TO.P,J4,3*%
%TO.N,GND*%
X162260000Y-90770000D03*
%TO.P,J4,4*%
%TO.N,/CAN_BINT*%
X160480000Y-91790000D03*
%TO.P,J4,5*%
%TO.N,/CAN_ESTOP*%
X162260000Y-92810000D03*
%TO.P,J4,6*%
%TO.N,/CAN_SHLD*%
X160480000Y-93830000D03*
%TO.P,J4,7*%
%TO.N,GND*%
X162260000Y-94850000D03*
%TO.P,J4,8*%
%TO.N,/CAN_V+*%
X160480000Y-95870000D03*
%TO.P,J4,9*%
%TO.N,GND*%
X155660000Y-99160000D03*
%TO.P,J4,10*%
%TO.N,/LED_PWR*%
X155660000Y-96870000D03*
%TO.P,J4,11*%
%TO.N,GND*%
X155660000Y-87730000D03*
%TO.P,J4,12*%
%TO.N,/LED_TX*%
X155660000Y-85440000D03*
D14*
%TO.P,J4,13*%
%TO.N,N/C*%
X161240000Y-84200000D03*
%TO.P,J4,14*%
X161240000Y-100400000D03*
%TD*%
D15*
%TO.P,JP1,3,B*%
%TO.N,+3V3*%
X137890000Y-97212500D03*
D16*
%TO.P,JP1,2,C*%
%TO.N,+5V*%
X139190000Y-97212500D03*
D17*
%TO.P,JP1,1,A*%
%TO.N,VCC*%
X140490000Y-97212500D03*
%TD*%
D18*
%TO.P,C9,1*%
%TO.N,VCC*%
X142780000Y-97367500D03*
%TO.P,C9,2*%
%TO.N,GND*%
X142780000Y-95292500D03*
%TD*%
D19*
%TO.P,JP2,1,A*%
%TO.N,/CAN_CS_DEFAULT*%
X138700000Y-87550000D03*
D20*
%TO.P,JP2,2,B*%
%TO.N,/CAN_CS*%
X138700000Y-88850000D03*
%TD*%
D19*
%TO.P,JP3,1,A*%
%TO.N,/CAN_INT_DEFAULT*%
X141275000Y-87550000D03*
D20*
%TO.P,JP3,2,B*%
%TO.N,/~{CAN_INT}*%
X141275000Y-88850000D03*
%TD*%
D21*
%TO.P,J2,01,01*%
%TO.N,unconnected-(J2-Pad01)*%
X151400000Y-99930000D03*
D22*
%TO.P,J2,02,02*%
%TO.N,GND*%
X148860000Y-99930000D03*
%TO.P,J2,03,03*%
%TO.N,/RST2*%
X146320000Y-99930000D03*
%TO.P,J2,04,04*%
%TO.N,+5V*%
X143780000Y-99930000D03*
%TO.P,J2,05,05*%
%TO.N,/A7*%
X141240000Y-99930000D03*
%TO.P,J2,06,06*%
%TO.N,/A6*%
X138700000Y-99930000D03*
%TO.P,J2,07,07*%
%TO.N,/A5*%
X136160000Y-99930000D03*
%TO.P,J2,08,08*%
%TO.N,/A4*%
X133620000Y-99930000D03*
%TO.P,J2,09,09*%
%TO.N,/A3*%
X131080000Y-99930000D03*
%TO.P,J2,10,10*%
%TO.N,/A2*%
X128540000Y-99930000D03*
%TO.P,J2,11,11*%
%TO.N,/A1*%
X126000000Y-99930000D03*
%TO.P,J2,12,12*%
%TO.N,/A0*%
X123460000Y-99930000D03*
%TO.P,J2,13,13*%
%TO.N,/AREF*%
X120920000Y-99930000D03*
%TO.P,J2,14,14*%
%TO.N,+3V3*%
X118380000Y-99930000D03*
%TO.P,J2,15,15*%
%TO.N,/SCK*%
X115840000Y-99930000D03*
%TD*%
D23*
%TO.P,R1,1*%
%TO.N,VCC*%
X136325000Y-87425000D03*
%TO.P,R1,2*%
%TO.N,/CAN_CS*%
X136325000Y-89425000D03*
%TD*%
D18*
%TO.P,C11,1*%
%TO.N,VCC*%
X146760000Y-97377500D03*
%TO.P,C11,2*%
%TO.N,GND*%
X146760000Y-95302500D03*
%TD*%
D19*
%TO.P,JP4,1,A*%
%TO.N,/RST1*%
X145300000Y-87525000D03*
D20*
%TO.P,JP4,2,B*%
%TO.N,/CAN_RESET*%
X145300000Y-88825000D03*
%TD*%
D18*
%TO.P,C10,1*%
%TO.N,VCC*%
X144780000Y-97377500D03*
%TO.P,C10,2*%
%TO.N,GND*%
X144780000Y-95302500D03*
%TD*%
D24*
%TO.P,T1,1,1*%
%TO.N,/CAN_H_IN*%
X144781000Y-92875000D03*
%TO.P,T1,2,2*%
%TO.N,/CAN_H*%
X149480000Y-92875000D03*
%TO.P,T1,3,3*%
%TO.N,/CAN_L*%
X149480000Y-90675000D03*
%TO.P,T1,4,4*%
%TO.N,/CAN_L_IN*%
X144781000Y-90675000D03*
%TD*%
D21*
%TO.P,J1,01,01*%
%TO.N,/D1*%
X151405000Y-84700000D03*
D22*
%TO.P,J1,02,02*%
%TO.N,/D0*%
X148865000Y-84700000D03*
%TO.P,J1,03,03*%
%TO.N,/RST1*%
X146325000Y-84700000D03*
%TO.P,J1,04,04*%
%TO.N,GND*%
X143785000Y-84700000D03*
%TO.P,J1,05,05*%
%TO.N,/CAN_INT_DEFAULT*%
X141245000Y-84700000D03*
%TO.P,J1,06,06*%
%TO.N,/CAN_CS_DEFAULT*%
X138705000Y-84700000D03*
%TO.P,J1,07,07*%
%TO.N,/ESTOP*%
X136165000Y-84700000D03*
%TO.P,J1,08,08*%
%TO.N,/D5*%
X133625000Y-84700000D03*
%TO.P,J1,09,09*%
%TO.N,/D6*%
X131085000Y-84700000D03*
%TO.P,J1,10,10*%
%TO.N,/D7*%
X128545000Y-84700000D03*
%TO.P,J1,11,11*%
%TO.N,/D8*%
X126005000Y-84700000D03*
%TO.P,J1,12,12*%
%TO.N,/D9*%
X123465000Y-84700000D03*
%TO.P,J1,13,13*%
%TO.N,/D10*%
X120925000Y-84700000D03*
%TO.P,J1,14,14*%
%TO.N,/MOSI*%
X118385000Y-84700000D03*
%TO.P,J1,15,15*%
%TO.N,/MISO*%
X115845000Y-84700000D03*
%TD*%
D25*
%TO.P,J3,1,Pin_1*%
%TO.N,/~{CAN_INT}*%
X115025000Y-88375000D03*
D26*
%TO.P,J3,2,Pin_2*%
%TO.N,/CAN_CS*%
X115025000Y-90915000D03*
%TO.P,J3,3,Pin_3*%
%TO.N,/CAN_RESET*%
X115025000Y-93455000D03*
%TO.P,J3,4,Pin_4*%
%TO.N,/SILENT*%
X115025000Y-95995000D03*
%TD*%
D27*
%TO.N,VCC*%
X149335000Y-97460000D03*
%TO.N,GND*%
X148420000Y-89278700D03*
X131375000Y-95100000D03*
X135725000Y-95175000D03*
X143919347Y-87045000D03*
X152931303Y-91943052D03*
X119590000Y-92430000D03*
X150825000Y-90478700D03*
X162290000Y-86230000D03*
X134125000Y-93575000D03*
X116780000Y-91820000D03*
X164370000Y-92030000D03*
%TO.N,/CAN_H*%
X152210000Y-93260000D03*
%TO.N,/CAN_L*%
X152350000Y-91330000D03*
%TO.N,/SILENT*%
X139925000Y-94875000D03*
%TO.N,/CAN_CS*%
X130650000Y-90875000D03*
%TO.N,/~{CAN_INT}*%
X140000000Y-89300000D03*
X126610000Y-88875000D03*
X135150000Y-88300000D03*
%TO.N,/CAN_RESET*%
X131862500Y-91987500D03*
%TO.N,/SCK*%
X127700000Y-89450000D03*
%TO.N,/CAN_TX*%
X137837500Y-93712500D03*
X164501000Y-89230000D03*
%TO.N,/CAN_H_IN*%
X142245000Y-92945000D03*
%TO.N,/CAN_L_IN*%
X142362500Y-91437500D03*
%TO.N,GND*%
X156392831Y-95392831D03*
%TO.N,Net-(Q1-S)*%
X160710000Y-86360000D03*
X165980000Y-88020000D03*
%TO.N,VCC*%
X167448870Y-93277355D03*
X134950000Y-86850000D03*
X160100000Y-98125000D03*
X139250000Y-93175000D03*
X145190000Y-97365000D03*
%TO.N,Net-(U3-FB)*%
X153037500Y-95152500D03*
X146730000Y-94215000D03*
%TO.N,Net-(U3-RT)*%
X153850000Y-94262500D03*
X153600000Y-96740000D03*
%TD*%
D28*
%TO.N,VCC*%
X145192500Y-97365000D02*
X145190000Y-97365000D01*
X145347500Y-97520000D02*
X145192500Y-97365000D01*
X149335000Y-97460000D02*
X149275000Y-97520000D01*
X149275000Y-97520000D02*
X145347500Y-97520000D01*
D29*
%TO.N,Net-(U3-FB)*%
X151715001Y-93830000D02*
X147115000Y-93830000D01*
X153037500Y-95152500D02*
X151715001Y-93830000D01*
X147115000Y-93830000D02*
X146730000Y-94215000D01*
%TO.N,Net-(U3-RT)*%
X153775001Y-94337499D02*
X153850000Y-94262500D01*
X153775001Y-96459533D02*
X153775001Y-94337499D01*
X153600000Y-96634534D02*
X153775001Y-96459533D01*
X153600000Y-96740000D02*
X153600000Y-96634534D01*
D30*
%TO.N,GND*%
X149968700Y-87730000D02*
X148420000Y-89278700D01*
X155660000Y-87730000D02*
X149968700Y-87730000D01*
D28*
X142810000Y-95262500D02*
X142780000Y-95292500D01*
X145537500Y-95275000D02*
X145525000Y-95262500D01*
X147625000Y-95275000D02*
X145537500Y-95275000D01*
X148560000Y-96210000D02*
X147625000Y-95275000D01*
X148560000Y-96260000D02*
X148560000Y-96210000D01*
X145525000Y-95262500D02*
X142810000Y-95262500D01*
D31*
%TO.N,VCC*%
X140497500Y-97220000D02*
X140490000Y-97212500D01*
X142632500Y-97220000D02*
X140497500Y-97220000D01*
X142780000Y-97367500D02*
X142632500Y-97220000D01*
X140630000Y-97072500D02*
X140490000Y-97212500D01*
X140630000Y-94555000D02*
X140630000Y-97072500D01*
X139250000Y-93175000D02*
X140630000Y-94555000D01*
%TO.N,/CAN_V+*%
X151161000Y-97949000D02*
X150980000Y-97949000D01*
X151460000Y-97650000D02*
X151161000Y-97949000D01*
X151500001Y-97650000D02*
X151460000Y-97650000D01*
X151160001Y-97310000D02*
X151500001Y-97650000D01*
X150980000Y-97310000D02*
X151160001Y-97310000D01*
D29*
%TO.N,VCC*%
X153600000Y-100175000D02*
X158045000Y-100175000D01*
X160095000Y-98125000D02*
X160100000Y-98125000D01*
X151875000Y-98450000D02*
X153600000Y-100175000D01*
X149780000Y-97990000D02*
X150240000Y-98450000D01*
X150240000Y-98450000D02*
X151875000Y-98450000D01*
X158045000Y-100175000D02*
X160095000Y-98125000D01*
D28*
X145525000Y-97337500D02*
X142810000Y-97337500D01*
X145195000Y-97337500D02*
X145525000Y-97337500D01*
X145190000Y-97342500D02*
X145195000Y-97337500D01*
X145190000Y-97365000D02*
X145190000Y-97342500D01*
X142810000Y-97337500D02*
X142780000Y-97367500D01*
%TO.N,+5V*%
X139751116Y-98418500D02*
X142268500Y-98418500D01*
X139190000Y-97857384D02*
X139751116Y-98418500D01*
X142268500Y-98418500D02*
X142275000Y-98425000D01*
X139190000Y-97212500D02*
X139190000Y-97857384D01*
X142275000Y-98425000D02*
X143780000Y-99930000D01*
%TO.N,+3V3*%
X121135000Y-97175000D02*
X118380000Y-99930000D01*
X137852500Y-97175000D02*
X121135000Y-97175000D01*
X137890000Y-97212500D02*
X137852500Y-97175000D01*
D31*
%TO.N,/CAN_V+*%
X159301831Y-94691831D02*
X160480000Y-95870000D01*
X154475000Y-96319298D02*
X156102467Y-94691831D01*
X154175000Y-97650000D02*
X154475000Y-97350000D01*
X151500001Y-97650000D02*
X154175000Y-97650000D01*
X154475000Y-97350000D02*
X154475000Y-96319298D01*
X156102467Y-94691831D02*
X159301831Y-94691831D01*
%TO.N,/RST1*%
X146325000Y-84690000D02*
X146325000Y-86325000D01*
X145300000Y-87350000D02*
X145300000Y-87525000D01*
X146325000Y-86325000D02*
X145300000Y-87350000D01*
%TO.N,GND*%
X143785000Y-84700000D02*
X143785000Y-86910653D01*
D29*
X152951000Y-91923355D02*
X152931303Y-91943052D01*
X163300000Y-91810000D02*
X162260000Y-90770000D01*
D31*
X117390000Y-92430000D02*
X116780000Y-91820000D01*
D29*
X150825000Y-90478700D02*
X152348643Y-90478700D01*
D30*
X161509000Y-87011000D02*
X162290000Y-86230000D01*
X155660000Y-87730000D02*
X156379000Y-87011000D01*
X156379000Y-87011000D02*
X161509000Y-87011000D01*
D29*
X164370000Y-92030000D02*
X164150000Y-91810000D01*
X164150000Y-91810000D02*
X163300000Y-91810000D01*
X152348643Y-90478700D02*
X152951000Y-91081057D01*
D31*
X135725000Y-95175000D02*
X134125000Y-93575000D01*
D29*
X152951000Y-91081057D02*
X152951000Y-91923355D01*
D31*
X143785000Y-86910653D02*
X143919347Y-87045000D01*
X132900000Y-93575000D02*
X134125000Y-93575000D01*
X131375000Y-95100000D02*
X132900000Y-93575000D01*
X119590000Y-92430000D02*
X117390000Y-92430000D01*
%TO.N,+5V*%
X143755000Y-99930000D02*
X143785000Y-99930000D01*
%TO.N,/CAN_CS_DEFAULT*%
X138750000Y-87500000D02*
X138750000Y-84735000D01*
X138750000Y-84735000D02*
X138705000Y-84690000D01*
X138700000Y-87550000D02*
X138750000Y-87500000D01*
%TO.N,/CAN_INT_DEFAULT*%
X141245000Y-87270000D02*
X141275000Y-87300000D01*
X141275000Y-87300000D02*
X141275000Y-84720000D01*
X141275000Y-84720000D02*
X141245000Y-84690000D01*
D29*
%TO.N,/CAN_H*%
X152534918Y-93275000D02*
X157079918Y-88730000D01*
X152225000Y-93275000D02*
X152534918Y-93275000D01*
D31*
X152180000Y-93260000D02*
X151995000Y-93075000D01*
D29*
X152210000Y-93260000D02*
X152225000Y-93275000D01*
D31*
X149680000Y-93075000D02*
X149480000Y-92875000D01*
X152210000Y-93260000D02*
X152180000Y-93260000D01*
D29*
X157079918Y-88730000D02*
X162260000Y-88730000D01*
D31*
X151995000Y-93075000D02*
X149680000Y-93075000D01*
%TO.N,/CAN_L*%
X152330000Y-91350000D02*
X150155000Y-91350000D01*
X152350000Y-91330000D02*
X152330000Y-91350000D01*
X150155000Y-91350000D02*
X149480000Y-90675000D01*
%TO.N,/SILENT*%
X115120000Y-95900000D02*
X115025000Y-95995000D01*
X139925000Y-94875000D02*
X138900000Y-95900000D01*
X138900000Y-95900000D02*
X115120000Y-95900000D01*
%TO.N,/CAN_CS*%
X135162500Y-89462500D02*
X138087500Y-89462500D01*
X115025000Y-90915000D02*
X115130000Y-91020000D01*
X138087500Y-89462500D02*
X138750000Y-88800000D01*
X115130000Y-91020000D02*
X130505000Y-91020000D01*
X130650000Y-90875000D02*
X133750000Y-90875000D01*
X130505000Y-91020000D02*
X130650000Y-90875000D01*
X133750000Y-90875000D02*
X135162500Y-89462500D01*
%TO.N,/~{CAN_INT}*%
X115525000Y-88875000D02*
X115025000Y-88375000D01*
X126610000Y-88875000D02*
X115525000Y-88875000D01*
X140000000Y-89300000D02*
X140825000Y-89300000D01*
X126610000Y-88875000D02*
X126650000Y-88875000D01*
X126650000Y-88875000D02*
X127225000Y-88300000D01*
X127225000Y-88300000D02*
X135150000Y-88300000D01*
X140825000Y-89300000D02*
X141275000Y-88850000D01*
%TO.N,/CAN_RESET*%
X138636500Y-90063500D02*
X136712500Y-91987500D01*
X142436500Y-90063500D02*
X138636500Y-90063500D01*
X115130000Y-93560000D02*
X115025000Y-93455000D01*
X143675000Y-88825000D02*
X142436500Y-90063500D01*
X131862500Y-91987500D02*
X130290000Y-93560000D01*
X145300000Y-88825000D02*
X143675000Y-88825000D01*
X130290000Y-93560000D02*
X115130000Y-93560000D01*
X136712500Y-91987500D02*
X131862500Y-91987500D01*
%TO.N,/SCK*%
X127700000Y-89450000D02*
X127500000Y-89650000D01*
X113475000Y-97560000D02*
X115845000Y-99930000D01*
X114300000Y-89650000D02*
X113475000Y-90475000D01*
X113475000Y-90475000D02*
X113475000Y-97560000D01*
X127500000Y-89650000D02*
X114300000Y-89650000D01*
D29*
%TO.N,/CAN_TX*%
X164501000Y-89230000D02*
X164501000Y-88969000D01*
X163002000Y-87470000D02*
X157755000Y-87470000D01*
X155346300Y-89878700D02*
X143329820Y-89878700D01*
X140713500Y-90836500D02*
X137837500Y-93712500D01*
X164501000Y-88969000D02*
X163002000Y-87470000D01*
X142372020Y-90836500D02*
X140713500Y-90836500D01*
X143329820Y-89878700D02*
X142372020Y-90836500D01*
X157755000Y-87470000D02*
X155346300Y-89878700D01*
D31*
%TO.N,/CAN_H_IN*%
X142245000Y-92945000D02*
X144711000Y-92945000D01*
X144711000Y-92945000D02*
X144781000Y-92875000D01*
%TO.N,/CAN_L_IN*%
X144018500Y-91437500D02*
X144781000Y-90675000D01*
X142362500Y-91437500D02*
X144018500Y-91437500D01*
D28*
%TO.N,GND*%
X158375000Y-97375000D02*
X161125000Y-97375000D01*
X161125000Y-97375000D02*
X162260000Y-96240000D01*
X156392831Y-95392831D02*
X158375000Y-97375000D01*
X162260000Y-96240000D02*
X162260000Y-94850000D01*
D29*
%TO.N,Net-(Q1-S)*%
X165597775Y-84024000D02*
X163402338Y-84024000D01*
X166726000Y-85152225D02*
X165597775Y-84024000D01*
X161066338Y-86360000D02*
X160710000Y-86360000D01*
X166726000Y-87274000D02*
X166726000Y-85152225D01*
X165980000Y-88020000D02*
X166726000Y-87274000D01*
X163402338Y-84024000D02*
X161066338Y-86360000D01*
D31*
%TO.N,VCC*%
X136325000Y-87225000D02*
X136325000Y-87387500D01*
D29*
X167448870Y-93277355D02*
X162601225Y-98125000D01*
D31*
X135950000Y-86850000D02*
X136325000Y-87225000D01*
X134950000Y-86850000D02*
X135950000Y-86850000D01*
D29*
X162601225Y-98125000D02*
X160100000Y-98125000D01*
X149780000Y-97990000D02*
X148780000Y-97990000D01*
%TD*%
%TA.AperFunction,Conductor*%
%TO.N,GND*%
G36*
X148332061Y-95768907D02*
G01*
X148368025Y-95818407D01*
X148368025Y-95879593D01*
X148360121Y-95890471D01*
X148356837Y-95915414D01*
X148551423Y-96110000D01*
X148530163Y-96110000D01*
X148475032Y-96132836D01*
X148432836Y-96175032D01*
X148410000Y-96230163D01*
X148410000Y-96251423D01*
X148215414Y-96056837D01*
X148187260Y-96105603D01*
X148160000Y-96207340D01*
X148160000Y-96312659D01*
X148187259Y-96414393D01*
X148215415Y-96463161D01*
X148410000Y-96268576D01*
X148410000Y-96289837D01*
X148432836Y-96344968D01*
X148475032Y-96387164D01*
X148530163Y-96410000D01*
X148551421Y-96410000D01*
X148356836Y-96604584D01*
X148358164Y-96614667D01*
X148381634Y-96640733D01*
X148388030Y-96701583D01*
X148357437Y-96754571D01*
X148301542Y-96779458D01*
X148291193Y-96780000D01*
X148021488Y-96780000D01*
X148008566Y-96779153D01*
X147894630Y-96764153D01*
X147869666Y-96757464D01*
X147769540Y-96715990D01*
X147747159Y-96703068D01*
X147661180Y-96637094D01*
X147642905Y-96618819D01*
X147576931Y-96532840D01*
X147564009Y-96510459D01*
X147522533Y-96410329D01*
X147515847Y-96385371D01*
X147501701Y-96277920D01*
X147501701Y-96252079D01*
X147510146Y-96187929D01*
X147515847Y-96144626D01*
X147522533Y-96119672D01*
X147564011Y-96019534D01*
X147576928Y-95997163D01*
X147642908Y-95911176D01*
X147661176Y-95892908D01*
X147747163Y-95826928D01*
X147769534Y-95814011D01*
X147869672Y-95772533D01*
X147894626Y-95765847D01*
X147995147Y-95752613D01*
X148008567Y-95750847D01*
X148021488Y-95750000D01*
X148273870Y-95750000D01*
X148332061Y-95768907D01*
G37*
%TD.AperFunction*%
%TA.AperFunction,Conductor*%
G36*
X149332061Y-95768907D02*
G01*
X149368025Y-95818407D01*
X149368025Y-95879593D01*
X149360121Y-95890471D01*
X149356837Y-95915414D01*
X149551423Y-96110000D01*
X149530163Y-96110000D01*
X149475032Y-96132836D01*
X149432836Y-96175032D01*
X149410000Y-96230163D01*
X149410000Y-96251423D01*
X149215414Y-96056837D01*
X149187260Y-96105603D01*
X149160000Y-96207340D01*
X149160000Y-96312659D01*
X149187259Y-96414393D01*
X149215415Y-96463161D01*
X149410000Y-96268576D01*
X149410000Y-96289837D01*
X149432836Y-96344968D01*
X149475032Y-96387164D01*
X149530163Y-96410000D01*
X149551421Y-96410000D01*
X149356836Y-96604584D01*
X149357894Y-96612621D01*
X149364468Y-96621669D01*
X149381634Y-96640733D01*
X149382194Y-96646066D01*
X149385348Y-96650407D01*
X149385348Y-96676067D01*
X149388030Y-96701583D01*
X149385348Y-96706228D01*
X149385348Y-96711593D01*
X149370263Y-96732354D01*
X149357437Y-96754571D01*
X149352537Y-96756752D01*
X149349384Y-96761093D01*
X149324981Y-96769021D01*
X149301542Y-96779458D01*
X149291193Y-96780000D01*
X149195494Y-96780000D01*
X149141091Y-96762323D01*
X149140831Y-96762775D01*
X149138708Y-96761549D01*
X149137303Y-96761093D01*
X149135226Y-96759542D01*
X149135209Y-96759529D01*
X149055290Y-96713387D01*
X149055289Y-96713386D01*
X149055288Y-96713386D01*
X148966144Y-96689500D01*
X148873856Y-96689500D01*
X148867367Y-96689500D01*
X148867367Y-96687067D01*
X148817569Y-96677827D01*
X148775461Y-96633436D01*
X148772348Y-96613771D01*
X148568577Y-96410000D01*
X148589837Y-96410000D01*
X148644968Y-96387164D01*
X148687164Y-96344968D01*
X148710000Y-96289837D01*
X148710000Y-96268577D01*
X148904584Y-96463161D01*
X148932739Y-96414396D01*
X148960000Y-96312659D01*
X148960000Y-96207340D01*
X148932739Y-96105601D01*
X148904585Y-96056837D01*
X148904584Y-96056836D01*
X148710000Y-96251420D01*
X148710000Y-96230163D01*
X148687164Y-96175032D01*
X148644968Y-96132836D01*
X148589837Y-96110000D01*
X148568577Y-96110000D01*
X148773539Y-95905037D01*
X148777821Y-95881930D01*
X148822201Y-95839811D01*
X148867367Y-95832660D01*
X148867367Y-95830500D01*
X148966142Y-95830500D01*
X148966144Y-95830500D01*
X149055288Y-95806614D01*
X149130371Y-95763263D01*
X149179872Y-95750000D01*
X149273870Y-95750000D01*
X149332061Y-95768907D01*
G37*
%TD.AperFunction*%
%TA.AperFunction,Conductor*%
G36*
X150332061Y-95768907D02*
G01*
X150368025Y-95818407D01*
X150368025Y-95879593D01*
X150360121Y-95890471D01*
X150356837Y-95915414D01*
X150551423Y-96110000D01*
X150530163Y-96110000D01*
X150475032Y-96132836D01*
X150432836Y-96175032D01*
X150410000Y-96230163D01*
X150410000Y-96251423D01*
X150215414Y-96056837D01*
X150187260Y-96105603D01*
X150160000Y-96207340D01*
X150160000Y-96312659D01*
X150187259Y-96414393D01*
X150215415Y-96463161D01*
X150410000Y-96268576D01*
X150410000Y-96289837D01*
X150432836Y-96344968D01*
X150475032Y-96387164D01*
X150530163Y-96410000D01*
X150551421Y-96410000D01*
X150356836Y-96604584D01*
X150358164Y-96614667D01*
X150381634Y-96640733D01*
X150388030Y-96701583D01*
X150357437Y-96754571D01*
X150301542Y-96779458D01*
X150291193Y-96780000D01*
X150015494Y-96780000D01*
X149972595Y-96770223D01*
X149959707Y-96764026D01*
X149955212Y-96759531D01*
X149875288Y-96713386D01*
X149828070Y-96700734D01*
X149819732Y-96696725D01*
X149803969Y-96681672D01*
X149785693Y-96669804D01*
X149782309Y-96660989D01*
X149775481Y-96654469D01*
X149771576Y-96633026D01*
X149763767Y-96612682D01*
X149764050Y-96605473D01*
X149568577Y-96410000D01*
X149589837Y-96410000D01*
X149644968Y-96387164D01*
X149687164Y-96344968D01*
X149710000Y-96289837D01*
X149710000Y-96268577D01*
X149904584Y-96463161D01*
X149932739Y-96414396D01*
X149960000Y-96312659D01*
X149960000Y-96207340D01*
X149932739Y-96105601D01*
X149904585Y-96056837D01*
X149904584Y-96056836D01*
X149710000Y-96251420D01*
X149710000Y-96230163D01*
X149687164Y-96175032D01*
X149644968Y-96132836D01*
X149589837Y-96110000D01*
X149568577Y-96110000D01*
X149767054Y-95911522D01*
X149775628Y-95865260D01*
X149820010Y-95823142D01*
X149821061Y-95822648D01*
X149828784Y-95819074D01*
X149875288Y-95806614D01*
X149954242Y-95761028D01*
X149958301Y-95759151D01*
X149971715Y-95757544D01*
X149999872Y-95750000D01*
X150273870Y-95750000D01*
X150332061Y-95768907D01*
G37*
%TD.AperFunction*%
%TA.AperFunction,Conductor*%
G36*
X151332061Y-95768907D02*
G01*
X151368025Y-95818407D01*
X151368025Y-95879593D01*
X151360121Y-95890471D01*
X151356837Y-95915414D01*
X151551423Y-96110000D01*
X151530163Y-96110000D01*
X151475032Y-96132836D01*
X151432836Y-96175032D01*
X151410000Y-96230163D01*
X151410000Y-96251423D01*
X151215414Y-96056837D01*
X151187260Y-96105603D01*
X151160000Y-96207340D01*
X151160000Y-96312659D01*
X151187259Y-96414393D01*
X151215415Y-96463161D01*
X151410000Y-96268576D01*
X151410000Y-96289837D01*
X151432836Y-96344968D01*
X151475032Y-96387164D01*
X151530163Y-96410000D01*
X151551421Y-96410000D01*
X151356836Y-96604584D01*
X151358164Y-96614667D01*
X151381634Y-96640733D01*
X151388030Y-96701583D01*
X151357437Y-96754571D01*
X151301542Y-96779458D01*
X151291193Y-96780000D01*
X150828805Y-96780000D01*
X150770614Y-96761093D01*
X150734650Y-96711593D01*
X150734650Y-96650407D01*
X150762104Y-96612619D01*
X150763161Y-96604584D01*
X150568577Y-96410000D01*
X150589837Y-96410000D01*
X150644968Y-96387164D01*
X150687164Y-96344968D01*
X150710000Y-96289837D01*
X150710000Y-96268577D01*
X150904584Y-96463161D01*
X150932739Y-96414396D01*
X150960000Y-96312659D01*
X150960000Y-96207340D01*
X150932739Y-96105601D01*
X150904585Y-96056837D01*
X150904584Y-96056836D01*
X150710000Y-96251420D01*
X150710000Y-96230163D01*
X150687164Y-96175032D01*
X150644968Y-96132836D01*
X150589837Y-96110000D01*
X150568577Y-96110000D01*
X150763161Y-95915415D01*
X150760409Y-95894511D01*
X150755686Y-95889265D01*
X150749292Y-95828415D01*
X150779886Y-95775427D01*
X150835782Y-95750542D01*
X150846128Y-95750000D01*
X151273870Y-95750000D01*
X151332061Y-95768907D01*
G37*
%TD.AperFunction*%
%TA.AperFunction,Conductor*%
G36*
X152091433Y-95750847D02*
G01*
X152107634Y-95752979D01*
X152205371Y-95765847D01*
X152230329Y-95772533D01*
X152330461Y-95814010D01*
X152352839Y-95826930D01*
X152402791Y-95865260D01*
X152438819Y-95892905D01*
X152457094Y-95911180D01*
X152523068Y-95997159D01*
X152535990Y-96019540D01*
X152577464Y-96119666D01*
X152584153Y-96144631D01*
X152598298Y-96252079D01*
X152598298Y-96277921D01*
X152584153Y-96385368D01*
X152577464Y-96410333D01*
X152535990Y-96510459D01*
X152523068Y-96532840D01*
X152457094Y-96618819D01*
X152438819Y-96637094D01*
X152352840Y-96703068D01*
X152330459Y-96715990D01*
X152230333Y-96757464D01*
X152205369Y-96764153D01*
X152091434Y-96779153D01*
X152078512Y-96780000D01*
X151828805Y-96780000D01*
X151770614Y-96761093D01*
X151734650Y-96711593D01*
X151734650Y-96650407D01*
X151762104Y-96612619D01*
X151763161Y-96604584D01*
X151568577Y-96410000D01*
X151589837Y-96410000D01*
X151644968Y-96387164D01*
X151687164Y-96344968D01*
X151710000Y-96289837D01*
X151710000Y-96268577D01*
X151904584Y-96463161D01*
X151932739Y-96414396D01*
X151960000Y-96312659D01*
X151960000Y-96207340D01*
X151932739Y-96105601D01*
X151904585Y-96056837D01*
X151904584Y-96056836D01*
X151710000Y-96251420D01*
X151710000Y-96230163D01*
X151687164Y-96175032D01*
X151644968Y-96132836D01*
X151589837Y-96110000D01*
X151568577Y-96110000D01*
X151763161Y-95915415D01*
X151760409Y-95894511D01*
X151755686Y-95889265D01*
X151749292Y-95828415D01*
X151779886Y-95775427D01*
X151835782Y-95750542D01*
X151846128Y-95750000D01*
X152078512Y-95750000D01*
X152091433Y-95750847D01*
G37*
%TD.AperFunction*%
%TD*%
M02*
